<svg width="428" height="380" viewBox="0 0 428 380" fill="none" xmlns="http://www.w3.org/2000/svg">
<path d="M254.101 179.825C239.019 191.633 224.414 212.692 218.997 221.745L231.348 259.531C229.268 212.298 283.353 160.341 310.656 140.267C357.461 110.51 398.198 103.071 412.716 103.071V101.299H402.965L427.018 86.5389L425.718 85.3581L402.965 98.3473L409.466 82.9964H407.516L397.115 101.299C382.033 103.661 344.46 117.241 327.558 123.735L363.311 87.7198L361.361 85.9485C359.801 92.0888 307.839 134.56 282.053 155.027C282.573 146.525 280.97 130.623 280.103 123.735L287.904 114.879V112.517L278.153 121.964C275.033 112.517 251.284 90.475 239.799 80.6347L239.149 68.236L236.549 68.8264L235.899 79.4539L233.949 78.2731C232.388 78.2731 228.098 73.1561 226.148 70.5976L224.198 71.1881L230.698 79.4539C248.9 91.2623 262.985 107.991 267.752 114.879C284.914 144.636 265.802 170.575 254.101 179.825Z" fill="url(#paint0_linear_1147_1016)"/>
<path d="M140.074 155.231C168.507 176.138 193.386 212.376 202.271 227.882C203.526 241.68 199.658 262.552 197.567 271.263C183.351 183.455 110.282 168.298 74.2185 168.298C66.9011 169.343 50.8727 172.654 42.3359 174.57V171.957C58.643 169.866 64.8105 165.859 65.8558 164.117C54.1481 160.354 17.0737 159.761 0 159.935V157.845L21.4293 157.322C17.6661 155.231 11.8471 153.315 9.40797 152.618V151.05C13.1712 151.05 21.0808 154.883 24.5653 156.799C35.4367 158.054 62.1972 158.716 74.2185 158.89C61.2564 152.618 59.0612 148.611 59.5838 147.391C69.2009 156.172 83.4522 161.155 89.3757 162.549C110.7 164.639 134.848 172.479 144.256 176.138C143.001 169.866 127.705 156.799 120.213 151.05C103.488 143.106 86.7624 126.833 80.4904 119.69L70.0371 109.76L71.0825 108.192L79.4451 116.032C79.027 115.195 73.6958 104.184 71.0825 98.7836L72.6505 97.7382C82.6856 121.572 104.359 133.454 113.941 136.415C97.6339 107.982 97.39 92.5116 99.3064 88.3303C99.8291 106.624 111.209 120.213 111.328 121.258C107.983 93.2433 117.6 70.2112 122.826 62.197C104.428 121.154 126.659 148.785 140.074 155.231Z" fill="url(#paint1_linear_1147_1016)"/>
<path d="M162.193 53.5206C152.559 43.4178 143.811 26.0587 140.642 18.642H143.177C145.206 27.7826 166.842 54.5228 177.406 66.7504C178.928 53.7611 171.279 29.2659 167.264 18.642L168.532 12.6284C172.969 24.0542 182.635 56.973 182.477 57.73C183.491 51.957 192.197 32.8741 196.422 24.0542L200.859 0H202.761C202.127 6.81535 200.859 20.6866 200.859 21.6488C200.859 22.6109 205.93 17.2388 208.466 14.4325C202.888 22.1299 195.155 40.0903 191.985 48.1084C180.829 70.2382 198.324 119.469 208.466 141.318C223.172 101.869 249.667 77.5748 261.077 70.3585L273.121 46.9057L275.656 48.1084L265.514 69.1558L295.306 49.9124V53.5206C227.355 95.3749 215.861 153.546 218.608 177.4C219.622 208.67 227.482 240.141 231.285 251.968C224.947 274.418 212.269 319.8 212.269 321.725C212.269 323.649 216.072 361.013 217.974 379.455H116.555C117.062 376.568 128.176 372.239 133.669 370.435C141.783 369.472 152.685 363.218 157.122 360.211C161.179 350.109 186.069 311.508 196.422 272.831C212.142 157.371 181.209 81.3833 162.193 53.5206Z" fill="url(#paint2_linear_1147_1016)"/>
<defs>
<linearGradient id="paint0_linear_1147_1016" x1="414.049" y1="63.3721" x2="247.968" y2="197.022" gradientUnits="userSpaceOnUse">
<stop stop-color="#975350"/>
<stop offset="1" stop-color="#80615D"/>
</linearGradient>
<linearGradient id="paint1_linear_1147_1016" x1="101.258" y1="62.197" x2="229.657" y2="239.936" gradientUnits="userSpaceOnUse">
<stop stop-color="#725455"/>
<stop offset="0.5" stop-color="#8C726D"/>
<stop offset="1" stop-color="#6C4742"/>
</linearGradient>
<linearGradient id="paint2_linear_1147_1016" x1="246.293" y1="22.3053" x2="177.731" y2="374.354" gradientUnits="userSpaceOnUse">
<stop stop-color="#6A3F3D"/>
<stop offset="0.505658" stop-color="#83594C"/>
<stop offset="0.865385" stop-color="#936C61"/>
<stop offset="0.9999" stop-color="#764037"/>
</linearGradient>
</defs>
</svg>
