<svg width="963" height="731" viewBox="0 0 963 731" fill="none" xmlns="http://www.w3.org/2000/svg">
<g filter="url(#filter0_n_1147_1017)">
<path d="M33.1659 583.07L6.34008 555.849C4.48295 553.964 3.44189 551.425 3.44189 548.779C3.44189 543.219 7.94702 538.711 13.507 538.707L942.643 538.045C948.449 538.041 953.158 542.747 953.158 548.553C953.158 551.499 951.921 554.31 949.749 556.3L934.094 570.645L910.363 591.622C903.396 597.781 894.956 602.036 885.861 603.975L792.778 623.826C783.705 625.761 775.35 630.183 768.648 636.598C744.564 659.651 713.355 673.826 680.149 676.796L616.653 682.473C611.556 682.929 606.716 684.703 602.415 687.476C582.421 700.367 519.893 737.309 470.441 729.861C416.079 721.674 378.212 699.514 362.667 688.937C357.423 685.37 351.347 683.026 345.01 682.761L287.568 680.359C255.953 679.037 225.609 667.55 201.045 647.603L184.072 633.821C176.961 628.046 168.497 624.176 159.478 622.573L100.44 612.084C97.2744 611.521 94.1657 610.677 91.1506 609.562L51.4312 594.869C44.551 592.323 38.3151 588.295 33.1659 583.07Z" fill="url(#paint0_linear_1147_1017)"/>
<path d="M31.9017 583.353L5.153 556.095C3.29988 554.207 2.26172 551.667 2.26172 549.021C2.26172 543.446 6.77933 538.925 12.3547 538.921L535.25 538.547C541.881 538.542 547.259 543.916 547.259 550.547V582.612C546.781 599.742 541.323 622.381 538.654 631.559C532.864 650.033 511.6 686.208 501.691 701.987C498.065 710.086 488.191 717.617 478.989 723.056C470.347 728.164 460.006 729.262 450.201 727.107C405.603 717.307 374.418 698.838 360.673 689.45C355.421 685.863 349.339 683.512 342.983 683.245L285.995 680.852C254.285 679.521 223.858 667.963 199.261 647.906L182.509 634.245C175.39 628.44 166.909 624.547 157.867 622.934L99.0617 612.442C95.8855 611.875 92.7663 611.025 89.7418 609.901L50.1765 595.203C43.2882 592.644 37.0485 588.598 31.9017 583.353Z" fill="url(#paint1_linear_1147_1017)"/>
<path d="M335.193 577.263L234.494 571.289C226.912 590.532 240.792 609.88 248.68 617.148L278.701 629.075L313.89 677.586L355.674 679.99C373.643 694.554 387.249 696.306 391.807 695.361C389.55 693.965 386.152 681.846 383.905 675.809C382.625 663.203 376.326 646.391 374.352 640.656C358.558 631.485 337.433 593.664 335.193 577.263Z" fill="url(#paint2_linear_1147_1017)" fill-opacity="0.88"/>
<path d="M234.524 571.226C232.965 585.363 239.135 614.564 276.289 618.275C284.346 620.548 299.809 629.898 297.201 649.108C301.146 655.344 308.093 666.101 311.853 671.263C312.801 672.355 313.661 673.344 314.395 674.188C314.172 674.284 313.225 673.145 311.853 671.263C306.018 664.538 296.846 653.899 292.936 649.108C286.355 642.126 267.341 628.819 243.933 631.444C232.334 633.062 206.833 630.074 197.629 605.188C198.005 613.801 207.792 632.112 243.933 636.444C250.871 638.971 265.651 646.365 269.273 655.723C274.038 659.341 284.183 667.467 286.646 671.024C276.448 663.131 251.897 646.552 235.273 643.382C241.217 650.757 253.538 665.726 255.279 666.6C251.394 672.272 230.204 674.727 176.378 626.146C169.688 623.233 151.017 617.961 140.346 615.427C130.363 602.269 109.966 578.679 104.696 559.264L102.513 554.513C142.219 557.746 224.21 565.614 234.524 571.226Z" fill="url(#paint3_linear_1147_1017)"/>
<path d="M381.423 580.113H372.811C377.389 593.753 386.544 621.405 386.544 622.889C394.224 649.063 405.164 657.747 406.095 660.319C416.894 669.288 422.387 684.79 423.784 691.419C423.784 679.073 413.388 663.827 408.189 657.747C399.438 642.781 386.699 599.755 381.423 580.113Z" fill="url(#paint4_linear_1147_1017)"/>
<path d="M372.811 638.38C355.209 628.775 339.475 593.518 333.808 577.09H331.039C335.793 593.286 348.154 612.648 353.741 620.304C357.747 627.442 367.215 635.807 371.449 639.098C376.558 642.885 380.605 659.073 381.989 666.694C383.477 681.694 389.306 690.368 392.034 692.83C388.699 689.367 385.549 678.959 384.391 674.188C380.723 649.11 375.143 639.867 372.811 638.38Z" fill="url(#paint5_linear_1147_1017)"/>
<path d="M430.587 663.462C426.611 658.488 427.118 651.466 427.868 648.577C431.579 635.378 428.374 621.952 426.248 616.712C432.228 629.882 432.07 639.612 431.243 642.831C426.818 652.703 428.962 660.698 430.587 663.462Z" fill="url(#paint6_linear_1147_1017)"/>
<path d="M440.433 647.918C450.747 656.365 465.825 678.12 443.621 697.564C451.028 689.556 460.762 668.417 440.433 647.918Z" fill="url(#paint7_linear_1147_1017)"/>
<path d="M104.129 556.011L95.5347 554.513C99.6205 564.327 109.35 577.46 113.704 582.8C125.961 601.39 139.812 615.423 141.285 614.831C139.223 614.239 118.713 586.944 118.713 585.612C112.349 578.034 106.338 562.72 104.129 556.011Z" fill="url(#paint8_linear_1147_1017)"/>
<path d="M238.865 590.241C236.363 574.32 232.903 570.071 231.486 569.936C229.241 573.482 233.705 584.252 236.218 589.193C242.827 607.435 251.376 610.599 254.824 609.901C246.74 607.451 240.816 595.774 238.865 590.241Z" fill="url(#paint9_linear_1147_1017)"/>
<path d="M88.4285 555.758L76.3301 554.513C79.3023 566.84 91.9851 579.621 97.9549 584.47C109.31 592.739 111.133 602.272 110.625 606.004L135.013 610.407C133.946 607.497 118.31 589.223 110.625 580.45C102.852 576.775 92.5884 562.457 88.4285 555.758Z" fill="url(#paint10_linear_1147_1017)"/>
<path d="M74.4363 555.758L62.3379 554.513C65.3102 566.84 77.9929 579.621 83.9628 584.47C95.3182 592.739 97.1409 602.272 96.6329 606.004L121.02 610.407C120.217 608.215 111.146 597.305 103.434 588.305C98.9742 583.1 93.2914 578.966 88.5023 574.063C82.7956 568.22 77.2349 560.265 74.4363 555.758Z" fill="url(#paint11_linear_1147_1017)"/>
<path d="M448.123 581.959H440.068C442.484 608.874 461.435 628.813 470.608 635.418C492.663 653.4 483.73 685.886 476.508 699.881C497.988 664.89 482.645 639.058 472.288 630.515C451.575 615.871 447.548 592.043 448.123 581.959Z" fill="url(#paint12_linear_1147_1017)"/>
<path d="M421.067 606.718C408.921 597.085 408.149 586.198 409.281 581.959C409.281 584.63 414.208 593.156 416.671 597.085C428.018 609.186 428.99 620.323 428.058 624.38C427.419 615.549 423.131 608.926 421.067 606.718Z" fill="url(#paint13_linear_1147_1017)"/>
<path d="M299.409 592.068C293.336 576.815 296.213 576.212 298.41 577.818C311.576 594.698 330.665 634.223 338.563 651.875L323.581 632.006C317.028 627.671 304.736 603.574 299.409 592.068Z" fill="url(#paint14_linear_1147_1017)"/>
<path d="M166.019 566.979C177.431 574.845 196.274 604.042 196.407 604.842C201.079 616.147 213.658 625.817 219.363 629.239C208.853 625.613 198.972 614.841 195.344 609.908L179.023 590.71C162.568 572.258 163.497 567.201 166.019 566.979Z" fill="url(#paint15_linear_1147_1017)"/>
<path d="M762.37 571.129L705.377 576.449C705.377 585.609 692.082 611.462 685.434 623.243L687.538 624.505C735.548 604.597 757.43 580.626 762.37 571.129Z" fill="url(#paint16_linear_1147_1017)"/>
<path d="M772.688 630.637C780.585 626.036 798.079 567.845 799.466 566.95C800.883 566.036 843.018 564.583 863.148 562.533C858.029 585.541 835.839 604.212 825.384 610.671C822.792 614.121 781.216 627.785 772.688 630.637C772.521 630.735 772.358 630.808 772.2 630.856C770.584 631.351 770.95 631.219 772.688 630.637Z" fill="url(#paint17_linear_1147_1017)"/>
<path d="M577.622 586.347L572.632 587.05C573.887 596.492 572.109 617.587 571.063 626.954C565.771 642.786 552.511 665.868 546.542 675.43C542.551 681.163 530.433 693.368 524.873 698.754C528.18 698.08 540.697 685.266 546.542 678.943C547.113 682.765 544.784 693.743 543.549 698.754C547.198 694.371 549.061 682.596 549.536 677.257C556.037 667.252 569.258 639.553 575.056 626.954C578.135 619.648 578.05 596.839 577.622 586.347Z" fill="url(#paint18_linear_1147_1017)"/>
<path d="M606.317 618.86C609.413 602.968 616.959 591.684 620.346 588.028C612.46 602.688 608.282 622.008 607.179 629.836C600.79 645.323 589.752 655.247 585.032 658.274L594.707 646.195C601.802 638.44 605.403 624.74 606.317 618.86Z" fill="url(#paint19_linear_1147_1017)"/>
<path d="M634.52 582.61H631.498L628.918 620.157C627.231 628.406 620.418 637.038 619.315 637.614C606.754 650.454 605.991 658.15 607.179 660.393C607.179 657.87 611.468 650.743 613.612 647.494C621.755 638.87 628.929 627.467 631.498 622.844C632.777 621.468 634.045 595.448 634.52 582.61Z" fill="url(#paint20_linear_1147_1017)"/>
<path d="M586.696 694.497C587.11 694.089 604.357 669.91 606.003 664.965C606.027 664.882 606.051 664.801 606.075 664.721C606.056 664.796 606.032 664.877 606.003 664.965C603.977 671.698 597.417 686.637 586.696 694.497Z" fill="url(#paint21_linear_1147_1017)"/>
<path d="M677.721 578.71L674.5 579.069C674.5 579.355 672.654 596.09 671.731 604.422C670.316 614.477 661.554 629.177 657.35 635.27C668.078 625.49 673.253 610.348 674.5 603.999L677.721 578.71Z" fill="url(#paint22_linear_1147_1017)"/>
<path d="M651.993 656.583C691.366 622.847 703.041 589.583 703.956 577.168L705.665 576.548V577.168C704.516 591.537 693.179 612.639 687.654 621.393C686.239 623.571 688.243 623.268 689.422 622.844C692.25 619.997 709.091 612.776 717.157 609.522C734.13 601.015 754.359 580.42 762.352 571.187H765.778C757.026 590.964 723.824 609.631 708.317 616.492C695.853 619.455 681.813 631.807 676.352 637.614C668.952 649.429 651.386 670.951 643.528 680.235C641.382 681.456 632.894 681.422 628.918 681.252C630.436 679.625 644.934 664.128 651.993 656.583Z" fill="url(#paint23_linear_1147_1017)"/>
<path d="M732.604 618.86C717.733 624.233 694.444 636.88 684.658 642.532C711.685 635.32 730.145 624.61 735.997 620.157C760.262 605.397 764.597 597.615 763.731 595.569C760.545 602.946 741.652 614.17 732.604 618.86Z" fill="url(#paint24_linear_1147_1017)"/>
<path d="M700.443 658.274C673.889 661.097 659.481 672.105 655.596 677.257C663.739 670.374 688.887 663.146 700.443 660.393C728.414 651.418 737.767 641.467 738.947 637.614C730.804 647.404 709.885 655.467 700.443 658.274Z" fill="url(#paint25_linear_1147_1017)"/>
<path d="M753.455 628.372C753.184 629.44 743.565 636.797 741.669 642.532C745.597 639.192 753.455 631.683 753.455 628.372Z" fill="url(#paint26_linear_1147_1017)"/>
<path d="M822.798 593.75C817.712 600.385 795.996 608.31 785.774 611.443C807.411 601.607 818.175 595.012 820.852 592.944C827.608 580.484 829.87 569.615 830.156 565.737H831.961C830.614 577.68 825.291 589.389 822.798 593.75Z" fill="url(#paint27_linear_1147_1017)"/>
<path d="M864.641 562.151L861.746 562.865C857.693 586.548 835.449 601.742 824.833 606.379C803.216 613.512 788.483 621.874 783.819 625.164C797.04 624.308 812.81 619.734 819.043 617.555C851.661 598.247 863.033 572.574 864.641 562.151Z" fill="url(#paint28_linear_1147_1017)"/>
<path d="M840.04 613.621C839.885 613.739 839.761 613.822 839.671 613.869C839.794 613.786 839.917 613.704 840.04 613.621C843.796 610.77 865.64 587.985 866.451 585.93C865.173 590.102 858.103 601.445 840.04 613.621Z" fill="url(#paint29_linear_1147_1017)"/>
<path d="M891.936 558.905L887.645 559.225C888.685 567.361 879.715 583.121 882.185 581.647C884.161 580.468 889.509 565.994 891.936 558.905Z" fill="url(#paint30_linear_1147_1017)"/>
<path d="M922.486 553.395C921.511 553.609 919.483 554.074 919.171 554.228C915.986 562.044 909.928 577.432 911.176 576.458C912.424 575.484 919.236 560.677 922.486 553.395Z" fill="url(#paint31_linear_1147_1017)"/>
<path d="M948.132 538.651C545.414 480.848 158.884 510.192 6.57041 539.407C3.55872 539.985 2.77958 543.303 5.47442 544.767C23.4801 554.545 70.7591 560.426 94.7611 562.282C125.152 567.173 184.117 570.601 209.802 571.704C219.259 575.563 271.429 578.749 296.331 579.859C299.828 579.673 351.403 583.646 376.753 585.656C387.243 586.221 408.441 587.352 409.315 587.352H448.138C466.69 590.312 522.758 589.3 548.474 588.424C562.678 589.079 659.635 581.052 706.338 576.956C718.072 577.284 776.843 569.994 804.762 566.308C872.155 564.959 922.834 553.787 948.876 545.499C952.72 544.276 952.125 539.225 948.132 538.651Z" fill="url(#paint32_linear_1147_1017)"/>
<path d="M133.713 550.966C124.092 548.366 69.7468 550.446 67.6665 550.966C74.4812 552.227 100.356 552.08 112.441 551.85C120.968 551.631 130.175 551.169 133.713 550.966Z" fill="url(#paint33_linear_1147_1017)"/>
<path d="M133.713 555.482C141.934 554.552 160.049 553.057 166.744 554.512C161.664 555.604 147.945 557.326 133.713 555.482Z" fill="url(#paint34_linear_1147_1017)"/>
<path d="M160.356 559.457C173.792 558.717 201.665 557.682 205.659 559.457C193.711 560.534 167.923 562.042 160.356 559.457Z" fill="url(#paint35_linear_1147_1017)"/>
<path d="M214.905 557.423C221.561 556.129 235.911 553.93 240.053 555.482C236.971 556.437 227.627 558.162 214.905 557.423Z" fill="url(#paint36_linear_1147_1017)"/>
<path d="M243.668 569.121C255.358 568.307 279.004 567.167 280.07 569.121C271.265 570.082 251.659 571.429 243.668 569.121Z" fill="url(#paint37_linear_1147_1017)"/>
<path d="M287.838 566.679C301.23 565.347 330.01 563.483 338.001 566.679C323.869 567.123 294.053 567.744 287.838 566.679Z" fill="url(#paint38_linear_1147_1017)"/>
<path d="M338.001 570.424C344.107 569.95 356.941 569.287 359.421 570.424C354.14 571.242 342.463 572.387 338.001 570.424Z" fill="url(#paint39_linear_1147_1017)"/>
<path d="M364.071 570.424C370.1 569.821 382.699 569.106 384.869 571.07C378.884 571.543 366.345 572.077 364.071 570.424Z" fill="url(#paint40_linear_1147_1017)"/>
<path d="M391.848 564.421C392.437 564.185 424.727 563.125 426.377 564.421C418.996 565.464 401.756 566.924 391.848 564.421Z" fill="url(#paint41_linear_1147_1017)"/>
<path d="M454.612 575.033C455.602 574.703 523.077 571.074 535.615 575.033C509.384 575.693 456.46 576.617 454.612 575.033Z" fill="url(#paint42_linear_1147_1017)"/>
<path d="M553.766 564.231C571.638 565.846 608.196 569.67 611.455 572.054C594.507 570.75 559.241 567.36 553.766 564.231Z" fill="url(#paint43_linear_1147_1017)"/>
<path d="M622.7 565.861C629.599 566.078 644.016 567.067 646.493 569.283C640.517 569.446 627.393 568.99 622.7 565.861Z" fill="url(#paint44_linear_1147_1017)"/>
<path d="M661.485 559.668C673.11 558.691 697.924 557.648 704.182 561.298C693.101 561.081 669.047 560.451 661.485 559.668Z" fill="url(#paint45_linear_1147_1017)"/>
<path d="M729.864 552.67C727.969 552.748 726.277 552.835 724.847 552.922C725.534 552.703 727.321 552.632 729.864 552.67C742.072 552.165 762.726 552.004 776.175 554.309C789.308 554.957 816.683 555.585 821.122 552.922C821.439 555.171 812.744 558.93 775.426 555.978C763.059 554.789 740.206 552.825 729.864 552.67Z" fill="url(#paint46_linear_1147_1017)"/>
<path d="M659.208 573.951C664.997 574.841 670.472 578.35 672.486 579.993H669.227C669.163 579.103 662.521 575.594 659.208 573.951Z" fill="url(#paint47_linear_1147_1017)"/>
<path d="M746.241 538.916C747.323 539.037 785.429 540.479 793.483 542.282C781.289 542.409 754.77 541.914 746.241 538.916Z" fill="url(#paint48_linear_1147_1017)"/>
<path d="M746.241 531.658C768.048 532.503 811.678 534.062 814.314 533.646C814.345 533.639 814.375 533.632 814.405 533.626C814.385 533.633 814.354 533.64 814.314 533.646C807.637 535.112 784.854 536.74 746.241 531.658Z" fill="url(#paint49_linear_1147_1017)"/>
<g filter="url(#filter1_n_1147_1017)">
<path d="M286.702 548.69V511.982C179.937 511.982 31.7653 533.583 6.88428 539.462C16.9101 542.47 222.67 548.395 286.702 548.69Z" fill="url(#paint50_linear_1147_1017)"/>
</g>
<path d="M535.647 455.004L380.876 469.03L386.635 458.967L364.353 463.423L335.446 467.627C329.105 468.549 323.078 470.981 317.873 474.718L285.412 498.025C280.348 501.661 274.601 504.224 268.762 506.41C253.358 512.177 230.531 523.667 219.227 529.689C209.239 534.202 204.438 537.462 202.399 539.55C201.073 540.908 202.221 542.297 204.1 542.571C224.381 545.524 293.812 549.204 330.171 550.863C332.085 550.951 333.97 551.207 335.838 551.634L346.08 553.972C364.81 556.363 475.001 556.72 527.755 556.599C570.371 556.173 682.574 545.103 738.942 539.032C740.861 538.825 741.369 536.313 739.681 535.376C713.862 521.035 683.948 509.005 667.293 503.007C663.233 501.545 659.355 499.643 655.778 497.229L630.597 480.231C619.695 472.872 607.183 468.243 594.117 466.736L569.233 463.865C565.106 463.389 561.076 462.288 557.28 460.601L550.043 457.385C545.526 455.377 540.57 454.557 535.647 455.004Z" fill="url(#paint51_linear_1147_1017)"/>
<path d="M465.081 493.607C467.136 494.242 469.437 494.385 470.331 494.377C478.013 495.92 483.968 507.117 485.984 512.522C491.13 522.191 501.741 528.692 506.403 530.734C529.361 537.71 541.819 550.482 545.178 555.997H542.041C534.305 543.281 516.123 535.621 507.999 533.38C496.448 530.824 487.555 519.84 484.552 514.668C479.996 500.681 470.555 496.213 466.405 495.727L465.081 493.607ZM454.338 506.363C452.029 518.5 443.997 545.244 430.335 555.115L427.482 554.717C432.578 552.181 444.834 539.05 453.089 506.822L454.338 506.363ZM562.133 518.031C566.975 519.241 577.079 522.482 578.766 525.761C578.688 527.909 578.298 533.329 577.361 537.827C579.86 542.278 585.279 551.484 586.966 552.703C586.201 553.334 582.856 551.387 575.582 538.553C575.181 538.24 574.253 536.222 573.752 530.662C573.874 529.442 573.313 526.648 570.093 525.226C566.599 523.042 560.114 518.546 562.133 518.031ZM397.956 457.488C447.492 455.182 527.096 452.56 545.885 455.932C548.619 456.423 549.235 458.971 547.492 461.133C544.066 465.382 537.438 470.931 526.942 473.653C511.655 475.104 472.396 477.409 433.398 475.544C430.032 475.383 426.685 476.003 423.439 476.909C414.274 479.465 397.003 482.026 373.978 479.758C368.261 479.195 362.484 480.558 357.861 483.967C342.651 495.184 320.062 512.233 313.498 518.678C317.124 516.514 324.728 512.116 326.132 511.835C327.36 512.362 331.185 512.467 336.659 508.677C341.309 504.777 352.817 496.918 361.654 496.685C371.004 497.848 390.459 499.824 393.483 498.429C388.801 502.763 380.267 511.394 376.667 517.359C375.206 519.779 374.608 522.621 373.306 525.131C370.845 529.878 366.229 536.541 359.205 541.773C357.311 543.183 355.178 544.22 353.009 545.154C348.206 547.223 341.552 550.267 338.69 552.206C297.713 550.817 214.028 547.187 207.104 543.776C202.459 543.345 196.064 540.959 207.645 534.87C225.827 525.758 264.774 506.766 275.116 503.692C283.731 498.282 302.223 486.384 307.273 482.071C312.097 477.176 326.142 467.217 343.734 466.536C351.604 465.113 365.582 462.519 375.812 460.444C383.122 458.961 390.506 457.835 397.956 457.488ZM355.619 515.323C351.8 517.361 348.42 520.13 345.671 523.472L336.161 535.033C333.905 537.775 331.221 540.136 328.213 542.023L315.005 550.31H317.851L330.324 542.801C333.485 540.898 336.305 538.479 338.666 535.644L347.994 524.441C350.486 521.448 353.487 518.92 356.86 516.974L381.652 502.668L380.898 501.831L355.619 515.323ZM305.208 531.471C302.795 533.816 288.127 544.281 281.094 549.221H283.104C290.405 546.542 301.72 536.662 306.465 532.057L305.208 531.471ZM462.885 510.121C462.321 516.557 461.622 530.22 463.342 533.38C465.123 536.285 470.86 542.838 479.551 545.813C478.022 547.42 472.115 547.823 460.727 536.576C459.926 534.161 458.703 525.489 460.222 510.121H462.885ZM289.597 521.029C279.669 528.275 258.865 543.412 255.077 545.994C261.074 543.099 276.651 534.451 290.975 523.014C291.721 522.352 292.489 521.029 289.597 521.029ZM439.14 510.121C438.126 514.355 431.53 524.112 413.258 529.259C407.106 532.555 391.959 540.453 380.584 545.676L379.304 542.941L409.413 529.259C414.474 522.752 427.504 509.815 439.14 510.121ZM589.411 523.238C616.103 534.538 617.841 539.766 615.374 540.968C604.663 538.508 593.603 528.123 589.411 523.238ZM264.789 528.29C261.75 530.078 258.309 531.071 254.785 531.179L248.593 531.369C246.387 531.436 244.205 531.851 242.129 532.598L228.822 537.385C231.319 537.099 235.892 536.372 239.792 535.25C243.219 534.265 246.703 533.19 250.267 533.07L254.868 532.914C258.339 532.797 261.728 531.822 264.729 530.074L274.791 524.214C274.992 523.814 275.067 523.014 273.758 523.014L264.789 528.29ZM633.59 526.595C642.171 527.518 658.573 530.609 655.528 535.592C653.799 537.517 646.99 538.412 633.59 526.595ZM330.662 523.014C327.849 525.091 313.358 532.364 306.465 535.741L307.887 536.411C323.494 530.851 330.467 525.163 332.002 523.014H330.662ZM537.972 519.182C551.594 519.935 559.261 530.823 561.391 536.173C555.33 527.663 543.253 521.3 537.972 519.182ZM427.234 488.467C427.008 489.553 422.642 493.735 406.994 501.78C404.413 503.41 399.387 508.463 399.93 515.635C407.305 512.138 425.223 504.673 437.889 502.792L438.058 503.504C425.626 506.646 399.862 515.48 396.27 525.687C395.403 527.731 393.291 531.651 391.78 530.985C392.052 522.231 395.747 503.464 408.352 498.429C409.167 498.429 426.186 489.961 427.234 488.467ZM624.523 506.872C626.738 510.858 638.918 515.972 644.731 518.031C632.385 516.992 626.115 510.159 624.523 506.872ZM351.76 485.729C343.799 486.083 335.081 489.439 329.113 492.377C325.545 494.134 322.439 496.688 319.206 499.004C310.048 505.565 291.83 516.494 290.975 516.591C292.077 517.289 293.592 517.243 294.212 517.133C301.616 514.398 317.655 502.789 324.749 497.326C330.644 492.704 345.213 488.561 351.76 487.068V485.729ZM537.972 476.054C534.05 469.48 556.214 483.463 567.786 491.276C602.151 507.891 610.26 514.044 610.018 515.043C602.041 510.058 578.54 498.497 567.786 493.34C557.814 491.431 543.755 481.02 537.972 476.054ZM510.583 495.727C519.102 496.806 525.039 498.854 526.942 499.743C535.69 503.355 533.807 507.166 531.772 508.621C528.038 510.059 524.196 506.823 522.742 505.024C520.476 502.575 513.692 497.805 510.583 495.727ZM586.074 482.869C585.885 481.712 586.523 482.387 586.865 482.869C591.326 488.604 596.476 491.966 598.494 492.93C600.333 492.803 605.001 493.847 607.104 494.384C626.045 501.652 620.004 503.135 614.615 502.968C600.195 500.05 589.579 488.353 586.074 482.869ZM523.931 483.534C539.562 486.606 546.614 495.144 548.186 499.03C544.144 494.235 530.332 486.701 523.931 483.534Z" fill="url(#paint52_linear_1147_1017)"/>
<path d="M482.357 487.907C472.784 489.702 456.306 484.293 449.264 481.363C447.67 481.363 448.06 482.49 448.454 483.053C463.122 491.473 477.741 490.657 483.217 489.197L482.357 487.907Z" fill="url(#paint53_linear_1147_1017)"/>
<path d="M482.357 539.671C482.357 546.273 480.682 553.659 479.845 556.527H483.217V555.649C485.914 549.328 483.768 542.363 482.357 539.671Z" fill="url(#paint54_linear_1147_1017)"/>
<path d="M509.161 521.288C518.895 526.4 540.386 537.537 548.478 541.191C544.02 536.895 529.916 526.9 509.161 521.288Z" fill="url(#paint55_linear_1147_1017)"/>
<path d="M606.446 524.028C599.166 520.866 556.635 511.01 555.819 511.01V512.777C571.852 516.483 594.192 524.273 603.357 527.705C607.475 527.881 607.132 525.327 606.446 524.028Z" fill="url(#paint56_linear_1147_1017)"/>
<path d="M639.217 509.083C636.518 507.542 625.554 497.673 620.409 492.932C622.421 491.207 633.91 502.899 639.621 508.714L647.003 519.671C657.398 528.917 665.825 536.649 668.289 539.52C662.489 537.797 652.281 526.838 647.902 521.574C645.778 518.76 641.227 512.074 639.217 509.083Z" fill="url(#paint57_linear_1147_1017)"/>
<path d="M681.199 522.594C687.277 527.546 700.351 537.532 704.024 537.856C699.522 533.399 688.654 524.107 681.199 522.594Z" fill="url(#paint58_linear_1147_1017)"/>
<path d="M681.193 522.714C686.434 524.755 698.275 530.575 703.711 537.529C697.351 533.947 683.943 525.969 681.193 522.714Z" fill="#B16C46"/>
</g>
<path d="M600.261 151.099C583.524 148.393 578.875 161.247 578.643 168.011C566.927 168.011 565.393 178.384 566.09 183.571C567.764 197.1 583.059 200.483 590.498 200.483C597.193 211.848 613.279 209.728 620.485 207.248C632.201 220.236 651.401 216.718 659.537 213.336C669.022 216.583 675.577 210.63 677.669 207.248C688.269 210.495 696.498 204.091 699.287 200.483C706.54 193.447 702.309 186.277 699.287 183.571C709.329 181.406 712.77 174.1 713.235 170.717C714.908 149.611 696.265 142.53 686.735 141.628C685.061 129.181 672.09 128.324 665.814 129.452C661.908 122.416 652.099 120.657 647.682 120.657C633.177 117.951 624.901 131.256 622.577 138.246C608.072 134.458 601.656 145.236 600.261 151.099Z" fill="url(#paint59_linear_1147_1017)"/>
<path d="M512.109 101.245C513.796 95.5583 519.841 96.5061 522.653 97.6909C518.154 92.5726 524.527 84.1842 528.276 80.6298C532.775 66.9809 545.614 68.7818 551.471 71.3884C551.471 64.564 558.5 58.5926 562.015 56.46C573.261 45.0859 585.444 53.1425 590.13 58.5925C595.753 52.9055 604.188 58.1186 607.702 61.436C617.262 67.6918 612.623 79.208 609.108 84.1841C631.038 90.4399 623.869 106.695 617.543 114.041C617.543 128.259 606.297 130.865 600.674 130.391C612.482 146.315 595.753 149.822 585.913 149.585C585.913 163.234 567.169 161.907 557.797 159.537C543.74 173.186 525.23 160.959 517.733 153.139C501.988 159.395 498.052 145.794 498.052 138.211C489.055 134.23 492.429 125.652 495.24 121.861C493.553 107.643 505.783 102.193 512.109 101.245Z" fill="url(#paint60_linear_1147_1017)"/>
<path d="M388.06 21.0227C382.169 25.1683 382.481 33.9779 383.374 37.8644C367.845 36.3097 369.763 44.9898 372.664 49.5242C367.309 47.4513 366.416 52.1152 366.639 54.7062C360.749 51.0788 353.922 54.9222 351.244 57.2973C341.606 47.9695 331.61 54.7062 327.817 59.2405C321.391 76.3414 333.618 87.9579 340.535 91.6285C333.573 98.8834 344.774 103.72 351.244 105.231C335.715 105.75 337.634 120.13 340.535 127.255C345.354 137.619 362.624 138.483 370.656 137.619C372.798 144.356 380.027 147.336 383.374 147.984C391.406 153.684 403.232 152.95 408.14 151.87C415.637 151.87 424.651 142.37 428.221 137.619C431.97 141.247 441.385 139.131 445.625 137.619C459.547 145.911 469.275 135.46 472.399 129.199C477.754 132.826 486.679 127.687 490.472 124.664C497.969 125.182 501.182 117.971 501.851 114.3C521.129 104.972 516.577 95.2991 511.892 91.6285C523.137 85.41 530.857 69.6047 533.311 62.4793C538.131 32.4233 517.47 27.0685 506.537 28.1481C508.143 16.7475 498.281 13.0337 493.149 12.6019C482.44 -5.53537 468.16 0.726233 462.359 6.12419C437.726 -9.94024 429.337 9.36301 428.221 21.0227C406.132 -5.53544 390.067 21.0227 388.06 21.0227Z" fill="url(#paint61_linear_1147_1017)"/>
<path d="M326.173 119.208C310.41 113.4 298.768 124.708 294.918 131.088C289.482 124.752 280.423 124.928 276.572 125.808C266.788 126.864 263.889 133.728 263.662 137.028C253.335 139.14 255.735 147.148 258.227 150.888C254.422 150.36 251.659 155.508 250.753 158.148C249.665 166.068 253.923 170.248 256.188 171.348C243.142 173.988 241.693 185.648 242.599 191.148C246.404 206.46 256.415 207.208 260.944 205.668C269.098 215.7 278.837 211.168 282.687 207.648C283.775 215.04 297.636 214.688 304.43 213.588C304.43 218.868 315.302 219.308 320.738 218.868C334.871 217.812 336.139 208.308 335.006 203.688C343.16 207.384 355.164 203.908 360.147 201.708C389.5 191.676 383.702 178.608 377.133 173.328C375.503 162.24 366.941 160.788 362.865 161.448C369.931 139.272 354.031 138.568 345.198 140.988C344.111 126.732 332.062 120.528 326.173 119.208Z" fill="url(#paint62_linear_1147_1017)"/>
<path d="M297.783 261.332C292.765 257.151 290.117 260.287 289.42 262.378C283.985 266.141 288.201 269.521 290.988 270.74C294.333 273.249 297.609 271.089 298.828 269.695C301.337 268.859 299.177 263.772 297.783 261.332Z" fill="url(#paint63_linear_1147_1017)"/>
<path d="M488.126 126.013C479.834 122.598 474.916 128.248 473.493 131.5C468.616 127.598 461.299 131.907 458.25 134.549C447.885 143.085 455.202 147.962 455.202 148.572C441.178 154.06 449.105 162.596 452.763 163.815C456.665 173.57 462.925 170.319 465.567 167.473C472.396 170.888 475.322 166.864 475.932 164.425C486.175 167.839 491.988 162.189 493.614 158.937C494.102 162.352 500.727 164.425 503.979 165.034C509.344 174.79 518.815 173.57 522.88 171.741C537.025 176.131 541.375 169.912 541.781 166.254C549.707 165.644 549.707 158.328 549.707 157.718C549.22 144.06 544.22 143.085 541.781 144.304C540.805 138.451 537.716 136.581 536.294 136.378C533.367 128.086 525.319 130.89 521.661 133.329C522.636 122.598 513.937 123.167 509.466 124.793C509.466 115.526 500.117 116.461 495.443 118.086C488.614 117.599 487.72 123.167 488.126 126.013Z" fill="url(#paint64_linear_1147_1017)"/>
<path d="M262.765 221.087C254.403 212.725 247.434 217.603 244.995 221.087C233.287 217.742 231.057 229.45 231.405 235.722C222.625 231.541 218.339 242.342 217.293 248.266C220.639 260.81 226.005 260.81 228.269 259.242C230.36 266.35 240.291 268.476 244.995 268.65C252.103 276.176 259.804 271.786 262.765 268.65C271.128 269.068 273.915 262.552 274.264 259.242C280.954 260.914 284.717 254.015 285.763 250.357C291.616 235.722 285.066 232.412 281.059 232.586C278.968 219.206 267.992 219.345 262.765 221.087Z" fill="url(#paint65_linear_1147_1017)"/>
<path d="M508.502 270.246C493.421 282.054 478.816 303.113 473.399 312.166L485.75 349.952C483.67 302.719 537.755 250.762 565.058 230.688C611.863 200.931 652.6 193.492 667.118 193.492V191.72H657.367L681.42 176.96L680.119 175.779L657.367 188.768L663.868 173.417H661.918L651.517 191.72C636.435 194.082 598.861 207.662 581.96 214.156L617.713 178.141L615.763 176.37C614.203 182.51 562.241 224.981 536.455 245.448C536.975 236.946 535.372 221.045 534.505 214.156L542.306 205.3V202.938L532.555 212.385C529.434 202.938 505.685 180.896 494.201 171.056L493.551 158.657L490.951 159.247L490.301 169.875L488.35 168.694C486.79 168.694 482.5 163.577 480.55 161.019L478.599 161.609L485.1 169.875C503.302 181.683 517.387 198.412 522.154 205.3C539.315 235.057 520.204 260.996 508.502 270.246Z" fill="url(#paint66_linear_1147_1017)"/>
<path d="M394.476 245.652C422.909 266.559 447.788 302.797 456.673 318.303C457.928 332.101 454.06 352.973 451.969 361.684C437.753 273.876 364.684 258.719 328.62 258.719C321.303 259.764 305.275 263.075 296.738 264.991V262.378C313.045 260.287 319.212 256.28 320.258 254.538C308.55 250.775 271.476 250.182 254.402 250.356V248.266L275.831 247.743C272.068 245.652 266.249 243.736 263.81 243.039V241.471C267.573 241.471 275.483 245.304 278.967 247.22C289.839 248.475 316.599 249.137 328.62 249.311C315.658 243.039 313.463 239.032 313.986 237.812C323.603 246.593 337.854 251.576 343.778 252.97C365.102 255.06 389.249 262.9 398.657 266.559C397.403 260.287 382.106 247.22 374.615 241.471C357.89 233.527 341.164 217.254 334.892 210.111L324.439 200.181L325.484 198.613L333.847 206.453C333.429 205.616 328.098 194.606 325.484 189.205L327.052 188.159C337.087 211.993 358.761 223.875 368.343 226.837C352.036 198.404 351.792 182.933 353.708 178.751C354.231 197.045 365.61 210.634 365.73 211.679C362.384 183.664 372.002 160.632 377.228 152.618C358.83 211.575 381.061 239.206 394.476 245.652Z" fill="url(#paint67_linear_1147_1017)"/>
<path d="M416.595 143.942C406.96 133.839 398.213 116.48 395.044 109.063H397.579C399.607 118.204 421.244 144.944 431.808 157.171C433.329 144.182 425.681 119.687 421.666 109.063L422.934 103.05C427.371 114.475 437.037 147.394 436.879 148.151C437.893 142.378 446.598 123.295 450.824 114.475L455.261 90.4211H457.163C456.529 97.2364 455.261 111.108 455.261 112.07C455.261 113.032 460.332 107.66 462.868 104.854C457.29 112.551 449.556 130.511 446.387 138.529C435.231 160.659 452.726 209.89 462.868 231.739C477.574 192.291 504.069 167.996 515.479 160.78L527.523 137.327L530.058 138.529L519.916 159.577L549.708 140.334V143.942C481.757 185.796 470.263 243.967 473.01 267.821C474.024 299.091 481.884 330.562 485.687 342.389C479.348 364.839 466.671 410.221 466.671 412.146C466.671 414.07 470.474 451.434 472.376 469.876H370.957C371.464 466.989 382.577 462.66 388.071 460.856C396.185 459.893 407.087 453.639 411.524 450.633C415.581 440.53 440.471 401.929 450.824 363.252C466.544 247.792 435.611 171.804 416.595 143.942Z" fill="url(#paint68_linear_1147_1017)"/>
<path d="M486.336 344.951C487.607 354.962 487.64 380.965 474.931 412.198C467.491 431.341 468.399 468.932 529.353 469.858H534.028C532.432 469.882 530.874 469.882 529.353 469.858H469.847C459.045 466.655 442.141 450.158 460.951 409.795C467.941 394.78 482.302 359.222 483.827 337.119C484.675 338.12 485.028 340.222 486.336 344.951Z" fill="#AB807B"/>
<defs>
<filter id="filter0_n_1147_1017" x="2.26172" y="454.323" width="950.896" height="276.52" filterUnits="userSpaceOnUse" color-interpolation-filters="sRGB">
<feFlood flood-opacity="0" result="BackgroundImageFix"/>
<feBlend mode="normal" in="SourceGraphic" in2="BackgroundImageFix" result="shape"/>
<feTurbulence type="fractalNoise" baseFrequency="5 5" stitchTiles="stitch" numOctaves="3" result="noise" seed="1005" />
<feColorMatrix in="noise" type="luminanceToAlpha" result="alphaNoise" />
<feComponentTransfer in="alphaNoise" result="coloredNoise1">
<feFuncA type="discrete" tableValues="1 1 1 1 1 1 1 1 1 1 1 1 1 1 1 1 1 1 1 1 1 1 1 1 1 1 1 1 1 1 1 1 1 1 1 1 1 1 1 1 1 1 1 1 1 1 1 1 1 1 1 0 0 0 0 0 0 0 0 0 0 0 0 0 0 0 0 0 0 0 0 0 0 0 0 0 0 0 0 0 0 0 0 0 0 0 0 0 0 0 0 0 0 0 0 0 0 0 0 0 "/>
</feComponentTransfer>
<feComposite operator="in" in2="shape" in="coloredNoise1" result="noise1Clipped" />
<feFlood flood-color="rgba(201, 118, 118, 0.17)" result="color1Flood" />
<feComposite operator="in" in2="noise1Clipped" in="color1Flood" result="color1" />
<feMerge result="effect1_noise_1147_1017">
<feMergeNode in="shape" />
<feMergeNode in="color1" />
</feMerge>
</filter>
<filter id="filter1_n_1147_1017" x="6.88428" y="511.982" width="279.817" height="36.7084" filterUnits="userSpaceOnUse" color-interpolation-filters="sRGB">
<feFlood flood-opacity="0" result="BackgroundImageFix"/>
<feBlend mode="normal" in="SourceGraphic" in2="BackgroundImageFix" result="shape"/>
<feTurbulence type="fractalNoise" baseFrequency="5 5" stitchTiles="stitch" numOctaves="3" result="noise" seed="1360" />
<feColorMatrix in="noise" type="luminanceToAlpha" result="alphaNoise" />
<feComponentTransfer in="alphaNoise" result="coloredNoise1">
<feFuncA type="discrete" tableValues="1 1 1 1 1 1 1 1 1 1 1 1 1 1 1 1 1 1 1 1 1 1 1 1 1 1 1 1 1 1 1 1 1 1 1 1 1 1 1 1 1 1 1 1 1 1 1 1 1 1 1 0 0 0 0 0 0 0 0 0 0 0 0 0 0 0 0 0 0 0 0 0 0 0 0 0 0 0 0 0 0 0 0 0 0 0 0 0 0 0 0 0 0 0 0 0 0 0 0 0 "/>
</feComponentTransfer>
<feComposite operator="in" in2="shape" in="coloredNoise1" result="noise1Clipped" />
<feFlood flood-color="rgba(194, 48, 48, 0.25)" result="color1Flood" />
<feComposite operator="in" in2="noise1Clipped" in="color1Flood" result="color1" />
<feMerge result="effect1_noise_1147_1017">
<feMergeNode in="shape" />
<feMergeNode in="color1" />
</feMerge>
</filter>
<linearGradient id="paint0_linear_1147_1017" x1="478.3" y1="538.038" x2="478.3" y2="730.844" gradientUnits="userSpaceOnUse">
<stop stop-color="#DC9F8B"/>
<stop offset="0.811997" stop-color="#D78A7F"/>
</linearGradient>
<linearGradient id="paint1_linear_1147_1017" x1="61.0385" y1="582.199" x2="539.731" y2="633.979" gradientUnits="userSpaceOnUse">
<stop stop-color="#7A3D4B"/>
<stop offset="1" stop-color="#9F5663"/>
</linearGradient>
<linearGradient id="paint2_linear_1147_1017" x1="351.829" y1="626.027" x2="311.774" y2="695.41" gradientUnits="userSpaceOnUse">
<stop stop-color="#823F4F"/>
<stop offset="1" stop-color="#914D5A"/>
</linearGradient>
<linearGradient id="paint3_linear_1147_1017" x1="157.223" y1="565.969" x2="387.433" y2="687.212" gradientUnits="userSpaceOnUse">
<stop stop-color="#7B3944"/>
<stop offset="0.5" stop-color="#7F3D4A"/>
<stop offset="1" stop-color="#7E3945"/>
</linearGradient>
<linearGradient id="paint4_linear_1147_1017" x1="157.223" y1="565.969" x2="387.433" y2="687.212" gradientUnits="userSpaceOnUse">
<stop stop-color="#7B3944"/>
<stop offset="0.5" stop-color="#7F3D4A"/>
<stop offset="1" stop-color="#7E3945"/>
</linearGradient>
<linearGradient id="paint5_linear_1147_1017" x1="157.223" y1="565.969" x2="387.433" y2="687.212" gradientUnits="userSpaceOnUse">
<stop stop-color="#7B3944"/>
<stop offset="0.5" stop-color="#7F3D4A"/>
<stop offset="1" stop-color="#7E3945"/>
</linearGradient>
<linearGradient id="paint6_linear_1147_1017" x1="157.223" y1="565.969" x2="387.433" y2="687.212" gradientUnits="userSpaceOnUse">
<stop stop-color="#7B3944"/>
<stop offset="0.5" stop-color="#7F3D4A"/>
<stop offset="1" stop-color="#7E3945"/>
</linearGradient>
<linearGradient id="paint7_linear_1147_1017" x1="157.223" y1="565.969" x2="387.433" y2="687.212" gradientUnits="userSpaceOnUse">
<stop stop-color="#7B3944"/>
<stop offset="0.5" stop-color="#7F3D4A"/>
<stop offset="1" stop-color="#7E3945"/>
</linearGradient>
<linearGradient id="paint8_linear_1147_1017" x1="175.18" y1="554.513" x2="175.18" y2="609.988" gradientUnits="userSpaceOnUse">
<stop stop-color="#96403D"/>
<stop offset="1" stop-color="#9E5D63" stop-opacity="0.41"/>
</linearGradient>
<linearGradient id="paint9_linear_1147_1017" x1="175.18" y1="554.513" x2="175.18" y2="609.988" gradientUnits="userSpaceOnUse">
<stop stop-color="#96403D"/>
<stop offset="1" stop-color="#9E5D63" stop-opacity="0.41"/>
</linearGradient>
<linearGradient id="paint10_linear_1147_1017" x1="105.671" y1="554.513" x2="105.671" y2="610.407" gradientUnits="userSpaceOnUse">
<stop stop-color="#8C4858"/>
<stop offset="1" stop-color="#7A3D4B"/>
</linearGradient>
<linearGradient id="paint11_linear_1147_1017" x1="91.6792" y1="567.33" x2="76.1795" y2="580.316" gradientUnits="userSpaceOnUse">
<stop stop-color="#7A3444"/>
<stop offset="1" stop-color="#7B3E4B"/>
</linearGradient>
<linearGradient id="paint12_linear_1147_1017" x1="238.961" y1="586.054" x2="318.384" y2="708.414" gradientUnits="userSpaceOnUse">
<stop stop-color="#C67465"/>
<stop offset="1" stop-color="#DC927D"/>
</linearGradient>
<linearGradient id="paint13_linear_1147_1017" x1="238.961" y1="586.054" x2="318.384" y2="708.414" gradientUnits="userSpaceOnUse">
<stop stop-color="#C67465"/>
<stop offset="1" stop-color="#DC927D"/>
</linearGradient>
<linearGradient id="paint14_linear_1147_1017" x1="238.961" y1="586.054" x2="318.384" y2="708.414" gradientUnits="userSpaceOnUse">
<stop stop-color="#C67465"/>
<stop offset="1" stop-color="#DC927D"/>
</linearGradient>
<linearGradient id="paint15_linear_1147_1017" x1="238.961" y1="586.054" x2="318.384" y2="708.414" gradientUnits="userSpaceOnUse">
<stop stop-color="#C67465"/>
<stop offset="1" stop-color="#DC927D"/>
</linearGradient>
<linearGradient id="paint16_linear_1147_1017" x1="863.148" y1="598.195" x2="707.299" y2="566.505" gradientUnits="userSpaceOnUse">
<stop stop-color="#D58C75"/>
<stop offset="0.454968" stop-color="#CE7662"/>
</linearGradient>
<linearGradient id="paint17_linear_1147_1017" x1="863.148" y1="598.195" x2="707.299" y2="566.505" gradientUnits="userSpaceOnUse">
<stop stop-color="#D58C75"/>
<stop offset="0.454968" stop-color="#CE7662"/>
</linearGradient>
<linearGradient id="paint18_linear_1147_1017" x1="723.679" y1="553.395" x2="723.679" y2="611.428" gradientUnits="userSpaceOnUse">
<stop stop-color="#A35B48"/>
<stop offset="0.5" stop-color="#C17468"/>
<stop offset="0.983041" stop-color="#B85555"/>
</linearGradient>
<linearGradient id="paint19_linear_1147_1017" x1="723.679" y1="553.395" x2="723.679" y2="611.428" gradientUnits="userSpaceOnUse">
<stop stop-color="#A35B48"/>
<stop offset="0.5" stop-color="#C17468"/>
<stop offset="0.983041" stop-color="#B85555"/>
</linearGradient>
<linearGradient id="paint20_linear_1147_1017" x1="723.679" y1="553.395" x2="723.679" y2="611.428" gradientUnits="userSpaceOnUse">
<stop stop-color="#A35B48"/>
<stop offset="0.5" stop-color="#C17468"/>
<stop offset="0.983041" stop-color="#B85555"/>
</linearGradient>
<linearGradient id="paint21_linear_1147_1017" x1="723.679" y1="553.395" x2="723.679" y2="611.428" gradientUnits="userSpaceOnUse">
<stop stop-color="#A35B48"/>
<stop offset="0.5" stop-color="#C17468"/>
<stop offset="0.983041" stop-color="#B85555"/>
</linearGradient>
<linearGradient id="paint22_linear_1147_1017" x1="723.679" y1="553.395" x2="723.679" y2="611.428" gradientUnits="userSpaceOnUse">
<stop stop-color="#A35B48"/>
<stop offset="0.5" stop-color="#C17468"/>
<stop offset="0.983041" stop-color="#B85555"/>
</linearGradient>
<linearGradient id="paint23_linear_1147_1017" x1="723.679" y1="553.395" x2="723.679" y2="611.428" gradientUnits="userSpaceOnUse">
<stop stop-color="#A35B48"/>
<stop offset="0.5" stop-color="#C17468"/>
<stop offset="0.983041" stop-color="#B85555"/>
</linearGradient>
<linearGradient id="paint24_linear_1147_1017" x1="723.679" y1="553.395" x2="723.679" y2="611.428" gradientUnits="userSpaceOnUse">
<stop stop-color="#A35B48"/>
<stop offset="0.5" stop-color="#C17468"/>
<stop offset="0.983041" stop-color="#B85555"/>
</linearGradient>
<linearGradient id="paint25_linear_1147_1017" x1="723.679" y1="553.395" x2="723.679" y2="611.428" gradientUnits="userSpaceOnUse">
<stop stop-color="#A35B48"/>
<stop offset="0.5" stop-color="#C17468"/>
<stop offset="0.983041" stop-color="#B85555"/>
</linearGradient>
<linearGradient id="paint26_linear_1147_1017" x1="723.679" y1="553.395" x2="723.679" y2="611.428" gradientUnits="userSpaceOnUse">
<stop stop-color="#A35B48"/>
<stop offset="0.5" stop-color="#C17468"/>
<stop offset="0.983041" stop-color="#B85555"/>
</linearGradient>
<linearGradient id="paint27_linear_1147_1017" x1="723.679" y1="553.395" x2="723.679" y2="611.428" gradientUnits="userSpaceOnUse">
<stop stop-color="#A35B48"/>
<stop offset="0.5" stop-color="#C17468"/>
<stop offset="0.983041" stop-color="#B85555"/>
</linearGradient>
<linearGradient id="paint28_linear_1147_1017" x1="723.679" y1="553.395" x2="723.679" y2="611.428" gradientUnits="userSpaceOnUse">
<stop stop-color="#A35B48"/>
<stop offset="0.5" stop-color="#C17468"/>
<stop offset="0.983041" stop-color="#B85555"/>
</linearGradient>
<linearGradient id="paint29_linear_1147_1017" x1="723.679" y1="553.395" x2="723.679" y2="611.428" gradientUnits="userSpaceOnUse">
<stop stop-color="#A35B48"/>
<stop offset="0.5" stop-color="#C17468"/>
<stop offset="0.983041" stop-color="#B85555"/>
</linearGradient>
<linearGradient id="paint30_linear_1147_1017" x1="723.679" y1="553.395" x2="723.679" y2="611.428" gradientUnits="userSpaceOnUse">
<stop stop-color="#A35B48"/>
<stop offset="0.5" stop-color="#C17468"/>
<stop offset="0.983041" stop-color="#B85555"/>
</linearGradient>
<linearGradient id="paint31_linear_1147_1017" x1="723.679" y1="553.395" x2="723.679" y2="611.428" gradientUnits="userSpaceOnUse">
<stop stop-color="#A35B48"/>
<stop offset="0.5" stop-color="#C17468"/>
<stop offset="0.983041" stop-color="#B85555"/>
</linearGradient>
<linearGradient id="paint32_linear_1147_1017" x1="0" y1="547.399" x2="666.466" y2="547.399" gradientUnits="userSpaceOnUse">
<stop stop-color="#F3B098"/>
<stop offset="1" stop-color="#FBCFB9"/>
</linearGradient>
<linearGradient id="paint33_linear_1147_1017" x1="444.398" y1="531.658" x2="444.398" y2="579.993" gradientUnits="userSpaceOnUse">
<stop stop-color="#E6A47D"/>
<stop offset="0.5" stop-color="#D69981"/>
<stop offset="1" stop-color="#E6B89E"/>
</linearGradient>
<linearGradient id="paint34_linear_1147_1017" x1="444.398" y1="531.658" x2="444.398" y2="579.993" gradientUnits="userSpaceOnUse">
<stop stop-color="#E6A47D"/>
<stop offset="0.5" stop-color="#D69981"/>
<stop offset="1" stop-color="#E6B89E"/>
</linearGradient>
<linearGradient id="paint35_linear_1147_1017" x1="444.398" y1="531.658" x2="444.398" y2="579.993" gradientUnits="userSpaceOnUse">
<stop stop-color="#E6A47D"/>
<stop offset="0.5" stop-color="#D69981"/>
<stop offset="1" stop-color="#E6B89E"/>
</linearGradient>
<linearGradient id="paint36_linear_1147_1017" x1="444.398" y1="531.658" x2="444.398" y2="579.993" gradientUnits="userSpaceOnUse">
<stop stop-color="#E6A47D"/>
<stop offset="0.5" stop-color="#D69981"/>
<stop offset="1" stop-color="#E6B89E"/>
</linearGradient>
<linearGradient id="paint37_linear_1147_1017" x1="444.398" y1="531.658" x2="444.398" y2="579.993" gradientUnits="userSpaceOnUse">
<stop stop-color="#E6A47D"/>
<stop offset="0.5" stop-color="#D69981"/>
<stop offset="1" stop-color="#E6B89E"/>
</linearGradient>
<linearGradient id="paint38_linear_1147_1017" x1="444.398" y1="531.658" x2="444.398" y2="579.993" gradientUnits="userSpaceOnUse">
<stop stop-color="#E6A47D"/>
<stop offset="0.5" stop-color="#D69981"/>
<stop offset="1" stop-color="#E6B89E"/>
</linearGradient>
<linearGradient id="paint39_linear_1147_1017" x1="444.398" y1="531.658" x2="444.398" y2="579.993" gradientUnits="userSpaceOnUse">
<stop stop-color="#E6A47D"/>
<stop offset="0.5" stop-color="#D69981"/>
<stop offset="1" stop-color="#E6B89E"/>
</linearGradient>
<linearGradient id="paint40_linear_1147_1017" x1="444.398" y1="531.658" x2="444.398" y2="579.993" gradientUnits="userSpaceOnUse">
<stop stop-color="#E6A47D"/>
<stop offset="0.5" stop-color="#D69981"/>
<stop offset="1" stop-color="#E6B89E"/>
</linearGradient>
<linearGradient id="paint41_linear_1147_1017" x1="444.398" y1="531.658" x2="444.398" y2="579.993" gradientUnits="userSpaceOnUse">
<stop stop-color="#E6A47D"/>
<stop offset="0.5" stop-color="#D69981"/>
<stop offset="1" stop-color="#E6B89E"/>
</linearGradient>
<linearGradient id="paint42_linear_1147_1017" x1="444.398" y1="531.658" x2="444.398" y2="579.993" gradientUnits="userSpaceOnUse">
<stop stop-color="#E6A47D"/>
<stop offset="0.5" stop-color="#D69981"/>
<stop offset="1" stop-color="#E6B89E"/>
</linearGradient>
<linearGradient id="paint43_linear_1147_1017" x1="444.398" y1="531.658" x2="444.398" y2="579.993" gradientUnits="userSpaceOnUse">
<stop stop-color="#E6A47D"/>
<stop offset="0.5" stop-color="#D69981"/>
<stop offset="1" stop-color="#E6B89E"/>
</linearGradient>
<linearGradient id="paint44_linear_1147_1017" x1="444.398" y1="531.658" x2="444.398" y2="579.993" gradientUnits="userSpaceOnUse">
<stop stop-color="#E6A47D"/>
<stop offset="0.5" stop-color="#D69981"/>
<stop offset="1" stop-color="#E6B89E"/>
</linearGradient>
<linearGradient id="paint45_linear_1147_1017" x1="444.398" y1="531.658" x2="444.398" y2="579.993" gradientUnits="userSpaceOnUse">
<stop stop-color="#E6A47D"/>
<stop offset="0.5" stop-color="#D69981"/>
<stop offset="1" stop-color="#E6B89E"/>
</linearGradient>
<linearGradient id="paint46_linear_1147_1017" x1="444.398" y1="531.658" x2="444.398" y2="579.993" gradientUnits="userSpaceOnUse">
<stop stop-color="#E6A47D"/>
<stop offset="0.5" stop-color="#D69981"/>
<stop offset="1" stop-color="#E6B89E"/>
</linearGradient>
<linearGradient id="paint47_linear_1147_1017" x1="444.398" y1="531.658" x2="444.398" y2="579.993" gradientUnits="userSpaceOnUse">
<stop stop-color="#E6A47D"/>
<stop offset="0.5" stop-color="#D69981"/>
<stop offset="1" stop-color="#E6B89E"/>
</linearGradient>
<linearGradient id="paint48_linear_1147_1017" x1="444.398" y1="531.658" x2="444.398" y2="579.993" gradientUnits="userSpaceOnUse">
<stop stop-color="#E6A47D"/>
<stop offset="0.5" stop-color="#D69981"/>
<stop offset="1" stop-color="#E6B89E"/>
</linearGradient>
<linearGradient id="paint49_linear_1147_1017" x1="444.398" y1="531.658" x2="444.398" y2="579.993" gradientUnits="userSpaceOnUse">
<stop stop-color="#E6A47D"/>
<stop offset="0.5" stop-color="#D69981"/>
<stop offset="1" stop-color="#E6B89E"/>
</linearGradient>
<linearGradient id="paint50_linear_1147_1017" x1="6.88428" y1="528.209" x2="286.702" y2="528.209" gradientUnits="userSpaceOnUse">
<stop stop-color="#E9AA9E"/>
<stop offset="1" stop-color="#E07F6F"/>
</linearGradient>
<linearGradient id="paint51_linear_1147_1017" x1="201.104" y1="505.471" x2="623.365" y2="505.471" gradientUnits="userSpaceOnUse">
<stop stop-color="#99523A"/>
<stop offset="0.471884" stop-color="#CE7E55"/>
<stop offset="0.978905" stop-color="#F2AA7A"/>
</linearGradient>
<linearGradient id="paint52_linear_1147_1017" x1="201.104" y1="503.264" x2="588.098" y2="498.268" gradientUnits="userSpaceOnUse">
<stop stop-color="#8C452D"/>
<stop offset="0.5" stop-color="#82402A"/>
<stop offset="1" stop-color="#A35931"/>
</linearGradient>
<linearGradient id="paint53_linear_1147_1017" x1="576.065" y1="481.363" x2="590.61" y2="545.923" gradientUnits="userSpaceOnUse">
<stop stop-color="#B87243"/>
<stop offset="1" stop-color="#DD9765"/>
</linearGradient>
<linearGradient id="paint54_linear_1147_1017" x1="576.065" y1="481.363" x2="590.61" y2="545.923" gradientUnits="userSpaceOnUse">
<stop stop-color="#B87243"/>
<stop offset="1" stop-color="#DD9765"/>
</linearGradient>
<linearGradient id="paint55_linear_1147_1017" x1="576.065" y1="481.363" x2="590.61" y2="545.923" gradientUnits="userSpaceOnUse">
<stop stop-color="#B87243"/>
<stop offset="1" stop-color="#DD9765"/>
</linearGradient>
<linearGradient id="paint56_linear_1147_1017" x1="576.065" y1="481.363" x2="590.61" y2="545.923" gradientUnits="userSpaceOnUse">
<stop stop-color="#B87243"/>
<stop offset="1" stop-color="#DD9765"/>
</linearGradient>
<linearGradient id="paint57_linear_1147_1017" x1="576.065" y1="481.363" x2="590.61" y2="545.923" gradientUnits="userSpaceOnUse">
<stop stop-color="#B87243"/>
<stop offset="1" stop-color="#DD9765"/>
</linearGradient>
<linearGradient id="paint58_linear_1147_1017" x1="576.065" y1="481.363" x2="590.61" y2="545.923" gradientUnits="userSpaceOnUse">
<stop stop-color="#B87243"/>
<stop offset="1" stop-color="#DD9765"/>
</linearGradient>
<linearGradient id="paint59_linear_1147_1017" x1="688.349" y1="128.092" x2="583.941" y2="204.8" gradientUnits="userSpaceOnUse">
<stop stop-color="#EAB4B4"/>
<stop offset="1" stop-color="#B57979"/>
</linearGradient>
<linearGradient id="paint60_linear_1147_1017" x1="606.044" y1="50.6987" x2="501.112" y2="168.746" gradientUnits="userSpaceOnUse">
<stop stop-color="#E9B4B3"/>
<stop offset="1" stop-color="#C57F7A"/>
</linearGradient>
<linearGradient id="paint61_linear_1147_1017" x1="430.018" y1="0" x2="430.018" y2="152.618" gradientUnits="userSpaceOnUse">
<stop stop-color="#EED8CF"/>
<stop offset="1" stop-color="#D38581"/>
</linearGradient>
<linearGradient id="paint62_linear_1147_1017" x1="352.052" y1="212.593" x2="312.418" y2="117.6" gradientUnits="userSpaceOnUse">
<stop stop-color="#D38381"/>
<stop offset="1" stop-color="#E6C1B7"/>
</linearGradient>
<linearGradient id="paint63_linear_1147_1017" x1="299.982" y1="265.583" x2="286.785" y2="265.583" gradientUnits="userSpaceOnUse">
<stop stop-color="#ECBCBC"/>
<stop offset="1" stop-color="#D1ACAE"/>
</linearGradient>
<linearGradient id="paint64_linear_1147_1017" x1="549.707" y1="145.146" x2="447.203" y2="145.146" gradientUnits="userSpaceOnUse">
<stop stop-color="#F1C7C7"/>
<stop offset="1" stop-color="#D1ACAE"/>
</linearGradient>
<linearGradient id="paint65_linear_1147_1017" x1="252.692" y1="216.47" x2="252.692" y2="272.806" gradientUnits="userSpaceOnUse">
<stop stop-color="#E1CCC9"/>
<stop offset="1" stop-color="#C18C81"/>
</linearGradient>
<linearGradient id="paint66_linear_1147_1017" x1="668.451" y1="153.793" x2="502.37" y2="287.443" gradientUnits="userSpaceOnUse">
<stop stop-color="#975350"/>
<stop offset="1" stop-color="#80615D"/>
</linearGradient>
<linearGradient id="paint67_linear_1147_1017" x1="355.66" y1="152.618" x2="484.059" y2="330.357" gradientUnits="userSpaceOnUse">
<stop stop-color="#725455"/>
<stop offset="0.5" stop-color="#8C726D"/>
<stop offset="1" stop-color="#6C4742"/>
</linearGradient>
<linearGradient id="paint68_linear_1147_1017" x1="500.694" y1="112.726" x2="432.133" y2="464.775" gradientUnits="userSpaceOnUse">
<stop stop-color="#6A3F3D"/>
<stop offset="0.505658" stop-color="#83594C"/>
<stop offset="0.865385" stop-color="#936C61"/>
<stop offset="0.9999" stop-color="#764037"/>
</linearGradient>
</defs>
</svg>
