<svg width="179" height="380" viewBox="0 0 179 380" fill="none" xmlns="http://www.w3.org/2000/svg">
<path d="M45.6387 53.5206C36.0038 43.4178 27.2564 26.0587 24.0871 18.642H26.6226C28.6509 27.7826 50.287 54.5228 60.8516 66.7504C62.3728 53.7611 54.7241 29.2659 50.7096 18.642L51.9774 12.6284C56.4145 24.0542 66.0808 56.973 65.9225 57.73C66.9367 51.957 75.6419 32.8741 79.8677 24.0542L84.3048 0H86.2064C85.5725 6.81535 84.3048 20.6866 84.3048 21.6488C84.3048 22.6109 89.3757 17.2388 91.9112 14.4325C86.3331 22.1299 78.5999 40.0903 75.4306 48.1084C64.2745 70.2382 81.7693 119.469 91.9112 141.318C106.617 101.869 133.113 77.5748 144.522 70.3585L156.566 46.9057L159.101 48.1084L148.96 69.1558L178.751 49.9124V53.5206C110.801 95.3749 99.3064 153.546 102.053 177.4C103.067 208.67 110.927 240.141 114.731 251.968C108.392 274.418 95.7144 319.8 95.7144 321.725C95.7144 323.649 99.5176 361.013 101.419 379.455H0C0.507096 376.568 11.621 372.239 17.1145 370.435C25.228 369.472 36.1306 363.218 40.5677 360.211C44.6245 350.109 69.5145 311.508 79.8677 272.831C95.5876 157.371 64.6548 81.3833 45.6387 53.5206Z" fill="url(#paint0_linear_1148_1025)"/>
<path d="M115.38 254.53C116.651 264.54 116.683 290.544 103.974 321.777C96.5344 340.92 97.4422 378.511 158.397 379.437H163.072C161.476 379.461 159.917 379.46 158.397 379.437H98.8908C88.088 376.234 71.1848 359.737 89.9943 319.374C96.9844 304.358 111.346 268.801 112.871 246.698C113.718 247.699 114.072 249.801 115.38 254.53Z" fill="#AB807B"/>
<defs>
<linearGradient id="paint0_linear_1148_1025" x1="129.738" y1="22.3053" x2="61.1764" y2="374.354" gradientUnits="userSpaceOnUse">
<stop stop-color="#6A3F3D"/>
<stop offset="0.505658" stop-color="#83594C"/>
<stop offset="0.865385" stop-color="#936C61"/>
<stop offset="0.9999" stop-color="#764037"/>
</linearGradient>
</defs>
</svg>
