<svg width="141" height="102" viewBox="0 0 141 102" fill="none" xmlns="http://www.w3.org/2000/svg">
<path d="M83.792 1.60866C68.0283 -4.1993 56.3868 7.10862 52.5365 13.4886C47.1007 7.15257 38.0412 7.32865 34.191 8.20869C24.4067 9.26468 21.5076 16.1286 21.2811 19.4286C10.9532 21.5406 13.354 29.5485 15.8454 33.2885C12.0404 32.7605 9.27721 37.9085 8.37125 40.5485C7.2841 48.4684 11.542 52.6484 13.8069 53.7484C0.761086 56.3884 -0.688444 68.0483 0.217512 73.5482C4.02253 88.8601 14.0333 89.6081 18.5631 88.0681C26.7167 98.1001 36.4558 93.5681 40.3061 90.0481C41.3932 97.4401 55.2544 97.0881 62.049 95.9881C62.049 101.268 72.9205 101.708 78.3562 101.268C92.4892 100.212 93.7575 90.7081 92.6251 86.0881C100.779 89.7841 112.783 86.3081 117.765 84.1082C147.118 74.0762 141.32 61.0083 134.752 55.7284C133.121 44.6404 124.56 43.1884 120.483 43.8484C127.55 21.6726 111.65 20.9686 102.817 23.3886C101.73 9.13268 89.6807 2.92868 83.792 1.60866Z" fill="url(#paint0_linear_1135_119)"/>
<defs>
<linearGradient id="paint0_linear_1135_119" x1="109.67" y1="94.9933" x2="70.0371" y2="-2.67381e-06" gradientUnits="userSpaceOnUse">
<stop stop-color="#D38381"/>
<stop offset="1" stop-color="#E6C1B7"/>
</linearGradient>
</defs>
</svg>
