<svg width="103" height="57" viewBox="0 0 103 57" fill="none" xmlns="http://www.w3.org/2000/svg">
<path d="M40.9237 8.97169C32.6316 5.5573 27.7132 11.2073 26.2906 14.4591C21.4129 10.5568 14.0963 14.8656 11.0478 17.5078C0.68264 26.0438 7.9992 30.9215 7.9992 31.5312C-6.02419 37.0186 1.90208 45.5546 5.56035 46.774C9.46251 56.5294 15.7222 53.2776 18.3643 50.4323C25.1931 53.8467 28.1197 49.8226 28.7294 47.3837C38.9726 50.7981 44.7852 45.1481 46.4111 41.8963C46.8989 45.3107 53.5244 47.3837 56.7762 47.9934C62.1417 57.7488 71.6126 56.5294 75.6773 54.7003C89.8226 59.0902 94.1719 52.8711 94.5784 49.2129C102.505 48.6031 102.505 41.2866 102.505 40.6769C102.017 27.0193 97.0172 26.0438 94.5784 27.2632C93.6029 21.41 90.5136 19.5402 89.091 19.3369C86.1644 11.0448 78.1162 13.8495 74.4579 16.2884C75.4334 5.55744 66.7349 6.12649 62.2636 7.75239C62.2636 -1.51525 52.9147 -0.580359 48.2402 1.04554C41.4115 0.55777 40.5172 6.1264 40.9237 8.97169Z" fill="url(#paint0_linear_1135_124)"/>
<defs>
<linearGradient id="paint0_linear_1135_124" x1="102.505" y1="28.1051" x2="0" y2="28.1051" gradientUnits="userSpaceOnUse">
<stop stop-color="#F1C7C7"/>
<stop offset="1" stop-color="#D1ACAE"/>
</linearGradient>
</defs>
</svg>
