<svg width="148" height="97" viewBox="0 0 148 97" fill="none" xmlns="http://www.w3.org/2000/svg">
<path d="M34.3124 30.7998C17.5756 28.0939 12.9265 40.9471 12.694 47.712C0.978276 47.712 -0.555933 58.0847 0.141434 63.2711C1.81512 76.8008 17.1107 80.1833 24.5493 80.1833C31.244 91.5482 47.33 89.4286 54.5361 86.9481C66.2519 99.9367 85.4527 96.419 93.5887 93.0365C103.073 96.2837 109.628 90.3306 111.72 86.9481C122.32 90.1953 130.549 83.7912 133.339 80.1833C140.591 73.1478 136.361 65.9771 133.339 63.2711C143.381 61.1064 146.821 53.8003 147.286 50.4179C148.96 29.3115 130.317 22.231 120.786 21.329C119.112 8.88163 106.141 8.02474 99.865 9.15222C95.9597 2.11675 86.1501 0.357848 81.7334 0.357832C67.2282 -2.34811 58.9528 10.9562 56.6282 17.9466C42.123 14.1582 35.7072 24.9369 34.3124 30.7998Z" fill="url(#paint0_linear_1135_122)"/>
<defs>
<linearGradient id="paint0_linear_1135_122" x1="122.4" y1="7.79225" x2="17.9923" y2="84.5" gradientUnits="userSpaceOnUse">
<stop stop-color="#EAB4B4"/>
<stop offset="1" stop-color="#B57979"/>
</linearGradient>
</defs>
</svg>
