<svg width="203" height="210" viewBox="0 0 203 210" fill="none" xmlns="http://www.w3.org/2000/svg">
<path d="M140.074 93.0344C168.507 113.941 193.386 150.179 202.271 165.685C203.526 179.483 199.658 200.355 197.567 209.066C183.351 121.258 110.282 106.101 74.2185 106.101C66.9011 107.146 50.8727 110.457 42.3359 112.373V109.76C58.643 107.669 64.8105 103.662 65.8558 101.92C54.1481 98.1565 17.0737 97.5641 0 97.7383V95.6477L21.4293 95.125C17.6661 93.0344 11.8471 91.1179 9.40797 90.421V88.853C13.1712 88.853 21.0808 92.6859 24.5653 94.6024C35.4367 95.8568 62.1972 96.5188 74.2185 96.693C61.2564 90.421 59.0612 86.4139 59.5838 85.1944C69.2009 93.9752 83.4522 98.9579 89.3757 100.352C110.7 102.442 134.848 110.282 144.256 113.941C143.001 107.669 127.705 94.6024 120.213 88.853C103.488 80.9085 86.7624 64.6362 80.4904 57.4931L70.0371 47.5625L71.0825 45.9945L79.4451 53.8345C79.027 52.9982 73.6958 41.9874 71.0825 36.5865L72.6505 35.5412C82.6856 59.3747 104.359 71.2567 113.941 74.2184C97.6339 45.7854 97.39 30.3146 99.3064 26.1332C99.8291 44.4265 111.209 58.0158 111.328 59.0611C107.983 31.0463 117.6 8.0142 122.826 0C104.428 58.9566 126.659 86.5882 140.074 93.0344Z" fill="url(#paint0_linear_1135_117)"/>
<defs>
<linearGradient id="paint0_linear_1135_117" x1="101.258" y1="-4.23651e-06" x2="229.657" y2="177.739" gradientUnits="userSpaceOnUse">
<stop stop-color="#725455"/>
<stop offset="0.5" stop-color="#8C726D"/>
<stop offset="1" stop-color="#6C4742"/>
</linearGradient>
</defs>
</svg>
