<svg width="132" height="115" viewBox="0 0 132 115" fill="none" xmlns="http://www.w3.org/2000/svg">
<path d="M19.8941 50.5466C21.5811 44.8596 27.6259 45.8074 30.4374 46.9922C25.9388 41.874 32.3119 33.4856 36.0608 29.9311C40.5594 16.2823 53.3987 18.0832 59.2561 20.6897C59.2561 13.8653 66.2849 7.89393 69.7994 5.76129C81.0456 -5.61275 93.229 2.44382 97.9149 7.89387C103.538 2.20685 111.973 7.41995 115.487 10.7374C125.046 16.9931 120.407 28.5093 116.893 33.4855C138.823 39.7412 131.654 55.9966 125.328 63.3423C125.328 77.5599 114.081 80.1664 108.458 79.6925C120.267 95.6162 103.538 99.1232 93.6976 98.8862C93.6976 112.535 74.9539 111.208 65.582 108.839C51.5243 122.487 33.0149 110.26 25.5174 102.441C9.77275 108.696 5.83653 95.0949 5.83651 87.5122C-3.16046 83.5312 0.213314 74.9533 3.02482 71.162C1.33789 56.9444 13.5681 51.4944 19.8941 50.5466Z" fill="url(#paint0_linear_1135_123)"/>
<defs>
<linearGradient id="paint0_linear_1135_123" x1="113.829" y1="-4.58548e-06" x2="8.89715" y2="118.047" gradientUnits="userSpaceOnUse">
<stop stop-color="#E9B4B3"/>
<stop offset="1" stop-color="#C57F7A"/>
</linearGradient>
</defs>
</svg>
