<svg width="209" height="153" viewBox="0 0 209 153" fill="none" xmlns="http://www.w3.org/2000/svg">
<path d="M62.0522 21.0227C56.1618 25.1683 56.4742 33.9779 57.3666 37.8644C41.8378 36.3097 43.7561 44.9898 46.6564 49.5242C41.3015 47.4513 40.409 52.1152 40.6321 54.7062C34.7417 51.0788 27.9144 54.9222 25.2371 57.2973C15.5985 47.9695 5.60242 54.7062 1.80919 59.2405C-4.61669 76.3414 7.61046 87.9579 14.5273 91.6285C7.56601 98.8834 18.7666 103.72 25.2371 105.231C9.70786 105.75 11.6267 120.13 14.5273 127.255C19.3467 137.619 36.6163 138.483 44.6486 137.619C46.7906 144.356 54.0198 147.336 57.3666 147.984C65.3991 153.684 77.2244 152.95 82.133 151.87C89.6298 151.87 98.6439 142.37 102.214 137.619C105.962 141.247 115.378 139.131 119.617 137.619C133.54 145.911 143.268 135.46 146.392 129.199C151.747 132.826 160.672 127.687 164.465 124.664C171.961 125.182 175.174 117.971 175.844 114.3C195.121 104.972 190.57 95.2991 185.884 91.6285C197.13 85.41 204.85 69.6047 207.304 62.4793C212.123 32.4233 191.462 27.0685 180.529 28.1481C182.136 16.7475 172.274 13.0337 167.142 12.6019C156.432 -5.53537 142.153 0.726233 136.351 6.12419C111.719 -9.94024 103.329 9.36301 102.214 21.0227C80.1249 -5.53544 64.0602 21.0227 62.0522 21.0227Z" fill="url(#paint0_linear_1135_118)"/>
<defs>
<linearGradient id="paint0_linear_1135_118" x1="104.01" y1="0" x2="104.01" y2="152.618" gradientUnits="userSpaceOnUse">
<stop stop-color="#EED8CF"/>
<stop offset="1" stop-color="#D38581"/>
</linearGradient>
</defs>
</svg>
