<svg width="209" height="192" viewBox="0 0 209 192" fill="none" xmlns="http://www.w3.org/2000/svg">
<path d="M35.1035 111.589C20.022 123.397 5.4172 144.456 0 153.509L12.3512 191.295C10.271 144.062 64.3564 92.1052 91.6591 72.031C138.464 42.2739 179.201 34.8347 193.719 34.8347V33.0634H183.968L208.021 18.303L206.721 17.1221L183.968 30.1113L190.469 14.7604H188.519L178.118 33.0634C163.036 35.4251 125.462 49.0047 108.561 55.4993L144.314 19.4838L142.364 17.7125C140.804 23.8529 88.8422 66.3236 63.0563 86.7914C63.5763 78.2894 61.9728 62.3875 61.1061 55.4993L68.9068 46.643V44.2813L59.1559 53.728C56.0356 44.2813 32.2865 22.2391 20.8021 12.3988L20.152 0L17.5517 0.590418L16.9017 11.2179L14.9515 10.0371C13.3913 10.0371 9.1009 4.92015 7.15071 2.36167L5.20052 2.95209L11.7012 11.2179C29.903 23.0263 43.9877 39.7548 48.7548 46.643C65.9165 76.4001 46.8046 102.339 35.1035 111.589Z" fill="url(#paint0_linear_1135_115)"/>
<defs>
<linearGradient id="paint0_linear_1135_115" x1="195.052" y1="-4.86381" x2="28.9706" y2="128.786" gradientUnits="userSpaceOnUse">
<stop stop-color="#975350"/>
<stop offset="1" stop-color="#80615D"/>
</linearGradient>
</defs>
</svg>
