<svg width="71" height="57" viewBox="0 0 71 57" fill="none" xmlns="http://www.w3.org/2000/svg">
<path d="M45.4719 4.61745C37.1092 -3.74519 30.1403 1.13301 27.7012 4.61745C15.9935 1.27237 13.7635 12.9801 14.112 19.2521C5.33118 15.0708 1.04533 25.8725 0 31.796C3.34506 44.34 8.71108 44.34 10.976 42.772C13.0666 49.8803 22.9973 52.0058 27.7012 52.18C34.8095 59.7064 42.5101 55.316 45.4719 52.18C53.8345 52.5981 56.622 46.0822 56.9705 42.772C63.6606 44.4445 67.4238 37.5454 68.4691 33.8867C74.323 19.2521 67.7722 15.9419 63.7651 16.1161C61.6745 2.73588 50.6985 2.87524 45.4719 4.61745Z" fill="url(#paint0_linear_1135_120)"/>
<defs>
<linearGradient id="paint0_linear_1135_120" x1="35.3988" y1="0" x2="35.3988" y2="56.3357" gradientUnits="userSpaceOnUse">
<stop stop-color="#E1CCC9"/>
<stop offset="1" stop-color="#C18C81"/>
</linearGradient>
</defs>
</svg>
