<svg width="963" height="678" viewBox="0 0 963 678" fill="none" xmlns="http://www.w3.org/2000/svg">
<g filter="url(#filter0_n_1147_1013)">
<path d="M33.1659 529.942L6.34008 502.72C4.48295 500.836 3.44189 498.296 3.44189 495.65C3.44189 490.091 7.94702 485.582 13.507 485.578L942.643 484.917C948.449 484.913 953.158 489.618 953.158 495.424C953.158 498.37 951.921 501.181 949.749 503.171L934.094 517.516L910.363 538.494C903.396 544.652 894.956 548.907 885.861 550.847L792.778 570.697C783.705 572.632 775.35 577.055 768.648 583.47C744.564 606.522 713.355 620.698 680.149 623.667L616.653 629.345C611.556 629.8 606.716 631.574 602.415 634.347C582.421 647.239 519.893 684.181 470.441 676.733C416.079 668.546 378.212 646.385 362.667 635.809C357.423 632.241 351.347 629.897 345.01 629.632L287.568 627.231C255.953 625.909 225.609 614.421 201.045 594.474L184.072 580.692C176.961 574.918 168.497 571.047 159.478 569.445L100.44 558.955C97.2744 558.393 94.1657 557.549 91.1506 556.433L51.4312 541.74C44.551 539.195 38.3151 535.167 33.1659 529.942Z" fill="url(#paint0_linear_1147_1013)"/>
<path d="M31.9017 530.224L5.153 502.967C3.29988 501.078 2.26172 498.538 2.26172 495.892C2.26172 490.317 6.77933 485.796 12.3547 485.792L535.25 485.418C541.881 485.414 547.259 490.788 547.259 497.418V529.483C546.781 546.613 541.323 569.252 538.654 578.43C532.864 596.904 511.6 633.08 501.691 648.858C498.065 656.958 488.191 664.489 478.989 669.927C470.347 675.035 460.006 676.133 450.201 673.978C405.603 664.179 374.418 645.709 360.673 636.322C355.421 632.734 349.339 630.383 342.983 630.116L285.995 627.724C254.285 626.393 223.858 614.834 199.261 594.777L182.509 581.116C175.39 575.312 166.909 571.419 157.867 569.805L99.0617 559.313C95.8855 558.746 92.7663 557.896 89.7418 556.772L50.1765 542.074C43.2882 539.515 37.0485 535.469 31.9017 530.224Z" fill="url(#paint1_linear_1147_1013)"/>
<path d="M335.193 524.135L234.494 518.16C226.912 537.403 240.792 556.751 248.68 564.019L278.701 575.947L313.89 624.458L355.674 626.861C373.643 641.425 387.249 643.177 391.807 642.232C389.55 640.837 386.152 628.718 383.905 622.68C382.625 610.074 376.326 593.262 374.352 587.527C358.558 578.356 337.433 540.535 335.193 524.135Z" fill="url(#paint2_linear_1147_1013)" fill-opacity="0.88"/>
<path d="M234.524 518.098C232.965 532.234 239.135 561.435 276.289 565.146C284.346 567.42 299.809 576.77 297.201 595.979C301.146 602.215 308.093 612.972 311.853 618.134C312.801 619.226 313.661 620.215 314.395 621.059C314.172 621.155 313.225 620.017 311.853 618.134C306.018 611.409 296.846 600.77 292.936 595.979C286.355 588.997 267.341 575.69 243.933 578.316C232.334 579.933 206.833 576.946 197.629 552.059C198.005 560.673 207.792 578.983 243.933 583.315C250.871 585.843 265.651 593.236 269.273 602.594C274.038 606.213 284.183 614.339 286.646 617.895C276.448 610.002 251.897 593.423 235.273 590.253C241.217 597.628 253.538 612.597 255.279 613.472C251.394 619.144 230.204 621.599 176.378 573.017C169.688 570.105 151.017 564.832 140.346 562.298C130.363 549.141 109.966 525.55 104.696 506.136L102.513 501.385C142.219 504.617 224.21 512.485 234.524 518.098Z" fill="url(#paint3_linear_1147_1013)"/>
<path d="M381.423 526.984H372.811C377.389 540.625 386.544 568.277 386.544 569.761C394.224 595.935 405.164 604.618 406.095 607.19C416.894 616.159 422.387 631.661 423.784 638.291C423.784 625.944 413.388 610.698 408.189 604.618C399.438 589.653 386.699 546.627 381.423 526.984Z" fill="url(#paint4_linear_1147_1013)"/>
<path d="M372.811 585.252C355.209 575.646 339.475 540.389 333.808 523.961H331.039C335.793 540.157 348.154 559.519 353.741 567.176C357.747 574.313 367.215 582.679 371.449 585.969C376.558 589.757 380.605 605.945 381.989 613.565C383.477 628.566 389.306 637.239 392.034 639.701C388.699 636.239 385.549 625.831 384.391 621.059C380.723 595.982 375.143 586.739 372.811 585.252Z" fill="url(#paint5_linear_1147_1013)"/>
<path d="M430.587 610.333C426.611 605.359 427.118 598.338 427.868 595.449C431.579 582.25 428.374 568.823 426.248 563.583C432.228 576.753 432.07 586.483 431.243 589.702C426.818 599.575 428.962 607.57 430.587 610.333Z" fill="url(#paint6_linear_1147_1013)"/>
<path d="M440.433 594.789C450.747 603.236 465.825 624.991 443.621 644.435C451.028 636.428 460.762 615.288 440.433 594.789Z" fill="url(#paint7_linear_1147_1013)"/>
<path d="M104.129 502.882L95.5347 501.385C99.6205 511.199 109.35 524.332 113.704 529.671C125.961 548.261 139.812 562.295 141.285 561.703C139.223 561.111 118.713 533.816 118.713 532.484C112.349 524.906 106.338 509.592 104.129 502.882Z" fill="url(#paint8_linear_1147_1013)"/>
<path d="M238.865 537.112C236.363 521.191 232.903 516.942 231.486 516.808C229.241 520.353 233.705 531.123 236.218 536.065C242.827 554.307 251.376 557.47 254.824 556.772C246.74 554.323 240.816 542.645 238.865 537.112Z" fill="url(#paint9_linear_1147_1013)"/>
<path d="M88.4285 502.629L76.3301 501.385C79.3023 513.712 91.9851 526.492 97.9549 531.341C109.31 539.611 111.133 549.143 110.625 552.876L135.013 557.278C133.946 554.369 118.31 536.095 110.625 527.322C102.852 523.646 92.5884 509.328 88.4285 502.629Z" fill="url(#paint10_linear_1147_1013)"/>
<path d="M74.4363 502.629L62.3379 501.385C65.3102 513.712 77.9929 526.492 83.9628 531.341C95.3182 539.611 97.1409 549.143 96.6329 552.876L121.02 557.278C120.217 555.087 111.146 544.176 103.434 535.176C98.9742 529.971 93.2914 525.838 88.5023 520.934C82.7956 515.091 77.2349 507.136 74.4363 502.629Z" fill="url(#paint11_linear_1147_1013)"/>
<path d="M448.123 528.83H440.068C442.484 555.745 461.435 575.684 470.608 582.289C492.663 600.272 483.73 632.758 476.508 646.753C497.988 611.761 482.645 585.929 472.288 577.387C451.575 562.743 447.548 538.914 448.123 528.83Z" fill="url(#paint12_linear_1147_1013)"/>
<path d="M421.067 553.59C408.921 543.956 408.149 533.07 409.281 528.83C409.281 531.501 414.208 540.027 416.671 543.956C428.018 556.057 428.99 567.195 428.058 571.251C427.419 562.42 423.131 555.797 421.067 553.59Z" fill="url(#paint13_linear_1147_1013)"/>
<path d="M299.409 538.939C293.336 523.686 296.213 523.084 298.41 524.689C311.576 541.569 330.665 581.094 338.563 598.747L323.581 578.878C317.028 574.543 304.736 550.446 299.409 538.939Z" fill="url(#paint14_linear_1147_1013)"/>
<path d="M166.019 513.851C177.431 521.716 196.274 550.913 196.407 551.713C201.079 563.019 213.658 572.689 219.363 576.11C208.853 572.484 198.972 561.712 195.344 556.779L179.023 537.581C162.568 519.13 163.497 514.073 166.019 513.851Z" fill="url(#paint15_linear_1147_1013)"/>
<path d="M762.37 518.001L705.377 523.32C705.377 532.481 692.082 558.333 685.434 570.114L687.538 571.377C735.548 551.469 757.43 527.498 762.37 518.001Z" fill="url(#paint16_linear_1147_1013)"/>
<path d="M772.688 577.509C780.585 572.907 798.079 514.716 799.466 513.821C800.883 512.907 843.018 511.455 863.148 509.404C858.029 532.412 835.839 551.083 825.384 557.543C822.792 560.992 781.216 574.657 772.688 577.509C772.521 577.606 772.358 577.679 772.2 577.728C770.584 578.222 770.95 578.09 772.688 577.509Z" fill="url(#paint17_linear_1147_1013)"/>
<path d="M577.622 533.219L572.632 533.921C573.887 543.363 572.109 564.459 571.063 573.826C565.771 589.658 552.511 612.739 546.542 622.301C542.551 628.034 530.433 640.24 524.873 645.626C528.18 644.951 540.697 632.137 546.542 625.814C547.113 629.636 544.784 640.614 543.549 645.626C547.198 641.242 549.061 629.467 549.536 624.128C556.037 614.124 569.258 586.425 575.056 573.826C578.135 566.519 578.05 543.71 577.622 533.219Z" fill="url(#paint18_linear_1147_1013)"/>
<path d="M606.317 565.732C609.413 549.839 616.959 538.555 620.346 534.9C612.46 549.56 608.282 568.88 607.179 576.707C600.79 592.194 589.752 602.119 585.032 605.145L594.707 593.067C601.802 585.311 605.403 571.612 606.317 565.732Z" fill="url(#paint19_linear_1147_1013)"/>
<path d="M634.52 529.481H631.498L628.918 567.028C627.231 575.277 620.418 583.91 619.315 584.485C606.754 597.325 605.991 605.021 607.179 607.264C607.179 604.742 611.468 597.614 613.612 594.366C621.755 585.742 628.929 574.339 631.498 569.715C632.777 568.34 634.045 542.319 634.52 529.481Z" fill="url(#paint20_linear_1147_1013)"/>
<path d="M586.696 641.368C587.11 640.96 604.357 616.781 606.003 611.836C606.027 611.754 606.051 611.673 606.075 611.593C606.056 611.668 606.032 611.749 606.003 611.836C603.977 618.569 597.417 633.508 586.696 641.368Z" fill="url(#paint21_linear_1147_1013)"/>
<path d="M677.721 525.581L674.5 525.94C674.5 526.227 672.654 542.962 671.731 551.293C670.316 561.349 661.554 576.048 657.35 582.141C668.078 572.361 673.253 557.219 674.5 550.871L677.721 525.581Z" fill="url(#paint22_linear_1147_1013)"/>
<path d="M651.993 603.455C691.366 569.718 703.041 536.454 703.956 524.04L705.665 523.419V524.04C704.516 538.409 693.179 559.51 687.654 568.264C686.239 570.443 688.243 570.139 689.422 569.715C692.25 566.868 709.091 559.648 717.157 556.394C734.13 547.886 754.359 527.292 762.352 518.058H765.778C757.026 537.836 723.824 556.503 708.317 563.364C695.853 566.326 681.813 578.679 676.352 584.485C668.952 596.301 651.386 617.823 643.528 627.107C641.382 628.327 632.894 628.293 628.918 628.124C630.436 626.497 644.934 611 651.993 603.455Z" fill="url(#paint23_linear_1147_1013)"/>
<path d="M732.604 565.732C717.733 571.105 694.444 583.751 684.658 589.403C711.685 582.192 730.145 571.482 735.997 567.028C760.262 552.268 764.597 544.486 763.731 542.44C760.545 549.817 741.652 561.042 732.604 565.732Z" fill="url(#paint24_linear_1147_1013)"/>
<path d="M700.443 605.145C673.889 607.968 659.481 618.977 655.596 624.128C663.739 617.245 688.887 610.017 700.443 607.264C728.414 598.289 737.767 588.338 738.947 584.485C730.804 594.276 709.885 602.338 700.443 605.145Z" fill="url(#paint25_linear_1147_1013)"/>
<path d="M753.455 575.243C753.184 576.311 743.565 583.669 741.669 589.403C745.597 586.063 753.455 578.555 753.455 575.243Z" fill="url(#paint26_linear_1147_1013)"/>
<path d="M822.798 540.622C817.712 547.256 795.996 555.181 785.774 558.314C807.411 548.478 818.175 541.884 820.852 539.816C827.608 527.356 829.87 516.486 830.156 512.609H831.961C830.614 524.551 825.291 536.26 822.798 540.622Z" fill="url(#paint27_linear_1147_1013)"/>
<path d="M864.641 509.023L861.746 509.736C857.693 533.419 835.449 548.614 824.833 553.25C803.216 560.384 788.483 568.746 783.819 572.035C797.04 571.179 812.81 566.606 819.043 564.426C851.661 545.118 863.033 519.445 864.641 509.023Z" fill="url(#paint28_linear_1147_1013)"/>
<path d="M840.04 560.493C839.885 560.61 839.761 560.694 839.671 560.74C839.794 560.658 839.917 560.575 840.04 560.493C843.796 557.642 865.64 534.856 866.451 532.801C865.173 536.973 858.103 548.317 840.04 560.493Z" fill="url(#paint29_linear_1147_1013)"/>
<path d="M891.936 505.776L887.645 506.096C888.685 514.232 879.715 529.992 882.185 528.519C884.161 527.34 889.509 512.866 891.936 505.776Z" fill="url(#paint30_linear_1147_1013)"/>
<path d="M922.486 500.266C921.511 500.48 919.483 500.946 919.171 501.099C915.986 508.915 909.928 524.303 911.176 523.329C912.424 522.356 919.236 507.548 922.486 500.266Z" fill="url(#paint31_linear_1147_1013)"/>
<path d="M948.132 485.523C545.414 427.719 158.884 457.063 6.57041 486.279C3.55872 486.856 2.77958 490.174 5.47442 491.638C23.4801 501.416 70.7591 507.298 94.7611 509.153C125.152 514.044 184.117 517.472 209.802 518.575C219.259 522.435 271.429 525.62 296.331 526.73C299.828 526.544 351.403 530.518 376.753 532.527C387.243 533.093 408.441 534.223 409.315 534.223H448.138C466.69 537.183 522.758 536.171 548.474 535.295C562.678 535.951 659.635 527.923 706.338 523.828C718.072 524.155 776.843 516.865 804.762 513.179C872.155 511.83 922.834 500.658 948.876 492.371C952.72 491.148 952.125 486.096 948.132 485.523Z" fill="url(#paint32_linear_1147_1013)"/>
<path d="M133.713 497.837C124.092 495.237 69.7468 497.317 67.6665 497.837C74.4812 499.098 100.356 498.952 112.441 498.721C120.968 498.502 130.175 498.041 133.713 497.837Z" fill="url(#paint33_linear_1147_1013)"/>
<path d="M133.713 502.354C141.934 501.424 160.049 499.928 166.744 501.383C161.664 502.475 147.945 504.197 133.713 502.354Z" fill="url(#paint34_linear_1147_1013)"/>
<path d="M160.356 506.328C173.792 505.589 201.665 504.553 205.659 506.328C193.711 507.405 167.923 508.914 160.356 506.328Z" fill="url(#paint35_linear_1147_1013)"/>
<path d="M214.905 504.294C221.561 503.001 235.911 500.801 240.053 502.354C236.971 503.309 227.627 505.034 214.905 504.294Z" fill="url(#paint36_linear_1147_1013)"/>
<path d="M243.668 515.992C255.358 515.178 279.004 514.039 280.07 515.992C271.265 516.954 251.659 518.3 243.668 515.992Z" fill="url(#paint37_linear_1147_1013)"/>
<path d="M287.838 513.55C301.23 512.219 330.01 510.354 338.001 513.55C323.869 513.994 294.053 514.616 287.838 513.55Z" fill="url(#paint38_linear_1147_1013)"/>
<path d="M338.001 517.295C344.107 516.822 356.941 516.158 359.421 517.295C354.14 518.113 342.463 519.259 338.001 517.295Z" fill="url(#paint39_linear_1147_1013)"/>
<path d="M364.071 517.295C370.1 516.692 382.699 515.978 384.869 517.941C378.884 518.415 366.345 518.949 364.071 517.295Z" fill="url(#paint40_linear_1147_1013)"/>
<path d="M391.848 511.293C392.437 511.057 424.727 509.996 426.377 511.293C418.996 512.336 401.756 513.796 391.848 511.293Z" fill="url(#paint41_linear_1147_1013)"/>
<path d="M454.612 521.905C455.602 521.575 523.077 517.945 535.615 521.905C509.384 522.564 456.46 523.488 454.612 521.905Z" fill="url(#paint42_linear_1147_1013)"/>
<path d="M553.766 511.103C571.638 512.717 608.196 516.542 611.455 518.925C594.507 517.621 559.241 514.232 553.766 511.103Z" fill="url(#paint43_linear_1147_1013)"/>
<path d="M622.7 512.733C629.599 512.95 644.016 513.938 646.493 516.155C640.517 516.318 627.393 515.861 622.7 512.733Z" fill="url(#paint44_linear_1147_1013)"/>
<path d="M661.485 506.54C673.11 505.562 697.924 504.519 704.182 508.17C693.101 507.952 669.047 507.322 661.485 506.54Z" fill="url(#paint45_linear_1147_1013)"/>
<path d="M729.864 499.541C727.969 499.62 726.277 499.706 724.847 499.793C725.534 499.574 727.321 499.503 729.864 499.541C742.072 499.036 762.726 498.875 776.175 501.181C789.308 501.828 816.683 502.457 821.122 499.793C821.439 502.042 812.744 505.801 775.426 502.849C763.059 501.66 740.206 499.697 729.864 499.541Z" fill="url(#paint46_linear_1147_1013)"/>
<path d="M659.208 520.822C664.997 521.713 670.472 525.222 672.486 526.865H669.227C669.163 525.974 662.521 522.465 659.208 520.822Z" fill="url(#paint47_linear_1147_1013)"/>
<path d="M746.241 485.788C747.323 485.908 785.429 487.35 793.483 489.154C781.289 489.281 754.77 488.786 746.241 485.788Z" fill="url(#paint48_linear_1147_1013)"/>
<path d="M746.241 478.529C768.048 479.374 811.678 480.934 814.314 480.517C814.345 480.511 814.375 480.504 814.405 480.497C814.385 480.504 814.354 480.511 814.314 480.517C807.637 481.984 784.854 483.612 746.241 478.529Z" fill="url(#paint49_linear_1147_1013)"/>
<g filter="url(#filter1_n_1147_1013)">
<path d="M286.702 495.562V458.853C179.937 458.854 31.7653 480.455 6.88428 486.334C16.9101 489.341 222.67 495.267 286.702 495.562Z" fill="url(#paint50_linear_1147_1013)"/>
</g>
<path d="M535.647 401.875L380.876 415.902L386.635 405.838L364.353 410.295L335.446 414.498C329.105 415.42 323.078 417.852 317.873 421.59L285.412 444.896C280.348 448.532 274.601 451.095 268.762 453.282C253.358 459.049 230.531 470.539 219.227 476.56C209.239 481.074 204.438 484.333 202.399 486.421C201.073 487.78 202.221 489.168 204.1 489.442C224.381 492.396 293.812 496.075 330.171 497.735C332.085 497.822 333.97 498.079 335.838 498.505L346.08 500.843C364.81 503.234 475.001 503.591 527.755 503.471C570.371 503.044 682.574 491.974 738.942 485.904C740.861 485.697 741.369 483.185 739.681 482.248C713.862 467.907 683.948 455.876 667.293 449.878C663.233 448.416 659.355 446.515 655.778 444.1L630.597 427.102C619.695 419.743 607.183 415.115 594.117 413.607L569.233 410.736C565.106 410.26 561.076 409.16 557.28 407.473L550.043 404.256C545.526 402.249 540.57 401.429 535.647 401.875Z" fill="url(#paint51_linear_1147_1013)"/>
<path d="M465.081 440.479C467.136 441.113 469.437 441.257 470.331 441.249C478.013 442.792 483.967 453.988 485.983 459.394C491.129 469.062 501.741 475.564 506.403 477.606C529.361 484.581 541.819 497.354 545.178 502.868H542.041C534.305 490.152 516.122 482.492 507.998 480.252C496.447 477.696 487.555 466.712 484.552 461.54C479.996 447.552 470.555 443.083 466.405 442.598L465.081 440.479ZM454.338 453.234C452.029 465.372 443.997 492.115 430.335 501.986L427.482 501.588C432.578 499.051 444.834 485.921 453.089 453.692L454.338 453.234ZM562.133 464.902C566.975 466.113 577.079 469.353 578.766 472.633C578.688 474.78 578.298 480.199 577.361 484.697C579.86 489.148 585.279 498.356 586.966 499.574C586.201 500.205 582.855 498.259 575.581 485.425C575.18 485.111 574.253 483.093 573.752 477.533C573.874 476.314 573.313 473.519 570.093 472.098C566.599 469.914 560.114 465.418 562.133 464.902ZM397.956 404.358C447.492 402.053 527.097 399.432 545.885 402.804C548.619 403.294 549.235 405.842 547.492 408.004C544.066 412.252 537.438 417.803 526.941 420.524C511.653 421.975 472.396 424.28 433.398 422.416C430.032 422.255 426.684 422.875 423.438 423.78C414.273 426.336 397.003 428.897 373.978 426.63C368.261 426.067 362.485 427.429 357.861 430.839C342.651 442.056 320.062 459.105 313.498 465.55C317.124 463.386 324.725 458.989 326.131 458.707C327.359 459.233 331.184 459.338 336.659 455.548C341.309 451.647 352.817 443.789 361.654 443.557C371.004 444.719 390.459 446.696 393.483 445.301C388.8 449.635 380.266 458.266 376.666 464.231C375.205 466.651 374.608 469.493 373.306 472.003C370.845 476.75 366.229 483.412 359.205 488.645C357.311 490.055 355.178 491.09 353.009 492.024C348.206 494.094 341.551 497.139 338.689 499.077C297.712 497.689 214.027 494.058 207.104 490.647C202.459 490.215 196.064 487.831 207.645 481.741C225.827 472.629 264.774 453.638 275.116 450.564C283.73 445.154 302.221 433.256 307.272 428.942C312.096 424.048 326.141 414.088 343.733 413.407C351.603 411.985 365.582 409.391 375.812 407.315C383.121 405.833 390.506 404.705 397.956 404.358ZM355.619 462.194C351.8 464.232 348.42 467.001 345.671 470.344L336.161 481.904C333.905 484.647 331.221 487.007 328.213 488.895L315.005 497.181H317.851L330.324 489.673C333.485 487.77 336.304 485.351 338.665 482.516L347.993 471.313C350.485 468.32 353.487 465.792 356.86 463.846L381.651 449.54L380.898 448.702L355.619 462.194ZM305.208 478.342C302.796 480.686 288.128 491.153 281.094 496.093H283.104C290.405 493.414 301.719 483.534 306.464 478.929L305.208 478.342ZM462.884 456.992C462.32 463.429 461.622 477.091 463.342 480.252C465.123 483.157 470.859 489.71 479.55 492.685C478.021 494.292 472.114 494.695 460.727 483.447C459.926 481.032 458.702 472.361 460.221 456.992H462.884ZM289.597 467.9C279.669 475.146 258.865 490.283 255.077 492.865C261.074 489.971 276.651 481.322 290.975 469.886C291.721 469.224 292.489 467.9 289.597 467.9ZM439.14 456.992C438.126 461.227 431.529 470.984 413.257 476.131C407.105 479.427 391.959 487.325 380.584 492.548L379.304 489.813L409.412 476.131C414.473 469.624 427.504 456.686 439.14 456.992ZM589.41 470.108C616.102 481.409 617.841 486.638 615.374 487.84C604.663 485.379 593.601 474.994 589.41 470.108ZM264.789 475.161C261.75 476.949 258.309 477.943 254.785 478.051L248.593 478.24C246.387 478.308 244.206 478.723 242.129 479.47L228.821 484.257C231.318 483.971 235.892 483.244 239.792 482.122C243.219 481.136 246.703 480.062 250.267 479.941L254.868 479.786C258.339 479.669 261.728 478.693 264.729 476.945L274.791 471.086C274.992 470.686 275.066 469.886 273.758 469.886L264.789 475.161ZM633.59 473.467C642.171 474.39 658.573 477.481 655.528 482.464C653.799 484.389 646.99 485.283 633.59 473.467ZM330.661 469.886C327.847 471.963 313.357 479.235 306.464 482.612L307.887 483.282C323.494 477.723 330.466 472.035 332.001 469.886H330.661ZM537.971 466.054C551.593 466.806 559.261 477.695 561.391 483.045C555.33 474.534 543.252 468.171 537.971 466.054ZM427.234 435.339C427.008 436.425 422.642 440.607 406.994 448.651C404.413 450.282 399.387 455.335 399.93 462.507C407.305 459.009 425.223 451.543 437.889 449.663L438.058 450.375C425.626 453.516 399.863 462.351 396.27 472.558C395.403 474.601 393.291 478.523 391.78 477.857C392.052 469.102 395.747 450.336 408.352 445.301C409.167 445.301 426.186 436.833 427.234 435.339ZM624.523 453.742C626.738 457.729 638.918 462.843 644.731 464.902C632.385 463.864 626.115 457.03 624.523 453.742ZM351.76 432.601C343.799 432.954 335.08 436.311 329.112 439.249C325.544 441.006 322.438 443.559 319.205 445.875C310.048 452.435 291.834 463.362 290.975 463.462C292.077 464.16 293.592 464.115 294.212 464.005C301.616 461.269 317.655 449.66 324.749 444.197C330.644 439.575 345.213 435.433 351.76 433.94V432.601ZM537.971 422.926C534.05 416.352 556.213 430.333 567.785 438.147C602.151 454.762 610.26 460.915 610.018 461.915C602.041 456.929 578.539 445.369 567.785 440.212C557.813 438.303 543.754 427.892 537.971 422.926ZM510.583 442.598C519.101 443.677 525.038 445.725 526.941 446.614C535.689 450.227 533.807 454.038 531.772 455.492C528.037 456.931 524.195 453.693 522.741 451.895C520.475 449.445 513.691 444.676 510.583 442.598ZM586.074 429.739C585.885 428.583 586.523 429.257 586.865 429.739C591.326 435.475 596.476 438.838 598.494 439.802C600.333 439.675 605.001 440.718 607.104 441.256C626.045 448.523 620.003 450.007 614.615 449.84C600.194 446.921 589.579 435.223 586.074 429.739ZM523.931 430.404C539.562 433.477 546.614 442.016 548.186 445.901C544.144 441.106 530.332 433.572 523.931 430.404Z" fill="url(#paint52_linear_1147_1013)"/>
<path d="M482.357 434.779C472.784 436.574 456.306 431.164 449.264 428.235C447.67 428.235 448.06 429.361 448.454 429.924C463.122 438.345 477.741 437.529 483.217 436.068L482.357 434.779Z" fill="url(#paint53_linear_1147_1013)"/>
<path d="M482.357 486.543C482.357 493.145 480.682 500.531 479.845 503.399H483.217V502.521C485.914 496.2 483.768 489.235 482.357 486.543Z" fill="url(#paint54_linear_1147_1013)"/>
<path d="M509.161 468.16C518.895 473.272 540.386 484.409 548.478 488.063C544.02 483.767 529.916 473.772 509.161 468.16Z" fill="url(#paint55_linear_1147_1013)"/>
<path d="M606.446 470.899C599.166 467.737 556.635 457.882 555.819 457.882V459.648C571.852 463.354 594.192 471.144 603.357 474.576C607.475 474.753 607.132 472.198 606.446 470.899Z" fill="url(#paint56_linear_1147_1013)"/>
<path d="M639.217 455.955C636.518 454.413 625.554 444.545 620.409 439.803C622.421 438.079 633.91 449.771 639.621 455.585L647.003 466.543C657.398 475.789 665.825 483.52 668.289 486.391C662.489 484.669 652.281 473.71 647.902 468.445C645.778 465.631 641.227 458.946 639.217 455.955Z" fill="url(#paint57_linear_1147_1013)"/>
<path d="M681.199 469.465C687.277 474.418 700.351 484.403 704.024 484.727C699.522 480.27 688.654 470.978 681.199 469.465Z" fill="url(#paint58_linear_1147_1013)"/>
<path d="M681.193 469.585C686.434 471.626 698.275 477.447 703.711 484.4C697.351 480.818 683.943 472.841 681.193 469.585Z" fill="#B16C46"/>
</g>
<g filter="url(#filter2_n_1147_1013)">
<path d="M351.157 201.515C357.827 200.741 354.239 196.548 351.611 194.548C352.922 190.51 347.761 189.335 345.017 189.252C342.895 187.415 341.462 189.293 341.01 190.461C335.657 191.275 336.4 195.16 337.441 197.002C335.754 198.458 336.27 201.679 339.955 202.618C344.283 205.319 346.317 204.25 346.793 203.378C350.576 205.442 351.278 202.996 351.157 201.515Z" fill="url(#paint59_linear_1147_1013)"/>
</g>
<g filter="url(#filter3_n_1147_1013)">
<path d="M589.014 140.607C573.379 159.399 593.365 161.438 605.313 160.109C611.999 174.043 628.55 164.179 635.99 157.505C646.195 157.017 645.258 148.47 643.514 144.257C655.578 128.668 643.86 120.295 636.493 118.057C637.283 109.982 627.832 102.789 615.764 109.571C597.575 113.321 594.9 121.245 595.836 124.739C580.682 128.799 584.974 137.009 589.014 140.607Z" fill="url(#paint60_linear_1147_1013)"/>
</g>
<g filter="url(#filter4_n_1147_1013)">
<path d="M537.821 84.0327C529.573 77.5213 523.532 84.5753 521.542 88.9163C510.69 86.3117 509.423 95.066 510.147 99.7688C500.163 98.9006 500.199 107.727 501.465 112.249C497.992 120.063 505.806 123.102 510.147 123.644C513.186 130.59 519.01 128.709 521.542 126.9C535.65 134.497 539.449 121.474 539.449 120.388C549.758 121.474 544.332 114.42 544.332 113.334C549.541 114.637 550.482 110.259 550.301 107.908C555.51 100.963 550.301 97.0557 547.045 95.9704C549.216 84.6839 541.8 83.3092 537.821 84.0327Z" fill="url(#paint61_linear_1147_1013)"/>
</g>
<g filter="url(#filter5_n_1147_1013)">
<path d="M459.914 8.17896C439.295 -12.9833 431.156 13.6052 430.613 13.6052C424.97 12.3029 420.303 15.5948 418.675 17.4035C413.466 21.3104 414.334 28.0751 415.42 30.969C409.342 30.969 408.908 34.5865 409.451 36.3953C399.901 33.3566 394.619 42.0024 393.172 46.7051C390.133 57.5575 395.523 63.5263 398.598 65.1542C397.73 68.627 400.407 70.5804 401.854 71.123C392.738 71.5571 390.821 80.7094 391.002 85.2312C392.738 101.293 404.024 102.776 409.451 101.51C418.133 118.874 431.879 110.554 437.667 104.223C439.403 106.828 444.54 103.861 446.892 102.052C449.93 105.091 456.84 103.319 459.914 102.052C472.069 106.828 477.64 97.1689 478.906 91.7427C496.27 90.0063 494.1 78.358 490.844 72.7509C506.037 72.7509 508.75 59.0045 508.208 52.1313C506.471 28.69 491.567 28.2559 484.332 30.969C483.898 18.8143 474.746 17.5844 470.224 18.4887C472.395 6.33402 464.255 6.55109 459.914 8.17896Z" fill="url(#paint62_linear_1147_1013)"/>
</g>
<g filter="url(#filter6_n_1147_1013)">
<path d="M375.747 137.398C370.972 120.468 357.479 124.194 351.329 128.174C333.965 120.794 330.348 132.695 330.709 139.569C324.198 143.475 325.826 150.24 327.454 153.134C310.09 165.723 321.304 175.02 329.081 178.095C331.686 183.738 338.487 181.893 341.562 180.265C345.035 189.815 354.585 186.777 358.926 184.064C366.739 192.746 376.29 186.234 380.088 181.893C406.568 164.963 395.824 154.943 387.142 152.049C393.219 136.856 382.078 135.951 375.747 137.398Z" fill="url(#paint63_linear_1147_1013)"/>
</g>
<g filter="url(#filter7_n_1147_1013)">
<path d="M444.71 276.737C455.562 298.442 455.743 336.064 454.477 352.161L474.011 304.953L465.329 286.504C446.229 241.358 417.579 215.602 405.641 208.367C393.052 199.685 383.394 180.874 380.138 172.554C380.572 176.895 383.574 185.215 385.021 188.832C382.417 186.662 372.722 177.437 368.2 173.096C370.371 177.003 386.83 196.429 394.789 205.654C386.541 200.01 358.795 194.982 345.953 193.173V194.258C408.463 207.715 433.857 244.361 438.741 261.001C424.416 252.319 401.3 246.531 391.533 244.722L389.905 246.35C416.819 250.691 437.656 268.417 444.71 276.737Z" fill="url(#paint64_linear_1147_1013)"/>
</g>
<g filter="url(#filter8_n_1147_1013)">
<path d="M563.001 181.778C504.832 237.777 485.949 292.292 483.779 312.55H472.926L477.267 275.109C482.042 264.257 504.941 234.774 515.793 221.39C534.894 197.08 530.987 172.192 526.646 162.786L527.731 162.244C529.902 164.414 531.891 172.192 532.615 175.809L535.328 172.011L536.413 173.096L534.243 177.437C534.677 178.74 534.423 194.62 534.243 202.398C547.265 188.073 590.313 156.998 610.21 143.252L611.295 144.88L602.07 153.562L610.752 151.391V153.019C596.427 155.624 572.95 173.277 563.001 181.778Z" fill="url(#paint65_linear_1147_1013)"/>
</g>
<g filter="url(#filter9_n_1147_1013)">
<path d="M462.074 83.5637C449.485 131.314 461.893 176.533 469.67 193.173C469.67 182.321 480.885 162.606 486.492 154.105C486.492 143.433 486.383 121.873 485.949 121.005C485.515 120.136 487.577 120.643 488.662 121.005L490.29 147.593C496.367 138.477 506.93 123.899 511.452 117.749L504.941 131.314L515.793 118.834V122.09C484.972 155.515 476.905 191.003 476.724 204.568C474.605 221.526 481.628 274.021 485.664 299.886C485.852 301.088 485.756 302.322 485.406 303.488C467.887 361.831 476.248 394.215 482.693 403.168C484.864 407.943 506.026 414.201 516.336 416.733H383.394C385.13 414.563 404.013 406.785 413.238 403.168C433.206 388.409 454.115 333.351 462.074 307.666C473.36 262.086 460.988 183.768 453.392 150.306C451.221 145.965 439.826 121.366 434.4 109.61C440.477 121.33 449.593 133.304 453.392 137.826C453.392 134.353 452.668 121.185 452.307 115.036C451.438 110.261 445.072 89.8943 441.997 80.308H444.167C450.245 104.183 453.934 109.429 455.02 109.067L459.903 83.5637H462.074Z" fill="url(#paint66_linear_1147_1013)"/>
</g>
<g filter="url(#filter10_n_1147_1013)">
<path d="M516.336 416.733C477.702 405.447 479.54 335.702 485.328 300.612C463.189 381.789 469.207 415.648 486.492 416.733H516.336Z" fill="#AE8B85"/>
</g>
<defs>
<filter id="filter0_n_1147_1013" x="2.26172" y="401.195" width="950.896" height="276.52" filterUnits="userSpaceOnUse" color-interpolation-filters="sRGB">
<feFlood flood-opacity="0" result="BackgroundImageFix"/>
<feBlend mode="normal" in="SourceGraphic" in2="BackgroundImageFix" result="shape"/>
<feTurbulence type="fractalNoise" baseFrequency="5 5" stitchTiles="stitch" numOctaves="3" result="noise" seed="1005" />
<feColorMatrix in="noise" type="luminanceToAlpha" result="alphaNoise" />
<feComponentTransfer in="alphaNoise" result="coloredNoise1">
<feFuncA type="discrete" tableValues="1 1 1 1 1 1 1 1 1 1 1 1 1 1 1 1 1 1 1 1 1 1 1 1 1 1 1 1 1 1 1 1 1 1 1 1 1 1 1 1 1 1 1 1 1 1 1 1 1 1 1 0 0 0 0 0 0 0 0 0 0 0 0 0 0 0 0 0 0 0 0 0 0 0 0 0 0 0 0 0 0 0 0 0 0 0 0 0 0 0 0 0 0 0 0 0 0 0 0 0 "/>
</feComponentTransfer>
<feComposite operator="in" in2="shape" in="coloredNoise1" result="noise1Clipped" />
<feFlood flood-color="rgba(201, 118, 118, 0.17)" result="color1Flood" />
<feComposite operator="in" in2="noise1Clipped" in="color1Flood" result="color1" />
<feMerge result="effect1_noise_1147_1013">
<feMergeNode in="shape" />
<feMergeNode in="color1" />
</feMerge>
</filter>
<filter id="filter1_n_1147_1013" x="6.88428" y="458.853" width="279.817" height="36.7084" filterUnits="userSpaceOnUse" color-interpolation-filters="sRGB">
<feFlood flood-opacity="0" result="BackgroundImageFix"/>
<feBlend mode="normal" in="SourceGraphic" in2="BackgroundImageFix" result="shape"/>
<feTurbulence type="fractalNoise" baseFrequency="5 5" stitchTiles="stitch" numOctaves="3" result="noise" seed="1360" />
<feColorMatrix in="noise" type="luminanceToAlpha" result="alphaNoise" />
<feComponentTransfer in="alphaNoise" result="coloredNoise1">
<feFuncA type="discrete" tableValues="1 1 1 1 1 1 1 1 1 1 1 1 1 1 1 1 1 1 1 1 1 1 1 1 1 1 1 1 1 1 1 1 1 1 1 1 1 1 1 1 1 1 1 1 1 1 1 1 1 1 1 0 0 0 0 0 0 0 0 0 0 0 0 0 0 0 0 0 0 0 0 0 0 0 0 0 0 0 0 0 0 0 0 0 0 0 0 0 0 0 0 0 0 0 0 0 0 0 0 0 "/>
</feComponentTransfer>
<feComposite operator="in" in2="shape" in="coloredNoise1" result="noise1Clipped" />
<feFlood flood-color="rgba(194, 48, 48, 0.25)" result="color1Flood" />
<feComposite operator="in" in2="noise1Clipped" in="color1Flood" result="color1" />
<feMerge result="effect1_noise_1147_1013">
<feMergeNode in="shape" />
<feMergeNode in="color1" />
</feMerge>
</filter>
<filter id="filter2_n_1147_1013" x="336.521" y="188.482" width="18.4438" height="15.8582" filterUnits="userSpaceOnUse" color-interpolation-filters="sRGB">
<feFlood flood-opacity="0" result="BackgroundImageFix"/>
<feBlend mode="normal" in="SourceGraphic" in2="BackgroundImageFix" result="shape"/>
<feTurbulence type="fractalNoise" baseFrequency="10 10" stitchTiles="stitch" numOctaves="3" result="noise" seed="3546" />
<feColorMatrix in="noise" type="luminanceToAlpha" result="alphaNoise" />
<feComponentTransfer in="alphaNoise" result="coloredNoise1">
<feFuncA type="discrete" tableValues="1 1 1 1 1 1 1 1 1 1 1 1 1 1 1 1 1 1 1 1 1 1 1 1 1 1 1 1 1 1 1 1 1 1 1 1 1 1 1 1 1 1 1 1 1 1 1 1 1 1 1 0 0 0 0 0 0 0 0 0 0 0 0 0 0 0 0 0 0 0 0 0 0 0 0 0 0 0 0 0 0 0 0 0 0 0 0 0 0 0 0 0 0 0 0 0 0 0 0 0 "/>
</feComponentTransfer>
<feComposite operator="in" in2="shape" in="coloredNoise1" result="noise1Clipped" />
<feFlood flood-color="rgba(154, 70, 70, 0.25)" result="color1Flood" />
<feComposite operator="in" in2="noise1Clipped" in="color1Flood" result="color1" />
<feMerge result="effect1_noise_1147_1013">
<feMergeNode in="shape" />
<feMergeNode in="color1" />
</feMerge>
</filter>
<filter id="filter3_n_1147_1013" x="583.275" y="106.874" width="65.4404" height="60.2952" filterUnits="userSpaceOnUse" color-interpolation-filters="sRGB">
<feFlood flood-opacity="0" result="BackgroundImageFix"/>
<feBlend mode="normal" in="SourceGraphic" in2="BackgroundImageFix" result="shape"/>
<feTurbulence type="fractalNoise" baseFrequency="10 10" stitchTiles="stitch" numOctaves="3" result="noise" seed="6445" />
<feColorMatrix in="noise" type="luminanceToAlpha" result="alphaNoise" />
<feComponentTransfer in="alphaNoise" result="coloredNoise1">
<feFuncA type="discrete" tableValues="1 1 1 1 1 1 1 1 1 1 1 1 1 1 1 1 1 1 1 1 1 1 1 1 1 1 1 1 1 1 1 1 1 1 1 1 1 1 1 1 1 1 1 1 1 1 1 1 1 1 1 0 0 0 0 0 0 0 0 0 0 0 0 0 0 0 0 0 0 0 0 0 0 0 0 0 0 0 0 0 0 0 0 0 0 0 0 0 0 0 0 0 0 0 0 0 0 0 0 0 "/>
</feComponentTransfer>
<feComposite operator="in" in2="shape" in="coloredNoise1" result="noise1Clipped" />
<feFlood flood-color="rgba(194, 93, 93, 0.25)" result="color1Flood" />
<feComposite operator="in" in2="noise1Clipped" in="color1Flood" result="color1" />
<feMerge result="effect1_noise_1147_1013">
<feMergeNode in="shape" />
<feMergeNode in="color1" />
</feMerge>
</filter>
<filter id="filter4_n_1147_1013" x="500.6" y="81.3933" width="51.9111" height="47.8737" filterUnits="userSpaceOnUse" color-interpolation-filters="sRGB">
<feFlood flood-opacity="0" result="BackgroundImageFix"/>
<feBlend mode="normal" in="SourceGraphic" in2="BackgroundImageFix" result="shape"/>
<feTurbulence type="fractalNoise" baseFrequency="10 10" stitchTiles="stitch" numOctaves="3" result="noise" seed="3546" />
<feColorMatrix in="noise" type="luminanceToAlpha" result="alphaNoise" />
<feComponentTransfer in="alphaNoise" result="coloredNoise1">
<feFuncA type="discrete" tableValues="1 1 1 1 1 1 1 1 1 1 1 1 1 1 1 1 1 1 1 1 1 1 1 1 1 1 1 1 1 1 1 1 1 1 1 1 1 1 1 1 1 1 1 1 1 1 1 1 1 1 1 0 0 0 0 0 0 0 0 0 0 0 0 0 0 0 0 0 0 0 0 0 0 0 0 0 0 0 0 0 0 0 0 0 0 0 0 0 0 0 0 0 0 0 0 0 0 0 0 0 "/>
</feComponentTransfer>
<feComposite operator="in" in2="shape" in="coloredNoise1" result="noise1Clipped" />
<feFlood flood-color="rgba(215, 78, 78, 0.25)" result="color1Flood" />
<feComposite operator="in" in2="noise1Clipped" in="color1Flood" result="color1" />
<feMerge result="effect1_noise_1147_1013">
<feMergeNode in="shape" />
<feMergeNode in="color1" />
</feMerge>
</filter>
<filter id="filter5_n_1147_1013" x="390.99" y="0" width="117.281" height="111.871" filterUnits="userSpaceOnUse" color-interpolation-filters="sRGB">
<feFlood flood-opacity="0" result="BackgroundImageFix"/>
<feBlend mode="normal" in="SourceGraphic" in2="BackgroundImageFix" result="shape"/>
<feTurbulence type="fractalNoise" baseFrequency="10 10" stitchTiles="stitch" numOctaves="3" result="noise" seed="3546" />
<feColorMatrix in="noise" type="luminanceToAlpha" result="alphaNoise" />
<feComponentTransfer in="alphaNoise" result="coloredNoise1">
<feFuncA type="discrete" tableValues="1 1 1 1 1 1 1 1 1 1 1 1 1 1 1 1 1 1 1 1 1 1 1 1 1 1 1 1 1 1 1 1 1 1 1 1 1 1 1 1 1 1 1 1 1 1 1 1 1 1 1 0 0 0 0 0 0 0 0 0 0 0 0 0 0 0 0 0 0 0 0 0 0 0 0 0 0 0 0 0 0 0 0 0 0 0 0 0 0 0 0 0 0 0 0 0 0 0 0 0 "/>
</feComponentTransfer>
<feComposite operator="in" in2="shape" in="coloredNoise1" result="noise1Clipped" />
<feFlood flood-color="rgba(209, 86, 86, 0.25)" result="color1Flood" />
<feComposite operator="in" in2="noise1Clipped" in="color1Flood" result="color1" />
<feMerge result="effect1_noise_1147_1013">
<feMergeNode in="shape" />
<feMergeNode in="color1" />
</feMerge>
</filter>
<filter id="filter6_n_1147_1013" x="318.279" y="124.803" width="78.5576" height="63.54" filterUnits="userSpaceOnUse" color-interpolation-filters="sRGB">
<feFlood flood-opacity="0" result="BackgroundImageFix"/>
<feBlend mode="normal" in="SourceGraphic" in2="BackgroundImageFix" result="shape"/>
<feTurbulence type="fractalNoise" baseFrequency="10 10" stitchTiles="stitch" numOctaves="3" result="noise" seed="3546" />
<feColorMatrix in="noise" type="luminanceToAlpha" result="alphaNoise" />
<feComponentTransfer in="alphaNoise" result="coloredNoise1">
<feFuncA type="discrete" tableValues="1 1 1 1 1 1 1 1 1 1 1 1 1 1 1 1 1 1 1 1 1 1 1 1 1 1 1 1 1 1 1 1 1 1 1 1 1 1 1 1 1 1 1 1 1 1 1 1 1 1 1 0 0 0 0 0 0 0 0 0 0 0 0 0 0 0 0 0 0 0 0 0 0 0 0 0 0 0 0 0 0 0 0 0 0 0 0 0 0 0 0 0 0 0 0 0 0 0 0 0 "/>
</feComponentTransfer>
<feComposite operator="in" in2="shape" in="coloredNoise1" result="noise1Clipped" />
<feFlood flood-color="rgba(154, 70, 70, 0.25)" result="color1Flood" />
<feComposite operator="in" in2="noise1Clipped" in="color1Flood" result="color1" />
<feMerge result="effect1_noise_1147_1013">
<feMergeNode in="shape" />
<feMergeNode in="color1" />
</feMerge>
</filter>
<filter id="filter7_n_1147_1013" x="345.953" y="172.554" width="128.059" height="179.608" filterUnits="userSpaceOnUse" color-interpolation-filters="sRGB">
<feFlood flood-opacity="0" result="BackgroundImageFix"/>
<feBlend mode="normal" in="SourceGraphic" in2="BackgroundImageFix" result="shape"/>
<feTurbulence type="fractalNoise" baseFrequency="10 10" stitchTiles="stitch" numOctaves="3" result="noise" seed="9117" />
<feColorMatrix in="noise" type="luminanceToAlpha" result="alphaNoise" />
<feComponentTransfer in="alphaNoise" result="coloredNoise1">
<feFuncA type="discrete" tableValues="1 1 1 1 1 1 1 1 1 1 1 1 1 1 1 1 1 1 1 1 1 1 1 1 1 1 1 1 1 1 1 1 1 1 1 1 1 1 1 1 1 1 1 1 1 1 1 1 1 1 1 0 0 0 0 0 0 0 0 0 0 0 0 0 0 0 0 0 0 0 0 0 0 0 0 0 0 0 0 0 0 0 0 0 0 0 0 0 0 0 0 0 0 0 0 0 0 0 0 0 "/>
</feComponentTransfer>
<feComposite operator="in" in2="shape" in="coloredNoise1" result="noise1Clipped" />
<feFlood flood-color="rgba(0, 0, 0, 0.25)" result="color1Flood" />
<feComposite operator="in" in2="noise1Clipped" in="color1Flood" result="color1" />
<feMerge result="effect1_noise_1147_1013">
<feMergeNode in="shape" />
<feMergeNode in="color1" />
</feMerge>
</filter>
<filter id="filter8_n_1147_1013" x="472.926" y="143.252" width="138.369" height="169.298" filterUnits="userSpaceOnUse" color-interpolation-filters="sRGB">
<feFlood flood-opacity="0" result="BackgroundImageFix"/>
<feBlend mode="normal" in="SourceGraphic" in2="BackgroundImageFix" result="shape"/>
<feTurbulence type="fractalNoise" baseFrequency="10 10" stitchTiles="stitch" numOctaves="3" result="noise" seed="3328" />
<feColorMatrix in="noise" type="luminanceToAlpha" result="alphaNoise" />
<feComponentTransfer in="alphaNoise" result="coloredNoise1">
<feFuncA type="discrete" tableValues="1 1 1 1 1 1 1 1 1 1 1 1 1 1 1 1 1 1 1 1 1 1 1 1 1 1 1 1 1 1 1 1 1 1 1 1 1 1 1 1 1 1 1 1 1 1 1 1 1 1 1 0 0 0 0 0 0 0 0 0 0 0 0 0 0 0 0 0 0 0 0 0 0 0 0 0 0 0 0 0 0 0 0 0 0 0 0 0 0 0 0 0 0 0 0 0 0 0 0 0 "/>
</feComponentTransfer>
<feComposite operator="in" in2="shape" in="coloredNoise1" result="noise1Clipped" />
<feFlood flood-color="rgba(28, 13, 13, 0.25)" result="color1Flood" />
<feComposite operator="in" in2="noise1Clipped" in="color1Flood" result="color1" />
<feMerge result="effect1_noise_1147_1013">
<feMergeNode in="shape" />
<feMergeNode in="color1" />
</feMerge>
</filter>
<filter id="filter9_n_1147_1013" x="383.394" y="80.308" width="132.942" height="336.425" filterUnits="userSpaceOnUse" color-interpolation-filters="sRGB">
<feFlood flood-opacity="0" result="BackgroundImageFix"/>
<feBlend mode="normal" in="SourceGraphic" in2="BackgroundImageFix" result="shape"/>
<feTurbulence type="fractalNoise" baseFrequency="10 10" stitchTiles="stitch" numOctaves="3" result="noise" seed="4102" />
<feColorMatrix in="noise" type="luminanceToAlpha" result="alphaNoise" />
<feComponentTransfer in="alphaNoise" result="coloredNoise1">
<feFuncA type="discrete" tableValues="1 1 1 1 1 1 1 1 1 1 1 1 1 1 1 1 1 1 1 1 1 1 1 1 1 1 1 1 1 1 1 1 1 1 1 1 1 1 1 1 1 1 1 1 1 1 1 1 1 1 1 0 0 0 0 0 0 0 0 0 0 0 0 0 0 0 0 0 0 0 0 0 0 0 0 0 0 0 0 0 0 0 0 0 0 0 0 0 0 0 0 0 0 0 0 0 0 0 0 0 "/>
</feComponentTransfer>
<feComposite operator="in" in2="shape" in="coloredNoise1" result="noise1Clipped" />
<feFlood flood-color="rgba(72, 35, 35, 0.25)" result="color1Flood" />
<feComposite operator="in" in2="noise1Clipped" in="color1Flood" result="color1" />
<feMerge result="effect1_noise_1147_1013">
<feMergeNode in="shape" />
<feMergeNode in="color1" />
</feMerge>
</filter>
<filter id="filter10_n_1147_1013" x="471.005" y="300.612" width="45.3315" height="116.121" filterUnits="userSpaceOnUse" color-interpolation-filters="sRGB">
<feFlood flood-opacity="0" result="BackgroundImageFix"/>
<feBlend mode="normal" in="SourceGraphic" in2="BackgroundImageFix" result="shape"/>
<feTurbulence type="fractalNoise" baseFrequency="10 10" stitchTiles="stitch" numOctaves="3" result="noise" seed="7161" />
<feColorMatrix in="noise" type="luminanceToAlpha" result="alphaNoise" />
<feComponentTransfer in="alphaNoise" result="coloredNoise1">
<feFuncA type="discrete" tableValues="1 1 1 1 1 1 1 1 1 1 1 1 1 1 1 1 1 1 1 1 1 1 1 1 1 1 1 1 1 1 1 1 1 1 1 1 1 1 1 1 1 1 1 1 1 1 1 1 1 1 1 0 0 0 0 0 0 0 0 0 0 0 0 0 0 0 0 0 0 0 0 0 0 0 0 0 0 0 0 0 0 0 0 0 0 0 0 0 0 0 0 0 0 0 0 0 0 0 0 0 "/>
</feComponentTransfer>
<feComposite operator="in" in2="shape" in="coloredNoise1" result="noise1Clipped" />
<feFlood flood-color="rgba(139, 47, 47, 0.25)" result="color1Flood" />
<feComposite operator="in" in2="noise1Clipped" in="color1Flood" result="color1" />
<feMerge result="effect1_noise_1147_1013">
<feMergeNode in="shape" />
<feMergeNode in="color1" />
</feMerge>
</filter>
<linearGradient id="paint0_linear_1147_1013" x1="478.3" y1="484.909" x2="478.3" y2="677.715" gradientUnits="userSpaceOnUse">
<stop stop-color="#DC9F8B"/>
<stop offset="0.811997" stop-color="#D78A7F"/>
</linearGradient>
<linearGradient id="paint1_linear_1147_1013" x1="61.0385" y1="529.071" x2="539.731" y2="580.851" gradientUnits="userSpaceOnUse">
<stop stop-color="#7A3D4B"/>
<stop offset="1" stop-color="#9F5663"/>
</linearGradient>
<linearGradient id="paint2_linear_1147_1013" x1="351.829" y1="572.898" x2="311.774" y2="642.282" gradientUnits="userSpaceOnUse">
<stop stop-color="#823F4F"/>
<stop offset="1" stop-color="#914D5A"/>
</linearGradient>
<linearGradient id="paint3_linear_1147_1013" x1="157.223" y1="512.84" x2="387.433" y2="634.083" gradientUnits="userSpaceOnUse">
<stop stop-color="#7B3944"/>
<stop offset="0.5" stop-color="#7F3D4A"/>
<stop offset="1" stop-color="#7E3945"/>
</linearGradient>
<linearGradient id="paint4_linear_1147_1013" x1="157.223" y1="512.84" x2="387.433" y2="634.083" gradientUnits="userSpaceOnUse">
<stop stop-color="#7B3944"/>
<stop offset="0.5" stop-color="#7F3D4A"/>
<stop offset="1" stop-color="#7E3945"/>
</linearGradient>
<linearGradient id="paint5_linear_1147_1013" x1="157.223" y1="512.84" x2="387.433" y2="634.083" gradientUnits="userSpaceOnUse">
<stop stop-color="#7B3944"/>
<stop offset="0.5" stop-color="#7F3D4A"/>
<stop offset="1" stop-color="#7E3945"/>
</linearGradient>
<linearGradient id="paint6_linear_1147_1013" x1="157.223" y1="512.84" x2="387.433" y2="634.083" gradientUnits="userSpaceOnUse">
<stop stop-color="#7B3944"/>
<stop offset="0.5" stop-color="#7F3D4A"/>
<stop offset="1" stop-color="#7E3945"/>
</linearGradient>
<linearGradient id="paint7_linear_1147_1013" x1="157.223" y1="512.84" x2="387.433" y2="634.083" gradientUnits="userSpaceOnUse">
<stop stop-color="#7B3944"/>
<stop offset="0.5" stop-color="#7F3D4A"/>
<stop offset="1" stop-color="#7E3945"/>
</linearGradient>
<linearGradient id="paint8_linear_1147_1013" x1="175.18" y1="501.385" x2="175.18" y2="556.86" gradientUnits="userSpaceOnUse">
<stop stop-color="#96403D"/>
<stop offset="1" stop-color="#9E5D63" stop-opacity="0.41"/>
</linearGradient>
<linearGradient id="paint9_linear_1147_1013" x1="175.18" y1="501.385" x2="175.18" y2="556.86" gradientUnits="userSpaceOnUse">
<stop stop-color="#96403D"/>
<stop offset="1" stop-color="#9E5D63" stop-opacity="0.41"/>
</linearGradient>
<linearGradient id="paint10_linear_1147_1013" x1="105.671" y1="501.385" x2="105.671" y2="557.278" gradientUnits="userSpaceOnUse">
<stop stop-color="#8C4858"/>
<stop offset="1" stop-color="#7A3D4B"/>
</linearGradient>
<linearGradient id="paint11_linear_1147_1013" x1="91.6792" y1="514.202" x2="76.1795" y2="527.187" gradientUnits="userSpaceOnUse">
<stop stop-color="#7A3444"/>
<stop offset="1" stop-color="#7B3E4B"/>
</linearGradient>
<linearGradient id="paint12_linear_1147_1013" x1="238.961" y1="532.925" x2="318.384" y2="655.286" gradientUnits="userSpaceOnUse">
<stop stop-color="#C67465"/>
<stop offset="1" stop-color="#DC927D"/>
</linearGradient>
<linearGradient id="paint13_linear_1147_1013" x1="238.961" y1="532.925" x2="318.384" y2="655.286" gradientUnits="userSpaceOnUse">
<stop stop-color="#C67465"/>
<stop offset="1" stop-color="#DC927D"/>
</linearGradient>
<linearGradient id="paint14_linear_1147_1013" x1="238.961" y1="532.925" x2="318.384" y2="655.286" gradientUnits="userSpaceOnUse">
<stop stop-color="#C67465"/>
<stop offset="1" stop-color="#DC927D"/>
</linearGradient>
<linearGradient id="paint15_linear_1147_1013" x1="238.961" y1="532.925" x2="318.384" y2="655.286" gradientUnits="userSpaceOnUse">
<stop stop-color="#C67465"/>
<stop offset="1" stop-color="#DC927D"/>
</linearGradient>
<linearGradient id="paint16_linear_1147_1013" x1="863.148" y1="545.066" x2="707.299" y2="513.376" gradientUnits="userSpaceOnUse">
<stop stop-color="#D58C75"/>
<stop offset="0.454968" stop-color="#CE7662"/>
</linearGradient>
<linearGradient id="paint17_linear_1147_1013" x1="863.148" y1="545.066" x2="707.299" y2="513.376" gradientUnits="userSpaceOnUse">
<stop stop-color="#D58C75"/>
<stop offset="0.454968" stop-color="#CE7662"/>
</linearGradient>
<linearGradient id="paint18_linear_1147_1013" x1="723.679" y1="500.266" x2="723.679" y2="558.299" gradientUnits="userSpaceOnUse">
<stop stop-color="#A35B48"/>
<stop offset="0.5" stop-color="#C17468"/>
<stop offset="0.983041" stop-color="#B85555"/>
</linearGradient>
<linearGradient id="paint19_linear_1147_1013" x1="723.679" y1="500.266" x2="723.679" y2="558.299" gradientUnits="userSpaceOnUse">
<stop stop-color="#A35B48"/>
<stop offset="0.5" stop-color="#C17468"/>
<stop offset="0.983041" stop-color="#B85555"/>
</linearGradient>
<linearGradient id="paint20_linear_1147_1013" x1="723.679" y1="500.266" x2="723.679" y2="558.299" gradientUnits="userSpaceOnUse">
<stop stop-color="#A35B48"/>
<stop offset="0.5" stop-color="#C17468"/>
<stop offset="0.983041" stop-color="#B85555"/>
</linearGradient>
<linearGradient id="paint21_linear_1147_1013" x1="723.679" y1="500.266" x2="723.679" y2="558.299" gradientUnits="userSpaceOnUse">
<stop stop-color="#A35B48"/>
<stop offset="0.5" stop-color="#C17468"/>
<stop offset="0.983041" stop-color="#B85555"/>
</linearGradient>
<linearGradient id="paint22_linear_1147_1013" x1="723.679" y1="500.266" x2="723.679" y2="558.299" gradientUnits="userSpaceOnUse">
<stop stop-color="#A35B48"/>
<stop offset="0.5" stop-color="#C17468"/>
<stop offset="0.983041" stop-color="#B85555"/>
</linearGradient>
<linearGradient id="paint23_linear_1147_1013" x1="723.679" y1="500.266" x2="723.679" y2="558.299" gradientUnits="userSpaceOnUse">
<stop stop-color="#A35B48"/>
<stop offset="0.5" stop-color="#C17468"/>
<stop offset="0.983041" stop-color="#B85555"/>
</linearGradient>
<linearGradient id="paint24_linear_1147_1013" x1="723.679" y1="500.266" x2="723.679" y2="558.299" gradientUnits="userSpaceOnUse">
<stop stop-color="#A35B48"/>
<stop offset="0.5" stop-color="#C17468"/>
<stop offset="0.983041" stop-color="#B85555"/>
</linearGradient>
<linearGradient id="paint25_linear_1147_1013" x1="723.679" y1="500.266" x2="723.679" y2="558.299" gradientUnits="userSpaceOnUse">
<stop stop-color="#A35B48"/>
<stop offset="0.5" stop-color="#C17468"/>
<stop offset="0.983041" stop-color="#B85555"/>
</linearGradient>
<linearGradient id="paint26_linear_1147_1013" x1="723.679" y1="500.266" x2="723.679" y2="558.299" gradientUnits="userSpaceOnUse">
<stop stop-color="#A35B48"/>
<stop offset="0.5" stop-color="#C17468"/>
<stop offset="0.983041" stop-color="#B85555"/>
</linearGradient>
<linearGradient id="paint27_linear_1147_1013" x1="723.679" y1="500.266" x2="723.679" y2="558.299" gradientUnits="userSpaceOnUse">
<stop stop-color="#A35B48"/>
<stop offset="0.5" stop-color="#C17468"/>
<stop offset="0.983041" stop-color="#B85555"/>
</linearGradient>
<linearGradient id="paint28_linear_1147_1013" x1="723.679" y1="500.266" x2="723.679" y2="558.299" gradientUnits="userSpaceOnUse">
<stop stop-color="#A35B48"/>
<stop offset="0.5" stop-color="#C17468"/>
<stop offset="0.983041" stop-color="#B85555"/>
</linearGradient>
<linearGradient id="paint29_linear_1147_1013" x1="723.679" y1="500.266" x2="723.679" y2="558.299" gradientUnits="userSpaceOnUse">
<stop stop-color="#A35B48"/>
<stop offset="0.5" stop-color="#C17468"/>
<stop offset="0.983041" stop-color="#B85555"/>
</linearGradient>
<linearGradient id="paint30_linear_1147_1013" x1="723.679" y1="500.266" x2="723.679" y2="558.299" gradientUnits="userSpaceOnUse">
<stop stop-color="#A35B48"/>
<stop offset="0.5" stop-color="#C17468"/>
<stop offset="0.983041" stop-color="#B85555"/>
</linearGradient>
<linearGradient id="paint31_linear_1147_1013" x1="723.679" y1="500.266" x2="723.679" y2="558.299" gradientUnits="userSpaceOnUse">
<stop stop-color="#A35B48"/>
<stop offset="0.5" stop-color="#C17468"/>
<stop offset="0.983041" stop-color="#B85555"/>
</linearGradient>
<linearGradient id="paint32_linear_1147_1013" x1="0" y1="494.27" x2="666.466" y2="494.27" gradientUnits="userSpaceOnUse">
<stop stop-color="#F3B098"/>
<stop offset="1" stop-color="#FBCFB9"/>
</linearGradient>
<linearGradient id="paint33_linear_1147_1013" x1="444.398" y1="478.529" x2="444.398" y2="526.865" gradientUnits="userSpaceOnUse">
<stop stop-color="#E6A47D"/>
<stop offset="0.5" stop-color="#D69981"/>
<stop offset="1" stop-color="#E6B89E"/>
</linearGradient>
<linearGradient id="paint34_linear_1147_1013" x1="444.398" y1="478.529" x2="444.398" y2="526.865" gradientUnits="userSpaceOnUse">
<stop stop-color="#E6A47D"/>
<stop offset="0.5" stop-color="#D69981"/>
<stop offset="1" stop-color="#E6B89E"/>
</linearGradient>
<linearGradient id="paint35_linear_1147_1013" x1="444.398" y1="478.529" x2="444.398" y2="526.865" gradientUnits="userSpaceOnUse">
<stop stop-color="#E6A47D"/>
<stop offset="0.5" stop-color="#D69981"/>
<stop offset="1" stop-color="#E6B89E"/>
</linearGradient>
<linearGradient id="paint36_linear_1147_1013" x1="444.398" y1="478.529" x2="444.398" y2="526.865" gradientUnits="userSpaceOnUse">
<stop stop-color="#E6A47D"/>
<stop offset="0.5" stop-color="#D69981"/>
<stop offset="1" stop-color="#E6B89E"/>
</linearGradient>
<linearGradient id="paint37_linear_1147_1013" x1="444.398" y1="478.529" x2="444.398" y2="526.865" gradientUnits="userSpaceOnUse">
<stop stop-color="#E6A47D"/>
<stop offset="0.5" stop-color="#D69981"/>
<stop offset="1" stop-color="#E6B89E"/>
</linearGradient>
<linearGradient id="paint38_linear_1147_1013" x1="444.398" y1="478.529" x2="444.398" y2="526.865" gradientUnits="userSpaceOnUse">
<stop stop-color="#E6A47D"/>
<stop offset="0.5" stop-color="#D69981"/>
<stop offset="1" stop-color="#E6B89E"/>
</linearGradient>
<linearGradient id="paint39_linear_1147_1013" x1="444.398" y1="478.529" x2="444.398" y2="526.865" gradientUnits="userSpaceOnUse">
<stop stop-color="#E6A47D"/>
<stop offset="0.5" stop-color="#D69981"/>
<stop offset="1" stop-color="#E6B89E"/>
</linearGradient>
<linearGradient id="paint40_linear_1147_1013" x1="444.398" y1="478.529" x2="444.398" y2="526.865" gradientUnits="userSpaceOnUse">
<stop stop-color="#E6A47D"/>
<stop offset="0.5" stop-color="#D69981"/>
<stop offset="1" stop-color="#E6B89E"/>
</linearGradient>
<linearGradient id="paint41_linear_1147_1013" x1="444.398" y1="478.529" x2="444.398" y2="526.865" gradientUnits="userSpaceOnUse">
<stop stop-color="#E6A47D"/>
<stop offset="0.5" stop-color="#D69981"/>
<stop offset="1" stop-color="#E6B89E"/>
</linearGradient>
<linearGradient id="paint42_linear_1147_1013" x1="444.398" y1="478.529" x2="444.398" y2="526.865" gradientUnits="userSpaceOnUse">
<stop stop-color="#E6A47D"/>
<stop offset="0.5" stop-color="#D69981"/>
<stop offset="1" stop-color="#E6B89E"/>
</linearGradient>
<linearGradient id="paint43_linear_1147_1013" x1="444.398" y1="478.529" x2="444.398" y2="526.865" gradientUnits="userSpaceOnUse">
<stop stop-color="#E6A47D"/>
<stop offset="0.5" stop-color="#D69981"/>
<stop offset="1" stop-color="#E6B89E"/>
</linearGradient>
<linearGradient id="paint44_linear_1147_1013" x1="444.398" y1="478.529" x2="444.398" y2="526.865" gradientUnits="userSpaceOnUse">
<stop stop-color="#E6A47D"/>
<stop offset="0.5" stop-color="#D69981"/>
<stop offset="1" stop-color="#E6B89E"/>
</linearGradient>
<linearGradient id="paint45_linear_1147_1013" x1="444.398" y1="478.529" x2="444.398" y2="526.865" gradientUnits="userSpaceOnUse">
<stop stop-color="#E6A47D"/>
<stop offset="0.5" stop-color="#D69981"/>
<stop offset="1" stop-color="#E6B89E"/>
</linearGradient>
<linearGradient id="paint46_linear_1147_1013" x1="444.398" y1="478.529" x2="444.398" y2="526.865" gradientUnits="userSpaceOnUse">
<stop stop-color="#E6A47D"/>
<stop offset="0.5" stop-color="#D69981"/>
<stop offset="1" stop-color="#E6B89E"/>
</linearGradient>
<linearGradient id="paint47_linear_1147_1013" x1="444.398" y1="478.529" x2="444.398" y2="526.865" gradientUnits="userSpaceOnUse">
<stop stop-color="#E6A47D"/>
<stop offset="0.5" stop-color="#D69981"/>
<stop offset="1" stop-color="#E6B89E"/>
</linearGradient>
<linearGradient id="paint48_linear_1147_1013" x1="444.398" y1="478.529" x2="444.398" y2="526.865" gradientUnits="userSpaceOnUse">
<stop stop-color="#E6A47D"/>
<stop offset="0.5" stop-color="#D69981"/>
<stop offset="1" stop-color="#E6B89E"/>
</linearGradient>
<linearGradient id="paint49_linear_1147_1013" x1="444.398" y1="478.529" x2="444.398" y2="526.865" gradientUnits="userSpaceOnUse">
<stop stop-color="#E6A47D"/>
<stop offset="0.5" stop-color="#D69981"/>
<stop offset="1" stop-color="#E6B89E"/>
</linearGradient>
<linearGradient id="paint50_linear_1147_1013" x1="6.88428" y1="475.08" x2="286.702" y2="475.08" gradientUnits="userSpaceOnUse">
<stop stop-color="#E9AA9E"/>
<stop offset="1" stop-color="#E07F6F"/>
</linearGradient>
<linearGradient id="paint51_linear_1147_1013" x1="201.104" y1="452.343" x2="623.365" y2="452.343" gradientUnits="userSpaceOnUse">
<stop stop-color="#99523A"/>
<stop offset="0.471884" stop-color="#CE7E55"/>
<stop offset="0.978905" stop-color="#F2AA7A"/>
</linearGradient>
<linearGradient id="paint52_linear_1147_1013" x1="201.104" y1="450.136" x2="588.098" y2="445.14" gradientUnits="userSpaceOnUse">
<stop stop-color="#8C452D"/>
<stop offset="0.5" stop-color="#82402A"/>
<stop offset="1" stop-color="#A35931"/>
</linearGradient>
<linearGradient id="paint53_linear_1147_1013" x1="576.065" y1="428.235" x2="590.61" y2="492.794" gradientUnits="userSpaceOnUse">
<stop stop-color="#B87243"/>
<stop offset="1" stop-color="#DD9765"/>
</linearGradient>
<linearGradient id="paint54_linear_1147_1013" x1="576.065" y1="428.235" x2="590.61" y2="492.794" gradientUnits="userSpaceOnUse">
<stop stop-color="#B87243"/>
<stop offset="1" stop-color="#DD9765"/>
</linearGradient>
<linearGradient id="paint55_linear_1147_1013" x1="576.065" y1="428.235" x2="590.61" y2="492.794" gradientUnits="userSpaceOnUse">
<stop stop-color="#B87243"/>
<stop offset="1" stop-color="#DD9765"/>
</linearGradient>
<linearGradient id="paint56_linear_1147_1013" x1="576.065" y1="428.235" x2="590.61" y2="492.794" gradientUnits="userSpaceOnUse">
<stop stop-color="#B87243"/>
<stop offset="1" stop-color="#DD9765"/>
</linearGradient>
<linearGradient id="paint57_linear_1147_1013" x1="576.065" y1="428.235" x2="590.61" y2="492.794" gradientUnits="userSpaceOnUse">
<stop stop-color="#B87243"/>
<stop offset="1" stop-color="#DD9765"/>
</linearGradient>
<linearGradient id="paint58_linear_1147_1013" x1="576.065" y1="428.235" x2="590.61" y2="492.794" gradientUnits="userSpaceOnUse">
<stop stop-color="#B87243"/>
<stop offset="1" stop-color="#DD9765"/>
</linearGradient>
<linearGradient id="paint59_linear_1147_1013" x1="338.99" y1="197.93" x2="353.861" y2="198.879" gradientUnits="userSpaceOnUse">
<stop stop-color="#E1CCC9"/>
<stop offset="1" stop-color="#C18184"/>
</linearGradient>
<linearGradient id="paint60_linear_1147_1013" x1="630.082" y1="119.5" x2="588.507" y2="154.344" gradientUnits="userSpaceOnUse">
<stop stop-color="#E1CCC9"/>
<stop offset="1" stop-color="#C18184"/>
</linearGradient>
<linearGradient id="paint61_linear_1147_1013" x1="526.555" y1="81.3933" x2="526.555" y2="129.267" gradientUnits="userSpaceOnUse">
<stop stop-color="#DEC1B8"/>
<stop offset="1" stop-color="#AA7B74"/>
</linearGradient>
<linearGradient id="paint62_linear_1147_1013" x1="449.631" y1="0" x2="449.631" y2="111.871" gradientUnits="userSpaceOnUse">
<stop stop-color="#EED8D5"/>
<stop offset="0.5" stop-color="#DA9F99"/>
<stop offset="1" stop-color="#C18184"/>
</linearGradient>
<linearGradient id="paint63_linear_1147_1013" x1="357.558" y1="124.803" x2="357.558" y2="188.343" gradientUnits="userSpaceOnUse">
<stop stop-color="#E4CBC3"/>
<stop offset="1" stop-color="#C38584"/>
</linearGradient>
<linearGradient id="paint64_linear_1147_1013" x1="409.982" y1="172.554" x2="409.982" y2="352.161" gradientUnits="userSpaceOnUse">
<stop stop-color="#6C5D58"/>
<stop offset="0.389423" stop-color="#896F6A"/>
<stop offset="1" stop-color="#60433D"/>
</linearGradient>
<linearGradient id="paint65_linear_1147_1013" x1="542.111" y1="143.252" x2="542.111" y2="312.55" gradientUnits="userSpaceOnUse">
<stop stop-color="#6C5D58"/>
<stop offset="1" stop-color="#80615D"/>
</linearGradient>
<linearGradient id="paint66_linear_1147_1013" x1="449.865" y1="80.308" x2="449.865" y2="416.733" gradientUnits="userSpaceOnUse">
<stop stop-color="#6B4B40"/>
<stop offset="0.885658" stop-color="#84564C"/>
<stop offset="1" stop-color="#6F3E37"/>
</linearGradient>
</defs>
</svg>
