<svg width="363" height="417" viewBox="0 0 363 417" fill="none" xmlns="http://www.w3.org/2000/svg">
<g filter="url(#filter0_n_934_1754)">
<path d="M23.4951 208.259C31.0241 207.385 26.9741 202.653 24.008 200.395C25.4876 195.838 19.6626 194.511 16.5652 194.418C14.1703 192.345 12.5523 194.464 12.0426 195.782C6.00032 196.701 6.8394 201.087 8.01423 203.165C6.10995 204.808 6.69276 208.445 10.8521 209.504C15.7371 212.553 18.0326 211.346 18.5697 210.362C22.8395 212.692 23.6324 209.931 23.4951 208.259Z" fill="url(#paint0_linear_934_1754)"/>
</g>
<g filter="url(#filter1_n_934_1754)">
<path d="M283.44 153.801C265.038 175.917 288.561 178.317 302.622 176.753C310.492 193.152 329.971 181.543 338.727 173.688C350.737 173.114 349.634 163.054 347.582 158.096C361.781 139.75 347.99 129.895 339.319 127.26C340.249 117.758 329.125 109.292 314.922 117.273C293.515 121.687 290.367 131.013 291.468 135.125C273.634 139.903 278.685 149.567 283.44 153.801Z" fill="url(#paint1_linear_934_1754)"/>
</g>
<g filter="url(#filter2_n_934_1754)">
<path d="M251.205 163.423C232.803 185.539 256.326 187.939 270.387 186.375C278.257 202.774 297.736 191.165 306.492 183.31C318.502 182.736 317.399 172.676 315.347 167.718C329.546 149.372 315.755 139.517 307.085 136.882C308.014 127.38 296.89 118.914 282.687 126.895C261.28 131.309 258.132 140.635 259.233 144.747C241.399 149.525 246.45 159.188 251.205 163.423Z" fill="url(#paint2_linear_934_1754)"/>
</g>
<g filter="url(#filter3_n_934_1754)">
<path d="M201.172 69.1977C191.162 61.3089 183.831 69.8551 181.416 75.1143C168.245 71.9588 166.709 82.5648 167.587 88.2623C155.47 87.2105 155.514 97.9042 157.05 103.382C152.836 112.849 162.319 116.53 167.587 117.188C171.275 125.603 178.343 123.324 181.416 121.132C198.538 130.336 203.147 114.558 203.147 113.243C215.66 114.558 209.074 106.012 209.074 104.697C215.396 106.275 216.538 100.972 216.318 98.1233C222.64 89.7086 216.318 84.9753 212.367 83.6605C215.001 69.9866 206.001 68.3212 201.172 69.1977Z" fill="url(#paint3_linear_934_1754)"/>
</g>
<g filter="url(#filter4_n_934_1754)">
<path d="M129.039 9.94304C103.898 -15.7836 93.9734 16.5396 93.3118 16.5396C86.431 14.9565 80.7411 18.9584 78.7562 21.1572C72.4047 25.9067 73.4633 34.1304 74.7865 37.6486C67.3764 37.6486 66.8471 42.0463 67.5087 44.2452C55.8643 40.5511 49.4246 51.0617 47.6603 56.7787C43.9552 69.9718 50.5273 77.2281 54.2764 79.207C53.2178 83.4288 56.4818 85.8036 58.2461 86.4633C47.131 86.991 44.7933 98.1172 45.0138 103.614C47.131 123.14 60.8926 124.943 67.5087 123.404C78.0946 144.513 94.8555 134.398 101.913 126.702C104.03 129.869 110.293 126.263 113.16 124.064C116.865 127.758 125.29 125.603 129.039 124.064C143.859 129.869 150.652 118.127 152.196 111.53C173.367 109.419 170.721 95.2587 166.751 88.4422C185.276 88.4422 188.584 71.7309 187.923 63.3753C185.806 34.8781 167.633 34.3503 158.812 37.6486C158.282 22.8723 147.123 21.3771 141.61 22.4765C144.256 7.70018 134.332 7.96406 129.039 9.94304Z" fill="url(#paint4_linear_934_1754)"/>
</g>
<g filter="url(#filter5_n_934_1754)">
<path d="M65.1073 132.272C59.6975 113.088 44.4107 117.31 37.4435 121.819C17.7714 113.457 13.6731 126.943 14.0829 134.732C6.70591 139.159 8.55016 146.824 10.3944 150.103C-9.27764 164.368 3.42722 174.903 12.2387 178.387C15.1895 184.782 22.8944 182.691 26.3779 180.847C30.3124 191.668 41.132 188.225 46.05 185.151C54.9024 194.989 65.722 187.61 70.0253 182.691C100.025 163.507 87.8531 152.153 78.0171 148.874C84.9023 131.657 72.2794 130.632 65.1073 132.272Z" fill="url(#paint5_linear_934_1754)"/>
</g>
<g filter="url(#filter6_n_934_1754)">
<path d="M205.04 173.325C201.879 162.135 192.948 164.598 188.877 167.228C177.383 162.35 174.989 170.217 175.228 174.76C170.918 177.343 171.996 181.814 173.073 183.727C161.579 192.048 169.002 198.193 174.151 200.226C175.875 203.956 180.376 202.737 182.412 201.661C184.711 207.973 191.032 205.965 193.906 204.171C199.078 209.91 205.399 205.606 207.914 202.737C225.442 191.546 218.33 184.923 212.583 183.01C216.606 172.967 209.231 172.369 205.04 173.325Z" fill="url(#paint6_linear_934_1754)"/>
</g>
<g filter="url(#filter7_n_934_1754)">
<path d="M115.5 288C125.5 308 125.667 342.667 124.5 357.5L142.5 314L134.5 297C116.9 255.4 92.9 235.404 79.5 225C65.3691 212.515 54.5273 185.465 50.8727 173.5C51.36 179.742 54.7303 191.707 56.3545 196.909C53.4309 193.788 42.5485 180.523 37.4727 174.28C39.9091 179.898 58.3848 207.833 67.3182 221.098C58.06 212.983 26.9152 205.753 12.5 203.152V204.712C82.6673 224.064 105.5 258.167 110 273.5C96.8 265.5 75.5 260.167 66.5 258.5L65 260C89.8 264 109 280.333 115.5 288Z" fill="url(#paint7_linear_934_1754)"/>
</g>
<g filter="url(#filter8_n_934_1754)">
<path d="M243.397 200.5C159.562 252.1 153.5 302.333 151.5 321H141.5L145.5 286.5C149.9 276.5 171 249.333 181 237C198.6 214.6 197.256 191.667 191 183L192.564 182.5C195.692 184.5 198.56 191.667 199.603 195L203.513 191.5L205.077 192.5L201.949 196.5C202.574 197.7 202.209 212.333 201.949 219.5C220.718 206.3 282.761 177.667 311.436 165L313 166.5L299.705 174.5L312.218 172.5V174C291.572 176.4 257.735 192.667 243.397 200.5Z" fill="url(#paint8_linear_934_1754)"/>
</g>
<g filter="url(#filter9_n_934_1754)">
<path d="M126.57 59.9856C117.213 125.774 128.8 183.785 135.25 209.791C135.25 192.831 140.552 162.019 144.72 148.734C144.72 132.056 144.639 98.3613 144.317 97.0045C143.994 95.6476 145.527 96.4391 146.333 97.0045L147.543 138.557C152.061 124.311 159.912 101.527 163.273 91.9163L158.433 113.117L173.5 97.0045L174.5 99C135 158.5 152.517 205.821 152.35 220C154.443 235.575 162.395 250.045 166.198 272.172C166.404 273.372 166.315 274.6 165.964 275.765C149.59 330.236 144.564 396.256 150.5 404.5C152.5 408.9 172 414.667 181.5 417H45C59 410 59.5 409.5 66 404.5C84.4 390.9 115.167 356.167 122.5 332.5C132.9 290.5 122.147 196.295 116.5 144C111.647 113.117 92.0333 86.3738 88 68C92.5173 86.3172 117.293 116.226 120.117 123.293C120.117 117.866 119.579 97.2871 119.31 87.6763C118.933 83.3191 117.163 70.6554 115.3 62.2866C114.666 60.2106 113.986 57.946 113.26 55.5H111.647C112.598 52.5391 113.973 56.322 115.3 62.2866C118.609 73.125 120.65 78.8225 121.327 78.348L124.957 59.9856H126.57Z" fill="url(#paint9_linear_934_1754)"/>
</g>
<g filter="url(#filter10_n_934_1754)">
<path d="M181.5 417C145.9 406.6 147.594 342.333 152.927 310C132.527 384.8 138.073 416 154 417H181.5Z" fill="#AE8B85"/>
</g>
<path d="M146.599 178.616L167.725 141L154.771 158.545L148.061 168.723L141.817 176.09L146.599 178.616Z" fill="#725C58"/>
<defs>
<filter id="filter0_n_934_1754" x="6.97522" y="193.549" width="20.8171" height="17.8989" filterUnits="userSpaceOnUse" color-interpolation-filters="sRGB">
<feFlood flood-opacity="0" result="BackgroundImageFix"/>
<feBlend mode="normal" in="SourceGraphic" in2="BackgroundImageFix" result="shape"/>
<feTurbulence type="fractalNoise" baseFrequency="10 10" stitchTiles="stitch" numOctaves="3" result="noise" seed="3546" />
<feColorMatrix in="noise" type="luminanceToAlpha" result="alphaNoise" />
<feComponentTransfer in="alphaNoise" result="coloredNoise1">
<feFuncA type="discrete" tableValues="1 1 1 1 1 1 1 1 1 1 1 1 1 1 1 1 1 1 1 1 1 1 1 1 1 1 1 1 1 1 1 1 1 1 1 1 1 1 1 1 1 1 1 1 1 1 1 1 1 1 1 0 0 0 0 0 0 0 0 0 0 0 0 0 0 0 0 0 0 0 0 0 0 0 0 0 0 0 0 0 0 0 0 0 0 0 0 0 0 0 0 0 0 0 0 0 0 0 0 0 "/>
</feComponentTransfer>
<feComposite operator="in" in2="shape" in="coloredNoise1" result="noise1Clipped" />
<feFlood flood-color="rgba(154, 70, 70, 0.25)" result="color1Flood" />
<feComposite operator="in" in2="noise1Clipped" in="color1Flood" result="color1" />
<feMerge result="effect1_noise_934_1754">
<feMergeNode in="shape" />
<feMergeNode in="color1" />
</feMerge>
</filter>
<filter id="filter1_n_934_1754" x="276.685" y="114.099" width="77.0183" height="70.9629" filterUnits="userSpaceOnUse" color-interpolation-filters="sRGB">
<feFlood flood-opacity="0" result="BackgroundImageFix"/>
<feBlend mode="normal" in="SourceGraphic" in2="BackgroundImageFix" result="shape"/>
<feTurbulence type="fractalNoise" baseFrequency="10 10" stitchTiles="stitch" numOctaves="3" result="noise" seed="6445" />
<feColorMatrix in="noise" type="luminanceToAlpha" result="alphaNoise" />
<feComponentTransfer in="alphaNoise" result="coloredNoise1">
<feFuncA type="discrete" tableValues="1 1 1 1 1 1 1 1 1 1 1 1 1 1 1 1 1 1 1 1 1 1 1 1 1 1 1 1 1 1 1 1 1 1 1 1 1 1 1 1 1 1 1 1 1 1 1 1 1 1 1 0 0 0 0 0 0 0 0 0 0 0 0 0 0 0 0 0 0 0 0 0 0 0 0 0 0 0 0 0 0 0 0 0 0 0 0 0 0 0 0 0 0 0 0 0 0 0 0 0 "/>
</feComponentTransfer>
<feComposite operator="in" in2="shape" in="coloredNoise1" result="noise1Clipped" />
<feFlood flood-color="rgba(194, 93, 93, 0.25)" result="color1Flood" />
<feComposite operator="in" in2="noise1Clipped" in="color1Flood" result="color1" />
<feMerge result="effect1_noise_934_1754">
<feMergeNode in="shape" />
<feMergeNode in="color1" />
</feMerge>
</filter>
<filter id="filter2_n_934_1754" x="244.45" y="123.721" width="77.0183" height="70.9629" filterUnits="userSpaceOnUse" color-interpolation-filters="sRGB">
<feFlood flood-opacity="0" result="BackgroundImageFix"/>
<feBlend mode="normal" in="SourceGraphic" in2="BackgroundImageFix" result="shape"/>
<feTurbulence type="fractalNoise" baseFrequency="10 10" stitchTiles="stitch" numOctaves="3" result="noise" seed="6445" />
<feColorMatrix in="noise" type="luminanceToAlpha" result="alphaNoise" />
<feComponentTransfer in="alphaNoise" result="coloredNoise1">
<feFuncA type="discrete" tableValues="1 1 1 1 1 1 1 1 1 1 1 1 1 1 1 1 1 1 1 1 1 1 1 1 1 1 1 1 1 1 1 1 1 1 1 1 1 1 1 1 1 1 1 1 1 1 1 1 1 1 1 0 0 0 0 0 0 0 0 0 0 0 0 0 0 0 0 0 0 0 0 0 0 0 0 0 0 0 0 0 0 0 0 0 0 0 0 0 0 0 0 0 0 0 0 0 0 0 0 0 "/>
</feComponentTransfer>
<feComposite operator="in" in2="shape" in="coloredNoise1" result="noise1Clipped" />
<feFlood flood-color="rgba(194, 93, 93, 0.25)" result="color1Flood" />
<feComposite operator="in" in2="noise1Clipped" in="color1Flood" result="color1" />
<feMerge result="effect1_noise_934_1754">
<feMergeNode in="shape" />
<feMergeNode in="color1" />
</feMerge>
</filter>
<filter id="filter3_n_934_1754" x="156" y="66" width="63" height="58" filterUnits="userSpaceOnUse" color-interpolation-filters="sRGB">
<feFlood flood-opacity="0" result="BackgroundImageFix"/>
<feBlend mode="normal" in="SourceGraphic" in2="BackgroundImageFix" result="shape"/>
<feTurbulence type="fractalNoise" baseFrequency="10 10" stitchTiles="stitch" numOctaves="3" result="noise" seed="3546" />
<feColorMatrix in="noise" type="luminanceToAlpha" result="alphaNoise" />
<feComponentTransfer in="alphaNoise" result="coloredNoise1">
<feFuncA type="discrete" tableValues="1 1 1 1 1 1 1 1 1 1 1 1 1 1 1 1 1 1 1 1 1 1 1 1 1 1 1 1 1 1 1 1 1 1 1 1 1 1 1 1 1 1 1 1 1 1 1 1 1 1 1 0 0 0 0 0 0 0 0 0 0 0 0 0 0 0 0 0 0 0 0 0 0 0 0 0 0 0 0 0 0 0 0 0 0 0 0 0 0 0 0 0 0 0 0 0 0 0 0 0 "/>
</feComponentTransfer>
<feComposite operator="in" in2="shape" in="coloredNoise1" result="noise1Clipped" />
<feFlood flood-color="rgba(215, 78, 78, 0.25)" result="color1Flood" />
<feComposite operator="in" in2="noise1Clipped" in="color1Flood" result="color1" />
<feMerge result="effect1_noise_934_1754">
<feMergeNode in="shape" />
<feMergeNode in="color1" />
</feMerge>
</filter>
<filter id="filter4_n_934_1754" x="45" y="0" width="143" height="136" filterUnits="userSpaceOnUse" color-interpolation-filters="sRGB">
<feFlood flood-opacity="0" result="BackgroundImageFix"/>
<feBlend mode="normal" in="SourceGraphic" in2="BackgroundImageFix" result="shape"/>
<feTurbulence type="fractalNoise" baseFrequency="10 10" stitchTiles="stitch" numOctaves="3" result="noise" seed="3546" />
<feColorMatrix in="noise" type="luminanceToAlpha" result="alphaNoise" />
<feComponentTransfer in="alphaNoise" result="coloredNoise1">
<feFuncA type="discrete" tableValues="1 1 1 1 1 1 1 1 1 1 1 1 1 1 1 1 1 1 1 1 1 1 1 1 1 1 1 1 1 1 1 1 1 1 1 1 1 1 1 1 1 1 1 1 1 1 1 1 1 1 1 0 0 0 0 0 0 0 0 0 0 0 0 0 0 0 0 0 0 0 0 0 0 0 0 0 0 0 0 0 0 0 0 0 0 0 0 0 0 0 0 0 0 0 0 0 0 0 0 0 "/>
</feComponentTransfer>
<feComposite operator="in" in2="shape" in="coloredNoise1" result="noise1Clipped" />
<feFlood flood-color="rgba(209, 86, 86, 0.25)" result="color1Flood" />
<feComposite operator="in" in2="noise1Clipped" in="color1Flood" result="color1" />
<feMerge result="effect1_noise_934_1754">
<feMergeNode in="shape" />
<feMergeNode in="color1" />
</feMerge>
</filter>
<filter id="filter5_n_934_1754" x="0" y="118" width="89" height="72" filterUnits="userSpaceOnUse" color-interpolation-filters="sRGB">
<feFlood flood-opacity="0" result="BackgroundImageFix"/>
<feBlend mode="normal" in="SourceGraphic" in2="BackgroundImageFix" result="shape"/>
<feTurbulence type="fractalNoise" baseFrequency="10 10" stitchTiles="stitch" numOctaves="3" result="noise" seed="3546" />
<feColorMatrix in="noise" type="luminanceToAlpha" result="alphaNoise" />
<feComponentTransfer in="alphaNoise" result="coloredNoise1">
<feFuncA type="discrete" tableValues="1 1 1 1 1 1 1 1 1 1 1 1 1 1 1 1 1 1 1 1 1 1 1 1 1 1 1 1 1 1 1 1 1 1 1 1 1 1 1 1 1 1 1 1 1 1 1 1 1 1 1 0 0 0 0 0 0 0 0 0 0 0 0 0 0 0 0 0 0 0 0 0 0 0 0 0 0 0 0 0 0 0 0 0 0 0 0 0 0 0 0 0 0 0 0 0 0 0 0 0 "/>
</feComponentTransfer>
<feComposite operator="in" in2="shape" in="coloredNoise1" result="noise1Clipped" />
<feFlood flood-color="rgba(154, 70, 70, 0.25)" result="color1Flood" />
<feComposite operator="in" in2="noise1Clipped" in="color1Flood" result="color1" />
<feMerge result="effect1_noise_934_1754">
<feMergeNode in="shape" />
<feMergeNode in="color1" />
</feMerge>
</filter>
<filter id="filter6_n_934_1754" x="167" y="165" width="52" height="42" filterUnits="userSpaceOnUse" color-interpolation-filters="sRGB">
<feFlood flood-opacity="0" result="BackgroundImageFix"/>
<feBlend mode="normal" in="SourceGraphic" in2="BackgroundImageFix" result="shape"/>
<feTurbulence type="fractalNoise" baseFrequency="10 10" stitchTiles="stitch" numOctaves="3" result="noise" seed="3546" />
<feColorMatrix in="noise" type="luminanceToAlpha" result="alphaNoise" />
<feComponentTransfer in="alphaNoise" result="coloredNoise1">
<feFuncA type="discrete" tableValues="1 1 1 1 1 1 1 1 1 1 1 1 1 1 1 1 1 1 1 1 1 1 1 1 1 1 1 1 1 1 1 1 1 1 1 1 1 1 1 1 1 1 1 1 1 1 1 1 1 1 1 0 0 0 0 0 0 0 0 0 0 0 0 0 0 0 0 0 0 0 0 0 0 0 0 0 0 0 0 0 0 0 0 0 0 0 0 0 0 0 0 0 0 0 0 0 0 0 0 0 "/>
</feComponentTransfer>
<feComposite operator="in" in2="shape" in="coloredNoise1" result="noise1Clipped" />
<feFlood flood-color="rgba(154, 70, 70, 0.25)" result="color1Flood" />
<feComposite operator="in" in2="noise1Clipped" in="color1Flood" result="color1" />
<feMerge result="effect1_noise_934_1754">
<feMergeNode in="shape" />
<feMergeNode in="color1" />
</feMerge>
</filter>
<filter id="filter7_n_934_1754" x="12.5" y="173.5" width="130" height="184" filterUnits="userSpaceOnUse" color-interpolation-filters="sRGB">
<feFlood flood-opacity="0" result="BackgroundImageFix"/>
<feBlend mode="normal" in="SourceGraphic" in2="BackgroundImageFix" result="shape"/>
<feTurbulence type="fractalNoise" baseFrequency="10 10" stitchTiles="stitch" numOctaves="3" result="noise" seed="9117" />
<feColorMatrix in="noise" type="luminanceToAlpha" result="alphaNoise" />
<feComponentTransfer in="alphaNoise" result="coloredNoise1">
<feFuncA type="discrete" tableValues="1 1 1 1 1 1 1 1 1 1 1 1 1 1 1 1 1 1 1 1 1 1 1 1 1 1 1 1 1 1 1 1 1 1 1 1 1 1 1 1 1 1 1 1 1 1 1 1 1 1 1 0 0 0 0 0 0 0 0 0 0 0 0 0 0 0 0 0 0 0 0 0 0 0 0 0 0 0 0 0 0 0 0 0 0 0 0 0 0 0 0 0 0 0 0 0 0 0 0 0 "/>
</feComponentTransfer>
<feComposite operator="in" in2="shape" in="coloredNoise1" result="noise1Clipped" />
<feFlood flood-color="rgba(0, 0, 0, 0.25)" result="color1Flood" />
<feComposite operator="in" in2="noise1Clipped" in="color1Flood" result="color1" />
<feMerge result="effect1_noise_934_1754">
<feMergeNode in="shape" />
<feMergeNode in="color1" />
</feMerge>
</filter>
<filter id="filter8_n_934_1754" x="141.5" y="165" width="171.5" height="156" filterUnits="userSpaceOnUse" color-interpolation-filters="sRGB">
<feFlood flood-opacity="0" result="BackgroundImageFix"/>
<feBlend mode="normal" in="SourceGraphic" in2="BackgroundImageFix" result="shape"/>
<feTurbulence type="fractalNoise" baseFrequency="10 10" stitchTiles="stitch" numOctaves="3" result="noise" seed="3328" />
<feColorMatrix in="noise" type="luminanceToAlpha" result="alphaNoise" />
<feComponentTransfer in="alphaNoise" result="coloredNoise1">
<feFuncA type="discrete" tableValues="1 1 1 1 1 1 1 1 1 1 1 1 1 1 1 1 1 1 1 1 1 1 1 1 1 1 1 1 1 1 1 1 1 1 1 1 1 1 1 1 1 1 1 1 1 1 1 1 1 1 1 0 0 0 0 0 0 0 0 0 0 0 0 0 0 0 0 0 0 0 0 0 0 0 0 0 0 0 0 0 0 0 0 0 0 0 0 0 0 0 0 0 0 0 0 0 0 0 0 0 "/>
</feComponentTransfer>
<feComposite operator="in" in2="shape" in="coloredNoise1" result="noise1Clipped" />
<feFlood flood-color="rgba(28, 13, 13, 0.25)" result="color1Flood" />
<feComposite operator="in" in2="noise1Clipped" in="color1Flood" result="color1" />
<feMerge result="effect1_noise_934_1754">
<feMergeNode in="shape" />
<feMergeNode in="color1" />
</feMerge>
</filter>
<filter id="filter9_n_934_1754" x="45" y="54.4704" width="136.5" height="362.53" filterUnits="userSpaceOnUse" color-interpolation-filters="sRGB">
<feFlood flood-opacity="0" result="BackgroundImageFix"/>
<feBlend mode="normal" in="SourceGraphic" in2="BackgroundImageFix" result="shape"/>
<feTurbulence type="fractalNoise" baseFrequency="10 10" stitchTiles="stitch" numOctaves="3" result="noise" seed="4102" />
<feColorMatrix in="noise" type="luminanceToAlpha" result="alphaNoise" />
<feComponentTransfer in="alphaNoise" result="coloredNoise1">
<feFuncA type="discrete" tableValues="1 1 1 1 1 1 1 1 1 1 1 1 1 1 1 1 1 1 1 1 1 1 1 1 1 1 1 1 1 1 1 1 1 1 1 1 1 1 1 1 1 1 1 1 1 1 1 1 1 1 1 0 0 0 0 0 0 0 0 0 0 0 0 0 0 0 0 0 0 0 0 0 0 0 0 0 0 0 0 0 0 0 0 0 0 0 0 0 0 0 0 0 0 0 0 0 0 0 0 0 "/>
</feComponentTransfer>
<feComposite operator="in" in2="shape" in="coloredNoise1" result="noise1Clipped" />
<feFlood flood-color="rgba(72, 35, 35, 0.25)" result="color1Flood" />
<feComposite operator="in" in2="noise1Clipped" in="color1Flood" result="color1" />
<feMerge result="effect1_noise_934_1754">
<feMergeNode in="shape" />
<feMergeNode in="color1" />
</feMerge>
</filter>
<filter id="filter10_n_934_1754" x="139.729" y="310" width="41.7708" height="107" filterUnits="userSpaceOnUse" color-interpolation-filters="sRGB">
<feFlood flood-opacity="0" result="BackgroundImageFix"/>
<feBlend mode="normal" in="SourceGraphic" in2="BackgroundImageFix" result="shape"/>
<feTurbulence type="fractalNoise" baseFrequency="10 10" stitchTiles="stitch" numOctaves="3" result="noise" seed="7161" />
<feColorMatrix in="noise" type="luminanceToAlpha" result="alphaNoise" />
<feComponentTransfer in="alphaNoise" result="coloredNoise1">
<feFuncA type="discrete" tableValues="1 1 1 1 1 1 1 1 1 1 1 1 1 1 1 1 1 1 1 1 1 1 1 1 1 1 1 1 1 1 1 1 1 1 1 1 1 1 1 1 1 1 1 1 1 1 1 1 1 1 1 0 0 0 0 0 0 0 0 0 0 0 0 0 0 0 0 0 0 0 0 0 0 0 0 0 0 0 0 0 0 0 0 0 0 0 0 0 0 0 0 0 0 0 0 0 0 0 0 0 "/>
</feComponentTransfer>
<feComposite operator="in" in2="shape" in="coloredNoise1" result="noise1Clipped" />
<feFlood flood-color="rgba(139, 47, 47, 0.25)" result="color1Flood" />
<feComposite operator="in" in2="noise1Clipped" in="color1Flood" result="color1" />
<feMerge result="effect1_noise_934_1754">
<feMergeNode in="shape" />
<feMergeNode in="color1" />
</feMerge>
</filter>
<linearGradient id="paint0_linear_934_1754" x1="9.76206" y1="204.212" x2="26.5473" y2="205.284" gradientUnits="userSpaceOnUse">
<stop stop-color="#E1CCC9"/>
<stop offset="1" stop-color="#C18184"/>
</linearGradient>
<linearGradient id="paint1_linear_934_1754" x1="331.774" y1="128.959" x2="282.843" y2="169.968" gradientUnits="userSpaceOnUse">
<stop stop-color="#E1CCC9"/>
<stop offset="1" stop-color="#C18184"/>
</linearGradient>
<linearGradient id="paint2_linear_934_1754" x1="299.539" y1="138.581" x2="250.608" y2="179.59" gradientUnits="userSpaceOnUse">
<stop stop-color="#E1CCC9"/>
<stop offset="1" stop-color="#C18184"/>
</linearGradient>
<linearGradient id="paint3_linear_934_1754" x1="187.5" y1="66" x2="187.5" y2="124" gradientUnits="userSpaceOnUse">
<stop stop-color="#DEC1B8"/>
<stop offset="1" stop-color="#AA7B74"/>
</linearGradient>
<linearGradient id="paint4_linear_934_1754" x1="116.5" y1="0" x2="116.5" y2="136" gradientUnits="userSpaceOnUse">
<stop stop-color="#EED8D5"/>
<stop offset="0.5" stop-color="#DA9F99"/>
<stop offset="1" stop-color="#C18184"/>
</linearGradient>
<linearGradient id="paint5_linear_934_1754" x1="44.5" y1="118" x2="44.5" y2="190" gradientUnits="userSpaceOnUse">
<stop stop-color="#E4CBC3"/>
<stop offset="1" stop-color="#C38584"/>
</linearGradient>
<linearGradient id="paint6_linear_934_1754" x1="193" y1="165" x2="193" y2="207" gradientUnits="userSpaceOnUse">
<stop stop-color="#E4CBC3"/>
<stop offset="1" stop-color="#C38584"/>
</linearGradient>
<linearGradient id="paint7_linear_934_1754" x1="83.5" y1="192" x2="83.5" y2="357.5" gradientUnits="userSpaceOnUse">
<stop stop-color="#6C5D58"/>
<stop offset="0.389423" stop-color="#896F6A"/>
<stop offset="1" stop-color="#60433D"/>
</linearGradient>
<linearGradient id="paint8_linear_934_1754" x1="227.25" y1="165" x2="227.25" y2="321" gradientUnits="userSpaceOnUse">
<stop stop-color="#6C5D58"/>
<stop offset="1" stop-color="#80615D"/>
</linearGradient>
<linearGradient id="paint9_linear_934_1754" x1="120.25" y1="107" x2="120.25" y2="417" gradientUnits="userSpaceOnUse">
<stop stop-color="#6C5D58"/>
<stop offset="0.885658" stop-color="#856C67"/>
<stop offset="1" stop-color="#6B4B46"/>
</linearGradient>
</defs>
</svg>
