<svg width="208" height="111" viewBox="0 0 208 111" fill="none" xmlns="http://www.w3.org/2000/svg">
<g filter="url(#filter0_n_801_1831)">
<path d="M82.8796 7.88364C72.7536 3.76046 74.7225 11.8923 76.9728 16.4736C72.2473 15.0992 74.4412 19.3369 76.1288 21.6276C73.4285 18.1916 69.3781 20.7686 67.6904 22.4866C71.0658 16.3018 62.9087 15.9009 58.4082 16.4736C50.3074 19.9096 53.3452 26.4952 55.8767 29.3586C51.1511 26.6098 49.4072 30.5039 49.126 32.7945C47.7759 27.297 41.8128 27.6406 39 28.4996C29.549 21.6276 24.3735 31.3629 22.9671 37.0895C10.8159 33.6535 11.1534 40.8119 12.8411 44.8205C-8.08603 51.0053 2.99639 61.7141 11.1535 66.2954C-5.04815 69.0442 -0.0975793 78.894 4.40291 83.4753C-7.07325 100.655 6.93442 100.369 15.3728 98.0783C23.4736 116.633 27.749 106.955 28.8741 99.7963C35.6248 106.668 42.3755 102.66 44.907 99.7963C55.7081 106.668 60.6586 98.0783 61.7837 92.9243C73.935 97.7347 75.8477 90.92 75.2851 86.9113C82.7109 87.5985 83.4422 82.0437 82.8796 79.1804C86.255 86.0523 92.1618 83.189 94.6933 80.8984C94.6933 88.4575 101.444 88.6293 104.819 87.7703C102.119 92.5807 103.694 94.9286 104.819 95.5013C107.52 100.999 114.383 99.51 117.477 98.0783C116.802 102.201 120.571 103.805 122.54 104.091C131.316 108.902 134.072 102.087 134.354 98.0783C137.054 100.14 138.854 98.9373 139.417 98.0783C144.142 107.012 152.637 104.091 156.293 101.514C155.618 108.386 159.95 107.814 162.2 106.668C169.626 115.602 176.545 108.673 179.077 104.091C191.903 107.527 184.421 99.7963 179.077 95.5013C181.777 97.5629 183.577 93.497 184.14 91.2063C188.865 102.201 195.672 96.933 198.485 92.9243C210.636 88.1139 208.611 77.7487 206.08 73.1674C210.13 57.3619 196.516 56.2738 189.203 57.7055C197.304 46.0231 187.515 44.2478 181.608 44.8205C181.608 31.0766 172.045 31.0766 167.263 32.7945C161.356 28.4996 152.074 38.8075 151.23 37.0895C150.555 35.7151 147.574 36.5169 146.167 37.0895C148.868 31.592 145.042 29.0722 142.792 28.4996C143.467 10.6324 127.884 11.3196 120.008 13.8966C115.283 -4.65778 101.163 -0.706341 94.6933 3.58867C86.5925 -3.28331 83.4422 3.58866 82.8796 7.88364Z" fill="url(#paint0_linear_801_1831)"/>
</g>
<defs>
<filter id="filter0_n_801_1831" x="0" y="0" width="208" height="111" filterUnits="userSpaceOnUse" color-interpolation-filters="sRGB">
<feFlood flood-opacity="0" result="BackgroundImageFix"/>
<feBlend mode="normal" in="SourceGraphic" in2="BackgroundImageFix" result="shape"/>
<feTurbulence type="fractalNoise" baseFrequency="2 2" stitchTiles="stitch" numOctaves="3" result="noise" seed="4240" />
<feColorMatrix in="noise" type="luminanceToAlpha" result="alphaNoise" />
<feComponentTransfer in="alphaNoise" result="coloredNoise1">
<feFuncA type="discrete" tableValues="1 1 1 1 1 1 1 1 1 1 1 1 1 1 1 1 1 1 1 1 1 1 1 1 1 1 1 1 1 1 1 1 1 1 1 1 1 1 1 1 1 1 1 1 1 1 1 1 1 1 1 0 0 0 0 0 0 0 0 0 0 0 0 0 0 0 0 0 0 0 0 0 0 0 0 0 0 0 0 0 0 0 0 0 0 0 0 0 0 0 0 0 0 0 0 0 0 0 0 0 "/>
</feComponentTransfer>
<feComposite operator="in" in2="shape" in="coloredNoise1" result="noise1Clipped" />
<feFlood flood-color="rgba(240, 105, 105, 0.25)" result="color1Flood" />
<feComposite operator="in" in2="noise1Clipped" in="color1Flood" result="color1" />
<feMerge result="effect1_noise_801_1831">
<feMergeNode in="shape" />
<feMergeNode in="color1" />
</feMerge>
</filter>
<linearGradient id="paint0_linear_801_1831" x1="104" y1="0" x2="104" y2="111" gradientUnits="userSpaceOnUse">
<stop stop-color="#E8CBCA"/>
<stop offset="1" stop-color="#D8ADAE"/>
</linearGradient>
</defs>
</svg>
