<svg width="107" height="57" viewBox="0 0 107 57" fill="none" xmlns="http://www.w3.org/2000/svg">
<g filter="url(#filter0_n_801_1842)">
<path d="M42.6352 4.04836C37.4261 1.93105 38.439 6.10685 39.5966 8.45942C37.1657 7.75365 38.2942 9.92978 39.1624 11.1061C37.7733 9.34163 35.6897 10.665 34.8215 11.5472C36.5579 8.3712 32.3617 8.16535 30.0465 8.45942C25.8793 10.2238 27.442 13.6057 28.7443 15.076C26.3133 13.6645 25.4162 15.6642 25.2716 16.8404C24.577 14.0174 21.5095 14.1938 20.0625 14.6349C15.2007 11.1061 12.5383 16.1053 11.8148 19.046C5.56394 17.2815 5.73758 20.9574 6.60576 23.0159C-4.15964 26.1919 1.54141 31.691 5.73762 34.0436C-2.59689 35.4551 -0.050197 40.5132 2.26496 42.8657C-3.63865 51.6879 3.56722 51.5408 7.90811 50.3645C12.0754 59.8924 14.2747 54.9226 14.8535 51.2467C18.3262 54.7756 21.7989 52.7171 23.1012 51.2467C28.6575 54.7756 31.2042 50.3645 31.783 47.7179C38.0339 50.1881 39.0178 46.6886 38.7284 44.6301C42.5484 44.983 42.9246 42.1305 42.6352 40.6602C44.3715 44.189 47.4102 42.7187 48.7124 41.5424C48.7124 45.4241 52.1851 45.5124 53.9215 45.0713C52.5324 47.5415 53.3427 48.7471 53.9215 49.0412C55.3106 51.8643 58.8412 51.0997 60.4328 50.3645C60.0856 52.4818 62.0245 53.3052 63.0374 53.4523C67.5519 55.9225 68.9699 52.423 69.1146 50.3645C70.5037 51.4232 71.4297 50.8056 71.7191 50.3645C74.15 54.952 78.5199 53.4523 80.4009 52.129C80.0536 55.6578 82.282 55.3637 83.4395 54.7756C87.2595 59.3631 90.819 55.8048 92.1213 53.4523C98.7194 55.2167 94.8705 51.2467 92.1213 49.0412C93.5104 50.0999 94.4364 48.012 94.7258 46.8357C97.1567 52.4818 100.658 49.7764 102.105 47.7179C108.356 45.2477 107.314 39.925 106.012 37.5724C108.096 29.4561 101.092 28.8974 97.3304 29.6325C101.498 23.6335 96.4622 22.7219 93.4236 23.0159C93.4236 15.9582 88.5039 15.9582 86.0441 16.8404C83.0054 14.6349 78.2305 19.9282 77.7964 19.046C77.4491 18.3402 75.9153 18.7519 75.1918 19.046C76.5809 16.2229 74.6131 14.929 73.4555 14.6349C73.8028 5.4599 65.7866 5.81276 61.7351 7.13607C59.3042 -2.39183 52.0404 -0.362716 48.7124 1.84283C44.5452 -1.68602 42.9246 1.84283 42.6352 4.04836Z" fill="url(#paint0_linear_801_1842)"/>
</g>
<defs>
<filter id="filter0_n_801_1842" x="0" y="0" width="107" height="57" filterUnits="userSpaceOnUse" color-interpolation-filters="sRGB">
<feFlood flood-opacity="0" result="BackgroundImageFix"/>
<feBlend mode="normal" in="SourceGraphic" in2="BackgroundImageFix" result="shape"/>
<feTurbulence type="fractalNoise" baseFrequency="2 2" stitchTiles="stitch" numOctaves="3" result="noise" seed="4240" />
<feColorMatrix in="noise" type="luminanceToAlpha" result="alphaNoise" />
<feComponentTransfer in="alphaNoise" result="coloredNoise1">
<feFuncA type="discrete" tableValues="1 1 1 1 1 1 1 1 1 1 1 1 1 1 1 1 1 1 1 1 1 1 1 1 1 1 1 1 1 1 1 1 1 1 1 1 1 1 1 1 1 1 1 1 1 1 1 1 1 1 1 0 0 0 0 0 0 0 0 0 0 0 0 0 0 0 0 0 0 0 0 0 0 0 0 0 0 0 0 0 0 0 0 0 0 0 0 0 0 0 0 0 0 0 0 0 0 0 0 0 "/>
</feComponentTransfer>
<feComposite operator="in" in2="shape" in="coloredNoise1" result="noise1Clipped" />
<feFlood flood-color="rgba(240, 105, 105, 0.25)" result="color1Flood" />
<feComposite operator="in" in2="noise1Clipped" in="color1Flood" result="color1" />
<feMerge result="effect1_noise_801_1842">
<feMergeNode in="shape" />
<feMergeNode in="color1" />
</feMerge>
</filter>
<linearGradient id="paint0_linear_801_1842" x1="53.5" y1="0" x2="53.5" y2="57" gradientUnits="userSpaceOnUse">
<stop stop-color="#E8CBCA"/>
<stop offset="1" stop-color="#D8ADAE"/>
</linearGradient>
</defs>
</svg>
