<svg width="142" height="76" viewBox="0 0 142 76" fill="none" xmlns="http://www.w3.org/2000/svg">
<g filter="url(#filter0_n_801_1843)">
<path d="M56.5813 5.39781C49.6683 2.57473 51.0125 8.14247 52.5487 11.2792C49.3227 10.3382 50.8204 13.2397 51.9725 14.8081C50.1291 12.4555 47.3639 14.2199 46.2117 15.3962C48.516 11.1616 42.9473 10.8871 39.8748 11.2792C34.3445 13.6318 36.4184 18.1409 38.1466 20.1014C34.9205 18.2193 33.7299 20.8855 33.538 22.4539C32.6162 18.6898 28.5453 18.9251 26.625 19.5132C20.1729 14.8081 16.6396 21.4737 15.6795 25.3946C7.38392 23.0421 7.61436 27.9432 8.76652 30.6879C-5.52027 34.9225 2.04561 42.2547 7.61441 45.3915C-3.44633 47.2735 -0.0666166 54.0175 3.00583 57.1543C-4.82886 68.9171 4.73407 68.7211 10.4949 67.1527C16.0252 79.8566 18.9441 73.2302 19.7122 68.329C24.3208 73.0341 28.9294 70.2895 30.6577 68.329C38.0315 73.0341 41.4112 67.1527 42.1793 63.6239C50.4748 66.9174 51.7806 62.2515 51.3966 59.5069C56.4661 59.9774 56.9653 56.1741 56.5813 54.2136C58.8856 58.9187 62.9182 56.9582 64.6464 55.3899C64.6464 60.5655 69.2551 60.6831 71.5594 60.095C69.7159 63.3886 70.7913 64.9962 71.5594 65.3883C73.4028 69.1524 78.0883 68.1329 80.2006 67.1527C79.7397 69.9758 82.3129 71.0737 83.6571 71.2697C89.6483 74.5633 91.5302 69.8974 91.7222 67.1527C93.5656 68.5642 94.7946 67.7408 95.1787 67.1527C98.4047 73.2694 104.204 71.2697 106.7 69.5053C106.239 74.2104 109.197 73.8183 110.733 73.0341C115.802 79.1508 120.526 74.4065 122.254 71.2697C131.011 73.6223 125.903 68.329 122.254 65.3883C124.098 66.7998 125.327 64.0159 125.711 62.4476C128.937 69.9758 133.584 66.3685 135.504 63.6239C143.8 60.3303 142.417 53.2333 140.689 50.0966C143.454 39.2748 134.16 38.5298 129.167 39.51C134.698 31.5113 128.015 30.2958 123.983 30.6879C123.983 21.2776 117.454 21.2776 114.189 22.4539C110.157 19.5132 103.82 26.5709 103.244 25.3946C102.783 24.4536 100.747 25.0025 99.7873 25.3946C101.631 21.6305 99.0192 19.9053 97.483 19.5132C97.9438 7.27986 87.3056 7.75035 81.9288 9.51476C78.7028 -3.18911 69.063 -0.483621 64.6464 2.45711C59.116 -2.24803 56.9653 2.4571 56.5813 5.39781Z" fill="url(#paint0_linear_801_1843)"/>
</g>
<defs>
<filter id="filter0_n_801_1843" x="0" y="0" width="142" height="76" filterUnits="userSpaceOnUse" color-interpolation-filters="sRGB">
<feFlood flood-opacity="0" result="BackgroundImageFix"/>
<feBlend mode="normal" in="SourceGraphic" in2="BackgroundImageFix" result="shape"/>
<feTurbulence type="fractalNoise" baseFrequency="2 2" stitchTiles="stitch" numOctaves="3" result="noise" seed="4240" />
<feColorMatrix in="noise" type="luminanceToAlpha" result="alphaNoise" />
<feComponentTransfer in="alphaNoise" result="coloredNoise1">
<feFuncA type="discrete" tableValues="1 1 1 1 1 1 1 1 1 1 1 1 1 1 1 1 1 1 1 1 1 1 1 1 1 1 1 1 1 1 1 1 1 1 1 1 1 1 1 1 1 1 1 1 1 1 1 1 1 1 1 0 0 0 0 0 0 0 0 0 0 0 0 0 0 0 0 0 0 0 0 0 0 0 0 0 0 0 0 0 0 0 0 0 0 0 0 0 0 0 0 0 0 0 0 0 0 0 0 0 "/>
</feComponentTransfer>
<feComposite operator="in" in2="shape" in="coloredNoise1" result="noise1Clipped" />
<feFlood flood-color="rgba(240, 105, 105, 0.25)" result="color1Flood" />
<feComposite operator="in" in2="noise1Clipped" in="color1Flood" result="color1" />
<feMerge result="effect1_noise_801_1843">
<feMergeNode in="shape" />
<feMergeNode in="color1" />
</feMerge>
</filter>
<linearGradient id="paint0_linear_801_1843" x1="71" y1="0" x2="71" y2="76" gradientUnits="userSpaceOnUse">
<stop stop-color="#E8CBCA"/>
<stop offset="1" stop-color="#D8ADAE"/>
</linearGradient>
</defs>
</svg>
