<svg width="246" height="130" viewBox="0 0 246 130" fill="none" xmlns="http://www.w3.org/2000/svg">
<path d="M65.8616 27.4743C54.6024 30.0115 54.773 38.2576 56.2657 42.0635C43.983 39.5263 41.3388 52.424 41.552 59.19C36.4342 53.608 26.6251 61.5158 22.3603 66.1675C-3.22877 68.7047 2.31552 76.528 8.28629 80.1224C3.16852 80.1224 2.74198 87.3113 3.16843 90.9058C-6.04361 104.607 7.00679 113.107 14.6835 115.644C14.6835 129.853 30.4634 130.868 38.3533 129.599C62.6629 128.965 51.1479 111.204 51.1479 109.301C55.2421 114.883 62.663 112.895 65.8616 111.204C78.6562 112.726 85.2666 100.843 86.9725 94.7117C87.4843 106.383 101.26 103.381 108.083 100.421C111.154 111.077 117.466 108.244 120.238 105.495C131.497 118.689 141.136 110.992 144.548 105.495C153.504 104.226 154.144 97.2489 154.144 94.7117C163.356 100.801 170.35 92.1744 172.696 87.0999C180.372 100.294 186.983 97.6718 189.329 94.7117C197.517 106.383 203.403 103.381 205.322 100.421C236.54 110.57 244.345 91.1172 244.345 80.1224C251.51 54.7498 233.683 46.2923 223.874 45.2351C230.015 38.1307 224.3 33.8174 220.675 32.5488C220.675 16.3103 209.16 16.9023 203.403 19.2282C201.867 10.6015 194.66 13.5193 191.248 16.0566C182.547 -6.77878 162.887 -0.224165 154.144 5.90756C135.72 -9.31601 122.584 8.44482 118.319 19.2282C112.178 15.1686 107.657 19.2282 106.164 21.7654C88.2519 6.54185 68.4204 27.4743 65.8616 27.4743Z" fill="url(#paint0_linear_801_1839)"/>
<path d="M24.2794 59.19C27.8619 56.6528 24.4927 52.2125 22.3603 50.3096C12.1246 47.7723 13.4041 59.19 14.6835 62.9959C15.9629 66.8018 19.8014 62.3616 24.2794 59.19Z" fill="url(#paint1_linear_801_1839)"/>
<path d="M9.56574 61.7273C9.05396 58.1751 5.08763 60.2472 3.16843 61.7273C1.88896 64.2645 1.88903 64.2645 4.44777 66.1674L4.44794 66.1675C7.00684 68.0704 10.2055 66.1675 9.56574 61.7273Z" fill="url(#paint2_linear_801_1839)"/>
<path d="M65.8616 21.7654C69.4441 20.2431 66.0748 16.9023 63.9424 15.4223C58.1849 11.6163 54.3465 20.4968 55.626 22.3997C56.9054 24.3027 61.3835 23.6684 65.8616 21.7654Z" fill="url(#paint3_linear_801_1839)"/>
<path d="M74.8178 13.5193C72.2589 10.982 75.884 9.50198 78.0164 9.0791C83.7739 7.81047 82.4945 13.5193 81.215 15.4223C79.9356 17.3252 78.0164 16.6909 74.8178 13.5193Z" fill="url(#paint4_linear_801_1839)"/>
<defs>
<linearGradient id="paint0_linear_801_1839" x1="123" y1="0" x2="53.9517" y2="87.4035" gradientUnits="userSpaceOnUse">
<stop stop-color="#E1C2BD"/>
<stop offset="0.5" stop-color="#DEA2A0"/>
<stop offset="1" stop-color="#D07F7F"/>
</linearGradient>
<linearGradient id="paint1_linear_801_1839" x1="123" y1="0" x2="53.9517" y2="87.4035" gradientUnits="userSpaceOnUse">
<stop stop-color="#E1C2BD"/>
<stop offset="0.5" stop-color="#DEA2A0"/>
<stop offset="1" stop-color="#D07F7F"/>
</linearGradient>
<linearGradient id="paint2_linear_801_1839" x1="123" y1="0" x2="53.9517" y2="87.4035" gradientUnits="userSpaceOnUse">
<stop stop-color="#E1C2BD"/>
<stop offset="0.5" stop-color="#DEA2A0"/>
<stop offset="1" stop-color="#D07F7F"/>
</linearGradient>
<linearGradient id="paint3_linear_801_1839" x1="123" y1="0" x2="53.9517" y2="87.4035" gradientUnits="userSpaceOnUse">
<stop stop-color="#E1C2BD"/>
<stop offset="0.5" stop-color="#DEA2A0"/>
<stop offset="1" stop-color="#D07F7F"/>
</linearGradient>
<linearGradient id="paint4_linear_801_1839" x1="123" y1="0" x2="53.9517" y2="87.4035" gradientUnits="userSpaceOnUse">
<stop stop-color="#E1C2BD"/>
<stop offset="0.5" stop-color="#DEA2A0"/>
<stop offset="1" stop-color="#D07F7F"/>
</linearGradient>
</defs>
</svg>
