<svg width="531" height="469" viewBox="0 0 531 469" fill="none" xmlns="http://www.w3.org/2000/svg">
<g filter="url(#filter0_n_806_1856)">
<path d="M207.063 231.042C250.185 263.641 267.977 289.754 271.483 298.737L282 313.853L263.594 350L258.336 342.113C258.336 285.329 217.142 253.169 196.545 244.187C188.131 242.084 156.228 234.986 141.329 231.7C134.492 228.019 121.828 228.414 116.35 229.071C112.669 233.277 98.1632 236.519 91.3706 237.615C89.793 241.821 79.7576 247.692 74.9371 250.102C72.8336 249.576 64.4196 251.636 60.4755 252.731L59.8182 251.416C61.3958 249.839 70.1166 248.568 74.2797 248.13C79.5385 246.553 86.1119 240.025 88.7413 236.958C85.0601 235.38 73.6224 235.862 68.3636 236.3L67.049 234.986C71.2559 233.934 85.4545 234.11 92.028 234.329C99.9161 234.329 108.462 228.633 111.748 225.785C106.49 222.63 78.8811 221.841 65.7343 221.841C54.165 220.264 44.6993 219.87 41.4126 219.87C16.1706 226.705 3.28671 224.908 0 223.156C15.7762 225.259 31.5524 219.651 37.4685 216.584C14.8559 213.429 7.44988 209.135 6.57343 207.382C27.0825 214.743 55.4359 217.898 67.049 218.555C46.5399 210.669 39.6597 202.563 38.7832 199.496C46.1455 207.908 65.5152 215.269 74.2797 217.898C90.0559 216.846 101.888 217.898 105.832 218.555C113.194 221.71 125.114 222.937 130.154 223.156C127.524 222.104 111.529 211.326 103.86 206.068C88.0839 203.439 79.7576 197.086 77.5664 194.238C83.3511 199.496 96.1911 202.563 101.888 203.439C95.0518 199.759 92.028 193.143 91.3706 190.295C98.207 201.336 122.266 215.05 133.441 220.527C144.484 227.888 177.921 231.919 193.259 233.014C180.112 213.56 161.925 196.429 154.476 190.295C142.111 186.614 118.647 165.977 108.462 156.119C104.347 154.291 83.3856 147.695 73.6502 144.731C72.063 144.345 70.7066 143.974 69.6783 143.632C67.2756 142.831 69.386 143.433 73.6502 144.731C81.8039 146.714 96.0498 149.104 103.203 150.204L83.4825 132.459L106.49 150.204C104.386 148.101 97.2867 131.802 94 123.915C112.931 162.297 140.014 178.026 151.189 181.093C131.206 155.856 127.963 129.392 128.839 119.314C128.839 141.397 150.751 175.398 161.706 189.637C153.818 159.142 154.914 129.173 156.448 118C155.396 130.093 159.515 158.529 161.706 171.235C165.387 201.205 193.478 223.594 207.063 231.042Z" fill="url(#paint0_linear_806_1856)"/>
</g>
<g filter="url(#filter1_n_806_1856)">
<path d="M290.788 333.924C286.319 324.962 270.227 279.234 265.758 257.49L271.795 342.489C248.555 397.311 237.826 450.55 276.822 469H300.843L298.05 467.682C269.001 455.031 273.284 423.755 279.057 409.698C297.38 374.908 294.512 344.686 290.788 333.924Z" fill="#B3948D"/>
<path d="M379.01 68.3137C392.147 58.3294 402 35.6895 405.284 25.6177H406.598C407.124 27.1941 402 42.0392 399.373 49.2647C403.577 48.6681 412.948 39.3822 417.108 34.8137L419.079 36.1275C418.553 38.7549 400.905 52.549 392.147 59.1177C402.146 60.1686 413.83 54.7386 418.422 51.8922L419.735 53.2059C419.21 56.3588 402 60.6503 393.461 62.402C388.206 63.453 377.696 73.3497 373.098 78.1667C361.012 88.151 346.605 112.105 340.912 122.833C346.167 119.68 368.5 119.33 379.01 119.549C393.198 121.126 404.19 112.324 407.912 107.726L409.883 109.039C406.598 111.921 399.898 117.664 399.373 117.578C411.459 119.68 422.801 114.513 426.961 111.667V113.637C423.283 120.469 383.827 125.242 364.559 126.775C325.147 133.08 298.216 170.565 289.677 188.52C265.504 225.829 267.781 263.183 271.941 277.196C288.232 327.643 275.664 371.346 267.343 386.892C239.098 435.5 274.35 460.023 283.765 468.343H171.441C172.492 464.665 188.082 458.052 195.745 455.206C210.459 454.155 215.013 441.193 215.451 434.843C222.808 408.569 231.654 396.745 235.157 394.118C250.922 382.557 255.739 355.144 256.177 342.882C258.279 332.373 251.36 293.837 247.637 275.882C243.959 266.949 245.667 244.572 246.981 234.5C258.016 212.429 222.677 150.859 203.628 122.833C198.898 121.257 178.01 106.85 168.157 99.8432V97.2157C171.31 102.471 190.928 112.105 200.343 116.265C197.716 113.112 184.798 82.1079 178.667 67C186.549 84.8667 220.049 139.255 235.814 164.216C237.39 152.129 231.216 118.892 227.932 103.784C225.83 93.2745 217.86 74.8824 214.137 67C208.882 59.1177 183.922 48.8268 172.098 44.6667V42.0392C173.149 43.6157 189.177 49.2647 197.059 51.8922C188.651 45.5863 181.294 14.6699 178.667 0L180.637 0.656863C187.469 33.7628 196.621 49.0458 200.343 52.549C204.547 58.3294 211.291 59.7745 214.137 59.7745C214.137 57.1471 203.628 36.3464 198.373 26.2745C207.306 35.7333 223.99 74.4445 231.216 92.6177C230.69 80.0059 236.69 63.7157 239.755 57.1471C245.01 49.7902 247.199 30.8726 247.637 22.3333C248.688 27.0627 247.199 44.4477 246.324 52.549C251.579 41.5137 261.213 33.0621 265.373 30.2157V32.1863C252.761 39.0177 243.039 63.9347 239.755 75.5392C237.653 119.68 243.696 155.676 246.981 168.157C248.032 177.09 257.49 202.533 262.088 214.137C288.888 182.608 290.333 130.935 287.706 109.039C290.859 132.161 290.333 158.085 289.677 168.157C310.171 159.224 339.379 113.637 351.422 91.9608C356.151 88.8079 357.771 70.0654 357.99 61.0882C355.888 45.3235 358.866 39.6307 360.618 38.7549C357.99 42.0392 359.961 54.5196 359.961 55.8333C362.063 64.7667 359.961 79.6994 358.647 86.049L360.618 84.0784C378.484 70.9412 385.141 44.0098 386.235 32.1863L386.892 32.8431C387.943 36.5216 382.075 58.0229 379.01 68.3137Z" fill="url(#paint1_linear_806_1856)"/>
</g>
<g filter="url(#filter2_n_806_1856)">
<path d="M286.392 352.078C281.137 328.957 312.667 294.274 329.088 279.823C302.814 283.502 284.422 322.957 278.51 342.225L286.392 352.078Z" fill="#B4958E"/>
<path d="M266.686 336C271.941 325.928 285.867 303.288 299.529 293.304C311.353 283.232 331.453 254.812 317.265 221.706L313.324 210.539L299.529 197.402L300.843 196.088L312.667 206.598L311.353 192.804L316.608 209.225L327.118 231.559C332.154 218.203 343.671 188.6 349.451 177.039L351.422 179.01C345.729 191.052 334.606 216.32 335.657 221.049C343.32 216.889 359.304 206.992 361.931 200.686C362.588 203.752 358.647 212.641 337.627 223.676C334.124 228.056 327.775 239.31 330.402 249.294C329.745 255.206 327.512 268.08 323.833 272.284C339.817 266.373 379.01 242.857 407.912 196.088L408.569 196.745C401.124 209.444 384.527 236.157 377.696 241.412C386.892 238.127 406.335 230.376 410.539 225.647C417.546 216.67 432.347 197.008 435.5 190.176L437.471 190.833C430.902 201.124 417.633 222.231 417.108 224.333L442.726 213.824C448.637 206.817 461.118 192.41 463.745 190.833L465.716 191.49C459.804 197.621 447.98 210.276 447.98 211.853C460.023 210.101 485.027 205.678 488.706 202C493.304 196.745 503.551 183.871 507.755 174.412H509.069C506.764 179.648 501.775 190.256 499.507 192.545L516.951 177.039L518.265 179.01C510.382 185.578 494.486 199.11 493.961 200.686C502.719 200.029 521.943 197.008 528.775 190.176L530.088 190.833C527.461 193.68 516.557 200.424 493.961 204.627C465.497 212.948 408.437 230.771 407.912 235.5L405.941 237.471C413.824 237.908 430.114 239.31 432.216 241.412C440.974 238.346 459.016 232.478 461.118 233.529C453.892 235.719 439.441 240.492 439.441 242.069L469 241.412V242.725L457.833 243.382L465.716 251.922L455.206 244.696H430.245C416.232 242.725 386.498 240.624 379.667 247.98C356.458 262.65 323.833 284.952 308.725 297.902C297.997 307.098 291.48 317.725 279 344C278.343 348.16 276.539 356.626 276.539 355.049C276.539 353.473 269.971 341.693 266.686 336Z" fill="url(#paint2_linear_806_1856)"/>
</g>
<defs>
<filter id="filter0_n_806_1856" x="0" y="118" width="282" height="232" filterUnits="userSpaceOnUse" color-interpolation-filters="sRGB">
<feFlood flood-opacity="0" result="BackgroundImageFix"/>
<feBlend mode="normal" in="SourceGraphic" in2="BackgroundImageFix" result="shape"/>
<feTurbulence type="fractalNoise" baseFrequency="10 10" stitchTiles="stitch" numOctaves="3" result="noise" seed="6985" />
<feColorMatrix in="noise" type="luminanceToAlpha" result="alphaNoise" />
<feComponentTransfer in="alphaNoise" result="coloredNoise1">
<feFuncA type="discrete" tableValues="1 1 1 1 1 1 1 1 1 1 1 1 1 1 1 1 1 1 1 1 1 1 1 1 1 1 1 1 1 1 1 1 1 1 1 1 1 1 1 1 1 1 1 1 1 1 1 1 1 1 1 0 0 0 0 0 0 0 0 0 0 0 0 0 0 0 0 0 0 0 0 0 0 0 0 0 0 0 0 0 0 0 0 0 0 0 0 0 0 0 0 0 0 0 0 0 0 0 0 0 "/>
</feComponentTransfer>
<feComposite operator="in" in2="shape" in="coloredNoise1" result="noise1Clipped" />
<feFlood flood-color="rgba(113, 25, 25, 0.24)" result="color1Flood" />
<feComposite operator="in" in2="noise1Clipped" in="color1Flood" result="color1" />
<feMerge result="effect1_noise_806_1856">
<feMergeNode in="shape" />
<feMergeNode in="color1" />
</feMerge>
</filter>
<filter id="filter1_n_806_1856" x="168.157" y="0" width="258.804" height="469" filterUnits="userSpaceOnUse" color-interpolation-filters="sRGB">
<feFlood flood-opacity="0" result="BackgroundImageFix"/>
<feBlend mode="normal" in="SourceGraphic" in2="BackgroundImageFix" result="shape"/>
<feTurbulence type="fractalNoise" baseFrequency="10 10" stitchTiles="stitch" numOctaves="3" result="noise" seed="6985" />
<feColorMatrix in="noise" type="luminanceToAlpha" result="alphaNoise" />
<feComponentTransfer in="alphaNoise" result="coloredNoise1">
<feFuncA type="discrete" tableValues="1 1 1 1 1 1 1 1 1 1 1 1 1 1 1 1 1 1 1 1 1 1 1 1 1 1 1 1 1 1 1 1 1 1 1 1 1 1 1 1 1 1 1 1 1 1 1 1 1 1 1 0 0 0 0 0 0 0 0 0 0 0 0 0 0 0 0 0 0 0 0 0 0 0 0 0 0 0 0 0 0 0 0 0 0 0 0 0 0 0 0 0 0 0 0 0 0 0 0 0 "/>
</feComponentTransfer>
<feComposite operator="in" in2="shape" in="coloredNoise1" result="noise1Clipped" />
<feFlood flood-color="rgba(113, 25, 25, 0.13)" result="color1Flood" />
<feComposite operator="in" in2="noise1Clipped" in="color1Flood" result="color1" />
<feMerge result="effect1_noise_806_1856">
<feMergeNode in="shape" />
<feMergeNode in="color1" />
</feMerge>
</filter>
<filter id="filter2_n_806_1856" x="266.686" y="174.412" width="263.402" height="180.83" filterUnits="userSpaceOnUse" color-interpolation-filters="sRGB">
<feFlood flood-opacity="0" result="BackgroundImageFix"/>
<feBlend mode="normal" in="SourceGraphic" in2="BackgroundImageFix" result="shape"/>
<feTurbulence type="fractalNoise" baseFrequency="10 10" stitchTiles="stitch" numOctaves="3" result="noise" seed="6985" />
<feColorMatrix in="noise" type="luminanceToAlpha" result="alphaNoise" />
<feComponentTransfer in="alphaNoise" result="coloredNoise1">
<feFuncA type="discrete" tableValues="1 1 1 1 1 1 1 1 1 1 1 1 1 1 1 1 1 1 1 1 1 1 1 1 1 1 1 1 1 1 1 1 1 1 1 1 1 1 1 1 1 1 1 1 1 1 1 1 1 1 1 0 0 0 0 0 0 0 0 0 0 0 0 0 0 0 0 0 0 0 0 0 0 0 0 0 0 0 0 0 0 0 0 0 0 0 0 0 0 0 0 0 0 0 0 0 0 0 0 0 "/>
</feComponentTransfer>
<feComposite operator="in" in2="shape" in="coloredNoise1" result="noise1Clipped" />
<feFlood flood-color="rgba(140, 67, 67, 0.24)" result="color1Flood" />
<feComposite operator="in" in2="noise1Clipped" in="color1Flood" result="color1" />
<feMerge result="effect1_noise_806_1856">
<feMergeNode in="shape" />
<feMergeNode in="color1" />
</feMerge>
</filter>
<linearGradient id="paint0_linear_806_1856" x1="141" y1="118" x2="270.79" y2="343.448" gradientUnits="userSpaceOnUse">
<stop stop-color="#85494A"/>
<stop offset="0.5" stop-color="#8C726D"/>
<stop offset="1" stop-color="#42312E"/>
</linearGradient>
<linearGradient id="paint1_linear_806_1856" x1="355.997" y1="27.5304" x2="283.131" y2="466.43" gradientUnits="userSpaceOnUse">
<stop stop-color="#8B4743"/>
<stop offset="0.505658" stop-color="#684D45"/>
<stop offset="0.865385" stop-color="#927269"/>
<stop offset="0.9999" stop-color="#6E4F4A"/>
</linearGradient>
<linearGradient id="paint2_linear_806_1856" x1="513.667" y1="169.814" x2="353.392" y2="342.569" gradientUnits="userSpaceOnUse">
<stop stop-color="#744644"/>
<stop offset="1" stop-color="#81635B"/>
</linearGradient>
</defs>
</svg>
