<svg width="282" height="232" viewBox="0 0 282 232" fill="none" xmlns="http://www.w3.org/2000/svg">
<g filter="url(#filter0_n_801_1822)">
<path d="M207.063 113.042C250.185 145.641 267.977 171.754 271.483 180.737L282 195.853L263.594 232L258.336 224.113C258.336 167.329 217.142 135.169 196.545 126.187C188.131 124.084 156.228 116.986 141.329 113.7C134.492 110.019 121.828 110.414 116.35 111.071C112.669 115.277 98.1632 118.519 91.3706 119.615C89.793 123.821 79.7576 129.692 74.9371 132.102C72.8336 131.576 64.4196 133.636 60.4755 134.731L59.8182 133.416C61.3958 131.839 70.1166 130.568 74.2797 130.13C79.5385 128.553 86.1119 122.025 88.7413 118.958C85.0601 117.38 73.6224 117.862 68.3636 118.3L67.049 116.986C71.2559 115.934 85.4545 116.11 92.028 116.329C99.9161 116.329 108.462 110.633 111.748 107.785C106.49 104.63 78.8811 103.841 65.7343 103.841C54.165 102.264 44.6993 101.87 41.4126 101.87C16.1706 108.705 3.28671 106.908 0 105.156C15.7762 107.259 31.5524 101.651 37.4685 98.5836C14.8559 95.4289 7.44988 91.135 6.57343 89.3824C27.0825 96.7433 55.4359 99.898 67.049 100.555C46.5399 92.6686 39.6597 84.5628 38.7832 81.4958C46.1455 89.9082 65.5152 97.2691 74.2797 99.898C90.0559 98.8465 101.888 99.898 105.832 100.555C113.194 103.71 125.114 104.937 130.154 105.156C127.524 104.104 111.529 93.3258 103.86 88.068C88.0839 85.4391 79.7576 79.0859 77.5664 76.238C83.3511 81.4958 96.1911 84.5628 101.888 85.4391C95.0518 81.7586 92.028 75.1426 91.3706 72.2946C98.207 83.336 122.266 97.05 133.441 102.527C144.484 109.888 177.921 113.919 193.259 115.014C180.112 95.5603 161.925 78.4287 154.476 72.2946C142.111 68.6142 118.647 47.9773 108.462 38.119C104.347 36.2908 83.3856 29.6953 73.6502 26.7311C72.063 26.345 70.7066 25.9744 69.6783 25.6317C67.2756 24.831 69.386 25.4327 73.6502 26.7311C81.8039 28.7141 96.0498 31.1037 103.203 32.204L83.4825 14.4589L106.49 32.204C104.386 30.1009 97.2867 13.8017 94 5.91501C112.931 44.2969 140.014 60.0264 151.189 63.0935C131.206 37.8561 127.963 11.3919 128.839 1.31445C128.839 23.3972 150.751 57.3975 161.706 71.6374C153.818 41.1422 154.914 11.1728 156.448 0C155.396 12.0929 159.515 40.5288 161.706 53.2351C165.387 83.2045 193.478 105.594 207.063 113.042Z" fill="url(#paint0_linear_801_1822)"/>
</g>
<defs>
<filter id="filter0_n_801_1822" x="0" y="0" width="282" height="232" filterUnits="userSpaceOnUse" color-interpolation-filters="sRGB">
<feFlood flood-opacity="0" result="BackgroundImageFix"/>
<feBlend mode="normal" in="SourceGraphic" in2="BackgroundImageFix" result="shape"/>
<feTurbulence type="fractalNoise" baseFrequency="10 10" stitchTiles="stitch" numOctaves="3" result="noise" seed="6985" />
<feColorMatrix in="noise" type="luminanceToAlpha" result="alphaNoise" />
<feComponentTransfer in="alphaNoise" result="coloredNoise1">
<feFuncA type="discrete" tableValues="1 1 1 1 1 1 1 1 1 1 1 1 1 1 1 1 1 1 1 1 1 1 1 1 1 1 1 1 1 1 1 1 1 1 1 1 1 1 1 1 1 1 1 1 1 1 1 1 1 1 1 0 0 0 0 0 0 0 0 0 0 0 0 0 0 0 0 0 0 0 0 0 0 0 0 0 0 0 0 0 0 0 0 0 0 0 0 0 0 0 0 0 0 0 0 0 0 0 0 0 "/>
</feComponentTransfer>
<feComposite operator="in" in2="shape" in="coloredNoise1" result="noise1Clipped" />
<feFlood flood-color="rgba(113, 25, 25, 0.24)" result="color1Flood" />
<feComposite operator="in" in2="noise1Clipped" in="color1Flood" result="color1" />
<feMerge result="effect1_noise_801_1822">
<feMergeNode in="shape" />
<feMergeNode in="color1" />
</feMerge>
</filter>
<linearGradient id="paint0_linear_801_1822" x1="141" y1="-4.70125e-06" x2="270.79" y2="225.448" gradientUnits="userSpaceOnUse">
<stop stop-color="#85494A"/>
<stop offset="0.5" stop-color="#8C726D"/>
<stop offset="1" stop-color="#42312E"/>
</linearGradient>
</defs>
</svg>
