<svg width="264" height="181" viewBox="0 0 264 181" fill="none" xmlns="http://www.w3.org/2000/svg">
<g filter="url(#filter0_n_801_1818)">
<path d="M19.7059 177.667C14.451 154.545 45.9804 119.863 62.402 105.412C36.1274 109.09 17.7353 148.546 11.8235 167.814L19.7059 177.667Z" fill="#B4958E"/>
<path d="M0 161.588C5.2549 151.516 19.1804 128.876 32.8431 118.892C44.6667 108.82 64.7667 80.4 50.5784 47.2941L46.6373 36.1275L32.8431 22.9902L34.1569 21.6765L45.9804 32.1863L44.6667 18.3922L49.9216 34.8137L60.4314 57.1471C65.4673 43.7909 76.9843 14.1882 82.7647 2.62745L84.7353 4.59804C79.0425 16.6405 67.9196 41.9079 68.9706 46.6373C76.634 42.4771 92.6177 32.5804 95.2451 26.2745C95.902 29.3399 91.9608 38.2294 70.9412 49.2647C67.4379 53.6438 61.0882 64.898 63.7157 74.8824C63.0588 80.7941 60.8255 93.6686 57.1471 97.8726C73.1307 91.9608 112.324 68.4451 141.225 21.6765L141.882 22.3333C134.438 35.0327 117.841 61.7451 111.01 67C120.206 63.7157 139.649 55.9647 143.853 51.2353C150.859 42.2582 165.661 22.5961 168.814 15.7647L170.784 16.4216C164.216 26.7124 150.947 47.8196 150.422 49.9216L176.039 39.4118C181.951 32.4052 194.431 17.998 197.059 16.4216L199.029 17.0784C193.118 23.2092 181.294 35.8647 181.294 37.4412C193.337 35.6895 218.341 31.2667 222.02 27.5882C226.618 22.3333 236.865 9.45883 241.069 0H242.382C240.078 5.2367 235.089 15.8439 232.82 18.1335L250.265 2.62745L251.578 4.59804C243.696 11.1667 227.8 24.698 227.275 26.2745C236.033 25.6177 255.257 22.5961 262.088 15.7647L263.402 16.4216C260.775 19.268 249.871 26.0118 227.275 30.2157C198.81 38.536 141.751 56.3588 141.225 61.0882L139.255 63.0588C147.137 63.4967 163.427 64.898 165.529 67C174.288 63.9346 192.329 58.0667 194.431 59.1177C187.206 61.3072 172.755 66.0804 172.755 67.6569L202.314 67V68.3137L191.147 68.9706L199.029 77.5098L188.52 70.2843H163.559C149.546 68.3137 119.812 66.2118 112.98 73.5686C89.7712 88.2386 57.1471 110.541 42.0392 123.49C31.3105 132.686 24.7941 143.314 12.3137 169.588C11.6569 173.748 9.85294 182.214 9.85294 180.637C9.85294 179.061 3.28431 167.281 0 161.588Z" fill="url(#paint0_linear_801_1818)"/>
</g>
<defs>
<filter id="filter0_n_801_1818" x="0" y="0" width="263.402" height="180.83" filterUnits="userSpaceOnUse" color-interpolation-filters="sRGB">
<feFlood flood-opacity="0" result="BackgroundImageFix"/>
<feBlend mode="normal" in="SourceGraphic" in2="BackgroundImageFix" result="shape"/>
<feTurbulence type="fractalNoise" baseFrequency="10 10" stitchTiles="stitch" numOctaves="3" result="noise" seed="6985" />
<feColorMatrix in="noise" type="luminanceToAlpha" result="alphaNoise" />
<feComponentTransfer in="alphaNoise" result="coloredNoise1">
<feFuncA type="discrete" tableValues="1 1 1 1 1 1 1 1 1 1 1 1 1 1 1 1 1 1 1 1 1 1 1 1 1 1 1 1 1 1 1 1 1 1 1 1 1 1 1 1 1 1 1 1 1 1 1 1 1 1 1 0 0 0 0 0 0 0 0 0 0 0 0 0 0 0 0 0 0 0 0 0 0 0 0 0 0 0 0 0 0 0 0 0 0 0 0 0 0 0 0 0 0 0 0 0 0 0 0 0 "/>
</feComponentTransfer>
<feComposite operator="in" in2="shape" in="coloredNoise1" result="noise1Clipped" />
<feFlood flood-color="rgba(140, 67, 67, 0.24)" result="color1Flood" />
<feComposite operator="in" in2="noise1Clipped" in="color1Flood" result="color1" />
<feMerge result="effect1_noise_801_1818">
<feMergeNode in="shape" />
<feMergeNode in="color1" />
</feMerge>
</filter>
<linearGradient id="paint0_linear_801_1818" x1="246.98" y1="-4.59802" x2="86.7059" y2="168.157" gradientUnits="userSpaceOnUse">
<stop stop-color="#744644"/>
<stop offset="1" stop-color="#81635B"/>
</linearGradient>
</defs>
</svg>
