<svg width="259" height="469" viewBox="0 0 259 469" fill="none" xmlns="http://www.w3.org/2000/svg">
<path d="M122.631 333.924C118.162 324.962 102.07 279.234 97.6007 257.49L103.638 342.489C80.3985 397.311 69.6693 450.55 108.665 469H132.686L129.893 467.682C100.844 455.031 105.127 423.755 110.9 409.698C129.223 374.908 126.355 344.686 122.631 333.924Z" fill="#B3948D"/>
<path d="M210.853 68.3137C223.99 58.3294 233.843 35.6895 237.127 25.6177H238.441C238.967 27.1941 233.843 42.0392 231.216 49.2647C235.42 48.6681 244.791 39.3822 248.951 34.8137L250.922 36.1275C250.396 38.7549 232.748 52.549 223.99 59.1177C233.989 60.1686 245.673 54.7386 250.265 51.8922L251.578 53.2059C251.053 56.3588 233.843 60.6503 225.304 62.402C220.049 63.453 209.539 73.3497 204.941 78.1667C192.855 88.151 178.448 112.105 172.755 122.833C178.01 119.68 200.343 119.33 210.853 119.549C225.041 121.126 236.033 112.324 239.755 107.726L241.726 109.039C238.441 111.921 231.741 117.664 231.216 117.578C243.302 119.68 254.644 114.513 258.804 111.667V113.637C255.126 120.469 215.67 125.242 196.402 126.775C156.99 133.08 130.059 170.565 121.52 188.52C97.3471 225.829 99.6242 263.183 103.784 277.196C120.075 327.643 107.507 371.346 99.1863 386.892C70.9412 435.5 106.193 460.023 115.608 468.343H3.28432C4.3353 464.665 19.9248 458.052 27.5882 455.206C42.302 454.155 46.8562 441.193 47.2941 434.843C54.651 408.569 63.4967 396.745 67 394.118C82.7647 382.557 87.5817 355.144 88.0196 342.882C90.1216 332.373 83.2026 293.837 79.4804 275.882C75.802 266.949 77.5098 244.572 78.8235 234.5C89.8588 212.429 54.5196 150.859 35.4706 122.833C30.7412 121.257 9.85295 106.85 7.62939e-06 99.8432V97.2157C3.15295 102.471 22.7713 112.105 32.1863 116.265C29.5588 113.112 16.6405 82.1079 10.5098 67C18.3922 84.8667 51.8922 139.255 67.6569 164.216C69.2334 152.129 63.0588 118.892 59.7745 103.784C57.6726 93.2745 49.7026 74.8824 45.9804 67C40.7255 59.1177 15.7647 48.8268 3.94118 44.6667V42.0392C4.99217 43.6157 21.0196 49.2647 28.902 51.8922C20.4941 45.5863 13.1373 14.6699 10.5098 0L12.4804 0.656863C19.3118 33.7628 28.4641 49.0458 32.1863 52.549C36.3902 58.3294 43.134 59.7745 45.9804 59.7745C45.9804 57.1471 35.4706 36.3464 30.2157 26.2745C39.149 35.7333 55.8333 74.4445 63.0588 92.6177C62.5334 80.0059 68.5327 63.7157 71.5981 57.1471C76.853 49.7902 79.0425 30.8726 79.4804 22.3333C80.5314 27.0627 79.0425 44.4477 78.1667 52.549C83.4216 41.5137 93.0556 33.0621 97.2157 30.2157V32.1863C84.6039 39.0177 74.8824 63.9347 71.5981 75.5392C69.4961 119.68 75.5392 155.676 78.8235 168.157C79.8745 177.09 89.3334 202.533 93.9314 214.137C120.731 182.608 122.176 130.935 119.549 109.039C122.702 132.161 122.176 158.085 121.52 168.157C142.014 159.224 171.222 113.637 183.265 91.9608C187.994 88.8079 189.614 70.0654 189.833 61.0882C187.731 45.3235 190.709 39.6307 192.461 38.7549C189.833 42.0392 191.804 54.5196 191.804 55.8333C193.906 64.7667 191.804 79.6994 190.49 86.049L192.461 84.0784C210.327 70.9412 216.984 44.0098 218.078 32.1863L218.735 32.8431C219.786 36.5216 213.918 58.0229 210.853 68.3137Z" fill="url(#paint0_linear_1113_2)"/>
<defs>
<linearGradient id="paint0_linear_1113_2" x1="187.84" y1="27.5304" x2="114.974" y2="466.43" gradientUnits="userSpaceOnUse">
<stop stop-color="#8B4743"/>
<stop offset="0.505658" stop-color="#684D45"/>
<stop offset="0.865385" stop-color="#927269"/>
<stop offset="0.9999" stop-color="#6E4F4A"/>
</linearGradient>
</defs>
</svg>
