<svg width="272" height="492" viewBox="0 0 272 492" fill="none" xmlns="http://www.w3.org/2000/svg">
<g filter="url(#filter0_n_801_1819)">
<path d="M128.466 349.814C123.785 340.426 106.927 292.522 102.245 269.743L108.569 358.787C84.2243 416.218 72.9845 471.991 113.836 491.318H139L136.074 489.938C105.643 476.685 110.13 443.92 116.177 429.194C135.372 392.749 132.368 361.088 128.466 349.814Z" fill="#B3948D"/>
<path d="M220.887 71.5646C234.649 61.1052 244.971 37.3879 248.412 26.8367H249.788C250.338 28.4882 244.971 44.0397 242.219 51.6091C246.623 50.9841 256.44 41.2562 260.798 36.4704L262.862 37.8467C262.312 40.5991 243.824 55.0497 234.649 61.9309C245.124 63.0319 257.364 57.3434 262.174 54.3616L263.55 55.7378C263 59.0408 244.971 63.5365 236.026 65.3715C230.521 66.4725 219.511 76.8402 214.694 81.8864C202.032 92.3458 186.94 117.439 180.976 128.679C186.481 125.376 209.877 125.009 220.887 125.238C235.75 126.89 247.265 117.669 251.164 112.852L253.229 114.228C249.788 117.247 242.769 123.264 242.219 123.174C254.88 125.376 266.762 119.962 271.12 116.981V119.045C267.266 126.201 225.933 131.202 205.748 132.807C164.461 139.413 136.248 178.682 127.302 197.491C101.98 236.576 104.365 275.707 108.723 290.387C125.789 343.235 112.622 389.018 103.906 405.303C74.3171 456.224 111.246 481.914 121.109 490.63H3.44061C4.5416 486.777 20.873 479.85 28.9011 476.868C44.315 475.767 49.086 462.188 49.5447 455.536C57.2517 428.011 66.5184 415.625 70.1883 412.873C86.7032 400.762 91.7495 372.044 92.2082 359.199C94.4102 348.189 87.162 307.819 83.2626 289.011C79.4092 279.652 81.1983 256.21 82.5745 245.659C94.135 222.538 57.114 158.038 37.1585 128.679C32.2041 127.027 10.3218 111.934 0 104.594V101.842C3.30298 107.347 23.8549 117.439 33.7179 121.797C30.9654 118.494 17.4324 86.0151 11.0099 70.1883C19.2674 88.9052 54.3616 145.882 70.8765 172.03C72.528 159.369 66.0596 124.55 62.619 108.723C60.417 97.7132 52.0678 78.4458 48.1685 70.1883C42.6635 61.9309 16.5149 51.1503 4.12873 46.7922V44.0397C5.22972 45.6912 22.0199 51.6091 30.2773 54.3616C21.4694 47.7556 13.7624 15.368 11.0099 0L13.0743 0.688121C20.2308 35.3694 29.8186 51.3797 33.7179 55.0497C38.1219 61.1052 45.1866 62.619 48.1685 62.619C48.1685 59.8665 37.1585 38.076 31.6536 27.5248C41.012 37.4338 58.4903 77.9871 66.0596 97.0251C65.5091 83.8131 71.794 66.7477 75.0052 59.8665C80.5102 52.1596 82.8039 32.3417 83.2626 23.3961C84.3636 28.3506 82.8039 46.5629 81.8864 55.0497C87.3914 43.4893 97.4838 34.6354 101.842 31.6536V33.7179C88.63 40.8744 78.4458 66.9771 75.0052 79.1339C72.8032 125.376 79.1339 163.085 82.5745 176.159C83.6755 185.517 93.5845 212.171 98.4013 224.327C126.477 191.298 127.991 137.165 125.238 114.228C128.541 138.45 127.991 165.608 127.302 176.159C148.772 166.801 179.37 119.045 191.986 96.337C196.94 93.034 198.638 73.3996 198.867 63.9953C196.665 47.4804 199.784 41.5166 201.619 40.5991C198.867 44.0397 200.931 57.114 200.931 58.4903C203.133 67.8487 200.931 83.492 199.555 90.1439L201.619 88.0795C220.336 74.3171 227.309 46.1041 228.456 33.7179L229.144 34.4061C230.245 38.2595 224.098 60.784 220.887 71.5646Z" fill="url(#paint0_linear_801_1819)"/>
</g>
<defs>
<filter id="filter0_n_801_1819" x="0" y="0" width="271.12" height="491.318" filterUnits="userSpaceOnUse" color-interpolation-filters="sRGB">
<feFlood flood-opacity="0" result="BackgroundImageFix"/>
<feBlend mode="normal" in="SourceGraphic" in2="BackgroundImageFix" result="shape"/>
<feTurbulence type="fractalNoise" baseFrequency="10 10" stitchTiles="stitch" numOctaves="3" result="noise" seed="6985" />
<feColorMatrix in="noise" type="luminanceToAlpha" result="alphaNoise" />
<feComponentTransfer in="alphaNoise" result="coloredNoise1">
<feFuncA type="discrete" tableValues="1 1 1 1 1 1 1 1 1 1 1 1 1 1 1 1 1 1 1 1 1 1 1 1 1 1 1 1 1 1 1 1 1 1 1 1 1 1 1 1 1 1 1 1 1 1 1 1 1 1 1 0 0 0 0 0 0 0 0 0 0 0 0 0 0 0 0 0 0 0 0 0 0 0 0 0 0 0 0 0 0 0 0 0 0 0 0 0 0 0 0 0 0 0 0 0 0 0 0 0 "/>
</feComponentTransfer>
<feComposite operator="in" in2="shape" in="coloredNoise1" result="noise1Clipped" />
<feFlood flood-color="rgba(113, 25, 25, 0.13)" result="color1Flood" />
<feComposite operator="in" in2="noise1Clipped" in="color1Flood" result="color1" />
<feMerge result="effect1_noise_801_1819">
<feMergeNode in="shape" />
<feMergeNode in="color1" />
</feMerge>
</filter>
<linearGradient id="paint0_linear_801_1819" x1="196.779" y1="28.8405" x2="120.445" y2="488.627" gradientUnits="userSpaceOnUse">
<stop stop-color="#8B4743"/>
<stop offset="0.505658" stop-color="#684D45"/>
<stop offset="0.865385" stop-color="#927269"/>
<stop offset="0.9999" stop-color="#6E4F4A"/>
</linearGradient>
</defs>
</svg>
