<svg width="276" height="190" viewBox="0 0 276 190" fill="none" xmlns="http://www.w3.org/2000/svg">
<g filter="url(#filter0_n_801_1818)">
<path d="M20.6432 186.121C15.1382 161.899 48.168 125.567 65.3711 110.428C37.8462 114.281 18.5788 155.615 12.3857 175.799L20.6432 186.121Z" fill="#B4958E"/>
<path d="M0 169.278C5.50497 158.727 20.0931 135.009 34.4061 124.55C46.7922 113.999 67.8487 84.226 52.9853 49.5447L48.8566 37.8467L34.4061 24.0842L35.7823 22.708L48.1685 33.7179L46.7922 19.2674L52.2972 36.4704L63.3071 59.8665C68.5827 45.8747 80.6478 14.8634 86.7032 2.75248L88.7676 4.81685C82.8039 17.4324 71.1517 43.9021 72.2527 48.8566C80.2808 44.4985 97.0251 34.1308 99.7775 27.5248C100.466 30.7361 96.3369 40.0486 74.3171 51.6091C70.6471 56.1965 63.9953 67.9864 66.7477 78.4458C66.0596 84.6389 63.72 98.1261 59.8665 102.53C76.6108 96.3369 117.669 71.7022 147.946 22.708L148.634 23.3961C140.835 36.6998 123.449 64.6834 116.292 70.1883C125.926 66.7477 146.295 58.6279 150.699 53.6734C158.038 44.2691 173.544 23.6714 176.847 16.5149L178.911 17.203C172.03 27.9836 158.13 50.0952 157.58 52.2972L184.416 41.2873C190.61 33.9473 203.684 18.8545 206.436 17.203L208.501 17.8911C202.308 24.3136 189.921 37.5714 189.921 39.2229C202.537 37.3879 228.731 32.7546 232.585 28.9011C237.402 23.3961 248.136 9.90894 252.54 0H253.917C251.503 5.48591 246.276 16.5979 243.9 18.9965L262.174 2.75248L263.55 4.81685C255.293 11.6981 238.64 25.8733 238.09 27.5248C247.265 26.8367 267.404 23.6714 274.56 16.5149L275.937 17.203C273.184 20.1849 261.761 27.2496 238.09 31.6536C208.271 40.3698 148.497 59.0408 147.946 63.9953L145.882 66.0596C154.139 66.5184 171.205 67.9864 173.406 70.1883C182.581 66.9771 201.482 60.8299 203.684 61.9309C196.114 64.2246 180.976 69.225 180.976 70.8765L211.941 70.1883V71.5646L200.243 72.2527L208.501 81.1983L197.491 73.6289H171.342C156.662 71.5646 125.513 69.3626 118.357 77.0696C94.0432 92.4376 59.8665 115.801 44.0397 129.367C32.8004 139 25.974 150.134 12.8997 177.658C12.2116 182.017 10.3218 190.885 10.3218 189.233C10.3218 187.582 3.44061 175.241 0 169.278Z" fill="url(#paint0_linear_801_1818)"/>
</g>
<defs>
<filter id="filter0_n_801_1818" x="0" y="0" width="275.937" height="189.436" filterUnits="userSpaceOnUse" color-interpolation-filters="sRGB">
<feFlood flood-opacity="0" result="BackgroundImageFix"/>
<feBlend mode="normal" in="SourceGraphic" in2="BackgroundImageFix" result="shape"/>
<feTurbulence type="fractalNoise" baseFrequency="10 10" stitchTiles="stitch" numOctaves="3" result="noise" seed="6985" />
<feColorMatrix in="noise" type="luminanceToAlpha" result="alphaNoise" />
<feComponentTransfer in="alphaNoise" result="coloredNoise1">
<feFuncA type="discrete" tableValues="1 1 1 1 1 1 1 1 1 1 1 1 1 1 1 1 1 1 1 1 1 1 1 1 1 1 1 1 1 1 1 1 1 1 1 1 1 1 1 1 1 1 1 1 1 1 1 1 1 1 1 0 0 0 0 0 0 0 0 0 0 0 0 0 0 0 0 0 0 0 0 0 0 0 0 0 0 0 0 0 0 0 0 0 0 0 0 0 0 0 0 0 0 0 0 0 0 0 0 0 "/>
</feComponentTransfer>
<feComposite operator="in" in2="shape" in="coloredNoise1" result="noise1Clipped" />
<feFlood flood-color="rgba(140, 67, 67, 0.24)" result="color1Flood" />
<feComposite operator="in" in2="noise1Clipped" in="color1Flood" result="color1" />
<feMerge result="effect1_noise_801_1818">
<feMergeNode in="shape" />
<feMergeNode in="color1" />
</feMerge>
</filter>
<linearGradient id="paint0_linear_801_1818" x1="258.734" y1="-4.81683" x2="90.832" y2="176.159" gradientUnits="userSpaceOnUse">
<stop stop-color="#744644"/>
<stop offset="1" stop-color="#81635B"/>
</linearGradient>
</defs>
</svg>
