<svg width="556" height="492" viewBox="0 0 556 492" fill="none" xmlns="http://www.w3.org/2000/svg">
<g filter="url(#filter0_n_806_1856)">
<path d="M216.916 242.037C262.09 276.187 280.729 303.543 284.402 312.953L295.42 328.788L276.138 366.656L270.629 358.394C270.629 298.907 227.475 265.217 205.898 255.807C197.084 253.604 163.663 246.168 148.054 242.726C140.892 238.87 127.625 239.283 121.886 239.972C118.03 244.378 102.834 247.775 95.7187 248.922C94.066 253.329 83.553 259.479 78.5031 262.004C76.2995 261.453 67.4851 263.61 63.3534 264.758L62.6648 263.381C64.3175 261.728 73.4532 260.397 77.8145 259.938C83.3235 258.286 90.2097 251.447 92.9642 248.234C89.1079 246.581 77.1259 247.086 71.6169 247.545L70.2396 246.168C74.6468 245.067 89.5211 245.25 96.4073 245.48C104.671 245.48 113.623 239.513 117.066 236.529C111.557 233.224 82.6348 232.398 68.8624 232.398C56.7426 230.746 46.8264 230.333 43.3833 230.333C16.9401 237.493 3.44312 235.611 0 233.775C16.527 235.978 33.0539 230.103 39.2515 226.89C15.5629 223.585 7.8044 219.087 6.88624 217.251C28.3713 224.962 58.0739 228.267 70.2396 228.956C48.7546 220.694 41.547 212.202 40.6288 208.989C48.3414 217.802 68.6328 225.513 77.8145 228.267C94.3414 227.166 106.737 228.267 110.868 228.956C118.581 232.26 131.068 233.546 136.347 233.775C133.593 232.674 116.836 221.382 108.803 215.874C92.2756 213.12 83.553 206.465 81.2576 203.481C87.3175 208.989 100.769 212.202 106.737 213.12C99.575 209.265 96.4073 202.334 95.7187 199.35C102.88 210.917 128.084 225.284 139.791 231.021C151.359 238.732 186.387 242.955 202.455 244.103C188.683 223.723 169.631 205.776 161.827 199.35C148.873 195.495 124.294 173.876 113.623 163.548C109.313 161.633 87.3537 154.724 77.155 151.618C75.4922 151.214 74.0713 150.826 72.9941 150.467C70.4771 149.628 72.6879 150.258 77.155 151.618C85.6967 153.696 100.621 156.199 108.114 157.352L87.4552 138.762L111.557 157.352C109.353 155.149 101.916 138.074 98.4732 129.812C118.306 170.02 146.677 186.498 158.383 189.711C137.449 163.273 134.052 135.549 134.97 124.992C134.97 148.126 157.924 183.744 169.401 198.662C161.138 166.715 162.286 135.32 163.892 123.615C162.791 136.284 167.106 166.073 169.401 179.384C173.258 210.779 202.685 234.234 216.916 242.037Z" fill="url(#paint0_linear_806_1856)"/>
</g>
<g filter="url(#filter1_n_806_1856)">
<path d="M304.626 349.814C299.944 340.426 283.086 292.522 278.404 269.743L284.728 358.787C260.383 416.218 249.144 471.991 289.995 491.318H315.16L312.233 489.938C281.802 476.685 286.289 443.92 292.336 429.194C311.531 392.749 308.527 361.088 304.626 349.814Z" fill="#B3948D"/>
<path d="M397.046 71.5646C410.808 61.1052 421.13 37.3879 424.571 26.8367H425.947C426.498 28.4882 421.13 44.0397 418.378 51.6091C422.782 50.9841 432.599 41.2562 436.957 36.4704L439.021 37.8467C438.471 40.5991 419.983 55.0497 410.808 61.9309C421.283 63.0319 433.523 57.3434 438.333 54.3616L439.71 55.7378C439.159 59.0408 421.13 63.5365 412.185 65.3715C406.68 66.4725 395.67 76.8402 390.853 81.8864C378.192 92.3458 363.099 117.439 357.135 128.679C362.64 125.376 386.036 125.009 397.046 125.238C411.909 126.89 423.424 117.669 427.323 112.852L429.388 114.228C425.947 117.247 418.928 123.264 418.378 123.174C431.039 125.376 442.921 119.962 447.279 116.981V119.045C443.425 126.201 402.092 131.202 381.907 132.807C340.62 139.413 312.407 178.682 303.462 197.491C278.139 236.576 280.524 275.707 284.882 290.387C301.948 343.235 288.782 389.018 280.065 405.303C250.476 456.224 287.405 481.914 297.268 490.63H179.6C180.701 486.777 197.032 479.85 205.06 476.868C220.474 475.767 225.245 462.188 225.704 455.536C233.411 428.011 242.678 415.625 246.348 412.873C262.862 400.762 267.909 372.044 268.367 359.199C270.569 348.189 263.321 307.819 259.422 289.011C255.568 279.652 257.357 256.21 258.734 245.659C270.294 222.538 233.273 158.038 213.318 128.679C208.363 127.027 186.481 111.934 176.159 104.594V101.842C179.462 107.347 200.014 117.439 209.877 121.797C207.125 118.494 193.592 86.0151 187.169 70.1883C195.427 88.9052 230.521 145.882 247.036 172.03C248.687 159.369 242.219 124.55 238.778 108.723C236.576 97.7132 228.227 78.4458 224.328 70.1883C218.823 61.9309 192.674 51.1503 180.288 46.7922V44.0397C181.389 45.6912 198.179 51.6091 206.437 54.3616C197.629 47.7556 189.922 15.368 187.169 0L189.233 0.688121C196.39 35.3694 205.978 51.3797 209.877 55.0497C214.281 61.1052 221.346 62.619 224.328 62.619C224.328 59.8665 213.318 38.076 207.813 27.5248C217.171 37.4338 234.649 77.9871 242.219 97.0251C241.668 83.8131 247.953 66.7477 251.164 59.8665C256.669 52.1596 258.963 32.3417 259.422 23.3961C260.523 28.3506 258.963 46.5629 258.046 55.0497C263.551 43.4893 273.643 34.6354 278.001 31.6536V33.7179C264.789 40.8744 254.605 66.9771 251.164 79.1339C248.962 125.376 255.293 163.085 258.734 176.159C259.835 185.517 269.744 212.171 274.56 224.327C302.636 191.298 304.15 137.165 301.397 114.228C304.7 138.45 304.15 165.608 303.462 176.159C324.931 166.801 355.529 119.045 368.145 96.337C373.099 93.034 374.797 73.3996 375.026 63.9953C372.824 47.4804 375.944 41.5166 377.779 40.5991C375.026 44.0397 377.091 57.114 377.091 58.4903C379.293 67.8487 377.091 83.492 375.714 90.1439L377.779 88.0795C396.496 74.3171 403.468 46.1041 404.615 33.7179L405.303 34.4061C406.404 38.2595 400.257 60.784 397.046 71.5646Z" fill="url(#paint1_linear_806_1856)"/>
</g>
<g filter="url(#filter2_n_806_1856)">
<path d="M300.021 368.833C294.516 344.611 327.546 308.278 344.749 293.139C317.224 296.993 297.957 338.326 291.764 358.511L300.021 368.833Z" fill="#B4958E"/>
<path d="M279.378 351.989C284.883 341.438 299.471 317.721 313.784 307.261C326.17 296.71 347.227 266.938 332.363 232.256L328.235 220.558L313.784 206.796L315.16 205.419L327.546 216.429L326.17 201.979L331.675 219.182L342.685 242.578C347.961 228.586 360.026 197.575 366.081 185.464L368.146 187.528C362.182 200.144 350.53 226.614 351.631 231.568C359.659 227.21 376.403 216.842 379.155 210.236C379.844 213.448 375.715 222.76 353.695 234.321C350.025 238.908 343.373 250.698 346.126 261.157C345.438 267.35 343.098 280.838 339.244 285.242C355.989 279.048 397.047 254.414 427.324 205.419L428.012 206.108C420.213 219.411 402.827 247.395 395.67 252.9C405.304 249.459 425.672 241.339 430.076 236.385C437.416 226.981 452.922 206.383 456.225 199.226L458.289 199.915C451.408 210.695 437.508 232.807 436.958 235.009L463.794 223.999C469.987 216.659 483.062 201.566 485.814 199.915L487.879 200.603C481.686 207.025 469.299 220.283 469.299 221.934C481.915 220.099 508.109 215.466 511.963 211.613C516.78 206.108 527.514 192.62 531.918 182.711H533.295C530.881 188.197 525.654 199.309 523.278 201.708L541.552 185.464L542.928 187.528C534.671 194.41 518.018 208.585 517.468 210.236C526.643 209.548 546.782 206.383 553.938 199.226L555.314 199.915C552.562 202.896 541.139 209.961 517.468 214.365C487.649 223.081 427.874 241.752 427.324 246.707L425.26 248.771C433.517 249.23 450.582 250.698 452.784 252.9C461.959 249.689 480.86 243.541 483.062 244.642C475.492 246.936 460.354 251.936 460.354 253.588L491.319 252.9V254.276L479.621 254.964L487.879 263.91L476.869 256.34H450.72C436.04 254.276 404.891 252.074 397.735 259.781C373.421 275.149 339.244 298.512 323.418 312.078C312.178 321.712 305.352 332.845 292.278 360.37C291.59 364.728 289.7 373.596 289.7 371.945C289.7 370.293 282.819 357.953 279.378 351.989Z" fill="url(#paint2_linear_806_1856)"/>
</g>
<defs>
<filter id="filter0_n_806_1856" x="0" y="123.615" width="295.42" height="243.04" filterUnits="userSpaceOnUse" color-interpolation-filters="sRGB">
<feFlood flood-opacity="0" result="BackgroundImageFix"/>
<feBlend mode="normal" in="SourceGraphic" in2="BackgroundImageFix" result="shape"/>
<feTurbulence type="fractalNoise" baseFrequency="10 10" stitchTiles="stitch" numOctaves="3" result="noise" seed="6985" />
<feColorMatrix in="noise" type="luminanceToAlpha" result="alphaNoise" />
<feComponentTransfer in="alphaNoise" result="coloredNoise1">
<feFuncA type="discrete" tableValues="1 1 1 1 1 1 1 1 1 1 1 1 1 1 1 1 1 1 1 1 1 1 1 1 1 1 1 1 1 1 1 1 1 1 1 1 1 1 1 1 1 1 1 1 1 1 1 1 1 1 1 0 0 0 0 0 0 0 0 0 0 0 0 0 0 0 0 0 0 0 0 0 0 0 0 0 0 0 0 0 0 0 0 0 0 0 0 0 0 0 0 0 0 0 0 0 0 0 0 0 "/>
</feComponentTransfer>
<feComposite operator="in" in2="shape" in="coloredNoise1" result="noise1Clipped" />
<feFlood flood-color="rgba(113, 25, 25, 0.24)" result="color1Flood" />
<feComposite operator="in" in2="noise1Clipped" in="color1Flood" result="color1" />
<feMerge result="effect1_noise_806_1856">
<feMergeNode in="shape" />
<feMergeNode in="color1" />
</feMerge>
</filter>
<filter id="filter1_n_806_1856" x="176.159" y="0" width="271.12" height="491.318" filterUnits="userSpaceOnUse" color-interpolation-filters="sRGB">
<feFlood flood-opacity="0" result="BackgroundImageFix"/>
<feBlend mode="normal" in="SourceGraphic" in2="BackgroundImageFix" result="shape"/>
<feTurbulence type="fractalNoise" baseFrequency="10 10" stitchTiles="stitch" numOctaves="3" result="noise" seed="6985" />
<feColorMatrix in="noise" type="luminanceToAlpha" result="alphaNoise" />
<feComponentTransfer in="alphaNoise" result="coloredNoise1">
<feFuncA type="discrete" tableValues="1 1 1 1 1 1 1 1 1 1 1 1 1 1 1 1 1 1 1 1 1 1 1 1 1 1 1 1 1 1 1 1 1 1 1 1 1 1 1 1 1 1 1 1 1 1 1 1 1 1 1 0 0 0 0 0 0 0 0 0 0 0 0 0 0 0 0 0 0 0 0 0 0 0 0 0 0 0 0 0 0 0 0 0 0 0 0 0 0 0 0 0 0 0 0 0 0 0 0 0 "/>
</feComponentTransfer>
<feComposite operator="in" in2="shape" in="coloredNoise1" result="noise1Clipped" />
<feFlood flood-color="rgba(113, 25, 25, 0.13)" result="color1Flood" />
<feComposite operator="in" in2="noise1Clipped" in="color1Flood" result="color1" />
<feMerge result="effect1_noise_806_1856">
<feMergeNode in="shape" />
<feMergeNode in="color1" />
</feMerge>
</filter>
<filter id="filter2_n_806_1856" x="279.378" y="182.711" width="275.937" height="189.436" filterUnits="userSpaceOnUse" color-interpolation-filters="sRGB">
<feFlood flood-opacity="0" result="BackgroundImageFix"/>
<feBlend mode="normal" in="SourceGraphic" in2="BackgroundImageFix" result="shape"/>
<feTurbulence type="fractalNoise" baseFrequency="10 10" stitchTiles="stitch" numOctaves="3" result="noise" seed="6985" />
<feColorMatrix in="noise" type="luminanceToAlpha" result="alphaNoise" />
<feComponentTransfer in="alphaNoise" result="coloredNoise1">
<feFuncA type="discrete" tableValues="1 1 1 1 1 1 1 1 1 1 1 1 1 1 1 1 1 1 1 1 1 1 1 1 1 1 1 1 1 1 1 1 1 1 1 1 1 1 1 1 1 1 1 1 1 1 1 1 1 1 1 0 0 0 0 0 0 0 0 0 0 0 0 0 0 0 0 0 0 0 0 0 0 0 0 0 0 0 0 0 0 0 0 0 0 0 0 0 0 0 0 0 0 0 0 0 0 0 0 0 "/>
</feComponentTransfer>
<feComposite operator="in" in2="shape" in="coloredNoise1" result="noise1Clipped" />
<feFlood flood-color="rgba(140, 67, 67, 0.24)" result="color1Flood" />
<feComposite operator="in" in2="noise1Clipped" in="color1Flood" result="color1" />
<feMerge result="effect1_noise_806_1856">
<feMergeNode in="shape" />
<feMergeNode in="color1" />
</feMerge>
</filter>
<linearGradient id="paint0_linear_806_1856" x1="147.71" y1="123.615" x2="283.676" y2="359.792" gradientUnits="userSpaceOnUse">
<stop stop-color="#85494A"/>
<stop offset="0.5" stop-color="#8C726D"/>
<stop offset="1" stop-color="#42312E"/>
</linearGradient>
<linearGradient id="paint1_linear_806_1856" x1="372.938" y1="28.8405" x2="296.604" y2="488.627" gradientUnits="userSpaceOnUse">
<stop stop-color="#8B4743"/>
<stop offset="0.505658" stop-color="#684D45"/>
<stop offset="0.865385" stop-color="#927269"/>
<stop offset="0.9999" stop-color="#6E4F4A"/>
</linearGradient>
<linearGradient id="paint2_linear_806_1856" x1="538.111" y1="177.895" x2="370.21" y2="358.87" gradientUnits="userSpaceOnUse">
<stop stop-color="#744644"/>
<stop offset="1" stop-color="#81635B"/>
</linearGradient>
</defs>
</svg>
