<svg width="218" height="117" viewBox="0 0 218 117" fill="none" xmlns="http://www.w3.org/2000/svg">
<g filter="url(#filter0_n_801_1831)">
<path d="M86.8236 8.2588C76.2157 3.93941 78.2784 12.4582 80.6357 17.2575C75.6853 15.8177 77.9836 20.2571 79.7515 22.6568C76.9227 19.0573 72.6796 21.7569 70.9116 23.5567C74.4476 17.0776 65.9023 16.6576 61.1877 17.2575C52.7014 20.857 55.8838 27.7561 58.5357 30.7556C53.5852 27.8761 51.7584 31.9555 51.4638 34.3551C50.0494 28.596 43.8025 28.9559 40.8559 29.8558C30.9552 22.6568 25.5334 32.8554 24.0601 38.8545C11.3306 35.255 11.6842 42.754 13.4522 46.9534C-8.47082 53.4325 3.13898 64.6509 11.6843 69.4502C-5.28838 72.3298 -0.102223 82.6484 4.61243 87.4477C-7.40985 105.445 7.26441 105.145 16.1043 102.746C24.5906 122.183 29.0695 112.044 30.2482 104.545C37.3201 111.744 44.392 107.545 47.044 104.545C58.3591 111.744 63.5452 102.746 64.7238 97.3463C77.4533 102.386 79.457 95.2466 78.8677 91.0472C86.6468 91.7671 87.4129 85.9479 86.8236 82.9483C90.3596 90.1473 96.5475 87.1477 99.1995 84.7481C99.1995 92.667 106.271 92.8469 109.807 91.9471C106.979 96.9864 108.629 99.446 109.807 100.046C112.636 105.805 119.826 104.245 123.067 102.746C122.36 107.065 126.309 108.745 128.371 109.045C137.565 114.084 140.452 106.945 140.747 102.746C143.576 104.905 145.462 103.645 146.051 102.746C151.001 112.104 159.9 109.045 163.731 106.345C163.024 113.544 167.562 112.944 169.919 111.744C177.698 121.103 184.947 113.844 187.599 109.045C201.035 112.644 193.197 104.545 187.599 100.046C190.427 102.206 192.313 97.9462 192.903 95.5466C197.853 107.065 204.984 101.546 207.93 97.3463C220.66 92.307 218.538 81.4485 215.886 76.6492C220.13 60.0915 205.868 58.9517 198.207 60.4515C206.693 48.2132 196.439 46.3535 190.251 46.9534C190.251 32.5554 180.232 32.5554 175.223 34.3551C169.035 29.8558 159.311 40.6543 158.427 38.8545C157.72 37.4147 154.596 38.2546 153.123 38.8545C155.952 33.0953 151.944 30.4557 149.587 29.8558C150.294 11.1384 133.97 11.8583 125.719 14.5578C120.769 -4.87943 105.977 -0.739954 99.1995 3.75944C90.7132 -3.43955 87.4129 3.75944 86.8236 8.2588Z" fill="url(#paint0_linear_801_1831)"/>
</g>
<defs>
<filter id="filter0_n_801_1831" x="0" y="0" width="217.898" height="116.282" filterUnits="userSpaceOnUse" color-interpolation-filters="sRGB">
<feFlood flood-opacity="0" result="BackgroundImageFix"/>
<feBlend mode="normal" in="SourceGraphic" in2="BackgroundImageFix" result="shape"/>
<feTurbulence type="fractalNoise" baseFrequency="2 2" stitchTiles="stitch" numOctaves="3" result="noise" seed="4240" />
<feColorMatrix in="noise" type="luminanceToAlpha" result="alphaNoise" />
<feComponentTransfer in="alphaNoise" result="coloredNoise1">
<feFuncA type="discrete" tableValues="1 1 1 1 1 1 1 1 1 1 1 1 1 1 1 1 1 1 1 1 1 1 1 1 1 1 1 1 1 1 1 1 1 1 1 1 1 1 1 1 1 1 1 1 1 1 1 1 1 1 1 0 0 0 0 0 0 0 0 0 0 0 0 0 0 0 0 0 0 0 0 0 0 0 0 0 0 0 0 0 0 0 0 0 0 0 0 0 0 0 0 0 0 0 0 0 0 0 0 0 "/>
</feComponentTransfer>
<feComposite operator="in" in2="shape" in="coloredNoise1" result="noise1Clipped" />
<feFlood flood-color="rgba(240, 105, 105, 0.25)" result="color1Flood" />
<feComposite operator="in" in2="noise1Clipped" in="color1Flood" result="color1" />
<feMerge result="effect1_noise_801_1831">
<feMergeNode in="shape" />
<feMergeNode in="color1" />
</feMerge>
</filter>
<linearGradient id="paint0_linear_801_1831" x1="108.949" y1="0" x2="108.949" y2="116.282" gradientUnits="userSpaceOnUse">
<stop stop-color="#E8CBCA"/>
<stop offset="1" stop-color="#D8ADAE"/>
</linearGradient>
</defs>
</svg>
