<svg width="258" height="137" viewBox="0 0 258 137" fill="none" xmlns="http://www.w3.org/2000/svg">
<path d="M68.9958 28.7817C57.2008 31.4397 57.3795 40.0782 58.9432 44.0652C46.076 41.4072 43.306 54.9187 43.5294 62.0067C38.168 56.1591 27.8921 64.4432 23.4243 69.3162C-3.38242 71.9742 2.42571 80.1697 8.68061 83.9352C3.31931 83.9352 2.87247 91.4662 3.31921 95.2317C-6.33121 109.585 7.34022 118.489 15.3822 121.147C15.3822 136.032 31.9131 137.095 40.1785 135.766C65.6449 135.102 53.5818 116.496 53.5818 114.502C57.8709 120.35 65.6449 118.268 68.9958 116.496C82.3992 118.091 89.3242 105.642 91.1113 99.2187C91.6474 111.446 106.078 108.3 113.227 105.199C116.444 116.363 123.056 113.395 125.96 110.515C137.755 124.337 147.852 116.274 151.426 110.515C160.809 109.186 161.479 101.877 161.479 99.2187C171.129 105.598 178.457 96.5607 180.914 91.2447C188.956 105.066 195.881 102.32 198.338 99.2187C206.916 111.446 213.082 108.3 215.092 105.199C247.797 115.831 255.973 95.4532 255.973 83.9352C263.479 57.3552 244.803 48.4952 234.527 47.3877C240.961 39.9453 234.974 35.4267 231.176 34.0977C231.176 17.0865 219.113 17.7067 213.082 20.1432C211.473 11.106 203.923 14.1627 200.349 16.8207C191.234 -7.10136 170.638 -0.234832 161.479 6.18869C142.178 -9.75933 128.417 8.84669 123.95 20.1432C117.516 15.8904 112.78 20.1432 111.216 22.8012C92.4516 6.85316 71.6764 28.7817 68.9958 28.7817Z" fill="url(#paint0_linear_801_1839)"/>
<path d="M25.4348 62.0067C29.1878 59.3487 25.6582 54.6972 23.4243 52.7037C12.7016 50.0457 14.042 62.0067 15.3822 65.9937C16.7225 69.9807 20.7436 65.3292 25.4348 62.0067Z" fill="url(#paint1_linear_801_1839)"/>
<path d="M10.0209 64.6647C9.48481 60.9435 5.32973 63.1142 3.31921 64.6647C1.97885 67.3226 1.97893 67.3227 4.65943 69.3161L4.6596 69.3162C7.34027 71.3097 10.6911 69.3162 10.0209 64.6647Z" fill="url(#paint2_linear_801_1839)"/>
<path d="M68.9958 22.8012C72.7487 21.2064 69.2192 17.7067 66.9853 16.1562C60.9537 12.1691 56.9327 21.4722 58.2731 23.4657C59.6134 25.4592 64.3046 24.7947 68.9958 22.8012Z" fill="url(#paint3_linear_801_1839)"/>
<path d="M78.3781 14.1627C75.6974 11.5047 79.4951 9.95415 81.729 9.51115C87.7605 8.18215 86.4201 14.1627 85.0798 16.1562C83.7395 18.1497 81.729 17.4852 78.3781 14.1627Z" fill="url(#paint4_linear_801_1839)"/>
<defs>
<linearGradient id="paint0_linear_801_1839" x1="128.853" y1="0" x2="56.5191" y2="91.5628" gradientUnits="userSpaceOnUse">
<stop stop-color="#E1C2BD"/>
<stop offset="0.5" stop-color="#DEA2A0"/>
<stop offset="1" stop-color="#D07F7F"/>
</linearGradient>
<linearGradient id="paint1_linear_801_1839" x1="128.853" y1="0" x2="56.5191" y2="91.5628" gradientUnits="userSpaceOnUse">
<stop stop-color="#E1C2BD"/>
<stop offset="0.5" stop-color="#DEA2A0"/>
<stop offset="1" stop-color="#D07F7F"/>
</linearGradient>
<linearGradient id="paint2_linear_801_1839" x1="128.853" y1="0" x2="56.5191" y2="91.5628" gradientUnits="userSpaceOnUse">
<stop stop-color="#E1C2BD"/>
<stop offset="0.5" stop-color="#DEA2A0"/>
<stop offset="1" stop-color="#D07F7F"/>
</linearGradient>
<linearGradient id="paint3_linear_801_1839" x1="128.853" y1="0" x2="56.5191" y2="91.5628" gradientUnits="userSpaceOnUse">
<stop stop-color="#E1C2BD"/>
<stop offset="0.5" stop-color="#DEA2A0"/>
<stop offset="1" stop-color="#D07F7F"/>
</linearGradient>
<linearGradient id="paint4_linear_801_1839" x1="128.853" y1="0" x2="56.5191" y2="91.5628" gradientUnits="userSpaceOnUse">
<stop stop-color="#E1C2BD"/>
<stop offset="0.5" stop-color="#DEA2A0"/>
<stop offset="1" stop-color="#D07F7F"/>
</linearGradient>
</defs>
</svg>
