<svg width="149" height="80" viewBox="0 0 149 80" fill="none" xmlns="http://www.w3.org/2000/svg">
<g filter="url(#filter0_n_801_1843)">
<path d="M59.2738 5.65468C52.0319 2.69725 53.44 8.52995 55.0494 11.816C51.6698 10.8302 53.2388 13.8697 54.4457 15.5128C52.5146 13.0482 49.6178 14.8966 48.4108 16.1289C50.8248 11.6927 44.991 11.4052 41.7724 11.816C35.9788 14.2805 38.1514 19.0042 39.9619 21.0579C36.5822 19.0863 35.3351 21.8794 35.1339 23.5224C34.1683 19.5792 29.9037 19.8257 27.892 20.4418C21.1329 15.5128 17.4314 22.4956 16.4256 26.6031C7.7353 24.1386 7.9767 29.273 9.18369 32.1483C-5.78296 36.5844 2.14296 44.2655 7.97675 47.5515C-3.61033 49.5231 -0.0697867 56.5881 3.14887 59.8741C-5.05865 72.1967 4.95935 71.9913 10.9943 70.3483C16.7878 83.6567 19.8455 76.715 20.6502 71.5806C25.4782 76.5096 30.3061 73.6343 32.1166 71.5806C39.8413 76.5096 43.3818 70.3483 44.1865 66.6515C52.8768 70.1019 54.2447 65.2139 53.8424 62.3386C59.1531 62.8315 59.6761 58.8472 59.2738 56.7935C61.6878 61.7225 65.9123 59.6687 67.7227 58.0257C67.7227 63.4477 72.5507 63.5709 74.9647 62.9548C73.0335 66.4051 74.16 68.0892 74.9647 68.4999C76.8959 72.4432 81.8043 71.3752 84.0171 70.3483C83.5343 73.3057 86.2299 74.4558 87.6381 74.6612C93.9144 78.1115 95.8858 73.2236 96.087 70.3483C98.0182 71.827 99.3056 70.9644 99.7079 70.3483C103.088 76.7561 109.163 74.6612 111.778 72.8128C111.295 77.7419 114.393 77.3311 116.002 76.5096C121.313 82.9174 126.262 77.9473 128.072 74.6612C137.245 77.1257 131.894 71.5806 128.072 68.4999C130.003 69.9786 131.291 67.0623 131.693 65.4193C135.073 73.3057 139.941 69.5268 141.953 66.6515C150.643 63.2012 149.194 55.7666 147.384 52.4805C150.281 41.1438 140.544 40.3633 135.314 41.3902C141.108 33.0108 134.107 31.7375 129.883 32.1483C129.883 22.2902 123.043 22.2902 119.623 23.5224C115.399 20.4418 108.76 27.8354 108.157 26.6031C107.674 25.6173 105.542 26.1923 104.536 26.6031C106.467 22.6599 103.731 20.8525 102.122 20.4418C102.605 7.62629 91.4602 8.11916 85.8276 9.96754C82.448 -3.34087 72.3495 -0.506635 67.7227 2.57403C61.9292 -2.35501 59.6761 2.57403 59.2738 5.65468Z" fill="url(#paint0_linear_801_1843)"/>
</g>
<defs>
<filter id="filter0_n_801_1843" x="0" y="0" width="148.758" height="79.6166" filterUnits="userSpaceOnUse" color-interpolation-filters="sRGB">
<feFlood flood-opacity="0" result="BackgroundImageFix"/>
<feBlend mode="normal" in="SourceGraphic" in2="BackgroundImageFix" result="shape"/>
<feTurbulence type="fractalNoise" baseFrequency="2 2" stitchTiles="stitch" numOctaves="3" result="noise" seed="4240" />
<feColorMatrix in="noise" type="luminanceToAlpha" result="alphaNoise" />
<feComponentTransfer in="alphaNoise" result="coloredNoise1">
<feFuncA type="discrete" tableValues="1 1 1 1 1 1 1 1 1 1 1 1 1 1 1 1 1 1 1 1 1 1 1 1 1 1 1 1 1 1 1 1 1 1 1 1 1 1 1 1 1 1 1 1 1 1 1 1 1 1 1 0 0 0 0 0 0 0 0 0 0 0 0 0 0 0 0 0 0 0 0 0 0 0 0 0 0 0 0 0 0 0 0 0 0 0 0 0 0 0 0 0 0 0 0 0 0 0 0 0 "/>
</feComponentTransfer>
<feComposite operator="in" in2="shape" in="coloredNoise1" result="noise1Clipped" />
<feFlood flood-color="rgba(240, 105, 105, 0.25)" result="color1Flood" />
<feComposite operator="in" in2="noise1Clipped" in="color1Flood" result="color1" />
<feMerge result="effect1_noise_801_1843">
<feMergeNode in="shape" />
<feMergeNode in="color1" />
</feMerge>
</filter>
<linearGradient id="paint0_linear_801_1843" x1="74.3787" y1="0" x2="74.3787" y2="79.6166" gradientUnits="userSpaceOnUse">
<stop stop-color="#E8CBCA"/>
<stop offset="1" stop-color="#D8ADAE"/>
</linearGradient>
</defs>
</svg>
