<svg width="228" height="97" viewBox="0 0 228 97" fill="none" xmlns="http://www.w3.org/2000/svg">
<g filter="url(#filter0_n_801_1838)">
<path d="M90.5804 89.5329C79.5135 93.113 81.6654 86.0523 84.1247 82.0745C78.9602 83.2678 81.3579 79.5884 83.2023 77.5995C80.2511 80.5828 75.8244 78.3453 73.9799 76.8536C77.6689 82.2237 68.7539 82.5717 63.8352 82.0745C54.9817 79.0911 58.3018 73.373 61.0685 70.8869C55.9038 73.2736 53.9979 69.8924 53.6906 67.9035C52.215 72.6769 45.6978 72.3786 42.6237 71.6327C32.2946 77.5995 26.6382 69.1466 25.1011 64.1743C11.8209 67.1577 12.1897 60.9423 14.0342 57.4617C-8.83735 52.0917 3.2748 42.7935 12.1898 38.8157C-5.5172 36.429 -0.106646 27.8767 4.81201 23.8989C-7.73047 8.98205 7.57873 9.23066 16.8011 11.2196C25.6547 -4.8906 30.3273 3.51254 31.557 9.72789C38.9349 3.76116 46.3129 7.24175 49.0796 9.72789C60.8843 3.76116 66.2947 11.2196 67.5244 15.6946C80.8047 11.5179 82.8951 17.4349 82.2803 20.9155C90.396 20.3188 91.1952 25.1419 90.5804 27.6281C94.2694 21.6614 100.725 24.1475 103.492 26.1364C103.492 19.573 110.87 19.4238 114.559 20.1697C111.608 15.993 113.329 13.9543 114.559 13.4571C117.51 8.68371 125.011 9.9765 128.392 11.2196C127.655 7.63953 131.774 6.2473 133.926 5.99868C143.517 1.82197 146.53 7.73898 146.837 11.2196C149.788 9.42955 151.756 10.4737 152.371 11.2196C157.535 3.46282 166.819 5.99868 170.815 8.23621C170.078 2.26948 174.812 2.7667 177.271 3.76116C185.387 -3.99559 192.949 2.02086 195.716 5.99868C209.734 3.01532 201.557 9.72789 195.716 13.4571C198.667 11.6671 200.635 15.1974 201.249 17.1863C206.414 7.63953 213.853 12.214 216.927 15.6946C230.208 19.8713 227.994 28.8712 225.228 32.849C229.654 46.5725 214.776 47.5172 206.783 46.2741C215.636 56.4176 204.938 57.959 198.483 57.4617C198.483 69.3952 188.031 69.3952 182.805 67.9035C176.349 71.6327 166.204 62.6826 165.282 64.1743C164.544 65.3677 161.286 64.6715 159.749 64.1743C162.7 68.9477 158.519 71.1355 156.06 71.6327C156.797 87.1462 139.767 86.5496 131.159 84.3121C125.994 100.422 110.562 96.9913 103.492 93.2621C94.6383 99.2288 91.1952 93.2621 90.5804 89.5329Z" fill="url(#paint0_linear_801_1838)"/>
</g>
<defs>
<filter id="filter0_n_801_1838" x="0" y="0" width="227.326" height="96.3781" filterUnits="userSpaceOnUse" color-interpolation-filters="sRGB">
<feFlood flood-opacity="0" result="BackgroundImageFix"/>
<feBlend mode="normal" in="SourceGraphic" in2="BackgroundImageFix" result="shape"/>
<feTurbulence type="fractalNoise" baseFrequency="2 2" stitchTiles="stitch" numOctaves="3" result="noise" seed="4240" />
<feColorMatrix in="noise" type="luminanceToAlpha" result="alphaNoise" />
<feComponentTransfer in="alphaNoise" result="coloredNoise1">
<feFuncA type="discrete" tableValues="1 1 1 1 1 1 1 1 1 1 1 1 1 1 1 1 1 1 1 1 1 1 1 1 1 1 1 1 1 1 1 1 1 1 1 1 1 1 1 1 1 1 1 1 1 1 1 1 1 1 1 0 0 0 0 0 0 0 0 0 0 0 0 0 0 0 0 0 0 0 0 0 0 0 0 0 0 0 0 0 0 0 0 0 0 0 0 0 0 0 0 0 0 0 0 0 0 0 0 0 "/>
</feComponentTransfer>
<feComposite operator="in" in2="shape" in="coloredNoise1" result="noise1Clipped" />
<feFlood flood-color="rgba(240, 105, 105, 0.25)" result="color1Flood" />
<feComposite operator="in" in2="noise1Clipped" in="color1Flood" result="color1" />
<feMerge result="effect1_noise_801_1838">
<feMergeNode in="shape" />
<feMergeNode in="color1" />
</feMerge>
</filter>
<linearGradient id="paint0_linear_801_1838" x1="113.663" y1="96.3781" x2="113.663" y2="3.8147e-05" gradientUnits="userSpaceOnUse">
<stop stop-color="#B7898B"/>
<stop offset="1" stop-color="#BE9192"/>
</linearGradient>
</defs>
</svg>
