<svg width="296" height="244" viewBox="0 0 296 244" fill="none" xmlns="http://www.w3.org/2000/svg">
<g filter="url(#filter0_n_801_1822)">
<path d="M216.916 118.422C262.09 152.571 280.729 179.928 284.402 189.337L295.42 205.173L276.138 243.04L270.629 234.778C270.629 175.292 227.475 141.601 205.898 132.192C197.084 129.989 163.663 122.553 148.054 119.11C140.892 115.255 127.625 115.668 121.886 116.356C118.03 120.763 102.834 124.159 95.7187 125.307C94.066 129.713 83.553 135.864 78.5031 138.388C76.2995 137.838 67.4851 139.995 63.3534 141.142L62.6648 139.765C64.3175 138.113 73.4532 136.782 77.8145 136.323C83.3235 134.67 90.2097 127.831 92.9642 124.618C89.1079 122.966 77.1259 123.471 71.6169 123.93L70.2396 122.553C74.6468 121.451 89.5211 121.635 96.4073 121.864C104.671 121.864 113.623 115.897 117.066 112.914C111.557 109.609 82.6348 108.783 68.8624 108.783C56.7426 107.13 46.8264 106.717 43.3833 106.717C16.9401 113.878 3.44312 111.996 0 110.16C16.527 112.363 33.0539 106.488 39.2515 103.275C15.5629 99.9701 7.8044 95.4719 6.88624 93.6359C28.3713 101.347 58.0739 104.652 70.2396 105.34C48.7546 97.0784 41.547 88.5869 40.6288 85.3739C48.3414 94.1867 68.6328 101.898 77.8145 104.652C94.3414 103.55 106.737 104.652 110.868 105.34C118.581 108.645 131.068 109.93 136.347 110.16C133.593 109.058 116.836 97.7669 108.803 92.2589C92.2756 89.5049 83.553 82.8494 81.2576 79.8659C87.3175 85.3739 100.769 88.5869 106.737 89.5049C99.575 85.6493 96.4073 78.7184 95.7187 75.7349C102.88 87.3017 128.084 101.668 139.791 107.406C151.359 115.117 186.387 119.34 202.455 120.487C188.683 100.108 169.631 82.1609 161.827 75.7349C148.873 71.8793 124.294 50.2604 113.623 39.9329C109.313 38.0178 87.3537 31.1084 77.155 28.0031C75.4922 27.5987 74.0713 27.2105 72.9941 26.8515C70.4771 26.0126 72.6879 26.6429 77.155 28.0031C85.6967 30.0805 100.621 32.5838 108.114 33.7365L87.4552 15.147L111.557 33.7365C109.353 31.5333 101.916 14.4585 98.4732 6.19649C118.306 46.4048 146.677 62.8829 158.383 66.0959C137.449 39.6576 134.052 11.934 134.97 1.377C134.97 24.5106 157.924 60.1289 169.401 75.0464C161.138 43.1 162.286 11.7045 163.892 0C162.791 12.6684 167.106 42.4574 169.401 55.7684C173.258 87.164 202.685 110.619 216.916 118.422Z" fill="url(#paint0_linear_801_1822)"/>
</g>
<defs>
<filter id="filter0_n_801_1822" x="0" y="0" width="295.42" height="243.04" filterUnits="userSpaceOnUse" color-interpolation-filters="sRGB">
<feFlood flood-opacity="0" result="BackgroundImageFix"/>
<feBlend mode="normal" in="SourceGraphic" in2="BackgroundImageFix" result="shape"/>
<feTurbulence type="fractalNoise" baseFrequency="10 10" stitchTiles="stitch" numOctaves="3" result="noise" seed="6985" />
<feColorMatrix in="noise" type="luminanceToAlpha" result="alphaNoise" />
<feComponentTransfer in="alphaNoise" result="coloredNoise1">
<feFuncA type="discrete" tableValues="1 1 1 1 1 1 1 1 1 1 1 1 1 1 1 1 1 1 1 1 1 1 1 1 1 1 1 1 1 1 1 1 1 1 1 1 1 1 1 1 1 1 1 1 1 1 1 1 1 1 1 0 0 0 0 0 0 0 0 0 0 0 0 0 0 0 0 0 0 0 0 0 0 0 0 0 0 0 0 0 0 0 0 0 0 0 0 0 0 0 0 0 0 0 0 0 0 0 0 0 "/>
</feComponentTransfer>
<feComposite operator="in" in2="shape" in="coloredNoise1" result="noise1Clipped" />
<feFlood flood-color="rgba(113, 25, 25, 0.24)" result="color1Flood" />
<feComposite operator="in" in2="noise1Clipped" in="color1Flood" result="color1" />
<feMerge result="effect1_noise_801_1822">
<feMergeNode in="shape" />
<feMergeNode in="color1" />
</feMerge>
</filter>
<linearGradient id="paint0_linear_801_1822" x1="147.71" y1="-4.92497e-06" x2="283.676" y2="236.176" gradientUnits="userSpaceOnUse">
<stop stop-color="#85494A"/>
<stop offset="0.5" stop-color="#8C726D"/>
<stop offset="1" stop-color="#42312E"/>
</linearGradient>
</defs>
</svg>
