<svg width="113" height="60" viewBox="0 0 113 60" fill="none" xmlns="http://www.w3.org/2000/svg">
<g filter="url(#filter0_n_801_1842)">
<path d="M44.6641 4.24101C39.2071 2.02294 40.2682 6.39746 41.4809 8.86198C38.9343 8.12263 40.1166 10.4023 41.026 11.6346C39.5708 9.78618 37.3881 11.1725 36.4786 12.0967C38.2975 8.76956 33.9017 8.55392 31.4764 8.86198C27.1108 10.7104 28.7479 14.2531 30.1121 15.7934C27.5655 14.3147 26.6257 16.4096 26.4742 17.6418C25.7466 14.6844 22.533 14.8692 21.0172 15.3313C15.9241 11.6346 13.135 16.8717 12.3771 19.9523C5.82871 18.1039 6.01061 21.9547 6.9201 24.1112C-4.35759 27.4383 1.61476 33.1991 6.01065 35.6636C-2.72046 37.1423 -0.0525858 42.4411 2.37274 44.9056C-3.8118 54.1475 3.73698 53.9935 8.28443 52.7612C12.65 62.7425 14.954 57.5362 15.5604 53.6854C19.1983 57.3822 22.8363 55.2257 24.2005 53.6854C30.0213 57.3822 32.6891 52.7612 33.2954 49.9886C39.8438 52.5764 40.8745 48.9104 40.5714 46.754C44.5731 47.1236 44.9672 44.1354 44.6641 42.5951C46.483 46.2919 49.6663 44.7515 51.0305 43.5193C51.0305 47.5857 54.6685 47.6782 56.4875 47.2161C55.0323 49.8038 55.8811 51.0669 56.4875 51.3749C57.9426 54.3324 61.6413 53.5314 63.3087 52.7612C62.9449 54.9793 64.9761 55.8419 66.0371 55.9959C70.7665 58.5837 72.252 54.9177 72.4036 52.7612C73.8587 53.8703 74.8289 53.2233 75.132 52.7612C77.6786 57.567 82.2564 55.9959 84.2269 54.6096C83.8632 58.3064 86.1975 57.9983 87.4102 57.3822C91.4119 62.188 95.1408 58.4604 96.5051 55.9959C103.417 57.8443 99.3851 53.6854 96.5051 51.3749C97.9603 52.484 98.9304 50.2967 99.2336 49.0645C101.78 54.9793 105.448 52.1451 106.964 49.9886C113.513 47.4009 112.421 41.8249 111.057 39.3604C113.24 30.8578 105.903 30.2725 101.962 31.0427C106.328 24.7581 101.053 23.8031 97.8693 24.1112C97.8693 16.7176 92.7155 16.7176 90.1386 17.6418C86.9554 15.3313 81.9532 20.8765 81.4985 19.9523C81.1347 19.213 79.5279 19.6443 78.77 19.9523C80.2252 16.9949 78.1637 15.6394 76.951 15.3313C77.3148 5.71972 68.9172 6.08937 64.6729 7.47565C62.1263 -2.50565 54.5169 -0.379976 51.0305 1.93052C46.665 -1.76626 44.9672 1.93052 44.6641 4.24101Z" fill="url(#paint0_linear_801_1842)"/>
</g>
<defs>
<filter id="filter0_n_801_1842" x="0" y="0" width="112.092" height="59.7125" filterUnits="userSpaceOnUse" color-interpolation-filters="sRGB">
<feFlood flood-opacity="0" result="BackgroundImageFix"/>
<feBlend mode="normal" in="SourceGraphic" in2="BackgroundImageFix" result="shape"/>
<feTurbulence type="fractalNoise" baseFrequency="2 2" stitchTiles="stitch" numOctaves="3" result="noise" seed="4240" />
<feColorMatrix in="noise" type="luminanceToAlpha" result="alphaNoise" />
<feComponentTransfer in="alphaNoise" result="coloredNoise1">
<feFuncA type="discrete" tableValues="1 1 1 1 1 1 1 1 1 1 1 1 1 1 1 1 1 1 1 1 1 1 1 1 1 1 1 1 1 1 1 1 1 1 1 1 1 1 1 1 1 1 1 1 1 1 1 1 1 1 1 0 0 0 0 0 0 0 0 0 0 0 0 0 0 0 0 0 0 0 0 0 0 0 0 0 0 0 0 0 0 0 0 0 0 0 0 0 0 0 0 0 0 0 0 0 0 0 0 0 "/>
</feComponentTransfer>
<feComposite operator="in" in2="shape" in="coloredNoise1" result="noise1Clipped" />
<feFlood flood-color="rgba(240, 105, 105, 0.25)" result="color1Flood" />
<feComposite operator="in" in2="noise1Clipped" in="color1Flood" result="color1" />
<feMerge result="effect1_noise_801_1842">
<feMergeNode in="shape" />
<feMergeNode in="color1" />
</feMerge>
</filter>
<linearGradient id="paint0_linear_801_1842" x1="56.0459" y1="0" x2="56.0459" y2="59.7125" gradientUnits="userSpaceOnUse">
<stop stop-color="#E8CBCA"/>
<stop offset="1" stop-color="#D8ADAE"/>
</linearGradient>
</defs>
</svg>
