<svg width="262" height="106" viewBox="0 0 262 106" fill="none" xmlns="http://www.w3.org/2000/svg">
<g filter="url(#filter0_n_801_1837)">
<path d="M176.594 20.7028C203.861 17.0537 251.467 16.5429 223.75 43.6918C229.524 42.0498 241.65 41.9403 243.96 54.639C249.734 57.3758 281.492 66.1335 243.96 82.5542C241.396 83.676 239.165 84.6407 237.235 85.4635C230.984 90.902 219.88 96.5799 206.428 92.4067C206.428 95.1435 198.729 102.259 176.594 101.164C167.291 104.813 144.066 109.922 125.588 101.164C122.06 103.901 110.575 106.966 92.8677 97.3329C84.2063 100.435 64.7664 104.23 56.2975 94.5961C39.6164 93.1365 9.33379 85.1816 21.6521 65.0388C11.0661 63.2143 -5.48674 56.8284 12.9908 45.8813C8.82053 46.7935 1.05741 46.976 3.3671 40.4077C-0.161631 36.2113 -3.94702 28.6942 9.14123 32.1973C10.7453 28.1833 15.4931 21.3596 21.6521 26.1764C25.5014 23.4396 -3.36971 4.82941 51.4855 9.75563C52.1271 6.10658 56.4898 0.231597 68.8082 5.92412C75.8656 4.28207 91.7126 3.5158 98.6417 13.5872C118.531 1.91015 161.966 -13.0145 176.594 20.7028Z" fill="url(#paint0_linear_801_1837)"/>
</g>
<defs>
<filter id="filter0_n_801_1837" x="0" y="0" width="262" height="106" filterUnits="userSpaceOnUse" color-interpolation-filters="sRGB">
<feFlood flood-opacity="0" result="BackgroundImageFix"/>
<feBlend mode="normal" in="SourceGraphic" in2="BackgroundImageFix" result="shape"/>
<feTurbulence type="fractalNoise" baseFrequency="2 2" stitchTiles="stitch" numOctaves="3" result="noise" seed="4240" />
<feColorMatrix in="noise" type="luminanceToAlpha" result="alphaNoise" />
<feComponentTransfer in="alphaNoise" result="coloredNoise1">
<feFuncA type="discrete" tableValues="1 1 1 1 1 1 1 1 1 1 1 1 1 1 1 1 1 1 1 1 1 1 1 1 1 1 1 1 1 1 1 1 1 1 1 1 1 1 1 1 1 1 1 1 1 1 1 1 1 1 1 0 0 0 0 0 0 0 0 0 0 0 0 0 0 0 0 0 0 0 0 0 0 0 0 0 0 0 0 0 0 0 0 0 0 0 0 0 0 0 0 0 0 0 0 0 0 0 0 0 "/>
</feComponentTransfer>
<feComposite operator="in" in2="shape" in="coloredNoise1" result="noise1Clipped" />
<feFlood flood-color="rgba(240, 105, 105, 0.25)" result="color1Flood" />
<feComposite operator="in" in2="noise1Clipped" in="color1Flood" result="color1" />
<feMerge result="effect1_noise_801_1837">
<feMergeNode in="shape" />
<feMergeNode in="color1" />
</feMerge>
</filter>
<linearGradient id="paint0_linear_801_1837" x1="131" y1="0" x2="131" y2="106" gradientUnits="userSpaceOnUse">
<stop stop-color="#BA6C6E"/>
<stop offset="1" stop-color="#D19190"/>
</linearGradient>
</defs>
</svg>
