<svg width="217" height="92" viewBox="0 0 217 92" fill="none" xmlns="http://www.w3.org/2000/svg">
<g filter="url(#filter0_n_801_1838)">
<path d="M86.4658 85.4658C75.9016 88.8832 77.9557 82.1433 80.3033 78.3462C75.3734 79.4853 77.6622 75.973 79.4228 74.0744C76.6057 76.9223 72.38 74.7864 70.6193 73.3625C74.1407 78.4886 65.6307 78.8208 60.9355 78.3462C52.4842 75.4984 55.6534 70.04 58.2945 67.6668C53.3644 69.9451 51.5451 66.7175 51.2517 64.8189C49.8431 69.3755 43.622 69.0907 40.6875 68.3787C30.8276 74.0744 25.4281 66.0055 23.9609 61.2591C11.2839 64.107 11.636 58.174 13.3967 54.8515C-8.43591 49.7254 3.12604 40.8496 11.6361 37.0524C-5.26658 34.7742 -0.101801 26.6104 4.59342 22.8132C-7.37931 8.574 7.23447 8.81132 16.0379 10.7099C24.4893 -4.66848 28.9497 3.35295 30.1235 9.28596C37.1663 3.59027 44.2091 6.91276 46.8501 9.28596C58.1186 3.59027 63.2833 10.7099 64.4571 14.9817C77.1341 10.9947 79.1295 16.6429 78.5426 19.9654C86.2897 19.3958 87.0527 23.9998 86.4658 26.373C89.9871 20.6773 96.1496 23.0505 98.7906 24.9491C98.7906 18.6838 105.833 18.5415 109.355 19.2534C106.538 15.2664 108.181 13.3204 109.355 12.8458C112.172 8.28922 119.332 9.52328 122.56 10.7099C121.856 7.29247 125.788 5.96347 127.842 5.72615C136.998 1.73917 139.874 7.3874 140.167 10.7099C142.984 9.00117 144.862 9.99792 145.449 10.7099C150.379 3.30549 159.241 5.72615 163.056 7.86204C162.352 2.16635 166.871 2.64099 169.218 3.59027C176.966 -3.81413 184.184 1.92902 186.825 5.72615C200.207 2.87831 192.401 9.28596 186.825 12.8458C189.643 11.1371 191.521 14.507 192.108 16.4056C197.037 7.29247 204.139 11.6592 207.073 14.9817C219.75 18.9686 217.638 27.5596 214.997 31.3568C219.222 44.4568 205.019 45.3587 197.39 44.1721C205.841 53.8547 195.629 55.3261 189.466 54.8515C189.466 66.2429 179.489 66.2429 174.501 64.8189C168.338 68.3787 158.654 59.8352 157.774 61.2591C157.07 62.3983 153.959 61.7338 152.492 61.2591C155.309 65.8157 151.318 67.9041 148.97 68.3787C149.675 83.1875 133.418 82.618 125.201 80.4821C120.271 95.8605 105.54 92.5854 98.7906 89.0256C90.3393 94.7213 87.0527 89.0256 86.4658 85.4658Z" fill="url(#paint0_linear_801_1838)"/>
</g>
<defs>
<filter id="filter0_n_801_1838" x="0" y="0" width="217" height="92" filterUnits="userSpaceOnUse" color-interpolation-filters="sRGB">
<feFlood flood-opacity="0" result="BackgroundImageFix"/>
<feBlend mode="normal" in="SourceGraphic" in2="BackgroundImageFix" result="shape"/>
<feTurbulence type="fractalNoise" baseFrequency="2 2" stitchTiles="stitch" numOctaves="3" result="noise" seed="4240" />
<feColorMatrix in="noise" type="luminanceToAlpha" result="alphaNoise" />
<feComponentTransfer in="alphaNoise" result="coloredNoise1">
<feFuncA type="discrete" tableValues="1 1 1 1 1 1 1 1 1 1 1 1 1 1 1 1 1 1 1 1 1 1 1 1 1 1 1 1 1 1 1 1 1 1 1 1 1 1 1 1 1 1 1 1 1 1 1 1 1 1 1 0 0 0 0 0 0 0 0 0 0 0 0 0 0 0 0 0 0 0 0 0 0 0 0 0 0 0 0 0 0 0 0 0 0 0 0 0 0 0 0 0 0 0 0 0 0 0 0 0 "/>
</feComponentTransfer>
<feComposite operator="in" in2="shape" in="coloredNoise1" result="noise1Clipped" />
<feFlood flood-color="rgba(240, 105, 105, 0.25)" result="color1Flood" />
<feComposite operator="in" in2="noise1Clipped" in="color1Flood" result="color1" />
<feMerge result="effect1_noise_801_1838">
<feMergeNode in="shape" />
<feMergeNode in="color1" />
</feMerge>
</filter>
<linearGradient id="paint0_linear_801_1838" x1="108.5" y1="92" x2="108.5" y2="0" gradientUnits="userSpaceOnUse">
<stop stop-color="#B7898B"/>
<stop offset="1" stop-color="#BE9192"/>
</linearGradient>
</defs>
</svg>
