<svg width="245" height="310" viewBox="0 0 245 310" fill="none" xmlns="http://www.w3.org/2000/svg">
<g filter="url(#filter0_n_934_1753)">
<path d="M91 181C101 201 101.167 235.667 100 250.5L118 207L110 190C92.4 148.4 66 124.667 55 118C43.4 110 34.5 92.6667 31.5 85C31.9 89 34.6667 96.6667 36 100C33.6 98 24.6667 89.5 20.5 85.5C22.5 89.1 37.6667 107 45 115.5C37.4 110.3 11.8333 105.667 0 104V105C57.6 117.4 81 151.167 85.5 166.5C72.3 158.5 51 153.167 42 151.5L40.5 153C65.3 157 84.5 173.333 91 181Z" fill="url(#paint0_linear_934_1753)"/>
</g>
<g filter="url(#filter1_n_934_1753)">
<path d="M200 93.5C146.4 145.1 129 195.333 127 214H117L121 179.5C125.4 169.5 146.5 142.333 156.5 130C174.1 107.6 170.5 84.6667 166.5 76L167.5 75.5C169.5 77.5 171.333 84.6667 172 88L174.5 84.5L175.5 85.5L173.5 89.5C173.9 90.7 173.667 105.333 173.5 112.5C185.5 99.3 225.167 70.6667 243.5 58L244.5 59.5L236 67.5L244 65.5V67C230.8 69.4 209.167 85.6667 200 93.5Z" fill="url(#paint1_linear_934_1753)"/>
</g>
<g filter="url(#filter2_n_934_1753)">
<path d="M107 3C95.4 47 106.833 88.6667 114 104C114 94 124.333 75.8333 129.5 68C129.5 58.1667 129.4 38.3 129 37.5C128.6 36.7 130.5 37.1667 131.5 37.5L133 62C138.6 53.6 148.333 40.1667 152.5 34.5L146.5 47L156.5 35.5V38.5C128.1 69.3 120.667 102 120.5 114.5C118.551 130.094 124.992 178.3 128.715 202.184C128.902 203.387 128.807 204.624 128.457 205.79C112.37 259.462 120.066 289.258 126 297.5C128 301.9 147.5 307.667 157 310H34.5C36.1 308 53.5 300.833 62 297.5C80.4 283.9 99.6667 233.167 107 209.5C117.4 167.5 106 95.3333 99 64.5C97 60.5 86.5 37.8333 81.5 27C87.1 37.8 95.5 48.8333 99 53C99 49.8 98.3333 37.6667 98 32C97.2 27.6 91.3333 8.83333 88.5 0H90.5C96.1 22 99.5 26.8333 100.5 26.5L105 3H107Z" fill="url(#paint2_linear_934_1753)"/>
</g>
<g filter="url(#filter3_n_934_1753)">
<path d="M157 310C121.4 299.6 123.094 235.333 128.427 203C108.027 277.8 113.573 309 129.5 310H157Z" fill="#AE8B85"/>
</g>
<defs>
<filter id="filter0_n_934_1753" x="0" y="85" width="118" height="165.5" filterUnits="userSpaceOnUse" color-interpolation-filters="sRGB">
<feFlood flood-opacity="0" result="BackgroundImageFix"/>
<feBlend mode="normal" in="SourceGraphic" in2="BackgroundImageFix" result="shape"/>
<feTurbulence type="fractalNoise" baseFrequency="10 10" stitchTiles="stitch" numOctaves="3" result="noise" seed="9117" />
<feColorMatrix in="noise" type="luminanceToAlpha" result="alphaNoise" />
<feComponentTransfer in="alphaNoise" result="coloredNoise1">
<feFuncA type="discrete" tableValues="1 1 1 1 1 1 1 1 1 1 1 1 1 1 1 1 1 1 1 1 1 1 1 1 1 1 1 1 1 1 1 1 1 1 1 1 1 1 1 1 1 1 1 1 1 1 1 1 1 1 1 0 0 0 0 0 0 0 0 0 0 0 0 0 0 0 0 0 0 0 0 0 0 0 0 0 0 0 0 0 0 0 0 0 0 0 0 0 0 0 0 0 0 0 0 0 0 0 0 0 "/>
</feComponentTransfer>
<feComposite operator="in" in2="shape" in="coloredNoise1" result="noise1Clipped" />
<feFlood flood-color="rgba(0, 0, 0, 0.25)" result="color1Flood" />
<feComposite operator="in" in2="noise1Clipped" in="color1Flood" result="color1" />
<feMerge result="effect1_noise_934_1753">
<feMergeNode in="shape" />
<feMergeNode in="color1" />
</feMerge>
</filter>
<filter id="filter1_n_934_1753" x="117" y="58" width="127.5" height="156" filterUnits="userSpaceOnUse" color-interpolation-filters="sRGB">
<feFlood flood-opacity="0" result="BackgroundImageFix"/>
<feBlend mode="normal" in="SourceGraphic" in2="BackgroundImageFix" result="shape"/>
<feTurbulence type="fractalNoise" baseFrequency="10 10" stitchTiles="stitch" numOctaves="3" result="noise" seed="3328" />
<feColorMatrix in="noise" type="luminanceToAlpha" result="alphaNoise" />
<feComponentTransfer in="alphaNoise" result="coloredNoise1">
<feFuncA type="discrete" tableValues="1 1 1 1 1 1 1 1 1 1 1 1 1 1 1 1 1 1 1 1 1 1 1 1 1 1 1 1 1 1 1 1 1 1 1 1 1 1 1 1 1 1 1 1 1 1 1 1 1 1 1 0 0 0 0 0 0 0 0 0 0 0 0 0 0 0 0 0 0 0 0 0 0 0 0 0 0 0 0 0 0 0 0 0 0 0 0 0 0 0 0 0 0 0 0 0 0 0 0 0 "/>
</feComponentTransfer>
<feComposite operator="in" in2="shape" in="coloredNoise1" result="noise1Clipped" />
<feFlood flood-color="rgba(28, 13, 13, 0.25)" result="color1Flood" />
<feComposite operator="in" in2="noise1Clipped" in="color1Flood" result="color1" />
<feMerge result="effect1_noise_934_1753">
<feMergeNode in="shape" />
<feMergeNode in="color1" />
</feMerge>
</filter>
<filter id="filter2_n_934_1753" x="34.5" y="0" width="122.5" height="310" filterUnits="userSpaceOnUse" color-interpolation-filters="sRGB">
<feFlood flood-opacity="0" result="BackgroundImageFix"/>
<feBlend mode="normal" in="SourceGraphic" in2="BackgroundImageFix" result="shape"/>
<feTurbulence type="fractalNoise" baseFrequency="10 10" stitchTiles="stitch" numOctaves="3" result="noise" seed="4102" />
<feColorMatrix in="noise" type="luminanceToAlpha" result="alphaNoise" />
<feComponentTransfer in="alphaNoise" result="coloredNoise1">
<feFuncA type="discrete" tableValues="1 1 1 1 1 1 1 1 1 1 1 1 1 1 1 1 1 1 1 1 1 1 1 1 1 1 1 1 1 1 1 1 1 1 1 1 1 1 1 1 1 1 1 1 1 1 1 1 1 1 1 0 0 0 0 0 0 0 0 0 0 0 0 0 0 0 0 0 0 0 0 0 0 0 0 0 0 0 0 0 0 0 0 0 0 0 0 0 0 0 0 0 0 0 0 0 0 0 0 0 "/>
</feComponentTransfer>
<feComposite operator="in" in2="shape" in="coloredNoise1" result="noise1Clipped" />
<feFlood flood-color="rgba(72, 35, 35, 0.25)" result="color1Flood" />
<feComposite operator="in" in2="noise1Clipped" in="color1Flood" result="color1" />
<feMerge result="effect1_noise_934_1753">
<feMergeNode in="shape" />
<feMergeNode in="color1" />
</feMerge>
</filter>
<filter id="filter3_n_934_1753" x="115.229" y="203" width="41.7708" height="107" filterUnits="userSpaceOnUse" color-interpolation-filters="sRGB">
<feFlood flood-opacity="0" result="BackgroundImageFix"/>
<feBlend mode="normal" in="SourceGraphic" in2="BackgroundImageFix" result="shape"/>
<feTurbulence type="fractalNoise" baseFrequency="10 10" stitchTiles="stitch" numOctaves="3" result="noise" seed="7161" />
<feColorMatrix in="noise" type="luminanceToAlpha" result="alphaNoise" />
<feComponentTransfer in="alphaNoise" result="coloredNoise1">
<feFuncA type="discrete" tableValues="1 1 1 1 1 1 1 1 1 1 1 1 1 1 1 1 1 1 1 1 1 1 1 1 1 1 1 1 1 1 1 1 1 1 1 1 1 1 1 1 1 1 1 1 1 1 1 1 1 1 1 0 0 0 0 0 0 0 0 0 0 0 0 0 0 0 0 0 0 0 0 0 0 0 0 0 0 0 0 0 0 0 0 0 0 0 0 0 0 0 0 0 0 0 0 0 0 0 0 0 "/>
</feComponentTransfer>
<feComposite operator="in" in2="shape" in="coloredNoise1" result="noise1Clipped" />
<feFlood flood-color="rgba(139, 47, 47, 0.25)" result="color1Flood" />
<feComposite operator="in" in2="noise1Clipped" in="color1Flood" result="color1" />
<feMerge result="effect1_noise_934_1753">
<feMergeNode in="shape" />
<feMergeNode in="color1" />
</feMerge>
</filter>
<linearGradient id="paint0_linear_934_1753" x1="59" y1="85" x2="59" y2="250.5" gradientUnits="userSpaceOnUse">
<stop stop-color="#6C5D58"/>
<stop offset="0.389423" stop-color="#896F6A"/>
<stop offset="1" stop-color="#60433D"/>
</linearGradient>
<linearGradient id="paint1_linear_934_1753" x1="180.75" y1="58" x2="180.75" y2="214" gradientUnits="userSpaceOnUse">
<stop stop-color="#6C5D58"/>
<stop offset="1" stop-color="#80615D"/>
</linearGradient>
<linearGradient id="paint2_linear_934_1753" x1="95.75" y1="0" x2="95.75" y2="310" gradientUnits="userSpaceOnUse">
<stop stop-color="#6C5D58"/>
<stop offset="0.885658" stop-color="#856C67"/>
<stop offset="1" stop-color="#6B4B46"/>
</linearGradient>
</defs>
</svg>
