<svg width="963" height="415" viewBox="0 0 963 415" fill="none" xmlns="http://www.w3.org/2000/svg" data-tree="1" data-figma-id="1147:1003">
<g data-role="island" filter="url(#filter0_n_1147_1003)">
<path d="M33.1659 266.239L6.34008 239.018C4.48295 237.133 3.44189 234.594 3.44189 231.948C3.44189 226.388 7.94702 221.88 13.507 221.876L942.643 221.214C948.449 221.21 953.158 225.916 953.158 231.722C953.158 234.668 951.921 237.479 949.749 239.469L934.094 253.814L910.363 274.791C903.396 280.95 894.956 285.205 885.861 287.144L792.778 306.995C783.705 308.93 775.35 313.352 768.648 319.767C744.564 342.82 713.355 356.995 680.149 359.965L616.653 365.642C611.556 366.098 606.716 367.872 602.415 370.645C582.421 383.536 519.893 420.478 470.441 413.03C416.079 404.843 378.212 382.683 362.667 372.106C357.423 368.539 351.347 366.195 345.01 365.93L287.568 363.528C255.953 362.206 225.609 350.719 201.045 330.772L184.072 316.99C176.961 311.215 168.497 307.345 159.478 305.742L100.44 295.253C97.2744 294.69 94.1657 293.846 91.1506 292.731L51.4312 278.038C44.551 275.492 38.3151 271.464 33.1659 266.239Z" fill="url(#paint0_linear_1147_1003)"/>
<path d="M31.9017 266.522L5.153 239.264C3.29988 237.376 2.26172 234.836 2.26172 232.19C2.26172 226.615 6.77933 222.094 12.3547 222.09L535.25 221.716C541.881 221.711 547.259 227.085 547.259 233.716V265.781C546.781 282.911 541.323 305.55 538.654 314.728C532.864 333.202 511.6 369.377 501.691 385.156C498.065 393.255 488.191 400.786 478.989 406.225C470.347 411.333 460.006 412.431 450.201 410.276C405.603 400.476 374.418 382.007 360.673 372.619C355.421 369.032 349.339 366.681 342.983 366.414L285.995 364.021C254.285 362.69 223.858 351.132 199.261 331.075L182.509 317.414C175.39 311.609 166.909 307.716 157.867 306.103L99.0617 295.611C95.8855 295.044 92.7663 294.194 89.7418 293.07L50.1765 278.372C43.2882 275.813 37.0485 271.767 31.9017 266.522Z" fill="url(#paint1_linear_1147_1003)"/>
<path d="M335.193 260.432L234.493 254.458C226.912 273.701 240.792 293.049 248.68 300.317L278.701 312.244L313.89 360.755L355.674 363.159C373.643 377.723 387.249 379.475 391.807 378.53C389.55 377.134 386.152 365.015 383.905 358.978C382.625 346.372 376.326 329.56 374.352 323.825C358.558 314.654 337.433 276.833 335.193 260.432Z" fill="url(#paint2_linear_1147_1003)" fill-opacity="0.88"/>
<path d="M234.524 254.395C232.965 268.532 239.135 297.733 276.289 301.444C284.346 303.717 299.809 313.067 297.201 332.277C301.146 338.513 308.093 349.27 311.853 354.432C312.801 355.524 313.661 356.513 314.395 357.357C314.172 357.453 313.225 356.314 311.853 354.432C306.018 347.707 296.846 337.068 292.936 332.277C286.355 325.295 267.341 311.988 243.933 314.613C232.334 316.231 206.833 313.243 197.629 288.357C198.005 296.97 207.792 315.281 243.933 319.613C250.871 322.14 265.651 329.534 269.273 338.892C274.038 342.51 284.183 350.636 286.645 354.193C276.448 346.3 251.897 329.721 235.273 326.551C241.217 333.926 253.538 348.895 255.279 349.769C251.394 355.441 230.204 357.896 176.378 309.315C169.688 306.402 151.017 301.13 140.346 298.596C130.363 285.438 109.966 261.848 104.696 242.433L102.513 237.682C142.219 240.915 224.21 248.783 234.524 254.395Z" fill="url(#paint3_linear_1147_1003)"/>
<path d="M381.423 263.282H372.811C377.389 276.922 386.543 304.574 386.543 306.058C394.224 332.232 405.164 340.916 406.095 343.488C416.894 352.457 422.387 367.959 423.784 374.588C423.784 362.242 413.387 346.996 408.189 340.916C399.438 325.95 386.699 282.924 381.423 263.282Z" fill="url(#paint4_linear_1147_1003)"/>
<path d="M372.811 321.549C355.209 311.944 339.475 276.687 333.808 260.259H331.039C335.793 276.455 348.154 295.817 353.741 303.473C357.747 310.611 367.215 318.976 371.448 322.267C376.558 326.054 380.605 342.242 381.989 349.863C383.477 364.863 389.306 373.537 392.034 375.999C388.699 372.536 385.549 362.128 384.391 357.357C380.723 332.279 375.142 323.036 372.811 321.549Z" fill="url(#paint5_linear_1147_1003)"/>
<path d="M430.587 346.631C426.611 341.657 427.118 334.635 427.868 331.746C431.579 318.547 428.374 305.121 426.247 299.881C432.228 313.051 432.07 322.781 431.243 326C426.818 335.872 428.962 343.867 430.587 346.631Z" fill="url(#paint6_linear_1147_1003)"/>
<path d="M440.433 331.087C450.747 339.534 465.825 361.289 443.621 380.733C451.028 372.725 460.761 351.586 440.433 331.087Z" fill="url(#paint7_linear_1147_1003)"/>
<path d="M104.129 239.18L95.5349 237.682C99.6207 247.496 109.35 260.629 113.704 265.969C125.961 284.559 139.812 298.592 141.285 298C139.223 297.408 118.713 270.113 118.713 268.781C112.349 261.203 106.339 245.889 104.129 239.18Z" fill="url(#paint8_linear_1147_1003)"/>
<path d="M238.865 273.41C236.363 257.489 232.903 253.24 231.487 253.105C229.241 256.651 233.705 267.421 236.218 272.362C242.827 290.604 251.376 293.768 254.825 293.07C246.74 290.62 240.816 278.943 238.865 273.41Z" fill="url(#paint9_linear_1147_1003)"/>
<path d="M88.4284 238.927L76.33 237.682C79.3022 250.009 91.985 262.79 97.9548 267.639C109.31 275.908 111.133 285.441 110.625 289.173L135.012 293.576C133.946 290.666 118.31 272.392 110.625 263.619C102.851 259.944 92.5883 245.626 88.4284 238.927Z" fill="url(#paint10_linear_1147_1003)"/>
<path d="M74.4362 238.927L62.3377 237.682C65.31 250.009 77.9927 262.79 83.9626 267.639C95.318 275.908 97.1408 285.441 96.6327 289.173L121.02 293.576C120.217 291.384 111.145 280.474 103.434 271.474C98.9741 266.269 93.2913 262.135 88.5021 257.232C82.7954 251.389 77.2347 243.434 74.4362 238.927Z" fill="url(#paint11_linear_1147_1003)"/>
<path d="M448.123 265.128H440.068C442.484 292.043 461.435 311.982 470.609 318.587C492.663 336.569 483.731 369.055 476.508 383.05C497.988 348.059 482.645 322.227 472.288 313.684C451.575 299.04 447.548 275.212 448.123 265.128Z" fill="url(#paint12_linear_1147_1003)"/>
<path d="M421.067 289.887C408.921 280.254 408.149 269.367 409.281 265.128C409.281 267.799 414.208 276.325 416.671 280.254C428.018 292.355 428.99 303.492 428.058 307.549C427.419 298.718 423.131 292.095 421.067 289.887Z" fill="url(#paint13_linear_1147_1003)"/>
<path d="M299.409 275.237C293.336 259.984 296.213 259.381 298.41 260.987C311.576 277.867 330.665 317.392 338.563 335.044L323.581 315.175C317.029 310.84 304.736 286.743 299.409 275.237Z" fill="url(#paint14_linear_1147_1003)"/>
<path d="M166.019 250.148C177.431 258.014 196.274 287.211 196.407 288.011C201.079 299.316 213.658 308.986 219.363 312.408C208.853 308.782 198.972 298.01 195.345 293.077L179.023 273.879C162.568 255.427 163.497 250.37 166.019 250.148Z" fill="url(#paint15_linear_1147_1003)"/>
<path d="M762.37 254.298L705.377 259.618C705.377 268.778 692.082 294.631 685.434 306.412L687.539 307.674C735.548 287.766 757.43 263.795 762.37 254.298Z" fill="url(#paint16_linear_1147_1003)"/>
<path d="M772.688 313.806C780.585 309.205 798.079 251.014 799.466 250.119C800.883 249.205 843.018 247.752 863.148 245.702C858.029 268.71 835.839 287.381 825.384 293.84C822.792 297.29 781.216 310.954 772.688 313.806C772.521 313.904 772.358 313.977 772.2 314.025C770.584 314.52 770.95 314.388 772.688 313.806Z" fill="url(#paint17_linear_1147_1003)"/>
<path d="M577.622 269.516L572.632 270.219C573.887 279.661 572.109 300.756 571.063 310.123C565.771 325.955 552.511 349.037 546.542 358.599C542.551 364.332 530.433 376.537 524.873 381.923C528.18 381.249 540.697 368.435 546.542 362.112C547.113 365.934 544.784 376.912 543.549 381.923C547.198 377.54 549.061 365.765 549.536 360.426C556.037 350.421 569.258 322.722 575.056 310.123C578.135 302.817 578.05 280.008 577.622 269.516Z" fill="url(#paint18_linear_1147_1003)"/>
<path d="M606.317 302.029C609.413 286.137 616.959 274.853 620.346 271.198C612.46 285.857 608.282 305.177 607.179 313.005C600.79 328.492 589.752 338.416 585.032 341.443L594.707 329.364C601.802 321.609 605.403 307.909 606.317 302.029Z" fill="url(#paint19_linear_1147_1003)"/>
<path d="M634.52 265.779H631.498L628.918 303.326C627.231 311.575 620.418 320.207 619.315 320.783C606.754 333.623 605.991 341.319 607.179 343.562C607.179 341.039 611.468 333.912 613.612 330.663C621.755 322.039 628.929 310.636 631.498 306.013C632.777 304.637 634.045 278.617 634.52 265.779Z" fill="url(#paint20_linear_1147_1003)"/>
<path d="M586.696 377.666C587.11 377.258 604.357 353.079 606.003 348.134C606.027 348.051 606.051 347.97 606.075 347.89C606.056 347.965 606.032 348.046 606.003 348.134C603.977 354.867 597.417 369.806 586.696 377.666Z" fill="url(#paint21_linear_1147_1003)"/>
<path d="M677.721 261.879L674.5 262.238C674.5 262.524 672.654 279.259 671.731 287.591C670.316 297.646 661.554 312.346 657.35 318.439C668.078 308.659 673.253 293.517 674.5 287.168L677.721 261.879Z" fill="url(#paint22_linear_1147_1003)"/>
<path d="M651.993 339.752C691.366 306.016 703.041 272.752 703.956 260.337L705.665 259.717V260.337C704.516 274.706 693.179 295.808 687.654 304.562C686.239 306.74 688.243 306.437 689.422 306.013C692.25 303.166 709.091 295.945 717.157 292.691C734.13 284.184 754.359 263.589 762.352 254.356H765.778C757.026 274.133 723.824 292.8 708.317 299.661C695.853 302.624 681.813 314.976 676.352 320.783C668.952 332.598 651.386 354.12 643.528 363.404C641.382 364.625 632.894 364.591 628.918 364.421C630.436 362.794 644.934 347.297 651.993 339.752Z" fill="url(#paint23_linear_1147_1003)"/>
<path d="M732.604 302.029C717.733 307.402 694.444 320.049 684.658 325.701C711.685 318.489 730.145 307.779 735.997 303.326C760.262 288.566 764.597 280.784 763.731 278.738C760.545 286.115 741.652 297.339 732.604 302.029Z" fill="url(#paint24_linear_1147_1003)"/>
<path d="M700.443 341.443C673.889 344.266 659.481 355.274 655.596 360.426C663.739 353.543 688.887 346.315 700.443 343.562C728.414 334.587 737.767 324.636 738.947 320.783C730.804 330.573 709.885 338.636 700.443 341.443Z" fill="url(#paint25_linear_1147_1003)"/>
<path d="M753.455 311.541C753.184 312.609 743.565 319.966 741.669 325.701C745.597 322.361 753.455 314.852 753.455 311.541Z" fill="url(#paint26_linear_1147_1003)"/>
<path d="M822.798 276.919C817.712 283.554 795.996 291.479 785.774 294.612C807.411 284.776 818.175 278.181 820.852 276.113C827.608 263.653 829.87 252.784 830.156 248.906H831.961C830.614 260.849 825.291 272.558 822.798 276.919Z" fill="url(#paint27_linear_1147_1003)"/>
<path d="M864.641 245.32L861.746 246.034C857.693 269.717 835.449 284.911 824.833 289.548C803.216 296.681 788.483 305.043 783.819 308.333C797.04 307.477 812.81 302.903 819.043 300.724C851.661 281.416 863.033 255.743 864.641 245.32Z" fill="url(#paint28_linear_1147_1003)"/>
<path d="M840.04 296.79C839.885 296.908 839.761 296.991 839.671 297.038C839.794 296.955 839.917 296.873 840.04 296.79C843.796 293.939 865.64 271.154 866.451 269.099C865.173 273.271 858.103 284.614 840.04 296.79Z" fill="url(#paint29_linear_1147_1003)"/>
<path d="M891.936 242.074L887.645 242.394C888.685 250.53 879.715 266.29 882.185 264.816C884.161 263.637 889.509 249.163 891.936 242.074Z" fill="url(#paint30_linear_1147_1003)"/>
<path d="M922.486 236.564C921.511 236.778 919.483 237.243 919.171 237.397C915.986 245.213 909.928 260.601 911.176 259.627C912.424 258.653 919.236 243.846 922.486 236.564Z" fill="url(#paint31_linear_1147_1003)"/>
<path d="M948.132 221.82C545.414 164.017 158.884 193.361 6.57041 222.576C3.55872 223.154 2.77958 226.472 5.47442 227.936C23.4801 237.714 70.7591 243.595 94.7611 245.451C125.152 250.342 184.117 253.77 209.802 254.873C219.259 258.732 271.429 261.918 296.331 263.028C299.828 262.842 351.403 266.815 376.753 268.825C387.243 269.39 408.441 270.521 409.315 270.521H448.138C466.69 273.481 522.758 272.469 548.474 271.593C562.678 272.248 659.635 264.221 706.338 260.125C718.072 260.453 776.843 253.163 804.762 249.477C872.155 248.128 922.834 236.956 948.876 228.668C952.72 227.445 952.125 222.394 948.132 221.82Z" fill="url(#paint32_linear_1147_1003)"/>
<path d="M133.713 234.135C124.092 231.535 69.7468 233.615 67.6665 234.135C74.4812 235.396 100.356 235.249 112.441 235.019C120.968 234.8 130.175 234.338 133.713 234.135Z" fill="url(#paint33_linear_1147_1003)"/>
<path d="M133.713 238.651C141.934 237.721 160.049 236.226 166.744 237.681C161.664 238.773 147.945 240.495 133.713 238.651Z" fill="url(#paint34_linear_1147_1003)"/>
<path d="M160.356 242.626C173.792 241.886 201.665 240.851 205.659 242.626C193.711 243.703 167.923 245.211 160.356 242.626Z" fill="url(#paint35_linear_1147_1003)"/>
<path d="M214.905 240.592C221.561 239.298 235.911 237.099 240.053 238.651C236.971 239.606 227.627 241.331 214.905 240.592Z" fill="url(#paint36_linear_1147_1003)"/>
<path d="M243.668 252.29C255.358 251.476 279.004 250.336 280.07 252.29C271.265 253.251 251.659 254.598 243.668 252.29Z" fill="url(#paint37_linear_1147_1003)"/>
<path d="M287.838 249.848C301.23 248.516 330.01 246.652 338.001 249.848C323.869 250.292 294.053 250.913 287.838 249.848Z" fill="url(#paint38_linear_1147_1003)"/>
<path d="M338.001 253.593C344.107 253.119 356.941 252.456 359.421 253.593C354.14 254.411 342.463 255.556 338.001 253.593Z" fill="url(#paint39_linear_1147_1003)"/>
<path d="M364.071 253.593C370.1 252.99 382.699 252.275 384.869 254.239C378.884 254.712 366.345 255.246 364.071 253.593Z" fill="url(#paint40_linear_1147_1003)"/>
<path d="M391.848 247.59C392.437 247.355 424.727 246.294 426.377 247.59C418.996 248.633 401.756 250.093 391.848 247.59Z" fill="url(#paint41_linear_1147_1003)"/>
<path d="M454.612 258.202C455.602 257.872 523.077 254.243 535.615 258.202C509.384 258.862 456.46 259.786 454.612 258.202Z" fill="url(#paint42_linear_1147_1003)"/>
<path d="M553.766 247.4C571.638 249.015 608.196 252.839 611.455 255.223C594.507 253.919 559.241 250.529 553.766 247.4Z" fill="url(#paint43_linear_1147_1003)"/>
<path d="M622.7 249.03C629.599 249.247 644.016 250.236 646.493 252.452C640.517 252.615 627.393 252.159 622.7 249.03Z" fill="url(#paint44_linear_1147_1003)"/>
<path d="M661.485 242.837C673.11 241.86 697.924 240.817 704.182 244.467C693.101 244.25 669.047 243.62 661.485 242.837Z" fill="url(#paint45_linear_1147_1003)"/>
<path d="M729.864 235.839C727.969 235.917 726.277 236.004 724.847 236.091C725.534 235.872 727.321 235.801 729.864 235.839C742.072 235.334 762.726 235.173 776.175 237.478C789.308 238.126 816.683 238.755 821.122 236.091C821.439 238.34 812.744 242.099 775.426 239.147C763.059 237.958 740.206 235.994 729.864 235.839Z" fill="url(#paint46_linear_1147_1003)"/>
<path d="M659.208 257.12C664.997 258.01 670.472 261.519 672.486 263.162H669.227C669.163 262.272 662.521 258.763 659.208 257.12Z" fill="url(#paint47_linear_1147_1003)"/>
<path d="M746.241 222.085C747.323 222.206 785.429 223.648 793.483 225.451C781.289 225.578 754.77 225.083 746.241 222.085Z" fill="url(#paint48_linear_1147_1003)"/>
<path d="M746.241 214.827C768.048 215.672 811.678 217.231 814.314 216.815C814.345 216.808 814.375 216.801 814.405 216.795C814.385 216.802 814.354 216.809 814.314 216.815C807.637 218.281 784.854 219.909 746.241 214.827Z" fill="url(#paint49_linear_1147_1003)"/>
<g filter="url(#filter1_n_1147_1003)">
<path d="M286.702 231.859V195.151C179.937 195.151 31.7653 216.752 6.88428 222.631C16.9101 225.639 222.67 231.564 286.702 231.859Z" fill="url(#paint50_linear_1147_1003)"/>
</g>
<path d="M535.647 138.173L380.876 152.199L386.635 142.136L364.353 146.592L335.446 150.796C329.104 151.718 323.078 154.15 317.873 157.887L285.412 181.194C280.347 184.83 274.601 187.393 268.762 189.579C253.358 195.346 230.53 206.836 219.227 212.858C209.239 217.372 204.438 220.631 202.399 222.719C201.073 224.077 202.221 225.466 204.1 225.74C224.381 228.693 293.811 232.373 330.171 234.032C332.085 234.12 333.97 234.376 335.838 234.803L346.08 237.141C364.81 239.532 475.001 239.889 527.755 239.768C570.37 239.342 682.574 228.272 738.942 222.201C740.861 221.994 741.368 219.482 739.681 218.545C713.862 204.204 683.948 192.174 667.293 186.176C663.233 184.714 659.355 182.812 655.778 180.398L630.597 163.4C619.695 156.041 607.183 151.412 594.117 149.905L569.233 147.034C565.106 146.558 561.076 145.457 557.28 143.77L550.043 140.554C545.526 138.546 540.57 137.727 535.647 138.173Z" fill="url(#paint51_linear_1147_1003)"/>
<path d="M465.081 176.776C467.135 177.411 469.436 177.554 470.33 177.547C478.012 179.09 483.966 190.285 485.983 195.69C491.129 205.359 501.741 211.861 506.403 213.903C529.361 220.879 541.818 233.652 545.177 239.166H542.041C534.305 226.45 516.122 218.79 507.998 216.55C496.447 213.993 487.555 203.01 484.552 197.838C479.996 183.85 470.555 179.381 466.405 178.895L465.081 176.776ZM454.337 189.532C452.029 201.67 443.997 228.413 430.335 238.284L427.482 237.886C432.578 235.349 444.834 222.218 453.088 189.99L454.337 189.532ZM562.133 201.2C566.975 202.411 577.079 205.651 578.766 208.931C578.688 211.078 578.298 216.497 577.361 220.995C579.86 225.446 585.278 234.652 586.965 235.871C586.202 236.503 582.856 234.559 575.581 221.723C575.18 221.409 574.253 219.391 573.752 213.831C573.873 212.611 573.313 209.817 570.093 208.395C566.598 206.212 560.114 201.715 562.133 201.2ZM397.956 140.656C447.492 138.35 527.097 135.729 545.885 139.1C548.619 139.591 549.235 142.14 547.492 144.302C544.066 148.55 537.438 154.101 526.941 156.822C511.653 158.273 472.396 160.578 433.398 158.714C430.032 158.553 426.684 159.173 423.438 160.078C414.273 162.634 397.002 165.195 373.978 162.928C368.261 162.365 362.484 163.726 357.861 167.136C342.651 178.353 320.062 195.403 313.498 201.848C317.124 199.684 324.726 195.285 326.13 195.004C327.359 195.53 331.184 195.636 336.659 191.846C341.309 187.945 352.816 180.086 361.653 179.853C371.003 181.016 390.46 182.993 393.483 181.598C388.8 185.932 380.266 194.564 376.666 200.528C375.205 202.949 374.608 205.791 373.306 208.301C370.844 213.047 366.229 219.71 359.205 224.942C357.311 226.353 355.177 227.388 353.008 228.322C348.205 230.391 341.551 233.435 338.689 235.374C297.711 233.985 214.025 230.355 207.103 226.944C202.458 226.513 196.064 224.128 207.644 218.039C225.825 208.927 264.773 189.935 275.115 186.86C283.729 181.45 302.221 169.553 307.272 165.24C312.096 160.346 326.141 150.386 343.733 149.705C351.603 148.283 365.582 145.689 375.812 143.613C383.121 142.13 390.506 141.003 397.956 140.656ZM355.619 198.492C351.8 200.53 348.42 203.299 345.67 206.642L336.161 218.202C333.905 220.945 331.221 223.305 328.212 225.192L315.004 233.478H317.85L330.324 225.971C333.485 224.068 336.304 221.649 338.665 218.813L347.993 207.61C350.485 204.618 353.487 202.089 356.86 200.142L381.651 185.838L380.898 185L355.619 198.492ZM305.208 214.64C302.796 216.984 288.127 227.451 281.094 232.391H283.104C290.405 229.711 301.719 219.83 306.463 215.225L305.208 214.64ZM462.884 193.29C462.32 199.726 461.622 213.389 463.341 216.55C465.123 219.455 470.859 226.008 479.55 228.982C478.02 230.59 472.114 230.992 460.727 219.745C459.925 217.33 458.702 208.658 460.221 193.29H462.884ZM289.597 204.198C279.669 211.444 258.864 226.581 255.077 229.163C261.074 226.268 276.651 217.62 290.975 206.183C291.721 205.522 292.489 204.198 289.597 204.198ZM439.14 193.29C438.126 197.525 431.529 207.282 413.256 212.429C407.105 215.725 391.958 223.622 380.584 228.846L379.304 226.109L409.412 212.429C414.473 205.922 427.504 192.984 439.14 193.29ZM589.41 206.406C616.102 217.707 617.841 222.936 615.374 224.138C604.663 221.677 593.601 211.291 589.41 206.406ZM264.789 211.459C261.749 213.247 258.309 214.241 254.785 214.349L248.593 214.538C246.387 214.606 244.205 215.02 242.128 215.767L228.821 220.555C231.318 220.269 235.892 219.542 239.792 218.42C243.219 217.434 246.703 216.359 250.267 216.239L254.868 216.084C258.339 215.967 261.728 214.991 264.729 213.243L274.791 207.383C274.992 206.983 275.066 206.183 273.757 206.183L264.789 211.459ZM633.588 209.765C642.17 210.687 658.572 213.778 655.527 218.761C653.798 220.685 646.989 221.581 633.588 209.765ZM330.661 206.183C327.847 208.26 313.357 215.533 306.463 218.91L307.887 219.58C323.494 214.021 330.465 208.333 332.001 206.183H330.661ZM537.971 202.351C551.593 203.104 559.26 213.992 561.391 219.342C555.33 210.831 543.252 204.469 537.971 202.351ZM427.234 171.637C427.008 172.722 422.642 176.905 406.994 184.949C404.413 186.579 399.387 191.633 399.93 198.805C407.305 195.307 425.222 187.841 437.889 185.961L438.058 186.673C425.626 189.814 399.863 198.648 396.27 208.855C395.403 210.899 393.291 214.821 391.78 214.154C392.052 205.4 395.746 186.633 408.352 181.598C409.167 181.598 426.186 173.131 427.234 171.637ZM624.523 190.04C626.738 194.026 638.918 199.141 644.731 201.2C632.385 200.162 626.115 193.327 624.523 190.04ZM351.76 168.897C343.799 169.251 335.08 172.609 329.112 175.547C325.544 177.303 322.437 179.857 319.205 182.173C310.048 188.733 291.834 199.659 290.975 199.76C292.077 200.457 293.591 200.412 294.211 200.303C301.615 197.567 317.655 185.957 324.749 180.494C330.644 175.872 345.213 171.731 351.76 170.237V168.897ZM537.971 159.224C534.049 152.649 556.213 166.631 567.785 174.444C602.146 191.057 610.257 197.211 610.018 198.212C602.04 193.226 578.538 181.666 567.785 176.509C557.813 174.599 543.754 164.19 537.971 159.224ZM510.583 178.895C519.101 179.975 525.038 182.023 526.941 182.912C535.689 186.524 533.807 190.336 531.772 191.79C528.037 193.229 524.195 189.991 522.741 188.192C520.475 185.743 513.691 180.974 510.583 178.895ZM586.074 166.037C585.885 164.88 586.523 165.555 586.865 166.037C591.326 171.773 596.476 175.135 598.494 176.1C600.333 175.973 604.999 177.016 607.103 177.554C626.044 184.821 620.002 186.305 614.614 186.138C600.193 183.219 589.579 171.521 586.074 166.037ZM523.931 166.702C539.562 169.774 546.614 178.314 548.186 182.199C544.144 177.404 530.332 169.87 523.931 166.702Z" fill="url(#paint52_linear_1147_1003)"/>
<path d="M482.357 171.076C472.784 172.871 456.306 167.462 449.263 164.532C447.67 164.532 448.06 165.659 448.453 166.222C463.122 174.642 477.74 173.826 483.216 172.366L482.357 171.076Z" fill="url(#paint53_linear_1147_1003)"/>
<path d="M482.357 222.84C482.357 229.442 480.682 236.828 479.844 239.696H483.216V238.818C485.914 232.497 482.357 222.84 482.357 222.84Z" fill="url(#paint54_linear_1147_1003)"/>
<path d="M509.16 204.457C518.894 209.569 540.385 220.706 548.477 224.36C544.02 220.064 529.916 210.069 509.16 204.457Z" fill="url(#paint55_linear_1147_1003)"/>
<path d="M606.445 207.197C599.165 204.035 556.634 194.179 555.819 194.179V195.946C571.852 199.652 594.191 207.442 603.357 210.874C607.475 211.05 607.131 208.496 606.445 207.197Z" fill="url(#paint56_linear_1147_1003)"/>
<path d="M639.216 192.252C636.517 190.711 625.553 180.842 620.409 176.101C622.421 174.376 633.909 186.068 639.621 191.883L647.003 202.84C657.397 212.086 665.824 219.818 668.289 222.689C662.489 220.966 652.281 210.007 647.902 204.743C645.777 201.929 641.226 195.243 639.216 192.252Z" fill="url(#paint57_linear_1147_1003)"/>
<path d="M681.198 205.763C687.276 210.715 700.35 220.701 704.024 221.025C699.522 216.568 688.654 207.276 681.198 205.763Z" fill="url(#paint58_linear_1147_1003)"/>
<path d="M681.192 205.883C686.434 207.924 698.275 213.744 703.711 220.698C697.351 217.116 683.942 209.138 681.192 205.883Z" fill="#B16C46"/>
</g>
<g data-role="tree" filter="url(#filter2_n_1147_1003)">
<path d="M422.654 153.03C460.579 149.704 466.179 86.8352 464.239 56.34C468.231 56.34 467.565 95.7065 466.734 115.39C466.068 143.334 494.457 152.199 509.15 153.03H422.654Z" fill="url(#paint59_linear_1147_1003)"/>
</g>
<g data-role="tree" filter="url(#filter3_n_1147_1003)">
<path d="M461.532 51.3167L465.07 58.835C466.401 -5.03861 422.932 -4.37326 401.031 3.94361C406.257 3.94361 411.169 6.44002 414.25 10.6619L428.627 30.3642C430.699 33.2032 433.556 35.3736 436.847 36.6077L451.566 42.1272C455.959 43.7745 459.535 47.0718 461.532 51.3167Z" fill="url(#paint60_linear_1147_1003)"/>
</g>
<g data-role="tree" filter="url(#filter4_n_1147_1003)">
<path d="M465.734 53.5221L464.26 56.5549C463.327 13.2151 493.798 13.6665 509.15 19.3097C505.479 19.3097 502.021 21.0335 499.811 23.965L490.793 35.9269C488.696 38.7088 485.836 40.8223 482.561 42.0111L475.781 44.4724C471.383 46.0687 467.78 49.3145 465.734 53.5221Z" fill="url(#paint61_linear_1147_1003)"/>
</g>
<defs>
<filter id="filter0_n_1147_1003" x="2.26172" y="137.492" width="950.896" height="276.521" filterUnits="userSpaceOnUse" color-interpolation-filters="sRGB">
<feFlood flood-opacity="0" result="BackgroundImageFix"/>
<feBlend mode="normal" in="SourceGraphic" in2="BackgroundImageFix" result="shape"/>
<feTurbulence type="fractalNoise" baseFrequency="5 5" stitchTiles="stitch" numOctaves="3" result="noise" seed="1005" />
<feColorMatrix in="noise" type="luminanceToAlpha" result="alphaNoise" />
<feComponentTransfer in="alphaNoise" result="coloredNoise1">
<feFuncA type="discrete" tableValues="1 1 1 1 1 1 1 1 1 1 1 1 1 1 1 1 1 1 1 1 1 1 1 1 1 1 1 1 1 1 1 1 1 1 1 1 1 1 1 1 1 1 1 1 1 1 1 1 1 1 1 0 0 0 0 0 0 0 0 0 0 0 0 0 0 0 0 0 0 0 0 0 0 0 0 0 0 0 0 0 0 0 0 0 0 0 0 0 0 0 0 0 0 0 0 0 0 0 0 0 "/>
</feComponentTransfer>
<feComposite operator="in" in2="shape" in="coloredNoise1" result="noise1Clipped" />
<feFlood flood-color="rgba(201, 118, 118, 0.17)" result="color1Flood" />
<feComposite operator="in" in2="noise1Clipped" in="color1Flood" result="color1" />
<feMerge result="effect1_noise_1147_1003">
<feMergeNode in="shape" />
<feMergeNode in="color1" />
</feMerge>
</filter>
<filter id="filter1_n_1147_1003" x="6.88428" y="195.151" width="279.818" height="36.7084" filterUnits="userSpaceOnUse" color-interpolation-filters="sRGB">
<feFlood flood-opacity="0" result="BackgroundImageFix"/>
<feBlend mode="normal" in="SourceGraphic" in2="BackgroundImageFix" result="shape"/>
<feTurbulence type="fractalNoise" baseFrequency="5 5" stitchTiles="stitch" numOctaves="3" result="noise" seed="1360" />
<feColorMatrix in="noise" type="luminanceToAlpha" result="alphaNoise" />
<feComponentTransfer in="alphaNoise" result="coloredNoise1">
<feFuncA type="discrete" tableValues="1 1 1 1 1 1 1 1 1 1 1 1 1 1 1 1 1 1 1 1 1 1 1 1 1 1 1 1 1 1 1 1 1 1 1 1 1 1 1 1 1 1 1 1 1 1 1 1 1 1 1 0 0 0 0 0 0 0 0 0 0 0 0 0 0 0 0 0 0 0 0 0 0 0 0 0 0 0 0 0 0 0 0 0 0 0 0 0 0 0 0 0 0 0 0 0 0 0 0 0 "/>
</feComponentTransfer>
<feComposite operator="in" in2="shape" in="coloredNoise1" result="noise1Clipped" />
<feFlood flood-color="rgba(194, 48, 48, 0.25)" result="color1Flood" />
<feComposite operator="in" in2="noise1Clipped" in="color1Flood" result="color1" />
<feMerge result="effect1_noise_1147_1003">
<feMergeNode in="shape" />
<feMergeNode in="color1" />
</feMerge>
</filter>
<filter id="filter2_n_1147_1003" x="422.654" y="56.34" width="86.4955" height="96.6906" filterUnits="userSpaceOnUse" color-interpolation-filters="sRGB">
<feFlood flood-opacity="0" result="BackgroundImageFix"/>
<feBlend mode="normal" in="SourceGraphic" in2="BackgroundImageFix" result="shape"/>
<feTurbulence type="fractalNoise" baseFrequency="10 10" stitchTiles="stitch" numOctaves="3" result="noise" seed="1277" />
<feColorMatrix in="noise" type="luminanceToAlpha" result="alphaNoise" />
<feComponentTransfer in="alphaNoise" result="coloredNoise1">
<feFuncA type="discrete" tableValues="1 1 1 1 1 1 1 1 1 1 1 1 1 1 1 1 1 1 1 1 1 1 1 1 1 1 1 1 1 1 1 1 1 1 1 1 1 1 1 1 1 1 1 1 1 1 1 1 1 1 1 0 0 0 0 0 0 0 0 0 0 0 0 0 0 0 0 0 0 0 0 0 0 0 0 0 0 0 0 0 0 0 0 0 0 0 0 0 0 0 0 0 0 0 0 0 0 0 0 0 "/>
</feComponentTransfer>
<feComposite operator="in" in2="shape" in="coloredNoise1" result="noise1Clipped" />
<feFlood flood-color="rgba(0, 0, 0, 0.25)" result="color1Flood" />
<feComposite operator="in" in2="noise1Clipped" in="color1Flood" result="color1" />
<feMerge result="effect1_noise_1147_1003">
<feMergeNode in="shape" />
<feMergeNode in="color1" />
</feMerge>
</filter>
<filter id="filter3_n_1147_1003" x="401.031" y="0" width="64.0698" height="58.835" filterUnits="userSpaceOnUse" color-interpolation-filters="sRGB">
<feFlood flood-opacity="0" result="BackgroundImageFix"/>
<feBlend mode="normal" in="SourceGraphic" in2="BackgroundImageFix" result="shape"/>
<feTurbulence type="fractalNoise" baseFrequency="10 10" stitchTiles="stitch" numOctaves="3" result="noise" seed="5432" />
<feColorMatrix in="noise" type="luminanceToAlpha" result="alphaNoise" />
<feComponentTransfer in="alphaNoise" result="coloredNoise1">
<feFuncA type="discrete" tableValues="1 1 1 1 1 1 1 1 1 1 1 1 1 1 1 1 1 1 1 1 1 1 1 1 1 1 1 1 1 1 1 1 1 1 1 1 1 1 1 1 1 1 1 1 1 1 1 1 1 1 1 0 0 0 0 0 0 0 0 0 0 0 0 0 0 0 0 0 0 0 0 0 0 0 0 0 0 0 0 0 0 0 0 0 0 0 0 0 0 0 0 0 0 0 0 0 0 0 0 0 "/>
</feComponentTransfer>
<feComposite operator="in" in2="shape" in="coloredNoise1" result="noise1Clipped" />
<feFlood flood-color="rgba(0, 0, 0, 0.25)" result="color1Flood" />
<feComposite operator="in" in2="noise1Clipped" in="color1Flood" result="color1" />
<feMerge result="effect1_noise_1147_1003">
<feMergeNode in="shape" />
<feMergeNode in="color1" />
</feMerge>
</filter>
<filter id="filter4_n_1147_1003" x="464.239" y="16.6339" width="44.9111" height="39.921" filterUnits="userSpaceOnUse" color-interpolation-filters="sRGB">
<feFlood flood-opacity="0" result="BackgroundImageFix"/>
<feBlend mode="normal" in="SourceGraphic" in2="BackgroundImageFix" result="shape"/>
<feTurbulence type="fractalNoise" baseFrequency="10 10" stitchTiles="stitch" numOctaves="3" result="noise" seed="5234" />
<feColorMatrix in="noise" type="luminanceToAlpha" result="alphaNoise" />
<feComponentTransfer in="alphaNoise" result="coloredNoise1">
<feFuncA type="discrete" tableValues="1 1 1 1 1 1 1 1 1 1 1 1 1 1 1 1 1 1 1 1 1 1 1 1 1 1 1 1 1 1 1 1 1 1 1 1 1 1 1 1 1 1 1 1 1 1 1 1 1 1 1 0 0 0 0 0 0 0 0 0 0 0 0 0 0 0 0 0 0 0 0 0 0 0 0 0 0 0 0 0 0 0 0 0 0 0 0 0 0 0 0 0 0 0 0 0 0 0 0 0 "/>
</feComponentTransfer>
<feComposite operator="in" in2="shape" in="coloredNoise1" result="noise1Clipped" />
<feFlood flood-color="rgba(0, 0, 0, 0.25)" result="color1Flood" />
<feComposite operator="in" in2="noise1Clipped" in="color1Flood" result="color1" />
<feMerge result="effect1_noise_1147_1003">
<feMergeNode in="shape" />
<feMergeNode in="color1" />
</feMerge>
</filter>
<linearGradient id="paint0_linear_1147_1003" x1="478.3" y1="221.207" x2="478.3" y2="414.013" gradientUnits="userSpaceOnUse">
<stop stop-color="#DC9F8B"/>
<stop offset="0.811997" stop-color="#D78A7F"/>
</linearGradient>
<linearGradient id="paint1_linear_1147_1003" x1="61.0385" y1="265.368" x2="539.731" y2="317.148" gradientUnits="userSpaceOnUse">
<stop stop-color="#7A3D4B"/>
<stop offset="1" stop-color="#9F5663"/>
</linearGradient>
<linearGradient id="paint2_linear_1147_1003" x1="351.829" y1="309.196" x2="311.774" y2="378.579" gradientUnits="userSpaceOnUse">
<stop stop-color="#823F4F"/>
<stop offset="1" stop-color="#914D5A"/>
</linearGradient>
<linearGradient id="paint3_linear_1147_1003" x1="157.223" y1="249.138" x2="387.433" y2="370.381" gradientUnits="userSpaceOnUse">
<stop stop-color="#7B3944"/>
<stop offset="0.5" stop-color="#7F3D4A"/>
<stop offset="1" stop-color="#7E3945"/>
</linearGradient>
<linearGradient id="paint4_linear_1147_1003" x1="157.223" y1="249.138" x2="387.433" y2="370.381" gradientUnits="userSpaceOnUse">
<stop stop-color="#7B3944"/>
<stop offset="0.5" stop-color="#7F3D4A"/>
<stop offset="1" stop-color="#7E3945"/>
</linearGradient>
<linearGradient id="paint5_linear_1147_1003" x1="157.223" y1="249.138" x2="387.433" y2="370.381" gradientUnits="userSpaceOnUse">
<stop stop-color="#7B3944"/>
<stop offset="0.5" stop-color="#7F3D4A"/>
<stop offset="1" stop-color="#7E3945"/>
</linearGradient>
<linearGradient id="paint6_linear_1147_1003" x1="157.223" y1="249.138" x2="387.433" y2="370.381" gradientUnits="userSpaceOnUse">
<stop stop-color="#7B3944"/>
<stop offset="0.5" stop-color="#7F3D4A"/>
<stop offset="1" stop-color="#7E3945"/>
</linearGradient>
<linearGradient id="paint7_linear_1147_1003" x1="157.223" y1="249.138" x2="387.433" y2="370.381" gradientUnits="userSpaceOnUse">
<stop stop-color="#7B3944"/>
<stop offset="0.5" stop-color="#7F3D4A"/>
<stop offset="1" stop-color="#7E3945"/>
</linearGradient>
<linearGradient id="paint8_linear_1147_1003" x1="175.18" y1="237.682" x2="175.18" y2="293.157" gradientUnits="userSpaceOnUse">
<stop stop-color="#96403D"/>
<stop offset="1" stop-color="#9E5D63" stop-opacity="0.41"/>
</linearGradient>
<linearGradient id="paint9_linear_1147_1003" x1="175.18" y1="237.682" x2="175.18" y2="293.157" gradientUnits="userSpaceOnUse">
<stop stop-color="#96403D"/>
<stop offset="1" stop-color="#9E5D63" stop-opacity="0.41"/>
</linearGradient>
<linearGradient id="paint10_linear_1147_1003" x1="105.671" y1="237.682" x2="105.671" y2="293.576" gradientUnits="userSpaceOnUse">
<stop stop-color="#8C4858"/>
<stop offset="1" stop-color="#7A3D4B"/>
</linearGradient>
<linearGradient id="paint11_linear_1147_1003" x1="91.679" y1="250.499" x2="76.1793" y2="263.485" gradientUnits="userSpaceOnUse">
<stop stop-color="#7A3444"/>
<stop offset="1" stop-color="#7B3E4B"/>
</linearGradient>
<linearGradient id="paint12_linear_1147_1003" x1="238.962" y1="269.223" x2="318.384" y2="391.583" gradientUnits="userSpaceOnUse">
<stop stop-color="#C67465"/>
<stop offset="1" stop-color="#DC927D"/>
</linearGradient>
<linearGradient id="paint13_linear_1147_1003" x1="238.962" y1="269.223" x2="318.384" y2="391.583" gradientUnits="userSpaceOnUse">
<stop stop-color="#C67465"/>
<stop offset="1" stop-color="#DC927D"/>
</linearGradient>
<linearGradient id="paint14_linear_1147_1003" x1="238.962" y1="269.223" x2="318.384" y2="391.583" gradientUnits="userSpaceOnUse">
<stop stop-color="#C67465"/>
<stop offset="1" stop-color="#DC927D"/>
</linearGradient>
<linearGradient id="paint15_linear_1147_1003" x1="238.962" y1="269.223" x2="318.384" y2="391.583" gradientUnits="userSpaceOnUse">
<stop stop-color="#C67465"/>
<stop offset="1" stop-color="#DC927D"/>
</linearGradient>
<linearGradient id="paint16_linear_1147_1003" x1="863.148" y1="281.364" x2="707.3" y2="249.674" gradientUnits="userSpaceOnUse">
<stop stop-color="#D58C75"/>
<stop offset="0.454968" stop-color="#CE7662"/>
</linearGradient>
<linearGradient id="paint17_linear_1147_1003" x1="863.148" y1="281.364" x2="707.3" y2="249.674" gradientUnits="userSpaceOnUse">
<stop stop-color="#D58C75"/>
<stop offset="0.454968" stop-color="#CE7662"/>
</linearGradient>
<linearGradient id="paint18_linear_1147_1003" x1="723.679" y1="236.564" x2="723.679" y2="294.597" gradientUnits="userSpaceOnUse">
<stop stop-color="#A35B48"/>
<stop offset="0.5" stop-color="#C17468"/>
<stop offset="0.983041" stop-color="#B85555"/>
</linearGradient>
<linearGradient id="paint19_linear_1147_1003" x1="723.679" y1="236.564" x2="723.679" y2="294.597" gradientUnits="userSpaceOnUse">
<stop stop-color="#A35B48"/>
<stop offset="0.5" stop-color="#C17468"/>
<stop offset="0.983041" stop-color="#B85555"/>
</linearGradient>
<linearGradient id="paint20_linear_1147_1003" x1="723.679" y1="236.564" x2="723.679" y2="294.597" gradientUnits="userSpaceOnUse">
<stop stop-color="#A35B48"/>
<stop offset="0.5" stop-color="#C17468"/>
<stop offset="0.983041" stop-color="#B85555"/>
</linearGradient>
<linearGradient id="paint21_linear_1147_1003" x1="723.679" y1="236.564" x2="723.679" y2="294.597" gradientUnits="userSpaceOnUse">
<stop stop-color="#A35B48"/>
<stop offset="0.5" stop-color="#C17468"/>
<stop offset="0.983041" stop-color="#B85555"/>
</linearGradient>
<linearGradient id="paint22_linear_1147_1003" x1="723.679" y1="236.564" x2="723.679" y2="294.597" gradientUnits="userSpaceOnUse">
<stop stop-color="#A35B48"/>
<stop offset="0.5" stop-color="#C17468"/>
<stop offset="0.983041" stop-color="#B85555"/>
</linearGradient>
<linearGradient id="paint23_linear_1147_1003" x1="723.679" y1="236.564" x2="723.679" y2="294.597" gradientUnits="userSpaceOnUse">
<stop stop-color="#A35B48"/>
<stop offset="0.5" stop-color="#C17468"/>
<stop offset="0.983041" stop-color="#B85555"/>
</linearGradient>
<linearGradient id="paint24_linear_1147_1003" x1="723.679" y1="236.564" x2="723.679" y2="294.597" gradientUnits="userSpaceOnUse">
<stop stop-color="#A35B48"/>
<stop offset="0.5" stop-color="#C17468"/>
<stop offset="0.983041" stop-color="#B85555"/>
</linearGradient>
<linearGradient id="paint25_linear_1147_1003" x1="723.679" y1="236.564" x2="723.679" y2="294.597" gradientUnits="userSpaceOnUse">
<stop stop-color="#A35B48"/>
<stop offset="0.5" stop-color="#C17468"/>
<stop offset="0.983041" stop-color="#B85555"/>
</linearGradient>
<linearGradient id="paint26_linear_1147_1003" x1="723.679" y1="236.564" x2="723.679" y2="294.597" gradientUnits="userSpaceOnUse">
<stop stop-color="#A35B48"/>
<stop offset="0.5" stop-color="#C17468"/>
<stop offset="0.983041" stop-color="#B85555"/>
</linearGradient>
<linearGradient id="paint27_linear_1147_1003" x1="723.679" y1="236.564" x2="723.679" y2="294.597" gradientUnits="userSpaceOnUse">
<stop stop-color="#A35B48"/>
<stop offset="0.5" stop-color="#C17468"/>
<stop offset="0.983041" stop-color="#B85555"/>
</linearGradient>
<linearGradient id="paint28_linear_1147_1003" x1="723.679" y1="236.564" x2="723.679" y2="294.597" gradientUnits="userSpaceOnUse">
<stop stop-color="#A35B48"/>
<stop offset="0.5" stop-color="#C17468"/>
<stop offset="0.983041" stop-color="#B85555"/>
</linearGradient>
<linearGradient id="paint29_linear_1147_1003" x1="723.679" y1="236.564" x2="723.679" y2="294.597" gradientUnits="userSpaceOnUse">
<stop stop-color="#A35B48"/>
<stop offset="0.5" stop-color="#C17468"/>
<stop offset="0.983041" stop-color="#B85555"/>
</linearGradient>
<linearGradient id="paint30_linear_1147_1003" x1="723.679" y1="236.564" x2="723.679" y2="294.597" gradientUnits="userSpaceOnUse">
<stop stop-color="#A35B48"/>
<stop offset="0.5" stop-color="#C17468"/>
<stop offset="0.983041" stop-color="#B85555"/>
</linearGradient>
<linearGradient id="paint31_linear_1147_1003" x1="723.679" y1="236.564" x2="723.679" y2="294.597" gradientUnits="userSpaceOnUse">
<stop stop-color="#A35B48"/>
<stop offset="0.5" stop-color="#C17468"/>
<stop offset="0.983041" stop-color="#B85555"/>
</linearGradient>
<linearGradient id="paint32_linear_1147_1003" x1="0" y1="230.568" x2="666.466" y2="230.568" gradientUnits="userSpaceOnUse">
<stop stop-color="#F3B098"/>
<stop offset="1" stop-color="#FBCFB9"/>
</linearGradient>
<linearGradient id="paint33_linear_1147_1003" x1="444.398" y1="214.827" x2="444.398" y2="263.162" gradientUnits="userSpaceOnUse">
<stop stop-color="#E6A47D"/>
<stop offset="0.5" stop-color="#D69981"/>
<stop offset="1" stop-color="#E6B89E"/>
</linearGradient>
<linearGradient id="paint34_linear_1147_1003" x1="444.398" y1="214.827" x2="444.398" y2="263.162" gradientUnits="userSpaceOnUse">
<stop stop-color="#E6A47D"/>
<stop offset="0.5" stop-color="#D69981"/>
<stop offset="1" stop-color="#E6B89E"/>
</linearGradient>
<linearGradient id="paint35_linear_1147_1003" x1="444.398" y1="214.827" x2="444.398" y2="263.162" gradientUnits="userSpaceOnUse">
<stop stop-color="#E6A47D"/>
<stop offset="0.5" stop-color="#D69981"/>
<stop offset="1" stop-color="#E6B89E"/>
</linearGradient>
<linearGradient id="paint36_linear_1147_1003" x1="444.398" y1="214.827" x2="444.398" y2="263.162" gradientUnits="userSpaceOnUse">
<stop stop-color="#E6A47D"/>
<stop offset="0.5" stop-color="#D69981"/>
<stop offset="1" stop-color="#E6B89E"/>
</linearGradient>
<linearGradient id="paint37_linear_1147_1003" x1="444.398" y1="214.827" x2="444.398" y2="263.162" gradientUnits="userSpaceOnUse">
<stop stop-color="#E6A47D"/>
<stop offset="0.5" stop-color="#D69981"/>
<stop offset="1" stop-color="#E6B89E"/>
</linearGradient>
<linearGradient id="paint38_linear_1147_1003" x1="444.398" y1="214.827" x2="444.398" y2="263.162" gradientUnits="userSpaceOnUse">
<stop stop-color="#E6A47D"/>
<stop offset="0.5" stop-color="#D69981"/>
<stop offset="1" stop-color="#E6B89E"/>
</linearGradient>
<linearGradient id="paint39_linear_1147_1003" x1="444.398" y1="214.827" x2="444.398" y2="263.162" gradientUnits="userSpaceOnUse">
<stop stop-color="#E6A47D"/>
<stop offset="0.5" stop-color="#D69981"/>
<stop offset="1" stop-color="#E6B89E"/>
</linearGradient>
<linearGradient id="paint40_linear_1147_1003" x1="444.398" y1="214.827" x2="444.398" y2="263.162" gradientUnits="userSpaceOnUse">
<stop stop-color="#E6A47D"/>
<stop offset="0.5" stop-color="#D69981"/>
<stop offset="1" stop-color="#E6B89E"/>
</linearGradient>
<linearGradient id="paint41_linear_1147_1003" x1="444.398" y1="214.827" x2="444.398" y2="263.162" gradientUnits="userSpaceOnUse">
<stop stop-color="#E6A47D"/>
<stop offset="0.5" stop-color="#D69981"/>
<stop offset="1" stop-color="#E6B89E"/>
</linearGradient>
<linearGradient id="paint42_linear_1147_1003" x1="444.398" y1="214.827" x2="444.398" y2="263.162" gradientUnits="userSpaceOnUse">
<stop stop-color="#E6A47D"/>
<stop offset="0.5" stop-color="#D69981"/>
<stop offset="1" stop-color="#E6B89E"/>
</linearGradient>
<linearGradient id="paint43_linear_1147_1003" x1="444.398" y1="214.827" x2="444.398" y2="263.162" gradientUnits="userSpaceOnUse">
<stop stop-color="#E6A47D"/>
<stop offset="0.5" stop-color="#D69981"/>
<stop offset="1" stop-color="#E6B89E"/>
</linearGradient>
<linearGradient id="paint44_linear_1147_1003" x1="444.398" y1="214.827" x2="444.398" y2="263.162" gradientUnits="userSpaceOnUse">
<stop stop-color="#E6A47D"/>
<stop offset="0.5" stop-color="#D69981"/>
<stop offset="1" stop-color="#E6B89E"/>
</linearGradient>
<linearGradient id="paint45_linear_1147_1003" x1="444.398" y1="214.827" x2="444.398" y2="263.162" gradientUnits="userSpaceOnUse">
<stop stop-color="#E6A47D"/>
<stop offset="0.5" stop-color="#D69981"/>
<stop offset="1" stop-color="#E6B89E"/>
</linearGradient>
<linearGradient id="paint46_linear_1147_1003" x1="444.398" y1="214.827" x2="444.398" y2="263.162" gradientUnits="userSpaceOnUse">
<stop stop-color="#E6A47D"/>
<stop offset="0.5" stop-color="#D69981"/>
<stop offset="1" stop-color="#E6B89E"/>
</linearGradient>
<linearGradient id="paint47_linear_1147_1003" x1="444.398" y1="214.827" x2="444.398" y2="263.162" gradientUnits="userSpaceOnUse">
<stop stop-color="#E6A47D"/>
<stop offset="0.5" stop-color="#D69981"/>
<stop offset="1" stop-color="#E6B89E"/>
</linearGradient>
<linearGradient id="paint48_linear_1147_1003" x1="444.398" y1="214.827" x2="444.398" y2="263.162" gradientUnits="userSpaceOnUse">
<stop stop-color="#E6A47D"/>
<stop offset="0.5" stop-color="#D69981"/>
<stop offset="1" stop-color="#E6B89E"/>
</linearGradient>
<linearGradient id="paint49_linear_1147_1003" x1="444.398" y1="214.827" x2="444.398" y2="263.162" gradientUnits="userSpaceOnUse">
<stop stop-color="#E6A47D"/>
<stop offset="0.5" stop-color="#D69981"/>
<stop offset="1" stop-color="#E6B89E"/>
</linearGradient>
<linearGradient id="paint50_linear_1147_1003" x1="6.88428" y1="211.378" x2="286.702" y2="211.378" gradientUnits="userSpaceOnUse">
<stop stop-color="#E9AA9E"/>
<stop offset="1" stop-color="#E07F6F"/>
</linearGradient>
<linearGradient id="paint51_linear_1147_1003" x1="201.104" y1="188.64" x2="623.365" y2="188.64" gradientUnits="userSpaceOnUse">
<stop stop-color="#99523A"/>
<stop offset="0.471884" stop-color="#CE7E55"/>
<stop offset="0.978905" stop-color="#F2AA7A"/>
</linearGradient>
<linearGradient id="paint52_linear_1147_1003" x1="201.103" y1="186.433" x2="588.097" y2="181.437" gradientUnits="userSpaceOnUse">
<stop stop-color="#8C452D"/>
<stop offset="0.5" stop-color="#82402A"/>
<stop offset="1" stop-color="#A35931"/>
</linearGradient>
<linearGradient id="paint53_linear_1147_1003" x1="576.064" y1="164.532" x2="590.61" y2="229.092" gradientUnits="userSpaceOnUse">
<stop stop-color="#B87243"/>
<stop offset="1" stop-color="#DD9765"/>
</linearGradient>
<linearGradient id="paint54_linear_1147_1003" x1="576.064" y1="164.532" x2="590.61" y2="229.092" gradientUnits="userSpaceOnUse">
<stop stop-color="#B87243"/>
<stop offset="1" stop-color="#DD9765"/>
</linearGradient>
<linearGradient id="paint55_linear_1147_1003" x1="576.064" y1="164.532" x2="590.61" y2="229.092" gradientUnits="userSpaceOnUse">
<stop stop-color="#B87243"/>
<stop offset="1" stop-color="#DD9765"/>
</linearGradient>
<linearGradient id="paint56_linear_1147_1003" x1="576.064" y1="164.532" x2="590.61" y2="229.092" gradientUnits="userSpaceOnUse">
<stop stop-color="#B87243"/>
<stop offset="1" stop-color="#DD9765"/>
</linearGradient>
<linearGradient id="paint57_linear_1147_1003" x1="576.064" y1="164.532" x2="590.61" y2="229.092" gradientUnits="userSpaceOnUse">
<stop stop-color="#B87243"/>
<stop offset="1" stop-color="#DD9765"/>
</linearGradient>
<linearGradient id="paint58_linear_1147_1003" x1="576.064" y1="164.532" x2="590.61" y2="229.092" gradientUnits="userSpaceOnUse">
<stop stop-color="#B87243"/>
<stop offset="1" stop-color="#DD9765"/>
</linearGradient>
<linearGradient id="paint59_linear_1147_1003" x1="458.417" y1="127.248" x2="503.328" y2="178.813" gradientUnits="userSpaceOnUse">
<stop stop-color="#7B5953"/>
<stop offset="1" stop-color="#977775"/>
</linearGradient>
<linearGradient id="paint60_linear_1147_1003" x1="433.065" y1="0" x2="433.065" y2="58.835" gradientUnits="userSpaceOnUse">
<stop stop-color="#AAAE8F"/>
<stop offset="1" stop-color="#746D56"/>
</linearGradient>
<linearGradient id="paint61_linear_1147_1003" x1="486.694" y1="16.6339" x2="486.694" y2="56.5549" gradientUnits="userSpaceOnUse">
<stop stop-color="#A8AE87"/>
<stop offset="1" stop-color="#6C644A"/>
</linearGradient>
</defs>
</svg>
