<svg width="963" height="560" viewBox="0 0 963 560" fill="none" xmlns="http://www.w3.org/2000/svg">
<g filter="url(#filter0_n_1147_1006)">
<path d="M33.1659 412.21L6.34008 384.988C4.48295 383.104 3.44189 380.564 3.44189 377.919C3.44189 372.359 7.94702 367.85 13.507 367.846L942.643 367.185C948.449 367.181 953.158 371.886 953.158 377.692C953.158 380.638 951.921 383.449 949.749 385.439L934.094 399.785L910.363 420.762C903.396 426.92 894.956 431.175 885.861 433.115L792.778 452.965C783.705 454.9 775.35 459.323 768.648 465.738C744.564 488.79 713.355 502.966 680.149 505.935L616.653 511.613C611.556 512.068 606.716 513.842 602.415 516.615C582.421 529.507 519.893 566.449 470.441 559.001C416.079 550.814 378.212 528.653 362.667 518.077C357.423 514.509 351.347 512.165 345.01 511.9L287.568 509.499C255.953 508.177 225.609 496.689 201.045 476.743L184.072 462.96C176.961 457.186 168.497 453.315 159.478 451.713L100.44 441.223C97.2744 440.661 94.1657 439.817 91.1506 438.702L51.4312 424.008C44.551 421.463 38.3151 417.435 33.1659 412.21Z" fill="url(#paint0_linear_1147_1006)"/>
<path d="M31.9017 412.492L5.153 385.235C3.29988 383.346 2.26172 380.806 2.26172 378.161C2.26172 372.585 6.77933 368.064 12.3547 368.06L535.25 367.687C541.881 367.682 547.259 373.056 547.259 379.687V411.751C546.781 428.881 541.323 451.52 538.654 460.698C532.864 479.172 511.6 515.348 501.691 531.126C498.065 539.226 488.191 546.757 478.989 552.195C470.347 557.303 460.006 558.401 450.201 556.247C405.603 546.447 374.418 527.977 360.673 518.59C355.421 515.002 349.339 512.651 342.983 512.384L285.995 509.992C254.285 508.661 223.858 497.103 199.261 477.045L182.509 463.384C175.39 457.58 166.909 453.687 157.867 452.073L99.0617 441.581C95.8855 441.014 92.7663 440.164 89.7418 439.04L50.1765 424.342C43.2882 421.783 37.0485 417.737 31.9017 412.492Z" fill="url(#paint1_linear_1147_1006)"/>
<path d="M335.193 406.403L234.493 400.428C226.912 419.671 240.792 439.019 248.68 446.288L278.701 458.215L313.89 506.726L355.674 509.129C373.643 523.694 387.249 525.445 391.807 524.5C389.55 523.105 386.152 510.986 383.905 504.948C382.625 492.342 376.326 475.53 374.352 469.795C358.558 460.624 337.433 422.803 335.193 406.403Z" fill="url(#paint2_linear_1147_1006)" fill-opacity="0.88"/>
<path d="M234.524 400.366C232.965 414.502 239.135 443.703 276.289 447.414C284.346 449.688 299.809 459.038 297.201 478.247C301.146 484.483 308.093 495.24 311.853 500.402C312.801 501.495 313.661 502.483 314.395 503.327C314.172 503.423 313.225 502.285 311.853 500.402C306.018 493.678 296.846 483.038 292.936 478.247C286.355 471.265 267.341 457.958 243.933 460.584C232.334 462.201 206.833 459.214 197.629 434.327C198.005 442.941 207.792 461.251 243.933 465.583C250.871 468.111 265.651 475.505 269.273 484.862C274.038 488.481 284.183 496.607 286.646 500.163C276.448 492.27 251.897 475.691 235.273 472.521C241.217 479.896 253.538 494.865 255.279 495.74C251.394 501.412 230.204 503.867 176.378 455.285C169.688 452.373 151.017 447.1 140.346 444.566C130.363 431.409 109.966 407.818 104.696 388.404L102.513 383.653C142.219 386.885 224.21 394.753 234.524 400.366Z" fill="url(#paint3_linear_1147_1006)"/>
<path d="M381.423 409.252H372.811C377.389 422.893 386.544 450.545 386.544 452.029C394.224 478.203 405.164 486.886 406.095 489.459C416.894 498.428 422.387 513.929 423.784 520.559C423.784 508.212 413.388 492.966 408.189 486.886C399.438 471.921 386.699 428.895 381.423 409.252Z" fill="url(#paint4_linear_1147_1006)"/>
<path d="M372.811 467.52C355.209 457.914 339.475 422.657 333.808 406.229H331.039C335.793 422.425 348.154 441.787 353.741 449.444C357.747 456.581 367.215 464.947 371.449 468.237C376.558 472.025 380.605 488.213 381.989 495.833C383.477 510.834 389.306 519.507 392.034 521.969C388.699 518.507 385.549 508.099 384.391 503.327C380.723 478.25 375.143 469.007 372.811 467.52Z" fill="url(#paint5_linear_1147_1006)"/>
<path d="M430.587 492.601C426.611 487.627 427.118 480.606 427.868 477.717C431.579 464.518 428.374 451.091 426.248 445.852C432.228 459.021 432.07 468.751 431.243 471.97C426.818 481.843 428.962 489.838 430.587 492.601Z" fill="url(#paint6_linear_1147_1006)"/>
<path d="M440.433 477.057C450.747 485.504 465.825 507.259 443.621 526.703C451.028 518.696 460.762 497.556 440.433 477.057Z" fill="url(#paint7_linear_1147_1006)"/>
<path d="M104.129 385.15L95.5349 383.653C99.6208 393.467 109.35 406.6 113.704 411.939C125.961 430.529 139.812 444.563 141.286 443.971C139.223 443.379 118.713 416.084 118.713 414.752C112.349 407.174 106.339 391.86 104.129 385.15Z" fill="url(#paint8_linear_1147_1006)"/>
<path d="M238.865 419.38C236.363 403.459 232.904 399.21 231.487 399.076C229.241 402.621 233.706 413.391 236.218 418.333C242.827 436.575 251.376 439.738 254.825 439.04C246.741 436.591 240.816 424.913 238.865 419.38Z" fill="url(#paint9_linear_1147_1006)"/>
<path d="M88.4284 384.897L76.33 383.653C79.3022 395.98 91.985 408.76 97.9548 413.609C109.31 421.879 111.133 431.411 110.625 435.144L135.012 439.546C133.946 436.637 118.31 418.363 110.625 409.59C102.851 405.914 92.5883 391.597 88.4284 384.897Z" fill="url(#paint10_linear_1147_1006)"/>
<path d="M74.4362 384.897L62.3378 383.653C65.31 395.98 77.9928 408.76 83.9626 413.609C95.3181 421.879 97.1408 431.411 96.6327 435.144L121.02 439.546C120.217 437.355 111.146 426.444 103.434 417.444C98.9741 412.239 93.2913 408.106 88.5022 403.202C82.7955 397.359 77.2347 389.404 74.4362 384.897Z" fill="url(#paint11_linear_1147_1006)"/>
<path d="M448.123 411.099H440.068C442.484 438.013 461.435 457.952 470.609 464.558C492.663 482.54 483.731 515.026 476.508 529.021C497.988 494.029 482.645 468.197 472.288 459.655C451.575 445.011 447.548 421.182 448.123 411.099Z" fill="url(#paint12_linear_1147_1006)"/>
<path d="M421.067 435.858C408.921 426.224 408.149 415.338 409.281 411.099C409.281 413.769 414.208 422.295 416.671 426.224C428.018 438.325 428.99 449.463 428.058 453.519C427.419 444.689 423.131 438.066 421.067 435.858Z" fill="url(#paint13_linear_1147_1006)"/>
<path d="M299.409 421.207C293.336 405.954 296.213 405.352 298.41 406.958C311.576 423.837 330.665 463.362 338.563 481.015L323.581 461.146C317.029 456.811 304.736 432.714 299.409 421.207Z" fill="url(#paint14_linear_1147_1006)"/>
<path d="M166.019 396.119C177.431 403.984 196.274 433.181 196.407 433.981C201.079 445.287 213.658 454.957 219.363 458.379C208.853 454.752 198.972 443.98 195.345 439.047L179.023 419.849C162.568 401.398 163.497 396.341 166.019 396.119Z" fill="url(#paint15_linear_1147_1006)"/>
<path d="M762.37 400.269L705.378 405.588C705.378 414.749 692.082 440.601 685.434 452.382L687.539 453.645C735.548 433.737 757.43 409.766 762.37 400.269Z" fill="url(#paint16_linear_1147_1006)"/>
<path d="M772.688 459.777C780.585 455.175 798.079 396.984 799.466 396.089C800.883 395.175 843.018 393.723 863.148 391.672C858.029 414.68 835.839 433.351 825.384 439.811C822.792 443.26 781.216 456.925 772.688 459.777C772.521 459.874 772.358 459.947 772.201 459.996C770.584 460.49 770.95 460.358 772.688 459.777Z" fill="url(#paint17_linear_1147_1006)"/>
<path d="M577.622 415.487L572.632 416.189C573.887 425.632 572.109 446.727 571.063 456.094C565.771 471.926 552.511 495.008 546.542 504.569C542.551 510.302 530.433 522.508 524.873 527.894C528.18 527.219 540.697 514.405 546.542 508.082C547.113 511.904 544.784 522.882 543.549 527.894C547.198 523.51 549.061 511.735 549.536 506.396C556.037 496.392 569.258 468.693 575.056 456.094C578.135 448.787 578.05 425.978 577.622 415.487Z" fill="url(#paint18_linear_1147_1006)"/>
<path d="M606.317 448C609.413 432.107 616.959 420.823 620.346 417.168C612.46 431.828 608.282 451.148 607.179 458.976C600.79 474.462 589.752 484.387 585.032 487.413L594.707 475.335C601.802 467.579 605.403 453.88 606.317 448Z" fill="url(#paint19_linear_1147_1006)"/>
<path d="M634.52 411.749H631.498L628.918 449.296C627.231 457.545 620.418 466.178 619.315 466.753C606.754 479.593 605.991 487.289 607.179 489.532C607.179 487.01 611.468 479.882 613.612 476.634C621.755 468.01 628.929 456.607 631.498 451.983C632.777 450.608 634.045 424.587 634.52 411.749Z" fill="url(#paint20_linear_1147_1006)"/>
<path d="M586.696 523.636C587.11 523.228 604.357 499.049 606.003 494.104C606.027 494.022 606.051 493.941 606.075 493.861C606.056 493.936 606.032 494.017 606.003 494.104C603.977 500.837 597.417 515.776 586.696 523.636Z" fill="url(#paint21_linear_1147_1006)"/>
<path d="M677.721 407.85L674.5 408.208C674.5 408.495 672.654 425.23 671.731 433.561C670.316 443.617 661.554 458.316 657.35 464.409C668.078 454.63 673.253 439.487 674.5 433.139L677.721 407.85Z" fill="url(#paint22_linear_1147_1006)"/>
<path d="M651.993 485.723C691.366 451.986 703.041 418.722 703.956 406.308L705.665 405.687V406.308C704.516 420.677 693.179 441.778 687.654 450.532C686.239 452.711 688.243 452.407 689.422 451.983C692.25 449.136 709.091 441.916 717.157 438.662C734.13 430.154 754.359 409.56 762.352 400.326H765.778C757.026 420.104 723.824 438.771 708.317 445.632C695.853 448.594 681.813 460.947 676.352 466.753C668.952 478.569 651.386 500.091 643.528 509.375C641.382 510.595 632.894 510.561 628.918 510.392C630.436 508.765 644.934 493.268 651.993 485.723Z" fill="url(#paint23_linear_1147_1006)"/>
<path d="M732.604 448C717.733 453.373 694.444 466.019 684.658 471.671C711.685 464.46 730.145 453.75 735.997 449.296C760.262 434.536 764.597 426.754 763.731 424.708C760.545 432.085 741.652 443.31 732.604 448Z" fill="url(#paint24_linear_1147_1006)"/>
<path d="M700.443 487.413C673.889 490.236 659.481 501.245 655.596 506.396C663.739 499.513 688.887 492.286 700.443 489.532C728.414 480.557 737.767 470.607 738.947 466.753C730.804 476.544 709.885 484.606 700.443 487.413Z" fill="url(#paint25_linear_1147_1006)"/>
<path d="M753.455 457.511C753.184 458.58 743.565 465.937 741.669 471.671C745.597 468.331 753.455 460.823 753.455 457.511Z" fill="url(#paint26_linear_1147_1006)"/>
<path d="M822.798 422.89C817.712 429.524 795.996 437.449 785.774 440.582C807.411 430.746 818.175 424.152 820.852 422.084C827.608 409.624 829.87 398.754 830.156 394.877H831.961C830.614 406.819 825.291 418.528 822.798 422.89Z" fill="url(#paint27_linear_1147_1006)"/>
<path d="M864.641 391.291L861.746 392.004C857.693 415.687 835.449 430.882 824.833 435.518C803.216 442.652 788.483 451.014 783.819 454.303C797.04 453.447 812.81 448.874 819.043 446.694C851.661 427.386 863.033 401.714 864.641 391.291Z" fill="url(#paint28_linear_1147_1006)"/>
<path d="M840.04 442.761C839.885 442.878 839.761 442.962 839.671 443.009C839.794 442.926 839.917 442.843 840.04 442.761C843.796 439.91 865.64 417.125 866.451 415.069C865.173 419.242 858.103 430.585 840.04 442.761Z" fill="url(#paint29_linear_1147_1006)"/>
<path d="M891.936 388.044L887.645 388.364C888.685 396.5 879.715 412.26 882.185 410.787C884.161 409.608 889.509 395.134 891.936 388.044Z" fill="url(#paint30_linear_1147_1006)"/>
<path d="M922.486 382.535C921.511 382.748 919.483 383.214 919.171 383.367C915.986 391.183 909.928 406.571 911.176 405.597C912.424 404.624 919.236 389.816 922.486 382.535Z" fill="url(#paint31_linear_1147_1006)"/>
<path d="M948.132 367.791C545.414 309.987 158.884 339.332 6.57041 368.547C3.55872 369.124 2.77958 372.443 5.47442 373.906C23.4801 383.685 70.7591 389.566 94.7611 391.422C125.152 396.312 184.117 399.74 209.802 400.843C219.259 404.703 271.429 407.888 296.331 408.998C299.828 408.813 351.403 412.786 376.753 414.795C387.243 415.361 408.441 416.491 409.315 416.491H448.138C466.69 419.451 522.758 418.439 548.474 417.564C562.678 418.219 659.635 410.191 706.338 406.096C718.072 406.424 776.843 399.133 804.762 395.447C872.155 394.098 922.834 382.926 948.876 374.639C952.72 373.416 952.125 368.364 948.132 367.791Z" fill="url(#paint32_linear_1147_1006)"/>
<path d="M133.713 380.106C124.092 377.505 69.7468 379.585 67.6665 380.106C74.4812 381.366 100.356 381.22 112.441 380.989C120.968 380.77 130.175 380.309 133.713 380.106Z" fill="url(#paint33_linear_1147_1006)"/>
<path d="M133.713 384.622C141.934 383.692 160.049 382.196 166.744 383.652C161.664 384.743 147.945 386.465 133.713 384.622Z" fill="url(#paint34_linear_1147_1006)"/>
<path d="M160.356 388.596C173.792 387.857 201.665 386.821 205.659 388.596C193.711 389.674 167.923 391.182 160.356 388.596Z" fill="url(#paint35_linear_1147_1006)"/>
<path d="M214.905 386.562C221.561 385.269 235.911 383.07 240.053 384.622C236.971 385.577 227.627 387.302 214.905 386.562Z" fill="url(#paint36_linear_1147_1006)"/>
<path d="M243.668 398.26C255.358 397.446 279.004 396.307 280.07 398.26C271.265 399.222 251.659 400.568 243.668 398.26Z" fill="url(#paint37_linear_1147_1006)"/>
<path d="M287.838 395.818C301.23 394.487 330.01 392.622 338.001 395.818C323.869 396.262 294.053 396.884 287.838 395.818Z" fill="url(#paint38_linear_1147_1006)"/>
<path d="M338.001 399.563C344.107 399.09 356.941 398.426 359.421 399.563C354.14 400.381 342.463 401.527 338.001 399.563Z" fill="url(#paint39_linear_1147_1006)"/>
<path d="M364.071 399.563C370.1 398.96 382.699 398.246 384.869 400.209C378.884 400.683 366.345 401.217 364.071 399.563Z" fill="url(#paint40_linear_1147_1006)"/>
<path d="M391.848 393.561C392.437 393.325 424.727 392.264 426.377 393.561C418.996 394.604 401.756 396.064 391.848 393.561Z" fill="url(#paint41_linear_1147_1006)"/>
<path d="M454.612 404.173C455.602 403.843 523.077 400.213 535.615 404.173C509.384 404.833 456.46 405.756 454.612 404.173Z" fill="url(#paint42_linear_1147_1006)"/>
<path d="M553.766 393.371C571.638 394.985 608.196 398.81 611.455 401.193C594.507 399.89 559.241 396.5 553.766 393.371Z" fill="url(#paint43_linear_1147_1006)"/>
<path d="M622.7 395.001C629.599 395.218 644.016 396.207 646.493 398.423C640.517 398.586 627.393 398.13 622.7 395.001Z" fill="url(#paint44_linear_1147_1006)"/>
<path d="M661.485 388.808C673.11 387.83 697.924 386.787 704.182 390.438C693.101 390.22 669.047 389.59 661.485 388.808Z" fill="url(#paint45_linear_1147_1006)"/>
<path d="M729.864 381.809C727.969 381.888 726.277 381.974 724.847 382.061C725.534 381.842 727.321 381.771 729.864 381.809C742.072 381.304 762.726 381.143 776.175 383.449C789.308 384.096 816.683 384.725 821.122 382.061C821.439 384.31 812.744 388.069 775.426 385.117C763.059 383.928 740.206 381.965 729.864 381.809Z" fill="url(#paint46_linear_1147_1006)"/>
<path d="M659.208 403.09C664.997 403.981 670.472 407.49 672.486 409.133H669.227C669.163 408.242 662.521 404.733 659.208 403.09Z" fill="url(#paint47_linear_1147_1006)"/>
<path d="M746.241 368.056C747.323 368.176 785.429 369.619 793.483 371.422C781.289 371.549 754.77 371.054 746.241 368.056Z" fill="url(#paint48_linear_1147_1006)"/>
<path d="M746.241 360.797C768.048 361.642 811.678 363.202 814.314 362.785C814.345 362.779 814.375 362.772 814.405 362.765C814.385 362.772 814.354 362.779 814.314 362.785C807.637 364.252 784.854 365.88 746.241 360.797Z" fill="url(#paint49_linear_1147_1006)"/>
<g filter="url(#filter1_n_1147_1006)">
<path d="M286.702 377.83V341.121C179.937 341.122 31.7653 362.723 6.88428 368.602C16.9101 371.609 222.67 377.535 286.702 377.83Z" fill="url(#paint50_linear_1147_1006)"/>
</g>
<path d="M535.647 284.143L380.876 298.17L386.635 288.106L364.353 292.563L335.446 296.766C329.104 297.688 323.078 300.12 317.873 303.858L285.412 327.164C280.347 330.8 274.601 333.364 268.762 335.55C253.358 341.317 230.53 352.807 219.227 358.828C209.239 363.342 204.438 366.601 202.399 368.689C201.073 370.048 202.221 371.437 204.1 371.71C224.381 374.664 293.811 378.343 330.171 380.003C332.085 380.09 333.97 380.347 335.838 380.773L346.08 383.111C364.81 385.502 475.001 385.859 527.755 385.739C570.37 385.313 682.574 374.242 738.942 368.172C740.861 367.965 741.368 365.453 739.681 364.516C713.862 350.175 683.948 338.144 667.293 332.146C663.233 330.684 659.355 328.783 655.778 326.368L630.597 309.37C619.695 302.011 607.183 297.383 594.117 295.875L569.233 293.005C565.106 292.528 561.076 291.428 557.28 289.741L550.043 286.524C545.526 284.517 540.57 283.697 535.647 284.143Z" fill="url(#paint51_linear_1147_1006)"/>
<path d="M465.081 322.747C467.135 323.381 469.436 323.525 470.33 323.517C478.012 325.06 483.966 336.256 485.983 341.661C491.129 351.33 501.741 357.832 506.403 359.874C529.361 366.85 541.818 379.622 545.177 385.137H542.041C534.305 372.42 516.122 364.76 507.998 362.519C496.447 359.963 487.555 348.981 484.552 343.808C479.996 329.82 470.555 325.352 466.405 324.866L465.081 322.747ZM454.337 335.503C452.029 347.641 443.997 374.384 430.335 384.255L427.482 383.856C432.578 381.319 444.834 368.189 453.088 335.961L454.337 335.503ZM562.133 347.171C566.975 348.381 577.08 351.621 578.766 354.901C578.688 357.049 578.298 362.468 577.361 366.966C579.86 371.417 585.278 380.623 586.965 381.842C586.202 382.474 582.856 380.529 575.581 367.693C575.18 367.379 574.253 365.362 573.752 359.802C573.874 358.582 573.313 355.788 570.093 354.366C566.598 352.182 560.114 347.686 562.133 347.171ZM397.956 286.627C447.492 284.321 527.097 281.699 545.885 285.071C548.619 285.562 549.235 288.111 547.492 290.272C544.066 294.521 537.438 300.07 526.941 302.792C511.653 304.243 472.396 306.549 433.398 304.684C430.032 304.523 426.684 305.143 423.438 306.049C414.273 308.605 397.002 311.165 373.978 308.898C368.261 308.335 362.484 309.697 357.861 313.106C342.651 324.323 320.062 341.373 313.498 347.818C317.124 345.654 324.726 341.256 326.13 340.974C327.359 341.501 331.184 341.606 336.659 337.816C341.309 333.916 352.816 326.057 361.653 325.824C371.003 326.987 390.46 328.963 393.483 327.568C388.8 331.902 380.266 340.534 376.666 346.499C375.205 348.919 374.608 351.762 373.306 354.271C370.844 359.018 366.228 365.681 359.204 370.913C357.31 372.323 355.177 373.359 353.008 374.293C348.205 376.362 341.551 379.406 338.689 381.345C297.711 379.956 214.025 376.326 207.103 372.915C202.458 372.484 196.064 370.099 207.644 364.01C225.825 354.898 264.773 335.906 275.115 332.831C283.729 327.421 302.221 315.523 307.272 311.21C312.096 306.315 326.141 296.357 343.733 295.676C351.603 294.253 365.582 291.659 375.812 289.584C383.121 288.101 390.506 286.974 397.956 286.627ZM355.619 344.462C351.8 346.5 348.42 349.269 345.671 352.612L336.161 364.173C333.905 366.915 331.221 369.276 328.212 371.163L315.004 379.449H317.85L330.324 371.941C333.485 370.039 336.304 367.619 338.665 364.784L347.993 353.581C350.485 350.588 353.487 348.059 356.86 346.113L381.651 331.808L380.898 330.97L355.619 344.462ZM305.208 360.61C302.796 362.955 288.127 373.421 281.094 378.361H283.104C290.405 375.682 301.719 365.801 306.463 361.196L305.208 360.61ZM462.884 339.261C462.32 345.697 461.622 359.358 463.341 362.519C465.123 365.424 470.859 371.978 479.55 374.953C478.02 376.56 472.114 376.963 460.727 365.716C459.926 363.301 458.702 354.629 460.221 339.261H462.884ZM289.597 350.169C279.669 357.415 258.865 372.552 255.077 375.134C261.074 372.239 276.651 363.591 290.975 352.154C291.721 351.492 292.489 350.169 289.597 350.169ZM439.14 339.261C438.126 343.496 431.529 353.252 413.256 358.398C407.105 361.694 391.959 369.593 380.584 374.816L379.304 372.08L409.412 358.398C414.473 351.891 427.504 338.954 439.14 339.261ZM589.41 352.377C616.102 363.677 617.841 368.906 615.374 370.108C604.663 367.648 593.601 357.262 589.41 352.377ZM264.789 357.429C261.749 359.217 258.309 360.211 254.785 360.319L248.593 360.509C246.387 360.576 244.205 360.991 242.129 361.738L228.821 366.524C231.318 366.238 235.892 365.512 239.792 364.39C243.219 363.405 246.703 362.33 250.267 362.21L254.868 362.054C258.339 361.937 261.727 360.961 264.728 359.214L274.791 353.353C274.992 352.953 275.066 352.154 273.757 352.154L264.789 357.429ZM633.588 355.734C642.17 356.657 658.572 359.748 655.527 364.731C653.798 366.656 646.989 367.551 633.588 355.734ZM330.661 352.154C327.847 354.231 313.357 361.504 306.463 364.881L307.887 365.551C323.494 359.991 330.465 354.303 332.001 352.154H330.661ZM537.971 348.322C551.593 349.075 559.26 359.962 561.391 365.312C555.33 356.802 543.252 350.439 537.971 348.322ZM427.234 317.607C427.007 318.693 422.642 322.875 406.994 330.92C404.413 332.55 399.387 337.603 399.93 344.775C407.305 341.277 425.223 333.812 437.889 331.931L438.058 332.643C425.626 335.785 399.863 344.619 396.27 354.826C395.403 356.87 393.291 360.791 391.78 360.125C392.052 351.371 395.746 332.603 408.352 327.568C409.167 327.568 426.186 319.101 427.234 317.607ZM624.523 336.011C626.738 339.997 638.918 345.112 644.731 347.171C632.385 346.133 626.115 339.298 624.523 336.011ZM351.76 314.868C343.799 315.222 335.08 318.578 329.112 321.516C325.544 323.273 322.438 325.827 319.205 328.143C310.048 334.703 291.835 345.63 290.975 345.73C292.077 346.428 293.591 346.383 294.211 346.273C301.615 343.538 317.655 331.928 324.749 326.465C330.644 321.843 345.213 317.7 351.76 316.207V314.868ZM537.971 305.194C534.049 298.62 556.213 312.602 567.785 320.415C602.146 337.028 610.257 343.182 610.018 344.182C602.041 339.196 578.539 327.636 567.785 322.479C557.813 320.57 543.754 310.16 537.971 305.194ZM510.583 324.866C519.101 325.945 525.037 327.993 526.941 328.882C535.689 332.494 533.807 336.306 531.772 337.761C528.037 339.2 524.195 335.962 522.741 334.163C520.475 331.714 513.691 326.944 510.583 324.866ZM586.074 312.008C585.885 310.851 586.522 311.526 586.864 312.008C591.325 317.744 596.476 321.106 598.494 322.07C600.333 321.943 604.999 322.987 607.103 323.524C626.044 330.792 620.003 332.275 614.614 332.108C600.193 329.19 589.579 317.492 586.074 312.008ZM523.931 312.673C539.562 315.745 546.614 324.284 548.186 328.17C544.144 323.375 530.332 315.84 523.931 312.673Z" fill="url(#paint52_linear_1147_1006)"/>
<path d="M482.357 317.047C472.784 318.842 456.306 313.432 449.263 310.503C447.67 310.503 448.06 311.629 448.453 312.192C463.122 320.613 477.74 319.797 483.216 318.336L482.357 317.047Z" fill="url(#paint53_linear_1147_1006)"/>
<path d="M482.357 368.811C482.357 375.413 480.682 382.799 479.844 385.667H483.216V384.789C485.914 378.468 483.767 371.503 482.357 368.811Z" fill="url(#paint54_linear_1147_1006)"/>
<path d="M509.16 350.428C518.894 355.54 540.385 366.677 548.477 370.331C544.02 366.035 529.916 356.04 509.16 350.428Z" fill="url(#paint55_linear_1147_1006)"/>
<path d="M606.445 353.167C599.165 350.005 556.634 340.15 555.819 340.15V341.916C571.852 345.623 594.191 353.412 603.357 356.844C607.475 357.021 607.131 354.466 606.445 353.167Z" fill="url(#paint56_linear_1147_1006)"/>
<path d="M639.216 338.223C636.517 336.681 625.553 326.813 620.409 322.072C622.421 320.347 633.909 332.039 639.621 337.853L647.003 348.811C657.397 358.057 665.824 365.788 668.289 368.659C662.489 366.937 652.281 355.978 647.902 350.713C645.777 347.899 641.226 341.214 639.216 338.223Z" fill="url(#paint57_linear_1147_1006)"/>
<path d="M681.198 351.733C687.276 356.686 700.35 366.671 704.024 366.995C699.522 362.538 688.654 353.246 681.198 351.733Z" fill="url(#paint58_linear_1147_1006)"/>
<path d="M681.192 351.853C686.434 353.894 698.275 359.715 703.711 366.668C697.351 363.086 683.942 355.109 681.192 351.853Z" fill="#B16C46"/>
</g>
<g filter="url(#filter2_n_1147_1006)">
<path d="M404.529 85.5652C396.592 77.1725 392.573 85.0657 391.556 90.0613C383.008 91.2603 385.959 99.0535 388.503 102.8C387.282 106.997 392.064 107.546 394.608 107.296C401.324 113.891 407.582 110.044 409.871 107.296C414.145 108.495 416.74 102.8 417.503 99.8029C418.113 92.0096 414.196 90.0613 412.161 90.0613C412.161 83.4671 407.073 84.3163 404.529 85.5652Z" fill="url(#paint59_linear_1147_1006)"/>
</g>
<g filter="url(#filter3_n_1147_1006)">
<path d="M540.764 79.799C549.032 69.4988 553.218 79.1859 554.278 85.3169C563.182 86.7884 560.108 96.3528 557.458 100.951C558.73 106.101 553.748 106.776 551.098 106.469C544.103 114.562 537.584 109.841 535.2 106.469C530.748 107.94 528.045 100.951 527.25 97.2724C526.614 87.708 530.695 85.3169 532.815 85.3169C532.815 77.224 538.114 78.2662 540.764 79.799Z" fill="url(#paint60_linear_1147_1006)"/>
</g>
<g filter="url(#filter4_n_1147_1006)">
<path d="M450.465 52.6601C457.787 71.7847 468.499 59.378 472.939 50.784C486.729 52.7557 486.702 37.1442 484.965 29.092C489.257 22.0511 482.245 18.7278 478.203 17.9462C471.715 2.6867 459.907 6.64424 454.813 10.5304C448.956 6.27283 439.093 9.2619 438.796 20.455C433.366 34.3362 438.245 39.784 441.364 40.7727C437.56 52.7693 445.846 53.6962 450.465 52.6601Z" fill="url(#paint61_linear_1147_1006)"/>
</g>
<g filter="url(#filter5_n_1147_1006)">
<path d="M404.36 105.655C445.741 134.334 462.984 167.894 466.432 181.089V195.279C466.432 197.072 462.984 208.474 461.259 213.951C457.121 157.189 436.381 141.007 426.529 140.011L427.267 138.517L436.874 140.758C435.1 136.575 414.459 115.613 404.36 105.655Z" fill="url(#paint62_linear_1147_1006)"/>
</g>
<g filter="url(#filter6_n_1147_1006)">
<path d="M537.749 105.828C481.15 153.64 470.011 223.365 471.516 252.251L467.753 204.439C474.978 174.557 496.855 143.679 506.891 131.975L508.396 122.263L510.654 121.516V129.734C514.869 124.953 529.47 110.808 536.244 104.334L537.749 105.828Z" fill="url(#paint63_linear_1147_1006)"/>
</g>
<g filter="url(#filter7_n_1147_1006)">
<path d="M460.805 86.4049V57.9299C461.404 54.333 462.553 56.4312 463.053 57.9299C462.453 75.3146 465.301 102.641 466.799 114.131C467.399 114.131 469.547 106.138 470.546 102.141L472.045 102.89L468.298 117.877C467.698 128.068 470.546 158.092 472.045 171.83C473.244 180.223 472.544 232.277 472.045 257.255C473.244 287.828 492.527 296.97 500.77 298.469H411.348C464.551 298.469 461.177 190.834 461.554 186.817C462.303 178.836 460.805 107.386 460.805 105.888C460.805 104.689 459.306 102.89 458.556 102.141H461.554C461.304 100.393 460.805 96.2962 460.805 93.8983C460.805 91.5004 455.309 79.411 452.562 73.666L460.805 86.4049Z" fill="url(#paint64_linear_1147_1006)"/>
</g>
<g filter="url(#filter8_n_1147_1006)">
<path d="M484.261 298.475C461.909 294.831 468.588 245.334 473.244 227.623C469.519 271.345 489.904 297.21 500.77 298.475C496.631 298.222 485.503 298.475 484.261 298.475Z" fill="#A98984"/>
</g>
<defs>
<filter id="filter0_n_1147_1006" x="2.26172" y="283.462" width="950.896" height="276.521" filterUnits="userSpaceOnUse" color-interpolation-filters="sRGB">
<feFlood flood-opacity="0" result="BackgroundImageFix"/>
<feBlend mode="normal" in="SourceGraphic" in2="BackgroundImageFix" result="shape"/>
<feTurbulence type="fractalNoise" baseFrequency="5 5" stitchTiles="stitch" numOctaves="3" result="noise" seed="1005" />
<feColorMatrix in="noise" type="luminanceToAlpha" result="alphaNoise" />
<feComponentTransfer in="alphaNoise" result="coloredNoise1">
<feFuncA type="discrete" tableValues="1 1 1 1 1 1 1 1 1 1 1 1 1 1 1 1 1 1 1 1 1 1 1 1 1 1 1 1 1 1 1 1 1 1 1 1 1 1 1 1 1 1 1 1 1 1 1 1 1 1 1 0 0 0 0 0 0 0 0 0 0 0 0 0 0 0 0 0 0 0 0 0 0 0 0 0 0 0 0 0 0 0 0 0 0 0 0 0 0 0 0 0 0 0 0 0 0 0 0 0 "/>
</feComponentTransfer>
<feComposite operator="in" in2="shape" in="coloredNoise1" result="noise1Clipped" />
<feFlood flood-color="rgba(201, 118, 118, 0.17)" result="color1Flood" />
<feComposite operator="in" in2="noise1Clipped" in="color1Flood" result="color1" />
<feMerge result="effect1_noise_1147_1006">
<feMergeNode in="shape" />
<feMergeNode in="color1" />
</feMerge>
</filter>
<filter id="filter1_n_1147_1006" x="6.88428" y="341.121" width="279.818" height="36.7084" filterUnits="userSpaceOnUse" color-interpolation-filters="sRGB">
<feFlood flood-opacity="0" result="BackgroundImageFix"/>
<feBlend mode="normal" in="SourceGraphic" in2="BackgroundImageFix" result="shape"/>
<feTurbulence type="fractalNoise" baseFrequency="5 5" stitchTiles="stitch" numOctaves="3" result="noise" seed="1360" />
<feColorMatrix in="noise" type="luminanceToAlpha" result="alphaNoise" />
<feComponentTransfer in="alphaNoise" result="coloredNoise1">
<feFuncA type="discrete" tableValues="1 1 1 1 1 1 1 1 1 1 1 1 1 1 1 1 1 1 1 1 1 1 1 1 1 1 1 1 1 1 1 1 1 1 1 1 1 1 1 1 1 1 1 1 1 1 1 1 1 1 1 0 0 0 0 0 0 0 0 0 0 0 0 0 0 0 0 0 0 0 0 0 0 0 0 0 0 0 0 0 0 0 0 0 0 0 0 0 0 0 0 0 0 0 0 0 0 0 0 0 "/>
</feComponentTransfer>
<feComposite operator="in" in2="shape" in="coloredNoise1" result="noise1Clipped" />
<feFlood flood-color="rgba(194, 48, 48, 0.25)" result="color1Flood" />
<feComposite operator="in" in2="noise1Clipped" in="color1Flood" result="color1" />
<feMerge result="effect1_noise_1147_1006">
<feMergeNode in="shape" />
<feMergeNode in="color1" />
</feMerge>
</filter>
<filter id="filter2_n_1147_1006" x="385.87" y="81.8823" width="31.6965" height="29.0551" filterUnits="userSpaceOnUse" color-interpolation-filters="sRGB">
<feFlood flood-opacity="0" result="BackgroundImageFix"/>
<feBlend mode="normal" in="SourceGraphic" in2="BackgroundImageFix" result="shape"/>
<feTurbulence type="fractalNoise" baseFrequency="10 10" stitchTiles="stitch" numOctaves="3" result="noise" seed="6445" />
<feColorMatrix in="noise" type="luminanceToAlpha" result="alphaNoise" />
<feComponentTransfer in="alphaNoise" result="coloredNoise1">
<feFuncA type="discrete" tableValues="1 1 1 1 1 1 1 1 1 1 1 1 1 1 1 1 1 1 1 1 1 1 1 1 1 1 1 1 1 1 1 1 1 1 1 1 1 1 1 1 1 1 1 1 1 1 1 1 1 1 1 0 0 0 0 0 0 0 0 0 0 0 0 0 0 0 0 0 0 0 0 0 0 0 0 0 0 0 0 0 0 0 0 0 0 0 0 0 0 0 0 0 0 0 0 0 0 0 0 0 "/>
</feComponentTransfer>
<feComposite operator="in" in2="shape" in="coloredNoise1" result="noise1Clipped" />
<feFlood flood-color="rgba(194, 93, 93, 0.25)" result="color1Flood" />
<feComposite operator="in" in2="noise1Clipped" in="color1Flood" result="color1" />
<feMerge result="effect1_noise_1147_1006">
<feMergeNode in="shape" />
<feMergeNode in="color1" />
</feMerge>
</filter>
<filter id="filter3_n_1147_1006" x="527.184" y="75.2791" width="33.0171" height="35.6586" filterUnits="userSpaceOnUse" color-interpolation-filters="sRGB">
<feFlood flood-opacity="0" result="BackgroundImageFix"/>
<feBlend mode="normal" in="SourceGraphic" in2="BackgroundImageFix" result="shape"/>
<feTurbulence type="fractalNoise" baseFrequency="10 10" stitchTiles="stitch" numOctaves="3" result="noise" seed="6445" />
<feColorMatrix in="noise" type="luminanceToAlpha" result="alphaNoise" />
<feComponentTransfer in="alphaNoise" result="coloredNoise1">
<feFuncA type="discrete" tableValues="1 1 1 1 1 1 1 1 1 1 1 1 1 1 1 1 1 1 1 1 1 1 1 1 1 1 1 1 1 1 1 1 1 1 1 1 1 1 1 1 1 1 1 1 1 1 1 1 1 1 1 0 0 0 0 0 0 0 0 0 0 0 0 0 0 0 0 0 0 0 0 0 0 0 0 0 0 0 0 0 0 0 0 0 0 0 0 0 0 0 0 0 0 0 0 0 0 0 0 0 "/>
</feComponentTransfer>
<feComposite operator="in" in2="shape" in="coloredNoise1" result="noise1Clipped" />
<feFlood flood-color="rgba(194, 93, 93, 0.25)" result="color1Flood" />
<feComposite operator="in" in2="noise1Clipped" in="color1Flood" result="color1" />
<feMerge result="effect1_noise_1147_1006">
<feMergeNode in="shape" />
<feMergeNode in="color1" />
</feMerge>
</filter>
<filter id="filter4_n_1147_1006" x="436.354" y="6.99817" width="49.9542" height="55.7469" filterUnits="userSpaceOnUse" color-interpolation-filters="sRGB">
<feFlood flood-opacity="0" result="BackgroundImageFix"/>
<feBlend mode="normal" in="SourceGraphic" in2="BackgroundImageFix" result="shape"/>
<feTurbulence type="fractalNoise" baseFrequency="10 10" stitchTiles="stitch" numOctaves="3" result="noise" seed="6445" />
<feColorMatrix in="noise" type="luminanceToAlpha" result="alphaNoise" />
<feComponentTransfer in="alphaNoise" result="coloredNoise1">
<feFuncA type="discrete" tableValues="1 1 1 1 1 1 1 1 1 1 1 1 1 1 1 1 1 1 1 1 1 1 1 1 1 1 1 1 1 1 1 1 1 1 1 1 1 1 1 1 1 1 1 1 1 1 1 1 1 1 1 0 0 0 0 0 0 0 0 0 0 0 0 0 0 0 0 0 0 0 0 0 0 0 0 0 0 0 0 0 0 0 0 0 0 0 0 0 0 0 0 0 0 0 0 0 0 0 0 0 "/>
</feComponentTransfer>
<feComposite operator="in" in2="shape" in="coloredNoise1" result="noise1Clipped" />
<feFlood flood-color="rgba(194, 93, 93, 0.25)" result="color1Flood" />
<feComposite operator="in" in2="noise1Clipped" in="color1Flood" result="color1" />
<feMerge result="effect1_noise_1147_1006">
<feMergeNode in="shape" />
<feMergeNode in="color1" />
</feMerge>
</filter>
<filter id="filter5_n_1147_1006" x="404.36" y="105.655" width="62.0723" height="108.296" filterUnits="userSpaceOnUse" color-interpolation-filters="sRGB">
<feFlood flood-opacity="0" result="BackgroundImageFix"/>
<feBlend mode="normal" in="SourceGraphic" in2="BackgroundImageFix" result="shape"/>
<feTurbulence type="fractalNoise" baseFrequency="10 10" stitchTiles="stitch" numOctaves="3" result="noise" seed="8954" />
<feColorMatrix in="noise" type="luminanceToAlpha" result="alphaNoise" />
<feComponentTransfer in="alphaNoise" result="coloredNoise1">
<feFuncA type="discrete" tableValues="1 1 1 1 1 1 1 1 1 1 1 1 1 1 1 1 1 1 1 1 1 1 1 1 1 1 1 1 1 1 1 1 1 1 1 1 1 1 1 1 1 1 1 1 1 1 1 1 1 1 1 0 0 0 0 0 0 0 0 0 0 0 0 0 0 0 0 0 0 0 0 0 0 0 0 0 0 0 0 0 0 0 0 0 0 0 0 0 0 0 0 0 0 0 0 0 0 0 0 0 "/>
</feComponentTransfer>
<feComposite operator="in" in2="shape" in="coloredNoise1" result="noise1Clipped" />
<feFlood flood-color="rgba(58, 11, 11, 0.22)" result="color1Flood" />
<feComposite operator="in" in2="noise1Clipped" in="color1Flood" result="color1" />
<feMerge result="effect1_noise_1147_1006">
<feMergeNode in="shape" />
<feMergeNode in="color1" />
</feMerge>
</filter>
<filter id="filter6_n_1147_1006" x="467.753" y="104.334" width="69.9963" height="147.917" filterUnits="userSpaceOnUse" color-interpolation-filters="sRGB">
<feFlood flood-opacity="0" result="BackgroundImageFix"/>
<feBlend mode="normal" in="SourceGraphic" in2="BackgroundImageFix" result="shape"/>
<feTurbulence type="fractalNoise" baseFrequency="10 10" stitchTiles="stitch" numOctaves="3" result="noise" seed="2260" />
<feColorMatrix in="noise" type="luminanceToAlpha" result="alphaNoise" />
<feComponentTransfer in="alphaNoise" result="coloredNoise1">
<feFuncA type="discrete" tableValues="1 1 1 1 1 1 1 1 1 1 1 1 1 1 1 1 1 1 1 1 1 1 1 1 1 1 1 1 1 1 1 1 1 1 1 1 1 1 1 1 1 1 1 1 1 1 1 1 1 1 1 0 0 0 0 0 0 0 0 0 0 0 0 0 0 0 0 0 0 0 0 0 0 0 0 0 0 0 0 0 0 0 0 0 0 0 0 0 0 0 0 0 0 0 0 0 0 0 0 0 "/>
</feComponentTransfer>
<feComposite operator="in" in2="shape" in="coloredNoise1" result="noise1Clipped" />
<feFlood flood-color="rgba(0, 0, 0, 0.25)" result="color1Flood" />
<feComposite operator="in" in2="noise1Clipped" in="color1Flood" result="color1" />
<feMerge result="effect1_noise_1147_1006">
<feMergeNode in="shape" />
<feMergeNode in="color1" />
</feMerge>
</filter>
<filter id="filter7_n_1147_1006" x="411.348" y="55.9438" width="89.4219" height="242.525" filterUnits="userSpaceOnUse" color-interpolation-filters="sRGB">
<feFlood flood-opacity="0" result="BackgroundImageFix"/>
<feBlend mode="normal" in="SourceGraphic" in2="BackgroundImageFix" result="shape"/>
<feTurbulence type="fractalNoise" baseFrequency="10 10" stitchTiles="stitch" numOctaves="3" result="noise" seed="8965" />
<feColorMatrix in="noise" type="luminanceToAlpha" result="alphaNoise" />
<feComponentTransfer in="alphaNoise" result="coloredNoise1">
<feFuncA type="discrete" tableValues="1 1 1 1 1 1 1 1 1 1 1 1 1 1 1 1 1 1 1 1 1 1 1 1 1 1 1 1 1 1 1 1 1 1 1 1 1 1 1 1 1 1 1 1 1 1 1 1 1 1 1 0 0 0 0 0 0 0 0 0 0 0 0 0 0 0 0 0 0 0 0 0 0 0 0 0 0 0 0 0 0 0 0 0 0 0 0 0 0 0 0 0 0 0 0 0 0 0 0 0 "/>
</feComponentTransfer>
<feComposite operator="in" in2="shape" in="coloredNoise1" result="noise1Clipped" />
<feFlood flood-color="rgba(0, 0, 0, 0.23)" result="color1Flood" />
<feComposite operator="in" in2="noise1Clipped" in="color1Flood" result="color1" />
<feMerge result="effect1_noise_1147_1006">
<feMergeNode in="shape" />
<feMergeNode in="color1" />
</feMerge>
</filter>
<filter id="filter8_n_1147_1006" x="468.557" y="227.623" width="32.2129" height="70.8522" filterUnits="userSpaceOnUse" color-interpolation-filters="sRGB">
<feFlood flood-opacity="0" result="BackgroundImageFix"/>
<feBlend mode="normal" in="SourceGraphic" in2="BackgroundImageFix" result="shape"/>
<feTurbulence type="fractalNoise" baseFrequency="10 10" stitchTiles="stitch" numOctaves="3" result="noise" seed="8965" />
<feColorMatrix in="noise" type="luminanceToAlpha" result="alphaNoise" />
<feComponentTransfer in="alphaNoise" result="coloredNoise1">
<feFuncA type="discrete" tableValues="1 1 1 1 1 1 1 1 1 1 1 1 1 1 1 1 1 1 1 1 1 1 1 1 1 1 1 1 1 1 1 1 1 1 1 1 1 1 1 1 1 1 1 1 1 1 1 1 1 1 1 0 0 0 0 0 0 0 0 0 0 0 0 0 0 0 0 0 0 0 0 0 0 0 0 0 0 0 0 0 0 0 0 0 0 0 0 0 0 0 0 0 0 0 0 0 0 0 0 0 "/>
</feComponentTransfer>
<feComposite operator="in" in2="shape" in="coloredNoise1" result="noise1Clipped" />
<feFlood flood-color="rgba(154, 60, 60, 0.23)" result="color1Flood" />
<feComposite operator="in" in2="noise1Clipped" in="color1Flood" result="color1" />
<feMerge result="effect1_noise_1147_1006">
<feMergeNode in="shape" />
<feMergeNode in="color1" />
</feMerge>
</filter>
<linearGradient id="paint0_linear_1147_1006" x1="478.3" y1="367.177" x2="478.3" y2="559.983" gradientUnits="userSpaceOnUse">
<stop stop-color="#DC9F8B"/>
<stop offset="0.811997" stop-color="#D78A7F"/>
</linearGradient>
<linearGradient id="paint1_linear_1147_1006" x1="61.0385" y1="411.339" x2="539.731" y2="463.119" gradientUnits="userSpaceOnUse">
<stop stop-color="#7A3D4B"/>
<stop offset="1" stop-color="#9F5663"/>
</linearGradient>
<linearGradient id="paint2_linear_1147_1006" x1="351.829" y1="455.166" x2="311.774" y2="524.55" gradientUnits="userSpaceOnUse">
<stop stop-color="#823F4F"/>
<stop offset="1" stop-color="#914D5A"/>
</linearGradient>
<linearGradient id="paint3_linear_1147_1006" x1="157.223" y1="395.108" x2="387.433" y2="516.351" gradientUnits="userSpaceOnUse">
<stop stop-color="#7B3944"/>
<stop offset="0.5" stop-color="#7F3D4A"/>
<stop offset="1" stop-color="#7E3945"/>
</linearGradient>
<linearGradient id="paint4_linear_1147_1006" x1="157.223" y1="395.108" x2="387.433" y2="516.351" gradientUnits="userSpaceOnUse">
<stop stop-color="#7B3944"/>
<stop offset="0.5" stop-color="#7F3D4A"/>
<stop offset="1" stop-color="#7E3945"/>
</linearGradient>
<linearGradient id="paint5_linear_1147_1006" x1="157.223" y1="395.108" x2="387.433" y2="516.351" gradientUnits="userSpaceOnUse">
<stop stop-color="#7B3944"/>
<stop offset="0.5" stop-color="#7F3D4A"/>
<stop offset="1" stop-color="#7E3945"/>
</linearGradient>
<linearGradient id="paint6_linear_1147_1006" x1="157.223" y1="395.108" x2="387.433" y2="516.351" gradientUnits="userSpaceOnUse">
<stop stop-color="#7B3944"/>
<stop offset="0.5" stop-color="#7F3D4A"/>
<stop offset="1" stop-color="#7E3945"/>
</linearGradient>
<linearGradient id="paint7_linear_1147_1006" x1="157.223" y1="395.108" x2="387.433" y2="516.351" gradientUnits="userSpaceOnUse">
<stop stop-color="#7B3944"/>
<stop offset="0.5" stop-color="#7F3D4A"/>
<stop offset="1" stop-color="#7E3945"/>
</linearGradient>
<linearGradient id="paint8_linear_1147_1006" x1="175.18" y1="383.653" x2="175.18" y2="439.128" gradientUnits="userSpaceOnUse">
<stop stop-color="#96403D"/>
<stop offset="1" stop-color="#9E5D63" stop-opacity="0.41"/>
</linearGradient>
<linearGradient id="paint9_linear_1147_1006" x1="175.18" y1="383.653" x2="175.18" y2="439.128" gradientUnits="userSpaceOnUse">
<stop stop-color="#96403D"/>
<stop offset="1" stop-color="#9E5D63" stop-opacity="0.41"/>
</linearGradient>
<linearGradient id="paint10_linear_1147_1006" x1="105.671" y1="383.653" x2="105.671" y2="439.546" gradientUnits="userSpaceOnUse">
<stop stop-color="#8C4858"/>
<stop offset="1" stop-color="#7A3D4B"/>
</linearGradient>
<linearGradient id="paint11_linear_1147_1006" x1="91.679" y1="396.47" x2="76.1794" y2="409.455" gradientUnits="userSpaceOnUse">
<stop stop-color="#7A3444"/>
<stop offset="1" stop-color="#7B3E4B"/>
</linearGradient>
<linearGradient id="paint12_linear_1147_1006" x1="238.962" y1="415.194" x2="318.384" y2="537.554" gradientUnits="userSpaceOnUse">
<stop stop-color="#C67465"/>
<stop offset="1" stop-color="#DC927D"/>
</linearGradient>
<linearGradient id="paint13_linear_1147_1006" x1="238.962" y1="415.194" x2="318.384" y2="537.554" gradientUnits="userSpaceOnUse">
<stop stop-color="#C67465"/>
<stop offset="1" stop-color="#DC927D"/>
</linearGradient>
<linearGradient id="paint14_linear_1147_1006" x1="238.962" y1="415.194" x2="318.384" y2="537.554" gradientUnits="userSpaceOnUse">
<stop stop-color="#C67465"/>
<stop offset="1" stop-color="#DC927D"/>
</linearGradient>
<linearGradient id="paint15_linear_1147_1006" x1="238.962" y1="415.194" x2="318.384" y2="537.554" gradientUnits="userSpaceOnUse">
<stop stop-color="#C67465"/>
<stop offset="1" stop-color="#DC927D"/>
</linearGradient>
<linearGradient id="paint16_linear_1147_1006" x1="863.148" y1="427.334" x2="707.3" y2="395.645" gradientUnits="userSpaceOnUse">
<stop stop-color="#D58C75"/>
<stop offset="0.454968" stop-color="#CE7662"/>
</linearGradient>
<linearGradient id="paint17_linear_1147_1006" x1="863.148" y1="427.334" x2="707.3" y2="395.645" gradientUnits="userSpaceOnUse">
<stop stop-color="#D58C75"/>
<stop offset="0.454968" stop-color="#CE7662"/>
</linearGradient>
<linearGradient id="paint18_linear_1147_1006" x1="723.679" y1="382.535" x2="723.679" y2="440.567" gradientUnits="userSpaceOnUse">
<stop stop-color="#A35B48"/>
<stop offset="0.5" stop-color="#C17468"/>
<stop offset="0.983041" stop-color="#B85555"/>
</linearGradient>
<linearGradient id="paint19_linear_1147_1006" x1="723.679" y1="382.535" x2="723.679" y2="440.567" gradientUnits="userSpaceOnUse">
<stop stop-color="#A35B48"/>
<stop offset="0.5" stop-color="#C17468"/>
<stop offset="0.983041" stop-color="#B85555"/>
</linearGradient>
<linearGradient id="paint20_linear_1147_1006" x1="723.679" y1="382.535" x2="723.679" y2="440.567" gradientUnits="userSpaceOnUse">
<stop stop-color="#A35B48"/>
<stop offset="0.5" stop-color="#C17468"/>
<stop offset="0.983041" stop-color="#B85555"/>
</linearGradient>
<linearGradient id="paint21_linear_1147_1006" x1="723.679" y1="382.535" x2="723.679" y2="440.567" gradientUnits="userSpaceOnUse">
<stop stop-color="#A35B48"/>
<stop offset="0.5" stop-color="#C17468"/>
<stop offset="0.983041" stop-color="#B85555"/>
</linearGradient>
<linearGradient id="paint22_linear_1147_1006" x1="723.679" y1="382.535" x2="723.679" y2="440.567" gradientUnits="userSpaceOnUse">
<stop stop-color="#A35B48"/>
<stop offset="0.5" stop-color="#C17468"/>
<stop offset="0.983041" stop-color="#B85555"/>
</linearGradient>
<linearGradient id="paint23_linear_1147_1006" x1="723.679" y1="382.535" x2="723.679" y2="440.567" gradientUnits="userSpaceOnUse">
<stop stop-color="#A35B48"/>
<stop offset="0.5" stop-color="#C17468"/>
<stop offset="0.983041" stop-color="#B85555"/>
</linearGradient>
<linearGradient id="paint24_linear_1147_1006" x1="723.679" y1="382.535" x2="723.679" y2="440.567" gradientUnits="userSpaceOnUse">
<stop stop-color="#A35B48"/>
<stop offset="0.5" stop-color="#C17468"/>
<stop offset="0.983041" stop-color="#B85555"/>
</linearGradient>
<linearGradient id="paint25_linear_1147_1006" x1="723.679" y1="382.535" x2="723.679" y2="440.567" gradientUnits="userSpaceOnUse">
<stop stop-color="#A35B48"/>
<stop offset="0.5" stop-color="#C17468"/>
<stop offset="0.983041" stop-color="#B85555"/>
</linearGradient>
<linearGradient id="paint26_linear_1147_1006" x1="723.679" y1="382.535" x2="723.679" y2="440.567" gradientUnits="userSpaceOnUse">
<stop stop-color="#A35B48"/>
<stop offset="0.5" stop-color="#C17468"/>
<stop offset="0.983041" stop-color="#B85555"/>
</linearGradient>
<linearGradient id="paint27_linear_1147_1006" x1="723.679" y1="382.535" x2="723.679" y2="440.567" gradientUnits="userSpaceOnUse">
<stop stop-color="#A35B48"/>
<stop offset="0.5" stop-color="#C17468"/>
<stop offset="0.983041" stop-color="#B85555"/>
</linearGradient>
<linearGradient id="paint28_linear_1147_1006" x1="723.679" y1="382.535" x2="723.679" y2="440.567" gradientUnits="userSpaceOnUse">
<stop stop-color="#A35B48"/>
<stop offset="0.5" stop-color="#C17468"/>
<stop offset="0.983041" stop-color="#B85555"/>
</linearGradient>
<linearGradient id="paint29_linear_1147_1006" x1="723.679" y1="382.535" x2="723.679" y2="440.567" gradientUnits="userSpaceOnUse">
<stop stop-color="#A35B48"/>
<stop offset="0.5" stop-color="#C17468"/>
<stop offset="0.983041" stop-color="#B85555"/>
</linearGradient>
<linearGradient id="paint30_linear_1147_1006" x1="723.679" y1="382.535" x2="723.679" y2="440.567" gradientUnits="userSpaceOnUse">
<stop stop-color="#A35B48"/>
<stop offset="0.5" stop-color="#C17468"/>
<stop offset="0.983041" stop-color="#B85555"/>
</linearGradient>
<linearGradient id="paint31_linear_1147_1006" x1="723.679" y1="382.535" x2="723.679" y2="440.567" gradientUnits="userSpaceOnUse">
<stop stop-color="#A35B48"/>
<stop offset="0.5" stop-color="#C17468"/>
<stop offset="0.983041" stop-color="#B85555"/>
</linearGradient>
<linearGradient id="paint32_linear_1147_1006" x1="0" y1="376.538" x2="666.466" y2="376.538" gradientUnits="userSpaceOnUse">
<stop stop-color="#F3B098"/>
<stop offset="1" stop-color="#FBCFB9"/>
</linearGradient>
<linearGradient id="paint33_linear_1147_1006" x1="444.398" y1="360.797" x2="444.398" y2="409.133" gradientUnits="userSpaceOnUse">
<stop stop-color="#E6A47D"/>
<stop offset="0.5" stop-color="#D69981"/>
<stop offset="1" stop-color="#E6B89E"/>
</linearGradient>
<linearGradient id="paint34_linear_1147_1006" x1="444.398" y1="360.797" x2="444.398" y2="409.133" gradientUnits="userSpaceOnUse">
<stop stop-color="#E6A47D"/>
<stop offset="0.5" stop-color="#D69981"/>
<stop offset="1" stop-color="#E6B89E"/>
</linearGradient>
<linearGradient id="paint35_linear_1147_1006" x1="444.398" y1="360.797" x2="444.398" y2="409.133" gradientUnits="userSpaceOnUse">
<stop stop-color="#E6A47D"/>
<stop offset="0.5" stop-color="#D69981"/>
<stop offset="1" stop-color="#E6B89E"/>
</linearGradient>
<linearGradient id="paint36_linear_1147_1006" x1="444.398" y1="360.797" x2="444.398" y2="409.133" gradientUnits="userSpaceOnUse">
<stop stop-color="#E6A47D"/>
<stop offset="0.5" stop-color="#D69981"/>
<stop offset="1" stop-color="#E6B89E"/>
</linearGradient>
<linearGradient id="paint37_linear_1147_1006" x1="444.398" y1="360.797" x2="444.398" y2="409.133" gradientUnits="userSpaceOnUse">
<stop stop-color="#E6A47D"/>
<stop offset="0.5" stop-color="#D69981"/>
<stop offset="1" stop-color="#E6B89E"/>
</linearGradient>
<linearGradient id="paint38_linear_1147_1006" x1="444.398" y1="360.797" x2="444.398" y2="409.133" gradientUnits="userSpaceOnUse">
<stop stop-color="#E6A47D"/>
<stop offset="0.5" stop-color="#D69981"/>
<stop offset="1" stop-color="#E6B89E"/>
</linearGradient>
<linearGradient id="paint39_linear_1147_1006" x1="444.398" y1="360.797" x2="444.398" y2="409.133" gradientUnits="userSpaceOnUse">
<stop stop-color="#E6A47D"/>
<stop offset="0.5" stop-color="#D69981"/>
<stop offset="1" stop-color="#E6B89E"/>
</linearGradient>
<linearGradient id="paint40_linear_1147_1006" x1="444.398" y1="360.797" x2="444.398" y2="409.133" gradientUnits="userSpaceOnUse">
<stop stop-color="#E6A47D"/>
<stop offset="0.5" stop-color="#D69981"/>
<stop offset="1" stop-color="#E6B89E"/>
</linearGradient>
<linearGradient id="paint41_linear_1147_1006" x1="444.398" y1="360.797" x2="444.398" y2="409.133" gradientUnits="userSpaceOnUse">
<stop stop-color="#E6A47D"/>
<stop offset="0.5" stop-color="#D69981"/>
<stop offset="1" stop-color="#E6B89E"/>
</linearGradient>
<linearGradient id="paint42_linear_1147_1006" x1="444.398" y1="360.797" x2="444.398" y2="409.133" gradientUnits="userSpaceOnUse">
<stop stop-color="#E6A47D"/>
<stop offset="0.5" stop-color="#D69981"/>
<stop offset="1" stop-color="#E6B89E"/>
</linearGradient>
<linearGradient id="paint43_linear_1147_1006" x1="444.398" y1="360.797" x2="444.398" y2="409.133" gradientUnits="userSpaceOnUse">
<stop stop-color="#E6A47D"/>
<stop offset="0.5" stop-color="#D69981"/>
<stop offset="1" stop-color="#E6B89E"/>
</linearGradient>
<linearGradient id="paint44_linear_1147_1006" x1="444.398" y1="360.797" x2="444.398" y2="409.133" gradientUnits="userSpaceOnUse">
<stop stop-color="#E6A47D"/>
<stop offset="0.5" stop-color="#D69981"/>
<stop offset="1" stop-color="#E6B89E"/>
</linearGradient>
<linearGradient id="paint45_linear_1147_1006" x1="444.398" y1="360.797" x2="444.398" y2="409.133" gradientUnits="userSpaceOnUse">
<stop stop-color="#E6A47D"/>
<stop offset="0.5" stop-color="#D69981"/>
<stop offset="1" stop-color="#E6B89E"/>
</linearGradient>
<linearGradient id="paint46_linear_1147_1006" x1="444.398" y1="360.797" x2="444.398" y2="409.133" gradientUnits="userSpaceOnUse">
<stop stop-color="#E6A47D"/>
<stop offset="0.5" stop-color="#D69981"/>
<stop offset="1" stop-color="#E6B89E"/>
</linearGradient>
<linearGradient id="paint47_linear_1147_1006" x1="444.398" y1="360.797" x2="444.398" y2="409.133" gradientUnits="userSpaceOnUse">
<stop stop-color="#E6A47D"/>
<stop offset="0.5" stop-color="#D69981"/>
<stop offset="1" stop-color="#E6B89E"/>
</linearGradient>
<linearGradient id="paint48_linear_1147_1006" x1="444.398" y1="360.797" x2="444.398" y2="409.133" gradientUnits="userSpaceOnUse">
<stop stop-color="#E6A47D"/>
<stop offset="0.5" stop-color="#D69981"/>
<stop offset="1" stop-color="#E6B89E"/>
</linearGradient>
<linearGradient id="paint49_linear_1147_1006" x1="444.398" y1="360.797" x2="444.398" y2="409.133" gradientUnits="userSpaceOnUse">
<stop stop-color="#E6A47D"/>
<stop offset="0.5" stop-color="#D69981"/>
<stop offset="1" stop-color="#E6B89E"/>
</linearGradient>
<linearGradient id="paint50_linear_1147_1006" x1="6.88428" y1="357.348" x2="286.702" y2="357.348" gradientUnits="userSpaceOnUse">
<stop stop-color="#E9AA9E"/>
<stop offset="1" stop-color="#E07F6F"/>
</linearGradient>
<linearGradient id="paint51_linear_1147_1006" x1="201.104" y1="334.611" x2="623.365" y2="334.611" gradientUnits="userSpaceOnUse">
<stop stop-color="#99523A"/>
<stop offset="0.471884" stop-color="#CE7E55"/>
<stop offset="0.978905" stop-color="#F2AA7A"/>
</linearGradient>
<linearGradient id="paint52_linear_1147_1006" x1="201.103" y1="332.404" x2="588.097" y2="327.408" gradientUnits="userSpaceOnUse">
<stop stop-color="#8C452D"/>
<stop offset="0.5" stop-color="#82402A"/>
<stop offset="1" stop-color="#A35931"/>
</linearGradient>
<linearGradient id="paint53_linear_1147_1006" x1="576.064" y1="310.503" x2="590.61" y2="375.062" gradientUnits="userSpaceOnUse">
<stop stop-color="#B87243"/>
<stop offset="1" stop-color="#DD9765"/>
</linearGradient>
<linearGradient id="paint54_linear_1147_1006" x1="576.064" y1="310.503" x2="590.61" y2="375.062" gradientUnits="userSpaceOnUse">
<stop stop-color="#B87243"/>
<stop offset="1" stop-color="#DD9765"/>
</linearGradient>
<linearGradient id="paint55_linear_1147_1006" x1="576.064" y1="310.503" x2="590.61" y2="375.062" gradientUnits="userSpaceOnUse">
<stop stop-color="#B87243"/>
<stop offset="1" stop-color="#DD9765"/>
</linearGradient>
<linearGradient id="paint56_linear_1147_1006" x1="576.064" y1="310.503" x2="590.61" y2="375.062" gradientUnits="userSpaceOnUse">
<stop stop-color="#B87243"/>
<stop offset="1" stop-color="#DD9765"/>
</linearGradient>
<linearGradient id="paint57_linear_1147_1006" x1="576.064" y1="310.503" x2="590.61" y2="375.062" gradientUnits="userSpaceOnUse">
<stop stop-color="#B87243"/>
<stop offset="1" stop-color="#DD9765"/>
</linearGradient>
<linearGradient id="paint58_linear_1147_1006" x1="576.064" y1="310.503" x2="590.61" y2="375.062" gradientUnits="userSpaceOnUse">
<stop stop-color="#B87243"/>
<stop offset="1" stop-color="#DD9765"/>
</linearGradient>
<linearGradient id="paint59_linear_1147_1006" x1="401.718" y1="81.8823" x2="401.718" y2="110.937" gradientUnits="userSpaceOnUse">
<stop stop-color="#E1CCC9"/>
<stop offset="1" stop-color="#C18184"/>
</linearGradient>
<linearGradient id="paint60_linear_1147_1006" x1="543.692" y1="75.2791" x2="543.692" y2="110.938" gradientUnits="userSpaceOnUse">
<stop stop-color="#E1CCC9"/>
<stop offset="1" stop-color="#C18184"/>
</linearGradient>
<linearGradient id="paint61_linear_1147_1006" x1="452.993" y1="15.4794" x2="456.739" y2="59.6906" gradientUnits="userSpaceOnUse">
<stop stop-color="#E1CCC9"/>
<stop offset="1" stop-color="#C18184"/>
</linearGradient>
<linearGradient id="paint62_linear_1147_1006" x1="435.396" y1="105.655" x2="435.396" y2="213.951" gradientUnits="userSpaceOnUse">
<stop stop-color="#685A53"/>
<stop offset="1" stop-color="#775A55"/>
</linearGradient>
<linearGradient id="paint63_linear_1147_1006" x1="502.751" y1="104.334" x2="502.751" y2="252.251" gradientUnits="userSpaceOnUse">
<stop stop-color="#6C5D58"/>
<stop offset="1" stop-color="#80615D"/>
</linearGradient>
<linearGradient id="paint64_linear_1147_1006" x1="454.81" y1="55.9438" x2="454.81" y2="299.968" gradientUnits="userSpaceOnUse">
<stop stop-color="#6C5D58"/>
<stop offset="0.5" stop-color="#80615D"/>
<stop offset="1" stop-color="#5E3C37"/>
</linearGradient>
</defs>
</svg>

