<svg width="963" height="490" viewBox="0 0 963 490" fill="none" xmlns="http://www.w3.org/2000/svg">
<g filter="url(#filter0_n_1147_1004)">
<path d="M33.1659 342.147L6.34008 314.926C4.48295 313.041 3.44189 310.501 3.44189 307.856C3.44189 302.296 7.94702 297.787 13.507 297.783L942.643 297.122C948.449 297.118 953.158 301.823 953.158 307.63C953.158 310.576 951.921 313.386 949.749 315.377L934.094 329.722L910.363 350.699C903.396 356.857 894.956 361.113 885.861 363.052L792.778 382.903C783.705 384.838 775.35 389.26 768.648 395.675C744.564 418.728 713.355 432.903 680.149 435.872L616.653 441.55C611.556 442.006 606.716 443.78 602.415 446.553C582.421 459.444 519.893 496.386 470.441 488.938C416.079 480.751 378.212 458.59 362.667 448.014C357.423 444.447 351.347 442.102 345.01 441.837L287.568 439.436C255.953 438.114 225.609 426.626 201.045 406.68L184.072 392.897C176.961 387.123 168.497 383.252 159.478 381.65L100.44 371.16C97.2744 370.598 94.1657 369.754 91.1506 368.639L51.4312 353.945C44.551 351.4 38.3151 347.372 33.1659 342.147Z" fill="url(#paint0_linear_1147_1004)"/>
<path d="M31.9017 342.43L5.153 315.172C3.29988 313.284 2.26172 310.743 2.26172 308.098C2.26172 302.522 6.77933 298.001 12.3547 297.997L535.25 297.624C541.881 297.619 547.259 302.993 547.259 309.624V341.688C546.781 358.818 541.323 381.457 538.654 390.635C532.864 409.109 511.6 445.285 501.691 461.063C498.065 469.163 488.191 476.694 478.989 482.132C470.347 487.24 460.006 488.338 450.201 486.184C405.603 476.384 374.418 457.914 360.673 448.527C355.421 444.939 349.339 442.588 342.983 442.322L285.995 439.929C254.285 438.598 223.858 427.04 199.261 406.982L182.509 393.321C175.39 387.517 166.909 383.624 157.867 382.011L99.0617 371.518C95.8855 370.951 92.7663 370.101 89.7418 368.978L50.1765 354.279C43.2882 351.72 37.0485 347.674 31.9017 342.43Z" fill="url(#paint1_linear_1147_1004)"/>
<path d="M335.193 336.34L234.493 330.365C226.912 349.608 240.792 368.956 248.68 376.225L278.701 388.152L313.89 436.663L355.674 439.067C373.643 453.631 387.249 455.382 391.807 454.437C389.55 453.042 386.152 440.923 383.905 434.885C382.625 422.28 376.326 405.467 374.352 399.733C358.558 390.561 337.433 352.74 335.193 336.34Z" fill="url(#paint2_linear_1147_1004)" fill-opacity="0.88"/>
<path d="M234.524 330.303C232.965 344.44 239.135 373.64 276.289 377.351C284.346 379.625 299.809 388.975 297.201 408.184C301.146 414.42 308.093 425.177 311.853 430.34C312.801 431.432 313.661 432.421 314.395 433.264C314.172 433.361 313.225 432.222 311.853 430.34C306.018 423.615 296.846 412.975 292.936 408.184C286.355 401.203 267.341 387.895 243.933 390.521C232.334 392.138 206.833 389.151 197.629 364.264C198.005 372.878 207.792 391.188 243.933 395.521C250.871 398.048 265.651 405.442 269.273 414.799C274.038 418.418 284.183 426.544 286.645 430.1C276.448 422.207 251.897 405.628 235.273 402.458C241.217 409.834 253.538 424.803 255.279 425.677C251.394 431.349 230.204 433.804 176.378 385.223C169.688 382.31 151.017 377.037 140.346 374.503C130.363 361.346 109.966 337.755 104.696 318.341L102.513 313.59C142.219 316.822 224.21 324.69 234.524 330.303Z" fill="url(#paint3_linear_1147_1004)"/>
<path d="M381.423 339.189H372.811C377.389 352.83 386.543 380.482 386.543 381.966C394.224 408.14 405.164 416.823 406.095 419.396C416.894 428.365 422.387 443.866 423.784 450.496C423.784 438.149 413.387 422.903 408.189 416.823C399.438 401.858 386.699 358.832 381.423 339.189Z" fill="url(#paint4_linear_1147_1004)"/>
<path d="M372.811 397.457C355.209 387.851 339.475 352.594 333.808 336.166H331.039C335.793 352.362 348.154 371.724 353.741 379.381C357.747 386.519 367.215 394.884 371.448 398.174C376.558 401.962 380.605 418.15 381.989 425.771C383.477 440.771 389.306 449.445 392.034 451.906C388.699 448.444 385.549 438.036 384.391 433.264C380.723 408.187 375.142 398.944 372.811 397.457Z" fill="url(#paint5_linear_1147_1004)"/>
<path d="M430.587 422.538C426.611 417.564 427.118 410.543 427.868 407.654C431.579 394.455 428.374 381.028 426.247 375.789C432.228 388.958 432.07 398.688 431.243 401.907C426.818 411.78 428.962 419.775 430.587 422.538Z" fill="url(#paint6_linear_1147_1004)"/>
<path d="M440.433 406.994C450.747 415.441 465.825 437.197 443.621 456.64C451.028 448.633 460.761 427.493 440.433 406.994Z" fill="url(#paint7_linear_1147_1004)"/>
<path d="M104.129 315.087L95.5349 313.59C99.6207 323.404 109.35 336.537 113.704 341.877C125.961 360.466 139.812 374.5 141.285 373.908C139.223 373.316 118.713 346.021 118.713 344.689C112.349 337.111 106.339 321.797 104.129 315.087Z" fill="url(#paint8_linear_1147_1004)"/>
<path d="M238.865 349.317C236.363 333.396 232.903 329.147 231.487 329.013C229.241 332.558 233.705 343.328 236.218 348.27C242.827 366.512 251.376 369.676 254.825 368.977C246.74 366.528 240.816 354.85 238.865 349.317Z" fill="url(#paint9_linear_1147_1004)"/>
<path d="M88.4284 314.834L76.33 313.59C79.3022 325.917 91.985 338.697 97.9548 343.547C109.31 351.816 111.133 361.348 110.625 365.081L135.012 369.483C133.946 366.574 118.31 348.3 110.625 339.527C102.851 335.852 92.5883 321.534 88.4284 314.834Z" fill="url(#paint10_linear_1147_1004)"/>
<path d="M74.4362 314.834L62.3377 313.59C65.31 325.917 77.9928 338.697 83.9626 343.547C95.3181 351.816 97.1408 361.348 96.6327 365.081L121.02 369.483C120.217 367.292 111.146 356.381 103.434 347.381C98.9741 342.176 93.2913 338.043 88.5022 333.139C82.7955 327.296 77.2347 319.341 74.4362 314.834Z" fill="url(#paint11_linear_1147_1004)"/>
<path d="M448.123 341.036H440.068C442.484 367.95 461.435 387.889 470.609 394.495C492.663 412.477 483.731 444.963 476.508 458.958C497.988 423.967 482.645 398.134 472.288 389.592C451.575 374.948 447.548 351.119 448.123 341.036Z" fill="url(#paint12_linear_1147_1004)"/>
<path d="M421.067 365.795C408.921 356.162 408.149 345.275 409.281 341.036C409.281 343.706 414.208 352.232 416.671 356.162C428.018 368.262 428.99 379.4 428.058 383.456C427.419 374.626 423.131 368.003 421.067 365.795Z" fill="url(#paint13_linear_1147_1004)"/>
<path d="M299.409 351.144C293.336 335.891 296.213 335.289 298.41 336.895C311.576 353.774 330.665 393.299 338.563 410.952L323.581 391.083C317.029 386.748 304.736 362.651 299.409 351.144Z" fill="url(#paint14_linear_1147_1004)"/>
<path d="M166.019 326.056C177.431 333.922 196.274 363.119 196.407 363.918C201.079 375.224 213.658 384.894 219.363 388.316C208.853 384.689 198.972 373.917 195.345 368.984L179.023 349.786C162.568 331.335 163.497 326.278 166.019 326.056Z" fill="url(#paint15_linear_1147_1004)"/>
<path d="M762.37 330.206L705.378 335.525C705.378 344.686 692.082 370.538 685.434 382.319L687.539 383.582C735.548 363.674 757.43 339.703 762.37 330.206Z" fill="url(#paint16_linear_1147_1004)"/>
<path d="M772.688 389.714C780.585 385.112 798.079 326.922 799.466 326.026C800.883 325.112 843.018 323.66 863.148 321.609C858.029 344.617 835.839 363.288 825.384 369.748C822.792 373.197 781.216 386.862 772.688 389.714C772.521 389.811 772.358 389.884 772.201 389.933C770.584 390.427 770.95 390.295 772.688 389.714Z" fill="url(#paint17_linear_1147_1004)"/>
<path d="M577.622 345.424L572.632 346.126C573.887 355.569 572.109 376.664 571.063 386.031C565.771 401.863 552.511 424.945 546.542 434.507C542.551 440.239 530.433 452.445 524.873 457.831C528.18 457.157 540.697 444.342 546.542 438.019C547.113 441.841 544.784 452.82 543.549 457.831C547.198 453.447 549.061 441.673 549.536 436.333C556.037 426.329 569.258 398.63 575.056 386.031C578.135 378.725 578.05 355.915 577.622 345.424Z" fill="url(#paint18_linear_1147_1004)"/>
<path d="M606.317 377.937C609.413 362.044 616.959 350.76 620.346 347.105C612.46 361.765 608.282 381.085 607.179 388.913C600.79 404.4 589.752 414.324 585.032 417.35L594.707 405.272C601.802 397.516 605.403 383.817 606.317 377.937Z" fill="url(#paint19_linear_1147_1004)"/>
<path d="M634.52 341.686H631.498L628.918 379.233C627.231 387.482 620.418 396.115 619.315 396.69C606.754 409.53 605.991 417.226 607.179 419.469C607.179 416.947 611.468 409.819 613.612 406.571C621.755 397.947 628.929 386.544 631.498 381.921C632.777 380.545 634.045 354.524 634.52 341.686Z" fill="url(#paint20_linear_1147_1004)"/>
<path d="M586.696 453.573C587.11 453.165 604.357 428.986 606.003 424.041C606.027 423.959 606.051 423.878 606.075 423.798C606.056 423.873 606.032 423.954 606.003 424.041C603.977 430.774 597.417 445.713 586.696 453.573Z" fill="url(#paint21_linear_1147_1004)"/>
<path d="M677.721 337.787L674.5 338.145C674.5 338.432 672.654 355.167 671.731 363.498C670.316 373.554 661.554 388.253 657.35 394.346C668.078 384.567 673.253 369.425 674.5 363.076L677.721 337.787Z" fill="url(#paint22_linear_1147_1004)"/>
<path d="M651.993 415.66C691.366 381.923 703.041 348.66 703.956 336.245L705.665 335.625V336.245C704.516 350.614 693.179 371.715 687.654 380.47C686.239 382.648 688.243 382.344 689.422 381.921C692.25 379.074 709.091 371.853 717.157 368.599C734.13 360.091 754.359 339.497 762.352 330.263H765.778C757.026 350.041 723.824 368.708 708.317 375.569C695.853 378.531 681.813 390.884 676.352 396.69C668.952 408.506 651.386 430.028 643.528 439.312C641.382 440.532 632.894 440.498 628.918 440.329C630.436 438.702 644.934 423.205 651.993 415.66Z" fill="url(#paint23_linear_1147_1004)"/>
<path d="M732.604 377.937C717.733 383.31 694.444 395.957 684.658 401.608C711.685 394.397 730.145 383.687 735.997 379.233C760.262 364.474 764.597 356.691 763.731 354.645C760.545 362.022 741.652 373.247 732.604 377.937Z" fill="url(#paint24_linear_1147_1004)"/>
<path d="M700.443 417.35C673.889 420.173 659.481 431.182 655.596 436.333C663.739 429.45 688.887 422.223 700.443 419.469C728.414 410.494 737.767 400.544 738.947 396.69C730.804 406.481 709.885 414.543 700.443 417.35Z" fill="url(#paint25_linear_1147_1004)"/>
<path d="M753.455 387.449C753.184 388.517 743.565 395.874 741.669 401.608C745.597 398.268 753.455 390.76 753.455 387.449Z" fill="url(#paint26_linear_1147_1004)"/>
<path d="M822.798 352.827C817.712 359.461 795.996 367.386 785.774 370.519C807.411 360.683 818.175 354.089 820.852 352.021C827.608 339.561 829.87 328.691 830.156 324.814H831.961C830.614 336.756 825.291 348.465 822.798 352.827Z" fill="url(#paint27_linear_1147_1004)"/>
<path d="M864.641 321.228L861.746 321.941C857.693 345.624 835.449 360.819 824.833 365.456C803.216 372.589 788.483 380.951 783.819 384.24C797.04 383.384 812.81 378.811 819.043 376.631C851.661 357.323 863.033 331.651 864.641 321.228Z" fill="url(#paint28_linear_1147_1004)"/>
<path d="M840.04 372.698C839.885 372.815 839.761 372.899 839.671 372.946C839.794 372.863 839.917 372.78 840.04 372.698C843.796 369.847 865.64 347.062 866.451 345.006C865.173 349.179 858.103 360.522 840.04 372.698Z" fill="url(#paint29_linear_1147_1004)"/>
<path d="M891.936 317.981L887.645 318.301C888.685 326.437 879.715 342.197 882.185 340.724C884.161 339.545 889.509 325.071 891.936 317.981Z" fill="url(#paint30_linear_1147_1004)"/>
<path d="M922.486 312.472C921.511 312.685 919.483 313.151 919.171 313.305C915.986 321.12 909.928 336.508 911.176 335.535C912.424 334.561 919.236 319.754 922.486 312.472Z" fill="url(#paint31_linear_1147_1004)"/>
<path d="M948.132 297.728C545.414 239.924 158.884 269.269 6.57041 298.484C3.55872 299.061 2.77958 302.38 5.47442 303.843C23.4801 313.622 70.7591 319.503 94.7611 321.359C125.152 326.249 184.117 329.677 209.802 330.78C219.259 334.64 271.429 337.825 296.331 338.935C299.828 338.75 351.403 342.723 376.753 344.732C387.243 345.298 408.441 346.428 409.315 346.428H448.138C466.69 349.389 522.758 348.377 548.474 347.501C562.678 348.156 659.635 340.129 706.338 336.033C718.072 336.361 776.843 329.07 804.762 325.384C872.155 324.035 922.834 312.863 948.876 304.576C952.72 303.353 952.125 298.301 948.132 297.728Z" fill="url(#paint32_linear_1147_1004)"/>
<path d="M133.713 310.043C124.092 307.442 69.7468 309.523 67.6665 310.043C74.4812 311.304 100.356 311.157 112.441 310.926C120.968 310.708 130.175 310.246 133.713 310.043Z" fill="url(#paint33_linear_1147_1004)"/>
<path d="M133.713 314.559C141.934 313.629 160.049 312.133 166.744 313.589C161.664 314.68 147.945 316.403 133.713 314.559Z" fill="url(#paint34_linear_1147_1004)"/>
<path d="M160.356 318.533C173.792 317.794 201.665 316.758 205.659 318.533C193.711 319.611 167.923 321.119 160.356 318.533Z" fill="url(#paint35_linear_1147_1004)"/>
<path d="M214.905 316.499C221.561 315.206 235.911 313.007 240.053 314.559C236.971 315.514 227.627 317.239 214.905 316.499Z" fill="url(#paint36_linear_1147_1004)"/>
<path d="M243.668 328.197C255.358 327.383 279.004 326.244 280.07 328.197C271.265 329.159 251.659 330.505 243.668 328.197Z" fill="url(#paint37_linear_1147_1004)"/>
<path d="M287.838 325.756C301.23 324.424 330.01 322.559 338.001 325.756C323.869 326.199 294.053 326.821 287.838 325.756Z" fill="url(#paint38_linear_1147_1004)"/>
<path d="M338.001 329.5C344.107 329.027 356.941 328.364 359.421 329.5C354.14 330.319 342.463 331.464 338.001 329.5Z" fill="url(#paint39_linear_1147_1004)"/>
<path d="M364.071 329.5C370.1 328.898 382.699 328.183 384.869 330.146C378.884 330.62 366.345 331.154 364.071 329.5Z" fill="url(#paint40_linear_1147_1004)"/>
<path d="M391.848 323.498C392.437 323.262 424.727 322.201 426.377 323.498C418.996 324.541 401.756 326.001 391.848 323.498Z" fill="url(#paint41_linear_1147_1004)"/>
<path d="M454.612 334.11C455.602 333.78 523.077 330.15 535.615 334.11C509.384 334.77 456.46 335.694 454.612 334.11Z" fill="url(#paint42_linear_1147_1004)"/>
<path d="M553.766 323.308C571.638 324.922 608.196 328.747 611.455 331.13C594.507 329.827 559.241 326.437 553.766 323.308Z" fill="url(#paint43_linear_1147_1004)"/>
<path d="M622.7 324.938C629.599 325.155 644.016 326.144 646.493 328.36C640.517 328.523 627.393 328.067 622.7 324.938Z" fill="url(#paint44_linear_1147_1004)"/>
<path d="M661.485 318.745C673.11 317.767 697.924 316.724 704.182 320.375C693.101 320.157 669.047 319.527 661.485 318.745Z" fill="url(#paint45_linear_1147_1004)"/>
<path d="M729.864 311.746C727.969 311.825 726.277 311.912 724.847 311.999C725.534 311.78 727.321 311.708 729.864 311.746C742.072 311.242 762.726 311.08 776.175 313.386C789.308 314.033 816.683 314.662 821.122 311.999C821.439 314.247 812.744 318.006 775.426 315.054C763.059 313.866 740.206 311.902 729.864 311.746Z" fill="url(#paint46_linear_1147_1004)"/>
<path d="M659.208 333.027C664.997 333.918 670.472 337.427 672.486 339.07H669.227C669.163 338.179 662.521 334.67 659.208 333.027Z" fill="url(#paint47_linear_1147_1004)"/>
<path d="M746.241 297.993C747.323 298.113 785.429 299.556 793.483 301.359C781.289 301.486 754.77 300.991 746.241 297.993Z" fill="url(#paint48_linear_1147_1004)"/>
<path d="M746.241 290.735C768.048 291.579 811.678 293.139 814.314 292.722C814.345 292.716 814.375 292.709 814.405 292.702C814.385 292.709 814.354 292.716 814.314 292.722C807.637 294.189 784.854 295.817 746.241 290.735Z" fill="url(#paint49_linear_1147_1004)"/>
<g filter="url(#filter1_n_1147_1004)">
<path d="M286.702 307.767V271.058C179.937 271.059 31.7653 292.66 6.88428 298.539C16.9101 301.547 222.67 307.472 286.702 307.767Z" fill="url(#paint50_linear_1147_1004)"/>
</g>
<path d="M535.647 214.08L380.876 228.107L386.635 218.043L364.353 222.5L335.446 226.703C329.104 227.625 323.078 230.058 317.873 233.795L285.412 257.101C280.347 260.738 274.601 263.301 268.762 265.487C253.358 271.254 230.53 282.744 219.227 288.765C209.239 293.279 204.438 296.539 202.399 298.626C201.073 299.985 202.221 301.374 204.1 301.647C224.381 304.601 293.811 308.28 330.171 309.94C332.085 310.028 333.97 310.284 335.838 310.711L346.08 313.048C364.81 315.439 475.001 315.796 527.755 315.676C570.37 315.25 682.574 304.179 738.942 298.109C740.861 297.902 741.368 295.39 739.681 294.453C713.862 280.112 683.948 268.082 667.293 262.084C663.233 260.621 659.355 258.72 655.778 256.306L630.597 239.307C619.695 231.948 607.183 227.32 594.117 225.812L569.233 222.942C565.106 222.466 561.076 221.365 557.28 219.678L550.043 216.461C545.526 214.454 540.57 213.634 535.647 214.08Z" fill="url(#paint51_linear_1147_1004)"/>
<path d="M465.08 252.684C467.135 253.318 469.437 253.462 470.33 253.454C478.013 254.997 483.967 266.193 485.984 271.599C491.13 281.267 501.74 287.769 506.403 289.811C529.361 296.786 541.819 309.559 545.178 315.073H542.04C534.305 302.357 516.123 294.698 507.998 292.457C496.448 289.901 487.554 278.917 484.552 273.745C479.995 259.757 470.555 255.289 466.405 254.804L465.08 252.684ZM454.337 265.439C452.029 277.577 443.997 304.32 430.334 314.191L427.482 313.794C432.578 311.257 444.833 298.127 453.088 265.898L454.337 265.439ZM562.133 277.107C566.974 278.318 577.079 281.558 578.766 284.838C578.688 286.985 578.298 292.405 577.361 296.903C579.86 301.354 585.278 310.561 586.965 311.779C586.201 312.41 582.855 310.464 575.581 297.63C575.181 297.316 574.253 295.299 573.751 289.738C573.873 288.519 573.312 285.724 570.093 284.303C566.598 282.119 560.114 277.623 562.133 277.107ZM397.955 216.564C447.492 214.258 527.096 211.637 545.885 215.009C548.619 215.499 549.235 218.048 547.491 220.21C544.065 224.458 537.438 230.008 526.942 232.73C511.654 234.181 472.396 236.485 433.398 234.621C430.032 234.46 426.685 235.08 423.439 235.985C414.274 238.542 397.002 241.102 373.978 238.835C368.261 238.272 362.484 239.634 357.861 243.044C342.65 254.261 320.062 271.31 313.497 277.755C317.124 275.591 324.727 271.193 326.131 270.912C327.36 271.438 331.185 271.543 336.658 267.754C341.308 263.853 352.817 255.994 361.654 255.762C371.004 256.924 390.458 258.901 393.483 257.506C388.8 261.84 380.267 270.471 376.666 276.436C375.205 278.856 374.608 281.698 373.306 284.208C370.844 288.955 366.228 295.617 359.204 300.85C357.311 302.26 355.177 303.296 353.009 304.23C348.206 306.3 341.552 309.344 338.69 311.282C297.713 309.894 214.028 306.264 207.104 302.853C202.459 302.421 196.064 300.036 207.645 293.946C225.826 284.835 264.774 265.843 275.116 262.769C283.73 257.359 302.222 245.46 307.273 241.147C312.097 236.253 326.142 226.293 343.734 225.612C351.604 224.19 365.581 221.596 375.812 219.521C383.121 218.038 390.505 216.91 397.955 216.564ZM355.618 274.399C351.8 276.437 348.42 279.206 345.67 282.549L336.16 294.109C333.904 296.852 331.22 299.212 328.212 301.1L315.004 309.387H317.851L330.324 301.878C333.484 299.975 336.304 297.556 338.664 294.721L347.993 283.518C350.485 280.525 353.487 277.997 356.86 276.051L381.652 261.745L380.898 260.908L355.618 274.399ZM305.207 290.548C302.795 292.893 288.127 303.358 281.094 308.298H283.104C290.405 305.619 301.72 295.739 306.464 291.134L305.207 290.548ZM462.884 269.197C462.32 275.634 461.621 289.297 463.341 292.457C465.123 295.362 470.86 301.915 479.551 304.89C478.021 306.497 472.114 306.9 460.727 295.652C459.925 293.238 458.701 284.566 460.221 269.197H462.884ZM289.597 280.105C279.668 287.351 258.864 302.488 255.076 305.07C261.074 302.176 276.65 293.527 290.975 282.091C291.721 281.429 292.489 280.105 289.597 280.105ZM439.14 269.197C438.126 273.432 431.53 283.189 413.257 288.336C407.106 291.632 391.958 299.53 380.583 304.753L379.304 302.018L409.412 288.336C414.473 281.829 427.504 268.891 439.14 269.197ZM589.41 282.314C616.103 293.614 617.841 298.843 615.373 300.045C604.662 297.584 593.602 287.199 589.41 282.314ZM264.788 287.366C261.749 289.154 258.309 290.148 254.784 290.256L248.593 290.445C246.387 290.513 244.205 290.928 242.128 291.675L228.822 296.462C231.319 296.176 235.892 295.449 239.791 294.327C243.218 293.341 246.703 292.267 250.267 292.147L254.867 291.991C258.339 291.874 261.727 290.898 264.729 289.15L274.79 283.291C274.991 282.891 275.066 282.091 273.758 282.091L264.788 287.366ZM633.589 285.672C642.171 286.595 658.573 289.686 655.528 294.669C653.798 296.594 646.989 297.488 633.589 285.672ZM330.661 282.091C327.848 284.167 313.358 291.44 306.464 294.817L307.887 295.487C323.494 289.928 330.466 284.24 332.001 282.091H330.661ZM537.972 278.259C551.594 279.012 559.26 289.9 561.391 295.25C555.329 286.74 543.253 280.376 537.972 278.259ZM427.234 247.544C427.007 248.63 422.642 252.812 406.993 260.856C404.412 262.487 399.387 267.54 399.93 274.712C407.305 271.214 425.222 263.749 437.889 261.869L438.058 262.581C425.625 265.722 399.862 274.557 396.27 284.764C395.403 286.808 393.291 290.728 391.78 290.062C392.051 281.307 395.746 262.541 408.352 257.506C409.167 257.506 426.185 249.038 427.234 247.544ZM624.523 265.948C626.738 269.934 638.917 275.049 644.731 277.107C632.385 276.069 626.115 269.236 624.523 265.948ZM351.76 244.806C343.799 245.159 335.08 248.516 329.113 251.454C325.545 253.211 322.438 255.764 319.205 258.08C310.048 264.641 291.83 275.571 290.975 275.668C292.077 276.365 293.592 276.32 294.211 276.21C301.616 273.474 317.654 261.865 324.748 256.402C330.643 251.781 345.212 247.638 351.76 246.145V244.806ZM537.972 235.131C534.05 228.556 556.213 242.539 567.785 250.353C602.151 266.967 610.259 273.12 610.018 274.12C602.04 269.134 578.539 257.574 567.785 252.417C557.814 250.508 543.755 240.097 537.972 235.131ZM510.582 254.804C519.101 255.883 525.038 257.93 526.942 258.819C535.69 262.432 533.807 266.243 531.772 267.697C528.037 269.136 524.196 265.899 522.741 264.101C520.476 261.652 513.691 256.882 510.582 254.804ZM586.074 241.944C585.885 240.788 586.522 241.462 586.865 241.944C591.326 247.68 596.476 251.043 598.493 252.007C600.333 251.88 605 252.923 607.104 253.461C626.045 260.728 620.003 262.212 614.615 262.045C600.194 259.126 589.579 247.428 586.074 241.944ZM523.931 242.61C539.562 245.683 546.614 254.221 548.186 258.106C544.143 253.312 530.332 245.778 523.931 242.61Z" fill="url(#paint52_linear_1147_1004)"/>
<path d="M482.357 246.984C472.784 248.779 456.306 243.369 449.263 240.44C447.67 240.44 448.06 241.566 448.453 242.129C463.122 250.55 477.74 249.734 483.216 248.273L482.357 246.984Z" fill="url(#paint53_linear_1147_1004)"/>
<path d="M482.357 298.748C482.357 305.35 480.682 312.736 479.844 315.604H483.216V314.726C485.914 308.405 483.767 301.44 482.357 298.748Z" fill="url(#paint54_linear_1147_1004)"/>
<path d="M509.16 280.365C518.894 285.477 540.385 296.614 548.477 300.268C544.02 295.972 529.916 285.977 509.16 280.365Z" fill="url(#paint55_linear_1147_1004)"/>
<path d="M606.445 283.104C599.165 279.942 556.634 270.087 555.819 270.087V271.853C571.852 275.56 594.191 283.35 603.357 286.781C607.475 286.958 607.131 284.404 606.445 283.104Z" fill="url(#paint56_linear_1147_1004)"/>
<path d="M639.216 268.16C636.517 266.618 625.553 256.75 620.409 252.009C622.421 250.284 633.909 261.976 639.621 267.791L647.003 278.748C657.397 287.994 665.824 295.725 668.289 298.597C662.489 296.874 652.281 285.915 647.902 280.651C645.777 277.837 641.226 271.151 639.216 268.16Z" fill="url(#paint57_linear_1147_1004)"/>
<path d="M681.198 281.671C687.276 286.623 700.35 296.608 704.024 296.933C699.522 292.476 688.654 283.183 681.198 281.671Z" fill="url(#paint58_linear_1147_1004)"/>
<path d="M681.192 281.79C686.434 283.832 698.275 289.652 703.711 296.605C697.351 293.023 683.942 285.046 681.192 281.79Z" fill="#B16C46"/>
</g>
<g filter="url(#filter2_n_1147_1004)">
<path d="M414.018 107.359C440.773 125.845 456.186 150.402 460.549 160.37L457.964 183.909C456.8 165.424 426.62 118.686 414.018 107.359Z" fill="url(#paint59_linear_1147_1004)"/>
</g>
<g filter="url(#filter3_n_1147_1004)">
<path d="M502.576 84.8445C475.821 103.111 460.408 127.377 456.046 137.227L463.801 146.385C464.964 128.118 489.974 96.0373 502.576 84.8445Z" fill="url(#paint60_linear_1147_1004)"/>
</g>
<g filter="url(#filter4_n_1147_1004)">
<path d="M451.712 175.97L459.348 26.3748C461.949 22.4542 465.852 188.432 465.852 192.353C465.852 195.489 467.153 210.574 484.064 217.108L510.081 228.939H412.517L429.656 219.612C438.619 214.734 445.092 206.282 447.463 196.356L450.773 182.499C451.285 180.356 451.599 178.17 451.712 175.97Z" fill="url(#paint61_linear_1147_1004)"/>
</g>
<g filter="url(#filter5_n_1147_1004)">
<path d="M416.924 110.399L421.432 115.468C406.264 59.8492 368.814 71.531 351.985 84.3244C356.508 82.989 361.397 83.8945 365.142 86.7612L382.201 99.8195C384.991 101.956 388.347 103.228 391.852 103.48L404.763 104.408C409.443 104.744 413.806 106.894 416.924 110.399Z" fill="url(#paint62_linear_1147_1004)"/>
</g>
<g filter="url(#filter6_n_1147_1004)">
<path d="M496.744 90.8988L495.089 92.5399C507.231 55.3545 533.044 64.8342 544.433 74.2223C541.307 73.1265 537.848 73.5621 535.091 75.3988L524.275 82.6046C521.375 84.5362 517.978 85.5849 514.494 85.6234L509.218 85.6818C504.54 85.7336 500.066 87.6048 496.744 90.8988Z" fill="url(#paint63_linear_1147_1004)"/>
</g>
<g filter="url(#filter7_n_1147_1004)">
<path d="M485.212 26.5077C486.059 16.0617 479.208 15.4591 475.677 16.4635C479.067 0.392737 466.495 -0.946622 459.785 0.392541C445.377 -2.01808 443.187 10.1021 443.894 16.4635C436.266 14.8565 435.065 22.4901 435.418 26.5077C432.028 45.7928 451.777 49.5586 462.371 47.5496C486.102 49.9603 487.684 33.5387 485.212 26.5077Z" fill="url(#paint64_linear_1147_1004)"/>
</g>
<defs>
<filter id="filter0_n_1147_1004" x="2.26172" y="213.4" width="950.896" height="276.52" filterUnits="userSpaceOnUse" color-interpolation-filters="sRGB">
<feFlood flood-opacity="0" result="BackgroundImageFix"/>
<feBlend mode="normal" in="SourceGraphic" in2="BackgroundImageFix" result="shape"/>
<feTurbulence type="fractalNoise" baseFrequency="5 5" stitchTiles="stitch" numOctaves="3" result="noise" seed="1005" />
<feColorMatrix in="noise" type="luminanceToAlpha" result="alphaNoise" />
<feComponentTransfer in="alphaNoise" result="coloredNoise1">
<feFuncA type="discrete" tableValues="1 1 1 1 1 1 1 1 1 1 1 1 1 1 1 1 1 1 1 1 1 1 1 1 1 1 1 1 1 1 1 1 1 1 1 1 1 1 1 1 1 1 1 1 1 1 1 1 1 1 1 0 0 0 0 0 0 0 0 0 0 0 0 0 0 0 0 0 0 0 0 0 0 0 0 0 0 0 0 0 0 0 0 0 0 0 0 0 0 0 0 0 0 0 0 0 0 0 0 0 "/>
</feComponentTransfer>
<feComposite operator="in" in2="shape" in="coloredNoise1" result="noise1Clipped" />
<feFlood flood-color="rgba(201, 118, 118, 0.17)" result="color1Flood" />
<feComposite operator="in" in2="noise1Clipped" in="color1Flood" result="color1" />
<feMerge result="effect1_noise_1147_1004">
<feMergeNode in="shape" />
<feMergeNode in="color1" />
</feMerge>
</filter>
<filter id="filter1_n_1147_1004" x="6.88428" y="271.058" width="279.818" height="36.7084" filterUnits="userSpaceOnUse" color-interpolation-filters="sRGB">
<feFlood flood-opacity="0" result="BackgroundImageFix"/>
<feBlend mode="normal" in="SourceGraphic" in2="BackgroundImageFix" result="shape"/>
<feTurbulence type="fractalNoise" baseFrequency="5 5" stitchTiles="stitch" numOctaves="3" result="noise" seed="1360" />
<feColorMatrix in="noise" type="luminanceToAlpha" result="alphaNoise" />
<feComponentTransfer in="alphaNoise" result="coloredNoise1">
<feFuncA type="discrete" tableValues="1 1 1 1 1 1 1 1 1 1 1 1 1 1 1 1 1 1 1 1 1 1 1 1 1 1 1 1 1 1 1 1 1 1 1 1 1 1 1 1 1 1 1 1 1 1 1 1 1 1 1 0 0 0 0 0 0 0 0 0 0 0 0 0 0 0 0 0 0 0 0 0 0 0 0 0 0 0 0 0 0 0 0 0 0 0 0 0 0 0 0 0 0 0 0 0 0 0 0 0 "/>
</feComponentTransfer>
<feComposite operator="in" in2="shape" in="coloredNoise1" result="noise1Clipped" />
<feFlood flood-color="rgba(194, 48, 48, 0.25)" result="color1Flood" />
<feComposite operator="in" in2="noise1Clipped" in="color1Flood" result="color1" />
<feMerge result="effect1_noise_1147_1004">
<feMergeNode in="shape" />
<feMergeNode in="color1" />
</feMerge>
</filter>
<filter id="filter2_n_1147_1004" x="414.018" y="107.359" width="46.5303" height="76.5499" filterUnits="userSpaceOnUse" color-interpolation-filters="sRGB">
<feFlood flood-opacity="0" result="BackgroundImageFix"/>
<feBlend mode="normal" in="SourceGraphic" in2="BackgroundImageFix" result="shape"/>
<feTurbulence type="fractalNoise" baseFrequency="10 10" stitchTiles="stitch" numOctaves="3" result="noise" seed="7943" />
<feColorMatrix in="noise" type="luminanceToAlpha" result="alphaNoise" />
<feComponentTransfer in="alphaNoise" result="coloredNoise1">
<feFuncA type="discrete" tableValues="1 1 1 1 1 1 1 1 1 1 1 1 1 1 1 1 1 1 1 1 1 1 1 1 1 1 1 1 1 1 1 1 1 1 1 1 1 1 1 1 1 1 1 1 1 1 1 1 1 1 1 0 0 0 0 0 0 0 0 0 0 0 0 0 0 0 0 0 0 0 0 0 0 0 0 0 0 0 0 0 0 0 0 0 0 0 0 0 0 0 0 0 0 0 0 0 0 0 0 0 "/>
</feComponentTransfer>
<feComposite operator="in" in2="shape" in="coloredNoise1" result="noise1Clipped" />
<feFlood flood-color="rgba(0, 0, 0, 0.25)" result="color1Flood" />
<feComposite operator="in" in2="noise1Clipped" in="color1Flood" result="color1" />
<feMerge result="effect1_noise_1147_1004">
<feMergeNode in="shape" />
<feMergeNode in="color1" />
</feMerge>
</filter>
<filter id="filter3_n_1147_1004" x="456.046" y="84.8445" width="46.5304" height="61.5402" filterUnits="userSpaceOnUse" color-interpolation-filters="sRGB">
<feFlood flood-opacity="0" result="BackgroundImageFix"/>
<feBlend mode="normal" in="SourceGraphic" in2="BackgroundImageFix" result="shape"/>
<feTurbulence type="fractalNoise" baseFrequency="10 10" stitchTiles="stitch" numOctaves="3" result="noise" seed="7943" />
<feColorMatrix in="noise" type="luminanceToAlpha" result="alphaNoise" />
<feComponentTransfer in="alphaNoise" result="coloredNoise1">
<feFuncA type="discrete" tableValues="1 1 1 1 1 1 1 1 1 1 1 1 1 1 1 1 1 1 1 1 1 1 1 1 1 1 1 1 1 1 1 1 1 1 1 1 1 1 1 1 1 1 1 1 1 1 1 1 1 1 1 0 0 0 0 0 0 0 0 0 0 0 0 0 0 0 0 0 0 0 0 0 0 0 0 0 0 0 0 0 0 0 0 0 0 0 0 0 0 0 0 0 0 0 0 0 0 0 0 0 "/>
</feComponentTransfer>
<feComposite operator="in" in2="shape" in="coloredNoise1" result="noise1Clipped" />
<feFlood flood-color="rgba(0, 0, 0, 0.25)" result="color1Flood" />
<feComposite operator="in" in2="noise1Clipped" in="color1Flood" result="color1" />
<feMerge result="effect1_noise_1147_1004">
<feMergeNode in="shape" />
<feMergeNode in="color1" />
</feMerge>
</filter>
<filter id="filter4_n_1147_1004" x="412.517" y="26.3064" width="97.5636" height="202.632" filterUnits="userSpaceOnUse" color-interpolation-filters="sRGB">
<feFlood flood-opacity="0" result="BackgroundImageFix"/>
<feBlend mode="normal" in="SourceGraphic" in2="BackgroundImageFix" result="shape"/>
<feTurbulence type="fractalNoise" baseFrequency="10 10" stitchTiles="stitch" numOctaves="3" result="noise" seed="7943" />
<feColorMatrix in="noise" type="luminanceToAlpha" result="alphaNoise" />
<feComponentTransfer in="alphaNoise" result="coloredNoise1">
<feFuncA type="discrete" tableValues="1 1 1 1 1 1 1 1 1 1 1 1 1 1 1 1 1 1 1 1 1 1 1 1 1 1 1 1 1 1 1 1 1 1 1 1 1 1 1 1 1 1 1 1 1 1 1 1 1 1 1 0 0 0 0 0 0 0 0 0 0 0 0 0 0 0 0 0 0 0 0 0 0 0 0 0 0 0 0 0 0 0 0 0 0 0 0 0 0 0 0 0 0 0 0 0 0 0 0 0 "/>
</feComponentTransfer>
<feComposite operator="in" in2="shape" in="coloredNoise1" result="noise1Clipped" />
<feFlood flood-color="rgba(0, 0, 0, 0.25)" result="color1Flood" />
<feComposite operator="in" in2="noise1Clipped" in="color1Flood" result="color1" />
<feMerge result="effect1_noise_1147_1004">
<feMergeNode in="shape" />
<feMergeNode in="color1" />
</feMerge>
</filter>
<filter id="filter5_n_1147_1004" x="351.985" y="73.6959" width="69.4473" height="41.7723" filterUnits="userSpaceOnUse" color-interpolation-filters="sRGB">
<feFlood flood-opacity="0" result="BackgroundImageFix"/>
<feBlend mode="normal" in="SourceGraphic" in2="BackgroundImageFix" result="shape"/>
<feTurbulence type="fractalNoise" baseFrequency="10 10" stitchTiles="stitch" numOctaves="3" result="noise" seed="5432" />
<feColorMatrix in="noise" type="luminanceToAlpha" result="alphaNoise" />
<feComponentTransfer in="alphaNoise" result="coloredNoise1">
<feFuncA type="discrete" tableValues="1 1 1 1 1 1 1 1 1 1 1 1 1 1 1 1 1 1 1 1 1 1 1 1 1 1 1 1 1 1 1 1 1 1 1 1 1 1 1 1 1 1 1 1 1 1 1 1 1 1 1 0 0 0 0 0 0 0 0 0 0 0 0 0 0 0 0 0 0 0 0 0 0 0 0 0 0 0 0 0 0 0 0 0 0 0 0 0 0 0 0 0 0 0 0 0 0 0 0 0 "/>
</feComponentTransfer>
<feComposite operator="in" in2="shape" in="coloredNoise1" result="noise1Clipped" />
<feFlood flood-color="rgba(0, 0, 0, 0.25)" result="color1Flood" />
<feComposite operator="in" in2="noise1Clipped" in="color1Flood" result="color1" />
<feMerge result="effect1_noise_1147_1004">
<feMergeNode in="shape" />
<feMergeNode in="color1" />
</feMerge>
</filter>
<filter id="filter6_n_1147_1004" x="495.089" y="65.7534" width="49.3445" height="26.7865" filterUnits="userSpaceOnUse" color-interpolation-filters="sRGB">
<feFlood flood-opacity="0" result="BackgroundImageFix"/>
<feBlend mode="normal" in="SourceGraphic" in2="BackgroundImageFix" result="shape"/>
<feTurbulence type="fractalNoise" baseFrequency="10 10" stitchTiles="stitch" numOctaves="3" result="noise" seed="5234" />
<feColorMatrix in="noise" type="luminanceToAlpha" result="alphaNoise" />
<feComponentTransfer in="alphaNoise" result="coloredNoise1">
<feFuncA type="discrete" tableValues="1 1 1 1 1 1 1 1 1 1 1 1 1 1 1 1 1 1 1 1 1 1 1 1 1 1 1 1 1 1 1 1 1 1 1 1 1 1 1 1 1 1 1 1 1 1 1 1 1 1 1 0 0 0 0 0 0 0 0 0 0 0 0 0 0 0 0 0 0 0 0 0 0 0 0 0 0 0 0 0 0 0 0 0 0 0 0 0 0 0 0 0 0 0 0 0 0 0 0 0 "/>
</feComponentTransfer>
<feComposite operator="in" in2="shape" in="coloredNoise1" result="noise1Clipped" />
<feFlood flood-color="rgba(0, 0, 0, 0.25)" result="color1Flood" />
<feComposite operator="in" in2="noise1Clipped" in="color1Flood" result="color1" />
<feMerge result="effect1_noise_1147_1004">
<feMergeNode in="shape" />
<feMergeNode in="color1" />
</feMerge>
</filter>
<filter id="filter7_n_1147_1004" x="435.032" y="0" width="51.0333" height="48.0314" filterUnits="userSpaceOnUse" color-interpolation-filters="sRGB">
<feFlood flood-opacity="0" result="BackgroundImageFix"/>
<feBlend mode="normal" in="SourceGraphic" in2="BackgroundImageFix" result="shape"/>
<feTurbulence type="fractalNoise" baseFrequency="10 10" stitchTiles="stitch" numOctaves="3" result="noise" seed="7630" />
<feColorMatrix in="noise" type="luminanceToAlpha" result="alphaNoise" />
<feComponentTransfer in="alphaNoise" result="coloredNoise1">
<feFuncA type="discrete" tableValues="1 1 1 1 1 1 1 1 1 1 1 1 1 1 1 1 1 1 1 1 1 1 1 1 1 1 1 1 1 1 1 1 1 1 1 1 1 1 1 1 1 1 1 1 1 1 1 1 1 1 1 0 0 0 0 0 0 0 0 0 0 0 0 0 0 0 0 0 0 0 0 0 0 0 0 0 0 0 0 0 0 0 0 0 0 0 0 0 0 0 0 0 0 0 0 0 0 0 0 0 "/>
</feComponentTransfer>
<feComposite operator="in" in2="shape" in="coloredNoise1" result="noise1Clipped" />
<feFlood flood-color="rgba(99, 0, 10, 0.09)" result="color1Flood" />
<feComposite operator="in" in2="noise1Clipped" in="color1Flood" result="color1" />
<feMerge result="effect1_noise_1147_1004">
<feMergeNode in="shape" />
<feMergeNode in="color1" />
</feMerge>
</filter>
<linearGradient id="paint0_linear_1147_1004" x1="478.3" y1="297.115" x2="478.3" y2="489.92" gradientUnits="userSpaceOnUse">
<stop stop-color="#DC9F8B"/>
<stop offset="0.811997" stop-color="#D78A7F"/>
</linearGradient>
<linearGradient id="paint1_linear_1147_1004" x1="61.0385" y1="341.276" x2="539.731" y2="393.056" gradientUnits="userSpaceOnUse">
<stop stop-color="#7A3D4B"/>
<stop offset="1" stop-color="#9F5663"/>
</linearGradient>
<linearGradient id="paint2_linear_1147_1004" x1="351.829" y1="385.103" x2="311.774" y2="454.487" gradientUnits="userSpaceOnUse">
<stop stop-color="#823F4F"/>
<stop offset="1" stop-color="#914D5A"/>
</linearGradient>
<linearGradient id="paint3_linear_1147_1004" x1="157.223" y1="325.046" x2="387.433" y2="446.288" gradientUnits="userSpaceOnUse">
<stop stop-color="#7B3944"/>
<stop offset="0.5" stop-color="#7F3D4A"/>
<stop offset="1" stop-color="#7E3945"/>
</linearGradient>
<linearGradient id="paint4_linear_1147_1004" x1="157.223" y1="325.046" x2="387.433" y2="446.288" gradientUnits="userSpaceOnUse">
<stop stop-color="#7B3944"/>
<stop offset="0.5" stop-color="#7F3D4A"/>
<stop offset="1" stop-color="#7E3945"/>
</linearGradient>
<linearGradient id="paint5_linear_1147_1004" x1="157.223" y1="325.046" x2="387.433" y2="446.288" gradientUnits="userSpaceOnUse">
<stop stop-color="#7B3944"/>
<stop offset="0.5" stop-color="#7F3D4A"/>
<stop offset="1" stop-color="#7E3945"/>
</linearGradient>
<linearGradient id="paint6_linear_1147_1004" x1="157.223" y1="325.046" x2="387.433" y2="446.288" gradientUnits="userSpaceOnUse">
<stop stop-color="#7B3944"/>
<stop offset="0.5" stop-color="#7F3D4A"/>
<stop offset="1" stop-color="#7E3945"/>
</linearGradient>
<linearGradient id="paint7_linear_1147_1004" x1="157.223" y1="325.046" x2="387.433" y2="446.288" gradientUnits="userSpaceOnUse">
<stop stop-color="#7B3944"/>
<stop offset="0.5" stop-color="#7F3D4A"/>
<stop offset="1" stop-color="#7E3945"/>
</linearGradient>
<linearGradient id="paint8_linear_1147_1004" x1="175.18" y1="313.59" x2="175.18" y2="369.065" gradientUnits="userSpaceOnUse">
<stop stop-color="#96403D"/>
<stop offset="1" stop-color="#9E5D63" stop-opacity="0.41"/>
</linearGradient>
<linearGradient id="paint9_linear_1147_1004" x1="175.18" y1="313.59" x2="175.18" y2="369.065" gradientUnits="userSpaceOnUse">
<stop stop-color="#96403D"/>
<stop offset="1" stop-color="#9E5D63" stop-opacity="0.41"/>
</linearGradient>
<linearGradient id="paint10_linear_1147_1004" x1="105.671" y1="313.59" x2="105.671" y2="369.483" gradientUnits="userSpaceOnUse">
<stop stop-color="#8C4858"/>
<stop offset="1" stop-color="#7A3D4B"/>
</linearGradient>
<linearGradient id="paint11_linear_1147_1004" x1="91.679" y1="326.407" x2="76.1794" y2="339.392" gradientUnits="userSpaceOnUse">
<stop stop-color="#7A3444"/>
<stop offset="1" stop-color="#7B3E4B"/>
</linearGradient>
<linearGradient id="paint12_linear_1147_1004" x1="238.962" y1="345.131" x2="318.384" y2="467.491" gradientUnits="userSpaceOnUse">
<stop stop-color="#C67465"/>
<stop offset="1" stop-color="#DC927D"/>
</linearGradient>
<linearGradient id="paint13_linear_1147_1004" x1="238.962" y1="345.131" x2="318.384" y2="467.491" gradientUnits="userSpaceOnUse">
<stop stop-color="#C67465"/>
<stop offset="1" stop-color="#DC927D"/>
</linearGradient>
<linearGradient id="paint14_linear_1147_1004" x1="238.962" y1="345.131" x2="318.384" y2="467.491" gradientUnits="userSpaceOnUse">
<stop stop-color="#C67465"/>
<stop offset="1" stop-color="#DC927D"/>
</linearGradient>
<linearGradient id="paint15_linear_1147_1004" x1="238.962" y1="345.131" x2="318.384" y2="467.491" gradientUnits="userSpaceOnUse">
<stop stop-color="#C67465"/>
<stop offset="1" stop-color="#DC927D"/>
</linearGradient>
<linearGradient id="paint16_linear_1147_1004" x1="863.148" y1="357.271" x2="707.3" y2="325.582" gradientUnits="userSpaceOnUse">
<stop stop-color="#D58C75"/>
<stop offset="0.454968" stop-color="#CE7662"/>
</linearGradient>
<linearGradient id="paint17_linear_1147_1004" x1="863.148" y1="357.271" x2="707.3" y2="325.582" gradientUnits="userSpaceOnUse">
<stop stop-color="#D58C75"/>
<stop offset="0.454968" stop-color="#CE7662"/>
</linearGradient>
<linearGradient id="paint18_linear_1147_1004" x1="723.679" y1="312.472" x2="723.679" y2="370.504" gradientUnits="userSpaceOnUse">
<stop stop-color="#A35B48"/>
<stop offset="0.5" stop-color="#C17468"/>
<stop offset="0.983041" stop-color="#B85555"/>
</linearGradient>
<linearGradient id="paint19_linear_1147_1004" x1="723.679" y1="312.472" x2="723.679" y2="370.504" gradientUnits="userSpaceOnUse">
<stop stop-color="#A35B48"/>
<stop offset="0.5" stop-color="#C17468"/>
<stop offset="0.983041" stop-color="#B85555"/>
</linearGradient>
<linearGradient id="paint20_linear_1147_1004" x1="723.679" y1="312.472" x2="723.679" y2="370.504" gradientUnits="userSpaceOnUse">
<stop stop-color="#A35B48"/>
<stop offset="0.5" stop-color="#C17468"/>
<stop offset="0.983041" stop-color="#B85555"/>
</linearGradient>
<linearGradient id="paint21_linear_1147_1004" x1="723.679" y1="312.472" x2="723.679" y2="370.504" gradientUnits="userSpaceOnUse">
<stop stop-color="#A35B48"/>
<stop offset="0.5" stop-color="#C17468"/>
<stop offset="0.983041" stop-color="#B85555"/>
</linearGradient>
<linearGradient id="paint22_linear_1147_1004" x1="723.679" y1="312.472" x2="723.679" y2="370.504" gradientUnits="userSpaceOnUse">
<stop stop-color="#A35B48"/>
<stop offset="0.5" stop-color="#C17468"/>
<stop offset="0.983041" stop-color="#B85555"/>
</linearGradient>
<linearGradient id="paint23_linear_1147_1004" x1="723.679" y1="312.472" x2="723.679" y2="370.504" gradientUnits="userSpaceOnUse">
<stop stop-color="#A35B48"/>
<stop offset="0.5" stop-color="#C17468"/>
<stop offset="0.983041" stop-color="#B85555"/>
</linearGradient>
<linearGradient id="paint24_linear_1147_1004" x1="723.679" y1="312.472" x2="723.679" y2="370.504" gradientUnits="userSpaceOnUse">
<stop stop-color="#A35B48"/>
<stop offset="0.5" stop-color="#C17468"/>
<stop offset="0.983041" stop-color="#B85555"/>
</linearGradient>
<linearGradient id="paint25_linear_1147_1004" x1="723.679" y1="312.472" x2="723.679" y2="370.504" gradientUnits="userSpaceOnUse">
<stop stop-color="#A35B48"/>
<stop offset="0.5" stop-color="#C17468"/>
<stop offset="0.983041" stop-color="#B85555"/>
</linearGradient>
<linearGradient id="paint26_linear_1147_1004" x1="723.679" y1="312.472" x2="723.679" y2="370.504" gradientUnits="userSpaceOnUse">
<stop stop-color="#A35B48"/>
<stop offset="0.5" stop-color="#C17468"/>
<stop offset="0.983041" stop-color="#B85555"/>
</linearGradient>
<linearGradient id="paint27_linear_1147_1004" x1="723.679" y1="312.472" x2="723.679" y2="370.504" gradientUnits="userSpaceOnUse">
<stop stop-color="#A35B48"/>
<stop offset="0.5" stop-color="#C17468"/>
<stop offset="0.983041" stop-color="#B85555"/>
</linearGradient>
<linearGradient id="paint28_linear_1147_1004" x1="723.679" y1="312.472" x2="723.679" y2="370.504" gradientUnits="userSpaceOnUse">
<stop stop-color="#A35B48"/>
<stop offset="0.5" stop-color="#C17468"/>
<stop offset="0.983041" stop-color="#B85555"/>
</linearGradient>
<linearGradient id="paint29_linear_1147_1004" x1="723.679" y1="312.472" x2="723.679" y2="370.504" gradientUnits="userSpaceOnUse">
<stop stop-color="#A35B48"/>
<stop offset="0.5" stop-color="#C17468"/>
<stop offset="0.983041" stop-color="#B85555"/>
</linearGradient>
<linearGradient id="paint30_linear_1147_1004" x1="723.679" y1="312.472" x2="723.679" y2="370.504" gradientUnits="userSpaceOnUse">
<stop stop-color="#A35B48"/>
<stop offset="0.5" stop-color="#C17468"/>
<stop offset="0.983041" stop-color="#B85555"/>
</linearGradient>
<linearGradient id="paint31_linear_1147_1004" x1="723.679" y1="312.472" x2="723.679" y2="370.504" gradientUnits="userSpaceOnUse">
<stop stop-color="#A35B48"/>
<stop offset="0.5" stop-color="#C17468"/>
<stop offset="0.983041" stop-color="#B85555"/>
</linearGradient>
<linearGradient id="paint32_linear_1147_1004" x1="0" y1="306.476" x2="666.466" y2="306.476" gradientUnits="userSpaceOnUse">
<stop stop-color="#F3B098"/>
<stop offset="1" stop-color="#FBCFB9"/>
</linearGradient>
<linearGradient id="paint33_linear_1147_1004" x1="444.398" y1="290.735" x2="444.398" y2="339.07" gradientUnits="userSpaceOnUse">
<stop stop-color="#E6A47D"/>
<stop offset="0.5" stop-color="#D69981"/>
<stop offset="1" stop-color="#E6B89E"/>
</linearGradient>
<linearGradient id="paint34_linear_1147_1004" x1="444.398" y1="290.735" x2="444.398" y2="339.07" gradientUnits="userSpaceOnUse">
<stop stop-color="#E6A47D"/>
<stop offset="0.5" stop-color="#D69981"/>
<stop offset="1" stop-color="#E6B89E"/>
</linearGradient>
<linearGradient id="paint35_linear_1147_1004" x1="444.398" y1="290.735" x2="444.398" y2="339.07" gradientUnits="userSpaceOnUse">
<stop stop-color="#E6A47D"/>
<stop offset="0.5" stop-color="#D69981"/>
<stop offset="1" stop-color="#E6B89E"/>
</linearGradient>
<linearGradient id="paint36_linear_1147_1004" x1="444.398" y1="290.735" x2="444.398" y2="339.07" gradientUnits="userSpaceOnUse">
<stop stop-color="#E6A47D"/>
<stop offset="0.5" stop-color="#D69981"/>
<stop offset="1" stop-color="#E6B89E"/>
</linearGradient>
<linearGradient id="paint37_linear_1147_1004" x1="444.398" y1="290.735" x2="444.398" y2="339.07" gradientUnits="userSpaceOnUse">
<stop stop-color="#E6A47D"/>
<stop offset="0.5" stop-color="#D69981"/>
<stop offset="1" stop-color="#E6B89E"/>
</linearGradient>
<linearGradient id="paint38_linear_1147_1004" x1="444.398" y1="290.735" x2="444.398" y2="339.07" gradientUnits="userSpaceOnUse">
<stop stop-color="#E6A47D"/>
<stop offset="0.5" stop-color="#D69981"/>
<stop offset="1" stop-color="#E6B89E"/>
</linearGradient>
<linearGradient id="paint39_linear_1147_1004" x1="444.398" y1="290.735" x2="444.398" y2="339.07" gradientUnits="userSpaceOnUse">
<stop stop-color="#E6A47D"/>
<stop offset="0.5" stop-color="#D69981"/>
<stop offset="1" stop-color="#E6B89E"/>
</linearGradient>
<linearGradient id="paint40_linear_1147_1004" x1="444.398" y1="290.735" x2="444.398" y2="339.07" gradientUnits="userSpaceOnUse">
<stop stop-color="#E6A47D"/>
<stop offset="0.5" stop-color="#D69981"/>
<stop offset="1" stop-color="#E6B89E"/>
</linearGradient>
<linearGradient id="paint41_linear_1147_1004" x1="444.398" y1="290.735" x2="444.398" y2="339.07" gradientUnits="userSpaceOnUse">
<stop stop-color="#E6A47D"/>
<stop offset="0.5" stop-color="#D69981"/>
<stop offset="1" stop-color="#E6B89E"/>
</linearGradient>
<linearGradient id="paint42_linear_1147_1004" x1="444.398" y1="290.735" x2="444.398" y2="339.07" gradientUnits="userSpaceOnUse">
<stop stop-color="#E6A47D"/>
<stop offset="0.5" stop-color="#D69981"/>
<stop offset="1" stop-color="#E6B89E"/>
</linearGradient>
<linearGradient id="paint43_linear_1147_1004" x1="444.398" y1="290.735" x2="444.398" y2="339.07" gradientUnits="userSpaceOnUse">
<stop stop-color="#E6A47D"/>
<stop offset="0.5" stop-color="#D69981"/>
<stop offset="1" stop-color="#E6B89E"/>
</linearGradient>
<linearGradient id="paint44_linear_1147_1004" x1="444.398" y1="290.735" x2="444.398" y2="339.07" gradientUnits="userSpaceOnUse">
<stop stop-color="#E6A47D"/>
<stop offset="0.5" stop-color="#D69981"/>
<stop offset="1" stop-color="#E6B89E"/>
</linearGradient>
<linearGradient id="paint45_linear_1147_1004" x1="444.398" y1="290.735" x2="444.398" y2="339.07" gradientUnits="userSpaceOnUse">
<stop stop-color="#E6A47D"/>
<stop offset="0.5" stop-color="#D69981"/>
<stop offset="1" stop-color="#E6B89E"/>
</linearGradient>
<linearGradient id="paint46_linear_1147_1004" x1="444.398" y1="290.735" x2="444.398" y2="339.07" gradientUnits="userSpaceOnUse">
<stop stop-color="#E6A47D"/>
<stop offset="0.5" stop-color="#D69981"/>
<stop offset="1" stop-color="#E6B89E"/>
</linearGradient>
<linearGradient id="paint47_linear_1147_1004" x1="444.398" y1="290.735" x2="444.398" y2="339.07" gradientUnits="userSpaceOnUse">
<stop stop-color="#E6A47D"/>
<stop offset="0.5" stop-color="#D69981"/>
<stop offset="1" stop-color="#E6B89E"/>
</linearGradient>
<linearGradient id="paint48_linear_1147_1004" x1="444.398" y1="290.735" x2="444.398" y2="339.07" gradientUnits="userSpaceOnUse">
<stop stop-color="#E6A47D"/>
<stop offset="0.5" stop-color="#D69981"/>
<stop offset="1" stop-color="#E6B89E"/>
</linearGradient>
<linearGradient id="paint49_linear_1147_1004" x1="444.398" y1="290.735" x2="444.398" y2="339.07" gradientUnits="userSpaceOnUse">
<stop stop-color="#E6A47D"/>
<stop offset="0.5" stop-color="#D69981"/>
<stop offset="1" stop-color="#E6B89E"/>
</linearGradient>
<linearGradient id="paint50_linear_1147_1004" x1="6.88428" y1="287.286" x2="286.702" y2="287.286" gradientUnits="userSpaceOnUse">
<stop stop-color="#E9AA9E"/>
<stop offset="1" stop-color="#E07F6F"/>
</linearGradient>
<linearGradient id="paint51_linear_1147_1004" x1="201.104" y1="264.548" x2="623.365" y2="264.548" gradientUnits="userSpaceOnUse">
<stop stop-color="#99523A"/>
<stop offset="0.471884" stop-color="#CE7E55"/>
<stop offset="0.978905" stop-color="#F2AA7A"/>
</linearGradient>
<linearGradient id="paint52_linear_1147_1004" x1="201.103" y1="262.341" x2="588.098" y2="257.345" gradientUnits="userSpaceOnUse">
<stop stop-color="#8C452D"/>
<stop offset="0.5" stop-color="#82402A"/>
<stop offset="1" stop-color="#A35931"/>
</linearGradient>
<linearGradient id="paint53_linear_1147_1004" x1="576.064" y1="240.44" x2="590.61" y2="304.999" gradientUnits="userSpaceOnUse">
<stop stop-color="#B87243"/>
<stop offset="1" stop-color="#DD9765"/>
</linearGradient>
<linearGradient id="paint54_linear_1147_1004" x1="576.064" y1="240.44" x2="590.61" y2="304.999" gradientUnits="userSpaceOnUse">
<stop stop-color="#B87243"/>
<stop offset="1" stop-color="#DD9765"/>
</linearGradient>
<linearGradient id="paint55_linear_1147_1004" x1="576.064" y1="240.44" x2="590.61" y2="304.999" gradientUnits="userSpaceOnUse">
<stop stop-color="#B87243"/>
<stop offset="1" stop-color="#DD9765"/>
</linearGradient>
<linearGradient id="paint56_linear_1147_1004" x1="576.064" y1="240.44" x2="590.61" y2="304.999" gradientUnits="userSpaceOnUse">
<stop stop-color="#B87243"/>
<stop offset="1" stop-color="#DD9765"/>
</linearGradient>
<linearGradient id="paint57_linear_1147_1004" x1="576.064" y1="240.44" x2="590.61" y2="304.999" gradientUnits="userSpaceOnUse">
<stop stop-color="#B87243"/>
<stop offset="1" stop-color="#DD9765"/>
</linearGradient>
<linearGradient id="paint58_linear_1147_1004" x1="576.064" y1="240.44" x2="590.61" y2="304.999" gradientUnits="userSpaceOnUse">
<stop stop-color="#B87243"/>
<stop offset="1" stop-color="#DD9765"/>
</linearGradient>
<linearGradient id="paint59_linear_1147_1004" x1="459.094" y1="145.418" x2="426.355" y2="113.313" gradientUnits="userSpaceOnUse">
<stop stop-color="#7C5C56"/>
<stop offset="1" stop-color="#755752"/>
</linearGradient>
<linearGradient id="paint60_linear_1147_1004" x1="457.5" y1="122.452" x2="489.856" y2="90.3425" gradientUnits="userSpaceOnUse">
<stop stop-color="#5C4842"/>
<stop offset="1" stop-color="#795C58"/>
</linearGradient>
<linearGradient id="paint61_linear_1147_1004" x1="461.949" y1="184.437" x2="488.14" y2="226.223" gradientUnits="userSpaceOnUse">
<stop stop-color="#7C5F5A"/>
<stop offset="1" stop-color="#705855"/>
</linearGradient>
<linearGradient id="paint62_linear_1147_1004" x1="378.701" y1="72.7268" x2="393.733" y2="123.645" gradientUnits="userSpaceOnUse">
<stop stop-color="#AAAE8F"/>
<stop offset="1" stop-color="#746D56"/>
</linearGradient>
<linearGradient id="paint63_linear_1147_1004" x1="526.11" y1="65.2408" x2="514.194" y2="99.2364" gradientUnits="userSpaceOnUse">
<stop stop-color="#A8AE87"/>
<stop offset="1" stop-color="#6C644A"/>
</linearGradient>
<linearGradient id="paint64_linear_1147_1004" x1="460.548" y1="0" x2="460.548" y2="48.0313" gradientUnits="userSpaceOnUse">
<stop stop-color="#E1CCC9"/>
<stop offset="1" stop-color="#C18184"/>
</linearGradient>
</defs>
</svg>
