<svg width="963" height="578" viewBox="0 0 963 578" fill="none" xmlns="http://www.w3.org/2000/svg">
<g filter="url(#filter0_n_1147_1009)">
<path d="M33.1659 429.853L6.34008 402.632C4.48295 400.747 3.44189 398.208 3.44189 395.562C3.44189 390.002 7.94702 385.494 13.507 385.49L942.643 384.828C948.449 384.824 953.158 389.53 953.158 395.336C953.158 398.282 951.921 401.092 949.749 403.083L934.094 417.428L910.363 438.405C903.396 444.564 894.956 448.819 885.861 450.758L792.778 470.609C783.705 472.544 775.35 476.966 768.648 483.381C744.564 506.434 713.355 520.609 680.149 523.578L616.653 529.256C611.556 529.712 606.716 531.486 602.415 534.259C582.421 547.15 519.893 584.092 470.441 576.644C416.079 568.457 378.212 546.297 362.667 535.72C357.423 532.153 351.347 529.808 345.01 529.544L287.568 527.142C255.953 525.82 225.609 514.332 201.045 494.386L184.072 480.604C176.961 474.829 168.497 470.959 159.478 469.356L100.44 458.867C97.2744 458.304 94.1657 457.46 91.1506 456.345L51.4312 441.651C44.551 439.106 38.3151 435.078 33.1659 429.853Z" fill="url(#paint0_linear_1147_1009)"/>
<path d="M31.9017 430.136L5.153 402.878C3.29988 400.99 2.26172 398.45 2.26172 395.804C2.26172 390.228 6.77933 385.708 12.3547 385.704L535.25 385.33C541.881 385.325 547.259 390.699 547.259 397.33V429.395C546.781 446.525 541.323 469.163 538.654 478.341C532.864 496.816 511.6 532.991 501.691 548.769C498.065 556.869 488.191 564.4 478.989 569.839C470.347 574.946 460.006 576.044 450.201 573.89C405.603 564.09 374.418 545.621 360.673 536.233C355.421 532.645 349.339 530.295 342.983 530.028L285.995 527.635C254.285 526.304 223.858 514.746 199.261 494.689L182.509 481.028C175.39 475.223 166.909 471.33 157.867 469.717L99.0617 459.224C95.8855 458.658 92.7663 457.807 89.7418 456.684L50.1765 441.985C43.2882 439.426 37.0485 435.381 31.9017 430.136Z" fill="url(#paint1_linear_1147_1009)"/>
<path d="M335.193 424.046L234.494 418.071C226.912 437.315 240.792 456.662 248.68 463.931L278.701 475.858L313.89 524.369L355.674 526.773C373.643 541.337 387.249 543.088 391.807 542.144C389.55 540.748 386.152 528.629 383.905 522.591C382.625 509.986 376.326 493.173 374.352 487.439C358.558 478.268 337.433 440.446 335.193 424.046Z" fill="url(#paint2_linear_1147_1009)" fill-opacity="0.88"/>
<path d="M234.524 418.009C232.965 432.146 239.135 461.346 276.289 465.057C284.346 467.331 299.809 476.681 297.201 495.891C301.146 502.126 308.093 512.883 311.853 518.046C312.801 519.138 313.661 520.127 314.395 520.971C314.172 521.067 313.225 519.928 311.853 518.046C306.018 511.321 296.846 500.681 292.936 495.891C286.355 488.909 267.341 475.601 243.933 478.227C232.334 479.844 206.833 476.857 197.629 451.97C198.005 460.584 207.792 478.894 243.933 483.227C250.871 485.754 265.651 493.148 269.273 502.506C274.038 506.124 284.183 514.25 286.646 517.807C276.448 509.913 251.897 493.335 235.273 490.164C241.217 497.54 253.538 512.509 255.279 513.383C251.394 519.055 230.204 521.51 176.378 472.929C169.688 470.016 151.017 464.743 140.346 462.209C130.363 449.052 109.966 425.462 104.696 406.047L102.513 401.296C142.219 404.528 224.21 412.397 234.524 418.009Z" fill="url(#paint3_linear_1147_1009)"/>
<path d="M381.423 426.896H372.811C377.389 440.536 386.544 468.188 386.544 469.672C394.224 495.846 405.164 504.53 406.095 507.102C416.894 516.071 422.387 531.572 423.784 538.202C423.784 525.856 413.388 510.609 408.189 504.53C399.438 489.564 386.699 446.538 381.423 426.896Z" fill="url(#paint4_linear_1147_1009)"/>
<path d="M372.811 485.163C355.209 475.558 339.475 440.3 333.808 423.872H331.039C335.793 440.068 348.154 459.431 353.741 467.087C357.747 474.225 367.215 482.59 371.449 485.88C376.558 489.668 380.605 505.856 381.989 513.477C383.477 528.477 389.306 537.151 392.034 539.613C388.699 536.15 385.549 525.742 384.391 520.971C380.723 495.893 375.143 486.65 372.811 485.163Z" fill="url(#paint5_linear_1147_1009)"/>
<path d="M430.587 510.244C426.611 505.27 427.118 498.249 427.868 495.36C431.579 482.161 428.374 468.735 426.248 463.495C432.228 476.664 432.07 486.395 431.243 489.614C426.818 499.486 428.962 507.481 430.587 510.244Z" fill="url(#paint6_linear_1147_1009)"/>
<path d="M440.433 494.701C450.747 503.148 465.825 524.903 443.621 544.347C451.028 536.339 460.762 515.2 440.433 494.701Z" fill="url(#paint7_linear_1147_1009)"/>
<path d="M104.129 402.793L95.5349 401.296C99.6208 411.11 109.35 424.243 113.704 429.583C125.961 448.173 139.812 462.206 141.286 461.614C139.223 461.022 118.713 433.727 118.713 432.395C112.349 424.817 106.339 409.503 104.129 402.793Z" fill="url(#paint8_linear_1147_1009)"/>
<path d="M238.865 437.024C236.363 421.102 232.904 416.853 231.487 416.719C229.241 420.264 233.706 431.034 236.218 435.976C242.827 454.218 251.376 457.382 254.825 456.683C246.741 454.234 240.816 442.556 238.865 437.024Z" fill="url(#paint9_linear_1147_1009)"/>
<path d="M88.4283 402.54L76.3298 401.296C79.3021 413.623 91.9849 426.403 97.9547 431.253C109.31 439.522 111.133 449.054 110.625 452.787L135.012 457.19C133.945 454.28 118.309 436.006 110.625 427.233C102.851 423.558 92.5881 409.24 88.4283 402.54Z" fill="url(#paint10_linear_1147_1009)"/>
<path d="M74.4361 402.54L62.3376 401.296C65.3099 413.623 77.9927 426.403 83.9625 431.253C95.318 439.522 97.1407 449.054 96.6326 452.787L121.02 457.19C120.216 454.998 111.145 444.088 103.434 435.088C98.974 429.883 93.2912 425.749 88.5021 420.845C82.7954 415.002 77.2346 407.047 74.4361 402.54Z" fill="url(#paint11_linear_1147_1009)"/>
<path d="M448.124 428.742H440.068C442.484 455.657 461.435 475.596 470.609 482.201C492.663 500.183 483.731 532.669 476.508 546.664C497.988 511.673 482.645 485.84 472.289 477.298C451.575 462.654 447.548 438.826 448.124 428.742Z" fill="url(#paint12_linear_1147_1009)"/>
<path d="M421.067 453.501C408.921 443.868 408.149 432.981 409.281 428.742C409.281 431.412 414.208 439.938 416.671 443.868C428.018 455.968 428.99 467.106 428.058 471.162C427.419 462.332 423.131 455.709 421.067 453.501Z" fill="url(#paint13_linear_1147_1009)"/>
<path d="M299.409 438.85C293.336 423.597 296.213 422.995 298.41 424.601C311.577 441.481 330.665 481.006 338.563 498.658L323.581 478.789C317.029 474.454 304.736 450.357 299.409 438.85Z" fill="url(#paint14_linear_1147_1009)"/>
<path d="M166.019 413.762C177.431 421.628 196.274 450.825 196.407 451.625C201.079 462.93 213.658 472.6 219.363 476.022C208.854 472.396 198.972 461.623 195.345 456.691L179.023 437.493C162.568 419.041 163.497 413.984 166.019 413.762Z" fill="url(#paint15_linear_1147_1009)"/>
<path d="M762.37 417.912L705.377 423.232C705.377 432.392 692.082 458.244 685.434 470.026L687.538 471.288C735.548 451.38 757.43 427.409 762.37 417.912Z" fill="url(#paint16_linear_1147_1009)"/>
<path d="M772.688 477.42C780.585 472.818 798.079 414.628 799.466 413.733C800.883 412.818 843.018 411.366 863.148 409.315C858.029 432.323 835.839 450.995 825.384 457.454C822.792 460.904 781.216 474.568 772.688 477.42C772.521 477.517 772.358 477.591 772.2 477.639C770.584 478.134 770.95 478.001 772.688 477.42Z" fill="url(#paint17_linear_1147_1009)"/>
<path d="M577.622 433.13L572.632 433.833C573.887 443.275 572.109 464.37 571.063 473.737C565.771 489.569 552.511 512.651 546.542 522.213C542.551 527.945 530.433 540.151 524.873 545.537C528.18 544.863 540.697 532.048 546.542 525.725C547.113 529.547 544.784 540.526 543.549 545.537C547.198 541.153 549.061 529.379 549.536 524.039C556.037 514.035 569.258 486.336 575.056 473.737C578.135 466.431 578.05 443.621 577.622 433.13Z" fill="url(#paint18_linear_1147_1009)"/>
<path d="M606.317 465.643C609.413 449.75 616.959 438.467 620.346 434.811C612.46 449.471 608.282 468.791 607.179 476.619C600.79 492.106 589.752 502.03 585.032 505.057L594.707 492.978C601.802 485.223 605.403 471.523 606.317 465.643Z" fill="url(#paint19_linear_1147_1009)"/>
<path d="M634.52 429.392H631.498L628.918 466.939C627.231 475.188 620.418 483.821 619.315 484.396C606.754 497.237 605.991 504.932 607.179 507.175C607.179 504.653 611.468 497.525 613.612 494.277C621.755 485.653 628.929 474.25 631.498 469.627C632.777 468.251 634.045 442.231 634.52 429.392Z" fill="url(#paint20_linear_1147_1009)"/>
<path d="M586.696 541.28C587.11 540.872 604.357 516.692 606.003 511.747C606.027 511.665 606.051 511.584 606.075 511.504C606.056 511.579 606.032 511.66 606.003 511.747C603.977 518.481 597.417 533.42 586.696 541.28Z" fill="url(#paint21_linear_1147_1009)"/>
<path d="M677.721 425.493L674.5 425.851C674.5 426.138 672.654 442.873 671.731 451.204C670.316 461.26 661.554 475.96 657.35 482.052C668.078 472.273 673.253 457.131 674.5 450.782L677.721 425.493Z" fill="url(#paint22_linear_1147_1009)"/>
<path d="M651.993 503.366C691.366 469.629 703.041 436.366 703.956 423.951L705.665 423.331V423.951C704.516 438.32 693.179 459.421 687.654 468.176C686.239 470.354 688.243 470.051 689.422 469.627C692.25 466.78 709.091 459.559 717.157 456.305C734.13 447.797 754.359 427.203 762.352 417.97H765.778C757.026 437.747 723.824 456.414 708.317 463.275C695.853 466.237 681.813 478.59 676.352 484.396C668.952 496.212 651.386 517.734 643.528 527.018C641.382 528.239 632.894 528.205 628.918 528.035C630.436 526.408 644.934 510.911 651.993 503.366Z" fill="url(#paint23_linear_1147_1009)"/>
<path d="M732.604 465.643C717.733 471.016 694.444 483.663 684.658 489.315C711.685 482.103 730.145 471.393 735.997 466.939C760.262 452.18 764.597 444.398 763.731 442.352C760.545 449.729 741.652 460.953 732.604 465.643Z" fill="url(#paint24_linear_1147_1009)"/>
<path d="M700.443 505.057C673.889 507.88 659.481 518.888 655.596 524.039C663.739 517.157 688.887 509.929 700.443 507.175C728.414 498.2 737.767 488.25 738.947 484.396C730.804 494.187 709.885 502.249 700.443 505.057Z" fill="url(#paint25_linear_1147_1009)"/>
<path d="M753.455 475.155C753.184 476.223 743.565 483.58 741.669 489.315C745.597 485.974 753.455 478.466 753.455 475.155Z" fill="url(#paint26_linear_1147_1009)"/>
<path d="M822.798 440.533C817.712 447.168 795.996 455.092 785.774 458.225C807.411 448.39 818.175 441.795 820.852 439.727C827.608 427.267 829.87 416.398 830.156 412.52H831.961C830.614 424.463 825.291 436.171 822.798 440.533Z" fill="url(#paint27_linear_1147_1009)"/>
<path d="M864.641 408.934L861.746 409.647C857.693 433.331 835.449 448.525 824.833 453.162C803.216 460.295 788.483 468.657 783.819 471.947C797.04 471.091 812.81 466.517 819.043 464.337C851.661 445.029 863.033 419.357 864.641 408.934Z" fill="url(#paint28_linear_1147_1009)"/>
<path d="M840.04 460.404C839.885 460.521 839.761 460.605 839.671 460.652C839.794 460.569 839.917 460.487 840.04 460.404C843.796 457.553 865.64 434.768 866.451 432.712C865.173 436.885 858.103 448.228 840.04 460.404Z" fill="url(#paint29_linear_1147_1009)"/>
<path d="M891.936 405.687L887.645 406.008C888.685 414.144 879.715 429.903 882.185 428.43C884.161 427.251 889.509 412.777 891.936 405.687Z" fill="url(#paint30_linear_1147_1009)"/>
<path d="M922.486 400.178C921.511 400.391 919.483 400.857 919.171 401.011C915.986 408.826 909.928 424.215 911.176 423.241C912.424 422.267 919.236 407.46 922.486 400.178Z" fill="url(#paint31_linear_1147_1009)"/>
<path d="M948.132 385.434C545.414 327.631 158.884 356.975 6.57041 386.19C3.55872 386.768 2.77958 390.086 5.47442 391.549C23.4801 401.328 70.7591 407.209 94.7611 409.065C125.152 413.955 184.117 417.384 209.802 418.486C219.259 422.346 271.429 425.531 296.331 426.641C299.828 426.456 351.403 430.429 376.753 432.439C387.243 433.004 408.441 434.135 409.315 434.135H448.138C466.69 437.095 522.758 436.083 548.474 435.207C562.678 435.862 659.635 427.835 706.338 423.739C718.072 424.067 776.843 416.777 804.762 413.091C872.155 411.741 922.834 400.57 948.876 392.282C952.72 391.059 952.125 386.007 948.132 385.434Z" fill="url(#paint32_linear_1147_1009)"/>
<path d="M133.713 397.749C124.092 395.149 69.7468 397.229 67.6665 397.749C74.4812 399.01 100.356 398.863 112.441 398.632C120.968 398.414 130.175 397.952 133.713 397.749Z" fill="url(#paint33_linear_1147_1009)"/>
<path d="M133.713 402.265C141.934 401.335 160.049 399.839 166.744 401.295C161.664 402.386 147.945 404.109 133.713 402.265Z" fill="url(#paint34_linear_1147_1009)"/>
<path d="M160.356 406.24C173.792 405.5 201.665 404.464 205.659 406.24C193.711 407.317 167.923 408.825 160.356 406.24Z" fill="url(#paint35_linear_1147_1009)"/>
<path d="M214.905 404.206C221.561 402.912 235.911 400.713 240.053 402.265C236.971 403.22 227.627 404.945 214.905 404.206Z" fill="url(#paint36_linear_1147_1009)"/>
<path d="M243.668 415.903C255.358 415.089 279.004 413.95 280.07 415.903C271.265 416.865 251.659 418.212 243.668 415.903Z" fill="url(#paint37_linear_1147_1009)"/>
<path d="M287.838 413.462C301.23 412.13 330.01 410.266 338.001 413.462C323.869 413.906 294.053 414.527 287.838 413.462Z" fill="url(#paint38_linear_1147_1009)"/>
<path d="M338.001 417.207C344.107 416.733 356.941 416.07 359.421 417.207C354.14 418.025 342.463 419.17 338.001 417.207Z" fill="url(#paint39_linear_1147_1009)"/>
<path d="M364.071 417.207C370.1 416.604 382.699 415.889 384.869 417.852C378.884 418.326 366.345 418.86 364.071 417.207Z" fill="url(#paint40_linear_1147_1009)"/>
<path d="M391.848 411.204C392.437 410.968 424.727 409.908 426.377 411.204C418.996 412.247 401.756 413.707 391.848 411.204Z" fill="url(#paint41_linear_1147_1009)"/>
<path d="M454.612 421.816C455.602 421.486 523.077 417.857 535.615 421.816C509.384 422.476 456.46 423.4 454.612 421.816Z" fill="url(#paint42_linear_1147_1009)"/>
<path d="M553.766 411.014C571.638 412.629 608.196 416.453 611.455 418.837C594.507 417.533 559.241 414.143 553.766 411.014Z" fill="url(#paint43_linear_1147_1009)"/>
<path d="M622.7 412.644C629.599 412.861 644.016 413.85 646.493 416.066C640.517 416.229 627.393 415.773 622.7 412.644Z" fill="url(#paint44_linear_1147_1009)"/>
<path d="M661.485 406.451C673.11 405.473 697.924 404.43 704.182 408.081C693.101 407.864 669.047 407.233 661.485 406.451Z" fill="url(#paint45_linear_1147_1009)"/>
<path d="M729.864 399.453C727.969 399.531 726.277 399.618 724.847 399.705C725.534 399.486 727.321 399.414 729.864 399.453C742.072 398.948 762.726 398.787 776.175 401.092C789.308 401.739 816.683 402.368 821.122 399.705C821.439 401.953 812.744 405.712 775.426 402.76C763.059 401.572 740.206 399.608 729.864 399.453Z" fill="url(#paint46_linear_1147_1009)"/>
<path d="M659.208 420.733C664.997 421.624 670.472 425.133 672.486 426.776H669.227C669.163 425.886 662.521 422.377 659.208 420.733Z" fill="url(#paint47_linear_1147_1009)"/>
<path d="M746.241 385.699C747.323 385.819 785.429 387.262 793.483 389.065C781.289 389.192 754.77 388.697 746.241 385.699Z" fill="url(#paint48_linear_1147_1009)"/>
<path d="M746.241 378.441C768.048 379.286 811.678 380.845 814.314 380.429C814.345 380.422 814.375 380.415 814.405 380.408C814.385 380.416 814.354 380.422 814.314 380.429C807.637 381.895 784.854 383.523 746.241 378.441Z" fill="url(#paint49_linear_1147_1009)"/>
<g filter="url(#filter1_n_1147_1009)">
<path d="M286.702 395.473V358.765C179.937 358.765 31.7653 380.366 6.88428 386.245C16.9101 389.253 222.67 395.178 286.702 395.473Z" fill="url(#paint50_linear_1147_1009)"/>
</g>
<path d="M535.647 301.786L380.876 315.813L386.635 305.749L364.353 310.206L335.446 314.409C329.105 315.332 323.078 317.764 317.873 321.501L285.412 344.807C280.348 348.444 274.601 351.007 268.762 353.193C253.358 358.96 230.531 370.45 219.227 376.471C209.239 380.985 204.438 384.245 202.399 386.332C201.073 387.691 202.221 389.08 204.1 389.353C224.381 392.307 293.812 395.986 330.171 397.646C332.085 397.734 333.97 397.99 335.838 398.417L346.08 400.754C364.81 403.145 475.001 403.502 527.755 403.382C570.371 402.956 682.574 391.885 738.942 385.815C740.861 385.608 741.369 383.096 739.681 382.159C713.862 367.818 683.948 355.788 667.293 349.79C663.233 348.328 659.355 346.426 655.778 344.012L630.597 327.014C619.695 319.654 607.183 315.026 594.117 313.518L569.233 310.648C565.106 310.172 561.076 309.071 557.28 307.384L550.043 304.168C545.526 302.16 540.57 301.34 535.647 301.786Z" fill="url(#paint51_linear_1147_1009)"/>
<path d="M465.081 340.39C467.135 341.025 469.437 341.168 470.331 341.16C478.013 342.703 483.966 353.9 485.983 359.305C491.129 368.974 501.74 375.475 506.403 377.517C529.361 384.493 541.819 397.265 545.178 402.779H542.04C534.305 390.063 516.122 382.404 507.998 380.163C496.447 377.607 487.555 366.623 484.552 361.451C479.996 347.463 470.555 342.995 466.405 342.509L465.081 340.39ZM454.337 353.146C452.029 365.283 443.997 392.027 430.334 401.898L427.482 401.5C432.578 398.964 444.834 385.833 453.088 353.605L454.337 353.146ZM562.133 364.814C566.975 366.024 577.079 369.264 578.766 372.544C578.688 374.692 578.298 380.112 577.361 384.61C579.86 389.061 585.279 398.267 586.965 399.486C586.201 400.117 582.854 398.17 575.581 385.336C575.18 385.022 574.253 383.004 573.751 377.444C573.873 376.225 573.313 373.431 570.093 372.009C566.598 369.825 560.114 365.329 562.133 364.814ZM397.956 304.27C447.492 301.964 527.096 299.343 545.885 302.715C548.619 303.206 549.235 305.754 547.492 307.916C544.066 312.164 537.438 317.714 526.942 320.436C511.654 321.887 472.396 324.192 433.398 322.327C430.032 322.166 426.685 322.786 423.439 323.692C414.274 326.248 397.003 328.808 373.978 326.541C368.261 325.978 362.484 327.341 357.861 330.75C342.651 341.967 320.062 359.016 313.498 365.461C317.124 363.297 324.728 358.899 326.131 358.618C327.36 359.145 331.185 359.25 336.659 355.46C341.308 351.56 352.817 343.7 361.654 343.468C371.004 344.631 390.458 346.607 393.483 345.212C388.8 349.546 380.267 358.177 376.666 364.142C375.205 366.562 374.608 369.404 373.306 371.914C370.844 376.661 366.229 383.324 359.205 388.556C357.311 389.966 355.178 391.002 353.009 391.936C348.206 394.005 341.552 397.05 338.69 398.988C297.713 397.6 214.029 393.97 207.104 390.559C202.459 390.128 196.064 387.742 207.645 381.653C225.826 372.541 264.774 353.549 275.116 350.475C283.73 345.065 302.222 333.167 307.273 328.854C312.097 323.959 326.142 313.999 343.734 313.319C351.604 311.896 365.582 309.302 375.812 307.227C383.121 305.744 390.505 304.616 397.956 304.27ZM355.619 362.106C351.8 364.143 348.42 366.912 345.67 370.255L336.161 381.816C333.905 384.558 331.221 386.919 328.212 388.806L315.004 397.092H317.851L330.324 389.584C333.485 387.681 336.304 385.262 338.665 382.427L347.994 371.224C350.485 368.231 353.487 365.703 356.86 363.757L381.652 349.451L380.898 348.614L355.619 362.106ZM305.207 378.254C302.795 380.599 288.127 391.064 281.094 396.004H283.104C290.405 393.325 301.72 383.445 306.464 378.84L305.207 378.254ZM462.884 356.903C462.32 363.34 461.622 377.003 463.341 380.163C465.123 383.068 470.859 389.621 479.55 392.596C478.02 394.203 472.114 394.606 460.727 383.359C459.925 380.944 458.701 372.272 460.221 356.903H462.884ZM289.597 367.812C279.669 375.058 258.864 390.195 255.077 392.777C261.074 389.882 276.65 381.234 290.975 369.797C291.721 369.135 292.489 367.812 289.597 367.812ZM439.14 356.903C438.126 361.138 431.529 370.895 413.256 376.042C407.105 379.338 391.958 387.236 380.583 392.459L379.304 389.724L409.412 376.042C414.473 369.535 427.504 356.598 439.14 356.903ZM589.411 370.02C616.103 381.32 617.841 386.549 615.373 387.751C604.662 385.291 593.602 374.905 589.411 370.02ZM264.789 375.072C261.749 376.86 258.309 377.854 254.785 377.962L248.593 378.152C246.387 378.219 244.205 378.634 242.128 379.381L228.821 384.168C231.318 383.882 235.892 383.155 239.791 382.033C243.219 381.048 246.703 379.973 250.267 379.853L254.868 379.697C258.339 379.58 261.728 378.604 264.729 376.857L274.79 370.997C274.991 370.597 275.067 369.797 273.758 369.797L264.789 375.072ZM633.589 373.378C642.171 374.301 658.573 377.392 655.528 382.375C653.798 384.3 646.989 385.195 633.589 373.378ZM330.662 369.797C327.848 371.873 313.358 379.146 306.464 382.524L307.887 383.194C323.494 377.634 330.465 371.946 332 369.797H330.662ZM537.972 365.965C551.594 366.718 559.26 377.606 561.391 382.956C555.33 374.446 543.253 368.083 537.972 365.965ZM427.234 335.25C427.007 336.336 422.642 340.518 406.994 348.563C404.413 350.193 399.387 355.246 399.93 362.418C407.305 358.92 425.222 351.455 437.889 349.574L438.058 350.287C425.625 353.429 399.862 362.263 396.27 372.47C395.403 374.514 393.291 378.434 391.78 377.768C392.051 369.014 395.747 350.247 408.352 345.212C409.167 345.212 426.185 336.744 427.234 335.25ZM624.523 353.653C626.737 357.64 638.917 362.755 644.731 364.814C632.385 363.775 626.115 356.941 624.523 353.653ZM351.76 332.512C343.799 332.866 335.08 336.222 329.113 339.16C325.545 340.917 322.438 343.47 319.206 345.786C310.048 352.347 291.831 363.275 290.975 363.373C292.077 364.071 293.592 364.026 294.211 363.916C301.616 361.181 317.655 349.571 324.748 344.109C330.644 339.487 345.212 335.344 351.76 333.851V332.512ZM537.972 322.837C534.05 316.262 556.213 330.246 567.786 338.059C602.151 354.674 610.259 360.827 610.018 361.826C602.041 356.84 578.54 345.28 567.786 340.123C557.814 338.214 543.755 327.803 537.972 322.837ZM510.582 342.509C519.102 343.588 525.039 345.637 526.942 346.526C535.69 350.138 533.807 353.949 531.772 355.403C528.037 356.843 524.196 353.605 522.742 351.806C520.476 349.357 513.691 344.587 510.582 342.509ZM586.074 329.651C585.885 328.494 586.523 329.169 586.865 329.651C591.326 335.387 596.476 338.749 598.494 339.713C600.333 339.586 605 340.63 607.104 341.167C626.045 348.435 620.003 349.918 614.615 349.751C600.194 346.833 589.579 335.135 586.074 329.651ZM523.931 330.317C539.562 333.389 546.614 341.927 548.186 345.813C544.143 341.018 530.332 333.484 523.931 330.317Z" fill="url(#paint52_linear_1147_1009)"/>
<path d="M482.357 334.69C472.784 336.485 456.306 331.076 449.263 328.146C447.67 328.146 448.06 329.273 448.454 329.836C463.122 338.256 477.741 337.44 483.216 335.98L482.357 334.69Z" fill="url(#paint53_linear_1147_1009)"/>
<path d="M482.357 386.454C482.357 393.056 480.682 400.442 479.844 403.31H483.216V402.432C485.914 396.111 483.768 389.146 482.357 386.454Z" fill="url(#paint54_linear_1147_1009)"/>
<path d="M509.161 368.071C518.895 373.183 540.386 384.32 548.477 387.974C544.02 383.678 529.916 373.683 509.161 368.071Z" fill="url(#paint55_linear_1147_1009)"/>
<path d="M606.445 370.811C599.165 367.649 556.635 357.793 555.819 357.793V359.56C571.852 363.266 594.191 371.056 603.357 374.487C607.475 374.664 607.132 372.11 606.445 370.811Z" fill="url(#paint56_linear_1147_1009)"/>
<path d="M639.216 355.866C636.517 354.325 625.553 344.456 620.409 339.715C622.421 337.99 633.909 349.682 639.621 355.497L647.003 366.454C657.397 375.7 665.824 383.431 668.289 386.303C662.489 384.58 652.281 373.621 647.902 368.357C645.777 365.543 641.226 358.857 639.216 355.866Z" fill="url(#paint57_linear_1147_1009)"/>
<path d="M681.199 369.377C687.276 374.329 700.35 384.315 704.024 384.639C699.522 380.182 688.654 370.889 681.199 369.377Z" fill="url(#paint58_linear_1147_1009)"/>
<path d="M681.193 369.497C686.434 371.538 698.275 377.358 703.711 384.312C697.351 380.73 683.943 372.752 681.193 369.497Z" fill="#B16C46"/>
</g>
<path d="M492.919 88.8398C489.745 81.2229 484.72 85.6661 482.604 88.8398C476.257 87.5704 476.257 91.4846 477.05 93.6003C475.146 101.217 481.017 99.9477 484.191 98.3609C494.982 102.169 494.506 93.6004 492.919 88.8398Z" fill="#E1AFA9"/>
<path d="M384.45 106.914C377.214 109.809 376.611 116.161 377.214 118.975C372.872 118.975 371.787 125.407 371.787 128.623C372.752 138.271 380.229 138.271 383.847 137.065C385.294 144.784 391.284 143.095 394.098 141.286C397.958 144.663 403.344 141.889 405.556 140.08C408.45 141.527 412.39 137.065 413.998 134.653C418.339 122.593 411.385 119.98 407.365 120.181C410.259 110.05 402.138 108.724 397.716 109.327C395.304 104.02 387.867 105.507 384.45 106.914Z" fill="url(#paint59_linear_1147_1009)"/>
<path d="M478.747 10.9372C468.728 -7.51849 458.754 1.48965 455.019 8.30068C443.945 8.30068 443.813 18.8467 445.132 24.1198C439.858 24.1198 436.343 28.0746 435.245 30.052C427.335 40.0708 435.025 46.9697 439.859 49.1668C434.058 49.6941 431.729 55.9778 431.29 59.0538C430.762 71.1818 440.298 70.6984 445.132 68.9408C443.154 73.5547 447.768 76.1912 448.427 76.8503C457.391 83.178 466.663 74.2138 470.179 68.9408C478.088 74.7411 482.263 68.2816 483.361 64.3268C493.907 63.2722 492.589 56.4172 490.612 53.1216C497.994 52.067 501.597 43.8937 502.476 39.9389C504.058 23.0652 493.907 23.2409 488.634 25.438C489.162 19.1104 485.339 20.165 483.361 21.4833C485.998 11.9918 481.384 10.4978 478.747 10.9372Z" fill="url(#paint60_linear_1147_1009)"/>
<path d="M569.71 83.2792C560.062 79.6612 559.459 88.7063 558.856 89.3093C554.032 87.8621 551.218 92.3244 550.414 94.7365C547.037 106.797 557.047 108.204 562.474 107.4C575.016 115.601 578.956 107.601 579.358 102.576C584.182 102.093 584.986 97.1485 584.785 94.7365C582.856 81.7114 573.931 81.6712 569.71 83.2792Z" fill="url(#paint61_linear_1147_1009)"/>
<g filter="url(#filter2_n_1147_1009)">
<path d="M511.653 139.977C508.759 143.837 489.543 173.344 480.297 187.615L476.678 193.646L477.884 243.092C479.332 220.419 498.387 175.756 507.432 156.259C517.683 135.756 548.839 109.023 563.512 95.9576C558.206 97.8873 530.749 122.088 517.683 133.947L521.301 117.666H520.095L511.653 139.977Z" fill="url(#paint62_linear_1147_1009)"/>
</g>
<g filter="url(#filter3_n_1147_1009)">
<path d="M411.068 140.565C448.696 165.168 465.339 202.273 468.957 217.751L462.324 252.122C465.701 232.826 458.907 212.726 455.088 205.088C443.993 184.344 423.53 177.952 414.686 177.349V176.143C426.264 177.108 440.415 182.575 446.043 185.188C430.123 155.761 404.435 138.756 393.581 133.932L394.184 132.726L406.244 138.756L400.214 132.123L400.817 130.917L411.068 140.565Z" fill="url(#paint63_linear_1147_1009)"/>
</g>
<g filter="url(#filter4_n_1147_1009)">
<path d="M479.588 233.975C475.565 273.254 488.291 314.778 507.892 316.596H510.583C509.672 316.68 508.775 316.678 507.892 316.596H479.398C469.777 316.596 457.158 300.065 479.588 233.975Z" fill="#A8817D"/>
<path d="M464.786 71.822L466.595 57.9527C465.148 88.3445 470.012 120.867 472.625 133.329C473.107 131.882 478.454 116.244 481.067 108.606V96.5454H482.876L483.479 103.782L488.303 96.5454L489.509 97.1484C484.685 102.937 480.263 120.465 478.655 128.505C474.313 145.389 476.846 170.917 478.655 181.57C483.962 211.479 479.258 240.665 476.243 251.519C466.595 297.353 476.243 314.635 487.097 316.645H403.882C408.706 316.162 421.168 310.414 426.796 307.599C475.519 275.278 472.826 167.902 465.389 118.254L462.977 117.048V115.239C462.977 114.756 464.987 115.44 465.992 115.842V114.033C465.027 103.42 456.746 88.3043 452.726 82.0732L453.932 80.8671L464.183 98.9575L463.58 74.234C461.771 68.8069 458.032 57.7115 457.55 56.7467C457.067 55.7819 458.153 55.5406 458.756 55.5406L464.786 71.822Z" fill="url(#paint64_linear_1147_1009)"/>
</g>
<defs>
<filter id="filter0_n_1147_1009" x="2.26172" y="301.106" width="950.896" height="276.52" filterUnits="userSpaceOnUse" color-interpolation-filters="sRGB">
<feFlood flood-opacity="0" result="BackgroundImageFix"/>
<feBlend mode="normal" in="SourceGraphic" in2="BackgroundImageFix" result="shape"/>
<feTurbulence type="fractalNoise" baseFrequency="5 5" stitchTiles="stitch" numOctaves="3" result="noise" seed="1005" />
<feColorMatrix in="noise" type="luminanceToAlpha" result="alphaNoise" />
<feComponentTransfer in="alphaNoise" result="coloredNoise1">
<feFuncA type="discrete" tableValues="1 1 1 1 1 1 1 1 1 1 1 1 1 1 1 1 1 1 1 1 1 1 1 1 1 1 1 1 1 1 1 1 1 1 1 1 1 1 1 1 1 1 1 1 1 1 1 1 1 1 1 0 0 0 0 0 0 0 0 0 0 0 0 0 0 0 0 0 0 0 0 0 0 0 0 0 0 0 0 0 0 0 0 0 0 0 0 0 0 0 0 0 0 0 0 0 0 0 0 0 "/>
</feComponentTransfer>
<feComposite operator="in" in2="shape" in="coloredNoise1" result="noise1Clipped" />
<feFlood flood-color="rgba(201, 118, 118, 0.17)" result="color1Flood" />
<feComposite operator="in" in2="noise1Clipped" in="color1Flood" result="color1" />
<feMerge result="effect1_noise_1147_1009">
<feMergeNode in="shape" />
<feMergeNode in="color1" />
</feMerge>
</filter>
<filter id="filter1_n_1147_1009" x="6.88428" y="358.765" width="279.818" height="36.7084" filterUnits="userSpaceOnUse" color-interpolation-filters="sRGB">
<feFlood flood-opacity="0" result="BackgroundImageFix"/>
<feBlend mode="normal" in="SourceGraphic" in2="BackgroundImageFix" result="shape"/>
<feTurbulence type="fractalNoise" baseFrequency="5 5" stitchTiles="stitch" numOctaves="3" result="noise" seed="1360" />
<feColorMatrix in="noise" type="luminanceToAlpha" result="alphaNoise" />
<feComponentTransfer in="alphaNoise" result="coloredNoise1">
<feFuncA type="discrete" tableValues="1 1 1 1 1 1 1 1 1 1 1 1 1 1 1 1 1 1 1 1 1 1 1 1 1 1 1 1 1 1 1 1 1 1 1 1 1 1 1 1 1 1 1 1 1 1 1 1 1 1 1 0 0 0 0 0 0 0 0 0 0 0 0 0 0 0 0 0 0 0 0 0 0 0 0 0 0 0 0 0 0 0 0 0 0 0 0 0 0 0 0 0 0 0 0 0 0 0 0 0 "/>
</feComponentTransfer>
<feComposite operator="in" in2="shape" in="coloredNoise1" result="noise1Clipped" />
<feFlood flood-color="rgba(194, 48, 48, 0.25)" result="color1Flood" />
<feComposite operator="in" in2="noise1Clipped" in="color1Flood" result="color1" />
<feMerge result="effect1_noise_1147_1009">
<feMergeNode in="shape" />
<feMergeNode in="color1" />
</feMerge>
</filter>
<filter id="filter2_n_1147_1009" x="476.678" y="95.9576" width="86.8335" height="147.135" filterUnits="userSpaceOnUse" color-interpolation-filters="sRGB">
<feFlood flood-opacity="0" result="BackgroundImageFix"/>
<feBlend mode="normal" in="SourceGraphic" in2="BackgroundImageFix" result="shape"/>
<feTurbulence type="fractalNoise" baseFrequency="10 10" stitchTiles="stitch" numOctaves="3" result="noise" seed="7422" />
<feColorMatrix in="noise" type="luminanceToAlpha" result="alphaNoise" />
<feComponentTransfer in="alphaNoise" result="coloredNoise1">
<feFuncA type="discrete" tableValues="1 1 1 1 1 1 1 1 1 1 1 1 1 1 1 1 1 1 1 1 1 1 1 1 1 1 1 1 1 1 1 1 1 1 1 1 1 1 1 1 1 1 1 1 1 1 1 1 1 1 1 0 0 0 0 0 0 0 0 0 0 0 0 0 0 0 0 0 0 0 0 0 0 0 0 0 0 0 0 0 0 0 0 0 0 0 0 0 0 0 0 0 0 0 0 0 0 0 0 0 "/>
</feComponentTransfer>
<feComposite operator="in" in2="shape" in="coloredNoise1" result="noise1Clipped" />
<feFlood flood-color="rgba(175, 78, 78, 0.14)" result="color1Flood" />
<feComposite operator="in" in2="noise1Clipped" in="color1Flood" result="color1" />
<feMerge result="effect1_noise_1147_1009">
<feMergeNode in="shape" />
<feMergeNode in="color1" />
</feMerge>
</filter>
<filter id="filter3_n_1147_1009" x="393.581" y="130.917" width="75.3765" height="121.205" filterUnits="userSpaceOnUse" color-interpolation-filters="sRGB">
<feFlood flood-opacity="0" result="BackgroundImageFix"/>
<feBlend mode="normal" in="SourceGraphic" in2="BackgroundImageFix" result="shape"/>
<feTurbulence type="fractalNoise" baseFrequency="10 10" stitchTiles="stitch" numOctaves="3" result="noise" seed="7255" />
<feColorMatrix in="noise" type="luminanceToAlpha" result="alphaNoise" />
<feComponentTransfer in="alphaNoise" result="coloredNoise1">
<feFuncA type="discrete" tableValues="1 1 1 1 1 1 1 1 1 1 1 1 1 1 1 1 1 1 1 1 1 1 1 1 1 1 1 1 1 1 1 1 1 1 1 1 1 1 1 1 1 1 1 1 1 1 1 1 1 1 1 0 0 0 0 0 0 0 0 0 0 0 0 0 0 0 0 0 0 0 0 0 0 0 0 0 0 0 0 0 0 0 0 0 0 0 0 0 0 0 0 0 0 0 0 0 0 0 0 0 "/>
</feComponentTransfer>
<feComposite operator="in" in2="shape" in="coloredNoise1" result="noise1Clipped" />
<feFlood flood-color="rgba(124, 80, 80, 0.25)" result="color1Flood" />
<feComposite operator="in" in2="noise1Clipped" in="color1Flood" result="color1" />
<feMerge result="effect1_noise_1147_1009">
<feMergeNode in="shape" />
<feMergeNode in="color1" />
</feMerge>
</filter>
<filter id="filter4_n_1147_1009" x="403.882" y="55.5406" width="106.701" height="261.118" filterUnits="userSpaceOnUse" color-interpolation-filters="sRGB">
<feFlood flood-opacity="0" result="BackgroundImageFix"/>
<feBlend mode="normal" in="SourceGraphic" in2="BackgroundImageFix" result="shape"/>
<feTurbulence type="fractalNoise" baseFrequency="10 10" stitchTiles="stitch" numOctaves="3" result="noise" seed="135" />
<feColorMatrix in="noise" type="luminanceToAlpha" result="alphaNoise" />
<feComponentTransfer in="alphaNoise" result="coloredNoise1">
<feFuncA type="discrete" tableValues="1 1 1 1 1 1 1 1 1 1 1 1 1 1 1 1 1 1 1 1 1 1 1 1 1 1 1 1 1 1 1 1 1 1 1 1 1 1 1 1 1 1 1 1 1 1 1 1 1 1 1 0 0 0 0 0 0 0 0 0 0 0 0 0 0 0 0 0 0 0 0 0 0 0 0 0 0 0 0 0 0 0 0 0 0 0 0 0 0 0 0 0 0 0 0 0 0 0 0 0 "/>
</feComponentTransfer>
<feComposite operator="in" in2="shape" in="coloredNoise1" result="noise1Clipped" />
<feFlood flood-color="rgba(85, 47, 47, 0.25)" result="color1Flood" />
<feComposite operator="in" in2="noise1Clipped" in="color1Flood" result="color1" />
<feMerge result="effect1_noise_1147_1009">
<feMergeNode in="shape" />
<feMergeNode in="color1" />
</feMerge>
</filter>
<linearGradient id="paint0_linear_1147_1009" x1="478.3" y1="384.821" x2="478.3" y2="577.626" gradientUnits="userSpaceOnUse">
<stop stop-color="#DC9F8B"/>
<stop offset="0.811997" stop-color="#D78A7F"/>
</linearGradient>
<linearGradient id="paint1_linear_1147_1009" x1="61.0385" y1="428.982" x2="539.731" y2="480.762" gradientUnits="userSpaceOnUse">
<stop stop-color="#7A3D4B"/>
<stop offset="1" stop-color="#9F5663"/>
</linearGradient>
<linearGradient id="paint2_linear_1147_1009" x1="351.829" y1="472.809" x2="311.774" y2="542.193" gradientUnits="userSpaceOnUse">
<stop stop-color="#823F4F"/>
<stop offset="1" stop-color="#914D5A"/>
</linearGradient>
<linearGradient id="paint3_linear_1147_1009" x1="157.223" y1="412.752" x2="387.433" y2="533.995" gradientUnits="userSpaceOnUse">
<stop stop-color="#7B3944"/>
<stop offset="0.5" stop-color="#7F3D4A"/>
<stop offset="1" stop-color="#7E3945"/>
</linearGradient>
<linearGradient id="paint4_linear_1147_1009" x1="157.223" y1="412.752" x2="387.433" y2="533.995" gradientUnits="userSpaceOnUse">
<stop stop-color="#7B3944"/>
<stop offset="0.5" stop-color="#7F3D4A"/>
<stop offset="1" stop-color="#7E3945"/>
</linearGradient>
<linearGradient id="paint5_linear_1147_1009" x1="157.223" y1="412.752" x2="387.433" y2="533.995" gradientUnits="userSpaceOnUse">
<stop stop-color="#7B3944"/>
<stop offset="0.5" stop-color="#7F3D4A"/>
<stop offset="1" stop-color="#7E3945"/>
</linearGradient>
<linearGradient id="paint6_linear_1147_1009" x1="157.223" y1="412.752" x2="387.433" y2="533.995" gradientUnits="userSpaceOnUse">
<stop stop-color="#7B3944"/>
<stop offset="0.5" stop-color="#7F3D4A"/>
<stop offset="1" stop-color="#7E3945"/>
</linearGradient>
<linearGradient id="paint7_linear_1147_1009" x1="157.223" y1="412.752" x2="387.433" y2="533.995" gradientUnits="userSpaceOnUse">
<stop stop-color="#7B3944"/>
<stop offset="0.5" stop-color="#7F3D4A"/>
<stop offset="1" stop-color="#7E3945"/>
</linearGradient>
<linearGradient id="paint8_linear_1147_1009" x1="175.18" y1="401.296" x2="175.18" y2="456.771" gradientUnits="userSpaceOnUse">
<stop stop-color="#96403D"/>
<stop offset="1" stop-color="#9E5D63" stop-opacity="0.41"/>
</linearGradient>
<linearGradient id="paint9_linear_1147_1009" x1="175.18" y1="401.296" x2="175.18" y2="456.771" gradientUnits="userSpaceOnUse">
<stop stop-color="#96403D"/>
<stop offset="1" stop-color="#9E5D63" stop-opacity="0.41"/>
</linearGradient>
<linearGradient id="paint10_linear_1147_1009" x1="105.671" y1="401.296" x2="105.671" y2="457.19" gradientUnits="userSpaceOnUse">
<stop stop-color="#8C4858"/>
<stop offset="1" stop-color="#7A3D4B"/>
</linearGradient>
<linearGradient id="paint11_linear_1147_1009" x1="91.6789" y1="414.113" x2="76.1793" y2="427.098" gradientUnits="userSpaceOnUse">
<stop stop-color="#7A3444"/>
<stop offset="1" stop-color="#7B3E4B"/>
</linearGradient>
<linearGradient id="paint12_linear_1147_1009" x1="238.962" y1="432.837" x2="318.384" y2="555.197" gradientUnits="userSpaceOnUse">
<stop stop-color="#C67465"/>
<stop offset="1" stop-color="#DC927D"/>
</linearGradient>
<linearGradient id="paint13_linear_1147_1009" x1="238.962" y1="432.837" x2="318.384" y2="555.197" gradientUnits="userSpaceOnUse">
<stop stop-color="#C67465"/>
<stop offset="1" stop-color="#DC927D"/>
</linearGradient>
<linearGradient id="paint14_linear_1147_1009" x1="238.962" y1="432.837" x2="318.384" y2="555.197" gradientUnits="userSpaceOnUse">
<stop stop-color="#C67465"/>
<stop offset="1" stop-color="#DC927D"/>
</linearGradient>
<linearGradient id="paint15_linear_1147_1009" x1="238.962" y1="432.837" x2="318.384" y2="555.197" gradientUnits="userSpaceOnUse">
<stop stop-color="#C67465"/>
<stop offset="1" stop-color="#DC927D"/>
</linearGradient>
<linearGradient id="paint16_linear_1147_1009" x1="863.148" y1="444.978" x2="707.299" y2="413.288" gradientUnits="userSpaceOnUse">
<stop stop-color="#D58C75"/>
<stop offset="0.454968" stop-color="#CE7662"/>
</linearGradient>
<linearGradient id="paint17_linear_1147_1009" x1="863.148" y1="444.978" x2="707.299" y2="413.288" gradientUnits="userSpaceOnUse">
<stop stop-color="#D58C75"/>
<stop offset="0.454968" stop-color="#CE7662"/>
</linearGradient>
<linearGradient id="paint18_linear_1147_1009" x1="723.679" y1="400.178" x2="723.679" y2="458.211" gradientUnits="userSpaceOnUse">
<stop stop-color="#A35B48"/>
<stop offset="0.5" stop-color="#C17468"/>
<stop offset="0.983041" stop-color="#B85555"/>
</linearGradient>
<linearGradient id="paint19_linear_1147_1009" x1="723.679" y1="400.178" x2="723.679" y2="458.211" gradientUnits="userSpaceOnUse">
<stop stop-color="#A35B48"/>
<stop offset="0.5" stop-color="#C17468"/>
<stop offset="0.983041" stop-color="#B85555"/>
</linearGradient>
<linearGradient id="paint20_linear_1147_1009" x1="723.679" y1="400.178" x2="723.679" y2="458.211" gradientUnits="userSpaceOnUse">
<stop stop-color="#A35B48"/>
<stop offset="0.5" stop-color="#C17468"/>
<stop offset="0.983041" stop-color="#B85555"/>
</linearGradient>
<linearGradient id="paint21_linear_1147_1009" x1="723.679" y1="400.178" x2="723.679" y2="458.211" gradientUnits="userSpaceOnUse">
<stop stop-color="#A35B48"/>
<stop offset="0.5" stop-color="#C17468"/>
<stop offset="0.983041" stop-color="#B85555"/>
</linearGradient>
<linearGradient id="paint22_linear_1147_1009" x1="723.679" y1="400.178" x2="723.679" y2="458.211" gradientUnits="userSpaceOnUse">
<stop stop-color="#A35B48"/>
<stop offset="0.5" stop-color="#C17468"/>
<stop offset="0.983041" stop-color="#B85555"/>
</linearGradient>
<linearGradient id="paint23_linear_1147_1009" x1="723.679" y1="400.178" x2="723.679" y2="458.211" gradientUnits="userSpaceOnUse">
<stop stop-color="#A35B48"/>
<stop offset="0.5" stop-color="#C17468"/>
<stop offset="0.983041" stop-color="#B85555"/>
</linearGradient>
<linearGradient id="paint24_linear_1147_1009" x1="723.679" y1="400.178" x2="723.679" y2="458.211" gradientUnits="userSpaceOnUse">
<stop stop-color="#A35B48"/>
<stop offset="0.5" stop-color="#C17468"/>
<stop offset="0.983041" stop-color="#B85555"/>
</linearGradient>
<linearGradient id="paint25_linear_1147_1009" x1="723.679" y1="400.178" x2="723.679" y2="458.211" gradientUnits="userSpaceOnUse">
<stop stop-color="#A35B48"/>
<stop offset="0.5" stop-color="#C17468"/>
<stop offset="0.983041" stop-color="#B85555"/>
</linearGradient>
<linearGradient id="paint26_linear_1147_1009" x1="723.679" y1="400.178" x2="723.679" y2="458.211" gradientUnits="userSpaceOnUse">
<stop stop-color="#A35B48"/>
<stop offset="0.5" stop-color="#C17468"/>
<stop offset="0.983041" stop-color="#B85555"/>
</linearGradient>
<linearGradient id="paint27_linear_1147_1009" x1="723.679" y1="400.178" x2="723.679" y2="458.211" gradientUnits="userSpaceOnUse">
<stop stop-color="#A35B48"/>
<stop offset="0.5" stop-color="#C17468"/>
<stop offset="0.983041" stop-color="#B85555"/>
</linearGradient>
<linearGradient id="paint28_linear_1147_1009" x1="723.679" y1="400.178" x2="723.679" y2="458.211" gradientUnits="userSpaceOnUse">
<stop stop-color="#A35B48"/>
<stop offset="0.5" stop-color="#C17468"/>
<stop offset="0.983041" stop-color="#B85555"/>
</linearGradient>
<linearGradient id="paint29_linear_1147_1009" x1="723.679" y1="400.178" x2="723.679" y2="458.211" gradientUnits="userSpaceOnUse">
<stop stop-color="#A35B48"/>
<stop offset="0.5" stop-color="#C17468"/>
<stop offset="0.983041" stop-color="#B85555"/>
</linearGradient>
<linearGradient id="paint30_linear_1147_1009" x1="723.679" y1="400.178" x2="723.679" y2="458.211" gradientUnits="userSpaceOnUse">
<stop stop-color="#A35B48"/>
<stop offset="0.5" stop-color="#C17468"/>
<stop offset="0.983041" stop-color="#B85555"/>
</linearGradient>
<linearGradient id="paint31_linear_1147_1009" x1="723.679" y1="400.178" x2="723.679" y2="458.211" gradientUnits="userSpaceOnUse">
<stop stop-color="#A35B48"/>
<stop offset="0.5" stop-color="#C17468"/>
<stop offset="0.983041" stop-color="#B85555"/>
</linearGradient>
<linearGradient id="paint32_linear_1147_1009" x1="0" y1="394.182" x2="666.466" y2="394.182" gradientUnits="userSpaceOnUse">
<stop stop-color="#F3B098"/>
<stop offset="1" stop-color="#FBCFB9"/>
</linearGradient>
<linearGradient id="paint33_linear_1147_1009" x1="444.398" y1="378.441" x2="444.398" y2="426.776" gradientUnits="userSpaceOnUse">
<stop stop-color="#E6A47D"/>
<stop offset="0.5" stop-color="#D69981"/>
<stop offset="1" stop-color="#E6B89E"/>
</linearGradient>
<linearGradient id="paint34_linear_1147_1009" x1="444.398" y1="378.441" x2="444.398" y2="426.776" gradientUnits="userSpaceOnUse">
<stop stop-color="#E6A47D"/>
<stop offset="0.5" stop-color="#D69981"/>
<stop offset="1" stop-color="#E6B89E"/>
</linearGradient>
<linearGradient id="paint35_linear_1147_1009" x1="444.398" y1="378.441" x2="444.398" y2="426.776" gradientUnits="userSpaceOnUse">
<stop stop-color="#E6A47D"/>
<stop offset="0.5" stop-color="#D69981"/>
<stop offset="1" stop-color="#E6B89E"/>
</linearGradient>
<linearGradient id="paint36_linear_1147_1009" x1="444.398" y1="378.441" x2="444.398" y2="426.776" gradientUnits="userSpaceOnUse">
<stop stop-color="#E6A47D"/>
<stop offset="0.5" stop-color="#D69981"/>
<stop offset="1" stop-color="#E6B89E"/>
</linearGradient>
<linearGradient id="paint37_linear_1147_1009" x1="444.398" y1="378.441" x2="444.398" y2="426.776" gradientUnits="userSpaceOnUse">
<stop stop-color="#E6A47D"/>
<stop offset="0.5" stop-color="#D69981"/>
<stop offset="1" stop-color="#E6B89E"/>
</linearGradient>
<linearGradient id="paint38_linear_1147_1009" x1="444.398" y1="378.441" x2="444.398" y2="426.776" gradientUnits="userSpaceOnUse">
<stop stop-color="#E6A47D"/>
<stop offset="0.5" stop-color="#D69981"/>
<stop offset="1" stop-color="#E6B89E"/>
</linearGradient>
<linearGradient id="paint39_linear_1147_1009" x1="444.398" y1="378.441" x2="444.398" y2="426.776" gradientUnits="userSpaceOnUse">
<stop stop-color="#E6A47D"/>
<stop offset="0.5" stop-color="#D69981"/>
<stop offset="1" stop-color="#E6B89E"/>
</linearGradient>
<linearGradient id="paint40_linear_1147_1009" x1="444.398" y1="378.441" x2="444.398" y2="426.776" gradientUnits="userSpaceOnUse">
<stop stop-color="#E6A47D"/>
<stop offset="0.5" stop-color="#D69981"/>
<stop offset="1" stop-color="#E6B89E"/>
</linearGradient>
<linearGradient id="paint41_linear_1147_1009" x1="444.398" y1="378.441" x2="444.398" y2="426.776" gradientUnits="userSpaceOnUse">
<stop stop-color="#E6A47D"/>
<stop offset="0.5" stop-color="#D69981"/>
<stop offset="1" stop-color="#E6B89E"/>
</linearGradient>
<linearGradient id="paint42_linear_1147_1009" x1="444.398" y1="378.441" x2="444.398" y2="426.776" gradientUnits="userSpaceOnUse">
<stop stop-color="#E6A47D"/>
<stop offset="0.5" stop-color="#D69981"/>
<stop offset="1" stop-color="#E6B89E"/>
</linearGradient>
<linearGradient id="paint43_linear_1147_1009" x1="444.398" y1="378.441" x2="444.398" y2="426.776" gradientUnits="userSpaceOnUse">
<stop stop-color="#E6A47D"/>
<stop offset="0.5" stop-color="#D69981"/>
<stop offset="1" stop-color="#E6B89E"/>
</linearGradient>
<linearGradient id="paint44_linear_1147_1009" x1="444.398" y1="378.441" x2="444.398" y2="426.776" gradientUnits="userSpaceOnUse">
<stop stop-color="#E6A47D"/>
<stop offset="0.5" stop-color="#D69981"/>
<stop offset="1" stop-color="#E6B89E"/>
</linearGradient>
<linearGradient id="paint45_linear_1147_1009" x1="444.398" y1="378.441" x2="444.398" y2="426.776" gradientUnits="userSpaceOnUse">
<stop stop-color="#E6A47D"/>
<stop offset="0.5" stop-color="#D69981"/>
<stop offset="1" stop-color="#E6B89E"/>
</linearGradient>
<linearGradient id="paint46_linear_1147_1009" x1="444.398" y1="378.441" x2="444.398" y2="426.776" gradientUnits="userSpaceOnUse">
<stop stop-color="#E6A47D"/>
<stop offset="0.5" stop-color="#D69981"/>
<stop offset="1" stop-color="#E6B89E"/>
</linearGradient>
<linearGradient id="paint47_linear_1147_1009" x1="444.398" y1="378.441" x2="444.398" y2="426.776" gradientUnits="userSpaceOnUse">
<stop stop-color="#E6A47D"/>
<stop offset="0.5" stop-color="#D69981"/>
<stop offset="1" stop-color="#E6B89E"/>
</linearGradient>
<linearGradient id="paint48_linear_1147_1009" x1="444.398" y1="378.441" x2="444.398" y2="426.776" gradientUnits="userSpaceOnUse">
<stop stop-color="#E6A47D"/>
<stop offset="0.5" stop-color="#D69981"/>
<stop offset="1" stop-color="#E6B89E"/>
</linearGradient>
<linearGradient id="paint49_linear_1147_1009" x1="444.398" y1="378.441" x2="444.398" y2="426.776" gradientUnits="userSpaceOnUse">
<stop stop-color="#E6A47D"/>
<stop offset="0.5" stop-color="#D69981"/>
<stop offset="1" stop-color="#E6B89E"/>
</linearGradient>
<linearGradient id="paint50_linear_1147_1009" x1="6.88428" y1="374.992" x2="286.702" y2="374.992" gradientUnits="userSpaceOnUse">
<stop stop-color="#E9AA9E"/>
<stop offset="1" stop-color="#E07F6F"/>
</linearGradient>
<linearGradient id="paint51_linear_1147_1009" x1="201.104" y1="352.254" x2="623.365" y2="352.254" gradientUnits="userSpaceOnUse">
<stop stop-color="#99523A"/>
<stop offset="0.471884" stop-color="#CE7E55"/>
<stop offset="0.978905" stop-color="#F2AA7A"/>
</linearGradient>
<linearGradient id="paint52_linear_1147_1009" x1="201.104" y1="350.047" x2="588.097" y2="345.051" gradientUnits="userSpaceOnUse">
<stop stop-color="#8C452D"/>
<stop offset="0.5" stop-color="#82402A"/>
<stop offset="1" stop-color="#A35931"/>
</linearGradient>
<linearGradient id="paint53_linear_1147_1009" x1="576.064" y1="328.146" x2="590.61" y2="392.706" gradientUnits="userSpaceOnUse">
<stop stop-color="#B87243"/>
<stop offset="1" stop-color="#DD9765"/>
</linearGradient>
<linearGradient id="paint54_linear_1147_1009" x1="576.064" y1="328.146" x2="590.61" y2="392.706" gradientUnits="userSpaceOnUse">
<stop stop-color="#B87243"/>
<stop offset="1" stop-color="#DD9765"/>
</linearGradient>
<linearGradient id="paint55_linear_1147_1009" x1="576.064" y1="328.146" x2="590.61" y2="392.706" gradientUnits="userSpaceOnUse">
<stop stop-color="#B87243"/>
<stop offset="1" stop-color="#DD9765"/>
</linearGradient>
<linearGradient id="paint56_linear_1147_1009" x1="576.064" y1="328.146" x2="590.61" y2="392.706" gradientUnits="userSpaceOnUse">
<stop stop-color="#B87243"/>
<stop offset="1" stop-color="#DD9765"/>
</linearGradient>
<linearGradient id="paint57_linear_1147_1009" x1="576.064" y1="328.146" x2="590.61" y2="392.706" gradientUnits="userSpaceOnUse">
<stop stop-color="#B87243"/>
<stop offset="1" stop-color="#DD9765"/>
</linearGradient>
<linearGradient id="paint58_linear_1147_1009" x1="576.064" y1="328.146" x2="590.61" y2="392.706" gradientUnits="userSpaceOnUse">
<stop stop-color="#B87243"/>
<stop offset="1" stop-color="#DD9765"/>
</linearGradient>
<linearGradient id="paint59_linear_1147_1009" x1="393.581" y1="105.591" x2="393.581" y2="142.877" gradientUnits="userSpaceOnUse">
<stop stop-color="#E1CCC9"/>
<stop offset="1" stop-color="#C58B8D"/>
</linearGradient>
<linearGradient id="paint60_linear_1147_1009" x1="466.955" y1="0" x2="466.955" y2="79.0267" gradientUnits="userSpaceOnUse">
<stop stop-color="#E1CCC9"/>
<stop offset="1" stop-color="#C67C7F"/>
</linearGradient>
<linearGradient id="paint61_linear_1147_1009" x1="567.273" y1="82.4277" x2="567.273" y2="110.927" gradientUnits="userSpaceOnUse">
<stop stop-color="#E1CCC9"/>
<stop offset="1" stop-color="#C18184"/>
</linearGradient>
<linearGradient id="paint62_linear_1147_1009" x1="520.095" y1="95.9576" x2="520.095" y2="243.092" gradientUnits="userSpaceOnUse">
<stop stop-color="#795D58"/>
<stop offset="1" stop-color="#6F4F4B"/>
</linearGradient>
<linearGradient id="paint63_linear_1147_1009" x1="431.269" y1="130.917" x2="431.269" y2="252.122" gradientUnits="userSpaceOnUse">
<stop stop-color="#73635E"/>
<stop offset="1" stop-color="#583830"/>
</linearGradient>
<linearGradient id="paint64_linear_1147_1009" x1="452.123" y1="124.887" x2="446.695" y2="316.645" gradientUnits="userSpaceOnUse">
<stop stop-color="#775A55"/>
<stop offset="1" stop-color="#64413F"/>
</linearGradient>
</defs>
</svg>
