<svg width="963" height="902" viewBox="0 0 963 902" fill="none" xmlns="http://www.w3.org/2000/svg">
<g filter="url(#filter0_n_1147_1022)">
<path d="M33.1627 754.151L6.3397 727.031C4.48286 725.154 3.44141 722.62 3.44141 719.979C3.44141 714.444 7.92687 709.955 13.4626 709.951L942.688 709.292C948.469 709.288 953.157 713.973 953.157 719.754C953.157 722.694 951.92 725.498 949.749 727.48L934.093 741.774L910.356 762.68C903.392 768.814 894.966 773.049 885.889 774.978L792.76 794.766C783.698 796.692 775.349 801.097 768.645 807.491C744.559 830.462 713.391 844.579 680.24 847.532L616.631 853.2C611.548 853.653 606.72 855.417 602.426 858.175C582.443 871.014 519.901 907.837 470.44 900.414C416.066 892.255 378.194 870.166 362.655 859.631C357.42 856.081 351.357 853.749 345.036 853.485L287.436 851.086C255.902 849.772 225.629 838.345 201.093 818.493L184.061 804.713C176.956 798.964 168.508 795.113 159.509 793.52L100.425 783.06C97.269 782.502 94.1693 781.663 91.1623 780.555L51.4197 765.906C44.5465 763.372 38.3139 759.36 33.1627 754.151Z" fill="url(#paint0_linear_1147_1022)"/>
<path d="M31.8989 754.433L5.15315 727.277C3.30029 725.396 2.26172 722.861 2.26172 720.221C2.26172 714.67 6.75958 710.168 12.3106 710.164L535.25 709.792C541.881 709.787 547.259 715.161 547.259 721.792V753.697C546.781 770.765 541.323 793.322 538.654 802.467C532.864 820.875 511.6 856.919 501.691 872.641C498.06 880.722 488.165 888.235 478.953 893.655C470.329 898.729 460.026 899.819 450.252 897.681C405.615 887.917 374.406 869.497 360.662 860.142C355.417 856.572 349.349 854.233 343.009 853.968L285.863 851.577C254.234 850.254 223.878 838.756 199.309 818.794L182.499 805.135C175.386 799.357 166.921 795.483 157.898 793.879L99.0474 783.417C95.8806 782.854 92.7705 782.009 89.754 780.892L50.1656 766.239C43.2842 763.691 37.0478 759.661 31.8989 754.433Z" fill="url(#paint1_linear_1147_1022)"/>
<path d="M335.193 748.368L234.494 742.415C226.912 761.589 240.792 780.867 248.68 788.109L278.701 799.993L313.89 848.328L355.674 850.723C373.643 865.235 387.249 866.98 391.807 866.039C389.55 864.648 386.152 852.573 383.905 846.557C382.625 833.997 376.326 817.246 374.352 811.532C358.558 802.394 337.433 764.709 335.193 748.368Z" fill="url(#paint2_linear_1147_1022)" fill-opacity="0.88"/>
<path d="M234.524 742.353C232.965 756.439 239.135 785.534 276.289 789.231C284.346 791.497 299.808 800.813 297.201 819.953C301.145 826.166 308.093 836.884 311.853 842.028C312.801 843.116 313.66 844.101 314.395 844.942C314.172 845.038 313.224 843.904 311.853 842.028C306.018 835.327 296.846 824.726 292.936 819.953C286.355 812.996 267.341 799.737 243.933 802.353C232.333 803.965 206.833 800.988 197.629 776.191C198.005 784.774 207.792 803.018 243.933 807.335C250.87 809.853 265.651 817.22 269.273 826.544C274.037 830.149 284.182 838.246 286.645 841.79C276.448 833.925 251.897 817.406 235.273 814.247C241.216 821.596 253.538 836.511 255.278 837.382C251.394 843.034 230.203 845.48 176.378 797.074C169.687 794.172 151.017 788.918 140.346 786.393C130.362 773.284 109.966 749.779 104.696 730.434L102.513 725.7C142.219 728.921 224.209 736.761 234.524 742.353Z" fill="url(#paint3_linear_1147_1022)"/>
<path d="M381.422 751.207H372.811C377.388 764.799 386.543 792.351 386.543 793.829C394.224 819.909 405.163 828.561 406.094 831.124C416.894 840.06 422.387 855.506 423.783 862.111C423.783 849.81 413.387 834.618 408.189 828.561C399.437 813.649 386.698 770.779 381.422 751.207Z" fill="url(#paint4_linear_1147_1022)"/>
<path d="M372.811 809.264C355.209 799.693 339.474 764.564 333.807 748.195H331.038C335.792 764.333 348.154 783.625 353.74 791.254C357.746 798.365 367.215 806.7 371.448 809.979C376.557 813.753 380.604 829.882 381.989 837.475C383.477 852.422 389.306 861.064 392.034 863.517C388.699 860.067 385.549 849.696 384.391 844.942C380.722 819.955 375.142 810.746 372.811 809.264Z" fill="url(#paint5_linear_1147_1022)"/>
<path d="M430.587 834.255C426.611 829.299 427.117 822.303 427.867 819.424C431.579 806.273 428.374 792.895 426.247 787.674C432.227 800.796 432.069 810.491 431.243 813.699C426.817 823.536 428.961 831.502 430.587 834.255Z" fill="url(#paint6_linear_1147_1022)"/>
<path d="M440.432 818.767C450.747 827.184 465.824 848.86 443.62 868.234C451.028 860.255 460.761 839.192 440.432 818.767Z" fill="url(#paint7_linear_1147_1022)"/>
<path d="M104.129 727.192L95.5352 725.7C99.621 735.479 109.35 748.564 113.704 753.885C125.962 772.407 139.813 786.39 141.286 785.8C139.223 785.211 118.713 758.014 118.713 756.687C112.349 749.136 106.339 733.878 104.129 727.192Z" fill="url(#paint8_linear_1147_1022)"/>
<path d="M238.865 761.299C236.363 745.435 232.904 741.202 231.487 741.068C229.241 744.6 233.706 755.331 236.219 760.255C242.827 778.431 251.376 781.583 254.825 780.888C246.741 778.447 240.817 766.811 238.865 761.299Z" fill="url(#paint9_linear_1147_1022)"/>
<path d="M88.4285 726.94L76.3301 725.7C79.3023 737.983 91.9851 750.717 97.9549 755.549C109.31 763.788 111.133 773.286 110.625 777.005L135.013 781.392C133.946 778.493 118.31 760.285 110.625 751.544C102.852 747.882 92.5884 733.616 88.4285 726.94Z" fill="url(#paint10_linear_1147_1022)"/>
<path d="M74.4363 726.94L62.3379 725.7C65.3102 737.983 77.9929 750.717 83.9628 755.549C95.3182 763.788 97.1409 773.286 96.6329 777.005L121.02 781.392C120.217 779.209 111.151 768.344 103.441 759.378C98.9766 754.186 93.2925 750.067 88.4995 745.176C82.7938 739.355 77.2344 731.43 74.4363 726.94Z" fill="url(#paint11_linear_1147_1022)"/>
<path d="M448.124 753.047H440.068C442.484 779.864 461.435 799.731 470.609 806.313C492.663 824.23 483.731 856.598 476.508 870.543C497.988 835.678 482.645 809.939 472.289 801.428C451.576 786.837 447.548 763.094 448.124 753.047Z" fill="url(#paint12_linear_1147_1022)"/>
<path d="M421.067 777.717C408.921 768.118 408.149 757.271 409.281 753.047C409.281 755.708 414.208 764.203 416.672 768.118C428.018 780.175 428.991 791.273 428.058 795.314C427.419 786.516 423.131 779.917 421.067 777.717Z" fill="url(#paint13_linear_1147_1022)"/>
<path d="M299.41 763.119C293.337 747.921 296.213 747.321 298.411 748.921C311.577 765.74 330.665 805.122 338.564 822.71L323.581 802.913C317.029 798.594 304.737 774.584 299.41 763.119Z" fill="url(#paint14_linear_1147_1022)"/>
<path d="M166.019 738.121C177.431 745.959 196.275 775.05 196.407 775.847C201.079 787.112 213.658 796.747 219.364 800.156C208.854 796.543 198.972 785.81 195.345 780.895L179.023 761.766C162.568 743.382 163.498 738.343 166.019 738.121Z" fill="url(#paint15_linear_1147_1022)"/>
<path d="M762.37 742.256L705.378 747.557C705.378 756.684 692.082 782.443 685.435 794.181L687.539 795.439C735.548 775.603 757.43 751.719 762.37 742.256Z" fill="url(#paint16_linear_1147_1022)"/>
<path d="M772.688 801.549C780.585 796.964 798.079 738.984 799.466 738.092C800.883 737.181 843.018 735.734 863.148 733.691C858.03 756.616 835.84 775.219 825.385 781.655C822.792 785.092 781.216 798.707 772.688 801.549C772.521 801.646 772.359 801.719 772.201 801.767C770.585 802.26 770.95 802.128 772.688 801.549Z" fill="url(#paint17_linear_1147_1022)"/>
<path d="M577.622 757.419L572.632 758.119C573.887 767.527 572.11 788.546 571.064 797.88C565.771 813.654 552.511 836.653 546.543 846.18C542.551 851.892 530.433 864.053 524.873 869.42C528.181 868.748 540.698 855.98 546.543 849.68C547.113 853.488 544.785 864.427 543.549 869.42C547.199 865.052 549.062 853.32 549.537 848C556.038 838.032 569.258 810.433 575.056 797.88C578.135 790.6 578.05 767.873 577.622 757.419Z" fill="url(#paint18_linear_1147_1022)"/>
<path d="M606.317 789.815C609.413 773.979 616.96 762.737 620.346 759.094C612.461 773.701 608.283 792.952 607.18 800.751C600.791 816.182 589.753 826.07 585.032 829.086L594.707 817.051C601.802 809.324 605.404 795.674 606.317 789.815Z" fill="url(#paint19_linear_1147_1022)"/>
<path d="M634.52 753.695H631.498L628.918 791.106C627.231 799.325 620.419 807.927 619.316 808.5C606.755 821.294 605.991 828.962 607.18 831.197C607.18 828.684 611.468 821.582 613.613 818.345C621.756 809.753 628.929 798.391 631.498 793.784C632.778 792.413 634.046 766.487 634.52 753.695Z" fill="url(#paint20_linear_1147_1022)"/>
<path d="M586.697 865.178C587.111 864.771 604.358 840.679 606.003 835.752C606.028 835.67 606.052 835.589 606.075 835.51C606.056 835.585 606.032 835.665 606.003 835.752C603.978 842.461 597.417 857.346 586.697 865.178Z" fill="url(#paint21_linear_1147_1022)"/>
<path d="M677.722 749.81L674.5 750.167C674.5 750.453 672.654 767.127 671.732 775.428C670.316 785.448 661.554 800.094 657.35 806.165C668.079 796.421 673.254 781.333 674.5 775.008L677.722 749.81Z" fill="url(#paint22_linear_1147_1022)"/>
<path d="M651.994 827.401C691.367 793.787 703.041 760.643 703.957 748.274L705.666 747.655V748.274C704.516 762.591 693.179 783.616 687.654 792.338C686.24 794.509 688.243 794.206 689.422 793.784C692.251 790.947 709.091 783.753 717.158 780.51C734.131 772.034 754.36 751.514 762.352 742.314H765.778C757.026 762.02 723.825 780.619 708.318 787.455C695.853 790.407 681.814 802.715 676.352 808.5C668.952 820.273 651.387 841.717 643.529 850.968C641.383 852.184 632.894 852.15 628.918 851.981C630.437 850.36 644.935 834.919 651.994 827.401Z" fill="url(#paint23_linear_1147_1022)"/>
<path d="M732.604 789.815C717.734 795.168 694.445 807.769 684.659 813.401C711.685 806.215 730.145 795.544 735.997 791.106C760.262 776.4 764.597 768.646 763.732 766.607C760.545 773.958 741.652 785.142 732.604 789.815Z" fill="url(#paint24_linear_1147_1022)"/>
<path d="M700.444 829.086C673.89 831.899 659.481 842.867 655.597 848C663.74 841.142 688.888 833.94 700.444 831.197C728.414 822.254 737.767 812.34 738.948 808.5C730.804 818.256 709.885 826.289 700.444 829.086Z" fill="url(#paint25_linear_1147_1022)"/>
<path d="M753.455 799.292C753.184 800.356 743.566 807.687 741.669 813.401C745.598 810.073 753.455 802.591 753.455 799.292Z" fill="url(#paint26_linear_1147_1022)"/>
<path d="M822.799 764.796C817.712 771.406 795.997 779.302 785.774 782.424C807.412 772.624 818.176 766.053 820.853 763.992C827.608 751.578 829.87 740.747 830.157 736.884H831.961C830.615 748.783 825.292 760.45 822.799 764.796Z" fill="url(#paint27_linear_1147_1022)"/>
<path d="M864.642 733.311L861.747 734.022C857.694 757.619 835.449 772.759 824.834 777.379C803.217 784.486 788.483 792.818 783.819 796.095C797.04 795.243 812.811 790.686 819.043 788.514C851.662 769.276 863.033 743.696 864.642 733.311Z" fill="url(#paint28_linear_1147_1022)"/>
<path d="M840.04 784.595C839.886 784.712 839.762 784.795 839.671 784.842C839.795 784.759 839.918 784.677 840.04 784.595C843.796 781.754 865.64 759.051 866.451 757.003C865.173 761.161 858.103 772.463 840.04 784.595Z" fill="url(#paint29_linear_1147_1022)"/>
<path d="M891.936 730.076L887.646 730.395C888.686 738.502 879.716 754.204 882.186 752.736C884.162 751.562 889.509 737.14 891.936 730.076Z" fill="url(#paint30_linear_1147_1022)"/>
<path d="M922.487 724.586C921.511 724.799 919.483 725.263 919.171 725.416C915.986 733.204 909.928 748.536 911.176 747.566C912.424 746.596 919.236 731.842 922.487 724.586Z" fill="url(#paint31_linear_1147_1022)"/>
<path d="M948.082 709.889C545.399 652.306 158.912 681.538 6.59057 710.645C3.57414 711.222 2.79795 714.544 5.50007 716.003C23.525 725.738 70.7705 731.593 94.7611 733.441C125.152 738.314 184.117 741.73 209.802 742.829C219.259 746.675 271.429 749.848 296.331 750.954C299.828 750.769 351.403 754.728 376.753 756.73C387.243 757.294 408.441 758.42 409.315 758.42H448.138C466.69 761.37 522.758 760.361 548.474 759.489C562.678 760.142 659.635 752.143 706.338 748.062C718.072 748.389 776.843 741.125 804.762 737.452C872.109 736.109 922.765 724.992 948.823 716.736C952.672 715.517 952.079 710.46 948.082 709.889Z" fill="url(#paint32_linear_1147_1022)"/>
<path d="M133.713 722.166C124.092 719.575 69.7464 721.648 67.666 722.166C74.4807 723.422 100.355 723.276 112.441 723.046C120.968 722.829 130.175 722.369 133.713 722.166Z" fill="url(#paint33_linear_1147_1022)"/>
<path d="M133.713 726.666C141.933 725.74 160.048 724.249 166.743 725.699C161.663 726.787 147.944 728.503 133.713 726.666Z" fill="url(#paint34_linear_1147_1022)"/>
<path d="M160.355 730.626C173.792 729.889 201.664 728.857 205.659 730.626C193.71 731.7 167.922 733.202 160.355 730.626Z" fill="url(#paint35_linear_1147_1022)"/>
<path d="M214.904 728.599C221.561 727.311 235.91 725.119 240.052 726.666C236.97 727.618 227.626 729.336 214.904 728.599Z" fill="url(#paint36_linear_1147_1022)"/>
<path d="M243.668 740.255C255.358 739.444 279.004 738.309 280.069 740.255C271.265 741.213 251.658 742.555 243.668 740.255Z" fill="url(#paint37_linear_1147_1022)"/>
<path d="M287.838 737.822C301.229 736.495 330.01 734.638 338 737.822C323.869 738.264 294.052 738.884 287.838 737.822Z" fill="url(#paint38_linear_1147_1022)"/>
<path d="M338 741.553C344.107 741.081 356.94 740.421 359.421 741.553C354.14 742.369 342.463 743.51 338 741.553Z" fill="url(#paint39_linear_1147_1022)"/>
<path d="M364.071 741.553C370.099 740.953 382.698 740.241 384.869 742.197C378.883 742.669 366.345 743.201 364.071 741.553Z" fill="url(#paint40_linear_1147_1022)"/>
<path d="M391.847 735.573C392.437 735.338 424.727 734.281 426.376 735.573C418.995 736.612 401.755 738.067 391.847 735.573Z" fill="url(#paint41_linear_1147_1022)"/>
<path d="M454.611 746.146C455.601 745.817 523.076 742.201 535.615 746.146C509.383 746.804 456.459 747.724 454.611 746.146Z" fill="url(#paint42_linear_1147_1022)"/>
<path d="M553.765 735.384C571.637 736.992 608.195 740.803 611.455 743.178C594.506 741.879 559.241 738.501 553.765 735.384Z" fill="url(#paint43_linear_1147_1022)"/>
<path d="M622.699 737.007C629.598 737.224 644.015 738.209 646.492 740.417C640.517 740.58 627.393 740.125 622.699 737.007Z" fill="url(#paint44_linear_1147_1022)"/>
<path d="M661.485 730.837C673.11 729.863 697.924 728.824 704.182 732.461C693.1 732.244 669.047 731.616 661.485 730.837Z" fill="url(#paint45_linear_1147_1022)"/>
<path d="M729.864 723.864C727.968 723.942 726.276 724.028 724.846 724.115C725.534 723.897 727.32 723.826 729.864 723.864C742.071 723.361 762.726 723.2 776.175 725.497C789.307 726.142 816.682 726.769 821.121 724.115C821.439 726.355 812.744 730.101 775.426 727.16C763.059 725.975 740.205 724.018 729.864 723.864Z" fill="url(#paint46_linear_1147_1022)"/>
<path d="M659.208 745.068C664.996 745.955 670.472 749.451 672.486 751.088H669.226C669.163 750.201 662.521 746.705 659.208 745.068Z" fill="url(#paint47_linear_1147_1022)"/>
<path d="M746.24 710.16C747.322 710.28 785.428 711.717 793.482 713.514C781.289 713.64 754.769 713.147 746.24 710.16Z" fill="url(#paint48_linear_1147_1022)"/>
<path d="M746.24 702.928C768.048 703.77 811.678 705.323 814.314 704.909C814.344 704.902 814.375 704.895 814.405 704.888C814.384 704.896 814.354 704.902 814.314 704.909C807.637 706.37 784.854 707.992 746.24 702.928Z" fill="url(#paint49_linear_1147_1022)"/>
<g filter="url(#filter1_n_1147_1022)">
<path d="M286.702 719.898V683.323C179.937 683.323 31.7658 704.846 6.88477 710.704C16.9105 713.701 222.67 719.605 286.702 719.898Z" fill="url(#paint50_linear_1147_1022)"/>
</g>
<path d="M535.672 626.548L380.876 640.526L386.635 630.499L364.352 634.94L335.421 639.132C329.095 640.048 323.081 642.467 317.883 646.186L285.403 669.422C280.344 673.041 274.608 675.591 268.78 677.764C253.376 683.509 230.535 694.964 219.227 700.966C209.243 705.461 204.442 708.708 202.402 710.788C201.074 712.142 202.219 713.528 204.096 713.8C224.374 716.744 293.822 720.411 330.18 722.064C332.088 722.151 333.966 722.406 335.828 722.829L346.08 725.161C364.81 727.543 475.001 727.899 527.755 727.779C570.365 727.354 682.547 716.326 738.922 710.277C740.843 710.071 741.349 707.555 739.658 706.62C713.839 692.333 683.929 680.35 667.282 674.376C663.229 672.922 659.356 671.03 655.784 668.627L630.57 651.668C619.685 644.347 607.202 639.745 594.17 638.246L569.213 635.378C565.099 634.905 561.081 633.811 557.294 632.135L550.023 628.915C545.518 626.92 540.579 626.105 535.672 626.548Z" fill="url(#paint51_linear_1147_1022)"/>
<path d="M465.08 665.015C467.135 665.647 469.436 665.79 470.33 665.782C478.012 667.32 483.967 678.475 485.983 683.861C491.129 693.494 501.74 699.972 506.402 702.007C529.36 708.958 541.818 721.683 545.177 727.178H542.04C534.304 714.508 516.122 706.876 507.998 704.644C496.447 702.097 487.554 691.154 484.551 686C479.995 672.063 470.554 667.61 466.404 667.126L465.08 665.015ZM454.337 677.724C452.028 689.818 443.996 716.465 430.334 726.3L427.481 725.904C432.577 723.376 444.833 710.293 453.088 678.181L454.337 677.724ZM562.133 689.35C566.974 690.556 577.079 693.785 578.765 697.053C578.687 699.193 578.297 704.592 577.36 709.073C579.859 713.508 585.277 722.681 586.965 723.896C586.201 724.525 582.856 722.587 575.581 709.798C575.18 709.486 574.252 707.476 573.751 701.935C573.873 700.72 573.312 697.936 570.092 696.52C566.598 694.344 560.113 689.863 562.133 689.35ZM397.917 629.028C447.436 626.731 527.043 624.117 545.868 627.473C548.611 627.962 549.229 630.515 547.474 632.679C544.043 636.909 537.42 642.425 526.941 645.132C511.651 646.578 472.383 648.876 433.38 647.017C430.025 646.857 426.689 647.473 423.453 648.373C414.288 650.923 397.001 653.478 373.95 651.213C368.25 650.653 362.49 652.007 357.875 655.399C342.664 666.575 320.063 683.572 313.497 689.995C317.123 687.839 324.727 683.457 326.131 683.177C327.359 683.701 331.184 683.805 336.658 680.03C341.308 676.143 352.816 668.313 361.653 668.081C371.003 669.24 390.458 671.209 393.482 669.819C388.805 674.132 380.288 682.716 376.679 688.658C375.207 691.083 374.605 693.933 373.294 696.448C370.829 701.176 366.215 707.804 359.201 713.009C357.309 714.413 355.178 715.443 353.013 716.372C348.21 718.434 341.552 721.468 338.689 723.401C297.712 722.017 214.026 718.4 207.103 715.001C202.458 714.572 196.063 712.196 207.644 706.128C225.826 697.049 264.773 678.126 275.115 675.063C283.73 669.672 302.222 657.817 307.272 653.52C312.096 648.643 326.141 638.72 343.733 638.041C351.612 636.622 365.614 634.033 375.847 631.964C383.132 630.491 390.492 629.372 397.917 629.028ZM355.619 686.652C351.8 688.682 348.417 691.443 345.664 694.779L336.167 706.283C333.907 709.021 331.22 711.376 328.21 713.257L315.005 721.512H317.85L330.322 714.032C333.484 712.136 336.306 709.722 338.671 706.893L347.987 695.743C350.483 692.757 353.487 690.236 356.861 688.296L381.651 674.043L380.898 673.209L355.619 686.652ZM305.208 702.741C302.796 705.077 288.128 715.505 281.094 720.427H283.103C290.404 717.757 301.719 707.914 306.464 703.325L305.208 702.741ZM462.883 681.468C462.319 687.881 461.621 701.494 463.341 704.644C465.122 707.538 470.859 714.069 479.55 717.032C478.021 718.634 472.114 719.035 460.726 707.827C459.925 705.421 458.701 696.78 460.22 681.468H462.883ZM289.597 692.337C279.669 699.557 258.865 714.64 255.077 717.212C261.074 714.328 276.65 705.711 290.974 694.316C291.72 693.656 292.489 692.337 289.597 692.337ZM439.139 681.468C438.125 685.688 431.529 695.409 413.257 700.537C407.105 703.821 391.958 711.691 380.583 716.896L379.303 714.169L409.411 700.537C414.472 694.054 427.503 681.163 439.139 681.468ZM589.41 694.537C616.102 705.797 617.84 711.007 615.373 712.204C604.662 709.753 593.601 699.405 589.41 694.537ZM264.779 699.577C261.746 701.355 258.314 702.343 254.8 702.45L248.582 702.64C246.383 702.707 244.208 703.119 242.137 703.862L228.821 708.634C231.321 708.349 235.902 707.624 239.804 706.504C243.222 705.523 246.697 704.455 250.251 704.335L254.884 704.18C258.345 704.064 261.723 703.093 264.718 701.355L274.791 695.511C274.992 695.113 275.066 694.316 273.758 694.316L264.779 699.577ZM633.589 697.883C642.17 698.803 658.572 701.883 655.527 706.848C653.798 708.766 646.989 709.657 633.589 697.883ZM330.661 694.316C327.847 696.385 313.357 703.632 306.464 706.996L307.887 707.663C323.494 702.124 330.465 696.457 332.001 694.316H330.661ZM537.971 690.497C551.593 691.247 559.26 702.096 561.39 707.427C555.329 698.947 543.252 692.607 537.971 690.497ZM427.233 659.894C427.006 660.976 422.641 665.143 406.993 673.157C404.412 674.782 399.386 679.817 399.929 686.963C407.304 683.478 425.222 676.04 437.888 674.166L438.057 674.875C425.625 678.005 399.862 686.808 396.269 696.978C395.402 699.014 393.29 702.921 391.779 702.257C392.051 693.534 395.746 674.835 408.351 669.819C409.166 669.819 426.184 661.383 427.233 659.894ZM624.522 678.231C626.737 682.203 638.917 687.298 644.73 689.35C632.384 688.315 626.114 681.506 624.522 678.231ZM351.76 657.164C343.8 657.517 335.081 660.861 329.113 663.788C325.545 665.539 322.436 668.086 319.201 670.395C310.042 676.932 291.829 687.818 290.974 687.915C292.076 688.61 293.591 688.566 294.211 688.456C301.615 685.731 317.655 674.163 324.749 668.72C330.644 664.115 345.213 659.987 351.76 658.499V657.164ZM537.971 647.526C534.049 640.975 556.213 654.907 567.785 662.692C602.15 679.246 610.259 685.377 610.017 686.373C602.04 681.405 578.539 669.887 567.785 664.748C557.813 662.846 543.754 652.474 537.971 647.526ZM510.582 667.126C519.101 668.202 525.038 670.242 526.941 671.128C535.689 674.728 533.806 678.525 531.771 679.974C528.037 681.408 524.195 678.182 522.741 676.39C520.475 673.95 513.691 669.197 510.582 667.126ZM586.073 654.315C585.884 653.162 586.522 653.834 586.864 654.315C591.325 660.03 596.475 663.379 598.493 664.34C600.332 664.214 605 665.254 607.103 665.789C626.044 673.03 620.003 674.508 614.614 674.342C600.193 671.434 589.578 659.779 586.073 654.315ZM523.93 654.977C539.561 658.038 546.613 666.546 548.185 670.417C544.142 665.64 530.331 658.133 523.93 654.977Z" fill="url(#paint52_linear_1147_1022)"/>
<path d="M482.357 659.336C472.784 661.124 456.306 655.734 449.263 652.815C447.67 652.815 448.06 653.937 448.453 654.498C463.122 662.889 477.74 662.076 483.216 660.62L482.357 659.336Z" fill="url(#paint53_linear_1147_1022)"/>
<path d="M482.357 710.912C482.357 717.49 480.682 724.85 479.844 727.707H483.216V726.833C485.914 720.534 483.767 713.595 482.357 710.912Z" fill="url(#paint54_linear_1147_1022)"/>
<path d="M509.16 692.596C518.894 697.689 540.385 708.786 548.477 712.427C544.02 708.146 529.916 698.188 509.16 692.596Z" fill="url(#paint55_linear_1147_1022)"/>
<path d="M606.445 695.325C599.165 692.175 556.634 682.355 555.819 682.355V684.115C571.852 687.808 594.191 695.57 603.357 698.989C607.475 699.165 607.131 696.62 606.445 695.325Z" fill="url(#paint56_linear_1147_1022)"/>
<path d="M639.216 680.435C636.517 678.899 625.553 669.066 620.409 664.342C622.421 662.623 633.909 674.273 639.621 680.067L647.003 690.985C657.397 700.197 665.824 707.9 668.289 710.761C662.489 709.045 652.281 698.125 647.902 692.88C645.777 690.076 641.226 683.415 639.216 680.435Z" fill="url(#paint57_linear_1147_1022)"/>
<path d="M681.198 693.897C687.276 698.831 700.35 708.78 704.024 709.103C699.522 704.662 688.654 695.404 681.198 693.897Z" fill="url(#paint58_linear_1147_1022)"/>
<path d="M681.192 694.016C686.434 696.05 698.275 701.849 703.711 708.777C697.351 705.208 683.942 697.26 681.192 694.016Z" fill="#B16C46"/>
</g>
<path d="M182.541 284.846C193.115 271.333 194.879 285.775 194.44 294.686C199.963 294.023 194.44 301.472 194.44 302.005C199.644 307.86 194.593 312.905 191.416 314.696C192.059 318.175 186.744 319.045 184.006 319.045C180.434 326.855 173.47 324.134 170.434 321.796C168.648 324.495 164.333 322.388 162.398 320.998C157.612 325.187 151.118 321.027 148.469 318.424C140.255 311.75 145.404 305.466 149.005 303.158C141.433 299.182 145.493 292.153 148.469 289.135C154.969 280.828 159.154 285.319 160.434 288.603C161.077 287.396 163.202 289.106 164.184 290.112C162.398 286.453 164.928 284.386 166.416 283.81C165.63 276.639 171.505 273.367 174.541 272.627C181.827 270.852 181.652 280.034 180.653 284.846C181.257 284.146 182.164 284.554 182.541 284.846Z" fill="url(#paint59_linear_1147_1022)"/>
<path d="M389.411 39.6278C374.383 43.2874 374.611 55.1813 376.603 60.6707C360.209 57.0111 356.68 75.6143 356.965 85.3733C350.134 77.3221 337.042 88.728 331.35 95.4373C297.196 99.097 304.596 110.381 312.565 115.565C305.735 115.565 305.166 125.934 305.735 131.119C293.44 150.881 310.858 163.141 321.104 166.8C321.104 187.294 342.165 188.758 352.696 186.928C385.141 186.014 369.772 160.396 369.772 157.651C375.237 165.702 385.141 162.836 389.411 160.396C406.487 162.592 415.31 145.452 417.587 136.608C418.27 153.443 436.656 149.112 445.764 144.843C449.862 160.213 458.286 156.126 461.986 152.162C477.014 171.192 489.878 160.091 494.432 152.162C506.386 150.332 507.24 140.268 507.24 136.608C519.535 145.391 528.87 132.949 532.001 125.629C542.247 144.66 551.07 140.878 554.201 136.608C565.13 153.443 572.985 149.112 575.546 144.843C617.214 159.481 627.63 131.424 627.63 115.565C637.193 78.9689 613.4 66.7701 600.308 65.2453C608.504 54.9983 600.877 48.7769 596.038 46.947C596.038 23.5253 580.669 24.3793 572.985 27.734C570.936 15.2912 561.316 19.4997 556.762 23.1594C545.15 -9.77744 518.909 -0.323326 507.24 8.52083C482.649 -13.437 465.117 12.1805 459.425 27.734C451.228 21.8785 445.194 27.7339 443.202 31.3936C419.295 9.43571 392.826 39.6278 389.411 39.6278Z" fill="url(#paint60_linear_1147_1022)"/>
<path d="M314.273 89.033C313.59 83.9094 308.296 86.8982 305.735 89.033C304.027 92.6925 304.027 92.6926 307.442 95.4371L307.442 95.4373C310.858 98.1821 315.127 95.4373 314.273 89.033Z" fill="url(#paint61_linear_1147_1022)"/>
<path d="M389.411 31.3936C394.192 29.1978 389.695 24.3793 386.849 22.2444C379.165 16.7549 374.042 29.5637 375.749 32.3085C377.457 35.0532 383.434 34.1383 389.411 31.3936Z" fill="url(#paint62_linear_1147_1022)"/>
<path d="M401.364 19.4997C397.949 15.8401 402.787 13.7053 405.633 13.0953C413.318 11.2655 411.61 19.4997 409.903 22.2444C408.195 24.9892 405.633 24.0743 401.364 19.4997Z" fill="url(#paint63_linear_1147_1022)"/>
<g filter="url(#filter2_n_1147_1022)">
<path d="M662.816 356.749C648.042 364.764 645.468 342.279 646.027 330.035C634.245 312.711 649.574 298.528 658.711 293.602C652.719 268.86 669.472 260.567 678.597 259.514C678.597 221.769 716.452 225.49 735.379 232.069C741.023 227.281 750.047 232.786 753.854 236.137C761.077 226.198 773.171 228.446 778.315 230.812C790.744 235.657 791.262 245.635 789.967 250.019C792.151 249.515 794.027 252.317 794.692 253.781C793.432 247.851 800.256 247.134 803.825 247.517C795.762 235.573 803.545 230.777 808.444 229.873C817.178 227.868 816.773 240.8 815.478 247.517C817.829 240.079 822.686 240.59 824.821 241.775C830.784 248.206 822.336 251.136 817.367 251.797C819.971 255.138 820.257 256.534 820.075 256.814C830.863 244.797 839.794 247.277 842.91 250.019C852.404 260.891 846.866 268.497 842.91 270.94C849.383 275.947 849.084 281.372 848.125 283.458C859.201 281.169 864.128 286.319 865.206 289.18C878.872 312.641 857.532 326.801 845.154 330.949C848.052 331.978 846.936 335.266 846.016 336.781C853.813 333.694 856.682 337.039 857.142 339.097C857.487 344.792 852.226 345.53 849.552 345.187C850.242 346.491 849.84 347.617 849.552 348.017C856.314 346.851 855.647 354.279 854.468 358.138C846.948 368.843 839.852 362.951 837.244 358.667C833.143 363.707 826.092 360.012 823.078 357.534C826.723 364.387 823.458 367.421 821.37 368.082C816.131 369.554 814.197 363.896 813.886 360.882C808.219 363.258 803.008 359.117 801.111 356.749C800.751 360.797 793.396 361.571 789.764 361.452C777.949 363.1 775.656 355.63 775.986 351.69C773.176 363.225 763.469 357.332 758.966 352.944C761.415 365.195 749.661 366.527 743.477 365.661C743.981 367.094 742.726 368.109 742.036 368.437C748.88 367.505 750.831 373.542 750.951 376.677C751.744 372.951 754.583 374.706 755.904 376.05C758.977 379.034 755.866 381.384 753.882 382.209C755.325 381.646 756.502 383.875 757.065 385.483C756.467 382.562 760.685 379.922 763.018 378.915C761.073 375.978 763.289 374.467 764.639 374.079C769.322 372.431 769.532 376.617 769.052 378.915C788.233 392.528 766.08 399.693 764.639 400.828C777.607 404.601 777.607 408.569 775.986 410.082C771.736 415.742 765.09 410.888 762.298 407.753C759.344 419.073 753.503 412.47 750.951 407.753C740.433 413.293 737.503 406.897 737.353 403.007C735.768 403.925 734.712 402.314 734.382 401.395C730.563 405.98 726.307 402.927 724.656 400.828C722.913 404.338 717.733 403.42 714.611 402.264C715.334 403.205 714.359 405.559 713.617 406.877C709.904 408.964 707.226 404.401 706.352 401.859C706.513 405.622 703.459 406.772 701.911 406.877C702.557 414.654 699.355 417.611 697.673 418.117C688.631 418.92 693.905 409.218 697.673 404.267C695.251 404.589 693.796 402.108 693.371 400.828C683.432 408.308 676.023 401.496 673.561 397.154C666.039 385.667 681.172 380.569 689.678 379.456C677.321 379.189 677.142 371.999 678.597 368.437C664.092 374.848 662.032 363.317 662.816 356.749Z" fill="url(#paint64_linear_1147_1022)"/>
<path d="M711.532 415.643C711.245 408.513 716.431 410.295 719.06 412.078C724.222 415.538 722.645 419.462 721.211 420.991C716.049 423.29 712.608 418.384 711.532 415.643Z" fill="url(#paint65_linear_1147_1022)"/>
</g>
<g filter="url(#filter3_n_1147_1022)">
<path d="M314.434 348.124C297.484 365.624 291.908 333.965 292.912 332.73C256.311 318.445 294.187 276.72 317.7 257.643C332.853 200.845 395.883 222.598 425.504 240.573C461.408 206.991 483.508 233.724 490.07 251.288C503.729 220.927 539.438 240.214 555.585 253.652C571.001 239.452 591.54 257.186 599.883 267.827C677.56 246.484 700.377 288.223 702.076 311.76C713.275 338.322 665.796 352.801 640.657 356.72C621.795 365.19 613.573 355.531 611.82 349.642C601.673 354.093 597.863 346.029 597.226 341.441C592.361 342.888 588.719 340.457 587.506 339.061C586.176 354.271 574.962 351.434 569.521 348.115C570.023 361.904 557.015 354.451 556.302 354.425C549.755 361.788 545.969 354.6 544.895 350.086C539.177 353.439 534.933 350.519 533.526 348.641C536.062 360.642 523.145 362.019 516.369 361.207C520.08 365.977 514.873 368.378 511.805 368.982C501.788 368.053 500.069 361.895 500.461 358.931C490.807 366.942 487.012 359.755 486.321 355.16C471.4 350.879 470.074 341.199 471.276 336.895C458.826 343.251 454.724 332.706 454.229 326.639C452.501 329.132 449.673 328.823 447.374 327.855C452.835 332.913 449.633 346.167 446.999 352.908C453.083 367.887 435.309 368.265 425.662 366.582C412.114 362.236 417.307 352.926 421.598 348.814C419.27 349.493 417.935 346.881 417.558 345.491C413.531 350.684 409.489 347.424 407.972 345.145C397.764 351.385 394.239 344.437 393.752 340.183C391.597 343.156 386.676 341.198 384.485 339.848C381.088 348.877 375.788 344.407 373.563 341.043C367.473 346.67 359.347 341.907 356.045 338.822C354.081 350.699 347.664 346.463 344.701 342.861C349.064 349.628 342.493 350.831 338.663 350.587C334.097 356.523 333.314 353.995 333.493 351.989C325.822 358.83 317.591 352.263 314.434 348.124Z" fill="url(#paint66_linear_1147_1022)"/>
</g>
<g filter="url(#filter4_n_1147_1022)">
<path d="M520.41 150.828C516.981 137.18 528.166 138.439 534.187 140.774C528.812 137.534 530.377 133.379 531.832 131.707C517.86 129.118 519.047 119.952 521.387 115.693C526.866 109.632 535.085 118.218 538.509 123.269C535.77 105.479 550.152 105.24 557.686 107.345C557.138 101.212 562.708 98.5426 565.562 97.9747C575.972 88.0253 581.542 95.7599 583.026 100.871C585.218 98.2813 588.848 99.7919 590.389 100.871L591.416 95.2488C597.443 75.9861 610.119 80.6206 615.704 85.3457C618.764 75.3415 627.999 77.2808 632.233 79.5009C646.55 74.1726 655.411 84.9832 658.052 91.0546C665.921 86.4874 671.986 89.1516 674.035 91.0546C682.858 99.6194 675.897 109.677 671.117 113.835C672.445 112.878 673.604 115.235 674.035 116.609C677.314 108.562 683.689 108 686.466 108.725C690.728 112.096 682.231 119.826 677.45 123.269C681.166 122.29 685.009 125.127 686.466 126.667V123.269C690.182 110.329 699.581 115.249 703.815 119.327C712.34 111.824 722.394 121.094 726.355 126.667C737.83 139.825 734.051 149.276 730.727 152.357C744.606 167.255 731.046 174.06 722.53 175.6C732.913 178.102 731.774 186.339 729.907 190.145C737.229 182.75 741.428 187.064 742.612 190.145C768.403 188.078 761.737 207.86 755.179 218.009C765.78 225.73 758.595 233.913 753.677 237.039C762.201 254.872 740.836 259.965 729.088 260.282C732.148 273.514 722.257 276.035 716.93 275.642C710.263 293.04 700.036 281.985 695.756 274.283C684.499 285.809 674.035 272.561 670.21 264.496C660.593 269.157 657.46 262.554 657.096 258.67C649.227 268.037 639.847 262.573 636.14 258.67C628.547 264.032 616.648 259.685 611.647 256.842C600.135 261.96 599.911 250.242 601.237 243.743C595.604 252.516 571.948 247.398 560.824 243.743C536.82 249.592 527.145 236.228 525.308 228.815C498.366 234.421 488.568 207.389 487.038 193.172C470.872 175.138 493.773 167.786 507.245 166.364C505.04 156.128 515.103 151.741 520.41 150.828Z" fill="url(#paint67_linear_1147_1022)"/>
</g>
<path d="M725.619 237.589C729.427 238.657 735.44 242.433 736.807 251.485C740.481 251.954 746.561 255.028 741.495 263.563C743.01 264.959 745.928 268.965 745.488 273.827C750.168 270.766 760.576 268.074 764.761 281.796C771.645 279.05 784.778 277.096 782.245 291.25C787.252 300.891 788.467 321.638 753.267 327.502C744.32 334.38 720.559 344.008 697.093 327.502C693.495 331.484 683.81 337.818 673.848 331.303C669.144 334.742 657.853 338.796 650.326 327.502C646.176 332.66 636.38 339.121 630.402 323.702C624.038 330.398 608.431 338.958 596.919 319.63C593.414 316.462 588.507 309.531 596.919 307.142C580.039 305.423 555.3 295.089 591.384 267.507C570.17 265.181 531.93 253.376 548.687 224.769C551.679 224.769 563.435 188.743 596.919 219.432C593.354 210.981 591.829 195.361 614.244 200.485C617.508 200.485 634.373 177.268 659.127 198.35C665.565 193.724 681.869 187.249 695.578 198.35C701.019 199.862 712.607 205.609 715.436 216.496C720.332 211.782 733.825 204.061 748.623 210.892C752.288 212.584 754.595 212.752 754.595 224.619C755.393 230.992 749.633 242.431 725.619 237.589Z" fill="url(#paint68_linear_1147_1022)"/>
<g filter="url(#filter5_n_1147_1022)">
<path d="M192.752 296.646C187.532 272.305 209.58 271.629 221.257 274.334C224.319 265.533 229.21 268.815 231.272 271.556C232.205 269.334 235.804 270.63 237.486 271.556C239.472 262.371 249.101 264.738 253.667 267.07C254.472 262.93 259.29 265.345 261.599 267.07C268.749 257.97 280.524 263.278 285.518 267.07C306.197 261.259 311.826 278.045 312.056 287.165C338.011 299.623 327.408 322.5 318.862 332.38C317.169 337.498 311.608 336.298 309.039 335.058C322.217 344.698 312.106 354.06 305.404 357.536C309.288 367.944 301.089 373.776 296.504 375.391C297.111 389.728 280.644 390.558 279.612 391.744C280.162 396.551 273.529 399.358 270.143 400.161C270.143 408.764 266.899 413.167 265.276 414.293C270.131 413.446 268.631 419.788 267.274 423.064C265.369 426.331 261.41 423.115 259.669 421.099C259.423 424.425 256.801 424.854 255.521 424.652C249.437 422.717 252.986 415.629 255.521 412.327C247.901 419.949 240.323 418.035 237.486 416.125C230.73 408.851 236.783 406.181 240.653 405.756C238.618 400.265 247.127 397.588 252.117 396.846C242.928 398.007 242.386 392.409 243.293 389.407C239.07 390.583 239.158 385.8 239.73 383.261C235.824 387.927 230.713 384.686 228.645 382.482C224.95 387.885 222.355 384.733 221.52 382.482C219.092 383.625 217.781 382.005 217.429 381.053C217.218 387.392 212.272 389.263 209.825 389.407C207.693 397.59 200.588 395.614 197.302 393.604C197.161 396.173 192.28 397.231 189.806 397.446C191.102 397.361 191.082 399.212 190.907 400.161C196.023 405.616 187.828 408.845 183.091 409.778C178.26 415.443 173.321 412.138 171.456 409.778C171.243 412.016 168.289 411.934 166.838 411.614C160.088 410.355 160.591 406.251 161.687 404.357C160.123 404.357 159.673 403.774 159.644 403.483C159.217 407.12 156.742 408.087 155.558 408.117C151.508 410.844 148.838 406.164 148.009 403.483C147.298 404.322 146.114 403.833 145.611 403.483C140.14 411.037 131.311 408.146 127.581 405.756C117.989 396.104 127.019 390.427 132.733 388.795C132.306 387.046 134.331 386.026 135.397 385.735C133.905 382.937 137.558 379.032 139.571 377.429C134.029 379.318 132.703 374.311 132.733 371.572C126.48 369.194 130.897 364.519 133.887 362.479C129.553 358.842 132.081 354.785 133.887 353.212C138.008 346.707 142.236 350.035 143.835 352.512C143.764 349.435 147.18 348.84 148.897 348.928C144.563 345.221 147.091 341.963 148.897 340.797C142.591 327.245 161.338 318.099 161.064 318.432C168.272 309.498 177.87 310.023 181.596 311.529C179.861 302.397 187.714 301.976 191.857 302.907C190.189 301.199 191.759 298.021 192.752 296.646Z" fill="url(#paint69_linear_1147_1022)"/>
<path d="M121.324 418.407C113.749 413.41 118.168 411.796 121.324 411.614C123.41 411.002 127.581 410.83 127.581 415.038C127.581 419.246 123.41 419.037 121.324 418.407Z" fill="url(#paint70_linear_1147_1022)"/>
<path d="M123.263 352.512C117.514 349.027 122.085 346.403 125.089 345.527C127.553 345.527 128.093 347.794 128.055 348.928C128.433 353.086 125.018 353.05 123.263 352.512Z" fill="url(#paint71_linear_1147_1022)"/>
</g>
<g filter="url(#filter6_n_1147_1022)">
<path d="M341.773 141.743C356.945 136.754 365.354 146.395 367.662 151.839C374.738 151.839 372.892 156.805 371.085 159.288C376.133 160.809 374.278 166.948 372.72 169.827C380.674 171.967 379.649 182.482 378.143 187.472C377.239 213.439 351.629 216.487 351.629 219.162C356.45 240.799 333.15 248.44 320.898 249.556C319.933 278.626 287.651 276.417 271.631 271.678C262.689 278.473 257.281 269.746 255.695 264.534C254.459 262.021 255.18 259.798 255.695 259.001C250.333 260.229 247.556 250.461 246.838 245.423C243.678 254.207 239.776 251.838 238.22 249.556C236.209 255.317 228.366 253.688 224.695 252.153C226.036 260.276 216.61 260.103 211.729 259.001C206.144 269.013 201.449 262.149 199.8 257.466C192.424 256.994 191.141 251.996 191.422 249.556C188.741 242.566 194.773 240.819 198.124 240.819C194.294 234.963 203.792 230.133 209.02 228.45C207.418 226.342 206.923 225.403 206.856 225.057C205.771 228.04 201.05 229.746 198.785 230.232C188.43 234.508 190.055 228.45 192.162 224.887C186.382 226.787 185.339 219.146 185.54 215.088C173.74 216.038 174.602 205.783 176.509 200.537C182.77 187.947 189.553 196.479 192.162 202.319C192.644 199.943 195.373 201.329 196.678 202.319C195.955 194.955 201.193 189.352 203.902 187.472C186.082 175.832 201.695 158.866 211.729 151.839C216.786 142.812 227.884 145.108 232.801 147.385C242.88 141.861 241.936 147.04 239.898 150.977C240.866 150.15 242.876 151.113 243.939 151.839C244.662 143.287 250.261 140.357 252.97 139.961C245.264 134.735 249.759 133.23 252.97 133.131C260.436 129.568 261.098 136.2 260.496 139.961C264.59 137.11 268.021 138.773 269.225 139.961C276.691 125.945 285.581 132.538 289.093 137.586C303.302 136.635 298.626 144.712 294.512 148.869C298.606 146.494 301.311 150.442 303.619 152.421C304.82 154.431 306.493 158.015 305.048 151.839C303.603 145.662 311.068 143.722 314.982 143.524C325.819 129.271 337.358 136.398 341.773 141.743Z" fill="url(#paint72_linear_1147_1022)"/>
<path d="M173.348 224.887C175.901 219.313 182.846 223.77 185.999 226.695C188.276 229.76 184.897 231.639 182.923 232.195C173.171 233.136 172.476 227.715 173.348 224.887Z" fill="url(#paint73_linear_1147_1022)"/>
</g>
<g filter="url(#filter7_n_1147_1022)">
<path d="M363.916 276.227C345.145 304.576 309.167 293.135 293.525 283.87C284.545 291.458 276.509 284.805 273.614 280.53C267.027 288.136 255.102 282.056 249.962 278.064C238.825 281.008 236.639 274.595 236.939 271.021C236.819 260.741 244.373 257.179 248.165 256.683C243.099 253.764 244.106 251.236 245.242 250.337C234.202 244.752 238.477 239.865 241.995 238.12C242.385 233.678 249.842 231.932 253.522 231.615C244.14 217.019 254.817 205.075 261.329 200.927C260.4 197.634 263.556 193.973 265.251 192.553C253.05 186.762 260.167 180.867 265.251 178.644C263.973 171.717 268.785 165.065 271.351 162.605C276.463 153.408 284.423 153.569 287.763 154.799C292.759 143.898 299.915 147.797 302.868 151.108C300.893 138.278 315.02 139.801 322.331 142.167C318.961 137.398 320.927 133.745 322.331 132.515C328.489 124.567 334.87 129.203 337.29 132.515C339.149 130.358 346.295 131.616 349.636 132.515C348.59 115.937 357.431 119.646 361.981 123.573C362.33 122.551 364.583 122.221 365.666 122.184C360.504 116.218 364.533 113.229 367.192 112.481C371.021 110.23 375.17 114.713 376.766 117.235C379.707 114.71 381.589 114.888 382.162 115.293C393.859 98.2978 398.733 106.337 399.707 112.481C400.569 109.99 406.018 111.443 408.634 112.481C402.478 101.41 412.841 96.4068 418.792 95.2892C428.15 95.2892 433.207 106.75 434.565 112.481C436.972 108.168 442.207 110.684 444.523 112.481C453.006 106.152 457.323 115.118 458.422 120.392C469.311 115.631 470.709 123.963 470.046 128.723C472.507 128.243 475.172 133.732 476.197 136.538C485.055 131.248 489.934 138.742 491.267 143.149C493.727 141.226 500.288 143.951 503.261 145.554C501.047 140.745 505.671 137.539 508.26 136.538C506.109 128.603 515.308 126.419 520.176 126.319C529.709 124.876 535.425 136.938 537.091 143.149C540.914 150.909 524.213 163.388 520.589 164.157C524.674 164.003 525.712 168.472 525.712 170.799C528.665 175.127 523.252 181.819 520.176 184.624C524.851 193.521 514.18 199.511 508.26 201.394C517.845 227.931 489.624 240.203 474.316 243.021C479.108 271.119 436.135 278.091 414.049 278.064C398.964 293.503 374.341 283.273 363.916 276.227Z" fill="url(#paint74_linear_1147_1022)"/>
</g>
<path d="M507.265 138.628C509.908 137.826 516.012 137.18 519.275 141.008C519.895 137.207 522.798 130.166 529.46 132.414C531.559 125.353 538.935 114.329 551.642 126.719C553.31 122.944 557.772 116.566 562.273 121.258C563.32 114.345 567.878 102.661 577.741 111.233C577.702 112.794 577.176 117.049 575.384 121.584C578.706 121.667 585.709 124.235 587.15 133.847C587.205 134.217 587.257 134.566 587.306 134.894C590.528 135.049 597.188 137.265 599.465 145.083C606.404 154.45 615.491 180.144 596.328 207.982C579.213 220.915 536.736 240.851 503.739 217.131C492.065 215.279 468.572 208.97 467.992 198.547C465.22 183.384 466.578 154.064 494.187 158.081C492.887 154.058 491.547 146.045 496.582 146.17C498.155 146.209 493.26 132.034 507.265 138.628Z" fill="url(#paint75_linear_1147_1022)"/>
<g filter="url(#filter8_n_1147_1022)">
<path d="M413.461 370.544C462.876 407.805 483.264 437.655 487.282 447.922L499.334 465.2L478.243 506.518L472.216 497.504C472.216 432.596 425.011 395.836 401.409 385.569C391.767 383.165 355.208 375.051 338.134 371.295C330.3 367.088 315.786 367.539 309.509 368.29C305.291 373.098 288.669 376.804 280.885 378.056C279.077 382.864 267.577 389.575 262.053 392.33C259.642 391.729 250.001 394.083 245.481 395.335L244.728 393.832C246.535 392.029 256.529 390.577 261.3 390.076C267.326 388.273 274.859 380.811 277.872 377.305C273.653 375.502 260.546 376.053 254.52 376.554L253.014 375.051C257.835 373.849 274.105 374.05 281.638 374.3C290.677 374.3 300.47 367.789 304.236 364.534C298.21 360.928 266.573 360.026 251.507 360.026C238.249 358.223 227.402 357.773 223.636 357.773C194.71 365.586 179.946 363.532 176.18 361.529C194.258 363.933 212.337 357.522 219.116 354.016C193.204 350.41 184.717 345.502 183.712 343.499C207.215 351.913 239.706 355.519 253.014 356.27C229.511 347.255 221.627 337.99 220.623 334.484C229.06 344.1 251.256 352.514 261.3 355.519C279.378 354.317 292.937 355.519 297.457 356.27C305.893 359.876 319.553 361.278 325.328 361.529C322.315 360.327 303.985 348.006 295.197 341.997C277.118 338.992 267.577 331.73 265.066 328.474C271.695 334.484 286.409 337.99 292.937 338.992C285.103 334.785 281.638 327.222 280.885 323.967C288.719 336.588 316.289 352.264 329.094 358.524C341.749 366.938 380.066 371.545 397.642 372.797C382.577 350.561 361.736 330.978 353.199 323.967C339.03 319.76 312.142 296.171 300.47 284.902C295.755 282.813 271.734 275.274 260.578 271.885C258.759 271.444 257.205 271.02 256.027 270.629C253.273 269.713 255.692 270.401 260.578 271.885C269.922 274.152 286.247 276.883 294.444 278.141L271.845 257.858L298.21 278.141C295.8 275.737 287.664 257.106 283.898 248.091C305.592 291.964 336.627 309.944 349.433 313.449C326.533 284.602 322.817 254.352 323.821 242.833C323.821 268.074 348.931 306.939 361.485 323.216C352.446 288.358 353.701 254.101 355.459 241.33C354.254 255.153 358.974 287.657 361.485 302.181C365.703 336.437 397.893 362.03 413.461 370.544Z" fill="url(#paint76_linear_1147_1022)"/>
</g>
<g filter="url(#filter9_n_1147_1022)">
<g filter="url(#filter10_n_1147_1022)">
<path d="M509.03 487.045C503.921 476.82 485.525 424.641 480.416 399.83L487.317 496.819C460.75 559.373 448.367 619.075 492.947 640.127H520.227L517.079 639.08C483.871 624.644 489.02 589.547 495.619 573.508C516.566 533.81 513.288 499.325 509.03 487.045Z" fill="#C39E97"/>
</g>
<g filter="url(#filter11_n_1147_1022)">
<path d="M609.885 183.969C624.903 172.577 636.167 146.743 639.922 135.251H641.424C642.024 137.05 636.167 153.989 633.163 162.233C637.969 161.553 648.682 150.957 653.438 145.744L655.691 147.243C655.09 150.241 634.916 165.981 624.903 173.476C636.334 174.675 649.691 168.479 654.94 165.231L656.442 166.73C655.841 170.328 636.167 175.225 626.405 177.224C620.398 178.423 608.383 189.716 603.127 195.212C589.31 206.605 572.84 233.937 566.332 246.179C572.339 242.581 597.87 242.182 609.885 242.432C626.105 244.23 638.67 234.187 642.925 228.94L645.178 230.439C641.423 233.728 633.764 240.281 633.163 240.183C646.98 242.581 659.946 236.685 664.702 233.437V235.686C660.497 243.481 615.392 248.927 593.365 250.676C548.31 257.872 517.522 300.644 507.76 321.131C480.126 363.703 482.729 406.326 487.485 422.316C506.108 479.878 491.74 529.746 482.229 547.485C449.939 602.949 490.053 630.633 500.816 640.127L372.594 640.425C373.796 636.228 391.618 628.682 400.378 625.435C417.199 624.235 422.405 609.445 422.906 602.2C431.316 572.219 441.429 558.728 445.434 555.73C463.456 542.538 468.962 511.258 469.463 497.267C471.866 485.275 463.956 441.303 459.701 420.817C455.496 410.623 457.448 385.09 458.95 373.597C471.566 348.413 431.166 278.159 409.389 246.179C403.983 244.38 380.104 227.941 368.84 219.946V216.948C372.444 222.944 394.872 233.937 405.635 238.684C402.631 235.086 387.863 199.709 380.855 182.47C389.866 202.857 428.162 264.917 446.185 293.399C447.987 279.608 440.928 241.682 437.173 224.443C434.771 212.451 425.659 191.464 421.404 182.47C415.397 173.476 386.862 161.734 373.345 156.987V153.989C374.547 155.787 392.869 162.233 401.88 165.231C392.269 158.036 383.858 122.759 380.855 106.02L383.107 106.769C390.917 144.545 401.38 161.983 405.635 165.981C410.441 172.577 418.15 174.226 421.404 174.226C421.404 171.227 409.389 147.493 403.382 136C413.595 146.793 432.668 190.965 440.928 211.701C440.327 197.311 447.186 178.723 450.69 171.227C456.697 162.833 459.2 141.247 459.701 131.503C460.903 136.9 459.2 156.737 458.199 165.981C464.207 153.389 475.22 143.745 479.976 140.497V142.746C465.558 150.541 454.445 178.972 450.69 192.214C448.287 242.581 455.196 283.655 458.95 297.896C460.152 308.089 470.965 337.12 476.221 350.362C506.859 314.385 508.511 255.423 505.507 230.439C509.112 256.822 508.511 286.403 507.76 297.896C531.189 287.702 564.579 235.686 578.346 210.952C583.753 207.354 585.605 185.968 585.855 175.725C583.453 157.736 586.857 151.24 588.859 150.241C585.855 153.989 588.108 168.229 588.108 169.728C590.511 179.922 588.108 196.961 586.606 204.206L588.859 201.958C609.284 186.967 616.893 156.237 618.145 142.746L618.896 143.495C620.097 147.693 613.389 172.227 609.885 183.969Z" fill="url(#paint77_linear_1147_1022)"/>
</g>
</g>
<g filter="url(#filter12_n_1147_1022)">
<path d="M504.005 507.524C497.998 481.22 534.042 441.763 552.815 425.323C522.778 429.507 501.752 474.394 494.994 496.315L504.005 507.524Z" fill="#B3948D"/>
<path d="M481.478 488.095C487.485 476.636 503.404 450.88 519.023 439.521C532.54 428.062 555.518 395.73 539.298 358.067L534.793 345.363L519.023 330.417L520.525 328.922L534.042 340.879L532.54 325.186L538.547 343.868L550.562 369.276C556.319 354.081 569.485 320.403 576.093 307.251L578.346 309.493C571.838 323.193 559.123 351.939 560.324 357.319C569.085 352.587 587.357 341.327 590.361 334.153C591.112 337.641 586.606 347.754 562.577 360.308C558.572 365.29 551.313 378.094 554.317 389.453C553.566 396.178 551.013 410.825 546.808 415.608C565.08 408.882 609.885 382.129 642.925 328.922L643.676 329.67C635.166 344.117 616.192 374.507 608.383 380.485C618.896 376.749 641.123 367.931 645.929 362.55C653.939 352.337 670.859 329.969 674.464 322.197L676.717 322.944C669.207 334.652 654.039 358.664 653.438 361.056L682.724 349.099C689.482 341.128 703.75 324.738 706.753 322.944L709.006 323.691C702.248 330.666 688.731 345.064 688.731 346.857C702.498 344.865 731.083 339.833 735.288 335.648C740.545 329.67 752.259 315.023 757.065 304.262H758.567C755.933 310.22 750.229 322.287 747.636 324.892L767.578 307.251L769.08 309.493C760.069 316.966 741.896 332.36 741.296 334.153C751.308 333.406 773.285 329.969 781.094 322.197L782.596 322.944C779.592 326.182 767.127 333.855 741.296 338.637C708.756 348.103 643.526 368.379 642.925 373.76L640.672 376.002C649.683 376.5 668.306 378.094 670.709 380.485C680.721 376.998 701.347 370.322 703.75 371.518C695.49 374.009 678.969 379.439 678.969 381.233L712.761 380.485V381.98L699.995 382.727L709.006 392.442L696.991 384.222H668.456C652.437 381.98 618.445 379.588 610.636 387.958C584.103 404.648 546.808 430.02 529.536 444.752C517.271 455.214 509.262 467.918 494.994 497.809C494.243 502.542 492.741 511.559 492.741 509.766C492.741 507.972 485.232 494.571 481.478 488.095Z" fill="url(#paint78_linear_1147_1022)"/>
</g>
<g filter="url(#filter13_n_1147_1022)">
<path d="M450.377 194.037C449.876 191.277 450.677 185.886 457.88 186.395C455.287 185.713 450.878 183.63 453.99 180.75C455.553 179.235 459.309 177.777 461.834 184.065C461.962 182.645 462.944 179.993 465.852 180.75C463.652 179.488 460.017 176.072 463.078 172.511C464.736 171.532 468.282 170.275 469.2 173.079C471.209 172.226 475.533 171.545 476.757 175.636C479.117 172.921 485.481 168.495 492.063 172.511C496.623 172.1 505.991 173.95 506.986 184.634C508.261 184.507 511.214 184.975 512.821 187.854C514.447 185.675 518.561 182.095 522.004 185.202C528.892 186.875 541.328 193.044 535.971 204.333C538.235 204.775 541.864 206.815 538.267 211.437C539.51 211.532 542.246 212.308 543.241 214.657C545.377 212.131 550.703 207.951 554.912 211.437C556.442 208.027 561.015 202.42 567.06 207.27C572.561 205.472 583.561 205.355 583.561 219.27C584.276 219.495 585.61 220.526 585.22 222.845C587.79 220.912 593.457 218.883 595.565 226.227C597.224 227.998 599.157 232.45 593.613 236.083C594.557 235.793 596.58 235.677 597.127 237.533C600.455 234.992 608.174 232.929 612.421 244.996C613.883 247.282 615.514 252.63 610.344 255.738C614.191 258.328 620.547 264.605 615.191 268.994C615.73 272.053 615.171 277.661 608.619 275.619C608.065 278.651 605.36 283.184 598.974 277.06C599.19 279.716 598.419 284.545 593.613 282.614C592.089 282.673 589.183 281.645 589.756 277.06C588.609 276.637 585.871 275.112 584.093 272.393C584.38 274.522 583.82 278.795 579.289 278.852C582.277 279.964 587.419 283.295 584.093 287.724C589.255 288.695 598.46 292.239 593.986 298.656C590.426 299.413 582.974 299.096 581.655 291.77C580.962 292.646 579.318 294.226 578.286 293.545C579.098 296.124 579.447 301.083 574.343 300.288C572.765 300.383 569.511 300.004 569.109 297.733C566.671 299.271 561.868 300.586 562.155 293.545C560.076 296.148 555.086 299.99 551.759 294.539C551.568 293.498 552.061 291.004 555.559 289.357C553.528 289.475 549.293 288.846 548.605 285.382C547.601 288.955 543.587 294.666 535.557 288.931C533.287 287.985 528.89 284.928 529.463 280.271C527.981 285.761 522.566 295.419 512.759 290.138C511.588 289.546 509.274 287.554 509.389 284.317C508.887 284.317 502.65 291.841 501.646 281.123C499.639 282.874 494.262 285.041 488.813 279.704C486.352 278.473 482.634 274.664 487.451 269.269C485.48 270.545 480.966 272.186 478.684 268.546C477.6 267.813 476.433 265.234 480.427 260.777C475.725 264.858 465.75 269.754 463.467 256.697C462.912 258.816 460.868 262.708 457.127 261.327C457.972 263.498 458.268 267.824 452.689 267.761C453.402 270.58 453.18 276.568 446.586 277.961C445.53 279.112 442.751 280.049 440.088 274.587C440.357 277.027 438.717 281.465 430.007 279.704C427.773 281.709 422.728 283.744 420.413 275.843C421.225 280.09 420.535 288.327 411.276 287.302C409.043 287.604 404.103 287.046 402.215 282.402C401.477 285.719 398.456 291.718 392.277 289.182C390.816 292.545 386.813 297.747 382.491 291.653C381.673 290.33 380.527 286.97 382.491 284.118C379.709 284.549 374.405 284.667 375.453 281.687C374.798 282.146 373.227 282.789 372.179 281.687C371.77 283.634 369.658 286.361 364.486 281.687C362.44 279.553 360.476 274.669 368.987 272.206C369.396 270.637 370.791 267.599 373.226 267.221C367.79 267.588 358.198 266.665 359.657 260.132C359.384 257.864 360.623 253.601 367.759 254.703C367.249 251.645 368.03 245.449 375.118 244.765C373.591 244.826 371.18 244.074 371.606 240.523C371.606 239.794 361.785 241.657 362.603 233.798C363.04 231.583 365.157 227.185 370.133 227.315C370.133 226.91 368.66 221.076 378.563 222.615C376.571 221.616 373.308 218.45 376.189 213.783C376.653 213.027 378.612 211.854 382.737 213.216C382.628 211.433 383.359 208.095 387.156 209.002C388.056 209.029 389.906 209.553 390.103 211.433C391.085 211.028 393.147 210.461 393.54 211.433C393.933 212.405 393.976 211.838 393.949 211.433C393.294 208.03 393.818 200.575 401.151 197.982C403.879 197.361 409.303 197.285 409.172 201.952C412.5 201.385 420.123 202.001 423.986 209.002C425.077 207.165 428.405 203.573 432.988 203.897C430.315 202.52 425.77 198.338 428.978 192.634C430.151 190.149 433.921 185.925 439.618 188.906C442.264 188.275 447.196 188.417 445.756 194.037C446.899 193.532 449.424 192.825 450.377 194.037Z" fill="url(#paint79_linear_1147_1022)"/>
<path d="M600.229 285.382C597.907 285.312 593.835 285.923 596.119 288.931C598.681 290.26 603.09 291.411 600.229 285.382Z" fill="url(#paint80_linear_1147_1022)"/>
</g>
<defs>
<filter id="filter0_n_1147_1022" x="2.26172" y="625.873" width="950.896" height="275.52" filterUnits="userSpaceOnUse" color-interpolation-filters="sRGB">
<feFlood flood-opacity="0" result="BackgroundImageFix"/>
<feBlend mode="normal" in="SourceGraphic" in2="BackgroundImageFix" result="shape"/>
<feTurbulence type="fractalNoise" baseFrequency="5 5" stitchTiles="stitch" numOctaves="3" result="noise" seed="1005" />
<feColorMatrix in="noise" type="luminanceToAlpha" result="alphaNoise" />
<feComponentTransfer in="alphaNoise" result="coloredNoise1">
<feFuncA type="discrete" tableValues="1 1 1 1 1 1 1 1 1 1 1 1 1 1 1 1 1 1 1 1 1 1 1 1 1 1 1 1 1 1 1 1 1 1 1 1 1 1 1 1 1 1 1 1 1 1 1 1 1 1 1 0 0 0 0 0 0 0 0 0 0 0 0 0 0 0 0 0 0 0 0 0 0 0 0 0 0 0 0 0 0 0 0 0 0 0 0 0 0 0 0 0 0 0 0 0 0 0 0 0 "/>
</feComponentTransfer>
<feComposite operator="in" in2="shape" in="coloredNoise1" result="noise1Clipped" />
<feFlood flood-color="rgba(201, 118, 118, 0.17)" result="color1Flood" />
<feComposite operator="in" in2="noise1Clipped" in="color1Flood" result="color1" />
<feMerge result="effect1_noise_1147_1022">
<feMergeNode in="shape" />
<feMergeNode in="color1" />
</feMerge>
</filter>
<filter id="filter1_n_1147_1022" x="6.88477" y="683.323" width="279.817" height="36.5756" filterUnits="userSpaceOnUse" color-interpolation-filters="sRGB">
<feFlood flood-opacity="0" result="BackgroundImageFix"/>
<feBlend mode="normal" in="SourceGraphic" in2="BackgroundImageFix" result="shape"/>
<feTurbulence type="fractalNoise" baseFrequency="5 5" stitchTiles="stitch" numOctaves="3" result="noise" seed="1360" />
<feColorMatrix in="noise" type="luminanceToAlpha" result="alphaNoise" />
<feComponentTransfer in="alphaNoise" result="coloredNoise1">
<feFuncA type="discrete" tableValues="1 1 1 1 1 1 1 1 1 1 1 1 1 1 1 1 1 1 1 1 1 1 1 1 1 1 1 1 1 1 1 1 1 1 1 1 1 1 1 1 1 1 1 1 1 1 1 1 1 1 1 0 0 0 0 0 0 0 0 0 0 0 0 0 0 0 0 0 0 0 0 0 0 0 0 0 0 0 0 0 0 0 0 0 0 0 0 0 0 0 0 0 0 0 0 0 0 0 0 0 "/>
</feComponentTransfer>
<feComposite operator="in" in2="shape" in="coloredNoise1" result="noise1Clipped" />
<feFlood flood-color="rgba(194, 48, 48, 0.25)" result="color1Flood" />
<feComposite operator="in" in2="noise1Clipped" in="color1Flood" result="color1" />
<feMerge result="effect1_noise_1147_1022">
<feMergeNode in="shape" />
<feMergeNode in="color1" />
</feMerge>
</filter>
<filter id="filter2_n_1147_1022" x="641.75" y="227.865" width="227.865" height="193.721" filterUnits="userSpaceOnUse" color-interpolation-filters="sRGB">
<feFlood flood-opacity="0" result="BackgroundImageFix"/>
<feBlend mode="normal" in="SourceGraphic" in2="BackgroundImageFix" result="shape"/>
<feTurbulence type="fractalNoise" baseFrequency="10 10" stitchTiles="stitch" numOctaves="3" result="noise" seed="4050" />
<feColorMatrix in="noise" type="luminanceToAlpha" result="alphaNoise" />
<feComponentTransfer in="alphaNoise" result="coloredNoise1">
<feFuncA type="discrete" tableValues="1 1 1 1 1 1 1 1 1 1 1 1 1 1 1 1 1 1 1 1 1 1 1 1 1 1 1 1 1 1 1 1 1 1 1 1 1 1 1 1 1 1 1 1 1 1 1 1 1 1 1 0 0 0 0 0 0 0 0 0 0 0 0 0 0 0 0 0 0 0 0 0 0 0 0 0 0 0 0 0 0 0 0 0 0 0 0 0 0 0 0 0 0 0 0 0 0 0 0 0 "/>
</feComponentTransfer>
<feComposite operator="in" in2="shape" in="coloredNoise1" result="noise1Clipped" />
<feFlood flood-color="rgba(255, 66, 66, 0.09)" result="color1Flood" />
<feComposite operator="in" in2="noise1Clipped" in="color1Flood" result="color1" />
<feMerge result="effect1_noise_1147_1022">
<feMergeNode in="shape" />
<feMergeNode in="color1" />
</feMerge>
</filter>
<filter id="filter3_n_1147_1022" x="277.682" y="221.041" width="426.076" height="147.941" filterUnits="userSpaceOnUse" color-interpolation-filters="sRGB">
<feFlood flood-opacity="0" result="BackgroundImageFix"/>
<feBlend mode="normal" in="SourceGraphic" in2="BackgroundImageFix" result="shape"/>
<feTurbulence type="fractalNoise" baseFrequency="10 10" stitchTiles="stitch" numOctaves="3" result="noise" seed="64" />
<feColorMatrix in="noise" type="luminanceToAlpha" result="alphaNoise" />
<feComponentTransfer in="alphaNoise" result="coloredNoise1">
<feFuncA type="discrete" tableValues="1 1 1 1 1 1 1 1 1 1 1 1 1 1 1 1 1 1 1 1 1 1 1 1 1 1 1 1 1 1 1 1 1 1 1 1 1 1 1 1 1 1 1 1 1 1 1 1 1 1 1 0 0 0 0 0 0 0 0 0 0 0 0 0 0 0 0 0 0 0 0 0 0 0 0 0 0 0 0 0 0 0 0 0 0 0 0 0 0 0 0 0 0 0 0 0 0 0 0 0 "/>
</feComponentTransfer>
<feComposite operator="in" in2="shape" in="coloredNoise1" result="noise1Clipped" />
<feFlood flood-color="rgba(198, 38, 38, 0.11)" result="color1Flood" />
<feComposite operator="in" in2="noise1Clipped" in="color1Flood" result="color1" />
<feMerge result="effect1_noise_1147_1022">
<feMergeNode in="shape" />
<feMergeNode in="color1" />
</feMerge>
</filter>
<filter id="filter4_n_1147_1022" x="481.478" y="77.7155" width="279.653" height="207.186" filterUnits="userSpaceOnUse" color-interpolation-filters="sRGB">
<feFlood flood-opacity="0" result="BackgroundImageFix"/>
<feBlend mode="normal" in="SourceGraphic" in2="BackgroundImageFix" result="shape"/>
<feTurbulence type="fractalNoise" baseFrequency="2 2" stitchTiles="stitch" numOctaves="3" result="noise" seed="234" />
<feColorMatrix in="noise" type="luminanceToAlpha" result="alphaNoise" />
<feComponentTransfer in="alphaNoise" result="coloredNoise1">
<feFuncA type="discrete" tableValues="1 1 1 1 1 1 1 1 1 1 1 1 1 1 1 1 1 1 1 1 1 1 1 1 1 1 1 1 1 1 1 1 1 1 1 1 1 1 1 1 1 1 1 1 1 1 1 1 1 1 1 0 0 0 0 0 0 0 0 0 0 0 0 0 0 0 0 0 0 0 0 0 0 0 0 0 0 0 0 0 0 0 0 0 0 0 0 0 0 0 0 0 0 0 0 0 0 0 0 0 "/>
</feComponentTransfer>
<feComposite operator="in" in2="shape" in="coloredNoise1" result="noise1Clipped" />
<feFlood flood-color="rgba(228, 91, 91, 0.25)" result="color1Flood" />
<feComposite operator="in" in2="noise1Clipped" in="color1Flood" result="color1" />
<feMerge result="effect1_noise_1147_1022">
<feMergeNode in="shape" />
<feMergeNode in="color1" />
</feMerge>
</filter>
<filter id="filter5_n_1147_1022" x="117.142" y="262.045" width="211.293" height="162.649" filterUnits="userSpaceOnUse" color-interpolation-filters="sRGB">
<feFlood flood-opacity="0" result="BackgroundImageFix"/>
<feBlend mode="normal" in="SourceGraphic" in2="BackgroundImageFix" result="shape"/>
<feTurbulence type="fractalNoise" baseFrequency="10 10" stitchTiles="stitch" numOctaves="3" result="noise" seed="2518" />
<feColorMatrix in="noise" type="luminanceToAlpha" result="alphaNoise" />
<feComponentTransfer in="alphaNoise" result="coloredNoise1">
<feFuncA type="discrete" tableValues="1 1 1 1 1 1 1 1 1 1 1 1 1 1 1 1 1 1 1 1 1 1 1 1 1 1 1 1 1 1 1 1 1 1 1 1 1 1 1 1 1 1 1 1 1 1 1 1 1 1 1 0 0 0 0 0 0 0 0 0 0 0 0 0 0 0 0 0 0 0 0 0 0 0 0 0 0 0 0 0 0 0 0 0 0 0 0 0 0 0 0 0 0 0 0 0 0 0 0 0 "/>
</feComponentTransfer>
<feComposite operator="in" in2="shape" in="coloredNoise1" result="noise1Clipped" />
<feFlood flood-color="rgba(195, 71, 71, 0.13)" result="color1Flood" />
<feComposite operator="in" in2="noise1Clipped" in="color1Flood" result="color1" />
<feMerge result="effect1_noise_1147_1022">
<feMergeNode in="shape" />
<feMergeNode in="color1" />
</feMerge>
</filter>
<filter id="filter6_n_1147_1022" x="173.072" y="131.54" width="206.114" height="142.969" filterUnits="userSpaceOnUse" color-interpolation-filters="sRGB">
<feFlood flood-opacity="0" result="BackgroundImageFix"/>
<feBlend mode="normal" in="SourceGraphic" in2="BackgroundImageFix" result="shape"/>
<feTurbulence type="fractalNoise" baseFrequency="10 10" stitchTiles="stitch" numOctaves="3" result="noise" seed="8284" />
<feColorMatrix in="noise" type="luminanceToAlpha" result="alphaNoise" />
<feComponentTransfer in="alphaNoise" result="coloredNoise1">
<feFuncA type="discrete" tableValues="1 1 1 1 1 1 1 1 1 1 1 1 1 1 1 1 1 1 1 1 1 1 1 1 1 1 1 1 1 1 1 1 1 1 1 1 1 1 1 1 1 1 1 1 1 1 1 1 1 1 1 0 0 0 0 0 0 0 0 0 0 0 0 0 0 0 0 0 0 0 0 0 0 0 0 0 0 0 0 0 0 0 0 0 0 0 0 0 0 0 0 0 0 0 0 0 0 0 0 0 "/>
</feComponentTransfer>
<feComposite operator="in" in2="shape" in="coloredNoise1" result="noise1Clipped" />
<feFlood flood-color="rgba(201, 17, 17, 0.11)" result="color1Flood" />
<feComposite operator="in" in2="noise1Clipped" in="color1Flood" result="color1" />
<feMerge result="effect1_noise_1147_1022">
<feMergeNode in="shape" />
<feMergeNode in="color1" />
</feMerge>
</filter>
<filter id="filter7_n_1147_1022" x="236.913" y="95.2892" width="300.743" height="198.9" filterUnits="userSpaceOnUse" color-interpolation-filters="sRGB">
<feFlood flood-opacity="0" result="BackgroundImageFix"/>
<feBlend mode="normal" in="SourceGraphic" in2="BackgroundImageFix" result="shape"/>
<feTurbulence type="fractalNoise" baseFrequency="10 10" stitchTiles="stitch" numOctaves="3" result="noise" seed="9319" />
<feColorMatrix in="noise" type="luminanceToAlpha" result="alphaNoise" />
<feComponentTransfer in="alphaNoise" result="coloredNoise1">
<feFuncA type="discrete" tableValues="1 1 1 1 1 1 1 1 1 1 1 1 1 1 1 1 1 1 1 1 1 1 1 1 1 1 1 1 1 1 1 1 1 1 1 1 1 1 1 1 1 1 1 1 1 1 1 1 1 1 1 0 0 0 0 0 0 0 0 0 0 0 0 0 0 0 0 0 0 0 0 0 0 0 0 0 0 0 0 0 0 0 0 0 0 0 0 0 0 0 0 0 0 0 0 0 0 0 0 0 "/>
</feComponentTransfer>
<feComposite operator="in" in2="shape" in="coloredNoise1" result="noise1Clipped" />
<feFlood flood-color="rgba(255, 149, 149, 0.13)" result="color1Flood" />
<feComposite operator="in" in2="noise1Clipped" in="color1Flood" result="color1" />
<feMerge result="effect1_noise_1147_1022">
<feMergeNode in="shape" />
<feMergeNode in="color1" />
</feMerge>
</filter>
<filter id="filter8_n_1147_1022" x="176.18" y="241.33" width="323.154" height="265.188" filterUnits="userSpaceOnUse" color-interpolation-filters="sRGB">
<feFlood flood-opacity="0" result="BackgroundImageFix"/>
<feBlend mode="normal" in="SourceGraphic" in2="BackgroundImageFix" result="shape"/>
<feTurbulence type="fractalNoise" baseFrequency="10 10" stitchTiles="stitch" numOctaves="3" result="noise" seed="6985" />
<feColorMatrix in="noise" type="luminanceToAlpha" result="alphaNoise" />
<feComponentTransfer in="alphaNoise" result="coloredNoise1">
<feFuncA type="discrete" tableValues="1 1 1 1 1 1 1 1 1 1 1 1 1 1 1 1 1 1 1 1 1 1 1 1 1 1 1 1 1 1 1 1 1 1 1 1 1 1 1 1 1 1 1 1 1 1 1 1 1 1 1 0 0 0 0 0 0 0 0 0 0 0 0 0 0 0 0 0 0 0 0 0 0 0 0 0 0 0 0 0 0 0 0 0 0 0 0 0 0 0 0 0 0 0 0 0 0 0 0 0 "/>
</feComponentTransfer>
<feComposite operator="in" in2="shape" in="coloredNoise1" result="noise1Clipped" />
<feFlood flood-color="rgba(113, 25, 25, 0.24)" result="color1Flood" />
<feComposite operator="in" in2="noise1Clipped" in="color1Flood" result="color1" />
<feMerge result="effect1_noise_1147_1022">
<feMergeNode in="shape" />
<feMergeNode in="color1" />
</feMerge>
</filter>
<filter id="filter9_n_1147_1022" x="368.84" y="106.02" width="295.862" height="534.405" filterUnits="userSpaceOnUse" color-interpolation-filters="sRGB">
<feFlood flood-opacity="0" result="BackgroundImageFix"/>
<feBlend mode="normal" in="SourceGraphic" in2="BackgroundImageFix" result="shape"/>
<feTurbulence type="fractalNoise" baseFrequency="10 10" stitchTiles="stitch" numOctaves="3" result="noise" seed="6985" />
<feColorMatrix in="noise" type="luminanceToAlpha" result="alphaNoise" />
<feComponentTransfer in="alphaNoise" result="coloredNoise1">
<feFuncA type="discrete" tableValues="1 1 1 1 1 1 1 1 1 1 1 1 1 1 1 1 1 1 1 1 1 1 1 1 1 1 1 1 1 1 1 1 1 1 1 1 1 1 1 1 1 1 1 1 1 1 1 1 1 1 1 0 0 0 0 0 0 0 0 0 0 0 0 0 0 0 0 0 0 0 0 0 0 0 0 0 0 0 0 0 0 0 0 0 0 0 0 0 0 0 0 0 0 0 0 0 0 0 0 0 "/>
</feComponentTransfer>
<feComposite operator="in" in2="shape" in="coloredNoise1" result="noise1Clipped" />
<feFlood flood-color="rgba(113, 25, 25, 0.13)" result="color1Flood" />
<feComposite operator="in" in2="noise1Clipped" in="color1Flood" result="color1" />
<feMerge result="effect1_noise_1147_1022">
<feMergeNode in="shape" />
<feMergeNode in="color1" />
</feMerge>
</filter>
<filter id="filter10_n_1147_1022" x="463.393" y="399.83" width="56.834" height="240.297" filterUnits="userSpaceOnUse" color-interpolation-filters="sRGB">
<feFlood flood-opacity="0" result="BackgroundImageFix"/>
<feBlend mode="normal" in="SourceGraphic" in2="BackgroundImageFix" result="shape"/>
<feTurbulence type="fractalNoise" baseFrequency="10 10" stitchTiles="stitch" numOctaves="3" result="noise" seed="8974" />
<feColorMatrix in="noise" type="luminanceToAlpha" result="alphaNoise" />
<feComponentTransfer in="alphaNoise" result="coloredNoise1">
<feFuncA type="discrete" tableValues="1 1 1 1 1 1 1 1 1 1 1 1 1 1 1 1 1 1 1 1 1 1 1 1 1 1 1 1 1 1 1 1 1 1 1 1 1 1 1 1 1 1 1 1 1 1 1 1 1 1 1 0 0 0 0 0 0 0 0 0 0 0 0 0 0 0 0 0 0 0 0 0 0 0 0 0 0 0 0 0 0 0 0 0 0 0 0 0 0 0 0 0 0 0 0 0 0 0 0 0 "/>
</feComponentTransfer>
<feComposite operator="in" in2="shape" in="coloredNoise1" result="noise1Clipped" />
<feFlood flood-color="rgba(80, 58, 58, 0.25)" result="color1Flood" />
<feComposite operator="in" in2="noise1Clipped" in="color1Flood" result="color1" />
<feMerge result="effect1_noise_1147_1022">
<feMergeNode in="shape" />
<feMergeNode in="color1" />
</feMerge>
</filter>
<filter id="filter11_n_1147_1022" x="368.84" y="106.02" width="295.862" height="534.405" filterUnits="userSpaceOnUse" color-interpolation-filters="sRGB">
<feFlood flood-opacity="0" result="BackgroundImageFix"/>
<feBlend mode="normal" in="SourceGraphic" in2="BackgroundImageFix" result="shape"/>
<feTurbulence type="fractalNoise" baseFrequency="10 10" stitchTiles="stitch" numOctaves="3" result="noise" seed="96" />
<feColorMatrix in="noise" type="luminanceToAlpha" result="alphaNoise" />
<feComponentTransfer in="alphaNoise" result="coloredNoise1">
<feFuncA type="discrete" tableValues="1 1 1 1 1 1 1 1 1 1 1 1 1 1 1 1 1 1 1 1 1 1 1 1 1 1 1 1 1 1 1 1 1 1 1 1 1 1 1 1 1 1 1 1 1 1 1 1 1 1 1 0 0 0 0 0 0 0 0 0 0 0 0 0 0 0 0 0 0 0 0 0 0 0 0 0 0 0 0 0 0 0 0 0 0 0 0 0 0 0 0 0 0 0 0 0 0 0 0 0 "/>
</feComponentTransfer>
<feComposite operator="in" in2="shape" in="coloredNoise1" result="noise1Clipped" />
<feFlood flood-color="rgba(63, 28, 28, 0.25)" result="color1Flood" />
<feComposite operator="in" in2="noise1Clipped" in="color1Flood" result="color1" />
<feMerge result="effect1_noise_1147_1022">
<feMergeNode in="shape" />
<feMergeNode in="color1" />
</feMerge>
</filter>
<filter id="filter12_n_1147_1022" x="481.478" y="304.262" width="301.118" height="205.737" filterUnits="userSpaceOnUse" color-interpolation-filters="sRGB">
<feFlood flood-opacity="0" result="BackgroundImageFix"/>
<feBlend mode="normal" in="SourceGraphic" in2="BackgroundImageFix" result="shape"/>
<feTurbulence type="fractalNoise" baseFrequency="10 10" stitchTiles="stitch" numOctaves="3" result="noise" seed="6985" />
<feColorMatrix in="noise" type="luminanceToAlpha" result="alphaNoise" />
<feComponentTransfer in="alphaNoise" result="coloredNoise1">
<feFuncA type="discrete" tableValues="1 1 1 1 1 1 1 1 1 1 1 1 1 1 1 1 1 1 1 1 1 1 1 1 1 1 1 1 1 1 1 1 1 1 1 1 1 1 1 1 1 1 1 1 1 1 1 1 1 1 1 0 0 0 0 0 0 0 0 0 0 0 0 0 0 0 0 0 0 0 0 0 0 0 0 0 0 0 0 0 0 0 0 0 0 0 0 0 0 0 0 0 0 0 0 0 0 0 0 0 "/>
</feComponentTransfer>
<feComposite operator="in" in2="shape" in="coloredNoise1" result="noise1Clipped" />
<feFlood flood-color="rgba(113, 25, 25, 0.24)" result="color1Flood" />
<feComposite operator="in" in2="noise1Clipped" in="color1Flood" result="color1" />
<feMerge result="effect1_noise_1147_1022">
<feMergeNode in="shape" />
<feMergeNode in="color1" />
</feMerge>
</filter>
<filter id="filter13_n_1147_1022" x="359.508" y="170.899" width="257.74" height="129.474" filterUnits="userSpaceOnUse" color-interpolation-filters="sRGB">
<feFlood flood-opacity="0" result="BackgroundImageFix"/>
<feBlend mode="normal" in="SourceGraphic" in2="BackgroundImageFix" result="shape"/>
<feTurbulence type="fractalNoise" baseFrequency="2 2" stitchTiles="stitch" numOctaves="3" result="noise" seed="6047" />
<feColorMatrix in="noise" type="luminanceToAlpha" result="alphaNoise" />
<feComponentTransfer in="alphaNoise" result="coloredNoise1">
<feFuncA type="discrete" tableValues="1 1 1 1 1 1 1 1 1 1 1 1 1 1 1 1 1 1 1 1 1 1 1 1 1 1 1 1 1 1 1 1 1 1 1 1 1 1 1 1 1 1 1 1 1 1 1 1 1 1 1 0 0 0 0 0 0 0 0 0 0 0 0 0 0 0 0 0 0 0 0 0 0 0 0 0 0 0 0 0 0 0 0 0 0 0 0 0 0 0 0 0 0 0 0 0 0 0 0 0 "/>
</feComponentTransfer>
<feComposite operator="in" in2="shape" in="coloredNoise1" result="noise1Clipped" />
<feFlood flood-color="rgba(226, 89, 89, 0.16)" result="color1Flood" />
<feComposite operator="in" in2="noise1Clipped" in="color1Flood" result="color1" />
<feMerge result="effect1_noise_1147_1022">
<feMergeNode in="shape" />
<feMergeNode in="color1" />
</feMerge>
</filter>
<linearGradient id="paint0_linear_1147_1022" x1="478.299" y1="709.285" x2="478.299" y2="901.393" gradientUnits="userSpaceOnUse">
<stop stop-color="#DC9F8B"/>
<stop offset="0.811997" stop-color="#D78A7F"/>
</linearGradient>
<linearGradient id="paint1_linear_1147_1022" x1="61.0385" y1="753.286" x2="539.691" y2="805.25" gradientUnits="userSpaceOnUse">
<stop stop-color="#7A3D4B"/>
<stop offset="1" stop-color="#9F5663"/>
</linearGradient>
<linearGradient id="paint2_linear_1147_1022" x1="351.829" y1="796.955" x2="311.992" y2="866.213" gradientUnits="userSpaceOnUse">
<stop stop-color="#823F4F"/>
<stop offset="1" stop-color="#914D5A"/>
</linearGradient>
<linearGradient id="paint3_linear_1147_1022" x1="157.223" y1="737.115" x2="387.069" y2="858.606" gradientUnits="userSpaceOnUse">
<stop stop-color="#7B3944"/>
<stop offset="0.5" stop-color="#7F3D4A"/>
<stop offset="1" stop-color="#7E3945"/>
</linearGradient>
<linearGradient id="paint4_linear_1147_1022" x1="157.223" y1="737.115" x2="387.069" y2="858.606" gradientUnits="userSpaceOnUse">
<stop stop-color="#7B3944"/>
<stop offset="0.5" stop-color="#7F3D4A"/>
<stop offset="1" stop-color="#7E3945"/>
</linearGradient>
<linearGradient id="paint5_linear_1147_1022" x1="157.223" y1="737.115" x2="387.069" y2="858.606" gradientUnits="userSpaceOnUse">
<stop stop-color="#7B3944"/>
<stop offset="0.5" stop-color="#7F3D4A"/>
<stop offset="1" stop-color="#7E3945"/>
</linearGradient>
<linearGradient id="paint6_linear_1147_1022" x1="157.223" y1="737.115" x2="387.069" y2="858.606" gradientUnits="userSpaceOnUse">
<stop stop-color="#7B3944"/>
<stop offset="0.5" stop-color="#7F3D4A"/>
<stop offset="1" stop-color="#7E3945"/>
</linearGradient>
<linearGradient id="paint7_linear_1147_1022" x1="157.223" y1="737.115" x2="387.069" y2="858.606" gradientUnits="userSpaceOnUse">
<stop stop-color="#7B3944"/>
<stop offset="0.5" stop-color="#7F3D4A"/>
<stop offset="1" stop-color="#7E3945"/>
</linearGradient>
<linearGradient id="paint8_linear_1147_1022" x1="175.18" y1="725.7" x2="175.18" y2="780.975" gradientUnits="userSpaceOnUse">
<stop stop-color="#96403D"/>
<stop offset="1" stop-color="#9E5D63" stop-opacity="0.41"/>
</linearGradient>
<linearGradient id="paint9_linear_1147_1022" x1="175.18" y1="725.7" x2="175.18" y2="780.975" gradientUnits="userSpaceOnUse">
<stop stop-color="#96403D"/>
<stop offset="1" stop-color="#9E5D63" stop-opacity="0.41"/>
</linearGradient>
<linearGradient id="paint10_linear_1147_1022" x1="105.671" y1="725.7" x2="105.671" y2="781.392" gradientUnits="userSpaceOnUse">
<stop stop-color="#8C4858"/>
<stop offset="1" stop-color="#7A3D4B"/>
</linearGradient>
<linearGradient id="paint11_linear_1147_1022" x1="91.6792" y1="738.471" x2="76.2259" y2="751.465" gradientUnits="userSpaceOnUse">
<stop stop-color="#7A3444"/>
<stop offset="1" stop-color="#7B3E4B"/>
</linearGradient>
<linearGradient id="paint12_linear_1147_1022" x1="238.962" y1="757.127" x2="317.98" y2="879.307" gradientUnits="userSpaceOnUse">
<stop stop-color="#C67465"/>
<stop offset="1" stop-color="#DC927D"/>
</linearGradient>
<linearGradient id="paint13_linear_1147_1022" x1="238.962" y1="757.127" x2="317.98" y2="879.307" gradientUnits="userSpaceOnUse">
<stop stop-color="#C67465"/>
<stop offset="1" stop-color="#DC927D"/>
</linearGradient>
<linearGradient id="paint14_linear_1147_1022" x1="238.962" y1="757.127" x2="317.98" y2="879.307" gradientUnits="userSpaceOnUse">
<stop stop-color="#C67465"/>
<stop offset="1" stop-color="#DC927D"/>
</linearGradient>
<linearGradient id="paint15_linear_1147_1022" x1="238.962" y1="757.127" x2="317.98" y2="879.307" gradientUnits="userSpaceOnUse">
<stop stop-color="#C67465"/>
<stop offset="1" stop-color="#DC927D"/>
</linearGradient>
<linearGradient id="paint16_linear_1147_1022" x1="863.148" y1="769.224" x2="707.345" y2="737.428" gradientUnits="userSpaceOnUse">
<stop stop-color="#D58C75"/>
<stop offset="0.454968" stop-color="#CE7662"/>
</linearGradient>
<linearGradient id="paint17_linear_1147_1022" x1="863.148" y1="769.224" x2="707.345" y2="737.428" gradientUnits="userSpaceOnUse">
<stop stop-color="#D58C75"/>
<stop offset="0.454968" stop-color="#CE7662"/>
</linearGradient>
<linearGradient id="paint18_linear_1147_1022" x1="723.68" y1="724.586" x2="723.68" y2="782.409" gradientUnits="userSpaceOnUse">
<stop stop-color="#A35B48"/>
<stop offset="0.5" stop-color="#C17468"/>
<stop offset="0.983041" stop-color="#B85555"/>
</linearGradient>
<linearGradient id="paint19_linear_1147_1022" x1="723.68" y1="724.586" x2="723.68" y2="782.409" gradientUnits="userSpaceOnUse">
<stop stop-color="#A35B48"/>
<stop offset="0.5" stop-color="#C17468"/>
<stop offset="0.983041" stop-color="#B85555"/>
</linearGradient>
<linearGradient id="paint20_linear_1147_1022" x1="723.68" y1="724.586" x2="723.68" y2="782.409" gradientUnits="userSpaceOnUse">
<stop stop-color="#A35B48"/>
<stop offset="0.5" stop-color="#C17468"/>
<stop offset="0.983041" stop-color="#B85555"/>
</linearGradient>
<linearGradient id="paint21_linear_1147_1022" x1="723.68" y1="724.586" x2="723.68" y2="782.409" gradientUnits="userSpaceOnUse">
<stop stop-color="#A35B48"/>
<stop offset="0.5" stop-color="#C17468"/>
<stop offset="0.983041" stop-color="#B85555"/>
</linearGradient>
<linearGradient id="paint22_linear_1147_1022" x1="723.68" y1="724.586" x2="723.68" y2="782.409" gradientUnits="userSpaceOnUse">
<stop stop-color="#A35B48"/>
<stop offset="0.5" stop-color="#C17468"/>
<stop offset="0.983041" stop-color="#B85555"/>
</linearGradient>
<linearGradient id="paint23_linear_1147_1022" x1="723.68" y1="724.586" x2="723.68" y2="782.409" gradientUnits="userSpaceOnUse">
<stop stop-color="#A35B48"/>
<stop offset="0.5" stop-color="#C17468"/>
<stop offset="0.983041" stop-color="#B85555"/>
</linearGradient>
<linearGradient id="paint24_linear_1147_1022" x1="723.68" y1="724.586" x2="723.68" y2="782.409" gradientUnits="userSpaceOnUse">
<stop stop-color="#A35B48"/>
<stop offset="0.5" stop-color="#C17468"/>
<stop offset="0.983041" stop-color="#B85555"/>
</linearGradient>
<linearGradient id="paint25_linear_1147_1022" x1="723.68" y1="724.586" x2="723.68" y2="782.409" gradientUnits="userSpaceOnUse">
<stop stop-color="#A35B48"/>
<stop offset="0.5" stop-color="#C17468"/>
<stop offset="0.983041" stop-color="#B85555"/>
</linearGradient>
<linearGradient id="paint26_linear_1147_1022" x1="723.68" y1="724.586" x2="723.68" y2="782.409" gradientUnits="userSpaceOnUse">
<stop stop-color="#A35B48"/>
<stop offset="0.5" stop-color="#C17468"/>
<stop offset="0.983041" stop-color="#B85555"/>
</linearGradient>
<linearGradient id="paint27_linear_1147_1022" x1="723.68" y1="724.586" x2="723.68" y2="782.409" gradientUnits="userSpaceOnUse">
<stop stop-color="#A35B48"/>
<stop offset="0.5" stop-color="#C17468"/>
<stop offset="0.983041" stop-color="#B85555"/>
</linearGradient>
<linearGradient id="paint28_linear_1147_1022" x1="723.68" y1="724.586" x2="723.68" y2="782.409" gradientUnits="userSpaceOnUse">
<stop stop-color="#A35B48"/>
<stop offset="0.5" stop-color="#C17468"/>
<stop offset="0.983041" stop-color="#B85555"/>
</linearGradient>
<linearGradient id="paint29_linear_1147_1022" x1="723.68" y1="724.586" x2="723.68" y2="782.409" gradientUnits="userSpaceOnUse">
<stop stop-color="#A35B48"/>
<stop offset="0.5" stop-color="#C17468"/>
<stop offset="0.983041" stop-color="#B85555"/>
</linearGradient>
<linearGradient id="paint30_linear_1147_1022" x1="723.68" y1="724.586" x2="723.68" y2="782.409" gradientUnits="userSpaceOnUse">
<stop stop-color="#A35B48"/>
<stop offset="0.5" stop-color="#C17468"/>
<stop offset="0.983041" stop-color="#B85555"/>
</linearGradient>
<linearGradient id="paint31_linear_1147_1022" x1="723.68" y1="724.586" x2="723.68" y2="782.409" gradientUnits="userSpaceOnUse">
<stop stop-color="#A35B48"/>
<stop offset="0.5" stop-color="#C17468"/>
<stop offset="0.983041" stop-color="#B85555"/>
</linearGradient>
<linearGradient id="paint32_linear_1147_1022" x1="0" y1="718.612" x2="666.466" y2="718.612" gradientUnits="userSpaceOnUse">
<stop stop-color="#F3B098"/>
<stop offset="1" stop-color="#FBCFB9"/>
</linearGradient>
<linearGradient id="paint33_linear_1147_1022" x1="444.398" y1="702.928" x2="444.398" y2="751.088" gradientUnits="userSpaceOnUse">
<stop stop-color="#E6A47D"/>
<stop offset="0.5" stop-color="#D69981"/>
<stop offset="1" stop-color="#E6B89E"/>
</linearGradient>
<linearGradient id="paint34_linear_1147_1022" x1="444.398" y1="702.928" x2="444.398" y2="751.088" gradientUnits="userSpaceOnUse">
<stop stop-color="#E6A47D"/>
<stop offset="0.5" stop-color="#D69981"/>
<stop offset="1" stop-color="#E6B89E"/>
</linearGradient>
<linearGradient id="paint35_linear_1147_1022" x1="444.398" y1="702.928" x2="444.398" y2="751.088" gradientUnits="userSpaceOnUse">
<stop stop-color="#E6A47D"/>
<stop offset="0.5" stop-color="#D69981"/>
<stop offset="1" stop-color="#E6B89E"/>
</linearGradient>
<linearGradient id="paint36_linear_1147_1022" x1="444.398" y1="702.928" x2="444.398" y2="751.088" gradientUnits="userSpaceOnUse">
<stop stop-color="#E6A47D"/>
<stop offset="0.5" stop-color="#D69981"/>
<stop offset="1" stop-color="#E6B89E"/>
</linearGradient>
<linearGradient id="paint37_linear_1147_1022" x1="444.398" y1="702.928" x2="444.398" y2="751.088" gradientUnits="userSpaceOnUse">
<stop stop-color="#E6A47D"/>
<stop offset="0.5" stop-color="#D69981"/>
<stop offset="1" stop-color="#E6B89E"/>
</linearGradient>
<linearGradient id="paint38_linear_1147_1022" x1="444.398" y1="702.928" x2="444.398" y2="751.088" gradientUnits="userSpaceOnUse">
<stop stop-color="#E6A47D"/>
<stop offset="0.5" stop-color="#D69981"/>
<stop offset="1" stop-color="#E6B89E"/>
</linearGradient>
<linearGradient id="paint39_linear_1147_1022" x1="444.398" y1="702.928" x2="444.398" y2="751.088" gradientUnits="userSpaceOnUse">
<stop stop-color="#E6A47D"/>
<stop offset="0.5" stop-color="#D69981"/>
<stop offset="1" stop-color="#E6B89E"/>
</linearGradient>
<linearGradient id="paint40_linear_1147_1022" x1="444.398" y1="702.928" x2="444.398" y2="751.088" gradientUnits="userSpaceOnUse">
<stop stop-color="#E6A47D"/>
<stop offset="0.5" stop-color="#D69981"/>
<stop offset="1" stop-color="#E6B89E"/>
</linearGradient>
<linearGradient id="paint41_linear_1147_1022" x1="444.398" y1="702.928" x2="444.398" y2="751.088" gradientUnits="userSpaceOnUse">
<stop stop-color="#E6A47D"/>
<stop offset="0.5" stop-color="#D69981"/>
<stop offset="1" stop-color="#E6B89E"/>
</linearGradient>
<linearGradient id="paint42_linear_1147_1022" x1="444.398" y1="702.928" x2="444.398" y2="751.088" gradientUnits="userSpaceOnUse">
<stop stop-color="#E6A47D"/>
<stop offset="0.5" stop-color="#D69981"/>
<stop offset="1" stop-color="#E6B89E"/>
</linearGradient>
<linearGradient id="paint43_linear_1147_1022" x1="444.398" y1="702.928" x2="444.398" y2="751.088" gradientUnits="userSpaceOnUse">
<stop stop-color="#E6A47D"/>
<stop offset="0.5" stop-color="#D69981"/>
<stop offset="1" stop-color="#E6B89E"/>
</linearGradient>
<linearGradient id="paint44_linear_1147_1022" x1="444.398" y1="702.928" x2="444.398" y2="751.088" gradientUnits="userSpaceOnUse">
<stop stop-color="#E6A47D"/>
<stop offset="0.5" stop-color="#D69981"/>
<stop offset="1" stop-color="#E6B89E"/>
</linearGradient>
<linearGradient id="paint45_linear_1147_1022" x1="444.398" y1="702.928" x2="444.398" y2="751.088" gradientUnits="userSpaceOnUse">
<stop stop-color="#E6A47D"/>
<stop offset="0.5" stop-color="#D69981"/>
<stop offset="1" stop-color="#E6B89E"/>
</linearGradient>
<linearGradient id="paint46_linear_1147_1022" x1="444.398" y1="702.928" x2="444.398" y2="751.088" gradientUnits="userSpaceOnUse">
<stop stop-color="#E6A47D"/>
<stop offset="0.5" stop-color="#D69981"/>
<stop offset="1" stop-color="#E6B89E"/>
</linearGradient>
<linearGradient id="paint47_linear_1147_1022" x1="444.398" y1="702.928" x2="444.398" y2="751.088" gradientUnits="userSpaceOnUse">
<stop stop-color="#E6A47D"/>
<stop offset="0.5" stop-color="#D69981"/>
<stop offset="1" stop-color="#E6B89E"/>
</linearGradient>
<linearGradient id="paint48_linear_1147_1022" x1="444.398" y1="702.928" x2="444.398" y2="751.088" gradientUnits="userSpaceOnUse">
<stop stop-color="#E6A47D"/>
<stop offset="0.5" stop-color="#D69981"/>
<stop offset="1" stop-color="#E6B89E"/>
</linearGradient>
<linearGradient id="paint49_linear_1147_1022" x1="444.398" y1="702.928" x2="444.398" y2="751.088" gradientUnits="userSpaceOnUse">
<stop stop-color="#E6A47D"/>
<stop offset="0.5" stop-color="#D69981"/>
<stop offset="1" stop-color="#E6B89E"/>
</linearGradient>
<linearGradient id="paint50_linear_1147_1022" x1="6.88477" y1="699.491" x2="286.702" y2="699.491" gradientUnits="userSpaceOnUse">
<stop stop-color="#E9AA9E"/>
<stop offset="1" stop-color="#E07F6F"/>
</linearGradient>
<linearGradient id="paint51_linear_1147_1022" x1="201.104" y1="676.836" x2="623.365" y2="676.836" gradientUnits="userSpaceOnUse">
<stop stop-color="#99523A"/>
<stop offset="0.471884" stop-color="#CE7E55"/>
<stop offset="0.978905" stop-color="#F2AA7A"/>
</linearGradient>
<linearGradient id="paint52_linear_1147_1022" x1="201.103" y1="674.637" x2="588.096" y2="669.622" gradientUnits="userSpaceOnUse">
<stop stop-color="#8C452D"/>
<stop offset="0.5" stop-color="#82402A"/>
<stop offset="1" stop-color="#A35931"/>
</linearGradient>
<linearGradient id="paint53_linear_1147_1022" x1="576.064" y1="652.815" x2="590.51" y2="717.164" gradientUnits="userSpaceOnUse">
<stop stop-color="#B87243"/>
<stop offset="1" stop-color="#DD9765"/>
</linearGradient>
<linearGradient id="paint54_linear_1147_1022" x1="576.064" y1="652.815" x2="590.51" y2="717.164" gradientUnits="userSpaceOnUse">
<stop stop-color="#B87243"/>
<stop offset="1" stop-color="#DD9765"/>
</linearGradient>
<linearGradient id="paint55_linear_1147_1022" x1="576.064" y1="652.815" x2="590.51" y2="717.164" gradientUnits="userSpaceOnUse">
<stop stop-color="#B87243"/>
<stop offset="1" stop-color="#DD9765"/>
</linearGradient>
<linearGradient id="paint56_linear_1147_1022" x1="576.064" y1="652.815" x2="590.51" y2="717.164" gradientUnits="userSpaceOnUse">
<stop stop-color="#B87243"/>
<stop offset="1" stop-color="#DD9765"/>
</linearGradient>
<linearGradient id="paint57_linear_1147_1022" x1="576.064" y1="652.815" x2="590.51" y2="717.164" gradientUnits="userSpaceOnUse">
<stop stop-color="#B87243"/>
<stop offset="1" stop-color="#DD9765"/>
</linearGradient>
<linearGradient id="paint58_linear_1147_1022" x1="576.064" y1="652.815" x2="590.51" y2="717.164" gradientUnits="userSpaceOnUse">
<stop stop-color="#B87243"/>
<stop offset="1" stop-color="#DD9765"/>
</linearGradient>
<linearGradient id="paint59_linear_1147_1022" x1="176.541" y1="307.657" x2="144.102" y2="298.21" gradientUnits="userSpaceOnUse">
<stop stop-color="#F3B4B2"/>
<stop offset="1" stop-color="#D7918F"/>
</linearGradient>
<linearGradient id="paint60_linear_1147_1022" x1="465.673" y1="0" x2="364.567" y2="118.429" gradientUnits="userSpaceOnUse">
<stop stop-color="#F0CAC4"/>
<stop offset="0.5" stop-color="#EEACA9"/>
<stop offset="1" stop-color="#D07F7F"/>
</linearGradient>
<linearGradient id="paint61_linear_1147_1022" x1="465.673" y1="0" x2="364.567" y2="118.429" gradientUnits="userSpaceOnUse">
<stop stop-color="#F0CAC4"/>
<stop offset="0.5" stop-color="#EEACA9"/>
<stop offset="1" stop-color="#D07F7F"/>
</linearGradient>
<linearGradient id="paint62_linear_1147_1022" x1="465.673" y1="0" x2="364.567" y2="118.429" gradientUnits="userSpaceOnUse">
<stop stop-color="#F0CAC4"/>
<stop offset="0.5" stop-color="#EEACA9"/>
<stop offset="1" stop-color="#D07F7F"/>
</linearGradient>
<linearGradient id="paint63_linear_1147_1022" x1="465.673" y1="0" x2="364.567" y2="118.429" gradientUnits="userSpaceOnUse">
<stop stop-color="#F0CAC4"/>
<stop offset="0.5" stop-color="#EEACA9"/>
<stop offset="1" stop-color="#D07F7F"/>
</linearGradient>
<linearGradient id="paint64_linear_1147_1022" x1="720.017" y1="273.675" x2="755.313" y2="421.675" gradientUnits="userSpaceOnUse">
<stop stop-color="#EDBCB8"/>
<stop offset="1" stop-color="#E1A39D"/>
</linearGradient>
<linearGradient id="paint65_linear_1147_1022" x1="720.017" y1="273.675" x2="755.313" y2="421.675" gradientUnits="userSpaceOnUse">
<stop stop-color="#EDBCB8"/>
<stop offset="1" stop-color="#E1A39D"/>
</linearGradient>
<linearGradient id="paint66_linear_1147_1022" x1="494.004" y1="225.679" x2="488.821" y2="369.289" gradientUnits="userSpaceOnUse">
<stop stop-color="#D38381"/>
<stop offset="1" stop-color="#E6C1B7"/>
</linearGradient>
<linearGradient id="paint67_linear_1147_1022" x1="740.102" y1="137.621" x2="508.951" y2="55.9027" gradientUnits="userSpaceOnUse">
<stop stop-color="#F7CCCA"/>
<stop offset="0.5" stop-color="#E4A7A5"/>
</linearGradient>
<linearGradient id="paint68_linear_1147_1022" x1="664.702" y1="189.503" x2="664.702" y2="336.616" gradientUnits="userSpaceOnUse">
<stop stop-color="#E38A88"/>
<stop offset="1" stop-color="#D78583"/>
</linearGradient>
<linearGradient id="paint69_linear_1147_1022" x1="172.056" y1="281.241" x2="237.085" y2="436.027" gradientUnits="userSpaceOnUse">
<stop stop-color="#D38381"/>
<stop offset="1" stop-color="#E6B7B7"/>
</linearGradient>
<linearGradient id="paint70_linear_1147_1022" x1="172.056" y1="281.241" x2="237.085" y2="436.027" gradientUnits="userSpaceOnUse">
<stop stop-color="#D38381"/>
<stop offset="1" stop-color="#E6B7B7"/>
</linearGradient>
<linearGradient id="paint71_linear_1147_1022" x1="172.056" y1="281.241" x2="237.085" y2="436.027" gradientUnits="userSpaceOnUse">
<stop stop-color="#D38381"/>
<stop offset="1" stop-color="#E6B7B7"/>
</linearGradient>
<linearGradient id="paint72_linear_1147_1022" x1="216.949" y1="184.73" x2="274.999" y2="275.235" gradientUnits="userSpaceOnUse">
<stop stop-color="#E8A2A0"/>
<stop offset="1" stop-color="#E9C4BC"/>
</linearGradient>
<linearGradient id="paint73_linear_1147_1022" x1="216.949" y1="184.73" x2="274.999" y2="275.235" gradientUnits="userSpaceOnUse">
<stop stop-color="#E8A2A0"/>
<stop offset="1" stop-color="#E9C4BC"/>
</linearGradient>
<linearGradient id="paint74_linear_1147_1022" x1="387.285" y1="95.2892" x2="387.285" y2="294.189" gradientUnits="userSpaceOnUse">
<stop stop-color="#CB7474"/>
<stop offset="1" stop-color="#E2A199"/>
</linearGradient>
<linearGradient id="paint75_linear_1147_1022" x1="467.508" y1="166.025" x2="607.917" y2="169.514" gradientUnits="userSpaceOnUse">
<stop stop-color="#E1BBB6"/>
<stop offset="1" stop-color="#CD6765"/>
</linearGradient>
<linearGradient id="paint76_linear_1147_1022" x1="337.757" y1="241.33" x2="485.926" y2="499.352" gradientUnits="userSpaceOnUse">
<stop stop-color="#AC5052"/>
<stop offset="0.5" stop-color="#8C726D"/>
<stop offset="1" stop-color="#42312E"/>
</linearGradient>
<linearGradient id="paint77_linear_1147_1022" x1="583.577" y1="137.433" x2="500.579" y2="638.293" gradientUnits="userSpaceOnUse">
<stop stop-color="#A9312A"/>
<stop offset="0.505658" stop-color="#825648"/>
<stop offset="0.865385" stop-color="#996050"/>
<stop offset="0.9999" stop-color="#78473F"/>
</linearGradient>
<linearGradient id="paint78_linear_1147_1022" x1="763.823" y1="299.031" x2="581.553" y2="496.449" gradientUnits="userSpaceOnUse">
<stop stop-color="#9D3A36"/>
<stop offset="1" stop-color="#80615D"/>
</linearGradient>
<linearGradient id="paint79_linear_1147_1022" x1="488.378" y1="170.899" x2="488.378" y2="300.373" gradientUnits="userSpaceOnUse">
<stop stop-color="#EECFC7"/>
<stop offset="1" stop-color="#E6AAA4"/>
</linearGradient>
<linearGradient id="paint80_linear_1147_1022" x1="488.378" y1="170.899" x2="488.378" y2="300.373" gradientUnits="userSpaceOnUse">
<stop stop-color="#EECFC7"/>
<stop offset="1" stop-color="#E6AAA4"/>
</linearGradient>
</defs>
</svg>

