<svg width="963" height="814" viewBox="0 0 963 814" fill="none" xmlns="http://www.w3.org/2000/svg">
<g filter="url(#filter0_n_1147_1020)">
<path d="M33.1654 665.287L6.33959 638.065C4.48246 636.181 3.44141 633.641 3.44141 630.996C3.44141 625.436 7.94653 620.927 13.5065 620.923L942.642 620.262C948.448 620.258 953.157 624.963 953.157 630.769C953.157 633.715 951.92 636.526 949.748 638.516L934.093 652.862L910.362 673.839C903.395 679.997 894.956 684.252 885.861 686.192L792.778 706.043C783.705 707.977 775.349 712.4 768.648 718.815C744.564 741.867 713.355 756.043 680.149 759.012L616.653 764.69C611.556 765.146 606.716 766.919 602.415 769.693C582.42 782.584 519.892 819.526 470.44 812.078C416.078 803.891 378.212 781.73 362.666 771.154C357.423 767.586 351.347 765.242 345.01 764.977L287.568 762.576C255.953 761.254 225.608 749.766 201.044 729.82L184.071 716.037C176.96 710.263 168.497 706.392 159.478 704.79L100.439 694.3C97.2739 693.738 94.1652 692.894 91.1501 691.779L51.4308 677.085C44.5505 674.54 38.3146 670.512 33.1654 665.287Z" fill="url(#paint0_linear_1147_1020)"/>
<path d="M31.9017 665.569L5.153 638.312C3.29988 636.423 2.26172 633.883 2.26172 631.238C2.26172 625.662 6.77933 621.141 12.3547 621.137L535.25 620.764C541.881 620.759 547.259 626.133 547.259 632.764V664.828C546.781 681.958 541.323 704.597 538.654 713.775C532.864 732.249 511.6 768.425 501.691 784.203C498.065 792.303 488.191 799.834 478.989 805.272C470.347 810.38 460.006 811.478 450.201 809.324C405.603 799.524 374.418 781.054 360.673 771.667C355.421 768.079 349.339 765.728 342.983 765.462L285.995 763.069C254.285 761.738 223.858 750.18 199.261 730.122L182.509 716.461C175.39 710.657 166.909 706.764 157.867 705.15L99.0617 694.658C95.8855 694.091 92.7663 693.241 89.7418 692.117L50.1765 677.419C43.2882 674.86 37.0485 670.814 31.9017 665.569Z" fill="url(#paint1_linear_1147_1020)"/>
<path d="M335.193 659.48L234.494 653.505C226.912 672.748 240.792 692.096 248.68 699.365L278.701 711.292L313.89 759.803L355.674 762.206C373.643 776.771 387.249 778.522 391.807 777.577C389.55 776.182 386.152 764.063 383.905 758.025C382.625 745.419 376.326 728.607 374.352 722.872C358.558 713.701 337.433 675.88 335.193 659.48Z" fill="url(#paint2_linear_1147_1020)" fill-opacity="0.88"/>
<path d="M234.524 653.443C232.965 667.579 239.135 696.78 276.289 700.491C284.346 702.765 299.808 712.115 297.201 731.324C301.145 737.56 308.093 748.317 311.853 753.479C312.801 754.572 313.66 755.56 314.395 756.404C314.172 756.5 313.224 755.362 311.853 753.479C306.018 746.755 296.846 736.115 292.936 731.324C286.355 724.342 267.341 711.035 243.933 713.661C232.333 715.278 206.833 712.291 197.629 687.404C198.005 696.018 207.792 714.328 243.933 718.661C250.87 721.188 265.651 728.582 269.273 737.939C274.037 741.558 284.182 749.684 286.645 753.24C276.448 745.347 251.897 728.768 235.273 725.598C241.216 732.973 253.538 747.942 255.278 748.817C251.394 754.489 230.203 756.944 176.378 708.362C169.687 705.45 151.017 700.177 140.346 697.643C130.362 684.486 109.966 660.895 104.696 641.481L102.513 636.73C142.219 639.962 224.209 647.83 234.524 653.443Z" fill="url(#paint3_linear_1147_1020)"/>
<path d="M381.422 662.329H372.811C377.388 675.97 386.543 703.622 386.543 705.106C394.224 731.28 405.163 739.963 406.094 742.536C416.894 751.505 422.387 767.006 423.783 773.636C423.783 761.289 413.387 746.043 408.189 739.963C399.437 724.998 386.698 681.972 381.422 662.329Z" fill="url(#paint4_linear_1147_1020)"/>
<path d="M372.811 720.597C355.209 710.991 339.474 675.734 333.807 659.306H331.038C335.792 675.502 348.154 694.864 353.74 702.521C357.746 709.659 367.215 718.024 371.448 721.314C376.557 725.102 380.604 741.29 381.989 748.91C383.477 763.911 389.306 772.584 392.034 775.046C388.699 771.584 385.549 761.176 384.391 756.404C380.722 731.327 375.142 722.084 372.811 720.597Z" fill="url(#paint5_linear_1147_1020)"/>
<path d="M430.587 745.678C426.611 740.704 427.117 733.683 427.867 730.794C431.579 717.595 428.374 704.168 426.247 698.929C432.227 712.098 432.069 721.828 431.243 725.047C426.817 734.92 428.961 742.915 430.587 745.678Z" fill="url(#paint6_linear_1147_1020)"/>
<path d="M440.432 730.134C450.747 738.581 465.824 760.336 443.62 779.78C451.028 771.773 460.761 750.633 440.432 730.134Z" fill="url(#paint7_linear_1147_1020)"/>
<path d="M104.129 638.227L95.5352 636.73C99.621 646.544 109.35 659.677 113.704 665.016C125.962 683.606 139.813 697.64 141.286 697.048C139.223 696.456 118.713 669.161 118.713 667.829C112.349 660.251 106.339 644.937 104.129 638.227Z" fill="url(#paint8_linear_1147_1020)"/>
<path d="M238.865 672.457C236.363 656.536 232.904 652.287 231.487 652.153C229.241 655.698 233.706 666.468 236.219 671.41C242.827 689.652 251.376 692.815 254.825 692.117C246.741 689.668 240.817 677.99 238.865 672.457Z" fill="url(#paint9_linear_1147_1020)"/>
<path d="M88.4285 637.974L76.3301 636.73C79.3023 649.057 91.9851 661.837 97.9549 666.686C109.31 674.956 111.133 684.488 110.625 688.221L135.013 692.623C133.946 689.714 118.31 671.44 110.625 662.667C102.852 658.992 92.5884 644.674 88.4285 637.974Z" fill="url(#paint10_linear_1147_1020)"/>
<path d="M74.4363 637.974L62.3379 636.73C65.3102 649.057 77.9929 661.837 83.9628 666.686C95.3182 674.956 97.1409 684.488 96.6329 688.221L121.02 692.623C120.217 690.432 111.146 679.521 103.434 670.521C98.9742 665.316 93.2914 661.183 88.5023 656.279C82.7956 650.436 77.2349 642.481 74.4363 637.974Z" fill="url(#paint11_linear_1147_1020)"/>
<path d="M448.124 664.176H440.068C442.484 691.09 461.435 711.029 470.609 717.635C492.663 735.617 483.731 768.103 476.508 782.098C497.988 747.106 482.645 721.274 472.289 712.732C451.576 698.088 447.548 674.259 448.124 664.176Z" fill="url(#paint12_linear_1147_1020)"/>
<path d="M421.067 688.935C408.921 679.301 408.149 668.415 409.281 664.176C409.281 666.846 414.208 675.372 416.672 679.301C428.018 691.402 428.991 702.54 428.058 706.596C427.419 697.766 423.131 691.143 421.067 688.935Z" fill="url(#paint13_linear_1147_1020)"/>
<path d="M299.41 674.284C293.337 659.031 296.213 658.429 298.411 660.035C311.577 676.914 330.665 716.439 338.564 734.092L323.581 714.223C317.029 709.888 304.737 685.791 299.41 674.284Z" fill="url(#paint14_linear_1147_1020)"/>
<path d="M166.019 649.196C177.431 657.062 196.275 686.258 196.407 687.058C201.079 698.364 213.658 708.034 219.364 711.456C208.854 707.829 198.972 697.057 195.345 692.124L179.023 672.926C162.568 654.475 163.498 649.418 166.019 649.196Z" fill="url(#paint15_linear_1147_1020)"/>
<path d="M762.37 653.346L705.378 658.665C705.378 667.826 692.082 693.678 685.435 705.459L687.539 706.722C735.548 686.814 757.43 662.843 762.37 653.346Z" fill="url(#paint16_linear_1147_1020)"/>
<path d="M772.688 712.854C780.585 708.252 798.079 650.061 799.466 649.166C800.883 648.252 843.018 646.8 863.148 644.749C858.03 667.757 835.84 686.428 825.385 692.888C822.792 696.337 781.216 710.002 772.688 712.854C772.521 712.951 772.359 713.024 772.201 713.073C770.585 713.567 770.95 713.435 772.688 712.854Z" fill="url(#paint17_linear_1147_1020)"/>
<path d="M577.622 668.564L572.632 669.266C573.887 678.709 572.11 699.804 571.064 709.171C565.771 725.003 552.511 748.085 546.543 757.646C542.551 763.379 530.433 775.585 524.873 780.971C528.181 780.296 540.698 767.482 546.543 761.159C547.113 764.981 544.785 775.959 543.549 780.971C547.199 776.587 549.062 764.812 549.537 759.473C556.038 749.469 569.258 721.77 575.056 709.171C578.135 701.864 578.05 679.055 577.622 668.564Z" fill="url(#paint18_linear_1147_1020)"/>
<path d="M606.317 701.077C609.413 685.184 616.96 673.9 620.346 670.245C612.461 684.905 608.283 704.225 607.18 712.053C600.791 727.539 589.753 737.464 585.032 740.49L594.707 728.412C601.802 720.656 605.404 706.957 606.317 701.077Z" fill="url(#paint19_linear_1147_1020)"/>
<path d="M634.52 664.826H631.498L628.918 702.373C627.231 710.622 620.419 719.255 619.316 719.83C606.755 732.67 605.991 740.366 607.18 742.609C607.18 740.087 611.468 732.959 613.613 729.711C621.756 721.087 628.929 709.684 631.498 705.06C632.778 703.685 634.046 677.664 634.52 664.826Z" fill="url(#paint20_linear_1147_1020)"/>
<path d="M586.697 776.713C587.111 776.305 604.358 752.126 606.003 747.181C606.028 747.099 606.052 747.018 606.075 746.938C606.056 747.013 606.032 747.094 606.003 747.181C603.978 753.914 597.417 768.853 586.697 776.713Z" fill="url(#paint21_linear_1147_1020)"/>
<path d="M677.722 660.927L674.5 661.285C674.5 661.572 672.654 678.307 671.732 686.638C670.316 696.694 661.554 711.393 657.35 717.486C668.079 707.707 673.254 692.564 674.5 686.216L677.722 660.927Z" fill="url(#paint22_linear_1147_1020)"/>
<path d="M651.994 738.8C691.367 705.063 703.041 671.799 703.957 659.385L705.666 658.764V659.385C704.516 673.754 693.179 694.855 687.654 703.609C686.24 705.788 688.243 705.484 689.422 705.06C692.251 702.213 709.091 694.993 717.158 691.739C734.131 683.231 754.36 662.637 762.352 653.403H765.778C757.026 673.181 723.825 691.848 708.318 698.709C695.853 701.671 681.814 714.024 676.352 719.83C668.952 731.646 651.387 753.168 643.529 762.452C641.383 763.672 632.894 763.638 628.918 763.469C630.437 761.842 644.935 746.345 651.994 738.8Z" fill="url(#paint23_linear_1147_1020)"/>
<path d="M732.604 701.077C717.734 706.45 694.445 719.096 684.659 724.748C711.685 717.537 730.145 706.827 735.997 702.373C760.262 687.613 764.597 679.831 763.732 677.785C760.545 685.162 741.652 696.387 732.604 701.077Z" fill="url(#paint24_linear_1147_1020)"/>
<path d="M700.444 740.49C673.89 743.313 659.481 754.322 655.597 759.473C663.74 752.59 688.888 745.363 700.444 742.609C728.414 733.634 737.767 723.684 738.948 719.83C730.804 729.621 709.885 737.683 700.444 740.49Z" fill="url(#paint25_linear_1147_1020)"/>
<path d="M753.455 710.588C753.184 711.657 743.566 719.014 741.669 724.748C745.598 721.408 753.455 713.9 753.455 710.588Z" fill="url(#paint26_linear_1147_1020)"/>
<path d="M822.799 675.967C817.712 682.601 795.997 690.526 785.774 693.659C807.412 683.823 818.176 677.229 820.853 675.161C827.608 662.701 829.87 651.831 830.157 647.954H831.961C830.615 659.896 825.292 671.605 822.799 675.967Z" fill="url(#paint27_linear_1147_1020)"/>
<path d="M864.642 644.368L861.747 645.081C857.694 668.764 835.449 683.959 824.834 688.595C803.217 695.729 788.483 704.091 783.819 707.38C797.04 706.524 812.811 701.951 819.043 699.771C851.662 680.463 863.033 654.791 864.642 644.368Z" fill="url(#paint28_linear_1147_1020)"/>
<path d="M840.04 695.838C839.886 695.955 839.762 696.039 839.671 696.086C839.795 696.003 839.918 695.92 840.04 695.838C843.796 692.987 865.64 670.202 866.451 668.146C865.173 672.319 858.103 683.662 840.04 695.838Z" fill="url(#paint29_linear_1147_1020)"/>
<path d="M891.936 641.121L887.646 641.441C888.686 649.577 879.716 665.337 882.186 663.864C884.162 662.685 889.509 648.211 891.936 641.121Z" fill="url(#paint30_linear_1147_1020)"/>
<path d="M922.487 635.612C921.511 635.825 919.483 636.291 919.171 636.444C915.986 644.26 909.928 659.648 911.176 658.674C912.424 657.701 919.236 642.893 922.487 635.612Z" fill="url(#paint31_linear_1147_1020)"/>
<path d="M948.132 620.868C545.414 563.064 158.884 592.409 6.57041 621.624C3.55872 622.201 2.77958 625.52 5.47442 626.983C23.4801 636.762 70.7591 642.643 94.7611 644.499C125.152 649.389 184.117 652.817 209.802 653.92C219.259 657.78 271.429 660.965 296.331 662.075C299.828 661.89 351.403 665.863 376.753 667.872C387.243 668.438 408.441 669.568 409.315 669.568H448.138C466.69 672.528 522.758 671.517 548.474 670.641C562.678 671.296 659.635 663.268 706.338 659.173C718.072 659.501 776.843 652.21 804.762 648.524C872.155 647.175 922.834 636.003 948.876 627.716C952.72 626.493 952.125 621.441 948.132 620.868Z" fill="url(#paint32_linear_1147_1020)"/>
<path d="M133.713 633.183C124.092 630.582 69.7464 632.663 67.666 633.183C74.4807 634.444 100.355 634.297 112.441 634.066C120.968 633.847 130.175 633.386 133.713 633.183Z" fill="url(#paint33_linear_1147_1020)"/>
<path d="M133.713 637.699C141.933 636.769 160.048 635.273 166.743 636.729C161.663 637.82 147.944 639.542 133.713 637.699Z" fill="url(#paint34_linear_1147_1020)"/>
<path d="M160.355 641.673C173.792 640.934 201.664 639.898 205.659 641.673C193.71 642.751 167.922 644.259 160.355 641.673Z" fill="url(#paint35_linear_1147_1020)"/>
<path d="M214.904 639.639C221.561 638.346 235.91 636.147 240.052 637.699C236.97 638.654 227.626 640.379 214.904 639.639Z" fill="url(#paint36_linear_1147_1020)"/>
<path d="M243.668 651.337C255.358 650.523 279.004 649.384 280.069 651.337C271.265 652.299 251.658 653.645 243.668 651.337Z" fill="url(#paint37_linear_1147_1020)"/>
<path d="M287.838 648.895C301.229 647.564 330.01 645.699 338 648.895C323.869 649.339 294.052 649.961 287.838 648.895Z" fill="url(#paint38_linear_1147_1020)"/>
<path d="M338 652.64C344.107 652.167 356.94 651.504 359.421 652.64C354.14 653.458 342.463 654.604 338 652.64Z" fill="url(#paint39_linear_1147_1020)"/>
<path d="M364.071 652.64C370.099 652.037 382.698 651.323 384.869 653.286C378.883 653.76 366.345 654.294 364.071 652.64Z" fill="url(#paint40_linear_1147_1020)"/>
<path d="M391.847 646.638C392.437 646.402 424.727 645.341 426.376 646.638C418.995 647.681 401.755 649.141 391.847 646.638Z" fill="url(#paint41_linear_1147_1020)"/>
<path d="M454.611 657.25C455.601 656.92 523.076 653.29 535.615 657.25C509.383 657.91 456.459 658.833 454.611 657.25Z" fill="url(#paint42_linear_1147_1020)"/>
<path d="M553.765 646.448C571.637 648.062 608.195 651.887 611.455 654.27C594.506 652.967 559.241 649.577 553.765 646.448Z" fill="url(#paint43_linear_1147_1020)"/>
<path d="M622.699 648.078C629.598 648.295 644.015 649.284 646.492 651.5C640.517 651.663 627.393 651.207 622.699 648.078Z" fill="url(#paint44_linear_1147_1020)"/>
<path d="M661.485 641.885C673.11 640.907 697.924 639.864 704.182 643.515C693.1 643.297 669.047 642.667 661.485 641.885Z" fill="url(#paint45_linear_1147_1020)"/>
<path d="M729.864 634.886C727.968 634.965 726.276 635.051 724.846 635.138C725.534 634.919 727.32 634.848 729.864 634.886C742.071 634.382 762.726 634.22 776.175 636.526C789.307 637.173 816.682 637.802 821.121 635.138C821.439 637.387 812.744 641.146 775.426 638.194C763.059 637.005 740.205 635.042 729.864 634.886Z" fill="url(#paint46_linear_1147_1020)"/>
<path d="M659.208 656.167C664.996 657.058 670.472 660.567 672.486 662.21H669.226C669.163 661.319 662.521 657.81 659.208 656.167Z" fill="url(#paint47_linear_1147_1020)"/>
<path d="M746.24 621.133C747.322 621.253 785.428 622.696 793.482 624.499C781.289 624.626 754.769 624.131 746.24 621.133Z" fill="url(#paint48_linear_1147_1020)"/>
<path d="M746.24 613.875C768.048 614.719 811.678 616.279 814.314 615.862C814.344 615.856 814.375 615.849 814.405 615.842C814.384 615.849 814.354 615.856 814.314 615.862C807.637 617.329 784.854 618.957 746.24 613.875Z" fill="url(#paint49_linear_1147_1020)"/>
<g filter="url(#filter1_n_1147_1020)">
<path d="M286.702 630.907V594.198C179.937 594.199 31.7658 615.8 6.88477 621.679C16.9105 624.687 222.67 630.612 286.702 630.907Z" fill="url(#paint50_linear_1147_1020)"/>
</g>
<path d="M535.647 537.22L380.876 551.247L386.635 541.183L364.352 545.64L335.445 549.843C329.104 550.765 323.077 553.197 317.872 556.935L285.412 580.241C280.347 583.877 274.6 586.441 268.762 588.627C253.358 594.394 230.53 605.884 219.227 611.905C209.239 616.419 204.438 619.678 202.399 621.766C201.072 623.125 202.221 624.514 204.1 624.787C224.381 627.741 293.811 631.42 330.17 633.08C332.085 633.167 333.969 633.424 335.838 633.85L346.08 636.188C364.81 638.579 475.001 638.936 527.755 638.816C570.37 638.39 682.573 627.319 738.942 621.249C740.861 621.042 741.368 618.53 739.681 617.593C713.862 603.252 683.947 591.221 667.293 585.223C663.233 583.761 659.354 581.86 655.778 579.445L630.597 562.447C619.695 555.088 607.183 550.46 594.116 548.952L569.232 546.082C565.106 545.605 561.076 544.505 557.28 542.818L550.042 539.601C545.525 537.594 540.57 536.774 535.647 537.22Z" fill="url(#paint51_linear_1147_1020)"/>
<path d="M465.08 575.824C467.135 576.458 469.436 576.602 470.33 576.594C478.012 578.137 483.967 589.333 485.983 594.739C491.129 604.407 501.74 610.908 506.402 612.95C529.36 619.926 541.818 632.699 545.177 638.213H542.04C534.304 625.497 516.122 617.837 507.998 615.597C496.447 613.041 487.554 602.057 484.551 596.885C479.995 582.897 470.554 578.429 466.404 577.944L465.08 575.824ZM454.337 588.579C452.028 600.717 443.996 627.46 430.334 637.331L427.481 636.934C432.577 634.397 444.833 621.267 453.088 589.038L454.337 588.579ZM562.133 600.247C566.974 601.458 577.078 604.698 578.765 607.978C578.687 610.125 578.297 615.545 577.36 620.043C579.859 624.494 585.278 633.701 586.965 634.919C586.2 635.55 582.855 633.604 575.581 620.77C575.18 620.456 574.252 618.439 573.751 612.878C573.873 611.659 573.312 608.864 570.092 607.443C566.598 605.259 560.113 600.763 562.133 600.247ZM397.955 539.703C447.491 537.398 527.095 534.777 545.884 538.149C548.618 538.639 549.234 541.188 547.491 543.35C544.065 547.598 537.437 553.148 526.941 555.869C511.654 557.32 472.395 559.625 433.397 557.761C430.031 557.6 426.684 558.22 423.438 559.125C414.273 561.681 397.002 564.242 373.977 561.975C368.26 561.412 362.484 562.774 357.86 566.184C342.65 577.401 320.061 594.45 313.497 600.895C317.123 598.731 324.727 594.333 326.131 594.052C327.359 594.578 331.184 594.683 336.658 590.894C341.308 586.993 352.816 579.134 361.653 578.902C371.003 580.064 390.458 582.041 393.482 580.646C388.8 584.98 380.266 593.611 376.666 599.575C375.205 601.996 374.607 604.838 373.305 607.348C370.844 612.095 366.228 618.757 359.204 623.99C357.31 625.4 355.177 626.436 353.008 627.37C348.206 629.44 341.551 632.484 338.689 634.422C297.712 633.034 214.028 629.403 207.103 625.992C202.458 625.561 196.063 623.176 207.644 617.086C225.826 607.974 264.773 588.983 275.115 585.908C283.73 580.499 302.222 568.6 307.272 564.287C312.096 559.393 326.141 549.433 343.733 548.752C351.603 547.33 365.581 544.736 375.811 542.66C383.121 541.177 390.505 540.05 397.955 539.703ZM355.618 597.539C351.799 599.577 348.419 602.346 345.67 605.689L336.16 617.249C333.904 619.992 331.22 622.352 328.212 624.24L315.004 632.527H317.85L330.323 625.018C333.484 623.115 336.303 620.696 338.664 617.861L347.993 606.658C350.485 603.665 353.486 601.137 356.859 599.191L381.651 584.885L380.897 584.048L355.618 597.539ZM305.207 613.688C302.794 616.033 288.126 626.498 281.093 631.438H283.103C290.404 628.758 301.719 618.879 306.464 614.274L305.207 613.688ZM462.883 592.337C462.319 598.773 461.621 612.436 463.341 615.597C465.122 618.502 470.859 625.055 479.55 628.03C478.021 629.637 472.114 630.04 460.726 618.792C459.925 616.377 458.701 607.706 460.22 592.337H462.883ZM289.596 603.245C279.668 610.491 258.864 625.628 255.076 628.21C261.073 625.316 276.65 616.667 290.974 605.231C291.72 604.569 292.488 603.245 289.596 603.245ZM439.139 592.337C438.125 596.572 431.529 606.329 413.257 611.476C407.105 614.772 391.958 622.67 380.583 627.893L379.303 625.158L409.411 611.476C414.472 604.969 427.503 592.031 439.139 592.337ZM589.41 605.453C616.102 616.754 617.84 621.983 615.373 623.185C604.662 620.724 593.601 610.338 589.41 605.453ZM264.788 610.506C261.749 612.294 258.308 613.288 254.784 613.396L248.592 613.585C246.386 613.653 244.205 614.068 242.128 614.815L228.821 619.602C231.318 619.316 235.891 618.589 239.791 617.467C243.218 616.481 246.702 615.407 250.266 615.286L254.867 615.131C258.338 615.014 261.727 614.038 264.728 612.29L274.79 606.431C274.991 606.031 275.066 605.231 273.758 605.231L264.788 610.506ZM633.589 608.812C642.17 609.735 658.572 612.826 655.527 617.809C653.798 619.734 646.989 620.628 633.589 608.812ZM330.661 605.231C327.848 607.307 313.357 614.58 306.464 617.957L307.886 618.627C323.493 613.068 330.465 607.38 332 605.231H330.661ZM537.971 601.399C551.593 602.152 559.26 613.04 561.39 618.39C555.329 609.879 543.252 603.516 537.971 601.399ZM427.233 570.684C427.007 571.769 422.642 575.952 406.993 583.996C404.412 585.627 399.386 590.68 399.929 597.852C407.304 594.354 425.222 586.889 437.888 585.009L438.057 585.721C425.625 588.862 399.861 597.697 396.269 607.904C395.402 609.948 393.29 613.868 391.779 613.201C392.051 604.447 395.746 585.681 408.351 580.646C409.166 580.646 426.185 572.178 427.233 570.684ZM624.522 589.088C626.737 593.074 638.917 598.188 644.73 600.247C632.384 599.209 626.114 592.376 624.522 589.088ZM351.759 567.946C343.798 568.299 335.08 571.656 329.112 574.594C325.544 576.35 322.437 578.904 319.205 581.22C310.048 587.78 291.83 598.709 290.974 598.807C292.076 599.505 293.591 599.46 294.211 599.35C301.615 596.614 317.654 585.005 324.748 579.542C330.643 574.92 345.212 570.778 351.759 569.284V567.946ZM537.971 558.271C534.049 551.696 556.213 565.679 567.785 573.492C602.15 590.107 610.259 596.26 610.017 597.26C602.04 592.274 578.539 580.714 567.785 575.557C557.813 573.648 543.754 563.237 537.971 558.271ZM510.582 577.944C519.101 579.023 525.038 581.07 526.941 581.959C535.689 585.572 533.806 589.383 531.771 590.837C528.037 592.276 524.195 589.039 522.741 587.241C520.475 584.791 513.691 580.022 510.582 577.944ZM586.073 565.084C585.885 563.928 586.522 564.602 586.864 565.084C591.325 570.82 596.475 574.183 598.493 575.147C600.332 575.02 605 576.063 607.103 576.601C626.044 583.868 620.003 585.352 614.614 585.185C600.193 582.266 589.578 570.568 586.073 565.084ZM523.93 565.75C539.561 568.823 546.613 577.361 548.185 581.246C544.143 576.451 530.331 568.918 523.93 565.75Z" fill="url(#paint52_linear_1147_1020)"/>
<path d="M482.357 570.124C472.784 571.919 456.306 566.509 449.263 563.58C447.67 563.58 448.06 564.706 448.453 565.269C463.122 573.69 477.74 572.874 483.216 571.413L482.357 570.124Z" fill="url(#paint53_linear_1147_1020)"/>
<path d="M482.357 621.888C482.357 628.49 480.682 635.876 479.844 638.744H483.216V637.866C485.914 631.545 483.767 624.58 482.357 621.888Z" fill="url(#paint54_linear_1147_1020)"/>
<path d="M509.16 603.505C518.894 608.617 540.385 619.754 548.477 623.408C544.02 619.112 529.916 609.117 509.16 603.505Z" fill="url(#paint55_linear_1147_1020)"/>
<path d="M606.445 606.244C599.165 603.082 556.634 593.227 555.819 593.227V594.993C571.852 598.7 594.191 606.489 603.357 609.921C607.475 610.098 607.131 607.544 606.445 606.244Z" fill="url(#paint56_linear_1147_1020)"/>
<path d="M639.216 591.3C636.517 589.758 625.553 579.89 620.409 575.149C622.421 573.424 633.909 585.116 639.621 590.93L647.003 601.888C657.397 611.134 665.824 618.865 668.289 621.736C662.489 620.014 652.281 609.055 647.902 603.79C645.777 600.977 641.226 594.291 639.216 591.3Z" fill="url(#paint57_linear_1147_1020)"/>
<path d="M681.198 604.81C687.276 609.763 700.35 619.748 704.024 620.072C699.522 615.615 688.654 606.323 681.198 604.81Z" fill="url(#paint58_linear_1147_1020)"/>
<path d="M681.192 604.93C686.434 606.971 698.275 612.792 703.711 619.745C697.351 616.163 683.942 608.186 681.192 604.93Z" fill="#B16C46"/>
</g>
<g filter="url(#filter2_n_1147_1020)">
<path d="M710.623 292.327C705.166 290.109 706.227 294.484 707.44 296.948C704.893 296.209 706.076 298.489 706.985 299.721C705.53 297.873 703.347 299.259 702.438 300.183C704.257 296.856 699.861 296.64 697.435 296.948C693.07 298.797 694.707 302.34 696.071 303.88C693.524 302.401 692.585 304.496 692.433 305.728C691.706 302.771 688.492 302.956 686.976 303.418C681.883 299.721 679.094 304.958 678.336 308.039C671.788 306.19 671.97 310.041 672.879 312.198C661.601 315.525 667.574 321.286 671.97 323.75C663.239 325.229 665.906 330.527 668.332 332.992C662.147 342.234 669.696 342.08 674.243 340.848C678.609 350.829 680.913 345.623 681.519 341.772C685.157 345.469 688.795 343.312 690.16 341.772C695.98 345.469 698.648 340.848 699.254 338.075C705.803 340.663 706.834 336.997 706.53 334.84C710.532 335.21 710.926 332.222 710.623 330.682C712.442 334.378 715.625 332.838 716.99 331.606C716.99 335.672 720.627 335.765 722.446 335.302C720.991 337.89 721.84 339.153 722.446 339.461C723.902 342.419 727.6 341.618 729.268 340.848C728.904 343.066 730.935 343.928 731.996 344.082C736.725 346.67 738.211 343.004 738.363 340.848C739.818 341.957 740.788 341.31 741.091 340.848C743.638 345.653 748.215 344.082 750.186 342.696C749.822 346.393 752.156 346.085 753.369 345.469C757.371 350.274 761.1 346.547 762.464 344.082C769.376 345.931 765.344 341.772 762.464 339.461C763.919 340.57 764.889 338.383 765.193 337.151C767.739 343.066 771.407 340.232 772.923 338.075C779.472 335.487 778.38 329.911 777.016 327.447C779.199 318.944 771.862 318.359 767.921 319.129C772.287 312.845 767.012 311.89 763.828 312.198C763.828 304.804 758.675 304.804 756.098 305.728C752.914 303.418 747.912 308.963 747.457 308.039C747.094 307.299 745.487 307.731 744.729 308.039C746.184 305.081 744.123 303.726 742.91 303.418C743.274 293.806 734.876 294.176 730.632 295.562C728.085 285.581 720.476 287.706 716.99 290.017C712.624 286.32 710.926 290.017 710.623 292.327Z" fill="url(#paint59_linear_1147_1020)"/>
</g>
<g filter="url(#filter3_n_1147_1020)">
<path d="M272.203 248.993C285.332 247.446 283.015 261.372 283.788 262.919C286.259 272.15 282.758 273.986 280.698 273.75C283.788 287.367 273.233 289.739 267.569 289.223C266.951 302.84 255.984 303.665 250.578 302.375C248.106 311.659 238.735 311.401 234.359 310.112C226.944 326.204 213.763 318.364 208.1 312.433C193.889 333.476 179.009 321.201 173.345 312.433C170.874 319.241 163.047 312.691 159.443 308.565C140.289 309.802 149.403 300.312 156.354 295.413C144.614 274.369 156.096 271.171 163.305 272.203C158.98 266.633 161.503 263.693 163.305 262.919C150.947 243.733 163.305 240.483 171.028 241.257C174.117 229.497 182.098 236.357 185.702 241.257C185.084 235.068 192.653 236.099 196.515 237.389C207.636 214.489 223.289 224.237 229.725 231.973C255.675 218.357 260.618 232.489 259.845 241.257C267.878 236.305 271.43 244.351 272.203 248.993Z" fill="url(#paint60_linear_1147_1020)"/>
<path d="M157.898 314.754C156.354 315.527 154.5 317.539 159.443 319.396C162.018 317.848 165.313 314.754 157.898 314.754Z" fill="url(#paint61_linear_1147_1020)"/>
<path d="M143.997 317.075C138.436 315.837 142.195 312.433 144.769 310.886C145.541 310.628 147.395 310.112 148.631 310.112C149.866 310.112 150.175 313.207 150.175 314.754C150.433 316.043 149.557 318.313 143.997 317.075Z" fill="url(#paint62_linear_1147_1020)"/>
<path d="M149.403 295.413C143.842 297.888 143.482 291.802 143.997 288.45C146.314 286.902 149.403 288.45 150.948 290.771C152.183 292.627 150.433 294.639 149.403 295.413Z" fill="url(#paint63_linear_1147_1020)"/>
<path d="M146.314 270.656C144.46 266.942 148.116 265.498 150.175 265.24C153.882 265.24 153.265 269.366 152.492 271.429C151.205 272.719 148.167 274.369 146.314 270.656Z" fill="url(#paint64_linear_1147_1020)"/>
<path d="M267.569 310.886C274.983 307.791 277.867 313.722 278.381 317.075C283.324 325.121 278.896 327.132 276.064 327.132C274.211 340.749 264.479 334.869 259.845 330.227C246.252 327.751 252.637 321.975 257.529 319.396C255.675 310.112 263.45 309.854 267.569 310.886Z" fill="url(#paint65_linear_1147_1020)"/>
<path d="M257.529 338.737C256.756 341.832 256.447 347.092 261.39 343.379C267.569 338.737 262.163 337.963 257.529 338.737Z" fill="url(#paint66_linear_1147_1020)"/>
</g>
<g filter="url(#filter4_n_1147_1020)">
<path d="M590.903 276.796C592.903 296.492 605.671 326.653 640.738 289.726C639.785 294.524 643.07 302.191 663.828 294.478C669.807 296.117 692.725 309.675 708.013 274.343C709.057 271.93 709.948 269.837 710.7 268.036C717.525 260.202 723.345 249.157 712.903 243.749C717.235 241.775 726.302 231.824 718.257 218.762C721.38 210.308 722.843 192.088 703.711 186.841C707.037 182.659 708.613 173.261 688.316 169.128C690.755 161.47 691.218 146.567 673.555 148.216C666.487 138.829 645.26 125.616 616.891 147.853C610.985 142.544 596.157 136.791 584.099 156.251C584.353 152.983 582.428 147.993 572.691 154.176C565.042 154.994 552.065 158.047 561.342 163.711C555.446 167.61 546 175.503 555.38 175.884C552.146 180.266 514.456 175.621 537.897 206.397C532.305 209.431 524.25 216.399 536.773 220.002C536.186 225.603 539.493 236.073 557.41 233.145C544.599 254.014 533.364 291.961 590.903 276.796Z" fill="url(#paint67_linear_1147_1020)"/>
</g>
<g filter="url(#filter5_n_1147_1020)">
<path d="M376.349 142.782C399.244 137.373 439.217 136.616 415.944 176.862C420.793 174.428 430.975 174.266 432.914 193.091C437.762 197.148 464.429 210.13 432.914 234.473C430.761 236.136 428.888 237.566 427.267 238.786C422.019 246.848 412.694 255.265 401.399 249.079C401.399 253.136 394.935 263.684 376.349 262.061C368.537 267.471 349.036 275.044 333.521 262.061C330.558 266.119 320.915 270.662 306.046 256.381C298.774 260.98 282.451 266.605 275.34 252.324C261.333 250.161 235.906 238.368 246.249 208.508C237.36 205.803 223.461 196.336 238.976 180.108C235.475 181.46 228.956 181.731 230.896 171.994C227.933 165.773 224.754 154.629 235.744 159.822C237.091 153.872 241.077 143.756 246.249 150.897C249.481 146.839 225.239 119.251 271.299 126.554C271.838 121.144 275.501 112.435 285.844 120.874C291.77 118.44 305.077 117.304 310.895 132.234C327.595 114.923 364.066 92.7986 376.349 142.782Z" fill="url(#paint68_linear_1147_1020)"/>
</g>
<g filter="url(#filter6_n_1147_1020)">
<path d="M440.883 102.328C457.891 98.3247 487.585 97.7643 470.297 127.547C473.898 125.745 481.462 125.625 482.903 139.556C486.504 142.558 506.314 152.165 482.903 170.179C481.303 171.409 479.911 172.468 478.708 173.37C474.809 179.336 467.882 185.565 459.491 180.987C459.491 183.989 454.689 191.795 440.883 190.594C435.08 194.597 420.593 200.201 409.068 190.594C406.867 193.596 399.703 196.959 388.658 186.391C383.255 189.794 371.13 193.957 365.847 183.389C355.442 181.788 336.553 173.061 344.237 150.964C337.634 148.963 327.309 141.958 338.835 129.949C336.233 130.949 331.391 131.149 332.832 123.944C330.631 119.341 328.269 111.094 336.433 114.937C337.434 110.534 340.395 103.048 344.237 108.332C346.638 105.33 328.63 84.9146 362.846 90.3186C363.246 86.3156 365.967 79.8708 373.651 86.1155C378.053 84.3141 387.938 83.4735 392.26 94.5218C404.666 81.7121 431.758 65.3397 440.883 102.328Z" fill="url(#paint69_linear_1147_1020)"/>
</g>
<g filter="url(#filter7_n_1147_1020)">
<path d="M469.635 152.636C498.2 148.814 548.071 148.279 519.036 176.719C525.085 174.999 537.787 174.885 540.207 188.188C546.256 191.055 579.526 200.229 540.207 217.431C537.521 218.606 535.184 219.617 533.162 220.479C526.614 226.176 514.981 232.124 500.889 227.753C500.889 230.62 492.823 238.074 469.635 236.927C459.89 240.75 435.559 246.101 416.202 236.927C412.506 239.794 400.475 243.005 381.925 232.913C372.851 236.162 352.486 240.138 343.614 230.046C326.139 228.517 294.416 220.184 307.32 199.082C296.23 197.171 278.89 190.481 298.247 179.013C293.878 179.969 285.745 180.16 288.165 173.279C284.468 168.883 280.503 161.008 294.214 164.678C295.894 160.473 300.868 153.325 307.32 158.371C311.353 155.503 281.108 136.008 338.573 141.168C339.245 137.346 343.816 131.191 356.72 137.155C364.113 135.434 380.715 134.632 387.973 145.182C408.809 132.95 454.311 117.315 469.635 152.636Z" fill="url(#paint70_linear_1147_1020)"/>
</g>
<g filter="url(#filter8_n_1147_1020)">
<path d="M576.443 111.936C604.353 107.717 653.082 107.126 624.712 138.518C630.622 136.619 643.034 136.493 645.398 151.176C651.309 154.341 683.816 164.467 645.398 183.455C642.774 184.752 640.49 185.867 638.515 186.819C632.116 193.107 620.75 199.673 606.98 194.847C606.98 198.012 599.1 206.239 576.443 204.974C566.92 209.193 543.147 215.1 524.233 204.974C520.621 208.138 508.866 211.682 490.741 200.543C481.875 204.13 461.976 208.518 453.308 197.379C436.233 195.691 405.236 186.493 417.845 163.202C407.009 161.092 390.065 153.708 408.979 141.05C404.71 142.105 396.764 142.316 399.128 134.721C395.516 129.868 391.641 121.176 405.039 125.227C406.68 120.586 411.54 112.695 417.845 118.265C421.785 115.1 392.232 93.5816 448.382 99.2777C449.039 95.0583 453.504 88.2651 466.113 94.8474C473.337 92.9487 489.558 92.0626 496.651 103.708C517.009 90.206 561.47 72.9486 576.443 111.936Z" fill="url(#paint71_linear_1147_1020)"/>
</g>
<g filter="url(#filter9_n_1147_1020)">
<path d="M463.215 291.717C452.148 295.297 454.3 288.237 456.759 284.259C451.595 285.452 453.993 281.773 455.837 279.784C452.886 282.767 448.459 280.53 446.615 279.038C450.304 284.408 441.389 284.756 436.47 284.259C427.616 281.275 430.937 275.557 433.703 273.071C428.539 275.458 426.633 272.077 426.325 270.088C424.85 274.861 418.333 274.563 415.258 273.817C404.929 279.784 399.273 271.331 397.736 266.359C384.456 269.342 384.825 263.127 386.669 259.646C363.797 254.276 375.91 244.978 384.825 241C367.118 238.613 372.528 230.061 377.447 226.083C364.904 211.166 380.213 211.415 389.436 213.404C398.289 197.294 402.962 205.697 404.192 211.912C411.57 205.945 418.948 209.426 421.714 211.912C433.519 205.945 438.93 213.404 440.159 217.879C453.439 213.702 455.53 219.619 454.915 223.1C463.031 222.503 463.83 227.326 463.215 229.812C466.904 223.846 473.36 226.332 476.127 228.321C476.127 221.757 483.504 221.608 487.193 222.354C484.242 218.177 485.964 216.139 487.193 215.641C490.145 210.868 497.646 212.161 501.027 213.404C500.289 209.824 504.409 208.432 506.561 208.183C516.152 204.006 519.164 209.923 519.472 213.404C522.423 211.614 524.391 212.658 525.005 213.404C530.17 205.647 539.454 208.183 543.45 210.421C542.712 204.454 547.447 204.951 549.906 205.945C558.022 198.189 565.584 204.205 568.351 208.183C582.369 205.2 574.192 211.912 568.351 215.641C571.302 213.851 573.269 217.382 573.884 219.371C579.049 209.824 586.488 214.398 589.562 217.879C602.842 222.056 600.629 231.055 597.862 235.033C602.289 248.757 587.41 249.702 579.418 248.458C588.271 258.602 577.573 260.143 571.117 259.646C571.117 271.58 560.665 271.58 555.439 270.088C548.984 273.817 538.839 264.867 537.917 266.359C537.179 267.552 533.92 266.856 532.383 266.359C535.334 271.132 531.154 273.32 528.694 273.817C529.432 289.331 512.401 288.734 503.794 286.496C498.629 302.607 483.197 299.176 476.127 295.446C467.273 301.413 463.83 295.446 463.215 291.717Z" fill="url(#paint72_linear_1147_1020)"/>
</g>
<path d="M353.633 32.9721C341.839 35.6301 342.017 44.2686 343.581 48.2556C330.714 45.5976 327.944 59.1091 328.167 66.1971C322.806 60.3495 312.53 68.6336 308.062 73.5066C281.255 76.1646 287.063 84.3601 293.318 88.1256C287.957 88.1256 287.51 95.6567 287.957 99.4222C278.306 113.775 291.978 122.68 300.02 125.338C300.02 140.222 316.551 141.286 324.816 139.957C350.283 139.292 338.22 120.686 338.22 118.693C342.509 124.54 350.283 122.458 353.633 120.686C367.037 122.281 373.962 109.833 375.749 103.409C376.285 115.636 390.716 112.491 397.865 109.39C401.081 120.553 407.694 117.585 410.598 114.706C422.393 128.527 432.49 120.465 436.064 114.706C445.446 113.377 446.117 106.067 446.117 103.409C455.767 109.788 463.094 100.751 465.552 95.4352C473.594 109.257 480.519 106.51 482.976 103.409C491.554 115.636 497.72 112.491 499.73 109.39C532.434 120.022 540.61 99.6437 540.61 88.1256C548.116 61.5456 529.441 52.6856 519.165 51.5781C525.599 44.1357 519.612 39.6171 515.814 38.2881C515.814 21.2769 503.751 21.8971 497.72 24.3336C496.111 15.2964 488.561 18.3531 484.986 21.0111C475.872 -2.91093 455.276 3.9556 446.117 10.3791C426.816 -5.5689 413.055 13.0371 408.587 24.3336C402.154 20.0808 397.418 24.3336 395.854 26.9916C377.089 11.0436 356.314 32.9721 353.633 32.9721Z" fill="url(#paint73_linear_1147_1020)"/>
<path d="M310.073 66.1971C313.825 63.5391 310.296 58.8876 308.062 56.8941C297.339 54.2361 298.68 66.1971 300.02 70.1841C301.36 74.1711 305.381 69.5196 310.073 66.1971Z" fill="url(#paint74_linear_1147_1020)"/>
<path d="M294.659 68.8551C294.123 65.1339 289.967 67.3046 287.957 68.8551C286.617 71.5131 286.617 71.5131 289.297 73.5065L289.297 73.5066C291.978 75.5001 295.329 73.5066 294.659 68.8551Z" fill="url(#paint75_linear_1147_1020)"/>
<path d="M353.633 26.9916C357.386 25.3968 353.857 21.8971 351.623 20.3466C345.591 16.3595 341.57 25.6626 342.911 27.6561C344.251 29.6496 348.942 28.9851 353.633 26.9916Z" fill="url(#paint76_linear_1147_1020)"/>
<path d="M363.016 18.3531C360.335 15.6951 364.133 14.1446 366.367 13.7016C372.398 12.3726 371.058 18.3531 369.717 20.3466C368.377 22.3401 366.367 21.6756 363.016 18.3531Z" fill="url(#paint77_linear_1147_1020)"/>
<g filter="url(#filter10_n_1147_1020)">
<path d="M576.83 12.3221C559.38 0.117752 552.4 24.5264 548.911 24.5264C535.649 16.8551 527.681 27.7228 525.354 34.1155C512.79 29.9311 506.741 39.3459 505.287 44.5763C485.046 30.6285 494.526 52.7125 501.797 65.498C481.556 84.3275 506.159 108.213 520.991 117.802C527.273 142.908 553.273 146.279 565.488 144.826C564.79 165.748 583.81 162.842 593.407 158.774C603.178 165.05 611.438 158.483 614.346 154.415C620.628 176.034 644.301 176.79 655.352 174.465C679.084 180.742 678.618 166.62 675.419 158.774C686.587 169.932 692.869 154.125 694.614 144.826C712.761 142.734 709.737 130.007 705.956 123.904C724.103 102.285 705.956 93.9748 694.614 92.5219C698.104 83.4558 686.18 80.027 679.782 79.4458C703.513 38.2998 669.894 32.0814 650.118 34.1155C647.326 24.352 636.74 26.5604 631.796 28.8851C638.077 10.7529 622.78 10.288 614.346 12.3221C598.293 -9.99439 582.646 3.02355 576.83 12.3221Z" fill="url(#paint78_linear_1147_1020)"/>
<path d="M672.802 181.439C665.822 175.163 659.424 185.217 657.098 191.028C634.064 184.054 632.959 199.745 635.286 208.463C626.212 205.673 628.015 214.856 630.051 219.795C618.185 240.02 644.301 245.657 658.843 245.948C667.218 255.711 675.129 251.759 678.037 248.563C683.621 256.931 693.16 256.699 697.232 255.537C682.574 261.116 691.124 268.322 697.232 271.228C689.554 284.478 696.359 288.953 700.721 289.534C695.836 304.877 701.594 311.037 705.084 312.2C725.151 320.917 721.661 307.841 724.278 307.841C731.956 314.815 742.019 310.747 746.09 307.841C772.613 323.183 784.479 308.422 787.096 299.124C801.056 307.492 810.362 297.961 813.271 292.15C830.022 287.965 817.342 274.134 808.908 267.741C853.579 242.635 827.521 220.086 808.908 211.95C821.472 185.449 791.459 186.96 774.882 191.028C779.07 178.475 773.137 182.892 769.647 186.669C760.573 173.419 756.56 181.148 755.687 186.669C730.56 152.497 708.574 168.944 700.721 181.439C691.648 170.978 678.328 177.08 672.802 181.439Z" fill="url(#paint79_linear_1147_1020)"/>
<path d="M787.096 172.722C790.586 167.143 782.734 166.91 778.372 167.491C776.278 170.281 776.336 176.209 776.627 178.824C778.372 183.183 782.734 179.696 787.096 172.722Z" fill="url(#paint80_linear_1147_1020)"/>
<path d="M742.6 330.506C747.486 328.414 744.054 326.147 741.728 325.276C736.493 320.045 732.13 327.019 732.13 329.634C732.13 332.25 736.493 333.121 742.6 330.506Z" fill="url(#paint81_linear_1147_1020)"/>
<path d="M764.412 325.276C759.526 322.486 762.376 320.626 764.412 320.045C768.774 317.43 775.754 321.789 774.882 327.891C774.009 333.993 770.519 328.763 764.412 325.276Z" fill="url(#paint82_linear_1147_1020)"/>
</g>
<g filter="url(#filter11_n_1147_1020)">
<path d="M415.652 302.797C460.826 336.947 479.464 364.303 483.137 373.713L494.155 389.548L474.873 427.415L469.364 419.153C469.364 359.667 426.211 325.977 404.634 316.567C395.819 314.364 362.398 306.928 346.789 303.486C339.628 299.63 326.36 300.043 320.622 300.732C316.765 305.138 301.57 308.535 294.454 309.682C292.801 314.088 282.288 320.239 277.238 322.764C275.035 322.213 266.22 324.37 262.089 325.518L261.4 324.141C263.053 322.488 272.189 321.157 276.55 320.698C282.059 319.046 288.945 312.207 291.7 308.994C287.843 307.341 275.861 307.846 270.352 308.305L268.975 306.928C273.382 305.826 288.256 306.01 295.143 306.24C303.406 306.24 312.358 300.273 315.801 297.289C310.292 293.984 281.37 293.158 267.598 293.158C255.478 291.506 245.562 291.093 242.119 291.093C215.675 298.253 202.178 296.371 198.735 294.535C215.262 296.738 231.789 290.863 237.987 287.65C214.298 284.345 206.54 279.847 205.622 278.011C227.107 285.722 256.809 289.027 268.975 289.716C247.49 281.454 240.282 272.962 239.364 269.749C247.077 278.562 267.368 286.273 276.55 289.027C293.077 287.926 305.472 289.027 309.604 289.716C317.316 293.02 329.803 294.306 335.083 294.535C332.328 293.434 315.572 282.142 307.538 276.634C291.011 273.88 282.288 267.225 279.993 264.241C286.053 269.749 299.504 272.962 305.472 273.88C298.31 270.025 295.143 263.094 294.454 260.11C301.616 271.677 326.819 286.044 338.526 291.781C350.095 299.492 385.123 303.715 401.191 304.863C387.418 284.483 368.366 266.536 360.562 260.11C347.609 256.255 323.029 234.636 312.358 224.308C308.048 222.393 286.089 215.484 275.89 212.378C274.228 211.974 272.807 211.586 271.729 211.227C269.212 210.388 271.423 211.018 275.89 212.378C284.432 214.456 299.356 216.959 306.849 218.112L286.191 199.522L310.292 218.112C308.089 215.909 300.652 198.834 297.209 190.572C317.041 230.78 345.412 247.258 357.119 250.471C336.185 224.033 332.787 196.309 333.706 185.752C333.706 208.886 356.66 244.504 368.137 259.422C359.873 227.475 361.021 196.08 362.628 184.375C361.526 197.044 365.841 226.833 368.137 240.144C371.993 271.539 401.42 294.994 415.652 302.797Z" fill="url(#paint83_linear_1147_1020)"/>
</g>
<g filter="url(#filter12_n_1147_1020)">
<path d="M503.361 410.574C498.679 401.186 481.821 353.282 477.14 330.503L483.464 419.547C459.119 476.977 447.879 532.751 488.731 552.078H513.895L510.969 550.698C480.538 537.445 485.024 504.68 491.072 489.954C510.267 453.508 507.262 421.848 503.361 410.574Z" fill="#B3948D"/>
<path d="M595.781 132.325C609.544 121.865 619.866 98.1479 623.306 87.5967H624.682C625.233 89.2482 619.866 104.8 617.113 112.369C621.517 111.744 631.334 102.016 635.692 97.2304L637.757 98.6067C637.206 101.359 618.719 115.81 609.544 122.691C620.018 123.792 632.258 118.103 637.069 115.122L638.445 116.498C637.894 119.801 619.866 124.297 610.92 126.132C605.415 127.233 594.405 137.6 589.588 142.646C576.927 153.106 561.834 178.199 555.87 189.439C561.375 186.136 584.771 185.769 595.781 185.998C610.645 187.65 622.159 178.429 626.059 173.612L628.123 174.988C624.682 178.007 617.664 184.024 617.113 183.934C629.775 186.136 641.656 180.722 646.014 177.741V179.805C642.161 186.961 600.828 191.962 580.643 193.567C539.355 200.173 511.142 239.442 502.197 258.251C476.874 297.336 479.26 336.467 483.618 351.147C500.683 403.995 487.517 449.778 478.801 466.063C449.212 516.984 486.141 542.674 496.004 551.39H378.335C379.436 547.537 395.768 540.61 403.796 537.628C419.21 536.527 423.98 522.948 424.439 516.296C432.146 488.771 441.413 476.385 445.083 473.633C461.598 461.522 466.644 432.804 467.103 419.959C469.305 408.949 462.057 368.579 458.157 349.771C454.304 340.412 456.093 316.97 457.469 306.419C469.029 283.298 432.009 218.798 412.053 189.439C407.099 187.787 385.216 172.694 374.895 165.354V162.602C378.198 168.107 398.749 178.199 408.612 182.557C405.86 179.254 392.327 146.775 385.904 130.948C394.162 149.665 429.256 206.642 445.771 232.79C447.422 220.129 440.954 185.31 437.514 169.483C435.312 158.473 426.962 139.206 423.063 130.948C417.558 122.691 391.409 111.91 379.023 107.552V104.8C380.124 106.451 396.914 112.369 405.172 115.122C396.364 108.516 388.657 76.128 385.904 60.76L387.969 61.4481C395.125 96.1294 404.713 112.14 408.612 115.81C413.016 121.865 420.081 123.379 423.063 123.379C423.063 120.627 412.053 98.836 406.548 88.2849C415.907 98.1938 433.385 138.747 440.954 157.785C440.404 144.573 446.688 127.508 449.9 120.627C455.405 112.92 457.698 93.1017 458.157 84.1561C459.258 89.1106 457.698 107.323 456.781 115.81C462.286 104.249 472.378 95.3954 476.736 92.4136V94.4779C463.525 101.634 453.34 127.737 449.9 139.894C447.698 186.136 454.028 223.845 457.469 236.919C458.57 246.277 468.479 272.931 473.296 285.087C501.371 252.058 502.885 197.925 500.133 174.988C503.436 199.21 502.885 226.368 502.197 236.919C523.666 227.561 554.265 179.805 566.88 157.097C571.835 153.794 573.532 134.16 573.762 124.755C571.56 108.24 574.679 102.277 576.514 101.359C573.762 104.8 575.826 117.874 575.826 119.25C578.028 128.609 575.826 144.252 574.45 150.904L576.514 148.84C595.231 135.077 602.204 106.864 603.351 94.4779L604.039 95.1661C605.14 99.0195 598.993 121.544 595.781 132.325Z" fill="url(#paint84_linear_1147_1020)"/>
</g>
<g filter="url(#filter13_n_1147_1020)">
<path d="M498.756 429.593C493.252 405.371 526.281 369.038 543.484 353.9C515.96 357.753 496.692 399.086 490.499 419.271L498.756 429.593Z" fill="#B4958E"/>
<path d="M478.113 412.749C483.618 402.198 498.206 378.481 512.519 368.021C524.906 357.47 545.962 327.698 531.099 293.016L526.97 281.318L512.519 267.556L513.896 266.18L526.282 277.189L524.906 262.739L530.41 279.942L541.42 303.338C546.696 289.346 558.761 258.335 564.817 246.224L566.881 248.288C560.917 260.904 549.265 287.374 550.366 292.328C558.394 287.97 575.138 277.602 577.891 270.996C578.579 274.208 574.45 283.52 552.43 295.081C548.76 299.668 542.109 311.458 544.861 321.917C544.173 328.11 541.833 341.598 537.98 346.002C554.724 339.809 595.782 315.174 626.059 266.18L626.747 266.868C618.949 280.171 601.562 308.155 594.406 313.66C604.039 310.219 624.408 302.099 628.812 297.145C636.152 287.741 651.657 267.143 654.96 259.986L657.025 260.675C650.144 271.455 636.243 293.567 635.693 295.769L662.53 284.759C668.723 277.419 681.797 262.326 684.55 260.675L686.614 261.363C680.421 267.785 668.035 281.043 668.035 282.694C680.65 280.859 706.845 276.226 710.698 272.373C715.515 266.868 726.25 253.38 730.654 243.472H732.03C729.616 248.957 724.389 260.069 722.013 262.468L740.287 246.224L741.664 248.288C733.406 255.17 716.754 269.345 716.203 270.996C725.378 270.308 745.517 267.143 752.674 259.986L754.05 260.675C751.297 263.656 739.875 270.721 716.203 275.125C686.385 283.841 626.61 302.512 626.059 307.467L623.995 309.531C632.252 309.99 649.318 311.458 651.52 313.66C660.695 310.449 679.595 304.301 681.797 305.402C674.228 307.696 659.089 312.697 659.089 314.348L690.055 313.66V315.036L678.357 315.724L686.614 324.67L675.604 317.101H649.455C634.775 315.036 603.627 312.834 596.47 320.541C572.156 335.909 537.98 359.272 522.153 372.838C510.914 382.472 504.087 393.605 491.013 421.13C490.325 425.488 488.435 434.356 488.435 432.705C488.435 431.053 481.554 418.713 478.113 412.749Z" fill="url(#paint85_linear_1147_1020)"/>
</g>
<g filter="url(#filter14_n_1147_1020)">
<path d="M441.65 143.398C431.042 139.078 433.105 147.597 435.462 152.396C430.511 150.957 432.81 155.396 434.578 157.796C431.749 154.196 427.506 156.896 425.738 158.695C429.274 152.216 420.728 151.796 416.014 152.396C407.528 155.996 410.71 162.895 413.362 165.894C408.411 163.015 406.585 167.094 406.29 169.494C404.876 163.735 398.629 164.095 395.682 164.995C385.781 157.796 380.36 167.994 378.886 173.993C366.157 170.394 366.51 177.893 368.278 182.092C346.355 188.571 357.965 199.79 366.51 204.589C349.538 207.469 354.724 217.787 359.439 222.586C347.416 240.584 362.091 240.284 370.93 237.884C379.417 257.322 383.896 247.183 385.074 239.684C392.146 246.883 399.218 242.684 401.87 239.684C413.185 246.883 418.371 237.884 419.55 232.485C432.279 237.524 434.283 230.385 433.694 226.186C441.473 226.906 442.239 221.087 441.65 218.087C445.186 225.286 451.374 222.287 454.026 219.887C454.026 227.806 461.098 227.986 464.634 227.086C461.805 232.125 463.455 234.585 464.634 235.185C467.462 240.944 474.652 239.384 477.893 237.884C477.186 242.204 481.135 243.884 483.197 244.183C492.391 249.223 495.279 242.084 495.573 237.884C498.402 240.044 500.288 238.784 500.877 237.884C505.828 247.243 514.726 244.183 518.557 241.484C517.85 248.683 522.388 248.083 524.745 246.883C532.524 256.242 539.773 248.983 542.425 244.183C555.861 247.783 548.023 239.684 542.425 235.185C545.254 237.344 547.139 233.085 547.729 230.685C552.679 242.204 559.81 236.685 562.757 232.485C575.486 227.446 573.365 216.587 570.713 211.788C574.956 195.23 560.694 194.09 553.033 195.59C561.519 183.352 551.265 181.492 545.077 182.092C545.077 167.694 535.058 167.694 530.049 169.494C523.861 164.995 514.137 175.793 513.253 173.993C512.546 172.554 509.422 173.393 507.949 173.993C510.778 168.234 506.771 165.594 504.413 164.995C505.12 146.277 488.796 146.997 480.545 149.697C475.595 130.259 460.803 134.399 454.026 138.898C445.539 131.699 442.239 138.898 441.65 143.398Z" fill="url(#paint86_linear_1147_1020)"/>
</g>
<g filter="url(#filter15_n_1147_1020)">
<path d="M664.473 140.793C657.231 137.836 658.639 143.669 660.249 146.955C656.869 145.969 658.438 149.009 659.645 150.652C657.714 148.187 654.817 150.035 653.61 151.268C656.024 146.832 650.19 146.544 646.972 146.955C641.178 149.419 643.351 154.143 645.161 156.197C641.781 154.225 640.534 157.018 640.333 158.661C639.368 154.718 635.103 154.964 633.091 155.581C626.332 150.652 622.631 157.634 621.625 161.742C612.935 159.277 613.176 164.412 614.383 167.287C599.416 171.723 607.342 179.404 613.176 182.69C601.589 184.662 605.129 191.727 608.348 195.013C600.141 207.335 610.159 207.13 616.194 205.487C621.987 218.796 625.045 211.854 625.849 206.719C630.677 211.648 635.505 208.773 637.316 206.719C645.041 211.648 648.581 205.487 649.386 201.79C658.076 205.241 659.444 200.353 659.042 197.477C664.352 197.97 664.875 193.986 664.473 191.932C666.887 196.861 671.111 194.808 672.922 193.165C672.922 198.586 677.75 198.71 680.164 198.094C678.233 201.544 679.359 203.228 680.164 203.639C682.095 207.582 687.003 206.514 689.216 205.487C688.734 208.445 691.429 209.595 692.837 209.8C699.114 213.25 701.085 208.362 701.286 205.487C703.217 206.966 704.505 206.103 704.907 205.487C708.287 211.895 714.362 209.8 716.977 207.952C716.494 212.881 719.592 212.47 721.201 211.648C726.512 218.056 731.461 213.086 733.271 209.8C742.444 212.265 737.094 206.719 733.271 203.639C735.203 205.117 736.49 202.201 736.892 200.558C740.272 208.445 745.14 204.666 747.152 201.79C755.842 198.34 754.394 190.905 752.583 187.619C755.48 176.283 745.744 175.502 740.513 176.529C746.307 168.15 739.306 166.876 735.082 167.287C735.082 157.429 728.242 157.429 724.822 158.661C720.598 155.581 713.96 162.974 713.356 161.742C712.873 160.756 710.741 161.331 709.735 161.742C711.666 157.799 708.93 155.991 707.321 155.581C707.804 142.765 696.659 143.258 691.027 145.106C687.647 131.798 677.549 134.632 672.922 137.713C667.128 132.784 664.875 137.713 664.473 140.793Z" fill="url(#paint87_linear_1147_1020)"/>
</g>
<defs>
<filter id="filter0_n_1147_1020" x="2.26172" y="536.54" width="950.896" height="276.52" filterUnits="userSpaceOnUse" color-interpolation-filters="sRGB">
<feFlood flood-opacity="0" result="BackgroundImageFix"/>
<feBlend mode="normal" in="SourceGraphic" in2="BackgroundImageFix" result="shape"/>
<feTurbulence type="fractalNoise" baseFrequency="5 5" stitchTiles="stitch" numOctaves="3" result="noise" seed="1005" />
<feColorMatrix in="noise" type="luminanceToAlpha" result="alphaNoise" />
<feComponentTransfer in="alphaNoise" result="coloredNoise1">
<feFuncA type="discrete" tableValues="1 1 1 1 1 1 1 1 1 1 1 1 1 1 1 1 1 1 1 1 1 1 1 1 1 1 1 1 1 1 1 1 1 1 1 1 1 1 1 1 1 1 1 1 1 1 1 1 1 1 1 0 0 0 0 0 0 0 0 0 0 0 0 0 0 0 0 0 0 0 0 0 0 0 0 0 0 0 0 0 0 0 0 0 0 0 0 0 0 0 0 0 0 0 0 0 0 0 0 0 "/>
</feComponentTransfer>
<feComposite operator="in" in2="shape" in="coloredNoise1" result="noise1Clipped" />
<feFlood flood-color="rgba(201, 118, 118, 0.17)" result="color1Flood" />
<feComposite operator="in" in2="noise1Clipped" in="color1Flood" result="color1" />
<feMerge result="effect1_noise_1147_1020">
<feMergeNode in="shape" />
<feMergeNode in="color1" />
</feMerge>
</filter>
<filter id="filter1_n_1147_1020" x="6.88477" y="594.198" width="279.817" height="36.7084" filterUnits="userSpaceOnUse" color-interpolation-filters="sRGB">
<feFlood flood-opacity="0" result="BackgroundImageFix"/>
<feBlend mode="normal" in="SourceGraphic" in2="BackgroundImageFix" result="shape"/>
<feTurbulence type="fractalNoise" baseFrequency="5 5" stitchTiles="stitch" numOctaves="3" result="noise" seed="1360" />
<feColorMatrix in="noise" type="luminanceToAlpha" result="alphaNoise" />
<feComponentTransfer in="alphaNoise" result="coloredNoise1">
<feFuncA type="discrete" tableValues="1 1 1 1 1 1 1 1 1 1 1 1 1 1 1 1 1 1 1 1 1 1 1 1 1 1 1 1 1 1 1 1 1 1 1 1 1 1 1 1 1 1 1 1 1 1 1 1 1 1 1 0 0 0 0 0 0 0 0 0 0 0 0 0 0 0 0 0 0 0 0 0 0 0 0 0 0 0 0 0 0 0 0 0 0 0 0 0 0 0 0 0 0 0 0 0 0 0 0 0 "/>
</feComponentTransfer>
<feComposite operator="in" in2="shape" in="coloredNoise1" result="noise1Clipped" />
<feFlood flood-color="rgba(194, 48, 48, 0.25)" result="color1Flood" />
<feComposite operator="in" in2="noise1Clipped" in="color1Flood" result="color1" />
<feMerge result="effect1_noise_1147_1020">
<feMergeNode in="shape" />
<feMergeNode in="color1" />
</feMerge>
</filter>
<filter id="filter2_n_1147_1020" x="665.959" y="288.086" width="112.092" height="59.7125" filterUnits="userSpaceOnUse" color-interpolation-filters="sRGB">
<feFlood flood-opacity="0" result="BackgroundImageFix"/>
<feBlend mode="normal" in="SourceGraphic" in2="BackgroundImageFix" result="shape"/>
<feTurbulence type="fractalNoise" baseFrequency="2 2" stitchTiles="stitch" numOctaves="3" result="noise" seed="4240" />
<feColorMatrix in="noise" type="luminanceToAlpha" result="alphaNoise" />
<feComponentTransfer in="alphaNoise" result="coloredNoise1">
<feFuncA type="discrete" tableValues="1 1 1 1 1 1 1 1 1 1 1 1 1 1 1 1 1 1 1 1 1 1 1 1 1 1 1 1 1 1 1 1 1 1 1 1 1 1 1 1 1 1 1 1 1 1 1 1 1 1 1 0 0 0 0 0 0 0 0 0 0 0 0 0 0 0 0 0 0 0 0 0 0 0 0 0 0 0 0 0 0 0 0 0 0 0 0 0 0 0 0 0 0 0 0 0 0 0 0 0 "/>
</feComponentTransfer>
<feComposite operator="in" in2="shape" in="coloredNoise1" result="noise1Clipped" />
<feFlood flood-color="rgba(240, 105, 105, 0.25)" result="color1Flood" />
<feComposite operator="in" in2="noise1Clipped" in="color1Flood" result="color1" />
<feMerge result="effect1_noise_1147_1020">
<feMergeNode in="shape" />
<feMergeNode in="color1" />
</feMerge>
</filter>
<filter id="filter3_n_1147_1020" x="141.118" y="223.136" width="143.52" height="121.52" filterUnits="userSpaceOnUse" color-interpolation-filters="sRGB">
<feFlood flood-opacity="0" result="BackgroundImageFix"/>
<feBlend mode="normal" in="SourceGraphic" in2="BackgroundImageFix" result="shape"/>
<feTurbulence type="fractalNoise" baseFrequency="2 2" stitchTiles="stitch" numOctaves="3" result="noise" seed="4240" />
<feColorMatrix in="noise" type="luminanceToAlpha" result="alphaNoise" />
<feComponentTransfer in="alphaNoise" result="coloredNoise1">
<feFuncA type="discrete" tableValues="1 1 1 1 1 1 1 1 1 1 1 1 1 1 1 1 1 1 1 1 1 1 1 1 1 1 1 1 1 1 1 1 1 1 1 1 1 1 1 1 1 1 1 1 1 1 1 1 1 1 1 0 0 0 0 0 0 0 0 0 0 0 0 0 0 0 0 0 0 0 0 0 0 0 0 0 0 0 0 0 0 0 0 0 0 0 0 0 0 0 0 0 0 0 0 0 0 0 0 0 "/>
</feComponentTransfer>
<feComposite operator="in" in2="shape" in="coloredNoise1" result="noise1Clipped" />
<feFlood flood-color="rgba(240, 105, 105, 0.25)" result="color1Flood" />
<feComposite operator="in" in2="noise1Clipped" in="color1Flood" result="color1" />
<feMerge result="effect1_noise_1147_1020">
<feMergeNode in="shape" />
<feMergeNode in="color1" />
</feMerge>
</filter>
<filter id="filter4_n_1147_1020" x="530.144" y="135.67" width="191.328" height="171.505" filterUnits="userSpaceOnUse" color-interpolation-filters="sRGB">
<feFlood flood-opacity="0" result="BackgroundImageFix"/>
<feBlend mode="normal" in="SourceGraphic" in2="BackgroundImageFix" result="shape"/>
<feTurbulence type="fractalNoise" baseFrequency="2 2" stitchTiles="stitch" numOctaves="3" result="noise" seed="4240" />
<feColorMatrix in="noise" type="luminanceToAlpha" result="alphaNoise" />
<feComponentTransfer in="alphaNoise" result="coloredNoise1">
<feFuncA type="discrete" tableValues="1 1 1 1 1 1 1 1 1 1 1 1 1 1 1 1 1 1 1 1 1 1 1 1 1 1 1 1 1 1 1 1 1 1 1 1 1 1 1 1 1 1 1 1 1 1 1 1 1 1 1 0 0 0 0 0 0 0 0 0 0 0 0 0 0 0 0 0 0 0 0 0 0 0 0 0 0 0 0 0 0 0 0 0 0 0 0 0 0 0 0 0 0 0 0 0 0 0 0 0 "/>
</feComponentTransfer>
<feComposite operator="in" in2="shape" in="coloredNoise1" result="noise1Clipped" />
<feFlood flood-color="rgba(240, 105, 105, 0.25)" result="color1Flood" />
<feComposite operator="in" in2="noise1Clipped" in="color1Flood" result="color1" />
<feMerge result="effect1_noise_1147_1020">
<feMergeNode in="shape" />
<feMergeNode in="color1" />
</feMerge>
</filter>
<filter id="filter5_n_1147_1020" x="228.068" y="112.092" width="219.993" height="157.138" filterUnits="userSpaceOnUse" color-interpolation-filters="sRGB">
<feFlood flood-opacity="0" result="BackgroundImageFix"/>
<feBlend mode="normal" in="SourceGraphic" in2="BackgroundImageFix" result="shape"/>
<feTurbulence type="fractalNoise" baseFrequency="2 2" stitchTiles="stitch" numOctaves="3" result="noise" seed="4240" />
<feColorMatrix in="noise" type="luminanceToAlpha" result="alphaNoise" />
<feComponentTransfer in="alphaNoise" result="coloredNoise1">
<feFuncA type="discrete" tableValues="1 1 1 1 1 1 1 1 1 1 1 1 1 1 1 1 1 1 1 1 1 1 1 1 1 1 1 1 1 1 1 1 1 1 1 1 1 1 1 1 1 1 1 1 1 1 1 1 1 1 1 0 0 0 0 0 0 0 0 0 0 0 0 0 0 0 0 0 0 0 0 0 0 0 0 0 0 0 0 0 0 0 0 0 0 0 0 0 0 0 0 0 0 0 0 0 0 0 0 0 "/>
</feComponentTransfer>
<feComposite operator="in" in2="shape" in="coloredNoise1" result="noise1Clipped" />
<feFlood flood-color="rgba(240, 105, 105, 0.25)" result="color1Flood" />
<feComposite operator="in" in2="noise1Clipped" in="color1Flood" result="color1" />
<feMerge result="effect1_noise_1147_1020">
<feMergeNode in="shape" />
<feMergeNode in="color1" />
</feMerge>
</filter>
<filter id="filter6_n_1147_1020" x="330.731" y="79.6167" width="163.424" height="116.282" filterUnits="userSpaceOnUse" color-interpolation-filters="sRGB">
<feFlood flood-opacity="0" result="BackgroundImageFix"/>
<feBlend mode="normal" in="SourceGraphic" in2="BackgroundImageFix" result="shape"/>
<feTurbulence type="fractalNoise" baseFrequency="2 2" stitchTiles="stitch" numOctaves="3" result="noise" seed="4240" />
<feColorMatrix in="noise" type="luminanceToAlpha" result="alphaNoise" />
<feComponentTransfer in="alphaNoise" result="coloredNoise1">
<feFuncA type="discrete" tableValues="1 1 1 1 1 1 1 1 1 1 1 1 1 1 1 1 1 1 1 1 1 1 1 1 1 1 1 1 1 1 1 1 1 1 1 1 1 1 1 1 1 1 1 1 1 1 1 1 1 1 1 0 0 0 0 0 0 0 0 0 0 0 0 0 0 0 0 0 0 0 0 0 0 0 0 0 0 0 0 0 0 0 0 0 0 0 0 0 0 0 0 0 0 0 0 0 0 0 0 0 "/>
</feComponentTransfer>
<feComposite operator="in" in2="shape" in="coloredNoise1" result="noise1Clipped" />
<feFlood flood-color="rgba(240, 105, 105, 0.25)" result="color1Flood" />
<feComposite operator="in" in2="noise1Clipped" in="color1Flood" result="color1" />
<feMerge result="effect1_noise_1147_1020">
<feMergeNode in="shape" />
<feMergeNode in="color1" />
</feMerge>
</filter>
<filter id="filter7_n_1147_1020" x="284.638" y="130.948" width="274.468" height="111.044" filterUnits="userSpaceOnUse" color-interpolation-filters="sRGB">
<feFlood flood-opacity="0" result="BackgroundImageFix"/>
<feBlend mode="normal" in="SourceGraphic" in2="BackgroundImageFix" result="shape"/>
<feTurbulence type="fractalNoise" baseFrequency="2 2" stitchTiles="stitch" numOctaves="3" result="noise" seed="4240" />
<feColorMatrix in="noise" type="luminanceToAlpha" result="alphaNoise" />
<feComponentTransfer in="alphaNoise" result="coloredNoise1">
<feFuncA type="discrete" tableValues="1 1 1 1 1 1 1 1 1 1 1 1 1 1 1 1 1 1 1 1 1 1 1 1 1 1 1 1 1 1 1 1 1 1 1 1 1 1 1 1 1 1 1 1 1 1 1 1 1 1 1 0 0 0 0 0 0 0 0 0 0 0 0 0 0 0 0 0 0 0 0 0 0 0 0 0 0 0 0 0 0 0 0 0 0 0 0 0 0 0 0 0 0 0 0 0 0 0 0 0 "/>
</feComponentTransfer>
<feComposite operator="in" in2="shape" in="coloredNoise1" result="noise1Clipped" />
<feFlood flood-color="rgba(240, 105, 105, 0.25)" result="color1Flood" />
<feComposite operator="in" in2="noise1Clipped" in="color1Flood" result="color1" />
<feMerge result="effect1_noise_1147_1020">
<feMergeNode in="shape" />
<feMergeNode in="color1" />
</feMerge>
</filter>
<filter id="filter8_n_1147_1020" x="395.682" y="87.9973" width="268.183" height="122.568" filterUnits="userSpaceOnUse" color-interpolation-filters="sRGB">
<feFlood flood-opacity="0" result="BackgroundImageFix"/>
<feBlend mode="normal" in="SourceGraphic" in2="BackgroundImageFix" result="shape"/>
<feTurbulence type="fractalNoise" baseFrequency="2 2" stitchTiles="stitch" numOctaves="3" result="noise" seed="4240" />
<feColorMatrix in="noise" type="luminanceToAlpha" result="alphaNoise" />
<feComponentTransfer in="alphaNoise" result="coloredNoise1">
<feFuncA type="discrete" tableValues="1 1 1 1 1 1 1 1 1 1 1 1 1 1 1 1 1 1 1 1 1 1 1 1 1 1 1 1 1 1 1 1 1 1 1 1 1 1 1 1 1 1 1 1 1 1 1 1 1 1 1 0 0 0 0 0 0 0 0 0 0 0 0 0 0 0 0 0 0 0 0 0 0 0 0 0 0 0 0 0 0 0 0 0 0 0 0 0 0 0 0 0 0 0 0 0 0 0 0 0 "/>
</feComponentTransfer>
<feComposite operator="in" in2="shape" in="coloredNoise1" result="noise1Clipped" />
<feFlood flood-color="rgba(240, 105, 105, 0.25)" result="color1Flood" />
<feComposite operator="in" in2="noise1Clipped" in="color1Flood" result="color1" />
<feMerge result="effect1_noise_1147_1020">
<feMergeNode in="shape" />
<feMergeNode in="color1" />
</feMerge>
</filter>
<filter id="filter9_n_1147_1020" x="372.635" y="202.184" width="227.326" height="96.3781" filterUnits="userSpaceOnUse" color-interpolation-filters="sRGB">
<feFlood flood-opacity="0" result="BackgroundImageFix"/>
<feBlend mode="normal" in="SourceGraphic" in2="BackgroundImageFix" result="shape"/>
<feTurbulence type="fractalNoise" baseFrequency="2 2" stitchTiles="stitch" numOctaves="3" result="noise" seed="4240" />
<feColorMatrix in="noise" type="luminanceToAlpha" result="alphaNoise" />
<feComponentTransfer in="alphaNoise" result="coloredNoise1">
<feFuncA type="discrete" tableValues="1 1 1 1 1 1 1 1 1 1 1 1 1 1 1 1 1 1 1 1 1 1 1 1 1 1 1 1 1 1 1 1 1 1 1 1 1 1 1 1 1 1 1 1 1 1 1 1 1 1 1 0 0 0 0 0 0 0 0 0 0 0 0 0 0 0 0 0 0 0 0 0 0 0 0 0 0 0 0 0 0 0 0 0 0 0 0 0 0 0 0 0 0 0 0 0 0 0 0 0 "/>
</feComponentTransfer>
<feComposite operator="in" in2="shape" in="coloredNoise1" result="noise1Clipped" />
<feFlood flood-color="rgba(240, 105, 105, 0.25)" result="color1Flood" />
<feComposite operator="in" in2="noise1Clipped" in="color1Flood" result="color1" />
<feMerge result="effect1_noise_1147_1020">
<feMergeNode in="shape" />
<feMergeNode in="color1" />
</feMerge>
</filter>
<filter id="filter10_n_1147_1020" x="493.107" y="0" width="340.466" height="332.085" filterUnits="userSpaceOnUse" color-interpolation-filters="sRGB">
<feFlood flood-opacity="0" result="BackgroundImageFix"/>
<feBlend mode="normal" in="SourceGraphic" in2="BackgroundImageFix" result="shape"/>
<feTurbulence type="fractalNoise" baseFrequency="10 10" stitchTiles="stitch" numOctaves="3" result="noise" seed="9372" />
<feColorMatrix in="noise" type="luminanceToAlpha" result="alphaNoise" />
<feComponentTransfer in="alphaNoise" result="coloredNoise1">
<feFuncA type="discrete" tableValues="1 1 1 1 1 1 1 1 1 1 1 1 1 1 1 1 1 1 1 1 1 1 1 1 1 1 1 1 1 1 1 1 1 1 1 1 1 1 1 1 1 1 1 1 1 1 1 1 1 1 1 0 0 0 0 0 0 0 0 0 0 0 0 0 0 0 0 0 0 0 0 0 0 0 0 0 0 0 0 0 0 0 0 0 0 0 0 0 0 0 0 0 0 0 0 0 0 0 0 0 "/>
</feComponentTransfer>
<feComposite operator="in" in2="shape" in="coloredNoise1" result="noise1Clipped" />
<feFlood flood-color="rgba(235, 63, 63, 0.2)" result="color1Flood" />
<feComposite operator="in" in2="noise1Clipped" in="color1Flood" result="color1" />
<feMerge result="effect1_noise_1147_1020">
<feMergeNode in="shape" />
<feMergeNode in="color1" />
</feMerge>
</filter>
<filter id="filter11_n_1147_1020" x="198.735" y="184.375" width="295.42" height="243.04" filterUnits="userSpaceOnUse" color-interpolation-filters="sRGB">
<feFlood flood-opacity="0" result="BackgroundImageFix"/>
<feBlend mode="normal" in="SourceGraphic" in2="BackgroundImageFix" result="shape"/>
<feTurbulence type="fractalNoise" baseFrequency="10 10" stitchTiles="stitch" numOctaves="3" result="noise" seed="6985" />
<feColorMatrix in="noise" type="luminanceToAlpha" result="alphaNoise" />
<feComponentTransfer in="alphaNoise" result="coloredNoise1">
<feFuncA type="discrete" tableValues="1 1 1 1 1 1 1 1 1 1 1 1 1 1 1 1 1 1 1 1 1 1 1 1 1 1 1 1 1 1 1 1 1 1 1 1 1 1 1 1 1 1 1 1 1 1 1 1 1 1 1 0 0 0 0 0 0 0 0 0 0 0 0 0 0 0 0 0 0 0 0 0 0 0 0 0 0 0 0 0 0 0 0 0 0 0 0 0 0 0 0 0 0 0 0 0 0 0 0 0 "/>
</feComponentTransfer>
<feComposite operator="in" in2="shape" in="coloredNoise1" result="noise1Clipped" />
<feFlood flood-color="rgba(113, 25, 25, 0.24)" result="color1Flood" />
<feComposite operator="in" in2="noise1Clipped" in="color1Flood" result="color1" />
<feMerge result="effect1_noise_1147_1020">
<feMergeNode in="shape" />
<feMergeNode in="color1" />
</feMerge>
</filter>
<filter id="filter12_n_1147_1020" x="374.895" y="60.76" width="271.12" height="491.318" filterUnits="userSpaceOnUse" color-interpolation-filters="sRGB">
<feFlood flood-opacity="0" result="BackgroundImageFix"/>
<feBlend mode="normal" in="SourceGraphic" in2="BackgroundImageFix" result="shape"/>
<feTurbulence type="fractalNoise" baseFrequency="10 10" stitchTiles="stitch" numOctaves="3" result="noise" seed="6985" />
<feColorMatrix in="noise" type="luminanceToAlpha" result="alphaNoise" />
<feComponentTransfer in="alphaNoise" result="coloredNoise1">
<feFuncA type="discrete" tableValues="1 1 1 1 1 1 1 1 1 1 1 1 1 1 1 1 1 1 1 1 1 1 1 1 1 1 1 1 1 1 1 1 1 1 1 1 1 1 1 1 1 1 1 1 1 1 1 1 1 1 1 0 0 0 0 0 0 0 0 0 0 0 0 0 0 0 0 0 0 0 0 0 0 0 0 0 0 0 0 0 0 0 0 0 0 0 0 0 0 0 0 0 0 0 0 0 0 0 0 0 "/>
</feComponentTransfer>
<feComposite operator="in" in2="shape" in="coloredNoise1" result="noise1Clipped" />
<feFlood flood-color="rgba(113, 25, 25, 0.13)" result="color1Flood" />
<feComposite operator="in" in2="noise1Clipped" in="color1Flood" result="color1" />
<feMerge result="effect1_noise_1147_1020">
<feMergeNode in="shape" />
<feMergeNode in="color1" />
</feMerge>
</filter>
<filter id="filter13_n_1147_1020" x="478.113" y="243.472" width="275.937" height="189.436" filterUnits="userSpaceOnUse" color-interpolation-filters="sRGB">
<feFlood flood-opacity="0" result="BackgroundImageFix"/>
<feBlend mode="normal" in="SourceGraphic" in2="BackgroundImageFix" result="shape"/>
<feTurbulence type="fractalNoise" baseFrequency="10 10" stitchTiles="stitch" numOctaves="3" result="noise" seed="6985" />
<feColorMatrix in="noise" type="luminanceToAlpha" result="alphaNoise" />
<feComponentTransfer in="alphaNoise" result="coloredNoise1">
<feFuncA type="discrete" tableValues="1 1 1 1 1 1 1 1 1 1 1 1 1 1 1 1 1 1 1 1 1 1 1 1 1 1 1 1 1 1 1 1 1 1 1 1 1 1 1 1 1 1 1 1 1 1 1 1 1 1 1 0 0 0 0 0 0 0 0 0 0 0 0 0 0 0 0 0 0 0 0 0 0 0 0 0 0 0 0 0 0 0 0 0 0 0 0 0 0 0 0 0 0 0 0 0 0 0 0 0 "/>
</feComponentTransfer>
<feComposite operator="in" in2="shape" in="coloredNoise1" result="noise1Clipped" />
<feFlood flood-color="rgba(140, 67, 67, 0.24)" result="color1Flood" />
<feComposite operator="in" in2="noise1Clipped" in="color1Flood" result="color1" />
<feMerge result="effect1_noise_1147_1020">
<feMergeNode in="shape" />
<feMergeNode in="color1" />
</feMerge>
</filter>
<filter id="filter14_n_1147_1020" x="354.826" y="135.139" width="217.898" height="116.282" filterUnits="userSpaceOnUse" color-interpolation-filters="sRGB">
<feFlood flood-opacity="0" result="BackgroundImageFix"/>
<feBlend mode="normal" in="SourceGraphic" in2="BackgroundImageFix" result="shape"/>
<feTurbulence type="fractalNoise" baseFrequency="2 2" stitchTiles="stitch" numOctaves="3" result="noise" seed="4240" />
<feColorMatrix in="noise" type="luminanceToAlpha" result="alphaNoise" />
<feComponentTransfer in="alphaNoise" result="coloredNoise1">
<feFuncA type="discrete" tableValues="1 1 1 1 1 1 1 1 1 1 1 1 1 1 1 1 1 1 1 1 1 1 1 1 1 1 1 1 1 1 1 1 1 1 1 1 1 1 1 1 1 1 1 1 1 1 1 1 1 1 1 0 0 0 0 0 0 0 0 0 0 0 0 0 0 0 0 0 0 0 0 0 0 0 0 0 0 0 0 0 0 0 0 0 0 0 0 0 0 0 0 0 0 0 0 0 0 0 0 0 "/>
</feComponentTransfer>
<feComposite operator="in" in2="shape" in="coloredNoise1" result="noise1Clipped" />
<feFlood flood-color="rgba(240, 105, 105, 0.25)" result="color1Flood" />
<feComposite operator="in" in2="noise1Clipped" in="color1Flood" result="color1" />
<feMerge result="effect1_noise_1147_1020">
<feMergeNode in="shape" />
<feMergeNode in="color1" />
</feMerge>
</filter>
<filter id="filter15_n_1147_1020" x="605.199" y="135.139" width="148.758" height="79.6166" filterUnits="userSpaceOnUse" color-interpolation-filters="sRGB">
<feFlood flood-opacity="0" result="BackgroundImageFix"/>
<feBlend mode="normal" in="SourceGraphic" in2="BackgroundImageFix" result="shape"/>
<feTurbulence type="fractalNoise" baseFrequency="2 2" stitchTiles="stitch" numOctaves="3" result="noise" seed="4240" />
<feColorMatrix in="noise" type="luminanceToAlpha" result="alphaNoise" />
<feComponentTransfer in="alphaNoise" result="coloredNoise1">
<feFuncA type="discrete" tableValues="1 1 1 1 1 1 1 1 1 1 1 1 1 1 1 1 1 1 1 1 1 1 1 1 1 1 1 1 1 1 1 1 1 1 1 1 1 1 1 1 1 1 1 1 1 1 1 1 1 1 1 0 0 0 0 0 0 0 0 0 0 0 0 0 0 0 0 0 0 0 0 0 0 0 0 0 0 0 0 0 0 0 0 0 0 0 0 0 0 0 0 0 0 0 0 0 0 0 0 0 "/>
</feComponentTransfer>
<feComposite operator="in" in2="shape" in="coloredNoise1" result="noise1Clipped" />
<feFlood flood-color="rgba(240, 105, 105, 0.25)" result="color1Flood" />
<feComposite operator="in" in2="noise1Clipped" in="color1Flood" result="color1" />
<feMerge result="effect1_noise_1147_1020">
<feMergeNode in="shape" />
<feMergeNode in="color1" />
</feMerge>
</filter>
<linearGradient id="paint0_linear_1147_1020" x1="478.299" y1="620.254" x2="478.299" y2="813.06" gradientUnits="userSpaceOnUse">
<stop stop-color="#DC9F8B"/>
<stop offset="0.811997" stop-color="#D78A7F"/>
</linearGradient>
<linearGradient id="paint1_linear_1147_1020" x1="61.0385" y1="664.416" x2="539.731" y2="716.196" gradientUnits="userSpaceOnUse">
<stop stop-color="#7A3D4B"/>
<stop offset="1" stop-color="#A05652"/>
</linearGradient>
<linearGradient id="paint2_linear_1147_1020" x1="351.829" y1="708.243" x2="311.774" y2="777.627" gradientUnits="userSpaceOnUse">
<stop stop-color="#833F3B"/>
<stop offset="1" stop-color="#924D49"/>
</linearGradient>
<linearGradient id="paint3_linear_1147_1020" x1="157.223" y1="648.185" x2="387.432" y2="769.428" gradientUnits="userSpaceOnUse">
<stop stop-color="#7B3944"/>
<stop offset="0.5" stop-color="#7F3D4A"/>
<stop offset="1" stop-color="#7E3945"/>
</linearGradient>
<linearGradient id="paint4_linear_1147_1020" x1="157.223" y1="648.185" x2="387.432" y2="769.428" gradientUnits="userSpaceOnUse">
<stop stop-color="#7B3944"/>
<stop offset="0.5" stop-color="#7F3D4A"/>
<stop offset="1" stop-color="#7E3945"/>
</linearGradient>
<linearGradient id="paint5_linear_1147_1020" x1="157.223" y1="648.185" x2="387.432" y2="769.428" gradientUnits="userSpaceOnUse">
<stop stop-color="#7B3944"/>
<stop offset="0.5" stop-color="#7F3D4A"/>
<stop offset="1" stop-color="#7E3945"/>
</linearGradient>
<linearGradient id="paint6_linear_1147_1020" x1="157.223" y1="648.185" x2="387.432" y2="769.428" gradientUnits="userSpaceOnUse">
<stop stop-color="#7B3944"/>
<stop offset="0.5" stop-color="#7F3D4A"/>
<stop offset="1" stop-color="#7E3945"/>
</linearGradient>
<linearGradient id="paint7_linear_1147_1020" x1="157.223" y1="648.185" x2="387.432" y2="769.428" gradientUnits="userSpaceOnUse">
<stop stop-color="#7B3944"/>
<stop offset="0.5" stop-color="#7F3D4A"/>
<stop offset="1" stop-color="#7E3945"/>
</linearGradient>
<linearGradient id="paint8_linear_1147_1020" x1="175.18" y1="636.73" x2="175.18" y2="692.205" gradientUnits="userSpaceOnUse">
<stop stop-color="#98403A"/>
<stop offset="1" stop-color="#9F5D59" stop-opacity="0.41"/>
</linearGradient>
<linearGradient id="paint9_linear_1147_1020" x1="175.18" y1="636.73" x2="175.18" y2="692.205" gradientUnits="userSpaceOnUse">
<stop stop-color="#98403A"/>
<stop offset="1" stop-color="#9F5D59" stop-opacity="0.41"/>
</linearGradient>
<linearGradient id="paint10_linear_1147_1020" x1="105.671" y1="636.73" x2="105.671" y2="692.623" gradientUnits="userSpaceOnUse">
<stop stop-color="#8D4844"/>
<stop offset="1" stop-color="#7A3D4B"/>
</linearGradient>
<linearGradient id="paint11_linear_1147_1020" x1="91.6792" y1="649.547" x2="76.1795" y2="662.532" gradientUnits="userSpaceOnUse">
<stop stop-color="#7A3444"/>
<stop offset="1" stop-color="#7B3E4B"/>
</linearGradient>
<linearGradient id="paint12_linear_1147_1020" x1="238.962" y1="668.271" x2="318.385" y2="790.631" gradientUnits="userSpaceOnUse">
<stop stop-color="#C67465"/>
<stop offset="1" stop-color="#DC927D"/>
</linearGradient>
<linearGradient id="paint13_linear_1147_1020" x1="238.962" y1="668.271" x2="318.385" y2="790.631" gradientUnits="userSpaceOnUse">
<stop stop-color="#C67465"/>
<stop offset="1" stop-color="#DC927D"/>
</linearGradient>
<linearGradient id="paint14_linear_1147_1020" x1="238.962" y1="668.271" x2="318.385" y2="790.631" gradientUnits="userSpaceOnUse">
<stop stop-color="#C67465"/>
<stop offset="1" stop-color="#DC927D"/>
</linearGradient>
<linearGradient id="paint15_linear_1147_1020" x1="238.962" y1="668.271" x2="318.385" y2="790.631" gradientUnits="userSpaceOnUse">
<stop stop-color="#C67465"/>
<stop offset="1" stop-color="#DC927D"/>
</linearGradient>
<linearGradient id="paint16_linear_1147_1020" x1="863.148" y1="680.411" x2="707.3" y2="648.722" gradientUnits="userSpaceOnUse">
<stop stop-color="#D58C75"/>
<stop offset="0.454968" stop-color="#CE7662"/>
</linearGradient>
<linearGradient id="paint17_linear_1147_1020" x1="863.148" y1="680.411" x2="707.3" y2="648.722" gradientUnits="userSpaceOnUse">
<stop stop-color="#D58C75"/>
<stop offset="0.454968" stop-color="#CE7662"/>
</linearGradient>
<linearGradient id="paint18_linear_1147_1020" x1="723.68" y1="635.612" x2="723.68" y2="693.644" gradientUnits="userSpaceOnUse">
<stop stop-color="#A35B48"/>
<stop offset="0.5" stop-color="#C17468"/>
<stop offset="0.983041" stop-color="#B95551"/>
</linearGradient>
<linearGradient id="paint19_linear_1147_1020" x1="723.68" y1="635.612" x2="723.68" y2="693.644" gradientUnits="userSpaceOnUse">
<stop stop-color="#A35B48"/>
<stop offset="0.5" stop-color="#C17468"/>
<stop offset="0.983041" stop-color="#B95551"/>
</linearGradient>
<linearGradient id="paint20_linear_1147_1020" x1="723.68" y1="635.612" x2="723.68" y2="693.644" gradientUnits="userSpaceOnUse">
<stop stop-color="#A35B48"/>
<stop offset="0.5" stop-color="#C17468"/>
<stop offset="0.983041" stop-color="#B95551"/>
</linearGradient>
<linearGradient id="paint21_linear_1147_1020" x1="723.68" y1="635.612" x2="723.68" y2="693.644" gradientUnits="userSpaceOnUse">
<stop stop-color="#A35B48"/>
<stop offset="0.5" stop-color="#C17468"/>
<stop offset="0.983041" stop-color="#B95551"/>
</linearGradient>
<linearGradient id="paint22_linear_1147_1020" x1="723.68" y1="635.612" x2="723.68" y2="693.644" gradientUnits="userSpaceOnUse">
<stop stop-color="#A35B48"/>
<stop offset="0.5" stop-color="#C17468"/>
<stop offset="0.983041" stop-color="#B95551"/>
</linearGradient>
<linearGradient id="paint23_linear_1147_1020" x1="723.68" y1="635.612" x2="723.68" y2="693.644" gradientUnits="userSpaceOnUse">
<stop stop-color="#A35B48"/>
<stop offset="0.5" stop-color="#C17468"/>
<stop offset="0.983041" stop-color="#B95551"/>
</linearGradient>
<linearGradient id="paint24_linear_1147_1020" x1="723.68" y1="635.612" x2="723.68" y2="693.644" gradientUnits="userSpaceOnUse">
<stop stop-color="#A35B48"/>
<stop offset="0.5" stop-color="#C17468"/>
<stop offset="0.983041" stop-color="#B95551"/>
</linearGradient>
<linearGradient id="paint25_linear_1147_1020" x1="723.68" y1="635.612" x2="723.68" y2="693.644" gradientUnits="userSpaceOnUse">
<stop stop-color="#A35B48"/>
<stop offset="0.5" stop-color="#C17468"/>
<stop offset="0.983041" stop-color="#B95551"/>
</linearGradient>
<linearGradient id="paint26_linear_1147_1020" x1="723.68" y1="635.612" x2="723.68" y2="693.644" gradientUnits="userSpaceOnUse">
<stop stop-color="#A35B48"/>
<stop offset="0.5" stop-color="#C17468"/>
<stop offset="0.983041" stop-color="#B95551"/>
</linearGradient>
<linearGradient id="paint27_linear_1147_1020" x1="723.68" y1="635.612" x2="723.68" y2="693.644" gradientUnits="userSpaceOnUse">
<stop stop-color="#A35B48"/>
<stop offset="0.5" stop-color="#C17468"/>
<stop offset="0.983041" stop-color="#B95551"/>
</linearGradient>
<linearGradient id="paint28_linear_1147_1020" x1="723.68" y1="635.612" x2="723.68" y2="693.644" gradientUnits="userSpaceOnUse">
<stop stop-color="#A35B48"/>
<stop offset="0.5" stop-color="#C17468"/>
<stop offset="0.983041" stop-color="#B95551"/>
</linearGradient>
<linearGradient id="paint29_linear_1147_1020" x1="723.68" y1="635.612" x2="723.68" y2="693.644" gradientUnits="userSpaceOnUse">
<stop stop-color="#A35B48"/>
<stop offset="0.5" stop-color="#C17468"/>
<stop offset="0.983041" stop-color="#B95551"/>
</linearGradient>
<linearGradient id="paint30_linear_1147_1020" x1="723.68" y1="635.612" x2="723.68" y2="693.644" gradientUnits="userSpaceOnUse">
<stop stop-color="#A35B48"/>
<stop offset="0.5" stop-color="#C17468"/>
<stop offset="0.983041" stop-color="#B95551"/>
</linearGradient>
<linearGradient id="paint31_linear_1147_1020" x1="723.68" y1="635.612" x2="723.68" y2="693.644" gradientUnits="userSpaceOnUse">
<stop stop-color="#A35B48"/>
<stop offset="0.5" stop-color="#C17468"/>
<stop offset="0.983041" stop-color="#B95551"/>
</linearGradient>
<linearGradient id="paint32_linear_1147_1020" x1="0" y1="629.615" x2="666.466" y2="629.615" gradientUnits="userSpaceOnUse">
<stop stop-color="#F3B098"/>
<stop offset="1" stop-color="#FBCFB9"/>
</linearGradient>
<linearGradient id="paint33_linear_1147_1020" x1="444.398" y1="613.875" x2="444.398" y2="662.21" gradientUnits="userSpaceOnUse">
<stop stop-color="#E6A47D"/>
<stop offset="0.5" stop-color="#D69981"/>
<stop offset="1" stop-color="#E6B89E"/>
</linearGradient>
<linearGradient id="paint34_linear_1147_1020" x1="444.398" y1="613.875" x2="444.398" y2="662.21" gradientUnits="userSpaceOnUse">
<stop stop-color="#E6A47D"/>
<stop offset="0.5" stop-color="#D69981"/>
<stop offset="1" stop-color="#E6B89E"/>
</linearGradient>
<linearGradient id="paint35_linear_1147_1020" x1="444.398" y1="613.875" x2="444.398" y2="662.21" gradientUnits="userSpaceOnUse">
<stop stop-color="#E6A47D"/>
<stop offset="0.5" stop-color="#D69981"/>
<stop offset="1" stop-color="#E6B89E"/>
</linearGradient>
<linearGradient id="paint36_linear_1147_1020" x1="444.398" y1="613.875" x2="444.398" y2="662.21" gradientUnits="userSpaceOnUse">
<stop stop-color="#E6A47D"/>
<stop offset="0.5" stop-color="#D69981"/>
<stop offset="1" stop-color="#E6B89E"/>
</linearGradient>
<linearGradient id="paint37_linear_1147_1020" x1="444.398" y1="613.875" x2="444.398" y2="662.21" gradientUnits="userSpaceOnUse">
<stop stop-color="#E6A47D"/>
<stop offset="0.5" stop-color="#D69981"/>
<stop offset="1" stop-color="#E6B89E"/>
</linearGradient>
<linearGradient id="paint38_linear_1147_1020" x1="444.398" y1="613.875" x2="444.398" y2="662.21" gradientUnits="userSpaceOnUse">
<stop stop-color="#E6A47D"/>
<stop offset="0.5" stop-color="#D69981"/>
<stop offset="1" stop-color="#E6B89E"/>
</linearGradient>
<linearGradient id="paint39_linear_1147_1020" x1="444.398" y1="613.875" x2="444.398" y2="662.21" gradientUnits="userSpaceOnUse">
<stop stop-color="#E6A47D"/>
<stop offset="0.5" stop-color="#D69981"/>
<stop offset="1" stop-color="#E6B89E"/>
</linearGradient>
<linearGradient id="paint40_linear_1147_1020" x1="444.398" y1="613.875" x2="444.398" y2="662.21" gradientUnits="userSpaceOnUse">
<stop stop-color="#E6A47D"/>
<stop offset="0.5" stop-color="#D69981"/>
<stop offset="1" stop-color="#E6B89E"/>
</linearGradient>
<linearGradient id="paint41_linear_1147_1020" x1="444.398" y1="613.875" x2="444.398" y2="662.21" gradientUnits="userSpaceOnUse">
<stop stop-color="#E6A47D"/>
<stop offset="0.5" stop-color="#D69981"/>
<stop offset="1" stop-color="#E6B89E"/>
</linearGradient>
<linearGradient id="paint42_linear_1147_1020" x1="444.398" y1="613.875" x2="444.398" y2="662.21" gradientUnits="userSpaceOnUse">
<stop stop-color="#E6A47D"/>
<stop offset="0.5" stop-color="#D69981"/>
<stop offset="1" stop-color="#E6B89E"/>
</linearGradient>
<linearGradient id="paint43_linear_1147_1020" x1="444.398" y1="613.875" x2="444.398" y2="662.21" gradientUnits="userSpaceOnUse">
<stop stop-color="#E6A47D"/>
<stop offset="0.5" stop-color="#D69981"/>
<stop offset="1" stop-color="#E6B89E"/>
</linearGradient>
<linearGradient id="paint44_linear_1147_1020" x1="444.398" y1="613.875" x2="444.398" y2="662.21" gradientUnits="userSpaceOnUse">
<stop stop-color="#E6A47D"/>
<stop offset="0.5" stop-color="#D69981"/>
<stop offset="1" stop-color="#E6B89E"/>
</linearGradient>
<linearGradient id="paint45_linear_1147_1020" x1="444.398" y1="613.875" x2="444.398" y2="662.21" gradientUnits="userSpaceOnUse">
<stop stop-color="#E6A47D"/>
<stop offset="0.5" stop-color="#D69981"/>
<stop offset="1" stop-color="#E6B89E"/>
</linearGradient>
<linearGradient id="paint46_linear_1147_1020" x1="444.398" y1="613.875" x2="444.398" y2="662.21" gradientUnits="userSpaceOnUse">
<stop stop-color="#E6A47D"/>
<stop offset="0.5" stop-color="#D69981"/>
<stop offset="1" stop-color="#E6B89E"/>
</linearGradient>
<linearGradient id="paint47_linear_1147_1020" x1="444.398" y1="613.875" x2="444.398" y2="662.21" gradientUnits="userSpaceOnUse">
<stop stop-color="#E6A47D"/>
<stop offset="0.5" stop-color="#D69981"/>
<stop offset="1" stop-color="#E6B89E"/>
</linearGradient>
<linearGradient id="paint48_linear_1147_1020" x1="444.398" y1="613.875" x2="444.398" y2="662.21" gradientUnits="userSpaceOnUse">
<stop stop-color="#E6A47D"/>
<stop offset="0.5" stop-color="#D69981"/>
<stop offset="1" stop-color="#E6B89E"/>
</linearGradient>
<linearGradient id="paint49_linear_1147_1020" x1="444.398" y1="613.875" x2="444.398" y2="662.21" gradientUnits="userSpaceOnUse">
<stop stop-color="#E6A47D"/>
<stop offset="0.5" stop-color="#D69981"/>
<stop offset="1" stop-color="#E6B89E"/>
</linearGradient>
<linearGradient id="paint50_linear_1147_1020" x1="6.88477" y1="610.426" x2="286.702" y2="610.426" gradientUnits="userSpaceOnUse">
<stop stop-color="#E9AA9E"/>
<stop offset="1" stop-color="#E07F6F"/>
</linearGradient>
<linearGradient id="paint51_linear_1147_1020" x1="201.104" y1="587.688" x2="623.365" y2="587.688" gradientUnits="userSpaceOnUse">
<stop stop-color="#99523A"/>
<stop offset="0.471884" stop-color="#CE7E55"/>
<stop offset="0.978905" stop-color="#F2AA7A"/>
</linearGradient>
<linearGradient id="paint52_linear_1147_1020" x1="201.103" y1="585.481" x2="588.097" y2="580.485" gradientUnits="userSpaceOnUse">
<stop stop-color="#8C452D"/>
<stop offset="0.5" stop-color="#82402A"/>
<stop offset="1" stop-color="#A35931"/>
</linearGradient>
<linearGradient id="paint53_linear_1147_1020" x1="576.064" y1="563.58" x2="590.61" y2="628.139" gradientUnits="userSpaceOnUse">
<stop stop-color="#B87243"/>
<stop offset="1" stop-color="#DD9765"/>
</linearGradient>
<linearGradient id="paint54_linear_1147_1020" x1="576.064" y1="563.58" x2="590.61" y2="628.139" gradientUnits="userSpaceOnUse">
<stop stop-color="#B87243"/>
<stop offset="1" stop-color="#DD9765"/>
</linearGradient>
<linearGradient id="paint55_linear_1147_1020" x1="576.064" y1="563.58" x2="590.61" y2="628.139" gradientUnits="userSpaceOnUse">
<stop stop-color="#B87243"/>
<stop offset="1" stop-color="#DD9765"/>
</linearGradient>
<linearGradient id="paint56_linear_1147_1020" x1="576.064" y1="563.58" x2="590.61" y2="628.139" gradientUnits="userSpaceOnUse">
<stop stop-color="#B87243"/>
<stop offset="1" stop-color="#DD9765"/>
</linearGradient>
<linearGradient id="paint57_linear_1147_1020" x1="576.064" y1="563.58" x2="590.61" y2="628.139" gradientUnits="userSpaceOnUse">
<stop stop-color="#B87243"/>
<stop offset="1" stop-color="#DD9765"/>
</linearGradient>
<linearGradient id="paint58_linear_1147_1020" x1="576.064" y1="563.58" x2="590.61" y2="628.139" gradientUnits="userSpaceOnUse">
<stop stop-color="#B87243"/>
<stop offset="1" stop-color="#DD9765"/>
</linearGradient>
<linearGradient id="paint59_linear_1147_1020" x1="722.005" y1="288.086" x2="722.005" y2="347.799" gradientUnits="userSpaceOnUse">
<stop stop-color="#E9CBC7"/>
<stop offset="1" stop-color="#D9ADA9"/>
</linearGradient>
<linearGradient id="paint60_linear_1147_1020" x1="212.878" y1="223.136" x2="212.878" y2="344.656" gradientUnits="userSpaceOnUse">
<stop stop-color="#C27876"/>
<stop offset="1" stop-color="#D9B0AD"/>
</linearGradient>
<linearGradient id="paint61_linear_1147_1020" x1="212.878" y1="223.136" x2="212.878" y2="344.656" gradientUnits="userSpaceOnUse">
<stop stop-color="#C27876"/>
<stop offset="1" stop-color="#D9B0AD"/>
</linearGradient>
<linearGradient id="paint62_linear_1147_1020" x1="212.878" y1="223.136" x2="212.878" y2="344.656" gradientUnits="userSpaceOnUse">
<stop stop-color="#C27876"/>
<stop offset="1" stop-color="#D9B0AD"/>
</linearGradient>
<linearGradient id="paint63_linear_1147_1020" x1="212.878" y1="223.136" x2="212.878" y2="344.656" gradientUnits="userSpaceOnUse">
<stop stop-color="#C27876"/>
<stop offset="1" stop-color="#D9B0AD"/>
</linearGradient>
<linearGradient id="paint64_linear_1147_1020" x1="212.878" y1="223.136" x2="212.878" y2="344.656" gradientUnits="userSpaceOnUse">
<stop stop-color="#C27876"/>
<stop offset="1" stop-color="#D9B0AD"/>
</linearGradient>
<linearGradient id="paint65_linear_1147_1020" x1="212.878" y1="223.136" x2="212.878" y2="344.656" gradientUnits="userSpaceOnUse">
<stop stop-color="#C27876"/>
<stop offset="1" stop-color="#D9B0AD"/>
</linearGradient>
<linearGradient id="paint66_linear_1147_1020" x1="212.878" y1="223.136" x2="212.878" y2="344.656" gradientUnits="userSpaceOnUse">
<stop stop-color="#C27876"/>
<stop offset="1" stop-color="#D9B0AD"/>
</linearGradient>
<linearGradient id="paint67_linear_1147_1020" x1="501.936" y1="282.88" x2="712.908" y2="186.74" gradientUnits="userSpaceOnUse">
<stop offset="1" stop-color="#D67E7C"/>
</linearGradient>
<linearGradient id="paint68_linear_1147_1020" x1="338.065" y1="112.092" x2="338.065" y2="269.23" gradientUnits="userSpaceOnUse">
<stop stop-color="#E4C9C5"/>
<stop offset="1" stop-color="#C57D7A"/>
</linearGradient>
<linearGradient id="paint69_linear_1147_1020" x1="412.443" y1="79.6167" x2="412.443" y2="195.899" gradientUnits="userSpaceOnUse">
<stop offset="1" stop-color="#C47C79"/>
</linearGradient>
<linearGradient id="paint70_linear_1147_1020" x1="421.872" y1="130.948" x2="421.872" y2="241.993" gradientUnits="userSpaceOnUse">
<stop stop-color="#BE6765"/>
<stop offset="1" stop-color="#D58D8A"/>
</linearGradient>
<linearGradient id="paint71_linear_1147_1020" x1="544.953" y1="-29.516" x2="529.807" y2="210.567" gradientUnits="userSpaceOnUse">
<stop offset="1" stop-color="#CE7371"/>
</linearGradient>
<linearGradient id="paint72_linear_1147_1020" x1="486.298" y1="298.562" x2="486.298" y2="202.184" gradientUnits="userSpaceOnUse">
<stop stop-color="#BA8583"/>
<stop offset="1" stop-color="#C18D8B"/>
</linearGradient>
<linearGradient id="paint73_linear_1147_1020" x1="413.491" y1="4.19043" x2="341.157" y2="95.7532" gradientUnits="userSpaceOnUse">
<stop stop-color="#E2BFBC"/>
<stop offset="0.5" stop-color="#E29D9A"/>
<stop offset="1" stop-color="#D47A78"/>
</linearGradient>
<linearGradient id="paint74_linear_1147_1020" x1="413.491" y1="4.19043" x2="341.157" y2="95.7532" gradientUnits="userSpaceOnUse">
<stop stop-color="#E2BFBC"/>
<stop offset="0.5" stop-color="#E29D9A"/>
<stop offset="1" stop-color="#D47A78"/>
</linearGradient>
<linearGradient id="paint75_linear_1147_1020" x1="413.491" y1="4.19043" x2="341.157" y2="95.7532" gradientUnits="userSpaceOnUse">
<stop stop-color="#E2BFBC"/>
<stop offset="0.5" stop-color="#E29D9A"/>
<stop offset="1" stop-color="#D47A78"/>
</linearGradient>
<linearGradient id="paint76_linear_1147_1020" x1="413.491" y1="4.19043" x2="341.157" y2="95.7532" gradientUnits="userSpaceOnUse">
<stop stop-color="#E2BFBC"/>
<stop offset="0.5" stop-color="#E29D9A"/>
<stop offset="1" stop-color="#D47A78"/>
</linearGradient>
<linearGradient id="paint77_linear_1147_1020" x1="413.491" y1="4.19043" x2="341.157" y2="95.7532" gradientUnits="userSpaceOnUse">
<stop stop-color="#E2BFBC"/>
<stop offset="0.5" stop-color="#E29D9A"/>
<stop offset="1" stop-color="#D47A78"/>
</linearGradient>
<linearGradient id="paint78_linear_1147_1020" x1="662.258" y1="0.351022" x2="765.515" y2="314.973" gradientUnits="userSpaceOnUse">
<stop stop-color="#E2BFBC"/>
<stop offset="0.5" stop-color="#E3ADA9"/>
<stop offset="1" stop-color="#D47A78"/>
</linearGradient>
<linearGradient id="paint79_linear_1147_1020" x1="662.258" y1="0.351022" x2="765.515" y2="314.973" gradientUnits="userSpaceOnUse">
<stop stop-color="#E2BFBC"/>
<stop offset="0.5" stop-color="#E3ADA9"/>
<stop offset="1" stop-color="#D47A78"/>
</linearGradient>
<linearGradient id="paint80_linear_1147_1020" x1="662.258" y1="0.351022" x2="765.515" y2="314.973" gradientUnits="userSpaceOnUse">
<stop stop-color="#E2BFBC"/>
<stop offset="0.5" stop-color="#E3ADA9"/>
<stop offset="1" stop-color="#D47A78"/>
</linearGradient>
<linearGradient id="paint81_linear_1147_1020" x1="662.258" y1="0.351022" x2="765.515" y2="314.973" gradientUnits="userSpaceOnUse">
<stop stop-color="#E2BFBC"/>
<stop offset="0.5" stop-color="#E3ADA9"/>
<stop offset="1" stop-color="#D47A78"/>
</linearGradient>
<linearGradient id="paint82_linear_1147_1020" x1="662.258" y1="0.351022" x2="765.515" y2="314.973" gradientUnits="userSpaceOnUse">
<stop stop-color="#E2BFBC"/>
<stop offset="0.5" stop-color="#E3ADA9"/>
<stop offset="1" stop-color="#D47A78"/>
</linearGradient>
<linearGradient id="paint83_linear_1147_1020" x1="346.445" y1="184.375" x2="482.411" y2="420.552" gradientUnits="userSpaceOnUse">
<stop stop-color="#864945"/>
<stop offset="0.5" stop-color="#8C726D"/>
<stop offset="1" stop-color="#42312E"/>
</linearGradient>
<linearGradient id="paint84_linear_1147_1020" x1="571.673" y1="89.6005" x2="495.34" y2="549.387" gradientUnits="userSpaceOnUse">
<stop stop-color="#8B4743"/>
<stop offset="0.505658" stop-color="#684D45"/>
<stop offset="0.865385" stop-color="#927269"/>
<stop offset="0.9999" stop-color="#6E4F4A"/>
</linearGradient>
<linearGradient id="paint85_linear_1147_1020" x1="736.847" y1="238.655" x2="568.945" y2="419.631" gradientUnits="userSpaceOnUse">
<stop stop-color="#744644"/>
<stop offset="1" stop-color="#81635B"/>
</linearGradient>
<linearGradient id="paint86_linear_1147_1020" x1="463.775" y1="135.139" x2="463.775" y2="251.421" gradientUnits="userSpaceOnUse">
<stop stop-color="#EAC8C6"/>
<stop offset="1" stop-color="#DBAAA7"/>
</linearGradient>
<linearGradient id="paint87_linear_1147_1020" x1="679.578" y1="135.139" x2="679.578" y2="214.755" gradientUnits="userSpaceOnUse">
<stop stop-color="#EAC8C6"/>
<stop offset="1" stop-color="#DBAAA7"/>
</linearGradient>
</defs>
</svg>

