<svg width="963" height="276" viewBox="0 0 963 276" fill="none" xmlns="http://www.w3.org/2000/svg">
<g filter="url(#filter0_n_1146_231)">
<path d="M33.1627 128.279L6.3397 101.159C4.48286 99.2812 3.44141 96.7472 3.44141 94.1067C3.44141 88.571 7.92687 84.0823 13.4626 84.0784L942.688 83.4193C948.469 83.4152 953.157 88.1003 953.157 93.881C953.157 96.8208 951.92 99.6249 949.749 101.607L934.093 115.901L910.356 136.808C903.392 142.941 894.966 147.176 885.889 149.105L792.76 168.894C783.698 170.819 775.349 175.225 768.645 181.618C744.559 204.589 713.391 218.706 680.24 221.66L616.631 227.327C611.548 227.78 606.72 229.544 602.426 232.303C582.443 245.141 519.901 281.964 470.44 274.542C416.066 266.382 378.194 244.293 362.655 233.758C357.42 230.208 351.357 227.876 345.036 227.612L287.436 225.213C255.902 223.899 225.629 212.472 201.093 192.62L184.061 178.84C176.956 173.092 168.508 169.24 159.509 167.647L100.425 157.187C97.269 156.629 94.1693 155.79 91.1623 154.682L51.4197 140.033C44.5465 137.5 38.3139 133.487 33.1627 128.279Z" fill="url(#paint0_linear_1146_231)"/>
<path d="M31.8989 128.56L5.15315 101.404C3.30029 99.5228 2.26172 96.9883 2.26172 94.3477C2.26172 88.7967 6.75958 84.2956 12.3106 84.2917L535.25 83.9192C541.881 83.9145 547.259 89.2885 547.259 95.9192V127.825C546.781 144.893 541.323 167.449 538.654 176.594C532.864 195.002 511.6 231.046 501.691 246.768C498.06 254.849 488.165 262.362 478.953 267.782C470.329 272.856 460.026 273.947 450.252 271.808C405.615 262.044 374.406 243.624 360.662 234.269C355.417 230.699 349.349 228.36 343.009 228.095L285.863 225.704C254.234 224.381 223.878 212.884 199.309 192.922L182.499 179.263C175.386 173.484 166.921 169.61 157.898 168.006L99.0474 157.544C95.8806 156.981 92.7705 156.136 89.754 155.02L50.1656 140.366C43.2842 137.819 37.0478 133.788 31.8989 128.56Z" fill="url(#paint1_linear_1146_231)"/>
<path d="M335.193 122.496L234.494 116.542C226.912 135.716 240.792 154.994 248.68 162.236L278.701 174.12L313.89 222.456L355.674 224.851C373.643 239.362 387.249 241.107 391.807 240.166C389.55 238.775 386.152 226.7 383.905 220.684C382.625 208.124 376.326 191.373 374.352 185.659C358.558 176.521 337.433 138.836 335.193 122.496Z" fill="url(#paint2_linear_1146_231)" fill-opacity="0.88"/>
<path d="M234.524 116.48C232.965 130.566 239.135 159.661 276.289 163.358C284.346 165.624 299.808 174.94 297.201 194.08C301.145 200.293 308.093 211.012 311.853 216.155C312.801 217.243 313.66 218.229 314.395 219.069C314.172 219.165 313.224 218.031 311.853 216.155C306.018 209.455 296.846 198.854 292.936 194.08C286.355 187.123 267.341 173.864 243.933 176.48C232.333 178.092 206.833 175.115 197.629 150.319C198.005 158.901 207.792 177.145 243.933 181.462C250.87 183.98 265.651 191.347 269.273 200.671C274.037 204.277 284.182 212.373 286.645 215.917C276.448 208.052 251.897 191.533 235.273 188.375C241.216 195.723 253.538 210.638 255.278 211.509C251.394 217.161 230.203 219.607 176.378 171.201C169.687 168.299 151.017 163.045 140.346 160.521C130.362 147.411 109.966 123.906 104.696 104.562L102.513 99.8276C142.219 103.048 224.209 110.888 234.524 116.48Z" fill="url(#paint3_linear_1146_231)"/>
<path d="M381.422 125.335H372.811C377.388 138.926 386.543 166.478 386.543 167.956C394.224 194.036 405.163 202.688 406.094 205.251C416.894 214.187 422.387 229.633 423.783 236.239C423.783 223.937 413.387 208.746 408.189 202.688C399.437 187.776 386.698 144.906 381.422 125.335Z" fill="url(#paint4_linear_1146_231)"/>
<path d="M372.811 183.391C355.209 173.821 339.474 138.691 333.807 122.322H331.038C335.792 138.46 348.154 157.752 353.74 165.381C357.746 172.493 367.215 180.828 371.448 184.106C376.557 187.88 380.604 204.01 381.989 211.603C383.477 226.549 389.306 235.191 392.034 237.644C388.699 234.194 385.549 223.823 384.391 219.069C380.722 194.083 375.142 184.873 372.811 183.391Z" fill="url(#paint5_linear_1146_231)"/>
<path d="M430.587 208.382C426.611 203.426 427.117 196.43 427.867 193.552C431.579 180.4 428.374 167.022 426.247 161.802C432.227 174.923 432.069 184.618 431.243 187.826C426.817 197.663 428.961 205.629 430.587 208.382Z" fill="url(#paint6_linear_1146_231)"/>
<path d="M440.432 192.894C450.747 201.311 465.824 222.987 443.62 242.361C451.028 234.382 460.761 213.319 440.432 192.894Z" fill="url(#paint7_linear_1146_231)"/>
<path d="M104.129 101.32L95.5352 99.8276C99.621 109.606 109.35 122.692 113.704 128.012C125.962 146.535 139.813 160.518 141.286 159.928C139.223 159.338 118.713 132.141 118.713 130.814C112.349 123.263 106.339 108.005 104.129 101.32Z" fill="url(#paint8_linear_1146_231)"/>
<path d="M238.865 135.426C236.363 119.562 232.904 115.329 231.487 115.195C229.241 118.727 233.706 129.458 236.219 134.382C242.827 152.558 251.376 155.711 254.825 155.015C246.741 152.574 240.817 140.939 238.865 135.426Z" fill="url(#paint9_linear_1146_231)"/>
<path d="M88.4285 101.067L76.3301 99.8276C79.3023 112.11 91.9851 124.844 97.9549 129.676C109.31 137.915 111.133 147.413 110.625 151.132L135.013 155.519C133.946 152.62 118.31 134.412 110.625 125.671C102.852 122.009 92.5884 107.743 88.4285 101.067Z" fill="url(#paint10_linear_1146_231)"/>
<path d="M74.4363 101.067L62.3379 99.8276C65.3102 112.11 77.9929 124.844 83.9628 129.676C95.3182 137.915 97.1409 147.413 96.6329 151.132L121.02 155.519C120.217 153.336 111.151 142.471 103.441 133.505C98.9766 128.314 93.2925 124.194 88.4995 119.303C82.7938 113.482 77.2344 105.557 74.4363 101.067Z" fill="url(#paint11_linear_1146_231)"/>
<path d="M448.124 127.174H440.068C442.484 153.992 461.435 173.859 470.609 180.44C492.663 198.357 483.731 230.725 476.508 244.67C497.988 209.805 482.645 184.066 472.289 175.555C451.576 160.964 447.548 137.222 448.124 127.174Z" fill="url(#paint12_linear_1146_231)"/>
<path d="M421.067 151.844C408.921 142.245 408.149 131.398 409.281 127.174C409.281 129.835 414.208 138.33 416.672 142.245C428.018 154.302 428.991 165.4 428.058 169.441C427.419 160.643 423.131 154.044 421.067 151.844Z" fill="url(#paint13_linear_1146_231)"/>
<path d="M299.41 137.246C293.337 122.048 296.213 121.448 298.411 123.048C311.577 139.867 330.665 179.249 338.564 196.838L323.581 177.04C317.029 172.721 304.737 148.711 299.41 137.246Z" fill="url(#paint14_linear_1146_231)"/>
<path d="M166.019 112.249C177.431 120.086 196.275 149.177 196.407 149.974C201.079 161.239 213.658 170.874 219.364 174.283C208.854 170.67 198.972 159.937 195.345 155.022L179.023 135.893C162.568 117.509 163.498 112.47 166.019 112.249Z" fill="url(#paint15_linear_1146_231)"/>
<path d="M762.37 116.384L705.378 121.684C705.378 130.811 692.082 156.57 685.435 168.309L687.539 169.566C735.548 149.731 757.43 125.846 762.37 116.384Z" fill="url(#paint16_linear_1146_231)"/>
<path d="M772.688 175.676C780.585 171.091 798.079 113.111 799.466 112.219C800.883 111.308 843.018 109.861 863.148 107.818C858.03 130.743 835.84 149.346 825.385 155.783C822.792 159.22 781.216 172.835 772.688 175.676C772.521 175.773 772.359 175.846 772.201 175.894C770.585 176.387 770.95 176.255 772.688 175.676Z" fill="url(#paint17_linear_1146_231)"/>
<path d="M577.622 131.547L572.632 132.247C573.887 141.655 572.11 162.673 571.064 172.007C565.771 187.781 552.511 210.78 546.543 220.307C542.551 226.019 530.433 238.18 524.873 243.547C528.181 242.875 540.698 230.107 546.543 223.807C547.113 227.615 544.785 238.554 543.549 243.547C547.199 239.179 549.062 227.447 549.537 222.127C556.038 212.159 569.258 184.56 575.056 172.007C578.135 164.727 578.05 142 577.622 131.547Z" fill="url(#paint18_linear_1146_231)"/>
<path d="M606.317 163.942C609.413 148.107 616.96 136.864 620.346 133.222C612.461 147.828 608.283 167.079 607.18 174.878C600.791 190.309 589.753 200.198 585.032 203.213L594.707 191.178C601.802 183.451 605.404 169.801 606.317 163.942Z" fill="url(#paint19_linear_1146_231)"/>
<path d="M634.52 127.822H631.498L628.918 165.234C627.231 173.453 620.419 182.054 619.316 182.627C606.755 195.421 605.991 203.089 607.18 205.324C607.18 202.811 611.468 195.709 613.613 192.472C621.756 183.88 628.929 172.518 631.498 167.911C632.778 166.54 634.046 140.614 634.52 127.822Z" fill="url(#paint20_linear_1146_231)"/>
<path d="M586.697 239.305C587.111 238.898 604.358 214.807 606.003 209.879C606.028 209.797 606.052 209.717 606.075 209.637C606.056 209.712 606.032 209.793 606.003 209.879C603.978 216.588 597.417 231.473 586.697 239.305Z" fill="url(#paint21_linear_1146_231)"/>
<path d="M677.722 123.937L674.5 124.294C674.5 124.58 672.654 141.254 671.732 149.556C670.316 159.575 661.554 174.221 657.35 180.292C668.079 170.548 673.254 155.46 674.5 149.135L677.722 123.937Z" fill="url(#paint22_linear_1146_231)"/>
<path d="M651.994 201.529C691.367 167.914 703.041 134.771 703.957 122.401L705.666 121.783V122.401C704.516 136.718 693.179 157.743 687.654 166.466C686.24 168.636 688.243 168.334 689.422 167.911C692.251 165.075 709.091 157.88 717.158 154.638C734.131 146.161 754.36 125.641 762.352 116.441H765.778C757.026 136.147 723.825 154.746 708.318 161.583C695.853 164.534 681.814 176.842 676.352 182.627C668.952 194.4 651.387 215.845 643.529 225.095C641.383 226.311 632.894 226.277 628.918 226.108C630.437 224.487 644.935 209.046 651.994 201.529Z" fill="url(#paint23_linear_1146_231)"/>
<path d="M732.604 163.942C717.734 169.295 694.445 181.897 684.659 187.528C711.685 180.342 730.145 169.671 735.997 165.234C760.262 150.527 764.597 142.773 763.732 140.735C760.545 148.085 741.652 159.269 732.604 163.942Z" fill="url(#paint24_linear_1146_231)"/>
<path d="M700.444 203.213C673.89 206.026 659.481 216.994 655.597 222.127C663.74 215.269 688.888 208.068 700.444 205.324C728.414 196.382 737.767 186.467 738.948 182.627C730.804 192.383 709.885 200.416 700.444 203.213Z" fill="url(#paint25_linear_1146_231)"/>
<path d="M753.455 173.419C753.184 174.484 743.566 181.814 741.669 187.528C745.598 184.2 753.455 176.719 753.455 173.419Z" fill="url(#paint26_linear_1146_231)"/>
<path d="M822.799 138.923C817.712 145.533 795.997 153.429 785.774 156.551C807.412 146.751 818.176 140.18 820.853 138.12C827.608 125.705 829.87 114.875 830.157 111.011H831.961C830.615 122.91 825.292 134.577 822.799 138.923Z" fill="url(#paint27_linear_1146_231)"/>
<path d="M864.642 107.438L861.747 108.149C857.694 131.746 835.449 146.886 824.834 151.506C803.217 158.613 788.483 166.945 783.819 170.223C797.04 169.37 812.811 164.813 819.043 162.641C851.662 143.403 863.033 117.823 864.642 107.438Z" fill="url(#paint28_linear_1146_231)"/>
<path d="M840.04 158.722C839.886 158.839 839.762 158.922 839.671 158.969C839.795 158.886 839.918 158.804 840.04 158.722C843.796 155.881 865.64 133.178 866.451 131.13C865.173 135.288 858.103 146.59 840.04 158.722Z" fill="url(#paint29_linear_1146_231)"/>
<path d="M891.936 104.203L887.646 104.522C888.686 112.629 879.716 128.332 882.186 126.863C884.162 125.689 889.509 111.267 891.936 104.203Z" fill="url(#paint30_linear_1146_231)"/>
<path d="M922.487 98.7135C921.511 98.9263 919.483 99.3901 919.171 99.5433C915.986 107.331 909.928 122.663 911.176 121.693C912.424 120.723 919.236 105.969 922.487 98.7135Z" fill="url(#paint31_linear_1146_231)"/>
<path d="M948.082 84.0161C545.399 26.4336 158.912 55.6654 6.59057 84.7724C3.57414 85.3488 2.79795 88.6708 5.50007 90.1301C23.525 99.8649 70.7705 105.72 94.7611 107.568C125.152 112.441 184.117 115.857 209.802 116.956C219.259 120.802 271.429 123.975 296.331 125.081C299.828 124.897 351.403 128.855 376.753 130.858C387.243 131.421 408.441 132.547 409.315 132.547H448.138C466.69 135.497 522.758 134.489 548.474 133.616C562.678 134.269 659.635 126.27 706.338 122.19C718.072 122.516 776.843 115.252 804.762 111.58C872.109 110.236 922.765 99.119 948.823 90.8633C952.672 89.6439 952.079 84.5876 948.082 84.0161Z" fill="url(#paint32_linear_1146_231)"/>
<path d="M133.713 96.2933C124.092 93.7024 69.7464 95.7751 67.666 96.2933C74.4807 97.5497 100.355 97.4037 112.441 97.1736C120.968 96.9558 130.175 96.496 133.713 96.2933Z" fill="url(#paint33_linear_1146_231)"/>
<path d="M133.713 100.793C141.933 99.8667 160.048 98.3762 166.743 99.8264C161.663 100.914 147.944 102.63 133.713 100.793Z" fill="url(#paint34_linear_1146_231)"/>
<path d="M160.355 104.753C173.792 104.016 201.664 102.985 205.659 104.753C193.71 105.827 167.922 107.329 160.355 104.753Z" fill="url(#paint35_linear_1146_231)"/>
<path d="M214.904 102.727C221.561 101.438 235.91 99.2465 240.052 100.793C236.97 101.745 227.626 103.464 214.904 102.727Z" fill="url(#paint36_linear_1146_231)"/>
<path d="M243.668 114.382C255.358 113.571 279.004 112.436 280.069 114.382C271.265 115.34 251.658 116.682 243.668 114.382Z" fill="url(#paint37_linear_1146_231)"/>
<path d="M287.838 111.949C301.229 110.622 330.01 108.765 338 111.949C323.869 112.392 294.052 113.011 287.838 111.949Z" fill="url(#paint38_linear_1146_231)"/>
<path d="M338 115.681C344.107 115.209 356.94 114.548 359.421 115.681C354.14 116.496 342.463 117.637 338 115.681Z" fill="url(#paint39_linear_1146_231)"/>
<path d="M364.071 115.681C370.099 115.08 382.698 114.368 384.869 116.324C378.883 116.796 366.345 117.328 364.071 115.681Z" fill="url(#paint40_linear_1146_231)"/>
<path d="M391.847 109.7C392.437 109.465 424.727 108.408 426.376 109.7C418.995 110.739 401.755 112.194 391.847 109.7Z" fill="url(#paint41_linear_1146_231)"/>
<path d="M454.611 120.273C455.601 119.945 523.076 116.328 535.615 120.273C509.383 120.931 456.459 121.851 454.611 120.273Z" fill="url(#paint42_linear_1146_231)"/>
<path d="M553.765 109.511C571.637 111.119 608.195 114.93 611.455 117.305C594.506 116.006 559.241 112.628 553.765 109.511Z" fill="url(#paint43_linear_1146_231)"/>
<path d="M622.699 111.134C629.598 111.351 644.015 112.336 646.492 114.544C640.517 114.707 627.393 114.252 622.699 111.134Z" fill="url(#paint44_linear_1146_231)"/>
<path d="M661.485 104.964C673.11 103.99 697.924 102.951 704.182 106.588C693.1 106.371 669.047 105.744 661.485 104.964Z" fill="url(#paint45_linear_1146_231)"/>
<path d="M729.864 97.9909C727.968 98.069 726.276 98.1554 724.846 98.2421C725.534 98.0238 727.32 97.9529 729.864 97.9909C742.071 97.4879 762.726 97.3272 776.175 99.6243C789.307 100.269 816.682 100.896 821.121 98.2421C821.439 100.483 812.744 104.228 775.426 101.287C763.059 100.102 740.205 98.1456 729.864 97.9909Z" fill="url(#paint46_linear_1146_231)"/>
<path d="M659.208 119.195C664.996 120.082 670.472 123.578 672.486 125.216H669.226C669.163 124.328 662.521 120.832 659.208 119.195Z" fill="url(#paint47_linear_1146_231)"/>
<path d="M746.24 84.2872C747.322 84.4069 785.428 85.8442 793.482 87.6408C781.289 87.7675 754.769 87.2742 746.24 84.2872Z" fill="url(#paint48_linear_1146_231)"/>
<path d="M746.24 77.0551C768.048 77.8968 811.678 79.4507 814.314 79.0357C814.344 79.029 814.375 79.0222 814.405 79.0155C814.384 79.0227 814.354 79.0294 814.314 79.0357C807.637 80.4968 784.854 82.119 746.24 77.0551Z" fill="url(#paint49_linear_1146_231)"/>
<g filter="url(#filter1_n_1146_231)">
<path d="M286.702 94.0256V57.4501C179.937 57.4503 31.7658 78.9736 6.88477 84.8311C16.9105 87.828 222.67 93.732 286.702 94.0256Z" fill="url(#paint50_linear_1146_231)"/>
</g>
<path d="M535.672 0.675592L380.876 14.6536L386.635 4.62652L364.352 9.06686L335.421 13.2588C329.095 14.1753 323.081 16.5943 317.883 20.3131L285.403 43.5495C280.344 47.1686 274.608 49.7182 268.78 51.8916C253.376 57.6359 230.535 69.0909 219.227 75.0928C209.243 79.5884 204.442 82.835 202.402 84.9153C201.074 86.2693 202.219 87.6552 204.096 87.9276C224.374 90.8709 293.822 94.5379 330.18 96.1914C332.088 96.2782 333.966 96.533 335.828 96.9565L346.08 99.2879C364.81 101.67 475.001 102.026 527.755 101.906C570.365 101.481 682.547 90.4537 738.922 84.4046C740.843 84.1985 741.349 81.6827 739.658 80.7472C713.839 66.4604 683.929 54.4767 667.282 48.5035C663.229 47.0494 659.356 45.1573 655.784 42.7542L630.57 25.7957C619.685 18.4745 607.202 13.8717 594.17 12.3737L569.213 9.50491C565.099 9.032 561.081 7.93853 557.294 6.26172L550.023 3.04176C545.518 1.04684 540.579 0.23251 535.672 0.675592Z" fill="url(#paint51_linear_1146_231)"/>
<path d="M465.08 39.1421C467.135 39.7746 469.436 39.9174 470.33 39.9097C478.012 41.4471 483.967 52.6022 485.983 57.9878C491.129 67.6216 501.74 74.0996 506.402 76.1343C529.36 83.0848 541.818 95.8107 545.177 101.305H542.04C534.304 88.6353 516.122 81.0033 507.998 78.771C496.447 76.224 487.554 65.2809 484.551 60.1274C479.995 46.1901 470.554 41.7374 466.404 41.2534L465.08 39.1421ZM454.337 51.8511C452.028 63.9449 443.996 90.5919 430.334 100.427L427.481 100.031C432.577 97.5033 444.833 84.42 453.088 52.3081L454.337 51.8511ZM562.133 63.4771C566.974 64.6831 577.079 67.9123 578.765 71.1802C578.687 73.32 578.297 78.7193 577.36 83.2007C579.859 87.6353 585.277 96.8079 586.965 98.023C586.201 98.6526 582.856 96.7145 575.581 83.9253C575.18 83.6129 574.252 81.6027 573.751 76.062C573.873 74.8468 573.312 72.0633 570.092 70.647C566.598 68.471 560.113 63.9904 562.133 63.4771ZM397.917 3.15479C447.436 0.857702 527.043 -1.75577 545.868 1.6001C548.611 2.08919 549.229 4.64225 547.474 6.80616C544.043 11.0364 537.42 16.5521 526.941 19.2593C511.651 20.7053 472.383 23.0031 433.38 21.144C430.025 20.9842 426.689 21.6005 423.453 22.5005C414.288 25.0498 397.001 27.6054 373.95 25.3403C368.25 24.7802 362.49 26.1345 357.875 29.5259C342.664 40.7022 320.063 57.699 313.497 64.1226C317.123 61.9664 324.727 57.5839 326.131 57.3042C327.359 57.8286 331.184 57.9327 336.658 54.1567C341.308 50.2704 352.816 42.4402 361.653 42.2085C371.003 43.367 390.458 45.3359 393.482 43.9458C388.805 48.2589 380.288 56.8434 376.679 62.7856C375.207 65.2099 374.605 68.0598 373.294 70.5747C370.829 75.3034 366.215 81.931 359.201 87.1362C357.309 88.5402 355.178 89.5702 353.013 90.4995C348.21 92.5613 341.552 95.5956 338.689 97.5278C297.712 96.1442 214.026 92.5272 207.103 89.1284C202.458 88.6988 196.063 86.3228 207.644 80.2554C225.826 71.1765 264.773 52.2534 275.115 49.1899C283.73 43.7995 302.222 31.9442 307.272 27.647C312.096 22.77 326.141 12.847 343.733 12.1685C351.612 10.7496 365.614 8.16062 375.847 6.09131C383.132 4.61823 390.492 3.49921 397.917 3.15479ZM355.619 60.7788C351.8 62.8095 348.417 65.5704 345.664 68.9058L336.167 80.4106C333.907 83.148 331.22 85.5028 328.21 87.3843L315.005 95.6392H317.85L330.322 88.1597C333.484 86.2631 336.306 83.8495 338.671 81.02L347.987 69.8706C350.483 66.8842 353.487 64.3632 356.861 62.4233L381.651 48.1704L380.898 47.3364L355.619 60.7788ZM305.208 76.8687C302.796 79.2045 288.128 89.632 281.094 94.5542H283.103C290.404 91.8846 301.719 82.0411 306.464 77.4526L305.208 76.8687ZM462.883 55.5952C462.319 62.0082 461.621 75.6217 463.341 78.771C465.122 81.6654 470.859 88.1958 479.55 91.1597C478.021 92.7612 472.114 93.1618 460.726 81.9546C459.925 79.5481 458.701 70.9073 460.22 55.5952H462.883ZM289.597 66.4644C279.669 73.684 258.865 88.7667 255.077 91.3394C261.074 88.4553 276.65 79.8379 290.974 68.4429C291.72 67.7835 292.489 66.4644 289.597 66.4644ZM439.139 55.5952C438.125 59.8148 431.529 69.5363 413.257 74.6646C407.105 77.9486 391.958 85.8185 380.583 91.023L379.303 88.2964L409.411 74.6646C414.472 68.1811 427.503 55.2904 439.139 55.5952ZM589.41 68.6646C616.102 79.9242 617.84 85.1341 615.373 86.3315C604.662 83.8798 593.601 73.532 589.41 68.6646ZM264.779 73.7046C261.746 75.4822 258.314 76.4704 254.8 76.5776L248.582 76.7671C246.383 76.8342 244.208 77.2466 242.137 77.9888L228.821 82.7612C231.321 82.476 235.902 81.7512 239.804 80.6314C243.222 79.6506 246.697 78.5818 250.251 78.4624L254.884 78.3071C258.345 78.1908 261.723 77.2198 264.718 75.4819L274.791 69.6382C274.992 69.2397 275.066 68.4429 273.758 68.4429L264.779 73.7046ZM633.589 72.0103C642.17 72.9297 658.572 76.0103 655.527 80.9751C653.798 82.8928 646.989 83.7843 633.589 72.0103ZM330.661 68.4429C327.847 70.512 313.357 77.7588 306.464 81.1235L307.887 81.7905C323.494 76.2513 330.465 70.5842 332.001 68.4429H330.661ZM537.971 64.6245C551.593 65.3746 559.26 76.2236 561.39 81.5542C555.329 73.0745 543.252 66.7344 537.971 64.6245ZM427.233 34.021C427.006 35.1029 422.641 39.2698 406.993 47.2847C404.412 48.909 399.386 53.9442 399.929 61.0903C407.304 57.6053 425.222 50.1669 437.888 48.2935L438.057 49.0024C425.625 52.1323 399.862 60.9348 396.269 71.105C395.402 73.1414 393.29 77.0482 391.779 76.3843C392.051 67.6617 395.746 48.9626 408.351 43.9458C409.166 43.9458 426.184 35.5103 427.233 34.021ZM624.522 52.3579C626.737 56.3297 638.917 61.4255 644.73 63.4771C632.384 62.4425 626.114 55.6333 624.522 52.3579ZM351.76 31.2915C343.8 31.6438 335.081 34.9882 329.113 37.9155C325.545 39.6657 322.436 42.2131 319.201 44.522C310.042 51.0592 291.829 61.9456 290.974 62.0425C292.076 62.7375 293.591 62.6928 294.211 62.5835C301.615 59.858 317.655 48.2904 324.749 42.8472C330.644 38.242 345.213 34.1145 351.76 32.6265V31.2915ZM537.971 21.6528C534.049 15.1019 556.213 29.034 567.785 36.8189C602.15 53.3736 610.259 59.5044 610.017 60.5005C602.04 55.5326 578.539 44.0138 567.785 38.8755C557.813 36.9732 543.754 26.6013 537.971 21.6528ZM510.582 41.2534C519.101 42.3289 525.038 44.3697 526.941 45.2554C535.689 48.8547 533.806 52.6522 531.771 54.1011C528.037 55.5348 524.195 52.3094 522.741 50.5171C520.475 48.0768 513.691 43.3244 510.582 41.2534ZM586.073 28.4419C585.884 27.2893 586.522 27.9616 586.864 28.4419C591.325 34.157 596.475 37.5066 598.493 38.4673C600.332 38.3409 605 39.3808 607.103 39.9165C626.044 47.1576 620.003 48.6355 614.614 48.4692C600.193 45.5614 589.578 33.9062 586.073 28.4419ZM523.93 29.104C539.561 32.1651 546.613 40.673 548.185 44.5444C544.142 39.7668 530.331 32.26 523.93 29.104Z" fill="url(#paint52_linear_1146_231)"/>
<path d="M482.357 33.4628C472.784 35.2513 456.306 29.8611 449.263 26.9425C447.67 26.9425 448.06 28.0646 448.453 28.6257C463.122 37.0159 477.74 36.2028 483.216 34.7475L482.357 33.4628Z" fill="url(#paint53_linear_1146_231)"/>
<path d="M482.357 85.0393C482.357 91.6175 480.682 98.9771 479.844 101.835H483.216V100.96C485.914 94.6616 483.767 87.7219 482.357 85.0393Z" fill="url(#paint54_linear_1146_231)"/>
<path d="M509.16 66.723C518.894 71.8162 540.385 82.913 548.477 86.5541C544.02 82.2736 529.916 72.3147 509.16 66.723Z" fill="url(#paint55_linear_1146_231)"/>
<path d="M606.445 69.4525C599.165 66.3019 556.634 56.4823 555.819 56.4823V58.2422C571.852 61.935 594.191 69.6967 603.357 73.116C607.475 73.2919 607.131 70.747 606.445 69.4525Z" fill="url(#paint56_linear_1146_231)"/>
<path d="M639.216 54.5622C636.517 53.0261 625.553 43.1935 620.409 38.4691C622.421 36.7506 633.909 48.4004 639.621 54.194L647.003 65.1117C657.397 74.3241 665.824 82.0276 668.289 84.8886C662.489 83.172 652.281 72.2526 647.902 67.0075C645.777 64.2037 641.226 57.5424 639.216 54.5622Z" fill="url(#paint57_linear_1146_231)"/>
<path d="M681.198 68.0238C687.276 72.9581 700.35 82.9076 704.024 83.2306C699.522 78.7897 688.654 69.531 681.198 68.0238Z" fill="url(#paint58_linear_1146_231)"/>
<path d="M681.192 68.1432C686.434 70.177 698.275 75.9765 703.711 82.9045C697.351 79.3356 683.942 71.3867 681.192 68.1432Z" fill="#B16C46"/>
</g>
<defs>
<filter id="filter0_n_1146_231" x="2.26172" y="0.00012207" width="950.896" height="275.52" filterUnits="userSpaceOnUse" color-interpolation-filters="sRGB">
<feFlood flood-opacity="0" result="BackgroundImageFix"/>
<feBlend mode="normal" in="SourceGraphic" in2="BackgroundImageFix" result="shape"/>
<feTurbulence type="fractalNoise" baseFrequency="5 5" stitchTiles="stitch" numOctaves="3" result="noise" seed="1005" />
<feColorMatrix in="noise" type="luminanceToAlpha" result="alphaNoise" />
<feComponentTransfer in="alphaNoise" result="coloredNoise1">
<feFuncA type="discrete" tableValues="1 1 1 1 1 1 1 1 1 1 1 1 1 1 1 1 1 1 1 1 1 1 1 1 1 1 1 1 1 1 1 1 1 1 1 1 1 1 1 1 1 1 1 1 1 1 1 1 1 1 1 0 0 0 0 0 0 0 0 0 0 0 0 0 0 0 0 0 0 0 0 0 0 0 0 0 0 0 0 0 0 0 0 0 0 0 0 0 0 0 0 0 0 0 0 0 0 0 0 0 "/>
</feComponentTransfer>
<feComposite operator="in" in2="shape" in="coloredNoise1" result="noise1Clipped" />
<feFlood flood-color="rgba(201, 118, 118, 0.17)" result="color1Flood" />
<feComposite operator="in" in2="noise1Clipped" in="color1Flood" result="color1" />
<feMerge result="effect1_noise_1146_231">
<feMergeNode in="shape" />
<feMergeNode in="color1" />
</feMerge>
</filter>
<filter id="filter1_n_1146_231" x="6.88477" y="57.4501" width="279.817" height="36.5756" filterUnits="userSpaceOnUse" color-interpolation-filters="sRGB">
<feFlood flood-opacity="0" result="BackgroundImageFix"/>
<feBlend mode="normal" in="SourceGraphic" in2="BackgroundImageFix" result="shape"/>
<feTurbulence type="fractalNoise" baseFrequency="5 5" stitchTiles="stitch" numOctaves="3" result="noise" seed="1360" />
<feColorMatrix in="noise" type="luminanceToAlpha" result="alphaNoise" />
<feComponentTransfer in="alphaNoise" result="coloredNoise1">
<feFuncA type="discrete" tableValues="1 1 1 1 1 1 1 1 1 1 1 1 1 1 1 1 1 1 1 1 1 1 1 1 1 1 1 1 1 1 1 1 1 1 1 1 1 1 1 1 1 1 1 1 1 1 1 1 1 1 1 0 0 0 0 0 0 0 0 0 0 0 0 0 0 0 0 0 0 0 0 0 0 0 0 0 0 0 0 0 0 0 0 0 0 0 0 0 0 0 0 0 0 0 0 0 0 0 0 0 "/>
</feComponentTransfer>
<feComposite operator="in" in2="shape" in="coloredNoise1" result="noise1Clipped" />
<feFlood flood-color="rgba(194, 48, 48, 0.25)" result="color1Flood" />
<feComposite operator="in" in2="noise1Clipped" in="color1Flood" result="color1" />
<feMerge result="effect1_noise_1146_231">
<feMergeNode in="shape" />
<feMergeNode in="color1" />
</feMerge>
</filter>
<linearGradient id="paint0_linear_1146_231" x1="478.299" y1="83.4119" x2="478.299" y2="275.52" gradientUnits="userSpaceOnUse">
<stop stop-color="#DC9F8B"/>
<stop offset="0.811997" stop-color="#D78A7F"/>
</linearGradient>
<linearGradient id="paint1_linear_1146_231" x1="61.0385" y1="127.414" x2="539.691" y2="179.377" gradientUnits="userSpaceOnUse">
<stop stop-color="#7A3D4B"/>
<stop offset="1" stop-color="#9F5663"/>
</linearGradient>
<linearGradient id="paint2_linear_1146_231" x1="351.829" y1="171.082" x2="311.992" y2="240.34" gradientUnits="userSpaceOnUse">
<stop stop-color="#823F4F"/>
<stop offset="1" stop-color="#914D5A"/>
</linearGradient>
<linearGradient id="paint3_linear_1146_231" x1="157.223" y1="111.242" x2="387.069" y2="232.733" gradientUnits="userSpaceOnUse">
<stop stop-color="#7B3944"/>
<stop offset="0.5" stop-color="#7F3D4A"/>
<stop offset="1" stop-color="#7E3945"/>
</linearGradient>
<linearGradient id="paint4_linear_1146_231" x1="157.223" y1="111.242" x2="387.069" y2="232.733" gradientUnits="userSpaceOnUse">
<stop stop-color="#7B3944"/>
<stop offset="0.5" stop-color="#7F3D4A"/>
<stop offset="1" stop-color="#7E3945"/>
</linearGradient>
<linearGradient id="paint5_linear_1146_231" x1="157.223" y1="111.242" x2="387.069" y2="232.733" gradientUnits="userSpaceOnUse">
<stop stop-color="#7B3944"/>
<stop offset="0.5" stop-color="#7F3D4A"/>
<stop offset="1" stop-color="#7E3945"/>
</linearGradient>
<linearGradient id="paint6_linear_1146_231" x1="157.223" y1="111.242" x2="387.069" y2="232.733" gradientUnits="userSpaceOnUse">
<stop stop-color="#7B3944"/>
<stop offset="0.5" stop-color="#7F3D4A"/>
<stop offset="1" stop-color="#7E3945"/>
</linearGradient>
<linearGradient id="paint7_linear_1146_231" x1="157.223" y1="111.242" x2="387.069" y2="232.733" gradientUnits="userSpaceOnUse">
<stop stop-color="#7B3944"/>
<stop offset="0.5" stop-color="#7F3D4A"/>
<stop offset="1" stop-color="#7E3945"/>
</linearGradient>
<linearGradient id="paint8_linear_1146_231" x1="175.18" y1="99.8276" x2="175.18" y2="155.102" gradientUnits="userSpaceOnUse">
<stop stop-color="#96403D"/>
<stop offset="1" stop-color="#9E5D63" stop-opacity="0.41"/>
</linearGradient>
<linearGradient id="paint9_linear_1146_231" x1="175.18" y1="99.8276" x2="175.18" y2="155.102" gradientUnits="userSpaceOnUse">
<stop stop-color="#96403D"/>
<stop offset="1" stop-color="#9E5D63" stop-opacity="0.41"/>
</linearGradient>
<linearGradient id="paint10_linear_1146_231" x1="105.671" y1="99.8276" x2="105.671" y2="155.519" gradientUnits="userSpaceOnUse">
<stop stop-color="#8C4858"/>
<stop offset="1" stop-color="#7A3D4B"/>
</linearGradient>
<linearGradient id="paint11_linear_1146_231" x1="91.6792" y1="112.599" x2="76.2259" y2="125.592" gradientUnits="userSpaceOnUse">
<stop stop-color="#7A3444"/>
<stop offset="1" stop-color="#7B3E4B"/>
</linearGradient>
<linearGradient id="paint12_linear_1146_231" x1="238.962" y1="131.254" x2="317.98" y2="253.434" gradientUnits="userSpaceOnUse">
<stop stop-color="#C67465"/>
<stop offset="1" stop-color="#DC927D"/>
</linearGradient>
<linearGradient id="paint13_linear_1146_231" x1="238.962" y1="131.254" x2="317.98" y2="253.434" gradientUnits="userSpaceOnUse">
<stop stop-color="#C67465"/>
<stop offset="1" stop-color="#DC927D"/>
</linearGradient>
<linearGradient id="paint14_linear_1146_231" x1="238.962" y1="131.254" x2="317.98" y2="253.434" gradientUnits="userSpaceOnUse">
<stop stop-color="#C67465"/>
<stop offset="1" stop-color="#DC927D"/>
</linearGradient>
<linearGradient id="paint15_linear_1146_231" x1="238.962" y1="131.254" x2="317.98" y2="253.434" gradientUnits="userSpaceOnUse">
<stop stop-color="#C67465"/>
<stop offset="1" stop-color="#DC927D"/>
</linearGradient>
<linearGradient id="paint16_linear_1146_231" x1="863.148" y1="143.351" x2="707.345" y2="111.556" gradientUnits="userSpaceOnUse">
<stop stop-color="#D58C75"/>
<stop offset="0.454968" stop-color="#CE7662"/>
</linearGradient>
<linearGradient id="paint17_linear_1146_231" x1="863.148" y1="143.351" x2="707.345" y2="111.556" gradientUnits="userSpaceOnUse">
<stop stop-color="#D58C75"/>
<stop offset="0.454968" stop-color="#CE7662"/>
</linearGradient>
<linearGradient id="paint18_linear_1146_231" x1="723.68" y1="98.7135" x2="723.68" y2="156.536" gradientUnits="userSpaceOnUse">
<stop stop-color="#A35B48"/>
<stop offset="0.5" stop-color="#C17468"/>
<stop offset="0.983041" stop-color="#B85555"/>
</linearGradient>
<linearGradient id="paint19_linear_1146_231" x1="723.68" y1="98.7135" x2="723.68" y2="156.536" gradientUnits="userSpaceOnUse">
<stop stop-color="#A35B48"/>
<stop offset="0.5" stop-color="#C17468"/>
<stop offset="0.983041" stop-color="#B85555"/>
</linearGradient>
<linearGradient id="paint20_linear_1146_231" x1="723.68" y1="98.7135" x2="723.68" y2="156.536" gradientUnits="userSpaceOnUse">
<stop stop-color="#A35B48"/>
<stop offset="0.5" stop-color="#C17468"/>
<stop offset="0.983041" stop-color="#B85555"/>
</linearGradient>
<linearGradient id="paint21_linear_1146_231" x1="723.68" y1="98.7135" x2="723.68" y2="156.536" gradientUnits="userSpaceOnUse">
<stop stop-color="#A35B48"/>
<stop offset="0.5" stop-color="#C17468"/>
<stop offset="0.983041" stop-color="#B85555"/>
</linearGradient>
<linearGradient id="paint22_linear_1146_231" x1="723.68" y1="98.7135" x2="723.68" y2="156.536" gradientUnits="userSpaceOnUse">
<stop stop-color="#A35B48"/>
<stop offset="0.5" stop-color="#C17468"/>
<stop offset="0.983041" stop-color="#B85555"/>
</linearGradient>
<linearGradient id="paint23_linear_1146_231" x1="723.68" y1="98.7135" x2="723.68" y2="156.536" gradientUnits="userSpaceOnUse">
<stop stop-color="#A35B48"/>
<stop offset="0.5" stop-color="#C17468"/>
<stop offset="0.983041" stop-color="#B85555"/>
</linearGradient>
<linearGradient id="paint24_linear_1146_231" x1="723.68" y1="98.7135" x2="723.68" y2="156.536" gradientUnits="userSpaceOnUse">
<stop stop-color="#A35B48"/>
<stop offset="0.5" stop-color="#C17468"/>
<stop offset="0.983041" stop-color="#B85555"/>
</linearGradient>
<linearGradient id="paint25_linear_1146_231" x1="723.68" y1="98.7135" x2="723.68" y2="156.536" gradientUnits="userSpaceOnUse">
<stop stop-color="#A35B48"/>
<stop offset="0.5" stop-color="#C17468"/>
<stop offset="0.983041" stop-color="#B85555"/>
</linearGradient>
<linearGradient id="paint26_linear_1146_231" x1="723.68" y1="98.7135" x2="723.68" y2="156.536" gradientUnits="userSpaceOnUse">
<stop stop-color="#A35B48"/>
<stop offset="0.5" stop-color="#C17468"/>
<stop offset="0.983041" stop-color="#B85555"/>
</linearGradient>
<linearGradient id="paint27_linear_1146_231" x1="723.68" y1="98.7135" x2="723.68" y2="156.536" gradientUnits="userSpaceOnUse">
<stop stop-color="#A35B48"/>
<stop offset="0.5" stop-color="#C17468"/>
<stop offset="0.983041" stop-color="#B85555"/>
</linearGradient>
<linearGradient id="paint28_linear_1146_231" x1="723.68" y1="98.7135" x2="723.68" y2="156.536" gradientUnits="userSpaceOnUse">
<stop stop-color="#A35B48"/>
<stop offset="0.5" stop-color="#C17468"/>
<stop offset="0.983041" stop-color="#B85555"/>
</linearGradient>
<linearGradient id="paint29_linear_1146_231" x1="723.68" y1="98.7135" x2="723.68" y2="156.536" gradientUnits="userSpaceOnUse">
<stop stop-color="#A35B48"/>
<stop offset="0.5" stop-color="#C17468"/>
<stop offset="0.983041" stop-color="#B85555"/>
</linearGradient>
<linearGradient id="paint30_linear_1146_231" x1="723.68" y1="98.7135" x2="723.68" y2="156.536" gradientUnits="userSpaceOnUse">
<stop stop-color="#A35B48"/>
<stop offset="0.5" stop-color="#C17468"/>
<stop offset="0.983041" stop-color="#B85555"/>
</linearGradient>
<linearGradient id="paint31_linear_1146_231" x1="723.68" y1="98.7135" x2="723.68" y2="156.536" gradientUnits="userSpaceOnUse">
<stop stop-color="#A35B48"/>
<stop offset="0.5" stop-color="#C17468"/>
<stop offset="0.983041" stop-color="#B85555"/>
</linearGradient>
<linearGradient id="paint32_linear_1146_231" x1="0" y1="92.7391" x2="666.466" y2="92.7391" gradientUnits="userSpaceOnUse">
<stop stop-color="#F3B098"/>
<stop offset="1" stop-color="#FBCFB9"/>
</linearGradient>
<linearGradient id="paint33_linear_1146_231" x1="444.398" y1="77.0551" x2="444.398" y2="125.216" gradientUnits="userSpaceOnUse">
<stop stop-color="#E6A47D"/>
<stop offset="0.5" stop-color="#D69981"/>
<stop offset="1" stop-color="#E6B89E"/>
</linearGradient>
<linearGradient id="paint34_linear_1146_231" x1="444.398" y1="77.0551" x2="444.398" y2="125.216" gradientUnits="userSpaceOnUse">
<stop stop-color="#E6A47D"/>
<stop offset="0.5" stop-color="#D69981"/>
<stop offset="1" stop-color="#E6B89E"/>
</linearGradient>
<linearGradient id="paint35_linear_1146_231" x1="444.398" y1="77.0551" x2="444.398" y2="125.216" gradientUnits="userSpaceOnUse">
<stop stop-color="#E6A47D"/>
<stop offset="0.5" stop-color="#D69981"/>
<stop offset="1" stop-color="#E6B89E"/>
</linearGradient>
<linearGradient id="paint36_linear_1146_231" x1="444.398" y1="77.0551" x2="444.398" y2="125.216" gradientUnits="userSpaceOnUse">
<stop stop-color="#E6A47D"/>
<stop offset="0.5" stop-color="#D69981"/>
<stop offset="1" stop-color="#E6B89E"/>
</linearGradient>
<linearGradient id="paint37_linear_1146_231" x1="444.398" y1="77.0551" x2="444.398" y2="125.216" gradientUnits="userSpaceOnUse">
<stop stop-color="#E6A47D"/>
<stop offset="0.5" stop-color="#D69981"/>
<stop offset="1" stop-color="#E6B89E"/>
</linearGradient>
<linearGradient id="paint38_linear_1146_231" x1="444.398" y1="77.0551" x2="444.398" y2="125.216" gradientUnits="userSpaceOnUse">
<stop stop-color="#E6A47D"/>
<stop offset="0.5" stop-color="#D69981"/>
<stop offset="1" stop-color="#E6B89E"/>
</linearGradient>
<linearGradient id="paint39_linear_1146_231" x1="444.398" y1="77.0551" x2="444.398" y2="125.216" gradientUnits="userSpaceOnUse">
<stop stop-color="#E6A47D"/>
<stop offset="0.5" stop-color="#D69981"/>
<stop offset="1" stop-color="#E6B89E"/>
</linearGradient>
<linearGradient id="paint40_linear_1146_231" x1="444.398" y1="77.0551" x2="444.398" y2="125.216" gradientUnits="userSpaceOnUse">
<stop stop-color="#E6A47D"/>
<stop offset="0.5" stop-color="#D69981"/>
<stop offset="1" stop-color="#E6B89E"/>
</linearGradient>
<linearGradient id="paint41_linear_1146_231" x1="444.398" y1="77.0551" x2="444.398" y2="125.216" gradientUnits="userSpaceOnUse">
<stop stop-color="#E6A47D"/>
<stop offset="0.5" stop-color="#D69981"/>
<stop offset="1" stop-color="#E6B89E"/>
</linearGradient>
<linearGradient id="paint42_linear_1146_231" x1="444.398" y1="77.0551" x2="444.398" y2="125.216" gradientUnits="userSpaceOnUse">
<stop stop-color="#E6A47D"/>
<stop offset="0.5" stop-color="#D69981"/>
<stop offset="1" stop-color="#E6B89E"/>
</linearGradient>
<linearGradient id="paint43_linear_1146_231" x1="444.398" y1="77.0551" x2="444.398" y2="125.216" gradientUnits="userSpaceOnUse">
<stop stop-color="#E6A47D"/>
<stop offset="0.5" stop-color="#D69981"/>
<stop offset="1" stop-color="#E6B89E"/>
</linearGradient>
<linearGradient id="paint44_linear_1146_231" x1="444.398" y1="77.0551" x2="444.398" y2="125.216" gradientUnits="userSpaceOnUse">
<stop stop-color="#E6A47D"/>
<stop offset="0.5" stop-color="#D69981"/>
<stop offset="1" stop-color="#E6B89E"/>
</linearGradient>
<linearGradient id="paint45_linear_1146_231" x1="444.398" y1="77.0551" x2="444.398" y2="125.216" gradientUnits="userSpaceOnUse">
<stop stop-color="#E6A47D"/>
<stop offset="0.5" stop-color="#D69981"/>
<stop offset="1" stop-color="#E6B89E"/>
</linearGradient>
<linearGradient id="paint46_linear_1146_231" x1="444.398" y1="77.0551" x2="444.398" y2="125.216" gradientUnits="userSpaceOnUse">
<stop stop-color="#E6A47D"/>
<stop offset="0.5" stop-color="#D69981"/>
<stop offset="1" stop-color="#E6B89E"/>
</linearGradient>
<linearGradient id="paint47_linear_1146_231" x1="444.398" y1="77.0551" x2="444.398" y2="125.216" gradientUnits="userSpaceOnUse">
<stop stop-color="#E6A47D"/>
<stop offset="0.5" stop-color="#D69981"/>
<stop offset="1" stop-color="#E6B89E"/>
</linearGradient>
<linearGradient id="paint48_linear_1146_231" x1="444.398" y1="77.0551" x2="444.398" y2="125.216" gradientUnits="userSpaceOnUse">
<stop stop-color="#E6A47D"/>
<stop offset="0.5" stop-color="#D69981"/>
<stop offset="1" stop-color="#E6B89E"/>
</linearGradient>
<linearGradient id="paint49_linear_1146_231" x1="444.398" y1="77.0551" x2="444.398" y2="125.216" gradientUnits="userSpaceOnUse">
<stop stop-color="#E6A47D"/>
<stop offset="0.5" stop-color="#D69981"/>
<stop offset="1" stop-color="#E6B89E"/>
</linearGradient>
<linearGradient id="paint50_linear_1146_231" x1="6.88477" y1="73.6185" x2="286.702" y2="73.6185" gradientUnits="userSpaceOnUse">
<stop stop-color="#E9AA9E"/>
<stop offset="1" stop-color="#E07F6F"/>
</linearGradient>
<linearGradient id="paint51_linear_1146_231" x1="201.104" y1="50.9631" x2="623.365" y2="50.9631" gradientUnits="userSpaceOnUse">
<stop stop-color="#99523A"/>
<stop offset="0.471884" stop-color="#CE7E55"/>
<stop offset="0.978905" stop-color="#F2AA7A"/>
</linearGradient>
<linearGradient id="paint52_linear_1146_231" x1="201.103" y1="48.7637" x2="588.096" y2="43.7496" gradientUnits="userSpaceOnUse">
<stop stop-color="#8C452D"/>
<stop offset="0.5" stop-color="#82402A"/>
<stop offset="1" stop-color="#A35931"/>
</linearGradient>
<linearGradient id="paint53_linear_1146_231" x1="576.064" y1="26.9425" x2="590.51" y2="91.2908" gradientUnits="userSpaceOnUse">
<stop stop-color="#B87243"/>
<stop offset="1" stop-color="#DD9765"/>
</linearGradient>
<linearGradient id="paint54_linear_1146_231" x1="576.064" y1="26.9425" x2="590.51" y2="91.2908" gradientUnits="userSpaceOnUse">
<stop stop-color="#B87243"/>
<stop offset="1" stop-color="#DD9765"/>
</linearGradient>
<linearGradient id="paint55_linear_1146_231" x1="576.064" y1="26.9425" x2="590.51" y2="91.2908" gradientUnits="userSpaceOnUse">
<stop stop-color="#B87243"/>
<stop offset="1" stop-color="#DD9765"/>
</linearGradient>
<linearGradient id="paint56_linear_1146_231" x1="576.064" y1="26.9425" x2="590.51" y2="91.2908" gradientUnits="userSpaceOnUse">
<stop stop-color="#B87243"/>
<stop offset="1" stop-color="#DD9765"/>
</linearGradient>
<linearGradient id="paint57_linear_1146_231" x1="576.064" y1="26.9425" x2="590.51" y2="91.2908" gradientUnits="userSpaceOnUse">
<stop stop-color="#B87243"/>
<stop offset="1" stop-color="#DD9765"/>
</linearGradient>
<linearGradient id="paint58_linear_1146_231" x1="576.064" y1="26.9425" x2="590.51" y2="91.2908" gradientUnits="userSpaceOnUse">
<stop stop-color="#B87243"/>
<stop offset="1" stop-color="#DD9765"/>
</linearGradient>
</defs>
</svg>
