<svg width="607" height="535" viewBox="0 0 607 535" fill="none" xmlns="http://www.w3.org/2000/svg">
<g filter="url(#filter0_n_1147_1021)">
<path d="M237.281 264.524C286.696 301.786 307.085 331.635 311.102 341.902L323.155 359.181L302.063 400.499L296.037 391.484C296.037 326.577 248.831 289.816 225.229 279.549C215.587 277.145 179.028 269.032 161.954 265.275C154.12 261.068 139.607 261.519 133.329 262.27C129.111 267.078 112.489 270.785 104.705 272.037C102.897 276.845 91.3972 283.556 85.8732 286.31C83.4628 285.709 73.8208 288.063 69.3012 289.315L68.5479 287.813C70.3558 286.01 80.3492 284.557 85.12 284.056C91.1461 282.253 98.6789 274.791 101.692 271.285C97.4736 269.482 84.3667 270.033 78.3405 270.534L76.8339 269.032C81.6549 267.83 97.9256 268.03 105.458 268.28C114.498 268.28 124.29 261.77 128.057 258.514C122.03 254.908 90.3929 254.007 75.3274 254.007C62.0698 252.204 51.2226 251.753 47.4563 251.753C18.5305 259.566 3.76637 257.513 0 255.509C18.0786 257.913 36.1572 251.503 42.9366 247.997C17.024 244.391 8.5371 239.483 7.53274 237.479C31.0349 245.893 63.5261 249.499 76.8339 250.251C53.3318 241.236 45.4475 231.97 44.4432 228.465C52.8798 238.08 75.0763 246.494 85.12 249.499C103.199 248.297 116.757 249.499 121.277 250.251C129.714 253.857 143.373 255.259 149.148 255.509C146.135 254.307 127.805 241.987 119.017 235.977C100.939 232.972 91.3972 225.71 88.8863 222.455C95.5151 228.465 110.229 231.97 116.757 232.972C108.923 228.765 105.458 221.203 104.705 217.947C112.539 230.568 140.109 246.244 152.915 252.504C165.57 260.918 203.886 265.526 221.463 266.778C206.397 244.541 185.556 224.959 177.019 217.947C162.85 213.74 135.963 190.151 124.29 178.883C119.576 176.793 95.5547 169.254 84.3986 165.866C82.5797 165.424 81.0254 165.001 79.847 164.609C77.0937 163.694 79.5121 164.382 84.3986 165.866C93.7423 168.132 110.067 170.864 118.264 172.121L95.6658 151.838L122.03 172.121C119.62 169.718 111.485 151.087 107.718 142.072C129.412 185.944 160.447 203.924 173.253 207.43C150.353 178.582 146.637 148.332 147.642 136.813C147.642 162.055 172.751 200.919 185.305 217.196C176.266 182.338 177.522 148.082 179.279 135.311C178.074 149.134 182.794 181.637 185.305 196.161C189.524 230.418 221.714 256.01 237.281 264.524Z" fill="url(#paint0_linear_1147_1021)"/>
</g>
<g filter="url(#filter1_n_1147_1021)">
<g filter="url(#filter2_n_1147_1021)">
<path d="M332.85 381.025C327.741 370.8 309.345 318.622 304.236 293.81L311.137 390.799C284.571 453.353 272.188 513.056 316.767 534.108H344.047L340.9 533.06C307.691 518.625 312.84 483.528 319.439 467.488C340.386 427.79 337.108 393.305 332.85 381.025Z" fill="#C39E97"/>
</g>
<g filter="url(#filter3_n_1147_1021)">
<path d="M433.705 77.9497C448.724 66.5571 459.987 40.7237 463.742 29.2311H465.244C465.845 31.03 459.987 47.9691 456.984 56.2138C461.79 55.533 472.503 44.9372 477.259 39.7244L479.511 41.2234C478.911 44.2215 458.736 59.9613 448.724 67.4565C460.154 68.6557 473.511 62.4597 478.76 59.2118L480.262 60.7109C479.661 64.3085 459.987 69.2054 450.225 71.2041C444.218 72.4033 432.203 83.696 426.947 89.1925C413.13 100.585 396.66 127.918 390.152 140.16C396.159 136.562 421.691 136.162 433.705 136.412C449.925 138.211 462.49 128.167 466.746 122.921L468.998 124.42C465.244 127.708 457.584 134.261 456.984 134.163C470.801 136.562 483.767 130.666 488.522 127.418V129.666C484.317 137.461 439.212 142.908 417.185 144.657C372.13 151.852 341.342 194.624 331.58 215.111C303.946 257.684 306.55 300.306 311.305 316.296C329.928 373.859 315.561 423.727 306.049 441.465C273.759 496.93 313.873 524.614 324.637 534.108L196.415 534.405C197.616 530.208 215.438 522.663 224.199 519.415C241.019 518.216 246.226 503.425 246.726 496.18C255.137 466.199 265.249 452.708 269.254 449.71C287.276 436.519 292.783 405.239 293.283 391.248C295.686 379.255 287.777 335.284 283.521 314.797C279.316 304.604 281.269 279.07 282.77 267.577C295.386 242.394 254.986 172.139 233.21 140.16C227.803 138.361 203.924 121.921 192.66 113.927V110.928C196.265 116.925 218.692 127.918 229.455 132.664C226.452 129.067 211.683 93.6896 204.675 76.4507C213.686 96.8376 251.983 158.898 270.005 187.379C271.807 173.588 264.748 135.663 260.994 118.424C258.591 106.431 249.48 85.4449 245.224 76.4507C239.217 67.4565 210.682 55.7141 197.166 50.9671V47.9691C198.367 49.7679 216.69 56.2138 225.701 59.2118C216.089 52.0165 207.679 16.7392 204.675 0L206.928 0.749517C214.737 38.5252 225.2 55.9639 229.455 59.9613C234.261 66.5571 241.971 68.206 245.224 68.206C245.224 65.208 233.21 41.4733 227.202 29.9807C237.415 40.7737 256.488 84.9452 264.748 105.682C264.148 91.2911 271.006 72.7031 274.51 65.208C280.518 56.8134 283.021 35.2273 283.521 25.4836C284.723 30.8801 283.021 50.7173 282.02 59.9613C288.027 47.3695 299.04 37.7257 303.796 34.4778V36.7263C289.379 44.5213 278.265 72.953 274.51 86.1944C272.107 136.562 279.016 177.635 282.77 191.876C283.972 202.07 294.785 231.101 300.042 244.342C330.679 208.366 332.331 149.404 329.327 124.42C332.932 150.803 332.331 180.384 331.58 191.876C355.009 181.683 388.4 129.666 402.167 104.932C407.573 101.335 409.425 79.9484 409.676 69.7051C407.273 51.7167 410.677 45.2208 412.679 44.2215C409.676 47.9691 411.929 62.2099 411.929 63.7089C414.332 73.9023 411.929 90.9414 410.427 98.1867L412.679 95.9381C433.104 80.9478 440.714 50.2176 441.965 36.7263L442.716 37.4758C443.918 41.6731 437.21 66.2073 433.705 77.9497Z" fill="url(#paint1_linear_1147_1021)"/>
</g>
</g>
<g filter="url(#filter4_n_1147_1021)">
<path d="M327.825 401.505C321.818 375.2 357.862 335.743 376.635 319.303C346.598 323.488 325.573 368.375 318.814 390.295L327.825 401.505Z" fill="#B3948D"/>
<path d="M305.298 382.075C311.305 370.617 327.225 344.86 342.844 333.501C356.36 322.043 379.338 289.71 363.119 252.047L358.613 239.343L342.844 224.397L344.346 222.903L357.862 234.859L356.36 219.166L362.368 237.849L374.382 263.256C380.139 248.062 393.306 214.384 399.914 201.232L402.166 203.473C395.658 217.174 382.943 245.919 384.144 251.3C392.905 246.567 411.177 235.308 414.181 228.134C414.932 231.621 410.427 241.735 386.397 254.289C382.392 259.271 375.133 272.074 378.137 283.433C377.386 290.159 374.833 304.806 370.628 309.588C388.9 302.863 433.705 276.11 466.745 222.903L467.496 223.65C458.986 238.098 440.013 268.487 432.203 274.466C442.716 270.729 464.943 261.911 469.749 256.531C477.759 246.318 494.68 223.949 498.284 216.177L500.537 216.925C493.028 228.632 477.859 252.645 477.258 255.036L506.544 243.08C513.302 235.109 527.57 218.718 530.574 216.925L532.826 217.672C526.068 224.647 512.552 239.044 512.552 240.838C526.318 238.845 554.903 233.813 559.109 229.628C564.365 223.65 576.079 209.003 580.885 198.242H582.387C579.753 204.2 574.049 216.267 571.456 218.872L591.398 201.232L592.9 203.473C583.889 210.946 565.717 226.34 565.116 228.134C575.128 227.387 597.105 223.949 604.915 216.177L606.416 216.925C603.413 220.163 590.948 227.835 565.116 232.618C532.576 242.083 467.346 262.36 466.745 267.74L464.493 269.982C473.504 270.48 492.127 272.074 494.529 274.466C504.542 270.978 525.167 264.303 527.57 265.498C519.31 267.989 502.79 273.419 502.79 275.213L536.581 274.466V275.96L523.815 276.708L532.826 286.422L520.812 278.202H492.277C476.257 275.96 442.266 273.569 434.456 281.939C407.923 298.628 370.628 324 353.357 338.732C341.092 349.194 333.082 361.898 318.814 391.79C318.063 396.523 316.562 405.54 316.562 403.746C316.562 401.953 309.052 388.551 305.298 382.075Z" fill="url(#paint2_linear_1147_1021)"/>
</g>
<defs>
<filter id="filter0_n_1147_1021" x="0" y="135.311" width="323.154" height="265.188" filterUnits="userSpaceOnUse" color-interpolation-filters="sRGB">
<feFlood flood-opacity="0" result="BackgroundImageFix"/>
<feBlend mode="normal" in="SourceGraphic" in2="BackgroundImageFix" result="shape"/>
<feTurbulence type="fractalNoise" baseFrequency="10 10" stitchTiles="stitch" numOctaves="3" result="noise" seed="6985" />
<feColorMatrix in="noise" type="luminanceToAlpha" result="alphaNoise" />
<feComponentTransfer in="alphaNoise" result="coloredNoise1">
<feFuncA type="discrete" tableValues="1 1 1 1 1 1 1 1 1 1 1 1 1 1 1 1 1 1 1 1 1 1 1 1 1 1 1 1 1 1 1 1 1 1 1 1 1 1 1 1 1 1 1 1 1 1 1 1 1 1 1 0 0 0 0 0 0 0 0 0 0 0 0 0 0 0 0 0 0 0 0 0 0 0 0 0 0 0 0 0 0 0 0 0 0 0 0 0 0 0 0 0 0 0 0 0 0 0 0 0 "/>
</feComponentTransfer>
<feComposite operator="in" in2="shape" in="coloredNoise1" result="noise1Clipped" />
<feFlood flood-color="rgba(113, 25, 25, 0.24)" result="color1Flood" />
<feComposite operator="in" in2="noise1Clipped" in="color1Flood" result="color1" />
<feMerge result="effect1_noise_1147_1021">
<feMergeNode in="shape" />
<feMergeNode in="color1" />
</feMerge>
</filter>
<filter id="filter1_n_1147_1021" x="192.66" y="0" width="295.862" height="534.405" filterUnits="userSpaceOnUse" color-interpolation-filters="sRGB">
<feFlood flood-opacity="0" result="BackgroundImageFix"/>
<feBlend mode="normal" in="SourceGraphic" in2="BackgroundImageFix" result="shape"/>
<feTurbulence type="fractalNoise" baseFrequency="10 10" stitchTiles="stitch" numOctaves="3" result="noise" seed="6985" />
<feColorMatrix in="noise" type="luminanceToAlpha" result="alphaNoise" />
<feComponentTransfer in="alphaNoise" result="coloredNoise1">
<feFuncA type="discrete" tableValues="1 1 1 1 1 1 1 1 1 1 1 1 1 1 1 1 1 1 1 1 1 1 1 1 1 1 1 1 1 1 1 1 1 1 1 1 1 1 1 1 1 1 1 1 1 1 1 1 1 1 1 0 0 0 0 0 0 0 0 0 0 0 0 0 0 0 0 0 0 0 0 0 0 0 0 0 0 0 0 0 0 0 0 0 0 0 0 0 0 0 0 0 0 0 0 0 0 0 0 0 "/>
</feComponentTransfer>
<feComposite operator="in" in2="shape" in="coloredNoise1" result="noise1Clipped" />
<feFlood flood-color="rgba(113, 25, 25, 0.13)" result="color1Flood" />
<feComposite operator="in" in2="noise1Clipped" in="color1Flood" result="color1" />
<feMerge result="effect1_noise_1147_1021">
<feMergeNode in="shape" />
<feMergeNode in="color1" />
</feMerge>
</filter>
<filter id="filter2_n_1147_1021" x="287.213" y="293.81" width="56.834" height="240.297" filterUnits="userSpaceOnUse" color-interpolation-filters="sRGB">
<feFlood flood-opacity="0" result="BackgroundImageFix"/>
<feBlend mode="normal" in="SourceGraphic" in2="BackgroundImageFix" result="shape"/>
<feTurbulence type="fractalNoise" baseFrequency="10 10" stitchTiles="stitch" numOctaves="3" result="noise" seed="8974" />
<feColorMatrix in="noise" type="luminanceToAlpha" result="alphaNoise" />
<feComponentTransfer in="alphaNoise" result="coloredNoise1">
<feFuncA type="discrete" tableValues="1 1 1 1 1 1 1 1 1 1 1 1 1 1 1 1 1 1 1 1 1 1 1 1 1 1 1 1 1 1 1 1 1 1 1 1 1 1 1 1 1 1 1 1 1 1 1 1 1 1 1 0 0 0 0 0 0 0 0 0 0 0 0 0 0 0 0 0 0 0 0 0 0 0 0 0 0 0 0 0 0 0 0 0 0 0 0 0 0 0 0 0 0 0 0 0 0 0 0 0 "/>
</feComponentTransfer>
<feComposite operator="in" in2="shape" in="coloredNoise1" result="noise1Clipped" />
<feFlood flood-color="rgba(80, 58, 58, 0.25)" result="color1Flood" />
<feComposite operator="in" in2="noise1Clipped" in="color1Flood" result="color1" />
<feMerge result="effect1_noise_1147_1021">
<feMergeNode in="shape" />
<feMergeNode in="color1" />
</feMerge>
</filter>
<filter id="filter3_n_1147_1021" x="192.66" y="0" width="295.862" height="534.405" filterUnits="userSpaceOnUse" color-interpolation-filters="sRGB">
<feFlood flood-opacity="0" result="BackgroundImageFix"/>
<feBlend mode="normal" in="SourceGraphic" in2="BackgroundImageFix" result="shape"/>
<feTurbulence type="fractalNoise" baseFrequency="10 10" stitchTiles="stitch" numOctaves="3" result="noise" seed="96" />
<feColorMatrix in="noise" type="luminanceToAlpha" result="alphaNoise" />
<feComponentTransfer in="alphaNoise" result="coloredNoise1">
<feFuncA type="discrete" tableValues="1 1 1 1 1 1 1 1 1 1 1 1 1 1 1 1 1 1 1 1 1 1 1 1 1 1 1 1 1 1 1 1 1 1 1 1 1 1 1 1 1 1 1 1 1 1 1 1 1 1 1 0 0 0 0 0 0 0 0 0 0 0 0 0 0 0 0 0 0 0 0 0 0 0 0 0 0 0 0 0 0 0 0 0 0 0 0 0 0 0 0 0 0 0 0 0 0 0 0 0 "/>
</feComponentTransfer>
<feComposite operator="in" in2="shape" in="coloredNoise1" result="noise1Clipped" />
<feFlood flood-color="rgba(63, 28, 28, 0.25)" result="color1Flood" />
<feComposite operator="in" in2="noise1Clipped" in="color1Flood" result="color1" />
<feMerge result="effect1_noise_1147_1021">
<feMergeNode in="shape" />
<feMergeNode in="color1" />
</feMerge>
</filter>
<filter id="filter4_n_1147_1021" x="305.298" y="198.242" width="301.118" height="205.737" filterUnits="userSpaceOnUse" color-interpolation-filters="sRGB">
<feFlood flood-opacity="0" result="BackgroundImageFix"/>
<feBlend mode="normal" in="SourceGraphic" in2="BackgroundImageFix" result="shape"/>
<feTurbulence type="fractalNoise" baseFrequency="10 10" stitchTiles="stitch" numOctaves="3" result="noise" seed="6985" />
<feColorMatrix in="noise" type="luminanceToAlpha" result="alphaNoise" />
<feComponentTransfer in="alphaNoise" result="coloredNoise1">
<feFuncA type="discrete" tableValues="1 1 1 1 1 1 1 1 1 1 1 1 1 1 1 1 1 1 1 1 1 1 1 1 1 1 1 1 1 1 1 1 1 1 1 1 1 1 1 1 1 1 1 1 1 1 1 1 1 1 1 0 0 0 0 0 0 0 0 0 0 0 0 0 0 0 0 0 0 0 0 0 0 0 0 0 0 0 0 0 0 0 0 0 0 0 0 0 0 0 0 0 0 0 0 0 0 0 0 0 "/>
</feComponentTransfer>
<feComposite operator="in" in2="shape" in="coloredNoise1" result="noise1Clipped" />
<feFlood flood-color="rgba(113, 25, 25, 0.24)" result="color1Flood" />
<feComposite operator="in" in2="noise1Clipped" in="color1Flood" result="color1" />
<feMerge result="effect1_noise_1147_1021">
<feMergeNode in="shape" />
<feMergeNode in="color1" />
</feMerge>
</filter>
<linearGradient id="paint0_linear_1147_1021" x1="161.577" y1="135.311" x2="309.746" y2="393.333" gradientUnits="userSpaceOnUse">
<stop stop-color="#AC5052"/>
<stop offset="0.5" stop-color="#8C726D"/>
<stop offset="1" stop-color="#42312E"/>
</linearGradient>
<linearGradient id="paint1_linear_1147_1021" x1="407.397" y1="31.4137" x2="324.4" y2="532.273" gradientUnits="userSpaceOnUse">
<stop stop-color="#A9312A"/>
<stop offset="0.505658" stop-color="#825648"/>
<stop offset="0.865385" stop-color="#996050"/>
<stop offset="0.9999" stop-color="#78473F"/>
</linearGradient>
<linearGradient id="paint2_linear_1147_1021" x1="587.643" y1="193.011" x2="405.374" y2="390.429" gradientUnits="userSpaceOnUse">
<stop stop-color="#9D3A36"/>
<stop offset="1" stop-color="#80615D"/>
</linearGradient>
</defs>
</svg>
