<svg width="302" height="206" viewBox="0 0 302 206" fill="none" xmlns="http://www.w3.org/2000/svg">
<g filter="url(#filter0_n_1144_21)">
<path d="M22.5276 203.262C16.5203 176.958 52.5644 137.501 71.3374 121.061C41.3006 125.245 20.2749 170.133 13.5166 192.053L22.5276 203.262Z" fill="#B3948D"/>
<path d="M0 183.833C6.00735 172.374 21.9268 146.618 37.546 135.259C51.0625 123.801 74.0406 91.4679 57.8208 53.8047L53.3153 41.1008L37.546 26.155L39.0478 24.6605L52.5643 36.6171L51.0625 20.924L57.0699 39.6062L69.0846 65.014C74.8416 49.8191 88.0077 16.1414 94.6158 2.98915L96.8686 5.23101C90.3606 18.9313 77.645 47.6769 78.8465 53.0574C87.6072 48.3246 105.88 37.0654 108.883 29.8915C109.634 33.3788 105.129 43.4921 81.0993 56.0465C77.0944 61.0284 69.8355 73.8319 72.8392 85.1907C72.0882 91.9163 69.5351 106.563 65.33 111.346C83.6023 104.62 128.407 77.8673 161.448 24.6605L162.199 25.4078C153.688 39.8553 134.715 70.245 126.905 76.2233C137.418 72.4868 159.645 63.6688 164.451 58.2884C172.461 48.0755 189.382 25.7067 192.986 17.9349L195.239 18.6822C187.73 30.3897 172.561 54.4025 171.96 56.7938L201.246 44.8372C208.005 36.8662 222.272 20.4757 225.276 18.6822L227.529 19.4295C220.77 26.4041 207.254 40.8019 207.254 42.5954C221.021 40.6026 249.606 35.5709 253.811 31.3861C259.067 25.4078 270.781 10.7609 275.587 0H277.089C274.455 5.95758 268.751 18.025 266.158 20.6298L286.1 2.98915L287.602 5.23101C278.591 12.7039 260.419 28.098 259.818 29.8915C269.83 29.1442 291.807 25.7067 299.617 17.9349L301.119 18.6822C298.115 21.9204 285.65 29.5926 259.818 34.3752C227.278 43.8408 162.048 64.1172 161.448 69.4977L159.195 71.7395C168.206 72.2377 186.829 73.8319 189.232 76.2233C199.244 72.7359 219.869 66.0602 222.272 67.2558C214.012 69.7468 197.492 75.1771 197.492 76.9706L231.283 76.2233V77.7178L218.517 78.4651L227.529 88.1799L215.514 79.9597H186.979C170.959 77.7178 136.968 75.3265 129.158 83.6961C102.626 100.386 65.33 125.758 48.0588 140.49C35.7938 150.952 27.784 163.656 13.5165 193.547C12.7656 198.28 11.2638 207.297 11.2638 205.504C11.2638 203.71 3.7546 190.309 0 183.833Z" fill="url(#paint0_linear_1144_21)"/>
</g>
<defs>
<filter id="filter0_n_1144_21" x="0" y="0" width="301.118" height="205.737" filterUnits="userSpaceOnUse" color-interpolation-filters="sRGB">
<feFlood flood-opacity="0" result="BackgroundImageFix"/>
<feBlend mode="normal" in="SourceGraphic" in2="BackgroundImageFix" result="shape"/>
<feTurbulence type="fractalNoise" baseFrequency="10 10" stitchTiles="stitch" numOctaves="3" result="noise" seed="6985" />
<feColorMatrix in="noise" type="luminanceToAlpha" result="alphaNoise" />
<feComponentTransfer in="alphaNoise" result="coloredNoise1">
<feFuncA type="discrete" tableValues="1 1 1 1 1 1 1 1 1 1 1 1 1 1 1 1 1 1 1 1 1 1 1 1 1 1 1 1 1 1 1 1 1 1 1 1 1 1 1 1 1 1 1 1 1 1 1 1 1 1 1 0 0 0 0 0 0 0 0 0 0 0 0 0 0 0 0 0 0 0 0 0 0 0 0 0 0 0 0 0 0 0 0 0 0 0 0 0 0 0 0 0 0 0 0 0 0 0 0 0 "/>
</feComponentTransfer>
<feComposite operator="in" in2="shape" in="coloredNoise1" result="noise1Clipped" />
<feFlood flood-color="rgba(113, 25, 25, 0.24)" result="color1Flood" />
<feComposite operator="in" in2="noise1Clipped" in="color1Flood" result="color1" />
<feMerge result="effect1_noise_1144_21">
<feMergeNode in="shape" />
<feMergeNode in="color1" />
</feMerge>
</filter>
<linearGradient id="paint0_linear_1144_21" x1="282.346" y1="-5.23099" x2="100.076" y2="192.187" gradientUnits="userSpaceOnUse">
<stop stop-color="#9D3A36"/>
<stop offset="1" stop-color="#80615D"/>
</linearGradient>
</defs>
</svg>
