<svg width="228" height="194" viewBox="0 0 228 194" fill="none" xmlns="http://www.w3.org/2000/svg">
<g filter="url(#filter0_n_1144_9)">
<path d="M21.0659 128.884C6.29192 136.898 3.71763 114.414 4.27723 102.17C-7.50453 84.8461 7.82431 70.6628 16.9615 65.7366C10.9687 40.9945 27.7217 32.702 36.8473 31.6485C36.8473 -6.09683 74.7019 -2.37551 93.6291 4.20332C99.2727 -0.583881 108.297 4.92075 112.104 8.27146C119.327 -1.66775 131.421 0.580405 136.565 2.94688C148.994 7.79121 149.512 17.7698 148.217 22.1536C150.401 21.6496 152.277 24.4516 152.942 25.9157C151.682 19.9855 158.506 19.2687 162.075 19.6515C154.012 7.70775 161.795 2.91211 166.694 2.00726C175.428 0.00271271 175.023 12.9348 173.728 19.6515C176.079 12.2138 180.936 12.7243 183.071 13.9093C189.034 20.3405 180.586 23.2708 175.617 23.932C178.221 27.2729 178.507 28.6684 178.325 28.9486C189.113 16.9321 198.044 19.4117 201.16 22.1536C210.654 33.0257 205.116 40.6313 201.16 43.0751C207.633 48.082 207.334 53.5062 206.375 55.5924C217.451 53.3035 222.378 58.4534 223.456 61.3145C237.122 84.7753 215.782 98.936 203.404 103.084C206.302 104.113 205.186 107.401 204.266 108.916C212.063 105.828 214.932 109.173 215.392 111.232C215.737 116.927 210.476 117.665 207.802 117.322C208.492 118.625 208.09 119.752 207.802 120.152C214.564 118.986 213.897 126.413 212.718 130.273C205.198 140.977 198.102 135.085 195.494 130.801C191.393 135.842 184.342 132.146 181.328 129.669C184.973 136.521 181.708 139.556 179.62 140.216C174.381 141.689 172.447 136.03 172.136 133.017C166.469 135.392 161.258 131.251 159.361 128.884C159.001 132.932 151.646 133.705 148.014 133.586C136.199 135.234 133.906 127.765 134.236 123.824C131.426 135.36 121.719 129.467 117.216 125.078C119.665 137.33 107.911 138.661 101.727 137.796C102.231 139.228 100.976 140.243 100.286 140.571C107.13 139.64 109.081 145.676 109.201 148.811C109.994 145.086 112.833 146.841 114.154 148.184C117.227 151.169 114.116 153.519 112.132 154.344C113.575 153.781 114.752 156.01 115.315 157.617C114.717 154.697 118.935 152.057 121.268 151.05C119.323 148.113 121.539 146.602 122.889 146.214C127.572 144.566 127.782 148.751 127.302 151.05C146.483 164.663 124.33 171.828 122.889 172.962C135.857 176.736 135.857 180.704 134.236 182.216C129.986 187.876 123.34 183.022 120.548 179.888C117.594 191.208 111.753 184.604 109.201 179.888C98.6831 185.428 95.7534 179.032 95.6033 175.141C94.0184 176.059 92.9617 174.449 92.6315 173.529C88.8133 178.115 84.5568 175.062 82.9058 172.962C81.1627 176.472 75.9833 175.554 72.8615 174.398C73.5845 175.34 72.6091 177.694 71.8673 179.011C68.1537 181.099 65.4761 176.536 64.6015 173.993C64.763 177.757 61.7087 178.907 60.1613 179.011C60.8072 186.789 57.6048 189.746 55.9229 190.252C46.881 191.054 52.1555 181.353 55.9229 176.402C53.501 176.723 52.046 174.243 51.6213 172.962C41.6824 180.442 34.273 173.63 31.8107 169.289C24.2894 157.802 39.4216 152.704 47.9278 151.591C35.5714 151.324 35.3923 144.133 36.8473 140.571C22.3419 146.983 20.2825 135.451 21.0659 128.884Z" fill="url(#paint0_linear_1144_9)"/>
<path d="M69.7821 187.778C69.4953 180.648 74.6814 182.43 77.3103 184.213C82.4725 187.673 80.8951 191.596 79.4612 193.126C74.299 195.425 70.8576 190.518 69.7821 187.778Z" fill="url(#paint1_linear_1144_9)"/>
</g>
<defs>
<filter id="filter0_n_1144_9" x="0" y="0" width="227.865" height="193.721" filterUnits="userSpaceOnUse" color-interpolation-filters="sRGB">
<feFlood flood-opacity="0" result="BackgroundImageFix"/>
<feBlend mode="normal" in="SourceGraphic" in2="BackgroundImageFix" result="shape"/>
<feTurbulence type="fractalNoise" baseFrequency="10 10" stitchTiles="stitch" numOctaves="3" result="noise" seed="4050" />
<feColorMatrix in="noise" type="luminanceToAlpha" result="alphaNoise" />
<feComponentTransfer in="alphaNoise" result="coloredNoise1">
<feFuncA type="discrete" tableValues="1 1 1 1 1 1 1 1 1 1 1 1 1 1 1 1 1 1 1 1 1 1 1 1 1 1 1 1 1 1 1 1 1 1 1 1 1 1 1 1 1 1 1 1 1 1 1 1 1 1 1 0 0 0 0 0 0 0 0 0 0 0 0 0 0 0 0 0 0 0 0 0 0 0 0 0 0 0 0 0 0 0 0 0 0 0 0 0 0 0 0 0 0 0 0 0 0 0 0 0 "/>
</feComponentTransfer>
<feComposite operator="in" in2="shape" in="coloredNoise1" result="noise1Clipped" />
<feFlood flood-color="rgba(255, 66, 66, 0.09)" result="color1Flood" />
<feComposite operator="in" in2="noise1Clipped" in="color1Flood" result="color1" />
<feMerge result="effect1_noise_1144_9">
<feMergeNode in="shape" />
<feMergeNode in="color1" />
</feMerge>
</filter>
<linearGradient id="paint0_linear_1144_9" x1="78.2668" y1="45.8099" x2="113.563" y2="193.81" gradientUnits="userSpaceOnUse">
<stop stop-color="#EDBCB8"/>
<stop offset="1" stop-color="#E1A39D"/>
</linearGradient>
<linearGradient id="paint1_linear_1144_9" x1="78.2668" y1="45.8099" x2="113.563" y2="193.81" gradientUnits="userSpaceOnUse">
<stop stop-color="#EDBCB8"/>
<stop offset="1" stop-color="#E1A39D"/>
</linearGradient>
</defs>
</svg>
