<svg width="324" height="266" viewBox="0 0 324 266" fill="none" xmlns="http://www.w3.org/2000/svg">
<g filter="url(#filter0_n_1144_17)">
<path d="M237.281 129.214C286.696 166.475 307.085 196.324 311.102 206.591L323.155 223.87L302.063 265.188L296.037 256.173C296.037 191.266 248.831 154.505 225.229 144.238C215.587 141.834 179.028 133.721 161.954 129.965C154.12 125.758 139.607 126.209 133.329 126.96C129.111 131.768 112.489 135.474 104.705 136.726C102.897 141.534 91.3972 148.245 85.8732 151C83.4628 150.399 73.8208 152.752 69.3012 154.004L68.5479 152.502C70.3558 150.699 80.3492 149.247 85.12 148.746C91.1461 146.943 98.6789 139.48 101.692 135.975C97.4736 134.172 84.3667 134.723 78.3405 135.223L76.8339 133.721C81.6549 132.519 97.9256 132.719 105.458 132.97C114.498 132.97 124.29 126.459 128.057 123.204C122.03 119.598 90.3929 118.696 75.3274 118.696C62.0698 116.893 51.2226 116.442 47.4563 116.442C18.5305 124.255 3.76637 122.202 0 120.199C18.0786 122.603 36.1572 116.192 42.9366 112.686C17.024 109.08 8.5371 104.172 7.53274 102.169C31.0349 110.583 63.5261 114.189 76.8339 114.94C53.3318 105.925 45.4475 96.6597 44.4432 93.1539C52.8798 102.77 75.0763 111.184 85.12 114.189C103.199 112.987 116.757 114.189 121.277 114.94C129.714 118.546 143.373 119.948 149.148 120.199C146.135 118.997 127.805 106.676 119.017 100.666C100.939 97.6614 91.3972 90.3994 88.8863 87.144C95.5151 93.1539 110.229 96.6597 116.757 97.6614C108.923 93.4544 105.458 85.8919 104.705 82.6366C112.539 95.2574 140.109 110.933 152.915 117.194C165.57 125.608 203.886 130.215 221.463 131.467C206.397 109.23 185.556 89.6481 177.019 82.6366C162.85 78.4296 135.963 54.8406 124.29 43.572C119.576 41.4823 95.5547 33.9433 84.3986 30.555C82.5797 30.1138 81.0254 29.6901 79.847 29.2984C77.0937 28.3831 79.5121 29.0709 84.3986 30.555C93.7423 32.8217 110.067 35.5532 118.264 36.8108L95.6658 16.5273L122.03 36.8108C119.62 34.4069 111.485 15.7761 107.718 6.76117C129.412 50.6337 160.447 68.6134 173.253 72.1192C150.353 43.2715 146.637 13.0215 147.642 1.50248C147.642 26.7442 172.751 65.6084 185.305 81.8853C176.266 47.0277 177.522 12.7711 179.279 0C178.074 13.8228 182.794 46.3266 185.305 60.8506C189.524 95.1072 221.714 120.699 237.281 129.214Z" fill="url(#paint0_linear_1144_17)"/>
</g>
<defs>
<filter id="filter0_n_1144_17" x="0" y="0" width="323.154" height="265.188" filterUnits="userSpaceOnUse" color-interpolation-filters="sRGB">
<feFlood flood-opacity="0" result="BackgroundImageFix"/>
<feBlend mode="normal" in="SourceGraphic" in2="BackgroundImageFix" result="shape"/>
<feTurbulence type="fractalNoise" baseFrequency="10 10" stitchTiles="stitch" numOctaves="3" result="noise" seed="6985" />
<feColorMatrix in="noise" type="luminanceToAlpha" result="alphaNoise" />
<feComponentTransfer in="alphaNoise" result="coloredNoise1">
<feFuncA type="discrete" tableValues="1 1 1 1 1 1 1 1 1 1 1 1 1 1 1 1 1 1 1 1 1 1 1 1 1 1 1 1 1 1 1 1 1 1 1 1 1 1 1 1 1 1 1 1 1 1 1 1 1 1 1 0 0 0 0 0 0 0 0 0 0 0 0 0 0 0 0 0 0 0 0 0 0 0 0 0 0 0 0 0 0 0 0 0 0 0 0 0 0 0 0 0 0 0 0 0 0 0 0 0 "/>
</feComponentTransfer>
<feComposite operator="in" in2="shape" in="coloredNoise1" result="noise1Clipped" />
<feFlood flood-color="rgba(113, 25, 25, 0.24)" result="color1Flood" />
<feComposite operator="in" in2="noise1Clipped" in="color1Flood" result="color1" />
<feMerge result="effect1_noise_1144_17">
<feMergeNode in="shape" />
<feMergeNode in="color1" />
</feMerge>
</filter>
<linearGradient id="paint0_linear_1144_17" x1="161.577" y1="-5.37377e-06" x2="309.746" y2="258.022" gradientUnits="userSpaceOnUse">
<stop stop-color="#AC5052"/>
<stop offset="0.5" stop-color="#8C726D"/>
<stop offset="1" stop-color="#42312E"/>
</linearGradient>
</defs>
</svg>
