<svg width="241" height="148" viewBox="0 0 241 148" fill="none" xmlns="http://www.w3.org/2000/svg">
<path d="M181.065 48.0853C184.873 49.1542 190.885 52.9296 192.252 61.9812C195.926 62.451 202.007 65.5243 196.941 74.0598C198.455 75.4554 201.373 79.4621 200.933 84.3241C205.614 81.2628 216.021 78.5707 220.207 92.2924C227.09 89.5463 240.224 87.5925 237.691 101.746C242.698 111.387 243.912 132.135 208.713 137.999C199.765 144.876 176.004 154.504 152.538 137.999C148.941 141.981 139.255 148.315 129.293 141.8C124.589 145.238 113.299 149.292 105.772 137.999C101.621 143.157 91.8249 149.618 85.8477 134.198C79.4831 140.895 63.8759 149.455 52.3642 130.126C48.8591 126.959 43.9519 120.028 52.3642 117.639C35.4841 115.919 10.745 105.585 46.8297 78.0037C25.6151 75.6775 -12.6247 63.8732 4.13184 35.2658C7.12407 35.2658 18.8807 -0.760286 52.3642 29.9286C48.7998 21.478 47.2745 5.85778 69.6891 10.9815C72.9534 10.9815 89.8188 -12.2354 114.573 8.84661C121.011 4.22103 137.314 -2.25478 151.024 8.84661C156.464 10.3588 168.052 16.1052 170.881 26.9931C175.778 22.2786 189.27 14.5574 204.068 21.3891C207.733 23.081 210.041 23.2483 210.041 35.116C210.838 41.4892 205.078 52.9282 181.065 48.0853Z" fill="url(#paint0_linear_1144_12)"/>
<defs>
<linearGradient id="paint0_linear_1144_12" x1="120.147" y1="0" x2="120.147" y2="147.113" gradientUnits="userSpaceOnUse">
<stop stop-color="#E38A88"/>
<stop offset="1" stop-color="#D78583"/>
</linearGradient>
</defs>
</svg>
