<svg width="212" height="163" viewBox="0 0 212 163" fill="none" xmlns="http://www.w3.org/2000/svg">
<g filter="url(#filter0_n_1144_13)">
<path d="M75.6107 34.6004C70.3905 10.2599 92.4387 9.58377 104.115 12.2883C107.178 3.4875 112.068 6.76973 114.131 9.51094C115.064 7.28906 118.662 8.58516 120.345 9.51094C122.33 0.325385 131.959 2.69282 136.526 5.02474C137.331 0.884641 142.149 3.2997 144.457 5.02474C151.608 -4.07555 163.382 1.23295 168.376 5.02474C189.055 -0.786102 194.684 16 194.914 25.1194C220.869 37.578 210.266 60.4542 201.72 70.335C200.028 75.4523 194.466 74.2523 191.897 73.0126C205.075 82.6522 194.965 92.0148 188.262 95.4912C192.146 105.899 183.947 111.731 179.362 113.346C179.969 127.683 163.503 128.512 162.47 129.699C163.021 134.506 156.387 137.313 153.001 138.115C153.001 146.718 149.757 151.122 148.135 152.248C152.989 151.401 151.489 157.743 150.132 161.019C148.227 164.286 144.269 161.07 142.527 159.053C142.282 162.38 139.66 162.809 138.379 162.607C132.296 160.671 135.845 153.584 138.379 150.282C130.76 157.904 123.181 155.989 120.345 154.079C113.589 146.805 119.641 144.136 123.512 143.711C121.477 138.219 129.986 135.543 134.975 134.8C125.786 135.962 125.245 130.364 126.151 127.362C121.928 128.537 122.016 123.754 122.588 121.216C118.682 125.881 113.571 122.64 111.504 120.436C107.809 125.84 105.214 122.688 104.378 120.436C101.95 121.58 100.639 119.96 100.287 119.008C100.076 125.347 95.13 127.218 92.6833 127.362C90.5517 135.545 83.4464 133.569 80.1602 131.558C80.0191 134.128 75.1386 135.186 72.664 135.401C73.9604 135.315 73.9407 137.166 73.7655 138.115C78.8813 143.571 70.6865 146.8 65.9497 147.732C61.1181 153.398 56.1799 150.093 54.3147 147.732C54.1016 149.971 51.147 149.889 49.6963 149.568C42.9463 148.309 43.4496 144.206 44.545 142.312C42.9818 142.312 42.5318 141.729 42.5022 141.438C42.0759 145.075 39.6009 146.042 38.4167 146.071C34.3667 148.799 31.6962 144.119 30.8673 141.438C30.1567 142.277 28.9725 141.787 28.4693 141.438C22.9982 148.991 14.1698 146.1 10.4395 143.711C0.847387 134.059 9.87707 128.382 15.5909 126.75C15.1647 125.001 17.1896 123.981 18.2553 123.69C16.7632 120.892 20.4165 116.987 22.4297 115.384C16.8876 117.272 15.5613 112.266 15.5909 109.526C9.33828 107.148 13.7555 102.474 16.7457 100.434C12.4115 96.7968 14.9398 92.7401 16.7457 91.1664C20.8668 84.6617 25.0944 87.9898 26.6931 90.4669C26.622 87.3895 30.0384 86.795 31.7555 86.8824C27.4212 83.1754 29.9495 79.9173 31.7555 78.7516C25.4496 65.2002 44.1961 56.0537 43.9225 56.387C51.13 47.4527 60.7286 47.978 64.4547 49.4835C62.7195 40.3522 70.5722 39.9307 74.7154 40.8613C73.047 39.1533 74.6171 35.9757 75.6107 34.6004Z" fill="url(#paint0_linear_1144_13)"/>
<path d="M4.18243 156.361C-3.39235 151.365 1.02627 149.751 4.18243 149.568C6.26813 148.956 10.4395 148.784 10.4395 152.992C10.4395 157.2 6.26813 156.992 4.18243 156.361Z" fill="url(#paint1_linear_1144_13)"/>
<path d="M6.12173 90.4669C0.372196 86.9818 4.94292 84.3579 7.94697 83.4816C10.4111 83.4816 10.951 85.7488 10.913 86.8824C11.2918 91.0404 7.87664 91.0046 6.12173 90.4669Z" fill="url(#paint2_linear_1144_13)"/>
</g>
<defs>
<filter id="filter0_n_1144_13" x="0" y="0" width="211.293" height="162.649" filterUnits="userSpaceOnUse" color-interpolation-filters="sRGB">
<feFlood flood-opacity="0" result="BackgroundImageFix"/>
<feBlend mode="normal" in="SourceGraphic" in2="BackgroundImageFix" result="shape"/>
<feTurbulence type="fractalNoise" baseFrequency="10 10" stitchTiles="stitch" numOctaves="3" result="noise" seed="2518" />
<feColorMatrix in="noise" type="luminanceToAlpha" result="alphaNoise" />
<feComponentTransfer in="alphaNoise" result="coloredNoise1">
<feFuncA type="discrete" tableValues="1 1 1 1 1 1 1 1 1 1 1 1 1 1 1 1 1 1 1 1 1 1 1 1 1 1 1 1 1 1 1 1 1 1 1 1 1 1 1 1 1 1 1 1 1 1 1 1 1 1 1 0 0 0 0 0 0 0 0 0 0 0 0 0 0 0 0 0 0 0 0 0 0 0 0 0 0 0 0 0 0 0 0 0 0 0 0 0 0 0 0 0 0 0 0 0 0 0 0 0 "/>
</feComponentTransfer>
<feComposite operator="in" in2="shape" in="coloredNoise1" result="noise1Clipped" />
<feFlood flood-color="rgba(195, 71, 71, 0.13)" result="color1Flood" />
<feComposite operator="in" in2="noise1Clipped" in="color1Flood" result="color1" />
<feMerge result="effect1_noise_1144_13">
<feMergeNode in="shape" />
<feMergeNode in="color1" />
</feMerge>
</filter>
<linearGradient id="paint0_linear_1144_13" x1="54.9142" y1="19.1958" x2="119.943" y2="173.982" gradientUnits="userSpaceOnUse">
<stop stop-color="#D38381"/>
<stop offset="1" stop-color="#E6B7B7"/>
</linearGradient>
<linearGradient id="paint1_linear_1144_13" x1="54.9142" y1="19.1958" x2="119.943" y2="173.982" gradientUnits="userSpaceOnUse">
<stop stop-color="#D38381"/>
<stop offset="1" stop-color="#E6B7B7"/>
</linearGradient>
<linearGradient id="paint2_linear_1144_13" x1="54.9142" y1="19.1958" x2="119.943" y2="173.982" gradientUnits="userSpaceOnUse">
<stop stop-color="#D38381"/>
<stop offset="1" stop-color="#E6B7B7"/>
</linearGradient>
</defs>
</svg>
