<svg width="258" height="130" viewBox="0 0 258 130" fill="none" xmlns="http://www.w3.org/2000/svg">
<g filter="url(#filter0_n_1144_24)">
<path d="M90.8687 23.1377C90.3684 20.3782 91.1688 14.9866 98.3725 15.496C95.779 14.8142 91.37 12.7306 94.4823 9.85139C96.0447 8.33601 99.801 6.87745 102.326 13.1663C102.454 11.7456 103.436 9.09371 106.344 9.85139C104.144 8.58857 100.509 5.17266 103.57 1.61153C105.228 0.632857 108.774 -0.623622 109.692 2.17982C111.701 1.32742 116.025 0.64549 117.249 4.737C119.609 2.02195 125.974 -2.40423 132.555 1.61153C137.115 1.20112 146.483 3.05114 147.478 13.7345C148.754 13.6083 151.706 14.0755 153.313 16.9547C154.94 14.7764 159.053 11.1963 162.497 14.3028C169.384 15.976 181.82 22.1449 176.463 33.4344C178.727 33.8764 182.356 35.9159 178.759 40.5378C180.003 40.6325 182.738 41.4091 183.733 43.7579C185.87 41.2323 191.195 37.0524 195.404 40.5378C196.934 37.1282 201.507 31.5213 207.553 36.3705C213.053 34.5728 224.053 34.456 224.053 48.3706C224.769 48.5961 226.102 49.6268 225.712 51.9459C228.282 50.0133 233.949 47.9841 236.057 55.3279C237.717 57.0994 239.649 61.5508 234.105 65.1841C235.049 64.8942 237.072 64.7782 237.619 66.6335C240.947 64.0933 248.666 62.0298 252.913 74.0971C254.375 76.3825 256.007 81.7305 250.836 84.8388C254.683 87.429 261.039 93.7064 255.683 98.0945C256.223 101.154 255.663 106.762 249.111 104.72C248.557 107.752 245.852 112.285 239.467 106.161C239.682 108.816 238.911 113.646 234.105 111.715C232.581 111.774 229.675 110.746 230.249 106.161C229.102 105.738 226.363 104.213 224.585 101.494C224.872 103.623 224.312 107.896 219.782 107.953C222.769 109.065 227.911 112.396 224.585 116.825C229.747 117.796 238.952 121.34 234.478 127.757C230.918 128.514 223.467 128.197 222.147 120.871C221.454 121.747 219.81 123.327 218.778 122.646C219.59 125.225 219.939 130.184 214.835 129.389C213.258 129.484 210.003 129.105 209.601 126.834C207.164 128.372 202.36 129.687 202.647 122.646C200.568 125.249 195.578 129.091 192.252 123.64C192.06 122.599 192.553 120.105 196.051 118.458C194.02 118.576 189.785 117.947 189.097 114.483C188.093 118.056 184.079 123.767 176.049 118.032C173.779 117.086 169.382 114.029 169.955 109.372C168.474 114.862 163.058 124.52 153.251 119.239C152.08 118.647 149.767 116.655 149.881 113.418C149.38 113.418 143.142 120.942 142.139 110.224C140.131 111.975 134.754 114.142 129.306 108.805C126.844 107.574 123.126 103.765 127.943 98.3704C125.972 99.6461 121.458 101.287 119.176 97.6465C118.093 96.9141 116.925 94.3352 120.919 89.8784C116.217 93.9586 106.242 98.8549 103.959 85.7981C103.405 87.9167 101.36 91.8086 97.6191 90.4276C98.4645 92.5985 98.7604 96.9246 93.181 96.8618C93.8943 99.6813 93.6724 105.669 87.0786 107.062C86.0219 108.213 83.2427 109.15 80.5798 103.688C80.849 106.128 79.2097 110.566 70.4991 108.805C68.2656 110.81 63.22 112.845 60.9053 104.944C61.7175 109.191 61.0271 117.428 51.7682 116.403C49.5347 116.705 44.5956 116.147 42.7073 111.503C41.9691 114.82 38.948 120.819 32.7694 118.283C31.3081 121.646 27.305 126.848 22.9837 120.754C22.1652 119.431 21.0194 116.071 22.9837 113.219C20.201 113.65 14.8975 113.768 15.9451 110.788C15.2904 111.247 13.719 111.89 12.6714 110.788C12.2622 112.735 10.1506 115.462 4.97814 110.788C2.93204 108.654 0.96775 103.77 9.47941 101.307C9.88824 99.7384 11.2832 96.7004 13.7182 96.3221C8.28205 96.6891 -1.31005 95.7664 0.149222 89.2334C-0.123591 86.9646 1.11496 82.7024 8.25166 83.8044C7.74138 80.7458 8.52205 74.5497 15.6098 73.8655C14.0835 73.9274 11.6725 73.1751 12.0983 69.624C12.0983 68.8947 2.27713 70.7584 3.09556 62.8985C3.53205 60.6836 5.64905 56.2863 10.6251 56.416C10.6251 56.0108 9.15193 50.1766 19.0549 51.7162C17.0634 50.7168 13.8006 47.5512 16.6815 42.8839C17.1452 42.1276 19.104 40.9553 23.2289 42.3167C23.1198 40.534 23.8509 37.1955 27.6484 38.1031C28.5487 38.1301 30.3983 38.6541 30.5948 40.534C31.5769 40.1288 33.6393 39.5616 34.0322 40.534C34.425 41.5063 34.4687 40.9391 34.4414 40.534C33.7866 37.1307 34.3104 29.6759 41.6435 27.0829C44.3716 26.4616 49.7951 26.386 49.6641 31.0534C52.9924 30.4862 60.6147 31.102 64.4777 38.1031C65.5689 36.2664 68.8972 32.674 73.4804 32.9981C70.8069 31.6206 66.2619 27.4394 69.4701 21.7348C70.6432 19.2499 74.4134 15.0255 80.1097 18.0074C82.756 17.3761 87.6883 17.5182 86.2479 23.1377C87.3915 22.6329 89.9167 21.9263 90.8687 23.1377Z" fill="url(#paint0_linear_1144_24)"/>
<path d="M240.721 114.483C238.399 114.413 234.327 115.024 236.611 118.032C239.173 119.361 243.583 120.512 240.721 114.483Z" fill="url(#paint1_linear_1144_24)"/>
</g>
<defs>
<filter id="filter0_n_1144_24" x="0" y="0" width="257.74" height="129.474" filterUnits="userSpaceOnUse" color-interpolation-filters="sRGB">
<feFlood flood-opacity="0" result="BackgroundImageFix"/>
<feBlend mode="normal" in="SourceGraphic" in2="BackgroundImageFix" result="shape"/>
<feTurbulence type="fractalNoise" baseFrequency="2 2" stitchTiles="stitch" numOctaves="3" result="noise" seed="6047" />
<feColorMatrix in="noise" type="luminanceToAlpha" result="alphaNoise" />
<feComponentTransfer in="alphaNoise" result="coloredNoise1">
<feFuncA type="discrete" tableValues="1 1 1 1 1 1 1 1 1 1 1 1 1 1 1 1 1 1 1 1 1 1 1 1 1 1 1 1 1 1 1 1 1 1 1 1 1 1 1 1 1 1 1 1 1 1 1 1 1 1 1 0 0 0 0 0 0 0 0 0 0 0 0 0 0 0 0 0 0 0 0 0 0 0 0 0 0 0 0 0 0 0 0 0 0 0 0 0 0 0 0 0 0 0 0 0 0 0 0 0 "/>
</feComponentTransfer>
<feComposite operator="in" in2="shape" in="coloredNoise1" result="noise1Clipped" />
<feFlood flood-color="rgba(226, 89, 89, 0.16)" result="color1Flood" />
<feComposite operator="in" in2="noise1Clipped" in="color1Flood" result="color1" />
<feMerge result="effect1_noise_1144_24">
<feMergeNode in="shape" />
<feMergeNode in="color1" />
</feMerge>
</filter>
<linearGradient id="paint0_linear_1144_24" x1="128.87" y1="0" x2="128.87" y2="129.474" gradientUnits="userSpaceOnUse">
<stop stop-color="#EECFC7"/>
<stop offset="1" stop-color="#E6AAA4"/>
</linearGradient>
<linearGradient id="paint1_linear_1144_24" x1="128.87" y1="0" x2="128.87" y2="129.474" gradientUnits="userSpaceOnUse">
<stop stop-color="#EECFC7"/>
<stop offset="1" stop-color="#E6AAA4"/>
</linearGradient>
</defs>
</svg>
