<svg width="53" height="52" viewBox="0 0 53 52" fill="none" xmlns="http://www.w3.org/2000/svg">
<path d="M38.47 12.4436C49.0439 -1.07014 50.8081 13.3724 50.3685 22.2829C55.8919 21.6204 50.3685 29.0693 50.3685 29.6018C55.5729 35.457 50.5215 40.5026 47.3452 42.2935C47.988 45.7726 42.6725 46.6424 39.9343 46.6424C36.3629 54.4526 29.3985 51.7309 26.3627 49.3937C24.577 52.0918 20.2615 49.9854 18.3269 48.5949C13.5411 52.7841 7.04694 48.6245 4.39807 46.0211C-3.81638 39.3469 1.3325 33.0632 4.93374 30.7556C-2.63779 26.7795 1.42182 19.7503 4.39807 16.7327C10.8982 8.42541 15.0827 12.9163 16.3624 16.2002C17.0053 14.9931 19.1303 16.7031 20.1124 17.709C18.3267 14.0498 20.8564 11.9833 22.3445 11.4075C21.5588 4.23628 27.4339 0.96423 30.4697 0.22461C37.7555 -1.55045 37.5802 7.63102 36.5819 12.4436C37.1861 11.7429 38.0924 12.1517 38.47 12.4436Z" fill="url(#paint0_linear_1144_7)"/>
<defs>
<linearGradient id="paint0_linear_1144_7" x1="32.4693" y1="35.2543" x2="0.0302772" y2="25.8077" gradientUnits="userSpaceOnUse">
<stop stop-color="#F3B4B2"/>
<stop offset="1" stop-color="#D7918F"/>
</linearGradient>
</defs>
</svg>
