<svg width="329" height="188" viewBox="0 0 329 188" fill="none" xmlns="http://www.w3.org/2000/svg">
<path d="M87.9047 39.6278C72.8772 43.2874 73.1049 55.1813 75.0972 60.6707C58.7036 57.0111 55.1744 75.6143 55.459 85.3733C48.6283 77.3221 35.5362 88.728 29.844 95.4373C-4.3094 99.097 3.09049 110.381 11.0596 115.565C4.22899 115.565 3.65969 125.934 4.22887 131.119C-8.06634 150.881 9.35188 163.141 19.5979 166.8C19.5979 187.294 40.6591 188.758 51.1898 186.928C83.6355 186.014 68.2664 160.396 68.2664 157.651C73.731 165.702 83.6355 162.836 87.9047 160.396C104.981 162.592 113.804 145.452 116.081 136.608C116.764 153.443 135.15 149.112 144.258 144.843C148.356 160.213 156.781 156.126 160.481 152.162C175.508 171.192 188.372 160.091 192.926 152.162C204.88 150.332 205.734 140.268 205.734 136.608C218.029 145.391 227.364 132.949 230.495 125.629C240.741 144.66 249.564 140.878 252.695 136.608C263.624 153.443 271.479 149.112 274.04 144.843C315.708 159.481 326.124 131.424 326.124 115.565C335.687 78.9689 311.894 66.7701 298.802 65.2453C306.999 54.9983 299.371 48.7769 294.533 46.947C294.533 23.5253 279.164 24.3793 271.479 27.734C269.43 15.2912 259.81 19.4997 255.256 23.1594C243.644 -9.77744 217.403 -0.323326 205.734 8.52083C181.143 -13.437 163.611 12.1805 157.919 27.734C149.722 21.8785 143.688 27.7339 141.696 31.3936C117.789 9.43571 91.32 39.6278 87.9047 39.6278Z" fill="url(#paint0_linear_1144_8)"/>
<path d="M12.7673 89.033C12.0842 83.9094 6.7904 86.8982 4.22887 89.033C2.52117 92.6925 2.52127 92.6926 5.93639 95.4371L5.93661 95.4373C9.35195 98.1821 13.6211 95.4373 12.7673 89.033Z" fill="url(#paint1_linear_1144_8)"/>
<path d="M87.9047 31.3936C92.6862 29.1978 88.1893 24.3793 85.3432 22.2444C77.6587 16.7549 72.5357 29.5637 74.2434 32.3085C75.951 35.0532 81.9279 34.1383 87.9047 31.3936Z" fill="url(#paint2_linear_1144_8)"/>
<path d="M99.8584 19.4997C96.4431 15.8401 101.281 13.7053 104.128 13.0953C111.812 11.2655 110.104 19.4997 108.397 22.2444C106.689 24.9892 104.128 24.0743 99.8584 19.4997Z" fill="url(#paint3_linear_1144_8)"/>
<defs>
<linearGradient id="paint0_linear_1144_8" x1="164.167" y1="0" x2="63.0612" y2="118.429" gradientUnits="userSpaceOnUse">
<stop stop-color="#F0CAC4"/>
<stop offset="0.5" stop-color="#EEACA9"/>
<stop offset="1" stop-color="#D07F7F"/>
</linearGradient>
<linearGradient id="paint1_linear_1144_8" x1="164.167" y1="0" x2="63.0612" y2="118.429" gradientUnits="userSpaceOnUse">
<stop stop-color="#F0CAC4"/>
<stop offset="0.5" stop-color="#EEACA9"/>
<stop offset="1" stop-color="#D07F7F"/>
</linearGradient>
<linearGradient id="paint2_linear_1144_8" x1="164.167" y1="0" x2="63.0612" y2="118.429" gradientUnits="userSpaceOnUse">
<stop stop-color="#F0CAC4"/>
<stop offset="0.5" stop-color="#EEACA9"/>
<stop offset="1" stop-color="#D07F7F"/>
</linearGradient>
<linearGradient id="paint3_linear_1144_8" x1="164.167" y1="0" x2="63.0612" y2="118.429" gradientUnits="userSpaceOnUse">
<stop stop-color="#F0CAC4"/>
<stop offset="0.5" stop-color="#EEACA9"/>
<stop offset="1" stop-color="#D07F7F"/>
</linearGradient>
</defs>
</svg>
