<svg width="141" height="120" viewBox="0 0 141 120" fill="none" xmlns="http://www.w3.org/2000/svg">
<path d="M40.2686 30.4171C42.9124 29.6154 49.0158 28.969 52.2793 32.7974C52.8985 28.9961 55.8023 21.9552 62.4636 24.2026C64.5633 17.1418 71.9392 6.1177 84.6458 18.5083C86.3139 14.733 90.7756 8.35535 95.277 13.0473C96.3234 6.13378 100.882 -5.55017 110.745 3.02238C110.706 4.58281 110.18 8.83757 108.388 13.3731C111.71 13.4557 118.713 16.0239 120.153 25.6362C120.209 26.0065 120.261 26.3552 120.31 26.6832C123.532 26.8379 130.192 29.0538 132.469 36.8721C139.408 46.2394 148.495 71.9334 129.331 99.7706C112.217 112.704 69.7396 132.64 36.7434 108.92C25.0694 107.068 1.57624 100.759 0.995632 90.3357C-1.77623 75.1733 -0.417864 45.8528 27.1905 49.8698C25.891 45.8473 24.5508 37.8335 29.5855 37.9586C31.1589 37.9977 26.2635 23.8235 40.2686 30.4171Z" fill="url(#paint0_linear_1144_16)"/>
<defs>
<linearGradient id="paint0_linear_1144_16" x1="0.511789" y1="57.8138" x2="140.92" y2="61.3031" gradientUnits="userSpaceOnUse">
<stop stop-color="#E1BBB6"/>
<stop offset="1" stop-color="#CD6765"/>
</linearGradient>
</defs>
</svg>
