<svg width="280" height="208" viewBox="0 0 280 208" fill="none" xmlns="http://www.w3.org/2000/svg">
<g filter="url(#filter0_n_1144_11)">
<path d="M38.9323 73.1121C35.5033 59.4642 46.6886 60.7234 52.7098 63.059C47.3347 59.8181 48.8996 55.6638 50.354 53.9918C36.3825 51.4022 37.5696 42.2365 39.9096 37.9773C45.3886 31.9163 53.6072 40.5027 57.0316 45.5536C54.2921 27.7633 68.6745 27.5248 76.2082 29.6294C75.6603 23.4962 81.2306 20.8271 84.0843 20.2592C94.4945 10.3098 100.065 18.0445 101.549 23.1554C103.74 20.5659 107.37 22.0765 108.911 23.1554L109.939 17.5334C115.965 -1.72931 128.642 2.90516 134.226 7.63023C137.286 -2.37391 146.521 -0.434695 150.756 1.78543C165.072 -3.54286 173.933 7.26776 176.575 13.3391C184.443 8.77199 190.508 11.4361 192.558 13.3391C201.38 21.9039 194.419 31.9619 189.639 36.1192C190.968 35.1626 192.126 37.5198 192.558 38.8932C195.836 30.8464 202.211 30.2845 204.989 31.0095C209.251 34.3804 200.754 42.1101 195.973 45.5536C199.688 44.5749 203.532 47.4112 204.989 48.9517V45.5536C208.704 32.6134 218.103 37.5339 222.338 41.6117C230.862 34.1086 240.916 43.3787 244.878 48.9517C256.353 62.1093 252.573 71.5607 249.249 74.6417C263.129 89.5392 249.568 96.3445 241.053 97.885C251.435 100.386 250.297 108.623 248.43 112.429C255.752 105.035 259.95 109.348 261.134 112.429C286.925 110.363 280.259 130.145 273.702 140.294C284.303 148.015 277.117 156.197 272.199 159.324C280.724 177.157 259.358 182.25 247.61 182.567C250.67 195.799 240.78 198.32 235.452 197.926C228.786 215.325 218.558 204.27 214.278 196.567C203.022 208.094 192.558 194.846 188.733 186.781C179.115 191.441 175.983 184.839 175.618 180.954C167.75 190.321 158.369 184.857 154.663 180.954C147.07 186.316 135.17 181.97 130.17 179.127C118.658 184.245 118.433 172.526 119.76 166.027C114.126 174.801 90.4701 169.683 79.3461 166.027C55.3427 171.876 45.6679 158.513 43.8309 151.1C16.8883 156.705 7.09094 129.673 5.56008 115.457C-10.6055 97.4223 12.2958 90.0703 25.7671 88.6487C23.5627 78.4128 33.6254 74.026 38.9323 73.1121Z" fill="url(#paint0_linear_1144_11)"/>
</g>
<defs>
<filter id="filter0_n_1144_11" x="0" y="0" width="279.653" height="207.186" filterUnits="userSpaceOnUse" color-interpolation-filters="sRGB">
<feFlood flood-opacity="0" result="BackgroundImageFix"/>
<feBlend mode="normal" in="SourceGraphic" in2="BackgroundImageFix" result="shape"/>
<feTurbulence type="fractalNoise" baseFrequency="2 2" stitchTiles="stitch" numOctaves="3" result="noise" seed="234" />
<feColorMatrix in="noise" type="luminanceToAlpha" result="alphaNoise" />
<feComponentTransfer in="alphaNoise" result="coloredNoise1">
<feFuncA type="discrete" tableValues="1 1 1 1 1 1 1 1 1 1 1 1 1 1 1 1 1 1 1 1 1 1 1 1 1 1 1 1 1 1 1 1 1 1 1 1 1 1 1 1 1 1 1 1 1 1 1 1 1 1 1 0 0 0 0 0 0 0 0 0 0 0 0 0 0 0 0 0 0 0 0 0 0 0 0 0 0 0 0 0 0 0 0 0 0 0 0 0 0 0 0 0 0 0 0 0 0 0 0 0 "/>
</feComponentTransfer>
<feComposite operator="in" in2="shape" in="coloredNoise1" result="noise1Clipped" />
<feFlood flood-color="rgba(228, 91, 91, 0.25)" result="color1Flood" />
<feComposite operator="in" in2="noise1Clipped" in="color1Flood" result="color1" />
<feMerge result="effect1_noise_1144_11">
<feMergeNode in="shape" />
<feMergeNode in="color1" />
</feMerge>
</filter>
<linearGradient id="paint0_linear_1144_11" x1="258.624" y1="59.906" x2="27.4731" y2="-21.8127" gradientUnits="userSpaceOnUse">
<stop stop-color="#F7CCCA"/>
<stop offset="0.5" stop-color="#E4A7A5"/>
</linearGradient>
</defs>
</svg>
