<svg width="207" height="143" viewBox="0 0 207 143" fill="none" xmlns="http://www.w3.org/2000/svg">
<g filter="url(#filter0_n_1144_14)">
<path d="M168.701 10.2023C183.873 5.2137 192.282 14.8544 194.589 20.2984C201.665 20.2984 199.82 25.2645 198.013 27.7475C203.061 29.2689 201.206 35.4073 199.647 38.2863C207.602 40.4262 206.577 50.9413 205.071 55.9314C204.167 81.8982 178.557 84.947 178.557 87.6218C183.378 109.258 160.078 116.899 147.825 118.015C146.861 147.085 114.579 144.876 98.5585 140.138C89.6166 146.932 84.2087 138.206 82.6225 132.993C81.387 130.48 82.1077 128.258 82.6225 127.46C77.2604 128.688 74.4836 118.92 73.7655 113.883C70.6057 122.667 66.7038 120.298 65.1479 118.015C63.1371 123.777 55.2935 122.147 51.623 120.613C52.9635 128.735 43.5374 128.562 38.6568 127.46C33.0715 137.472 28.3768 130.609 26.7277 125.926C19.3514 125.453 18.0687 120.455 18.3494 118.015C15.6684 111.026 21.7007 109.278 25.052 109.278C21.222 103.422 30.7201 98.5925 35.9479 96.9095C34.3453 94.8014 33.8509 93.8625 33.7833 93.5164C32.6984 96.4992 27.9781 98.2054 25.713 98.6912C15.3579 102.967 16.9831 96.9095 19.0901 93.3462C13.3101 95.2466 12.2668 87.6053 12.4677 83.5471C0.667342 84.4973 1.53022 74.2429 3.4367 68.9969C9.6981 56.4066 16.4812 64.9387 19.0901 70.7786C19.5717 68.403 22.3011 69.7888 23.6055 70.7786C22.8831 63.4144 28.1209 57.8121 30.8301 55.9314C13.0092 44.2913 28.6226 27.326 38.6568 20.2984C43.7141 11.2713 54.8121 13.5677 59.7289 15.8442C69.8078 10.3208 68.8638 15.4995 66.8259 19.4362C67.7935 18.6092 69.8037 19.5722 70.8671 20.2984C71.5896 11.7464 77.1886 8.81659 79.8978 8.42067C72.1915 3.19448 76.6869 1.68998 79.8978 1.59099C87.3633 -1.97232 88.0255 4.65939 87.4235 8.42067C91.5174 5.57001 94.9491 7.23289 96.1532 8.42067C103.619 -5.59501 112.509 0.997108 116.021 6.04513C130.229 5.09491 125.553 13.1717 121.439 17.3289C125.533 14.9534 128.239 18.9013 130.547 20.8809C131.748 22.8907 133.42 26.4748 131.975 20.2984C130.531 14.1219 137.996 12.1819 141.91 11.984C152.747 -2.26924 164.286 4.85737 168.701 10.2023Z" fill="url(#paint0_linear_1144_14)"/>
<path d="M0.2758 93.3462C2.82908 87.7723 9.7737 92.2295 12.9269 95.1549C15.2033 98.2197 11.8246 100.099 9.85066 100.655C0.0989668 101.596 -0.595785 96.1744 0.2758 93.3462Z" fill="url(#paint1_linear_1144_14)"/>
</g>
<defs>
<filter id="filter0_n_1144_14" x="0" y="0" width="206.114" height="142.97" filterUnits="userSpaceOnUse" color-interpolation-filters="sRGB">
<feFlood flood-opacity="0" result="BackgroundImageFix"/>
<feBlend mode="normal" in="SourceGraphic" in2="BackgroundImageFix" result="shape"/>
<feTurbulence type="fractalNoise" baseFrequency="10 10" stitchTiles="stitch" numOctaves="3" result="noise" seed="8284" />
<feColorMatrix in="noise" type="luminanceToAlpha" result="alphaNoise" />
<feComponentTransfer in="alphaNoise" result="coloredNoise1">
<feFuncA type="discrete" tableValues="1 1 1 1 1 1 1 1 1 1 1 1 1 1 1 1 1 1 1 1 1 1 1 1 1 1 1 1 1 1 1 1 1 1 1 1 1 1 1 1 1 1 1 1 1 1 1 1 1 1 1 0 0 0 0 0 0 0 0 0 0 0 0 0 0 0 0 0 0 0 0 0 0 0 0 0 0 0 0 0 0 0 0 0 0 0 0 0 0 0 0 0 0 0 0 0 0 0 0 0 "/>
</feComponentTransfer>
<feComposite operator="in" in2="shape" in="coloredNoise1" result="noise1Clipped" />
<feFlood flood-color="rgba(201, 17, 17, 0.11)" result="color1Flood" />
<feComposite operator="in" in2="noise1Clipped" in="color1Flood" result="color1" />
<feMerge result="effect1_noise_1144_14">
<feMergeNode in="shape" />
<feMergeNode in="color1" />
</feMerge>
</filter>
<linearGradient id="paint0_linear_1144_14" x1="43.8772" y1="53.1894" x2="101.927" y2="143.695" gradientUnits="userSpaceOnUse">
<stop stop-color="#E8A2A0"/>
<stop offset="1" stop-color="#E9C4BC"/>
</linearGradient>
<linearGradient id="paint1_linear_1144_14" x1="43.8772" y1="53.1894" x2="101.927" y2="143.695" gradientUnits="userSpaceOnUse">
<stop stop-color="#E8A2A0"/>
<stop offset="1" stop-color="#E9C4BC"/>
</linearGradient>
</defs>
</svg>
