<svg width="301" height="199" viewBox="0 0 301 199" fill="none" xmlns="http://www.w3.org/2000/svg">
<g filter="url(#filter0_n_1144_15)">
<path d="M127.002 180.938C108.232 209.287 72.2543 197.846 56.6119 188.581C47.632 196.169 39.5961 189.516 36.7007 185.24C30.1142 192.847 18.1886 186.766 13.0491 182.775C1.91196 185.718 -0.273592 179.306 0.0257811 175.732C-0.0939735 165.452 7.45986 161.89 11.2517 161.394C6.18628 158.475 7.1928 155.947 8.32924 155.048C-2.71085 149.463 1.5644 144.576 5.08204 142.831C5.47169 138.389 12.9292 136.643 16.6092 136.326C7.22652 121.73 17.9043 109.786 24.416 105.638C23.4865 102.345 26.6431 98.6834 28.3376 97.264C16.1373 91.4731 23.2541 85.5781 28.3376 83.3545C27.0595 76.4281 31.8718 69.7761 34.4377 67.3159C39.5502 58.1186 47.5095 58.2795 50.85 59.5096C55.8463 48.609 63.0019 52.5075 65.9551 55.8193C63.9798 42.9884 78.107 44.5119 85.4174 46.8774C82.0479 42.1084 84.0134 38.456 85.4174 37.2259C91.5757 29.2776 97.9566 33.9141 100.377 37.2259C102.236 35.0685 109.382 36.327 112.723 37.2259C111.677 20.648 120.517 24.3572 125.068 28.2841C125.417 27.2621 127.67 26.9321 128.753 26.8949C123.591 20.9288 127.619 17.94 130.279 17.1914C134.108 14.9412 138.257 19.4234 139.853 21.9458C142.794 19.4204 144.676 19.5991 145.248 20.0041C156.946 3.00865 161.82 11.0475 162.794 17.1914C163.656 14.7005 169.105 16.1535 171.721 17.1914C165.565 6.12054 175.928 1.11761 181.879 0C191.237 0 196.294 11.4609 197.652 17.1914C200.059 12.8788 205.294 15.3945 207.61 17.1914C216.092 10.8625 220.41 19.8284 221.508 25.1024C232.398 20.3418 233.796 28.6734 233.133 33.4342C235.594 32.9534 238.259 38.4433 239.284 41.2484C248.142 35.9588 253.021 43.4523 254.354 47.8603C256.814 45.9368 263.375 48.6617 266.348 50.2647C264.134 45.456 268.758 42.2502 271.347 41.2484C269.195 33.314 278.395 31.1301 283.263 31.0299C292.796 29.5873 298.512 41.6491 300.178 47.8603C304.001 55.6195 287.3 68.0986 283.676 68.8679C287.761 68.7133 288.799 73.1824 288.799 75.5103C291.752 79.8381 286.339 86.5302 283.263 89.3353C287.938 98.2314 277.267 104.222 271.347 106.105C280.932 132.642 252.711 144.913 237.403 147.732C242.195 175.83 199.222 182.802 177.136 182.775C162.051 198.214 137.428 187.983 127.002 180.938Z" fill="url(#paint0_linear_1144_15)"/>
</g>
<defs>
<filter id="filter0_n_1144_15" x="0" y="0" width="300.743" height="198.9" filterUnits="userSpaceOnUse" color-interpolation-filters="sRGB">
<feFlood flood-opacity="0" result="BackgroundImageFix"/>
<feBlend mode="normal" in="SourceGraphic" in2="BackgroundImageFix" result="shape"/>
<feTurbulence type="fractalNoise" baseFrequency="10 10" stitchTiles="stitch" numOctaves="3" result="noise" seed="9319" />
<feColorMatrix in="noise" type="luminanceToAlpha" result="alphaNoise" />
<feComponentTransfer in="alphaNoise" result="coloredNoise1">
<feFuncA type="discrete" tableValues="1 1 1 1 1 1 1 1 1 1 1 1 1 1 1 1 1 1 1 1 1 1 1 1 1 1 1 1 1 1 1 1 1 1 1 1 1 1 1 1 1 1 1 1 1 1 1 1 1 1 1 0 0 0 0 0 0 0 0 0 0 0 0 0 0 0 0 0 0 0 0 0 0 0 0 0 0 0 0 0 0 0 0 0 0 0 0 0 0 0 0 0 0 0 0 0 0 0 0 0 "/>
</feComponentTransfer>
<feComposite operator="in" in2="shape" in="coloredNoise1" result="noise1Clipped" />
<feFlood flood-color="rgba(255, 149, 149, 0.13)" result="color1Flood" />
<feComposite operator="in" in2="noise1Clipped" in="color1Flood" result="color1" />
<feMerge result="effect1_noise_1144_15">
<feMergeNode in="shape" />
<feMergeNode in="color1" />
</feMerge>
</filter>
<linearGradient id="paint0_linear_1144_15" x1="150.372" y1="0" x2="150.372" y2="198.9" gradientUnits="userSpaceOnUse">
<stop stop-color="#CB7474"/>
<stop offset="1" stop-color="#E2A199"/>
</linearGradient>
</defs>
</svg>
