<svg width="963" height="277" viewBox="0 0 963 277" fill="none" xmlns="http://www.w3.org/2000/svg">
<g filter="url(#filter0_n_1144_62)">
<path d="M33.1654 128.747L6.33959 101.526C4.48246 99.6413 3.44141 97.1017 3.44141 94.4559C3.44141 88.8959 7.94653 84.3876 13.5065 84.3836L942.642 83.7222C948.448 83.7181 953.157 88.4237 953.157 94.2298C953.157 97.1758 951.92 99.9865 949.748 101.977L934.093 116.322L910.362 137.299C903.395 143.458 894.956 147.713 885.861 149.652L792.778 169.503C783.705 171.438 775.349 175.86 768.648 182.275C744.564 205.328 713.355 219.503 680.149 222.472L616.653 228.15C611.556 228.606 606.716 230.38 602.415 233.153C582.42 246.044 519.892 282.986 470.44 275.538C416.078 267.351 378.212 245.191 362.666 234.614C357.423 231.047 351.347 228.702 345.01 228.438L287.568 226.036C255.953 224.714 225.608 213.226 201.044 193.28L184.071 179.498C176.96 173.723 168.497 169.853 159.478 168.25L100.439 157.761C97.2739 157.198 94.1652 156.354 91.1501 155.239L51.4308 140.545C44.5505 138 38.3146 133.972 33.1654 128.747Z" fill="url(#paint0_linear_1144_62)"/>
<path d="M31.9017 129.03L5.153 101.772C3.29988 99.8838 2.26172 97.3436 2.26172 94.6979C2.26172 89.1225 6.77933 84.6017 12.3547 84.5977L535.25 84.2239C541.881 84.2192 547.259 89.5931 547.259 96.2239V128.289C546.781 145.419 541.323 168.057 538.654 177.235C532.864 195.71 511.6 231.885 501.691 247.663C498.065 255.763 488.191 263.294 478.989 268.733C470.347 273.84 460.006 274.939 450.201 272.784C405.603 262.984 374.418 244.515 360.673 235.127C355.421 231.54 349.339 229.189 342.983 228.922L285.995 226.529C254.285 225.198 223.858 213.64 199.261 193.583L182.509 179.922C175.39 174.117 166.909 170.224 157.867 168.611L99.0617 158.118C95.8855 157.552 92.7663 156.701 89.7418 155.578L50.1765 140.879C43.2882 138.32 37.0485 134.275 31.9017 129.03Z" fill="url(#paint1_linear_1144_62)"/>
<path d="M335.193 122.94L234.494 116.965C226.912 136.209 240.792 155.556 248.68 162.825L278.701 174.752L313.89 223.263L355.674 225.667C373.643 240.231 387.249 241.982 391.807 241.038C389.55 239.642 386.152 227.523 383.905 221.485C382.625 208.88 376.326 192.067 374.352 186.333C358.558 177.162 337.433 139.34 335.193 122.94Z" fill="url(#paint2_linear_1144_62)" fill-opacity="0.88"/>
<path d="M234.524 116.903C232.965 131.04 239.135 160.24 276.289 163.951C284.346 166.225 299.808 175.575 297.201 194.785C301.145 201.02 308.093 211.778 311.853 216.94C312.801 218.032 313.66 219.021 314.395 219.865C314.172 219.961 313.224 218.822 311.853 216.94C306.018 210.215 296.846 199.575 292.936 194.785C286.355 187.803 267.341 174.495 243.933 177.121C232.333 178.738 206.833 175.751 197.629 150.864C198.005 159.478 207.792 177.789 243.933 182.121C250.87 184.648 265.651 192.042 269.273 201.4C274.037 205.018 284.182 213.144 286.645 216.701C276.448 208.808 251.897 192.229 235.273 189.058C241.216 196.434 253.538 211.403 255.278 212.277C251.394 217.949 230.203 220.404 176.378 171.823C169.687 168.91 151.017 163.637 140.346 161.103C130.362 147.946 109.966 124.356 104.696 104.941L102.513 100.19C142.219 103.423 224.209 111.291 234.524 116.903Z" fill="url(#paint3_linear_1144_62)"/>
<path d="M381.422 125.79H372.811C377.388 139.43 386.543 167.082 386.543 168.566C394.224 194.74 405.163 203.424 406.094 205.996C416.894 214.965 422.387 230.467 423.783 237.096C423.783 224.75 413.387 209.503 408.189 203.424C399.437 188.458 386.698 145.432 381.422 125.79Z" fill="url(#paint4_linear_1144_62)"/>
<path d="M372.811 184.057C355.209 174.452 339.474 139.194 333.807 122.766H331.038C335.792 138.962 348.154 158.325 353.74 165.981C357.746 173.119 367.215 181.484 371.448 184.775C376.557 188.562 380.604 204.75 381.989 212.371C383.477 227.371 389.306 236.045 392.034 238.507C388.699 235.044 385.549 224.636 384.391 219.865C380.722 194.787 375.142 185.544 372.811 184.057Z" fill="url(#paint5_linear_1144_62)"/>
<path d="M430.587 209.138C426.611 204.164 427.117 197.143 427.867 194.254C431.579 181.055 428.374 167.629 426.247 162.389C432.227 175.558 432.069 185.289 431.243 188.508C426.817 198.38 428.961 206.375 430.587 209.138Z" fill="url(#paint6_linear_1144_62)"/>
<path d="M440.432 193.595C450.747 202.042 465.824 223.797 443.62 243.241C451.028 235.233 460.761 214.094 440.432 193.595Z" fill="url(#paint7_linear_1144_62)"/>
<path d="M104.129 101.687L95.5352 100.19C99.621 110.004 109.35 123.137 113.704 128.477C125.962 147.067 139.813 161.1 141.286 160.508C139.223 159.916 118.713 132.621 118.713 131.289C112.349 123.711 106.339 108.397 104.129 101.687Z" fill="url(#paint8_linear_1144_62)"/>
<path d="M238.865 135.918C236.363 119.996 232.904 115.747 231.487 115.613C229.241 119.158 233.706 129.928 236.219 134.87C242.827 153.112 251.376 156.276 254.825 155.577C246.741 153.128 240.817 141.45 238.865 135.918Z" fill="url(#paint9_linear_1144_62)"/>
<path d="M88.4285 101.434L76.3301 100.19C79.3023 112.517 91.9851 125.298 97.9549 130.147C109.31 138.416 111.133 147.949 110.625 151.681L135.013 156.084C133.946 153.174 118.31 134.9 110.625 126.127C102.852 122.452 92.5884 108.134 88.4285 101.434Z" fill="url(#paint10_linear_1144_62)"/>
<path d="M74.4363 101.434L62.3379 100.19C65.3102 112.517 77.9929 125.298 83.9628 130.147C95.3182 138.416 97.1409 147.949 96.6329 151.681L121.02 156.084C120.217 153.892 111.146 142.982 103.434 133.982C98.9742 128.777 93.2914 124.643 88.5023 119.739C82.7956 113.896 77.2349 105.941 74.4363 101.434Z" fill="url(#paint11_linear_1144_62)"/>
<path d="M448.124 127.636H440.068C442.484 154.551 461.435 174.49 470.609 181.095C492.663 199.077 483.731 231.563 476.508 245.558C497.988 210.567 482.645 184.734 472.289 176.192C451.576 161.548 447.548 137.72 448.124 127.636Z" fill="url(#paint12_linear_1144_62)"/>
<path d="M421.067 152.395C408.921 142.762 408.149 131.875 409.281 127.636C409.281 130.306 414.208 138.833 416.672 142.762C428.018 154.863 428.991 166 428.058 170.057C427.419 161.226 423.131 154.603 421.067 152.395Z" fill="url(#paint13_linear_1144_62)"/>
<path d="M299.41 137.744C293.337 122.491 296.213 121.889 298.411 123.495C311.577 140.375 330.665 179.9 338.564 197.552L323.581 177.683C317.029 173.348 304.737 149.251 299.41 137.744Z" fill="url(#paint14_linear_1144_62)"/>
<path d="M166.019 112.656C177.431 120.522 196.275 149.719 196.407 150.519C201.079 161.824 213.658 171.494 219.364 174.916C208.854 171.29 198.972 160.517 195.345 155.585L179.023 136.387C162.568 117.935 163.498 112.878 166.019 112.656Z" fill="url(#paint15_linear_1144_62)"/>
<path d="M762.37 116.806L705.378 122.126C705.378 131.286 692.082 157.139 685.435 168.92L687.539 170.182C735.548 150.274 757.43 126.303 762.37 116.806Z" fill="url(#paint16_linear_1144_62)"/>
<path d="M772.688 176.314C780.585 171.712 798.079 113.522 799.466 112.627C800.883 111.712 843.018 110.26 863.148 108.209C858.03 131.218 835.84 149.889 825.385 156.348C822.792 159.798 781.216 173.462 772.688 176.314C772.521 176.411 772.359 176.485 772.201 176.533C770.585 177.028 770.95 176.895 772.688 176.314Z" fill="url(#paint17_linear_1144_62)"/>
<path d="M577.622 132.024L572.632 132.727C573.887 142.169 572.11 163.264 571.064 172.631C565.771 188.463 552.511 211.545 546.543 221.107C542.551 226.84 530.433 239.045 524.873 244.431C528.181 243.757 540.698 230.942 546.543 224.619C547.113 228.441 544.785 239.42 543.549 244.431C547.199 240.047 549.062 228.273 549.537 222.933C556.038 212.929 569.258 185.23 575.056 172.631C578.135 165.325 578.05 142.516 577.622 132.024Z" fill="url(#paint18_linear_1144_62)"/>
<path d="M606.317 164.537C609.413 148.644 616.96 137.361 620.346 133.705C612.461 148.365 608.283 167.685 607.18 175.513C600.791 191 589.753 200.924 585.032 203.951L594.707 191.872C601.802 184.117 605.404 170.417 606.317 164.537Z" fill="url(#paint19_linear_1144_62)"/>
<path d="M634.52 128.286H631.498L628.918 165.833C627.231 174.082 620.419 182.715 619.316 183.29C606.755 196.131 605.991 203.826 607.18 206.069C607.18 203.547 611.468 196.419 613.613 193.171C621.756 184.547 628.929 173.144 631.498 168.521C632.778 167.145 634.046 141.125 634.52 128.286Z" fill="url(#paint20_linear_1144_62)"/>
<path d="M586.697 240.174C587.111 239.766 604.358 215.586 606.003 210.641C606.028 210.559 606.052 210.478 606.075 210.398C606.056 210.473 606.032 210.554 606.003 210.641C603.978 217.375 597.417 232.314 586.697 240.174Z" fill="url(#paint21_linear_1144_62)"/>
<path d="M677.722 124.387L674.5 124.745C674.5 125.032 672.654 141.767 671.732 150.099C670.316 160.154 661.554 174.854 657.35 180.946C668.079 171.167 673.254 156.025 674.5 149.676L677.722 124.387Z" fill="url(#paint22_linear_1144_62)"/>
<path d="M651.994 202.26C691.367 168.523 703.041 135.26 703.957 122.845L705.666 122.225V122.845C704.516 137.214 693.179 158.315 687.654 167.07C686.24 169.248 688.243 168.945 689.422 168.521C692.251 165.674 709.091 158.453 717.158 155.199C734.131 146.691 754.36 126.097 762.352 116.864H765.778C757.026 136.641 723.825 155.308 708.318 162.169C695.853 165.131 681.814 177.484 676.352 183.29C668.952 195.106 651.387 216.628 643.529 225.912C641.383 227.133 632.894 227.099 628.918 226.929C630.437 225.302 644.935 209.805 651.994 202.26Z" fill="url(#paint23_linear_1144_62)"/>
<path d="M732.604 164.537C717.734 169.91 694.445 182.557 684.659 188.209C711.685 180.997 730.145 170.287 735.997 165.833C760.262 151.074 764.597 143.292 763.732 141.246C760.545 148.623 741.652 159.847 732.604 164.537Z" fill="url(#paint24_linear_1144_62)"/>
<path d="M700.444 203.951C673.89 206.774 659.481 217.782 655.597 222.933C663.74 216.051 688.888 208.823 700.444 206.069C728.414 197.094 737.767 187.144 738.948 183.29C730.804 193.081 709.885 201.143 700.444 203.951Z" fill="url(#paint25_linear_1144_62)"/>
<path d="M753.455 174.049C753.184 175.117 743.566 182.474 741.669 188.209C745.598 184.868 753.455 177.36 753.455 174.049Z" fill="url(#paint26_linear_1144_62)"/>
<path d="M822.799 139.427C817.712 146.062 795.997 153.986 785.774 157.119C807.412 147.284 818.176 140.689 820.853 138.621C827.608 126.161 829.87 115.292 830.157 111.414H831.961C830.615 123.357 825.292 135.065 822.799 139.427Z" fill="url(#paint27_linear_1144_62)"/>
<path d="M864.642 107.828L861.747 108.541C857.694 132.225 835.449 147.419 824.834 152.056C803.217 159.189 788.483 167.551 783.819 170.841C797.04 169.985 812.811 165.411 819.043 163.232C851.662 143.924 863.033 118.251 864.642 107.828Z" fill="url(#paint28_linear_1144_62)"/>
<path d="M840.04 159.298C839.886 159.415 839.762 159.499 839.671 159.546C839.795 159.463 839.918 159.381 840.04 159.298C843.796 156.447 865.64 133.662 866.451 131.606C865.173 135.779 858.103 147.122 840.04 159.298Z" fill="url(#paint29_linear_1144_62)"/>
<path d="M891.936 104.581L887.646 104.902C888.686 113.038 879.716 128.798 882.186 127.324C884.162 126.145 889.509 111.671 891.936 104.581Z" fill="url(#paint30_linear_1144_62)"/>
<path d="M922.487 99.0719C921.511 99.2854 919.483 99.751 919.171 99.9047C915.986 107.72 909.928 123.109 911.176 122.135C912.424 121.161 919.236 106.354 922.487 99.0719Z" fill="url(#paint31_linear_1144_62)"/>
<path d="M948.132 84.3283C545.414 26.5247 158.884 55.8689 6.57041 85.084C3.55872 85.6617 2.77958 88.9799 5.47442 90.4434C23.4801 100.222 70.7591 106.103 94.7611 107.959C125.152 112.85 184.117 116.278 209.802 117.38C219.259 121.24 271.429 124.425 296.331 125.535C299.828 125.35 351.403 129.323 376.753 131.333C387.243 131.898 408.441 133.029 409.315 133.029H448.138C466.69 135.989 522.758 134.977 548.474 134.101C562.678 134.756 659.635 126.729 706.338 122.633C718.072 122.961 776.843 115.671 804.762 111.985C872.155 110.635 922.834 99.4636 948.876 91.1762C952.72 89.953 952.125 84.9013 948.132 84.3283Z" fill="url(#paint32_linear_1144_62)"/>
<path d="M133.713 96.6429C124.092 94.0426 69.7464 96.1229 67.666 96.6429C74.4807 97.9039 100.355 97.7573 112.441 97.5264C120.968 97.3078 130.175 96.8463 133.713 96.6429Z" fill="url(#paint33_linear_1144_62)"/>
<path d="M133.713 101.159C141.933 100.229 160.048 98.7334 166.743 100.189C161.663 101.28 147.944 103.003 133.713 101.159Z" fill="url(#paint34_linear_1144_62)"/>
<path d="M160.355 105.134C173.792 104.394 201.664 103.358 205.659 105.134C193.71 106.211 167.922 107.719 160.355 105.134Z" fill="url(#paint35_linear_1144_62)"/>
<path d="M214.904 103.1C221.561 101.806 235.91 99.6069 240.052 101.159C236.97 102.114 227.626 103.839 214.904 103.1Z" fill="url(#paint36_linear_1144_62)"/>
<path d="M243.668 114.797C255.358 113.983 279.004 112.844 280.069 114.797C271.265 115.759 251.658 117.106 243.668 114.797Z" fill="url(#paint37_linear_1144_62)"/>
<path d="M287.838 112.356C301.229 111.024 330.01 109.16 338 112.356C323.869 112.8 294.052 113.421 287.838 112.356Z" fill="url(#paint38_linear_1144_62)"/>
<path d="M338 116.101C344.107 115.627 356.94 114.964 359.421 116.101C354.14 116.919 342.463 118.064 338 116.101Z" fill="url(#paint39_linear_1144_62)"/>
<path d="M364.071 116.101C370.099 115.498 382.698 114.783 384.869 116.747C378.883 117.22 366.345 117.754 364.071 116.101Z" fill="url(#paint40_linear_1144_62)"/>
<path d="M391.847 110.098C392.437 109.862 424.727 108.802 426.376 110.098C418.995 111.141 401.755 112.601 391.847 110.098Z" fill="url(#paint41_linear_1144_62)"/>
<path d="M454.611 120.71C455.601 120.38 523.076 116.751 535.615 120.71C509.383 121.37 456.459 122.294 454.611 120.71Z" fill="url(#paint42_linear_1144_62)"/>
<path d="M553.765 109.908C571.637 111.523 608.195 115.347 611.455 117.731C594.506 116.427 559.241 113.037 553.765 109.908Z" fill="url(#paint43_linear_1144_62)"/>
<path d="M622.699 111.538C629.598 111.755 644.015 112.744 646.492 114.96C640.517 115.123 627.393 114.667 622.699 111.538Z" fill="url(#paint44_linear_1144_62)"/>
<path d="M661.485 105.345C673.11 104.367 697.924 103.325 704.182 106.975C693.1 106.758 669.047 106.128 661.485 105.345Z" fill="url(#paint45_linear_1144_62)"/>
<path d="M729.864 98.3467C727.968 98.4251 726.276 98.5118 724.846 98.5988C725.534 98.3797 727.32 98.3085 729.864 98.3467C742.071 97.8418 762.726 97.6806 776.175 99.986C789.307 100.633 816.682 101.262 821.121 98.5988C821.439 100.847 812.744 104.606 775.426 101.654C763.059 100.466 740.205 98.5019 729.864 98.3467Z" fill="url(#paint46_linear_1144_62)"/>
<path d="M659.208 119.627C664.996 120.518 670.472 124.027 672.486 125.67H669.226C669.163 124.78 662.521 121.271 659.208 119.627Z" fill="url(#paint47_linear_1144_62)"/>
<path d="M746.24 84.5932C747.322 84.7134 785.428 86.1559 793.482 87.959C781.289 88.0862 754.769 87.5911 746.24 84.5932Z" fill="url(#paint48_linear_1144_62)"/>
<path d="M746.24 77.3348C768.048 78.1796 811.678 79.7392 814.314 79.3227C814.344 79.3159 814.375 79.3092 814.405 79.3024C814.384 79.3096 814.354 79.3164 814.314 79.3227C807.637 80.7891 784.854 82.4172 746.24 77.3348Z" fill="url(#paint49_linear_1144_62)"/>
<g filter="url(#filter1_n_1144_62)">
<path d="M286.702 94.367V57.6587C179.937 57.6589 31.7658 79.2603 6.88477 85.1391C16.9105 88.1468 222.67 94.0723 286.702 94.367Z" fill="url(#paint50_linear_1144_62)"/>
</g>
<path d="M535.647 0.680475L380.876 14.7069L386.635 4.64344L364.352 9.09989L335.445 13.3035C329.104 14.2256 323.077 16.6576 317.872 20.3948L285.412 43.7013C280.347 47.3376 274.6 49.9007 268.762 52.0869C253.358 57.8543 230.53 69.3441 219.227 75.3655C209.239 79.8793 204.438 83.1386 202.399 85.2263C201.072 86.5849 202.221 87.9738 204.1 88.2474C224.381 91.201 293.811 94.8805 330.17 96.5402C332.085 96.6276 333.969 96.8842 335.838 97.3107L346.08 99.6484C364.81 102.039 475.001 102.396 527.755 102.276C570.37 101.85 682.573 90.7795 738.942 84.709C740.861 84.5023 741.368 81.99 739.681 81.0528C713.862 66.7119 683.947 54.6817 667.293 48.6837C663.233 47.2216 659.354 45.3199 655.778 42.9056L630.597 25.9076C619.695 18.5485 607.183 13.9199 594.116 12.4125L569.232 9.54174C565.106 9.06567 561.076 7.96524 557.28 6.27815L550.042 3.06159C545.525 1.05397 540.57 0.234319 535.647 0.680475Z" fill="url(#paint51_linear_1144_62)"/>
<path d="M465.08 39.2839C467.135 39.9186 469.436 40.0621 470.33 40.0544C478.012 41.5974 483.966 52.7937 485.982 58.1989C491.128 67.8678 501.74 74.3688 506.402 76.4108C529.36 83.3866 541.818 96.1592 545.177 101.674H542.04C534.304 88.9572 516.121 81.2976 507.997 79.0573C496.446 76.5008 487.554 65.5174 484.551 60.3454C479.995 46.3575 470.554 41.8887 466.404 41.403L465.08 39.2839ZM454.337 52.0397C452.028 64.1775 443.996 90.9207 430.334 100.792L427.481 100.394C432.577 97.8576 444.833 84.7268 453.088 52.4987L454.337 52.0397ZM562.133 63.7077C566.974 64.9181 577.078 68.1585 578.765 71.4382C578.687 73.5856 578.297 79.0056 577.36 83.5036C579.859 87.9548 585.278 97.1613 586.965 98.3796C586.2 99.0107 582.854 97.064 575.58 84.2301C575.179 83.9157 574.252 81.8978 573.751 76.3385C573.873 75.1191 573.312 72.3246 570.092 70.903C566.598 68.7191 560.113 64.2228 562.133 63.7077ZM397.955 3.16374C447.491 0.858049 527.096 -1.76274 545.884 1.60905C548.618 2.09961 549.234 4.64845 547.491 6.81022C544.065 11.0585 537.437 16.6083 526.941 19.3298C511.654 20.7808 472.395 23.0856 433.397 21.2214C430.031 21.0605 426.684 21.6804 423.438 22.5856C414.273 25.1418 397.002 27.7025 373.977 25.4352C368.26 24.8723 362.484 26.2345 357.86 29.6442C342.65 40.8612 320.061 57.9103 313.497 64.3551C317.123 62.1911 324.727 57.7931 326.131 57.5124C327.359 58.0386 331.184 58.1436 336.658 54.3542C341.308 50.4537 352.816 42.5945 361.653 42.362C371.003 43.5247 390.458 45.501 393.482 44.1061C388.799 48.4405 380.265 57.0713 376.665 63.0358C375.204 65.4563 374.607 68.2985 373.305 70.8083C370.844 75.555 366.228 82.2176 359.204 87.4499C357.31 88.8602 355.177 89.8956 353.008 90.8298C348.206 92.899 341.551 95.9439 338.689 97.8825C297.712 96.4939 214.028 92.8638 207.103 89.4528C202.458 89.0216 196.063 86.636 207.644 80.5466C225.826 71.4347 264.773 52.4434 275.115 49.3688C283.73 43.9589 302.222 32.0606 307.272 27.7477C312.096 22.8531 326.141 12.8935 343.733 12.2126C351.603 10.7902 365.581 8.19637 375.811 6.12077C383.121 4.63782 390.505 3.51051 397.955 3.16374ZM355.618 60.9997C351.799 63.0375 348.419 65.8065 345.67 69.1491L336.16 80.7096C333.904 83.4523 331.22 85.8126 328.212 87.6999L315.004 95.986H317.85L330.323 88.4782C333.484 86.5755 336.303 84.1562 338.664 81.321L347.993 70.1178C350.485 67.1253 353.486 64.5973 356.859 62.651L381.65 48.3454L380.897 47.5085L355.618 60.9997ZM305.207 77.1481C302.794 79.4933 288.126 89.9585 281.093 94.8981H283.103C290.404 92.2188 301.719 82.3391 306.464 77.7341L305.207 77.1481ZM462.883 55.7975C462.319 62.2338 461.621 75.8967 463.341 79.0573C465.122 81.9622 470.858 88.5153 479.55 91.4899C478.02 93.0972 472.113 93.5001 460.726 82.2526C459.925 79.8377 458.701 71.1658 460.22 55.7975H462.883ZM289.596 66.7057C279.668 73.9516 258.864 89.0886 255.076 91.6706C261.073 88.776 276.65 80.1277 290.974 68.6911C291.72 68.0292 292.488 66.7057 289.596 66.7057ZM439.139 55.7975C438.125 60.0325 431.528 69.7894 413.256 74.9362C407.104 78.2323 391.958 86.13 380.583 91.3532L379.303 88.6178L409.411 74.9362C414.472 68.4292 427.503 55.4915 439.139 55.7975ZM589.41 68.9137C616.102 80.2143 617.84 85.4434 615.373 86.6452C604.662 84.1846 593.601 73.7988 589.41 68.9137ZM264.788 73.9665C261.749 75.7542 258.308 76.7482 254.784 76.8561L248.592 77.0456C246.386 77.1132 244.205 77.528 242.128 78.2751L228.82 83.0622C231.317 82.7763 235.891 82.0492 239.791 80.9274C243.218 79.9416 246.702 78.8669 250.266 78.7467L254.867 78.5915C258.338 78.4745 261.727 77.4985 264.728 75.7507L274.79 69.8913C274.991 69.4914 275.066 68.6913 273.758 68.6911L264.788 73.9665ZM633.589 72.2721C642.17 73.1949 658.572 76.2864 655.527 81.2692C653.798 83.1939 646.989 84.0886 633.589 72.2721ZM330.661 68.6911C327.848 70.7675 313.357 78.0405 306.464 81.4176L307.886 82.0876C323.493 76.5281 330.465 70.8402 332 68.6911H330.661ZM537.97 64.8591C551.592 65.6117 559.26 76.5003 561.39 81.8503C555.329 73.3396 543.251 66.9765 537.97 64.8591ZM427.233 34.1442C427.007 35.2298 422.642 39.4124 406.993 47.4567C404.412 49.0869 399.386 54.1402 399.929 61.3122C407.304 57.8145 425.222 50.3486 437.888 48.4684L438.057 49.1803C425.625 52.3216 399.861 61.1568 396.269 71.3639C395.402 73.4079 393.29 77.3281 391.779 76.6618C392.051 67.9076 395.746 49.1413 408.351 44.1061C409.166 44.1061 426.185 35.6384 427.233 34.1442ZM624.522 52.5475C626.737 56.5338 638.917 61.6488 644.73 63.7077C632.384 62.6694 626.114 55.8348 624.522 52.5475ZM351.759 31.4059C343.798 31.7596 335.08 35.1164 329.112 38.0544C325.544 39.8108 322.437 42.3643 319.205 44.6803C310.048 51.2406 291.831 62.1685 290.974 62.2673C292.076 62.9649 293.591 62.92 294.211 62.8102C301.615 60.0746 317.654 48.4655 324.748 43.0026C330.643 38.3808 345.212 34.2383 351.759 32.7448V31.4059ZM537.97 21.7311C534.049 15.1575 556.212 29.1388 567.784 36.9518C602.15 53.5668 610.259 59.7207 610.017 60.7204C602.04 55.7345 578.538 44.1742 567.784 39.0173C557.812 37.1079 543.753 26.6974 537.97 21.7311ZM510.582 41.403C519.101 42.4824 525.038 44.5307 526.941 45.4196C535.689 49.032 533.806 52.8434 531.771 54.2975C528.036 55.7366 524.194 52.4986 522.74 50.6999C520.474 48.2506 513.69 43.4814 510.582 41.403ZM586.073 28.5446C585.885 27.3884 586.522 28.0626 586.864 28.5446C591.325 34.2806 596.475 37.643 598.493 38.6071C600.332 38.4802 605 39.5236 607.103 40.0612C626.044 47.3285 620.003 48.812 614.614 48.6452C600.193 45.7267 589.578 34.0286 586.073 28.5446ZM523.93 29.2096C539.561 32.282 546.613 40.8214 548.185 44.7067C544.143 39.9117 530.331 32.3772 523.93 29.2096Z" fill="url(#paint52_linear_1144_62)"/>
<path d="M482.357 33.5844C472.784 35.3793 456.306 29.9696 449.263 27.0404C447.67 27.0404 448.06 28.1666 448.453 28.7297C463.122 37.1504 477.74 36.3343 483.216 34.8737L482.357 33.5844Z" fill="url(#paint53_linear_1144_62)"/>
<path d="M482.357 85.3481C482.357 91.9501 480.682 99.3364 479.844 102.204H483.216V101.326C485.914 95.0053 483.767 88.0404 482.357 85.3481Z" fill="url(#paint54_linear_1144_62)"/>
<path d="M509.16 66.9652C518.894 72.077 540.385 83.2141 548.477 86.8684C544.02 82.5724 529.916 72.5773 509.16 66.9652Z" fill="url(#paint55_linear_1144_62)"/>
<path d="M606.445 69.7047C599.165 66.5426 556.634 56.6874 555.819 56.6874V58.4537C571.852 62.1599 594.191 69.9498 603.357 73.3815C607.475 73.558 607.131 71.0038 606.445 69.7047Z" fill="url(#paint56_linear_1144_62)"/>
<path d="M639.216 54.7603C636.517 53.2187 625.553 43.3503 620.409 38.6089C622.421 36.8841 633.909 48.5762 639.621 54.3908L647.003 65.3482C657.397 74.594 665.824 82.3254 668.289 85.1968C662.489 83.474 652.281 72.5149 647.902 67.2508C645.777 64.4368 641.226 57.7513 639.216 54.7603Z" fill="url(#paint57_linear_1144_62)"/>
<path d="M681.198 68.2708C687.276 73.2231 700.35 83.2087 704.024 83.5328C699.522 79.0758 688.654 69.7835 681.198 68.2708Z" fill="url(#paint58_linear_1144_62)"/>
<path d="M681.192 68.3905C686.434 70.4317 698.275 76.2523 703.711 83.2054C697.351 79.6235 683.942 71.6458 681.192 68.3905Z" fill="#B16C46"/>
</g>
<defs>
<filter id="filter0_n_1144_62" x="2.26172" y="0" width="950.896" height="276.52" filterUnits="userSpaceOnUse" color-interpolation-filters="sRGB">
<feFlood flood-opacity="0" result="BackgroundImageFix"/>
<feBlend mode="normal" in="SourceGraphic" in2="BackgroundImageFix" result="shape"/>
<feTurbulence type="fractalNoise" baseFrequency="5 5" stitchTiles="stitch" numOctaves="3" result="noise" seed="1005" />
<feColorMatrix in="noise" type="luminanceToAlpha" result="alphaNoise" />
<feComponentTransfer in="alphaNoise" result="coloredNoise1">
<feFuncA type="discrete" tableValues="1 1 1 1 1 1 1 1 1 1 1 1 1 1 1 1 1 1 1 1 1 1 1 1 1 1 1 1 1 1 1 1 1 1 1 1 1 1 1 1 1 1 1 1 1 1 1 1 1 1 1 0 0 0 0 0 0 0 0 0 0 0 0 0 0 0 0 0 0 0 0 0 0 0 0 0 0 0 0 0 0 0 0 0 0 0 0 0 0 0 0 0 0 0 0 0 0 0 0 0 "/>
</feComponentTransfer>
<feComposite operator="in" in2="shape" in="coloredNoise1" result="noise1Clipped" />
<feFlood flood-color="rgba(201, 118, 118, 0.17)" result="color1Flood" />
<feComposite operator="in" in2="noise1Clipped" in="color1Flood" result="color1" />
<feMerge result="effect1_noise_1144_62">
<feMergeNode in="shape" />
<feMergeNode in="color1" />
</feMerge>
</filter>
<filter id="filter1_n_1144_62" x="6.88477" y="57.6587" width="279.818" height="36.7084" filterUnits="userSpaceOnUse" color-interpolation-filters="sRGB">
<feFlood flood-opacity="0" result="BackgroundImageFix"/>
<feBlend mode="normal" in="SourceGraphic" in2="BackgroundImageFix" result="shape"/>
<feTurbulence type="fractalNoise" baseFrequency="5 5" stitchTiles="stitch" numOctaves="3" result="noise" seed="1360" />
<feColorMatrix in="noise" type="luminanceToAlpha" result="alphaNoise" />
<feComponentTransfer in="alphaNoise" result="coloredNoise1">
<feFuncA type="discrete" tableValues="1 1 1 1 1 1 1 1 1 1 1 1 1 1 1 1 1 1 1 1 1 1 1 1 1 1 1 1 1 1 1 1 1 1 1 1 1 1 1 1 1 1 1 1 1 1 1 1 1 1 1 0 0 0 0 0 0 0 0 0 0 0 0 0 0 0 0 0 0 0 0 0 0 0 0 0 0 0 0 0 0 0 0 0 0 0 0 0 0 0 0 0 0 0 0 0 0 0 0 0 "/>
</feComponentTransfer>
<feComposite operator="in" in2="shape" in="coloredNoise1" result="noise1Clipped" />
<feFlood flood-color="rgba(194, 48, 48, 0.25)" result="color1Flood" />
<feComposite operator="in" in2="noise1Clipped" in="color1Flood" result="color1" />
<feMerge result="effect1_noise_1144_62">
<feMergeNode in="shape" />
<feMergeNode in="color1" />
</feMerge>
</filter>
<linearGradient id="paint0_linear_1144_62" x1="478.299" y1="83.7147" x2="478.299" y2="276.52" gradientUnits="userSpaceOnUse">
<stop stop-color="#DC9F8B"/>
<stop offset="0.811997" stop-color="#D78A7F"/>
</linearGradient>
<linearGradient id="paint1_linear_1144_62" x1="61.0385" y1="127.876" x2="539.731" y2="179.656" gradientUnits="userSpaceOnUse">
<stop stop-color="#7A3D4B"/>
<stop offset="1" stop-color="#9F5663"/>
</linearGradient>
<linearGradient id="paint2_linear_1144_62" x1="351.829" y1="171.703" x2="311.774" y2="241.087" gradientUnits="userSpaceOnUse">
<stop stop-color="#823F4F"/>
<stop offset="1" stop-color="#914D5A"/>
</linearGradient>
<linearGradient id="paint3_linear_1144_62" x1="157.223" y1="111.646" x2="387.432" y2="232.889" gradientUnits="userSpaceOnUse">
<stop stop-color="#7B3944"/>
<stop offset="0.5" stop-color="#7F3D4A"/>
<stop offset="1" stop-color="#7E3945"/>
</linearGradient>
<linearGradient id="paint4_linear_1144_62" x1="157.223" y1="111.646" x2="387.432" y2="232.889" gradientUnits="userSpaceOnUse">
<stop stop-color="#7B3944"/>
<stop offset="0.5" stop-color="#7F3D4A"/>
<stop offset="1" stop-color="#7E3945"/>
</linearGradient>
<linearGradient id="paint5_linear_1144_62" x1="157.223" y1="111.646" x2="387.432" y2="232.889" gradientUnits="userSpaceOnUse">
<stop stop-color="#7B3944"/>
<stop offset="0.5" stop-color="#7F3D4A"/>
<stop offset="1" stop-color="#7E3945"/>
</linearGradient>
<linearGradient id="paint6_linear_1144_62" x1="157.223" y1="111.646" x2="387.432" y2="232.889" gradientUnits="userSpaceOnUse">
<stop stop-color="#7B3944"/>
<stop offset="0.5" stop-color="#7F3D4A"/>
<stop offset="1" stop-color="#7E3945"/>
</linearGradient>
<linearGradient id="paint7_linear_1144_62" x1="157.223" y1="111.646" x2="387.432" y2="232.889" gradientUnits="userSpaceOnUse">
<stop stop-color="#7B3944"/>
<stop offset="0.5" stop-color="#7F3D4A"/>
<stop offset="1" stop-color="#7E3945"/>
</linearGradient>
<linearGradient id="paint8_linear_1144_62" x1="175.18" y1="100.19" x2="175.18" y2="155.665" gradientUnits="userSpaceOnUse">
<stop stop-color="#96403D"/>
<stop offset="1" stop-color="#9E5D63" stop-opacity="0.41"/>
</linearGradient>
<linearGradient id="paint9_linear_1144_62" x1="175.18" y1="100.19" x2="175.18" y2="155.665" gradientUnits="userSpaceOnUse">
<stop stop-color="#96403D"/>
<stop offset="1" stop-color="#9E5D63" stop-opacity="0.41"/>
</linearGradient>
<linearGradient id="paint10_linear_1144_62" x1="105.671" y1="100.19" x2="105.671" y2="156.084" gradientUnits="userSpaceOnUse">
<stop stop-color="#8C4858"/>
<stop offset="1" stop-color="#7A3D4B"/>
</linearGradient>
<linearGradient id="paint11_linear_1144_62" x1="91.6792" y1="113.007" x2="76.1795" y2="125.992" gradientUnits="userSpaceOnUse">
<stop stop-color="#7A3444"/>
<stop offset="1" stop-color="#7B3E4B"/>
</linearGradient>
<linearGradient id="paint12_linear_1144_62" x1="238.962" y1="131.731" x2="318.385" y2="254.091" gradientUnits="userSpaceOnUse">
<stop stop-color="#C67465"/>
<stop offset="1" stop-color="#DC927D"/>
</linearGradient>
<linearGradient id="paint13_linear_1144_62" x1="238.962" y1="131.731" x2="318.385" y2="254.091" gradientUnits="userSpaceOnUse">
<stop stop-color="#C67465"/>
<stop offset="1" stop-color="#DC927D"/>
</linearGradient>
<linearGradient id="paint14_linear_1144_62" x1="238.962" y1="131.731" x2="318.385" y2="254.091" gradientUnits="userSpaceOnUse">
<stop stop-color="#C67465"/>
<stop offset="1" stop-color="#DC927D"/>
</linearGradient>
<linearGradient id="paint15_linear_1144_62" x1="238.962" y1="131.731" x2="318.385" y2="254.091" gradientUnits="userSpaceOnUse">
<stop stop-color="#C67465"/>
<stop offset="1" stop-color="#DC927D"/>
</linearGradient>
<linearGradient id="paint16_linear_1144_62" x1="863.148" y1="143.872" x2="707.3" y2="112.182" gradientUnits="userSpaceOnUse">
<stop stop-color="#D58C75"/>
<stop offset="0.454968" stop-color="#CE7662"/>
</linearGradient>
<linearGradient id="paint17_linear_1144_62" x1="863.148" y1="143.872" x2="707.3" y2="112.182" gradientUnits="userSpaceOnUse">
<stop stop-color="#D58C75"/>
<stop offset="0.454968" stop-color="#CE7662"/>
</linearGradient>
<linearGradient id="paint18_linear_1144_62" x1="723.68" y1="99.0719" x2="723.68" y2="157.105" gradientUnits="userSpaceOnUse">
<stop stop-color="#A35B48"/>
<stop offset="0.5" stop-color="#C17468"/>
<stop offset="0.983041" stop-color="#B85555"/>
</linearGradient>
<linearGradient id="paint19_linear_1144_62" x1="723.68" y1="99.0719" x2="723.68" y2="157.105" gradientUnits="userSpaceOnUse">
<stop stop-color="#A35B48"/>
<stop offset="0.5" stop-color="#C17468"/>
<stop offset="0.983041" stop-color="#B85555"/>
</linearGradient>
<linearGradient id="paint20_linear_1144_62" x1="723.68" y1="99.0719" x2="723.68" y2="157.105" gradientUnits="userSpaceOnUse">
<stop stop-color="#A35B48"/>
<stop offset="0.5" stop-color="#C17468"/>
<stop offset="0.983041" stop-color="#B85555"/>
</linearGradient>
<linearGradient id="paint21_linear_1144_62" x1="723.68" y1="99.0719" x2="723.68" y2="157.105" gradientUnits="userSpaceOnUse">
<stop stop-color="#A35B48"/>
<stop offset="0.5" stop-color="#C17468"/>
<stop offset="0.983041" stop-color="#B85555"/>
</linearGradient>
<linearGradient id="paint22_linear_1144_62" x1="723.68" y1="99.0719" x2="723.68" y2="157.105" gradientUnits="userSpaceOnUse">
<stop stop-color="#A35B48"/>
<stop offset="0.5" stop-color="#C17468"/>
<stop offset="0.983041" stop-color="#B85555"/>
</linearGradient>
<linearGradient id="paint23_linear_1144_62" x1="723.68" y1="99.0719" x2="723.68" y2="157.105" gradientUnits="userSpaceOnUse">
<stop stop-color="#A35B48"/>
<stop offset="0.5" stop-color="#C17468"/>
<stop offset="0.983041" stop-color="#B85555"/>
</linearGradient>
<linearGradient id="paint24_linear_1144_62" x1="723.68" y1="99.0719" x2="723.68" y2="157.105" gradientUnits="userSpaceOnUse">
<stop stop-color="#A35B48"/>
<stop offset="0.5" stop-color="#C17468"/>
<stop offset="0.983041" stop-color="#B85555"/>
</linearGradient>
<linearGradient id="paint25_linear_1144_62" x1="723.68" y1="99.0719" x2="723.68" y2="157.105" gradientUnits="userSpaceOnUse">
<stop stop-color="#A35B48"/>
<stop offset="0.5" stop-color="#C17468"/>
<stop offset="0.983041" stop-color="#B85555"/>
</linearGradient>
<linearGradient id="paint26_linear_1144_62" x1="723.68" y1="99.0719" x2="723.68" y2="157.105" gradientUnits="userSpaceOnUse">
<stop stop-color="#A35B48"/>
<stop offset="0.5" stop-color="#C17468"/>
<stop offset="0.983041" stop-color="#B85555"/>
</linearGradient>
<linearGradient id="paint27_linear_1144_62" x1="723.68" y1="99.0719" x2="723.68" y2="157.105" gradientUnits="userSpaceOnUse">
<stop stop-color="#A35B48"/>
<stop offset="0.5" stop-color="#C17468"/>
<stop offset="0.983041" stop-color="#B85555"/>
</linearGradient>
<linearGradient id="paint28_linear_1144_62" x1="723.68" y1="99.0719" x2="723.68" y2="157.105" gradientUnits="userSpaceOnUse">
<stop stop-color="#A35B48"/>
<stop offset="0.5" stop-color="#C17468"/>
<stop offset="0.983041" stop-color="#B85555"/>
</linearGradient>
<linearGradient id="paint29_linear_1144_62" x1="723.68" y1="99.0719" x2="723.68" y2="157.105" gradientUnits="userSpaceOnUse">
<stop stop-color="#A35B48"/>
<stop offset="0.5" stop-color="#C17468"/>
<stop offset="0.983041" stop-color="#B85555"/>
</linearGradient>
<linearGradient id="paint30_linear_1144_62" x1="723.68" y1="99.0719" x2="723.68" y2="157.105" gradientUnits="userSpaceOnUse">
<stop stop-color="#A35B48"/>
<stop offset="0.5" stop-color="#C17468"/>
<stop offset="0.983041" stop-color="#B85555"/>
</linearGradient>
<linearGradient id="paint31_linear_1144_62" x1="723.68" y1="99.0719" x2="723.68" y2="157.105" gradientUnits="userSpaceOnUse">
<stop stop-color="#A35B48"/>
<stop offset="0.5" stop-color="#C17468"/>
<stop offset="0.983041" stop-color="#B85555"/>
</linearGradient>
<linearGradient id="paint32_linear_1144_62" x1="0" y1="93.0758" x2="666.466" y2="93.0758" gradientUnits="userSpaceOnUse">
<stop stop-color="#F3B098"/>
<stop offset="1" stop-color="#FBCFB9"/>
</linearGradient>
<linearGradient id="paint33_linear_1144_62" x1="444.398" y1="77.3348" x2="444.398" y2="125.67" gradientUnits="userSpaceOnUse">
<stop stop-color="#E6A47D"/>
<stop offset="0.5" stop-color="#D69981"/>
<stop offset="1" stop-color="#E6B89E"/>
</linearGradient>
<linearGradient id="paint34_linear_1144_62" x1="444.398" y1="77.3348" x2="444.398" y2="125.67" gradientUnits="userSpaceOnUse">
<stop stop-color="#E6A47D"/>
<stop offset="0.5" stop-color="#D69981"/>
<stop offset="1" stop-color="#E6B89E"/>
</linearGradient>
<linearGradient id="paint35_linear_1144_62" x1="444.398" y1="77.3348" x2="444.398" y2="125.67" gradientUnits="userSpaceOnUse">
<stop stop-color="#E6A47D"/>
<stop offset="0.5" stop-color="#D69981"/>
<stop offset="1" stop-color="#E6B89E"/>
</linearGradient>
<linearGradient id="paint36_linear_1144_62" x1="444.398" y1="77.3348" x2="444.398" y2="125.67" gradientUnits="userSpaceOnUse">
<stop stop-color="#E6A47D"/>
<stop offset="0.5" stop-color="#D69981"/>
<stop offset="1" stop-color="#E6B89E"/>
</linearGradient>
<linearGradient id="paint37_linear_1144_62" x1="444.398" y1="77.3348" x2="444.398" y2="125.67" gradientUnits="userSpaceOnUse">
<stop stop-color="#E6A47D"/>
<stop offset="0.5" stop-color="#D69981"/>
<stop offset="1" stop-color="#E6B89E"/>
</linearGradient>
<linearGradient id="paint38_linear_1144_62" x1="444.398" y1="77.3348" x2="444.398" y2="125.67" gradientUnits="userSpaceOnUse">
<stop stop-color="#E6A47D"/>
<stop offset="0.5" stop-color="#D69981"/>
<stop offset="1" stop-color="#E6B89E"/>
</linearGradient>
<linearGradient id="paint39_linear_1144_62" x1="444.398" y1="77.3348" x2="444.398" y2="125.67" gradientUnits="userSpaceOnUse">
<stop stop-color="#E6A47D"/>
<stop offset="0.5" stop-color="#D69981"/>
<stop offset="1" stop-color="#E6B89E"/>
</linearGradient>
<linearGradient id="paint40_linear_1144_62" x1="444.398" y1="77.3348" x2="444.398" y2="125.67" gradientUnits="userSpaceOnUse">
<stop stop-color="#E6A47D"/>
<stop offset="0.5" stop-color="#D69981"/>
<stop offset="1" stop-color="#E6B89E"/>
</linearGradient>
<linearGradient id="paint41_linear_1144_62" x1="444.398" y1="77.3348" x2="444.398" y2="125.67" gradientUnits="userSpaceOnUse">
<stop stop-color="#E6A47D"/>
<stop offset="0.5" stop-color="#D69981"/>
<stop offset="1" stop-color="#E6B89E"/>
</linearGradient>
<linearGradient id="paint42_linear_1144_62" x1="444.398" y1="77.3348" x2="444.398" y2="125.67" gradientUnits="userSpaceOnUse">
<stop stop-color="#E6A47D"/>
<stop offset="0.5" stop-color="#D69981"/>
<stop offset="1" stop-color="#E6B89E"/>
</linearGradient>
<linearGradient id="paint43_linear_1144_62" x1="444.398" y1="77.3348" x2="444.398" y2="125.67" gradientUnits="userSpaceOnUse">
<stop stop-color="#E6A47D"/>
<stop offset="0.5" stop-color="#D69981"/>
<stop offset="1" stop-color="#E6B89E"/>
</linearGradient>
<linearGradient id="paint44_linear_1144_62" x1="444.398" y1="77.3348" x2="444.398" y2="125.67" gradientUnits="userSpaceOnUse">
<stop stop-color="#E6A47D"/>
<stop offset="0.5" stop-color="#D69981"/>
<stop offset="1" stop-color="#E6B89E"/>
</linearGradient>
<linearGradient id="paint45_linear_1144_62" x1="444.398" y1="77.3348" x2="444.398" y2="125.67" gradientUnits="userSpaceOnUse">
<stop stop-color="#E6A47D"/>
<stop offset="0.5" stop-color="#D69981"/>
<stop offset="1" stop-color="#E6B89E"/>
</linearGradient>
<linearGradient id="paint46_linear_1144_62" x1="444.398" y1="77.3348" x2="444.398" y2="125.67" gradientUnits="userSpaceOnUse">
<stop stop-color="#E6A47D"/>
<stop offset="0.5" stop-color="#D69981"/>
<stop offset="1" stop-color="#E6B89E"/>
</linearGradient>
<linearGradient id="paint47_linear_1144_62" x1="444.398" y1="77.3348" x2="444.398" y2="125.67" gradientUnits="userSpaceOnUse">
<stop stop-color="#E6A47D"/>
<stop offset="0.5" stop-color="#D69981"/>
<stop offset="1" stop-color="#E6B89E"/>
</linearGradient>
<linearGradient id="paint48_linear_1144_62" x1="444.398" y1="77.3348" x2="444.398" y2="125.67" gradientUnits="userSpaceOnUse">
<stop stop-color="#E6A47D"/>
<stop offset="0.5" stop-color="#D69981"/>
<stop offset="1" stop-color="#E6B89E"/>
</linearGradient>
<linearGradient id="paint49_linear_1144_62" x1="444.398" y1="77.3348" x2="444.398" y2="125.67" gradientUnits="userSpaceOnUse">
<stop stop-color="#E6A47D"/>
<stop offset="0.5" stop-color="#D69981"/>
<stop offset="1" stop-color="#E6B89E"/>
</linearGradient>
<linearGradient id="paint50_linear_1144_62" x1="6.88477" y1="73.8858" x2="286.702" y2="73.8858" gradientUnits="userSpaceOnUse">
<stop stop-color="#E9AA9E"/>
<stop offset="1" stop-color="#E07F6F"/>
</linearGradient>
<linearGradient id="paint51_linear_1144_62" x1="201.104" y1="51.1482" x2="623.365" y2="51.1482" gradientUnits="userSpaceOnUse">
<stop stop-color="#99523A"/>
<stop offset="0.471884" stop-color="#CE7E55"/>
<stop offset="0.978905" stop-color="#F2AA7A"/>
</linearGradient>
<linearGradient id="paint52_linear_1144_62" x1="201.103" y1="48.9409" x2="588.097" y2="43.945" gradientUnits="userSpaceOnUse">
<stop stop-color="#8C452D"/>
<stop offset="0.5" stop-color="#82402A"/>
<stop offset="1" stop-color="#A35931"/>
</linearGradient>
<linearGradient id="paint53_linear_1144_62" x1="576.064" y1="27.0404" x2="590.61" y2="91.5997" gradientUnits="userSpaceOnUse">
<stop stop-color="#B87243"/>
<stop offset="1" stop-color="#DD9765"/>
</linearGradient>
<linearGradient id="paint54_linear_1144_62" x1="576.064" y1="27.0404" x2="590.61" y2="91.5997" gradientUnits="userSpaceOnUse">
<stop stop-color="#B87243"/>
<stop offset="1" stop-color="#DD9765"/>
</linearGradient>
<linearGradient id="paint55_linear_1144_62" x1="576.064" y1="27.0404" x2="590.61" y2="91.5997" gradientUnits="userSpaceOnUse">
<stop stop-color="#B87243"/>
<stop offset="1" stop-color="#DD9765"/>
</linearGradient>
<linearGradient id="paint56_linear_1144_62" x1="576.064" y1="27.0404" x2="590.61" y2="91.5997" gradientUnits="userSpaceOnUse">
<stop stop-color="#B87243"/>
<stop offset="1" stop-color="#DD9765"/>
</linearGradient>
<linearGradient id="paint57_linear_1144_62" x1="576.064" y1="27.0404" x2="590.61" y2="91.5997" gradientUnits="userSpaceOnUse">
<stop stop-color="#B87243"/>
<stop offset="1" stop-color="#DD9765"/>
</linearGradient>
<linearGradient id="paint58_linear_1144_62" x1="576.064" y1="27.0404" x2="590.61" y2="91.5997" gradientUnits="userSpaceOnUse">
<stop stop-color="#B87243"/>
<stop offset="1" stop-color="#DD9765"/>
</linearGradient>
</defs>
</svg>
