<svg width="315" height="236" viewBox="0 0 315 236" fill="none" xmlns="http://www.w3.org/2000/svg">
<g filter="url(#filter0_n_1135_178)">
<path d="M25.1217 232.84C18.8869 205.407 56.2955 164.258 75.7791 147.112C44.6053 151.477 22.7836 198.289 15.7695 221.15L25.1217 232.84Z" fill="#B3948D"/>
<path d="M0 211C6.23476 199.05 13.4319 180.5 35 161C49.0282 149.05 78.5851 116.25 61.7513 76.971L57.0752 63.7221L40.709 48.1352L42.2676 46.5765L56.2959 59.0461L54.7372 42.6798L60.9719 62.1634L72 76.971C103.5 26.3136 114.642 13.7165 121.5 0V6C114.746 20.288 82.326 70.5804 83.5729 76.1917C92.6653 71.2558 144.883 31.4572 148 23.9755C148.779 27.6125 111.939 66.9954 87 80.0884C82.8435 85.284 80.1386 84.5 77.3382 109.703C76.5588 116.718 73.9091 131.993 69.5447 136.981C88.5088 129.966 158.709 58.9894 193 3.5H198.137C189.304 18.5673 138.605 91.2652 130.5 97.5C141.411 93.6033 167.43 87.2584 172.418 81.6471C180.731 70.996 198.293 47.6676 202.033 39.5624L204.371 40.3418C196.578 52.5515 180.835 77.5945 180.212 80.0884L210.606 67.6189C217.62 59.3058 232.428 42.2122 235.545 40.3418L237.883 41.1211C230.869 48.395 216.841 63.4104 216.841 65.2808C231.129 63.2026 260.796 57.955 265.16 53.5907C270.616 47.3559 282.774 32.0807 287.761 20.8582H289.32C286.586 27.0713 280.666 39.6565 277.975 42.373L298.672 23.9755L300.231 26.3136C290.879 34.107 272.019 50.1615 271.395 52.032C281.786 51.2526 304.595 47.6676 312.7 39.5624L314.259 40.3418C311.142 43.7189 298.205 51.7202 271.395 56.708C237.623 66.5797 169.924 87.726 169.301 93.3372L166.963 95.6753C176.315 96.1948 195.643 97.8575 198.137 100.351C208.528 96.7144 229.934 89.7523 232.428 90.9992C223.855 93.597 206.709 99.2603 206.709 101.131L241.78 100.351V101.91L228.531 102.689L237.883 112.821L225.414 104.248H195.799C179.173 101.91 143.894 99.4161 135.789 108.145C108.252 125.55 69.5447 152.011 51.6198 167.375C38.8905 178.286 30.5775 191.535 15.7699 222.709C14.9906 227.644 13.4319 237.048 13.4319 235.178C13.4319 233.308 3.89673 217.754 0 211Z" fill="url(#paint0_linear_1135_178)"/>
</g>
<defs>
<filter id="filter0_n_1135_178" x="0" y="0" width="314.26" height="235.421" filterUnits="userSpaceOnUse" color-interpolation-filters="sRGB">
<feFlood flood-opacity="0" result="BackgroundImageFix"/>
<feBlend mode="normal" in="SourceGraphic" in2="BackgroundImageFix" result="shape"/>
<feTurbulence type="fractalNoise" baseFrequency="10 10" stitchTiles="stitch" numOctaves="3" result="noise" seed="6985" />
<feColorMatrix in="noise" type="luminanceToAlpha" result="alphaNoise" />
<feComponentTransfer in="alphaNoise" result="coloredNoise1">
<feFuncA type="discrete" tableValues="1 1 1 1 1 1 1 1 1 1 1 1 1 1 1 1 1 1 1 1 1 1 1 1 1 1 1 1 1 1 1 1 1 1 1 1 1 1 1 1 1 1 1 1 1 1 1 1 1 1 1 0 0 0 0 0 0 0 0 0 0 0 0 0 0 0 0 0 0 0 0 0 0 0 0 0 0 0 0 0 0 0 0 0 0 0 0 0 0 0 0 0 0 0 0 0 0 0 0 0 "/>
</feComponentTransfer>
<feComposite operator="in" in2="shape" in="coloredNoise1" result="noise1Clipped" />
<feFlood flood-color="rgba(113, 25, 25, 0.24)" result="color1Flood" />
<feComposite operator="in" in2="noise1Clipped" in="color1Flood" result="color1" />
<feMerge result="effect1_noise_1135_178">
<feMergeNode in="shape" />
<feMergeNode in="color1" />
</feMerge>
</filter>
<linearGradient id="paint0_linear_1135_178" x1="294.775" y1="15.4027" x2="104.615" y2="220.37" gradientUnits="userSpaceOnUse">
<stop stop-color="#9D3A36"/>
<stop offset="1" stop-color="#80615D"/>
</linearGradient>
</defs>
</svg>
