<svg width="666" height="577" viewBox="0 0 666 577" fill="none" xmlns="http://www.w3.org/2000/svg">
<g filter="url(#filter0_n_1147_1023)">
<path d="M282.245 295.334C333.318 334.115 354.391 365.181 358.543 375.866L371 393.849L349.2 436.852L342.972 427.47C342.972 359.916 294.183 321.657 269.788 310.971C259.822 308.469 222.037 300.025 204.389 296.116C196.292 291.737 181.292 292.206 174.804 292.988C170.444 297.992 153.264 301.849 145.219 303.153C143.351 308.156 131.465 315.141 125.755 318.008C123.264 317.383 113.298 319.832 108.627 321.136L107.848 319.572C109.717 317.695 120.046 316.184 124.977 315.662C131.205 313.786 138.991 306.019 142.105 302.371C137.745 300.494 124.198 301.068 117.97 301.589L116.413 300.025C121.395 298.774 138.212 298.983 145.998 299.243C155.34 299.243 165.462 292.467 169.354 289.079C163.126 285.326 130.427 284.388 114.855 284.388C101.153 282.511 89.9417 282.042 86.049 282.042C56.1524 290.173 3.89277 291.164 0 289.079C18.6853 291.581 74.3706 281.781 81.3776 278.133C54.5953 274.38 15.5381 258.437 14.5 256.352C38.7909 265.109 94.5 280.478 116.413 280.478C92.1217 271.096 83.9728 261.453 82.9347 257.804C91.6545 267.812 114.596 276.569 124.977 279.696C143.662 278.445 157.676 279.696 162.347 280.478C171.067 284.231 185.185 285.691 191.154 285.951C188.04 284.7 169.095 271.878 160.012 265.623C141.326 262.495 131.465 254.937 128.869 251.549C135.721 257.804 150.929 261.453 157.676 262.495C149.579 258.117 145.998 250.246 145.219 246.858C153.316 259.993 181.811 276.308 195.047 282.824C208.126 291.581 247.729 296.376 265.895 297.679C250.324 274.536 228.784 254.155 219.96 246.858C205.315 242.479 177.526 217.929 165.462 206.201C160.589 204.026 135.762 196.179 124.231 192.653C122.351 192.194 120.745 191.753 119.527 191.345C116.681 190.393 119.181 191.108 124.231 192.653C133.888 195.012 150.761 197.855 159.233 199.164L135.876 178.053L163.126 199.164C160.635 196.662 152.226 177.271 148.333 167.889C170.756 213.55 202.832 232.263 216.068 235.912C192.4 205.888 188.559 174.405 189.597 162.416C189.597 188.687 215.549 229.136 228.524 246.076C219.182 209.797 220.479 174.144 222.296 160.852C221.05 175.239 225.929 209.068 228.524 224.184C232.884 259.837 266.155 286.473 282.245 295.334Z" fill="url(#paint0_linear_1147_1023)"/>
</g>
<g filter="url(#filter1_n_1147_1023)">
<g filter="url(#filter2_n_1147_1023)">
<path d="M381.836 416.652C376.534 406.02 357.441 351.765 352.138 325.967L359.301 426.815C331.729 491.859 318.877 553.937 365.144 575.827H393.457L390.19 574.738C355.724 559.728 361.068 523.234 367.917 506.556C389.657 465.279 386.255 429.421 381.836 416.652Z" fill="#C39E97"/>
</g>
<g filter="url(#filter3_n_1147_1023)">
<path d="M499.18 88.2665C514.767 76.4205 526.457 49.559 530.354 37.6091H531.913C532.536 39.4795 526.457 57.0927 523.34 65.6655C528.328 64.9577 539.446 53.9402 544.382 48.5199L546.72 50.0786C546.097 53.196 525.158 69.5622 514.767 77.3557C526.63 78.6026 540.493 72.16 545.941 68.7829L547.5 70.3416C546.876 74.0824 526.457 79.1742 516.326 81.2524C510.091 82.4994 484.95 107.49 479.495 113.206C465.155 125.052 448.061 153.472 441.307 166.201C447.541 162.46 474.039 162.045 486.509 162.304C503.342 164.175 516.384 153.732 520.8 148.276L523.138 149.835C519.241 153.254 511.292 160.068 510.668 159.966C525.008 162.46 538.465 156.329 543.401 152.952V155.29C539.037 163.395 492.224 169.059 469.363 170.877C422.602 178.359 390.649 222.834 380.518 244.136C351.838 288.402 354.54 332.721 359.475 349.347C378.803 409.201 363.892 461.053 354.02 479.498C320.508 537.169 362.141 565.955 373.311 575.827L240.236 576.136C241.483 571.772 259.979 563.927 269.071 560.55C286.529 559.303 291.932 543.924 292.452 536.39C301.18 505.216 311.676 491.188 315.832 488.071C334.536 474.354 340.252 441.829 340.771 427.282C343.265 414.812 335.056 369.091 330.64 347.789C326.275 337.189 328.302 310.64 329.86 298.69C342.953 272.504 301.025 199.453 278.424 166.201C272.812 164.331 248.029 147.237 236.339 138.924V135.807C240.08 142.041 263.356 153.472 274.527 158.408C271.409 154.667 256.082 117.882 248.808 99.9567C258.161 121.155 297.907 185.685 316.611 215.3C318.482 200.96 311.156 161.525 307.259 143.6C304.765 131.131 295.309 109.309 290.893 99.9567C284.658 90.6046 255.043 78.3948 241.015 73.459V70.3416C242.262 72.212 261.278 78.9144 270.63 82.0318C260.654 74.55 251.926 37.8689 248.808 20.4635L251.146 21.2428C259.252 60.5218 270.11 78.6546 274.527 82.8111C279.515 89.6693 287.516 91.3839 290.893 91.3839C290.893 88.2665 278.424 63.5873 272.189 51.6373C282.788 62.8599 302.583 108.789 311.156 130.351C310.533 115.388 317.651 96.06 321.287 88.2665C341 43.3522 351.5 10.3522 353.957 0C355.204 5.61128 347.039 32.2402 346 41.8522C352.234 28.7592 370.064 12.7293 375 9.35214V11.6902C360.036 19.7954 343.5 51.6373 321.287 110.088C318.794 162.46 325.964 205.168 329.86 219.976C331.107 230.575 342.33 260.762 347.785 274.53C379.583 237.121 381.297 175.813 378.18 149.835C381.921 177.268 381.297 208.026 380.518 219.976C404.833 209.377 439.488 155.29 453.776 129.572C459.387 125.831 473.981 90.3448 474.241 79.6937C471.747 60.9894 475.28 54.2351 477.358 53.196C474.241 57.0927 476.579 71.9003 476.579 73.459C479.073 84.058 463.908 115.024 462.349 122.558L464.687 120.22C485.885 104.633 506.454 59.4307 507.753 45.4025L508.532 46.1819C509.779 50.5462 502.817 76.0568 499.18 88.2665Z" fill="url(#paint1_linear_1147_1023)"/>
</g>
</g>
<g filter="url(#filter4_n_1147_1023)">
<path d="M376.622 438.192C370.387 410.76 407.795 369.61 427.279 352.465C396.105 356.829 374.284 403.642 367.27 426.502L376.622 438.192Z" fill="#B3948D"/>
<path d="M351.5 416.352C357.735 404.402 364.932 385.852 386.5 366.352C400.528 354.402 430.085 321.602 413.251 282.323L408.575 269.074L392.209 253.487L393.768 251.929L407.796 264.398L406.237 248.032L412.472 267.516L423.5 282.323C455 231.666 466.142 219.069 473 205.352V211.352C466.246 225.64 433.826 275.933 435.073 281.544C444.165 276.608 496.383 236.809 499.5 229.328C500.279 232.965 463.439 272.348 438.5 285.441C434.343 290.636 431.639 289.852 428.838 315.056C428.059 322.07 425.409 337.345 421.045 342.333C440.009 335.319 510.209 264.342 544.5 208.852H549.637C540.804 223.92 490.105 296.617 482 302.852C492.911 298.956 518.93 292.611 523.918 286.999C532.231 276.348 549.793 253.02 553.533 244.915L555.871 245.694C548.078 257.904 532.335 282.947 531.712 285.441L562.106 272.971C569.12 264.658 583.928 247.564 587.045 245.694L589.383 246.473C582.369 253.747 568.341 268.763 568.341 270.633C582.629 268.555 612.296 263.307 616.66 258.943C622.116 252.708 634.274 237.433 639.261 226.21H640.82C638.086 232.424 632.166 245.009 629.475 247.725L650.172 229.328L651.731 231.666C642.379 239.459 623.519 255.514 622.895 257.384C633.286 256.605 656.095 253.02 664.2 244.915L665.759 245.694C662.642 249.071 649.705 257.072 622.895 262.06C589.123 271.932 521.424 293.078 520.801 298.689L518.463 301.028C527.815 301.547 547.143 303.21 549.637 305.704C560.028 302.067 581.434 295.104 583.928 296.351C575.355 298.949 558.209 304.613 558.209 306.483L593.28 305.704V307.262L580.031 308.042L589.383 318.173L576.914 309.6H547.299C530.673 307.262 495.394 304.768 487.289 313.497C459.752 330.902 421.045 357.363 403.12 372.727C390.39 383.638 382.077 396.887 367.27 428.061C366.491 432.997 364.932 442.401 364.932 440.53C364.932 438.66 355.397 423.107 351.5 416.352Z" fill="url(#paint2_linear_1147_1023)"/>
</g>
<defs>
<filter id="filter0_n_1147_1023" x="0" y="160.852" width="371" height="276" filterUnits="userSpaceOnUse" color-interpolation-filters="sRGB">
<feFlood flood-opacity="0" result="BackgroundImageFix"/>
<feBlend mode="normal" in="SourceGraphic" in2="BackgroundImageFix" result="shape"/>
<feTurbulence type="fractalNoise" baseFrequency="10 10" stitchTiles="stitch" numOctaves="3" result="noise" seed="6985" />
<feColorMatrix in="noise" type="luminanceToAlpha" result="alphaNoise" />
<feComponentTransfer in="alphaNoise" result="coloredNoise1">
<feFuncA type="discrete" tableValues="1 1 1 1 1 1 1 1 1 1 1 1 1 1 1 1 1 1 1 1 1 1 1 1 1 1 1 1 1 1 1 1 1 1 1 1 1 1 1 1 1 1 1 1 1 1 1 1 1 1 1 0 0 0 0 0 0 0 0 0 0 0 0 0 0 0 0 0 0 0 0 0 0 0 0 0 0 0 0 0 0 0 0 0 0 0 0 0 0 0 0 0 0 0 0 0 0 0 0 0 "/>
</feComponentTransfer>
<feComposite operator="in" in2="shape" in="coloredNoise1" result="noise1Clipped" />
<feFlood flood-color="rgba(113, 25, 25, 0.24)" result="color1Flood" />
<feComposite operator="in" in2="noise1Clipped" in="color1Flood" result="color1" />
<feMerge result="effect1_noise_1147_1023">
<feMergeNode in="shape" />
<feMergeNode in="color1" />
</feMerge>
</filter>
<filter id="filter1_n_1147_1023" x="236.339" y="0" width="311.161" height="576.136" filterUnits="userSpaceOnUse" color-interpolation-filters="sRGB">
<feFlood flood-opacity="0" result="BackgroundImageFix"/>
<feBlend mode="normal" in="SourceGraphic" in2="BackgroundImageFix" result="shape"/>
<feTurbulence type="fractalNoise" baseFrequency="10 10" stitchTiles="stitch" numOctaves="3" result="noise" seed="6985" />
<feColorMatrix in="noise" type="luminanceToAlpha" result="alphaNoise" />
<feComponentTransfer in="alphaNoise" result="coloredNoise1">
<feFuncA type="discrete" tableValues="1 1 1 1 1 1 1 1 1 1 1 1 1 1 1 1 1 1 1 1 1 1 1 1 1 1 1 1 1 1 1 1 1 1 1 1 1 1 1 1 1 1 1 1 1 1 1 1 1 1 1 0 0 0 0 0 0 0 0 0 0 0 0 0 0 0 0 0 0 0 0 0 0 0 0 0 0 0 0 0 0 0 0 0 0 0 0 0 0 0 0 0 0 0 0 0 0 0 0 0 "/>
</feComponentTransfer>
<feComposite operator="in" in2="shape" in="coloredNoise1" result="noise1Clipped" />
<feFlood flood-color="rgba(113, 25, 25, 0.13)" result="color1Flood" />
<feComposite operator="in" in2="noise1Clipped" in="color1Flood" result="color1" />
<feMerge result="effect1_noise_1147_1023">
<feMergeNode in="shape" />
<feMergeNode in="color1" />
</feMerge>
</filter>
<filter id="filter2_n_1147_1023" x="334.471" y="325.967" width="58.9863" height="249.86" filterUnits="userSpaceOnUse" color-interpolation-filters="sRGB">
<feFlood flood-opacity="0" result="BackgroundImageFix"/>
<feBlend mode="normal" in="SourceGraphic" in2="BackgroundImageFix" result="shape"/>
<feTurbulence type="fractalNoise" baseFrequency="10 10" stitchTiles="stitch" numOctaves="3" result="noise" seed="8974" />
<feColorMatrix in="noise" type="luminanceToAlpha" result="alphaNoise" />
<feComponentTransfer in="alphaNoise" result="coloredNoise1">
<feFuncA type="discrete" tableValues="1 1 1 1 1 1 1 1 1 1 1 1 1 1 1 1 1 1 1 1 1 1 1 1 1 1 1 1 1 1 1 1 1 1 1 1 1 1 1 1 1 1 1 1 1 1 1 1 1 1 1 0 0 0 0 0 0 0 0 0 0 0 0 0 0 0 0 0 0 0 0 0 0 0 0 0 0 0 0 0 0 0 0 0 0 0 0 0 0 0 0 0 0 0 0 0 0 0 0 0 "/>
</feComponentTransfer>
<feComposite operator="in" in2="shape" in="coloredNoise1" result="noise1Clipped" />
<feFlood flood-color="rgba(80, 58, 58, 0.25)" result="color1Flood" />
<feComposite operator="in" in2="noise1Clipped" in="color1Flood" result="color1" />
<feMerge result="effect1_noise_1147_1023">
<feMergeNode in="shape" />
<feMergeNode in="color1" />
</feMerge>
</filter>
<filter id="filter3_n_1147_1023" x="236.339" y="0" width="311.161" height="576.136" filterUnits="userSpaceOnUse" color-interpolation-filters="sRGB">
<feFlood flood-opacity="0" result="BackgroundImageFix"/>
<feBlend mode="normal" in="SourceGraphic" in2="BackgroundImageFix" result="shape"/>
<feTurbulence type="fractalNoise" baseFrequency="10 10" stitchTiles="stitch" numOctaves="3" result="noise" seed="96" />
<feColorMatrix in="noise" type="luminanceToAlpha" result="alphaNoise" />
<feComponentTransfer in="alphaNoise" result="coloredNoise1">
<feFuncA type="discrete" tableValues="1 1 1 1 1 1 1 1 1 1 1 1 1 1 1 1 1 1 1 1 1 1 1 1 1 1 1 1 1 1 1 1 1 1 1 1 1 1 1 1 1 1 1 1 1 1 1 1 1 1 1 0 0 0 0 0 0 0 0 0 0 0 0 0 0 0 0 0 0 0 0 0 0 0 0 0 0 0 0 0 0 0 0 0 0 0 0 0 0 0 0 0 0 0 0 0 0 0 0 0 "/>
</feComponentTransfer>
<feComposite operator="in" in2="shape" in="coloredNoise1" result="noise1Clipped" />
<feFlood flood-color="rgba(63, 28, 28, 0.25)" result="color1Flood" />
<feComposite operator="in" in2="noise1Clipped" in="color1Flood" result="color1" />
<feMerge result="effect1_noise_1147_1023">
<feMergeNode in="shape" />
<feMergeNode in="color1" />
</feMerge>
</filter>
<filter id="filter4_n_1147_1023" x="351.5" y="205.352" width="314.26" height="235.421" filterUnits="userSpaceOnUse" color-interpolation-filters="sRGB">
<feFlood flood-opacity="0" result="BackgroundImageFix"/>
<feBlend mode="normal" in="SourceGraphic" in2="BackgroundImageFix" result="shape"/>
<feTurbulence type="fractalNoise" baseFrequency="10 10" stitchTiles="stitch" numOctaves="3" result="noise" seed="6985" />
<feColorMatrix in="noise" type="luminanceToAlpha" result="alphaNoise" />
<feComponentTransfer in="alphaNoise" result="coloredNoise1">
<feFuncA type="discrete" tableValues="1 1 1 1 1 1 1 1 1 1 1 1 1 1 1 1 1 1 1 1 1 1 1 1 1 1 1 1 1 1 1 1 1 1 1 1 1 1 1 1 1 1 1 1 1 1 1 1 1 1 1 0 0 0 0 0 0 0 0 0 0 0 0 0 0 0 0 0 0 0 0 0 0 0 0 0 0 0 0 0 0 0 0 0 0 0 0 0 0 0 0 0 0 0 0 0 0 0 0 0 "/>
</feComponentTransfer>
<feComposite operator="in" in2="shape" in="coloredNoise1" result="noise1Clipped" />
<feFlood flood-color="rgba(113, 25, 25, 0.24)" result="color1Flood" />
<feComposite operator="in" in2="noise1Clipped" in="color1Flood" result="color1" />
<feMerge result="effect1_noise_1147_1023">
<feMergeNode in="shape" />
<feMergeNode in="color1" />
</feMerge>
</filter>
<linearGradient id="paint0_linear_1147_1023" x1="204" y1="160.852" x2="358.748" y2="428.465" gradientUnits="userSpaceOnUse">
<stop stop-color="#AC5052"/>
<stop offset="0.5" stop-color="#8C726D"/>
<stop offset="1" stop-color="#42312E"/>
</linearGradient>
<linearGradient id="paint1_linear_1147_1023" x1="459.204" y1="53.1273" x2="372.751" y2="573.867" gradientUnits="userSpaceOnUse">
<stop stop-color="#BB4841"/>
<stop offset="0.505658" stop-color="#7C5A50"/>
<stop offset="0.865385" stop-color="#865344"/>
<stop offset="0.9999" stop-color="#875047"/>
</linearGradient>
<linearGradient id="paint2_linear_1147_1023" x1="646.275" y1="220.755" x2="456.115" y2="425.723" gradientUnits="userSpaceOnUse">
<stop stop-color="#9D3A36"/>
<stop offset="1" stop-color="#80615D"/>
</linearGradient>
</defs>
</svg>
