<svg width="250" height="188" viewBox="0 0 250 188" fill="none" xmlns="http://www.w3.org/2000/svg">
<g filter="url(#filter0_n_1135_171)">
<path d="M204.62 29.7711C223.023 23.8258 233.222 35.3154 236.021 41.8034C244.603 41.8034 242.365 47.7218 240.173 50.6811C246.296 52.4942 244.046 59.8098 242.156 63.241C251.804 65.7912 250.561 78.323 248.734 84.2701C247.638 115.217 216.575 118.85 216.575 122.038C222.422 147.824 194.161 156.93 179.3 158.26C178.131 192.905 138.975 190.272 119.543 184.625C108.698 192.723 102.138 182.323 100.214 176.111C98.7157 173.116 99.5899 170.467 100.214 169.517C93.7105 170.98 90.3425 159.339 89.4714 153.335C85.6389 163.804 80.9062 160.98 79.019 158.26C76.5801 165.127 67.0664 163.185 62.6144 161.356C64.2404 171.036 52.8073 170.83 46.8876 169.517C40.113 181.448 34.4188 173.269 32.4184 167.687C23.4717 167.125 21.9159 161.168 22.2563 158.26C19.0045 149.93 26.3212 147.848 30.386 147.848C25.7405 140.869 37.261 135.112 43.6019 133.107C41.658 130.594 41.0584 129.475 40.9763 129.063C39.6605 132.618 33.9351 134.651 31.1877 135.23C18.6278 140.326 20.5991 133.107 23.1547 128.86C16.1441 131.125 14.8787 122.018 15.1222 117.182C0.80943 118.314 1.85603 106.093 4.16844 99.8412C11.763 84.8363 19.9903 95.0047 23.1547 101.965C23.7389 99.1334 27.0494 100.785 28.6316 101.965C27.7553 93.1881 34.1083 86.5114 37.3944 84.2701C15.7791 70.3976 34.7168 50.1787 46.8876 41.8034C53.0216 31.0451 66.4825 33.7819 72.4462 36.495C84.6711 29.9124 83.5262 36.0842 81.0542 40.7758C82.2279 39.7903 84.6662 40.9379 85.956 41.8034C86.8323 31.6113 93.6234 28.1197 96.9095 27.6478C87.5623 21.4194 93.0148 19.6263 96.9095 19.5084C105.965 15.2617 106.768 23.1652 106.037 27.6478C111.003 24.2505 115.165 26.2322 116.626 27.6478C125.681 10.9442 136.464 18.8006 140.724 24.8167C157.958 23.6842 152.286 33.31 147.296 38.2645C152.262 35.4334 155.543 40.1383 158.342 42.4976C159.799 44.8929 161.828 49.1643 160.075 41.8034C158.323 34.4425 167.378 32.1304 172.125 31.8945C185.269 14.9078 199.265 23.4011 204.62 29.7711Z" fill="url(#paint0_linear_1135_171)"/>
<path d="M0.334523 128.86C3.43144 122.217 11.8547 127.529 15.6792 131.016C18.4404 134.668 14.3423 136.907 11.948 137.57C0.120038 138.691 -0.722638 132.231 0.334523 128.86Z" fill="url(#paint1_linear_1135_171)"/>
<path d="M67.4779 0.0238364C63.5032 -0.415874 62.5032 5.337 62.5 8.2684C63.8274 11.3464 67.4779 8.81804 69.1372 7.16911C71.792 3.65143 69.1372 0.939894 67.4779 0.0238364Z" fill="url(#paint2_linear_1135_171)"/>
</g>
<defs>
<filter id="filter0_n_1135_171" x="0" y="0" width="250" height="188" filterUnits="userSpaceOnUse" color-interpolation-filters="sRGB">
<feFlood flood-opacity="0" result="BackgroundImageFix"/>
<feBlend mode="normal" in="SourceGraphic" in2="BackgroundImageFix" result="shape"/>
<feTurbulence type="fractalNoise" baseFrequency="10 10" stitchTiles="stitch" numOctaves="3" result="noise" seed="8284" />
<feColorMatrix in="noise" type="luminanceToAlpha" result="alphaNoise" />
<feComponentTransfer in="alphaNoise" result="coloredNoise1">
<feFuncA type="discrete" tableValues="1 1 1 1 1 1 1 1 1 1 1 1 1 1 1 1 1 1 1 1 1 1 1 1 1 1 1 1 1 1 1 1 1 1 1 1 1 1 1 1 1 1 1 1 1 1 1 1 1 1 1 0 0 0 0 0 0 0 0 0 0 0 0 0 0 0 0 0 0 0 0 0 0 0 0 0 0 0 0 0 0 0 0 0 0 0 0 0 0 0 0 0 0 0 0 0 0 0 0 0 "/>
</feComponentTransfer>
<feComposite operator="in" in2="shape" in="coloredNoise1" result="noise1Clipped" />
<feFlood flood-color="rgba(201, 17, 17, 0.11)" result="color1Flood" />
<feComposite operator="in" in2="noise1Clipped" in="color1Flood" result="color1" />
<feMerge result="effect1_noise_1135_171">
<feMergeNode in="shape" />
<feMergeNode in="color1" />
</feMerge>
</filter>
<linearGradient id="paint0_linear_1135_171" x1="53.2194" y1="81.0021" x2="121.887" y2="189.962" gradientUnits="userSpaceOnUse">
<stop stop-color="#E8A2A0"/>
<stop offset="1" stop-color="#E9C4BC"/>
</linearGradient>
<linearGradient id="paint1_linear_1135_171" x1="53.2194" y1="81.0021" x2="121.887" y2="189.962" gradientUnits="userSpaceOnUse">
<stop stop-color="#E8A2A0"/>
<stop offset="1" stop-color="#E9C4BC"/>
</linearGradient>
<linearGradient id="paint2_linear_1135_171" x1="53.2194" y1="81.0021" x2="121.887" y2="189.962" gradientUnits="userSpaceOnUse">
<stop stop-color="#E8A2A0"/>
<stop offset="1" stop-color="#E9C4BC"/>
</linearGradient>
</defs>
</svg>
