<svg width="202" height="158" viewBox="0 0 202 158" fill="none" xmlns="http://www.w3.org/2000/svg">
<path d="M180.026 29.4744C197.626 25.4744 198.693 46.8077 197.026 57.9744C207.526 59.4743 197.026 84.9744 197.026 86.9744C204.526 105.474 167.026 126.474 167.026 128.474C164.626 145.274 146.693 141.474 138.026 137.474C136.826 145.874 124.526 152.641 118.526 154.974C102.526 162.174 94.8592 151.974 93.0259 145.974C54.2259 160.374 25.526 142.974 16.026 132.474C2.42603 135.674 -0.307297 125.808 0.0260361 120.474C2.02604 112.874 8.52604 113.308 11.526 114.474C11.126 108.074 19.3592 103.141 23.5259 101.474C-0.874146 94.2744 9.69252 71.1411 18.0259 60.4744C18.4259 47.6744 31.1926 46.4744 37.5259 47.4744C29.5259 42.6744 36.1926 27.4744 40.5259 20.4744C42.1259 2.47433 65.8593 5.30772 77.5259 8.97443C77.5259 -0.225533 83.1926 1.14109 86.0259 2.9744C102.026 -3.4256 103.359 1.97439 102.026 5.47438C106.426 3.47438 113.193 10.3077 116.026 13.9744C135.626 -2.82564 149.193 11.3077 153.526 20.4744C162.326 13.2744 174.859 23.4744 180.026 29.4744Z" fill="url(#paint0_linear_1138_193)"/>
<defs>
<linearGradient id="paint0_linear_1138_193" x1="100.846" y1="0" x2="100.846" y2="157.451" gradientUnits="userSpaceOnUse">
<stop stop-color="#C35E66"/>
<stop offset="1" stop-color="#DE9699"/>
</linearGradient>
</defs>
</svg>
