<svg width="209" height="123" viewBox="0 0 209 123" fill="none" xmlns="http://www.w3.org/2000/svg">
<path d="M186.548 23.0253C204.786 19.9005 205.891 36.566 204.164 45.2894C215.045 46.4611 204.164 66.3817 204.164 67.9441C211.936 82.3962 173.077 98.8014 173.077 100.364C170.59 113.488 152.007 110.519 143.027 107.395C141.783 113.957 129.037 119.243 122.82 121.065C106.24 126.69 98.296 118.722 96.3962 114.035C56.1905 125.284 26.4508 111.691 16.6067 103.489C2.51393 105.988 -0.318431 98.2806 0.0269794 94.1142C2.09944 88.1771 8.83494 88.5156 11.9436 89.427C11.5291 84.4273 20.0606 80.5734 24.3782 79.2714C-0.905816 73.6468 10.0437 55.5752 18.6789 47.2424C19.0934 37.2431 32.3227 36.3056 38.8855 37.0868C30.5957 33.3371 37.5039 21.4629 41.9942 15.9945C43.6522 1.93294 68.2454 4.14638 80.3347 7.01079C80.3347 -0.176185 86.2067 0.891416 89.1427 2.32359C105.722 -2.67607 107.104 1.54238 105.722 4.27657C110.282 2.71417 117.294 8.05234 120.23 10.9167C140.54 -2.20738 154.598 8.83354 159.088 15.9945C168.207 10.3699 181.194 18.3381 186.548 23.0253Z" fill="url(#paint0_linear_1138_194)"/>
<defs>
<linearGradient id="paint0_linear_1138_194" x1="4.01525" y1="59.8778" x2="48.4035" y2="149.914" gradientUnits="userSpaceOnUse">
<stop stop-color="#C35E66"/>
<stop offset="1" stop-color="#E5B4AD"/>
</linearGradient>
</defs>
</svg>
