<svg width="71" height="63" viewBox="0 0 71 63" fill="none" xmlns="http://www.w3.org/2000/svg">
<path d="M51.7076 15.1273C65.92 -1.30094 68.2914 16.2564 67.7004 27.0886C75.1244 26.2833 67.7004 35.3387 67.7004 35.986C74.6957 43.1039 67.906 49.2377 63.6368 51.4149C64.5008 55.6443 57.3562 56.7017 53.6759 56.7017C48.8754 66.1964 39.5146 62.8876 35.4342 60.0464C33.034 63.3264 27.2335 60.7657 24.6332 59.0753C18.2007 64.1679 9.47181 59.1113 5.91145 55.9464C-5.1296 47.8328 1.79101 40.1939 6.63145 37.3886C-3.54546 32.555 1.91107 24.0098 5.91145 20.3414C14.6482 10.2425 20.2726 15.7019 21.9927 19.694C22.8568 18.2267 25.713 20.3054 27.0331 21.5282C24.633 17.0799 28.0332 14.5678 30.0333 13.8677C28.9772 5.14991 36.874 1.17218 40.9544 0.273052C50.7473 -1.88483 50.5117 9.27679 49.1698 15.1273C49.982 14.2755 51.2001 14.7724 51.7076 15.1273Z" fill="url(#paint0_linear_1135_169)"/>
<defs>
<linearGradient id="paint0_linear_1135_169" x1="43.6421" y1="42.8576" x2="0.785997" y2="29.0589" gradientUnits="userSpaceOnUse">
<stop stop-color="#F3B4B2"/>
<stop offset="1" stop-color="#D7918F"/>
</linearGradient>
</defs>
</svg>
