<svg width="240" height="201" viewBox="0 0 240 201" fill="none" xmlns="http://www.w3.org/2000/svg">
<g filter="url(#filter0_n_1135_170)">
<path d="M86.3648 42.7589C80.454 12.6791 105.419 11.8435 118.641 15.1858C122.109 4.30982 127.646 8.36597 129.981 11.7535C131.038 9.00777 135.113 10.6095 137.018 11.7535C139.266 0.402108 150.169 3.32777 155.34 6.20953C156.251 1.09323 161.707 4.07774 164.321 6.20953C172.417 -5.03653 185.75 1.52367 191.404 6.20953C214.82 -0.971459 221.193 19.7726 221.453 31.0423C250.843 46.4386 238.837 74.7088 229.16 86.9194C227.244 93.2433 220.947 91.7604 218.038 90.2284C232.959 102.141 221.511 113.711 213.922 118.007C218.32 130.869 209.036 138.076 203.844 140.072C204.531 157.789 185.886 158.815 184.717 160.281C185.34 166.221 177.829 169.69 173.995 170.682C173.995 181.313 170.322 186.755 168.485 188.147C173.982 187.1 172.283 194.937 170.746 198.986C168.589 203.023 164.107 199.048 162.135 196.557C161.857 200.668 158.888 201.198 157.439 200.948C150.55 198.556 154.568 189.798 157.439 185.717C148.811 195.136 140.23 192.77 137.018 190.41C129.368 181.421 136.221 178.122 140.604 177.597C138.299 170.81 147.934 167.503 153.584 166.585C143.179 168.02 142.566 161.103 143.592 157.392C138.811 158.845 138.91 152.935 139.558 149.798C135.135 155.563 129.348 151.558 127.007 148.834C122.823 155.512 119.885 151.617 118.938 148.834C116.189 150.247 114.705 148.246 114.306 147.069C114.067 154.902 108.467 157.215 105.696 157.392C103.283 167.505 95.2373 165.064 91.5163 162.579C91.3566 165.754 85.8303 167.062 83.0282 167.327C84.4961 167.221 84.4739 169.509 84.2755 170.682C90.0682 177.424 80.7891 181.414 75.4255 182.567C69.9547 189.568 64.3631 185.484 62.2512 182.567C62.0098 185.332 58.6643 185.232 57.0217 184.835C49.3785 183.28 49.9484 178.209 51.1887 175.868C49.4188 175.868 48.9092 175.148 48.8757 174.787C48.393 179.282 45.5905 180.478 44.2496 180.514C39.6637 183.885 36.64 178.101 35.7013 174.787C34.8968 175.825 33.5559 175.22 32.986 174.787C26.791 184.122 16.7946 180.55 12.5707 177.597C1.70942 165.669 11.9338 158.653 18.4037 156.636C17.9211 154.475 20.2139 153.215 21.4207 152.855C19.7311 149.397 23.8678 144.571 26.1473 142.591C19.8719 144.924 18.3702 138.737 18.4037 135.352C11.3238 132.413 16.3254 126.636 19.7113 124.115C14.8037 119.621 17.6664 114.607 19.7113 112.663C24.3776 104.624 29.1646 108.737 30.9748 111.798C30.8943 107.995 34.7628 107.26 36.7071 107.369C31.7993 102.788 34.6621 98.7611 36.7071 97.3205C29.5668 80.5739 50.7937 69.2707 50.4839 69.6825C58.645 58.6417 69.5136 59.2909 73.7327 61.1513C71.768 49.8669 80.6597 49.346 85.3511 50.4961C83.4619 48.3853 85.2398 44.4585 86.3648 42.7589Z" fill="url(#paint0_linear_1135_170)"/>
<path d="M28.6075 198.365C20.1338 191.481 27.9958 186.477 32.986 184.835C37.3155 184.13 37.2707 188.75 36.7071 191.148C34.8753 199.656 30.5441 199.504 28.6075 198.365Z" fill="url(#paint1_linear_1135_170)"/>
<path d="M5.48573 193.23C-3.09129 187.055 1.91197 185.061 5.48573 184.835C7.84739 184.079 12.5707 183.867 12.5707 189.067C12.5707 194.267 7.84739 194.009 5.48573 193.23Z" fill="url(#paint2_linear_1135_170)"/>
<path d="M2.90231 149.798C-4.27321 141.564 3.52933 140.073 8.32753 140.357C14.9412 141.023 13.912 146.286 12.5707 148.834C10.4884 155.616 5.25749 152.302 2.90231 149.798Z" fill="url(#paint3_linear_1135_170)"/>
<path d="M7.68162 111.798C1.17136 107.491 6.34684 104.249 9.74837 103.166C12.5385 103.166 13.1499 105.968 13.1068 107.369C13.5357 112.507 9.66873 112.463 7.68162 111.798Z" fill="url(#paint4_linear_1135_170)"/>
</g>
<defs>
<filter id="filter0_n_1135_170" x="0" y="0" width="240" height="201" filterUnits="userSpaceOnUse" color-interpolation-filters="sRGB">
<feFlood flood-opacity="0" result="BackgroundImageFix"/>
<feBlend mode="normal" in="SourceGraphic" in2="BackgroundImageFix" result="shape"/>
<feTurbulence type="fractalNoise" baseFrequency="10 10" stitchTiles="stitch" numOctaves="3" result="noise" seed="2518" />
<feColorMatrix in="noise" type="luminanceToAlpha" result="alphaNoise" />
<feComponentTransfer in="alphaNoise" result="coloredNoise1">
<feFuncA type="discrete" tableValues="1 1 1 1 1 1 1 1 1 1 1 1 1 1 1 1 1 1 1 1 1 1 1 1 1 1 1 1 1 1 1 1 1 1 1 1 1 1 1 1 1 1 1 1 1 1 1 1 1 1 1 0 0 0 0 0 0 0 0 0 0 0 0 0 0 0 0 0 0 0 0 0 0 0 0 0 0 0 0 0 0 0 0 0 0 0 0 0 0 0 0 0 0 0 0 0 0 0 0 0 "/>
</feComponentTransfer>
<feComposite operator="in" in2="shape" in="coloredNoise1" result="noise1Clipped" />
<feFlood flood-color="rgba(195, 71, 71, 0.13)" result="color1Flood" />
<feComposite operator="in" in2="noise1Clipped" in="color1Flood" result="color1" />
<feMerge result="effect1_noise_1135_170">
<feMergeNode in="shape" />
<feMergeNode in="color1" />
</feMerge>
</filter>
<linearGradient id="paint0_linear_1135_170" x1="62.93" y1="23.722" x2="148.192" y2="209.673" gradientUnits="userSpaceOnUse">
<stop stop-color="#D38381"/>
<stop offset="1" stop-color="#E6B7B7"/>
</linearGradient>
<linearGradient id="paint1_linear_1135_170" x1="62.93" y1="23.722" x2="148.192" y2="209.673" gradientUnits="userSpaceOnUse">
<stop stop-color="#D38381"/>
<stop offset="1" stop-color="#E6B7B7"/>
</linearGradient>
<linearGradient id="paint2_linear_1135_170" x1="62.93" y1="23.722" x2="148.192" y2="209.673" gradientUnits="userSpaceOnUse">
<stop stop-color="#D38381"/>
<stop offset="1" stop-color="#E6B7B7"/>
</linearGradient>
<linearGradient id="paint3_linear_1135_170" x1="62.93" y1="23.722" x2="148.192" y2="209.673" gradientUnits="userSpaceOnUse">
<stop stop-color="#D38381"/>
<stop offset="1" stop-color="#E6B7B7"/>
</linearGradient>
<linearGradient id="paint4_linear_1135_170" x1="62.93" y1="23.722" x2="148.192" y2="209.673" gradientUnits="userSpaceOnUse">
<stop stop-color="#D38381"/>
<stop offset="1" stop-color="#E6B7B7"/>
</linearGradient>
</defs>
</svg>
