<svg width="365" height="276" viewBox="0 0 365 276" fill="none" xmlns="http://www.w3.org/2000/svg">
<g filter="url(#filter0_n_1135_167)">
<path d="M45.7386 107.865C41.7101 90.7503 54.8508 92.3293 61.9247 95.2582C55.6099 91.1941 57.4484 85.9844 59.157 83.8876C42.7429 80.6402 44.1376 69.146 46.8867 63.8048C53.3236 56.204 62.9789 66.9718 67.002 73.3057C63.7835 50.9959 80.6804 50.6968 89.5311 53.3361C88.8874 45.6448 95.4316 42.2976 98.7842 41.5855C111.014 29.1085 117.558 38.8081 119.302 45.2175C121.877 41.97 126.141 43.8644 127.951 45.2175L129.158 38.1671C136.239 14.0109 151.131 19.8227 157.692 25.7482C161.287 13.2025 172.136 15.6344 177.111 18.4185C193.931 11.7366 204.341 25.2936 207.444 32.9074C216.688 27.18 223.814 30.521 226.221 32.9074C236.586 43.648 228.408 56.2612 222.792 61.4746C224.353 60.2749 225.714 63.231 226.221 64.9533C230.073 54.8623 237.562 54.1577 240.825 55.0668C245.833 59.2941 235.85 68.9875 230.233 73.3057C234.598 72.0785 239.114 75.6353 240.825 77.5671V73.3057C245.191 57.0782 256.232 63.2487 261.208 68.3624C271.222 58.9532 283.034 70.5784 287.688 77.5671C301.169 94.0674 296.729 105.92 292.824 109.784C309.129 128.466 293.198 137 283.194 138.932C295.392 142.068 294.054 152.398 291.861 157.171C300.463 147.898 305.395 153.307 306.786 157.171C309.234 156.961 311.432 156.931 313.402 157.058C313.38 153.727 315.299 149.914 322.898 150.28C327.225 144.493 336.22 136.99 337.575 153.274C340.962 152.28 348.075 151.667 349.429 157.171C350.37 160.262 350.333 166.923 342.655 168.839C342.493 173.03 340.685 181.172 334.752 180.214C333.275 182.209 329.444 185.602 325.936 183.207C324.682 186.453 323.114 189.532 321.551 192.114C334.005 201.796 325.564 212.058 319.786 215.978C329.8 238.342 304.7 244.729 290.898 245.126C294.493 261.72 282.874 264.881 276.614 264.388C268.783 286.207 256.767 272.343 251.739 262.683C238.514 277.138 226.221 260.524 221.727 250.411C210.429 256.256 206.748 247.975 206.32 243.104C197.076 254.851 186.056 247.999 181.701 243.104C172.781 249.828 158.801 244.378 152.926 240.812C139.402 247.23 139.138 232.535 140.697 224.385C134.078 235.387 106.286 228.969 93.2176 224.385C65.0179 231.72 53.6516 214.961 51.4935 205.665C19.8408 212.695 8.3306 178.796 6.53211 160.968C-12.4596 138.351 14.4453 129.132 30.2718 127.349C27.682 114.513 39.5039 109.011 45.7386 107.865Z" fill="url(#paint0_linear_1135_167)"/>
<path d="M168.787 9.59422C170.142 1.45238 164.083 -0.183968 160.884 0.0155869C155.465 0.0155869 155.239 7.99777 155.804 11.9889C156.933 14.3835 167.094 19.7715 168.787 9.59422Z" fill="url(#paint1_linear_1135_167)"/>
<path d="M181.207 2.41022C177.142 3.36809 179.513 9.19509 181.207 11.9889C183.465 15.3414 187.416 11.7893 189.11 9.59422C191.932 4.20626 186.287 1.2129 181.207 2.41022Z" fill="url(#paint2_linear_1135_167)"/>
<path d="M362.413 171.234C357.445 167.402 352.816 172.83 351.123 176.023C351.123 184.404 359.591 180.812 360.72 180.214C361.849 179.615 368.623 176.023 362.413 171.234Z" fill="url(#paint3_linear_1135_167)"/>
</g>
<defs>
<filter id="filter0_n_1135_167" x="0" y="0" width="365" height="276" filterUnits="userSpaceOnUse" color-interpolation-filters="sRGB">
<feFlood flood-opacity="0" result="BackgroundImageFix"/>
<feBlend mode="normal" in="SourceGraphic" in2="BackgroundImageFix" result="shape"/>
<feTurbulence type="fractalNoise" baseFrequency="2 2" stitchTiles="stitch" numOctaves="3" result="noise" seed="234" />
<feColorMatrix in="noise" type="luminanceToAlpha" result="alphaNoise" />
<feComponentTransfer in="alphaNoise" result="coloredNoise1">
<feFuncA type="discrete" tableValues="1 1 1 1 1 1 1 1 1 1 1 1 1 1 1 1 1 1 1 1 1 1 1 1 1 1 1 1 1 1 1 1 1 1 1 1 1 1 1 1 1 1 1 1 1 1 1 1 1 1 1 0 0 0 0 0 0 0 0 0 0 0 0 0 0 0 0 0 0 0 0 0 0 0 0 0 0 0 0 0 0 0 0 0 0 0 0 0 0 0 0 0 0 0 0 0 0 0 0 0 "/>
</feComponentTransfer>
<feComposite operator="in" in2="shape" in="coloredNoise1" result="noise1Clipped" />
<feFlood flood-color="rgba(228, 91, 91, 0.25)" result="color1Flood" />
<feComposite operator="in" in2="noise1Clipped" in="color1Flood" result="color1" />
<feMerge result="effect1_noise_1135_167">
<feMergeNode in="shape" />
<feMergeNode in="color1" />
</feMerge>
</filter>
<linearGradient id="paint0_linear_1135_167" x1="303.838" y1="91.3043" x2="28.5337" y2="0.124703" gradientUnits="userSpaceOnUse">
<stop stop-color="#F7CCCA"/>
<stop offset="0.5" stop-color="#EAB8B0"/>
</linearGradient>
<linearGradient id="paint1_linear_1135_167" x1="303.838" y1="91.3043" x2="28.5337" y2="0.124703" gradientUnits="userSpaceOnUse">
<stop stop-color="#F7CCCA"/>
<stop offset="0.5" stop-color="#EAB8B0"/>
</linearGradient>
<linearGradient id="paint2_linear_1135_167" x1="303.838" y1="91.3043" x2="28.5337" y2="0.124703" gradientUnits="userSpaceOnUse">
<stop stop-color="#F7CCCA"/>
<stop offset="0.5" stop-color="#EAB8B0"/>
</linearGradient>
<linearGradient id="paint3_linear_1135_167" x1="303.838" y1="91.3043" x2="28.5337" y2="0.124703" gradientUnits="userSpaceOnUse">
<stop stop-color="#F7CCCA"/>
<stop offset="0.5" stop-color="#EAB8B0"/>
</linearGradient>
</defs>
</svg>
