<svg width="324" height="219" viewBox="0 0 324 219" fill="none" xmlns="http://www.w3.org/2000/svg">
<g filter="url(#filter0_n_1135_172)">
<path d="M136.824 199.223C116.601 230.437 77.8418 217.839 60.9898 207.638C51.3154 215.993 42.6581 208.667 39.5388 203.96C32.4429 212.335 19.5951 205.64 14.0582 201.246C2.05981 204.486 -0.294749 197.426 0.0277748 193.49C-0.101241 182.172 8.03673 178.25 12.1218 177.704C6.66468 174.489 7.74903 171.706 8.97335 170.716C-2.92049 164.567 1.68538 159.186 5.47504 157.265C5.89482 152.373 13.929 150.452 17.8936 150.102C7.78535 134.031 19.2888 120.88 26.3041 116.313C25.3027 112.688 28.7034 108.656 30.529 107.093C17.3852 100.717 25.0524 94.2262 30.529 91.7779C29.152 84.1516 34.3365 76.8274 37.1008 74.1186C42.6087 63.9918 51.1834 64.1689 54.7823 65.5233C60.165 53.5212 67.8739 57.8136 71.0555 61.4601C68.9275 47.3326 84.147 49.01 92.0229 51.6146C88.3927 46.3637 90.5103 42.3422 92.0229 40.9878C98.6573 32.2363 105.532 37.3413 108.14 40.9878C110.142 38.6124 117.841 39.998 121.44 40.9878C120.313 22.7346 129.837 26.8187 134.74 31.1423C135.115 30.0171 137.543 29.6538 138.709 29.6128C133.148 23.0438 137.488 19.7529 140.353 18.9286C144.479 16.4511 148.949 21.3862 150.668 24.1635C153.837 21.383 155.863 21.5797 156.481 22.0256C169.082 3.31269 174.333 12.1639 175.383 18.9286C176.312 16.1861 182.182 17.7859 185.001 18.9286C178.368 6.73905 189.533 1.23055 195.944 0C206.026 0 211.473 12.6191 212.937 18.9286C215.53 14.1803 221.169 16.9501 223.665 18.9286C232.803 11.9602 237.454 21.8321 238.638 27.6391C250.369 22.3974 251.875 31.571 251.162 36.8129C253.812 36.2835 256.684 42.3282 257.788 45.4167C267.331 39.5927 272.588 47.8434 274.023 52.6968C276.674 50.5789 283.742 53.5793 286.945 55.3442C284.56 50.0495 289.542 46.5198 292.331 45.4167C290.013 36.6806 299.923 34.2759 305.168 34.1656C315.438 32.5772 321.596 45.8579 323.391 52.6968C327.51 61.2402 309.517 74.9803 305.613 75.8274C310.014 75.6572 311.132 80.5779 311.132 83.141C314.313 87.9062 308.482 95.2745 305.168 98.3631C310.205 108.158 298.708 114.754 292.331 116.827C302.656 146.046 272.253 159.558 255.761 162.661C260.924 193.599 214.628 201.275 190.834 201.246C174.583 218.245 148.056 206.98 136.824 199.223Z" fill="url(#paint0_linear_1135_172)"/>
</g>
<defs>
<filter id="filter0_n_1135_172" x="0" y="0" width="324" height="219" filterUnits="userSpaceOnUse" color-interpolation-filters="sRGB">
<feFlood flood-opacity="0" result="BackgroundImageFix"/>
<feBlend mode="normal" in="SourceGraphic" in2="BackgroundImageFix" result="shape"/>
<feTurbulence type="fractalNoise" baseFrequency="10 10" stitchTiles="stitch" numOctaves="3" result="noise" seed="9319" />
<feColorMatrix in="noise" type="luminanceToAlpha" result="alphaNoise" />
<feComponentTransfer in="alphaNoise" result="coloredNoise1">
<feFuncA type="discrete" tableValues="1 1 1 1 1 1 1 1 1 1 1 1 1 1 1 1 1 1 1 1 1 1 1 1 1 1 1 1 1 1 1 1 1 1 1 1 1 1 1 1 1 1 1 1 1 1 1 1 1 1 1 0 0 0 0 0 0 0 0 0 0 0 0 0 0 0 0 0 0 0 0 0 0 0 0 0 0 0 0 0 0 0 0 0 0 0 0 0 0 0 0 0 0 0 0 0 0 0 0 0 "/>
</feComponentTransfer>
<feComposite operator="in" in2="shape" in="coloredNoise1" result="noise1Clipped" />
<feFlood flood-color="rgba(255, 149, 149, 0.13)" result="color1Flood" />
<feComposite operator="in" in2="noise1Clipped" in="color1Flood" result="color1" />
<feMerge result="effect1_noise_1135_172">
<feMergeNode in="shape" />
<feMergeNode in="color1" />
</feMerge>
</filter>
<linearGradient id="paint0_linear_1135_172" x1="162" y1="0" x2="162" y2="219" gradientUnits="userSpaceOnUse">
<stop stop-color="#E39698"/>
<stop offset="1" stop-color="#C96B72"/>
</linearGradient>
</defs>
</svg>
