<svg width="209" height="123" viewBox="0 0 209 123" fill="none" xmlns="http://www.w3.org/2000/svg">
<path d="M22.4517 23.0253C4.21402 19.9005 3.10872 36.566 4.83575 45.2894C-6.04471 46.4611 4.83575 66.3817 4.83575 67.9441C-2.93602 82.3962 35.9227 98.8014 35.9227 100.364C38.4097 113.488 56.9927 110.519 65.9734 107.395C67.2169 113.957 79.9625 119.243 86.1799 121.065C102.76 126.69 110.704 118.722 112.604 114.035C152.809 125.284 182.549 111.691 192.393 103.489C206.486 105.988 209.318 98.2806 208.973 94.1142C206.901 88.1771 200.165 88.5156 197.056 89.427C197.471 84.4273 188.939 80.5734 184.622 79.2714C209.906 73.6468 198.956 55.5752 190.321 47.2424C189.907 37.2431 176.677 36.3056 170.114 37.0868C178.404 33.3371 171.496 21.4629 167.006 15.9945C165.348 1.93294 140.755 4.14638 128.665 7.01079C128.665 -0.176185 122.793 0.891416 119.857 2.32359C103.278 -2.67607 101.896 1.54238 103.278 4.27657C98.7182 2.71417 91.7064 8.05234 88.7704 10.9167C68.4603 -2.20738 54.4021 8.83354 49.9118 15.9945C40.793 10.3699 27.8055 18.3381 22.4517 23.0253Z" fill="url(#paint0_linear_1138_196)"/>
<defs>
<linearGradient id="paint0_linear_1138_196" x1="204.985" y1="59.8778" x2="160.597" y2="149.914" gradientUnits="userSpaceOnUse">
<stop stop-color="#EBB9B0"/>
<stop offset="1" stop-color="#E5B4AD"/>
</linearGradient>
</defs>
</svg>
