<svg width="371" height="276" viewBox="0 0 371 276" fill="none" xmlns="http://www.w3.org/2000/svg">
<g filter="url(#filter0_n_1135_174)">
<path d="M282.245 134.482C333.318 173.262 354.391 204.329 358.543 215.014L371 232.997L349.2 276L342.972 266.618C342.972 199.064 294.183 160.805 269.788 150.119C259.822 147.617 222.037 139.173 204.389 135.263C196.292 130.885 181.292 131.354 174.804 132.136C170.444 137.14 153.264 140.997 145.219 142.3C143.351 147.304 131.465 154.289 125.755 157.156C123.264 156.53 113.298 158.98 108.627 160.283L107.848 158.72C109.717 156.843 120.046 155.331 124.977 154.81C131.205 152.934 138.991 145.167 142.105 141.518C137.745 139.642 124.198 140.215 117.97 140.737L116.413 139.173C121.395 137.922 138.212 138.13 145.998 138.391C155.34 138.391 165.462 131.615 169.354 128.227C163.126 124.474 130.427 123.535 114.855 123.535C101.153 121.659 89.9417 121.19 86.049 121.19C56.1524 129.321 3.89277 130.312 0 128.227C18.6853 130.729 74.3706 120.929 81.3776 117.28C54.5953 113.527 15.5381 97.585 14.5 95.5C38.7909 104.257 94.5 119.626 116.413 119.626C92.1217 110.244 83.9728 100.601 82.9347 96.9518C91.6545 106.96 114.596 115.717 124.977 118.844C143.662 117.593 157.676 118.844 162.347 119.626C171.067 123.379 185.185 124.839 191.154 125.099C188.04 123.848 169.095 111.025 160.012 104.771C141.326 101.643 131.465 94.085 128.869 90.6969C135.721 96.9518 150.929 100.601 157.676 101.643C149.579 97.2646 145.998 89.3938 145.219 86.0057C153.316 99.1411 181.811 115.456 195.047 121.972C208.126 130.729 247.729 135.524 265.895 136.827C250.324 113.684 228.784 93.3031 219.96 86.0057C205.315 81.6272 177.526 57.0765 165.462 45.3484C160.589 43.1736 135.762 35.3272 124.231 31.8007C122.351 31.3415 120.745 30.9006 119.527 30.4929C116.681 29.5403 119.181 30.2561 124.231 31.8007C133.888 34.1598 150.761 37.0027 159.233 38.3116L135.876 17.2011L163.126 38.3116C160.635 35.8096 152.226 16.4193 148.333 7.03683C170.756 52.698 202.832 71.4108 216.068 75.0595C192.4 45.0357 188.559 13.5524 189.597 1.56374C189.597 27.8346 215.549 68.2833 228.524 85.2238C219.182 48.945 220.479 13.2918 222.296 0C221.05 14.3864 225.929 48.2153 228.524 63.3314C232.884 98.9847 266.155 125.62 282.245 134.482Z" fill="url(#paint0_linear_1135_174)"/>
</g>
<defs>
<filter id="filter0_n_1135_174" x="0" y="0" width="371" height="276" filterUnits="userSpaceOnUse" color-interpolation-filters="sRGB">
<feFlood flood-opacity="0" result="BackgroundImageFix"/>
<feBlend mode="normal" in="SourceGraphic" in2="BackgroundImageFix" result="shape"/>
<feTurbulence type="fractalNoise" baseFrequency="10 10" stitchTiles="stitch" numOctaves="3" result="noise" seed="6985" />
<feColorMatrix in="noise" type="luminanceToAlpha" result="alphaNoise" />
<feComponentTransfer in="alphaNoise" result="coloredNoise1">
<feFuncA type="discrete" tableValues="1 1 1 1 1 1 1 1 1 1 1 1 1 1 1 1 1 1 1 1 1 1 1 1 1 1 1 1 1 1 1 1 1 1 1 1 1 1 1 1 1 1 1 1 1 1 1 1 1 1 1 0 0 0 0 0 0 0 0 0 0 0 0 0 0 0 0 0 0 0 0 0 0 0 0 0 0 0 0 0 0 0 0 0 0 0 0 0 0 0 0 0 0 0 0 0 0 0 0 0 "/>
</feComponentTransfer>
<feComposite operator="in" in2="shape" in="coloredNoise1" result="noise1Clipped" />
<feFlood flood-color="rgba(113, 25, 25, 0.24)" result="color1Flood" />
<feComposite operator="in" in2="noise1Clipped" in="color1Flood" result="color1" />
<feMerge result="effect1_noise_1135_174">
<feMergeNode in="shape" />
<feMergeNode in="color1" />
</feMerge>
</filter>
<linearGradient id="paint0_linear_1135_174" x1="204" y1="-6.47402e-05" x2="358.748" y2="267.613" gradientUnits="userSpaceOnUse">
<stop stop-color="#AC5052"/>
<stop offset="0.5" stop-color="#8C726D"/>
<stop offset="1" stop-color="#42312E"/>
</linearGradient>
</defs>
</svg>
