<svg width="312" height="157" viewBox="0 0 312 157" fill="none" xmlns="http://www.w3.org/2000/svg">
<g filter="url(#filter0_n_1135_181)">
<path d="M109.998 28.0567C109.393 24.7105 110.362 18.1727 119.082 18.7904C115.942 17.9636 110.605 15.4371 114.373 11.9457C116.264 10.1082 120.811 8.33957 123.868 15.9653C124.023 14.2427 125.211 11.027 128.732 11.9457C126.068 10.4145 121.668 6.27234 125.374 1.95413C127.381 0.7674 131.673 -0.756201 132.785 2.64324C135.216 1.60962 140.451 0.782719 141.933 5.74406C144.789 2.4518 152.494 -2.91535 160.461 1.95413C165.98 1.45647 177.321 3.6998 178.525 16.6544C180.069 16.5013 183.643 17.0679 185.589 20.5592C187.557 17.9177 192.537 13.5766 196.706 17.3435C205.043 19.3725 220.097 26.8528 213.612 40.5424C216.353 41.0784 220.745 43.5514 216.391 49.1559C217.897 49.2707 221.209 50.2125 222.413 53.0606C224.999 49.9981 231.445 44.9295 236.54 49.1559C238.393 45.0214 243.928 38.2225 251.247 44.1027C257.905 41.9228 271.221 41.7812 271.221 58.654C272.087 58.9274 273.702 60.1772 273.229 62.9893C276.34 60.6459 283.2 58.1853 285.752 67.0904C287.761 69.2385 290.1 74.6362 283.389 79.0419C284.531 78.6904 286.981 78.5498 287.643 80.7995C291.672 77.7193 301.015 75.217 306.157 89.8497C307.926 92.6211 309.901 99.106 303.642 102.875C308.299 106.016 315.993 113.628 309.51 118.949C310.163 122.658 309.485 129.459 301.554 126.983C300.883 130.66 297.609 136.156 289.879 128.73C290.14 131.95 289.207 137.806 283.389 135.465C281.544 135.537 278.026 134.29 278.721 128.73C277.332 128.217 274.017 126.368 271.865 123.071C272.212 125.653 271.535 130.834 266.05 130.903C269.666 132.252 275.892 136.291 271.865 141.662C278.113 142.838 289.256 147.136 283.841 154.917C279.531 155.835 270.511 155.451 268.914 146.568C268.075 147.63 266.085 149.546 264.835 148.72C265.819 151.847 266.241 157.861 260.062 156.897C258.153 157.011 254.213 156.552 253.727 153.798C250.776 155.663 244.961 157.258 245.308 148.72C242.792 151.876 236.751 156.535 232.725 149.925C232.493 148.662 233.089 145.638 237.324 143.642C234.865 143.785 229.739 143.022 228.906 138.822C227.691 143.154 222.831 150.08 213.111 143.125C210.363 141.978 205.04 138.271 205.734 132.624C203.941 139.281 197.386 150.992 185.513 144.588C184.096 143.871 181.296 141.455 181.434 137.531C180.827 137.531 173.277 146.654 172.062 133.657C169.632 135.78 163.123 138.408 156.527 131.936C153.548 130.444 149.046 125.825 154.878 119.283C152.492 120.83 147.028 122.82 144.265 118.406C142.954 117.518 141.54 114.39 146.375 108.986C140.683 113.934 128.608 119.871 125.845 104.038C125.173 106.607 122.698 111.327 118.17 109.652C119.193 112.285 119.551 117.53 112.798 117.454C113.661 120.873 113.392 128.133 105.41 129.823C104.131 131.219 100.767 132.354 97.5435 125.732C97.8694 128.69 95.8849 134.072 85.3406 131.936C82.6369 134.367 76.5291 136.835 73.7271 127.255C74.7103 132.405 73.8745 142.393 62.6665 141.15C59.9628 141.515 53.9839 140.839 51.698 135.208C50.8044 139.23 47.1473 146.505 39.6681 143.429C37.899 147.507 33.0532 153.815 27.8222 146.426C26.8315 144.821 25.4444 140.747 27.8222 137.288C24.4537 137.811 18.0337 137.954 19.3018 134.341C18.5093 134.897 16.6072 135.677 15.339 134.341C14.8436 136.702 12.2875 140.009 6.02614 134.341C3.54929 131.753 1.17148 125.831 11.475 122.844C11.9699 120.942 13.6586 117.259 16.6062 116.8C10.0256 117.245 -1.58585 116.126 0.180636 108.204C-0.14961 105.453 1.34968 100.285 9.9888 101.621C9.3711 97.9119 10.3161 90.3986 18.8961 89.5689C17.0484 89.644 14.1298 88.7318 14.6452 84.4257C14.6452 83.5414 2.75651 85.8013 3.74723 76.2704C4.27562 73.5847 6.8383 68.2526 12.8619 68.4098C12.8619 67.9185 11.0786 60.8439 23.0664 62.7108C20.6556 61.499 16.7059 57.6604 20.1933 52.0008C20.7547 51.0837 23.1258 49.6622 28.1191 51.313C27.987 49.1513 28.872 45.1031 33.469 46.2036C34.5588 46.2363 36.7978 46.8717 37.0356 49.1513C38.2245 48.66 40.7211 47.9722 41.1966 49.1513C41.6722 50.3304 41.725 49.6426 41.692 49.1513C40.8994 45.0245 41.5335 35.9848 50.4104 32.8406C53.7128 32.0873 60.278 31.9955 60.1195 37.6552C64.1484 36.9674 73.3754 37.7141 78.0516 46.2036C79.3726 43.9764 83.4015 39.6203 88.9496 40.0134C85.7132 38.343 80.2114 33.2729 84.095 26.3556C85.5151 23.3423 90.079 18.2199 96.9744 21.8357C100.178 21.0701 106.149 21.2425 104.405 28.0567C105.789 27.4446 108.846 26.5877 109.998 28.0567Z" fill="url(#paint0_linear_1135_181)"/>
<path d="M291.398 138.822C288.587 138.736 283.657 139.478 286.423 143.125C289.524 144.737 294.862 146.132 291.398 138.822Z" fill="url(#paint1_linear_1135_181)"/>
</g>
<defs>
<filter id="filter0_n_1135_181" x="0" y="0" width="312" height="157" filterUnits="userSpaceOnUse" color-interpolation-filters="sRGB">
<feFlood flood-opacity="0" result="BackgroundImageFix"/>
<feBlend mode="normal" in="SourceGraphic" in2="BackgroundImageFix" result="shape"/>
<feTurbulence type="fractalNoise" baseFrequency="2 2" stitchTiles="stitch" numOctaves="3" result="noise" seed="6047" />
<feColorMatrix in="noise" type="luminanceToAlpha" result="alphaNoise" />
<feComponentTransfer in="alphaNoise" result="coloredNoise1">
<feFuncA type="discrete" tableValues="1 1 1 1 1 1 1 1 1 1 1 1 1 1 1 1 1 1 1 1 1 1 1 1 1 1 1 1 1 1 1 1 1 1 1 1 1 1 1 1 1 1 1 1 1 1 1 1 1 1 1 0 0 0 0 0 0 0 0 0 0 0 0 0 0 0 0 0 0 0 0 0 0 0 0 0 0 0 0 0 0 0 0 0 0 0 0 0 0 0 0 0 0 0 0 0 0 0 0 0 "/>
</feComponentTransfer>
<feComposite operator="in" in2="shape" in="coloredNoise1" result="noise1Clipped" />
<feFlood flood-color="rgba(226, 89, 89, 0.16)" result="color1Flood" />
<feComposite operator="in" in2="noise1Clipped" in="color1Flood" result="color1" />
<feMerge result="effect1_noise_1135_181">
<feMergeNode in="shape" />
<feMergeNode in="color1" />
</feMerge>
</filter>
<linearGradient id="paint0_linear_1135_181" x1="31" y1="-12.5" x2="155.939" y2="168.042" gradientUnits="userSpaceOnUse">
<stop stop-color="#EBAEA8"/>
<stop offset="1" stop-color="#F5DCD1"/>
</linearGradient>
<linearGradient id="paint1_linear_1135_181" x1="31" y1="-12.5" x2="155.939" y2="168.042" gradientUnits="userSpaceOnUse">
<stop stop-color="#EBAEA8"/>
<stop offset="1" stop-color="#F5DCD1"/>
</linearGradient>
</defs>
</svg>
