<svg width="414" height="183" viewBox="0 0 414 183" fill="none" xmlns="http://www.w3.org/2000/svg">
<path d="M96.8922 34.7924C102.202 23.5872 95.8592 11.5777 92.024 6.97362C82.2434 -9.59441 64.3127 7.20822 56.57 17.6805C50.8626 28.8403 62.0763 29.6699 68.3965 28.6898C67.1908 32.1866 69.9876 35.3087 71.5368 36.4327C63.6008 31.8891 59.008 41.8134 57.7036 47.3435C60.7433 48.6381 64.8001 50.4278 56.71 47.2297C48.6199 44.0316 47.8461 52.8408 48.4704 57.6451C51.072 66.5758 56.0933 62.8722 58.2788 59.9041C56.6355 74.2554 63.7368 73.7811 67.4928 71.7501C85.4036 80.6163 87.6295 64.4008 86.5036 55.1848C93.4146 54.6131 95.4531 48.8262 95.6084 46.0043C100.724 47.0444 103.884 42.5977 104.825 40.2443C106.428 36.793 100.204 35.1717 96.8922 34.7924Z" fill="url(#paint0_linear_1138_191)"/>
<path d="M27.1038 72.8048C25.5026 62.1713 10.6345 62.7785 3.4006 64.4113C-1.63916 69.7408 0.0168854 77.8438 1.47488 81.2291C3.871 91.9537 10.4432 92.2897 13.4298 91.1172C15.9153 104.578 26.0583 98.0533 30.8191 93.1083C36.3077 87.3758 34.3471 79.8816 32.6807 76.8511C41.233 76.0129 40.2094 68.2474 38.6286 64.4694C33.026 60.6474 28.611 68.4339 27.1038 72.8048Z" fill="url(#paint1_linear_1138_191)"/>
<path d="M8.55665 98.5104C5.1203 100.389 7.89342 104.303 9.70952 106.026C12.5298 109.529 14.6137 107.155 15.3031 105.53C17.2658 98.9397 11.6233 98.1043 8.55665 98.5104Z" fill="url(#paint2_linear_1138_191)"/>
<path d="M34.7106 116.272C38.1092 111.209 34.3644 109.038 32.0672 108.586C26.0918 111.536 27.7819 113.775 29.3738 114.525C32.1427 118.477 34.0854 117.336 34.7106 116.272Z" fill="url(#paint3_linear_1138_191)"/>
<path d="M79.0769 98.0661C82.27 94.7969 79.3503 91.2821 77.4914 89.9334C73.9655 89.0753 72.6989 92.2243 72.5063 93.9061C73.3259 100.815 77.2282 99.5583 79.0769 98.0661Z" fill="url(#paint4_linear_1138_191)"/>
<path d="M71.3175 113.08C76.0758 103.175 69.0592 102.031 64.9561 102.697C60.5706 105.829 61.8244 109.532 62.9994 110.992C65.1522 120.325 69.4418 116.273 71.3175 113.08Z" fill="url(#paint5_linear_1138_191)"/>
<path d="M54.3441 116.248C46.0999 114.395 46.5807 121.039 47.8516 124.592C49.3895 128.743 54.4866 128.191 57.7411 121.749C60.3447 116.594 56.5612 115.934 54.3441 116.248Z" fill="url(#paint6_linear_1138_191)"/>
<path d="M47.4023 128.516C44.9413 121.873 39.9665 123.121 37.7867 124.575C32.7336 133.538 36.8554 135.638 39.5479 135.568C45.2017 138.941 47.1399 132.272 47.4023 128.516Z" fill="url(#paint7_linear_1138_191)"/>
<path d="M51.5839 140.354C47.1871 133.035 45.5204 139.091 45.2367 143.035C44.5312 145.68 48.2439 147.544 50.1884 148.145C53.471 147.612 52.4865 142.729 51.5839 140.354Z" fill="url(#paint8_linear_1138_191)"/>
<path d="M40.9885 149.363C41.1046 144.833 37.7358 144.069 36.0368 144.253C34.1523 143.128 33.9156 146.66 34.0328 148.567C34.609 154.085 38.91 151.397 40.9885 149.363Z" fill="url(#paint9_linear_1138_191)"/>
<path d="M43.3751 159.292C44.4536 149.874 47.7247 153.542 49.2255 156.554C50.4826 152.609 53.6068 153.459 55.0117 154.377C60.8198 156.405 57.3239 162.025 54.8499 164.581C52.1056 167.448 48.7381 165.207 47.3974 163.728C44.4096 165.203 43.471 161.385 43.3751 159.292Z" fill="url(#paint10_linear_1138_191)"/>
<path d="M169.397 52.1817C159.782 44.7197 160.179 35.9809 161.579 32.5443C180.097 11.4925 322.293 15.1663 391.076 19.6346C416.706 24.3868 415.71 90.2301 412.009 122.558C409.021 124.033 406.255 121.52 405.245 120.079C399.77 122.179 399.226 112.575 399.638 107.511C399.124 111.995 394.23 113.707 391.847 114.002C393.801 123.313 388.144 124.369 387.647 124.312C382.915 126.95 380.515 120.655 379.907 117.178C378.444 122.917 372.864 122.998 370.257 122.321C369.346 126.76 366.64 126.071 365.401 125.172C361.913 127.499 360.23 123.444 359.824 121.126C353.862 120.443 353.847 113.248 354.585 109.735C351.07 119.328 345.202 115.476 342.708 112.351C336.746 111.668 339.221 103.243 341.203 99.1157C333.343 100.942 336.626 93.6693 339.249 89.8048C332.903 85.4433 337.141 77.4472 340.053 73.9944C329.5 72.7861 326.497 63.9 326.223 56.7896C324.917 59.5441 321.644 59.6545 319.604 59.1581C318.001 62.6094 311.061 61.9662 307.792 61.2132C307.765 68.4799 298.858 68.8988 294.408 68.1999C298.126 70.8974 295.304 77.9576 293.429 81.1505C305.737 86.1947 308.524 98.7814 308.379 104.444C324.74 102.228 325.014 114.49 323.105 120.897C332.426 127.417 327.041 131.949 323.184 133.401C325.606 136.859 322.515 140.708 320.666 142.2C333.731 144.15 323.886 150.709 317.331 153.745C309.54 160.236 302.347 139.534 304.43 147.724C306.096 154.276 301.575 157.999 299.107 159.041C294.297 169.395 289.613 161.362 287.872 156.051C276.14 156.525 280.57 148.021 284.252 143.71C282.624 140.343 283.051 138.082 283.467 137.372C249.988 144.898 251.592 115.359 256.579 99.6488C250.809 100.806 248.118 91.486 247.493 86.6816C248.492 99.0635 243.485 101.178 240.856 100.688C234.883 103.953 234.217 94.9578 234.759 88.143C233.485 94.148 228.731 93.4826 226.224 92.1974C219.916 91.0208 221.236 80.0781 222.685 74.7538C220.133 79.4595 215.659 76.0318 213.742 73.7298C212.239 90.3689 196.274 98.8016 188.479 100.938C184.348 115.913 164.426 108.786 154.981 103.35C147.89 112.534 141.759 106.001 139.579 101.586C137.463 109.522 130.117 106.561 126.709 104.088C129.132 107.546 127.034 111.509 125.682 113.058C127.448 114.91 128.553 116.698 129.157 118.391L132.253 117.218C135.656 115.336 142.27 113.253 141.5 119.98C141.672 123.218 139.247 129.15 128.174 126.974C126.909 129.032 125.094 130.616 123.564 131.557C121.614 134.515 118.114 132.259 116.608 130.761C116.633 137.579 112.995 138.866 111.174 138.658C106.545 140.4 105.421 131.752 105.438 127.21C100.809 128.952 97.6863 123.104 96.7037 119.963C95.4353 113.456 103.068 112.74 107.042 113.195C105.312 110.725 108.619 106.75 110.489 105.071C106.566 104.167 105.137 101.997 104.912 101.024C105.591 105.646 102.235 108.29 100.472 109.035C92.0601 112.161 91.4439 102.89 92.1872 97.8635C85.2002 92.0655 91.7991 85.135 95.9719 82.3944C95.255 74.5883 102.523 75.004 106.246 76.1876C110.263 51.658 136.524 59.3979 149.153 66.334C149.574 69.9793 150.463 75.1168 150.643 66.5047C150.824 57.8926 159.47 59.7535 163.77 61.7604C161.015 54.1752 166.374 52.2141 169.397 52.1817Z" fill="url(#paint11_linear_1138_191)"/>
<path d="M101.254 132.978C101.767 128.494 98.4549 128.114 96.7345 128.485C95.2149 128.569 96.4136 131.288 96.2852 132.409C96.8747 134.294 99.8431 133.574 101.254 132.978Z" fill="url(#paint12_linear_1138_191)"/>
<path d="M171.16 164.269C172.917 159.472 166.701 154.86 163.372 153.154C152.743 151.028 156.891 158.47 160.294 162.457C160.216 170.172 162.943 168.629 164.316 166.893C167.969 173.672 170.401 167.968 171.16 164.269Z" fill="url(#paint13_linear_1138_191)"/>
<path d="M168.151 137.799C169.594 133.988 163.696 132.745 162.27 132.014C159.872 135.374 161.505 137.227 162.621 137.733C163.955 140.158 166.863 138.787 168.151 137.799Z" fill="url(#paint14_linear_1138_191)"/>
<path d="M153.343 126.448C153.651 123.757 149.957 123.788 148.071 124.14C146.173 126.649 147.269 128.214 148.054 128.682C149.887 130.255 152.344 127.848 153.343 126.448Z" fill="url(#paint15_linear_1138_191)"/>
<path d="M389.344 135.865C391.409 128.377 387.652 128.667 385.514 129.747C383.452 130.175 382.902 133.511 382.885 135.125C385 141.274 388.072 138.18 389.344 135.865Z" fill="url(#paint16_linear_1138_191)"/>
<path d="M361.697 135.539C363.916 126.706 360.731 127.856 358.861 129.535C357.982 130.175 356.828 132.64 356.36 133.792C356.731 141.104 360.072 138.003 361.697 135.539Z" fill="url(#paint17_linear_1138_191)"/>
<path d="M336.327 124.115C327.764 114.502 334.683 115.029 339.213 116.494C347.612 117.001 344.635 123.362 342.097 126.479C337.955 131.003 336.525 126.788 336.327 124.115Z" fill="url(#paint18_linear_1138_191)"/>
<path d="M306.191 158.716C313.167 154.063 314.098 160 313.691 163.551C318.012 164.5 316.217 169.33 314.78 171.627C312.728 175.481 308.294 172.588 306.334 170.66C297.346 168.267 302.494 161.701 306.191 158.716Z" fill="url(#paint19_linear_1138_191)"/>
<path d="M271.379 163.817C264.43 161.204 269.083 157.496 272.278 155.969C279.343 154.052 278.191 158.539 276.733 161.023C276.27 165.059 272.971 164.568 271.379 163.817Z" fill="url(#paint20_linear_1138_191)"/>
<path d="M254.163 182.292C262.856 183.742 262.007 172.399 260.496 166.547C258.176 162.192 254.838 167.603 253.459 170.853C246.573 178.243 251.059 181.558 254.163 182.292Z" fill="url(#paint21_linear_1138_191)"/>
<defs>
<linearGradient id="paint0_linear_1138_191" x1="217.217" y1="-0.273035" x2="196.285" y2="182.532" gradientUnits="userSpaceOnUse">
<stop stop-color="#D98587"/>
<stop offset="1" stop-color="#EEC3BF"/>
</linearGradient>
<linearGradient id="paint1_linear_1138_191" x1="217.217" y1="-0.273035" x2="196.285" y2="182.532" gradientUnits="userSpaceOnUse">
<stop stop-color="#D98587"/>
<stop offset="1" stop-color="#EEC3BF"/>
</linearGradient>
<linearGradient id="paint2_linear_1138_191" x1="217.217" y1="-0.273035" x2="196.285" y2="182.532" gradientUnits="userSpaceOnUse">
<stop stop-color="#D98587"/>
<stop offset="1" stop-color="#EEC3BF"/>
</linearGradient>
<linearGradient id="paint3_linear_1138_191" x1="217.217" y1="-0.273035" x2="196.285" y2="182.532" gradientUnits="userSpaceOnUse">
<stop stop-color="#D98587"/>
<stop offset="1" stop-color="#EEC3BF"/>
</linearGradient>
<linearGradient id="paint4_linear_1138_191" x1="217.217" y1="-0.273035" x2="196.285" y2="182.532" gradientUnits="userSpaceOnUse">
<stop stop-color="#D98587"/>
<stop offset="1" stop-color="#EEC3BF"/>
</linearGradient>
<linearGradient id="paint5_linear_1138_191" x1="217.217" y1="-0.273035" x2="196.285" y2="182.532" gradientUnits="userSpaceOnUse">
<stop stop-color="#D98587"/>
<stop offset="1" stop-color="#EEC3BF"/>
</linearGradient>
<linearGradient id="paint6_linear_1138_191" x1="217.217" y1="-0.273035" x2="196.285" y2="182.532" gradientUnits="userSpaceOnUse">
<stop stop-color="#D98587"/>
<stop offset="1" stop-color="#EEC3BF"/>
</linearGradient>
<linearGradient id="paint7_linear_1138_191" x1="217.217" y1="-0.273035" x2="196.285" y2="182.532" gradientUnits="userSpaceOnUse">
<stop stop-color="#D98587"/>
<stop offset="1" stop-color="#EEC3BF"/>
</linearGradient>
<linearGradient id="paint8_linear_1138_191" x1="217.217" y1="-0.273035" x2="196.285" y2="182.532" gradientUnits="userSpaceOnUse">
<stop stop-color="#D98587"/>
<stop offset="1" stop-color="#EEC3BF"/>
</linearGradient>
<linearGradient id="paint9_linear_1138_191" x1="217.217" y1="-0.273035" x2="196.285" y2="182.532" gradientUnits="userSpaceOnUse">
<stop stop-color="#D98587"/>
<stop offset="1" stop-color="#EEC3BF"/>
</linearGradient>
<linearGradient id="paint10_linear_1138_191" x1="217.217" y1="-0.273035" x2="196.285" y2="182.532" gradientUnits="userSpaceOnUse">
<stop stop-color="#D98587"/>
<stop offset="1" stop-color="#EEC3BF"/>
</linearGradient>
<linearGradient id="paint11_linear_1138_191" x1="217.217" y1="-0.273035" x2="196.285" y2="182.532" gradientUnits="userSpaceOnUse">
<stop stop-color="#D98587"/>
<stop offset="1" stop-color="#EEC3BF"/>
</linearGradient>
<linearGradient id="paint12_linear_1138_191" x1="217.217" y1="-0.273035" x2="196.285" y2="182.532" gradientUnits="userSpaceOnUse">
<stop stop-color="#D98587"/>
<stop offset="1" stop-color="#EEC3BF"/>
</linearGradient>
<linearGradient id="paint13_linear_1138_191" x1="217.217" y1="-0.273035" x2="196.285" y2="182.532" gradientUnits="userSpaceOnUse">
<stop stop-color="#D98587"/>
<stop offset="1" stop-color="#EEC3BF"/>
</linearGradient>
<linearGradient id="paint14_linear_1138_191" x1="217.217" y1="-0.273035" x2="196.285" y2="182.532" gradientUnits="userSpaceOnUse">
<stop stop-color="#D98587"/>
<stop offset="1" stop-color="#EEC3BF"/>
</linearGradient>
<linearGradient id="paint15_linear_1138_191" x1="217.217" y1="-0.273035" x2="196.285" y2="182.532" gradientUnits="userSpaceOnUse">
<stop stop-color="#D98587"/>
<stop offset="1" stop-color="#EEC3BF"/>
</linearGradient>
<linearGradient id="paint16_linear_1138_191" x1="217.217" y1="-0.273035" x2="196.285" y2="182.532" gradientUnits="userSpaceOnUse">
<stop stop-color="#D98587"/>
<stop offset="1" stop-color="#EEC3BF"/>
</linearGradient>
<linearGradient id="paint17_linear_1138_191" x1="217.217" y1="-0.273035" x2="196.285" y2="182.532" gradientUnits="userSpaceOnUse">
<stop stop-color="#D98587"/>
<stop offset="1" stop-color="#EEC3BF"/>
</linearGradient>
<linearGradient id="paint18_linear_1138_191" x1="217.217" y1="-0.273035" x2="196.285" y2="182.532" gradientUnits="userSpaceOnUse">
<stop stop-color="#D98587"/>
<stop offset="1" stop-color="#EEC3BF"/>
</linearGradient>
<linearGradient id="paint19_linear_1138_191" x1="217.217" y1="-0.273035" x2="196.285" y2="182.532" gradientUnits="userSpaceOnUse">
<stop stop-color="#D98587"/>
<stop offset="1" stop-color="#EEC3BF"/>
</linearGradient>
<linearGradient id="paint20_linear_1138_191" x1="217.217" y1="-0.273035" x2="196.285" y2="182.532" gradientUnits="userSpaceOnUse">
<stop stop-color="#D98587"/>
<stop offset="1" stop-color="#EEC3BF"/>
</linearGradient>
<linearGradient id="paint21_linear_1138_191" x1="217.217" y1="-0.273035" x2="196.285" y2="182.532" gradientUnits="userSpaceOnUse">
<stop stop-color="#D98587"/>
<stop offset="1" stop-color="#EEC3BF"/>
</linearGradient>
</defs>
</svg>
