<svg width="147" height="126" viewBox="0 0 147 126" fill="none" xmlns="http://www.w3.org/2000/svg">
<path d="M41.8027 31.8435C44.5468 31.0039 50.8815 30.3262 54.2676 34.3318C54.9111 30.3538 57.9264 22.9853 64.8394 25.3356C67.0201 17.9464 74.6776 6.40874 87.8626 19.3721C89.5947 15.4211 94.2266 8.7463 98.8975 13.6552C99.985 6.42037 104.719 -5.80721 114.953 3.16138C114.912 4.7943 114.366 9.24677 112.505 13.9934C115.952 14.0791 123.22 16.765 124.713 26.8235C124.771 27.2109 124.825 27.5758 124.875 27.9191C128.22 28.0803 135.131 30.3977 137.492 38.5786C144.692 48.3795 154.118 75.2649 134.223 104.399C116.458 117.937 72.3677 138.808 38.1273 113.993C26.0117 112.058 1.63047 105.461 1.03011 94.5534C-1.84346 78.6873 -0.427406 48.0047 28.2254 52.2025C26.8776 47.9934 25.4883 39.6077 30.7136 39.7375C32.3465 39.7781 27.2689 24.9466 41.8027 31.8435Z" fill="url(#paint0_linear_1135_173)"/>
<defs>
<linearGradient id="paint0_linear_1135_173" x1="0.534891" y1="60.5211" x2="146.259" y2="64.1425" gradientUnits="userSpaceOnUse">
<stop stop-color="#E1BBB6"/>
<stop offset="1" stop-color="#CD6765"/>
</linearGradient>
</defs>
</svg>
