<svg width="249" height="154" viewBox="0 0 249 154" fill="none" xmlns="http://www.w3.org/2000/svg">
<path d="M187.624 50.3365C191.57 51.4555 197.801 55.4076 199.217 64.8831C203.024 65.3748 209.325 68.592 204.075 77.5272C205.645 78.9881 208.669 83.1823 208.213 88.272C213.063 85.0674 223.848 82.2492 228.184 96.6134C235.317 93.7387 248.927 91.6934 246.302 106.51C251.49 116.602 252.749 138.321 216.274 144.46C207.003 151.659 182.38 161.738 158.064 144.46C154.336 148.628 144.3 155.259 133.977 148.438C129.103 152.038 117.403 156.282 109.604 144.46C105.303 149.859 95.1516 156.623 88.9579 140.481C82.3626 147.491 66.19 156.452 54.2613 136.219C50.6292 132.903 45.5442 125.647 54.2613 123.146C36.7696 121.346 11.1343 110.529 48.5262 81.6557C26.5432 79.2205 -13.0821 66.8636 4.28153 36.9169C7.38216 36.9169 19.5647 -0.795881 54.2613 31.3298C50.5677 22.4836 48.9872 6.13203 72.2139 11.4956C75.5964 11.4956 93.0728 -12.8082 118.724 9.2608C125.395 4.41865 142.289 -2.36035 156.495 9.2608C162.133 10.8438 174.141 16.8592 177.072 28.2569C182.146 23.3216 196.127 15.239 211.461 22.3905C215.259 24.1616 217.65 24.3368 217.65 36.7601C218.477 43.4316 212.508 55.4062 187.624 50.3365Z" fill="url(#paint0_linear_1135_168)"/>
<defs>
<linearGradient id="paint0_linear_1135_168" x1="124.5" y1="0" x2="124.5" y2="154" gradientUnits="userSpaceOnUse">
<stop stop-color="#D67A78"/>
<stop offset="1" stop-color="#D78583"/>
</linearGradient>
</defs>
</svg>
