<svg width="380" height="219" viewBox="0 0 380 219" fill="none" xmlns="http://www.w3.org/2000/svg">
<path d="M161.64 59.9768C165.04 55.9773 172.37 48.8353 174.485 52.2635C180.026 50.6922 191.486 49.4352 192.997 56.9772C192.907 53.5653 193.196 47.1331 195.075 48.7C195.075 48.0732 185.06 35.6168 200.738 27.6259C205.849 20.8623 217.246 11.3933 221.943 27.6259C228.398 19.8343 242.353 8.54672 257.597 9.35747C258.147 4.37849 262 -3.74618 273.008 3.58703C279.98 3.39606 293.044 5.42033 289.521 15.0452C289.871 16.3187 289.854 19.1175 287.186 20.5684C294.215 25.1783 300.441 33.8039 299.291 48.7C302.077 45.4404 308.95 40.2556 314.152 45.5924C313.529 42.3717 312.962 36.5726 315.669 39.1422C317.382 32.8643 323.316 24.4523 333.347 41.0273C337.578 40.325 345.823 41.238 344.957 50.5087C346.239 50.0407 348.858 49.6719 349.071 51.9411C353.487 45.7652 364.235 38.0242 371.897 56.4675C374.451 60.8731 376.888 70.7224 366.204 74.8746C373.438 75.4644 384.023 81.1504 368.489 99.1756C372.259 99.6972 379.745 102.931 379.524 111.693C380.23 114.151 379.959 118.912 373.231 118.293C375.504 125.254 376.777 138.764 363.684 137.114C361.351 139.846 356.386 144.121 355.072 139.529C358.33 151.331 359.9 174.184 340.271 171.921C341.607 182.565 340.661 202.102 326.188 195.096C321.996 206.273 307.523 225.275 283.166 211.862C269.635 219.619 240.63 227.627 232.864 197.598C228.658 199.631 218.746 200.997 212.753 190.202C206.732 199.864 188.079 216.291 161.64 204.696C152.534 214.291 127.975 226.306 102.595 197.598C100.244 203.729 92.548 212.312 80.5627 197.598C78.8002 202.13 72.9837 209.094 63.8185 200.697C57.6517 204.945 44.0991 208.792 39.2233 190.202C36.0121 191.747 28.9213 192.921 26.2475 185.25C25.4611 181.905 26.6801 175.616 37.8473 177.222C35.6067 175.174 32.7631 169.936 38.2751 164.677C33.2121 168.963 24.057 174.047 21.4899 165.162C20.8421 161.647 21.5143 154.715 29.3849 155.113C27.238 154.29 23.2746 151.173 24.5959 145.295C21.9899 144.205 16.9697 141.56 16.4576 139.235C17.0377 146.461 15.6842 158.374 5.72863 151.541C0.762125 148.357 -5.5432 140.427 8.96752 134.182C7.69896 130.539 7.5425 122.15 17.0652 117.741C19.6928 116.486 26.2381 114.545 31.3977 116.823C30.534 115.415 29.3248 111.863 31.3977 108.924C26.2423 104.668 17.8749 93.7143 25.6485 83.9418C29.5353 79.9924 38.0539 78.7616 41.0338 105.434C42.0055 103.138 45.4064 98.7842 51.2366 99.7394C51.7225 99.7394 57.3097 90.5547 62.4112 100.382C63.2479 99.3414 65.2615 97.8841 66.6219 100.382C66.4329 94.8103 68.6462 84.7317 79.011 88.9933C79.0498 87.3613 80.1766 83.0787 84.3743 79.0052C79.0883 79.6004 68.8779 78.2778 70.3238 68.2263C71.3732 63.0463 75.5592 54.7493 83.9079 63.0022C85.2294 64.7215 87.9306 68.795 88.1638 71.3343C89.4465 70.144 92.3382 68.1734 93.6441 69.8134C91.4881 63.0753 90.451 51.0748 103.551 56.9772C104.383 56.9772 111.876 41.6615 121.313 50.8192C121.821 49.9272 123.311 48.6786 125.198 50.8192C131.072 43.2117 145.069 32.5612 154.061 50.8192C156.588 50.0859 161.64 50.8908 161.64 59.9768Z" fill="url(#paint0_linear_1135_165)"/>
<path d="M125.198 37.2252C120.748 29.4586 115.979 36.9084 114.151 41.6041C114.151 44.4827 117.762 44.2745 119.568 43.8106C125.649 43.0502 125.855 39.1035 125.198 37.2252Z" fill="url(#paint1_linear_1135_165)"/>
<path d="M111.397 39.5159C106.631 26.7041 102.416 34.8143 100.905 40.4709C98.7888 45.9365 103.564 47.4988 106.216 47.5968C110.465 46.3038 111.441 41.6708 111.397 39.5159Z" fill="url(#paint2_linear_1135_165)"/>
<path d="M94.1694 48.4048C93.2367 36.727 86.6564 38.6906 83.4829 41.1321C79.7381 44.8346 83.3042 50.5108 85.5554 52.886C91.9285 58.4692 93.9535 52.2249 94.1694 48.4048Z" fill="url(#paint3_linear_1135_165)"/>
<path d="M27.6664 110.693C23.9072 104.284 15.1311 93.715 10.1006 102.708C8.09913 106.946 8.81027 114.477 27.6664 110.693Z" fill="url(#paint4_linear_1135_165)"/>
<path d="M8.18678 167.055C5.9996 156.511 12.2878 157.958 15.7052 160C18.5265 165.282 16.8808 168.558 15.7052 169.536C14.0649 173.691 10.0094 169.613 8.18678 167.055Z" fill="url(#paint5_linear_1135_165)"/>
<path d="M202.555 0.149609C196.39 -1.22537 198.151 7.21546 199.803 11.6077C202.445 13.8994 205.307 10.6529 206.408 8.74319C209.05 4.15994 204.94 1.10445 202.555 0.149609Z" fill="url(#paint6_linear_1135_165)"/>
<defs>
<linearGradient id="paint0_linear_1135_165" x1="290.545" y1="170.688" x2="20.5133" y2="148.949" gradientUnits="userSpaceOnUse">
<stop stop-color="#EEC3BF"/>
<stop offset="1" stop-color="#E1A4A2"/>
</linearGradient>
<linearGradient id="paint1_linear_1135_165" x1="290.545" y1="170.688" x2="20.5133" y2="148.949" gradientUnits="userSpaceOnUse">
<stop stop-color="#EEC3BF"/>
<stop offset="1" stop-color="#E1A4A2"/>
</linearGradient>
<linearGradient id="paint2_linear_1135_165" x1="290.545" y1="170.688" x2="20.5133" y2="148.949" gradientUnits="userSpaceOnUse">
<stop stop-color="#EEC3BF"/>
<stop offset="1" stop-color="#E1A4A2"/>
</linearGradient>
<linearGradient id="paint3_linear_1135_165" x1="290.545" y1="170.688" x2="20.5133" y2="148.949" gradientUnits="userSpaceOnUse">
<stop stop-color="#EEC3BF"/>
<stop offset="1" stop-color="#E1A4A2"/>
</linearGradient>
<linearGradient id="paint4_linear_1135_165" x1="290.545" y1="170.688" x2="20.5133" y2="148.949" gradientUnits="userSpaceOnUse">
<stop stop-color="#EEC3BF"/>
<stop offset="1" stop-color="#E1A4A2"/>
</linearGradient>
<linearGradient id="paint5_linear_1135_165" x1="290.545" y1="170.688" x2="20.5133" y2="148.949" gradientUnits="userSpaceOnUse">
<stop stop-color="#EEC3BF"/>
<stop offset="1" stop-color="#E1A4A2"/>
</linearGradient>
<linearGradient id="paint6_linear_1135_165" x1="290.545" y1="170.688" x2="20.5133" y2="148.949" gradientUnits="userSpaceOnUse">
<stop stop-color="#EEC3BF"/>
<stop offset="1" stop-color="#E1A4A2"/>
</linearGradient>
</defs>
</svg>
