<svg width="281" height="244" viewBox="0 0 281 244" fill="none" xmlns="http://www.w3.org/2000/svg">
<g filter="url(#filter0_n_1135_164)">
<path d="M25.2373 147.15C7.53781 156.143 4.45377 130.913 5.12419 117.173C-8.99053 97.7339 9.37364 81.8183 20.3201 76.2904C13.1407 48.5264 33.211 39.2211 44.1436 38.039C44.1436 -4.31635 89.4939 -0.140523 112.169 7.24181C118.93 1.86992 129.742 8.04686 134.302 11.8068C142.955 0.653675 157.444 3.17641 163.606 5.83192C178.497 11.2679 179.118 22.4652 177.567 27.3844C180.183 26.8188 182.43 29.9631 183.226 31.606C181.717 24.9516 189.892 24.1471 194.168 24.5767C184.509 11.1742 193.833 5.7929 199.702 4.77753C210.166 2.52816 209.679 17.0398 208.128 24.5767C210.946 16.2306 216.764 16.8035 219.322 18.1332C226.465 25.3499 216.345 28.6381 210.392 29.38C213.511 33.129 213.854 34.695 213.636 35.0093C226.561 21.5252 237.259 24.3076 240.993 27.3844C252.367 39.5844 245.732 48.1189 240.993 50.8612C248.748 56.4796 248.389 62.5662 247.24 64.9072C260.509 62.3388 266.411 68.1177 267.704 71.3282C284.075 97.6545 258.51 113.545 243.681 118.199C247.152 119.354 245.816 123.043 244.714 124.744C254.054 121.279 257.492 125.032 258.043 127.342C258.456 133.733 252.153 134.561 248.95 134.176C249.777 135.639 249.295 136.903 248.95 137.352C257.051 136.043 256.252 144.378 254.84 148.709C245.83 160.721 237.329 154.109 234.204 149.302C229.292 154.958 220.844 150.811 217.234 148.031C221.6 155.72 217.689 159.125 215.187 159.867C208.911 161.519 206.594 155.169 206.221 151.788C199.433 154.453 193.19 149.807 190.916 147.15C190.485 151.692 181.674 152.561 177.323 152.427C163.169 154.276 160.421 145.895 160.817 141.473C157.451 154.417 145.821 147.804 140.426 142.88C143.361 156.628 129.278 158.122 121.87 157.15C122.474 158.758 120.971 159.897 120.144 160.265C128.343 159.22 130.681 165.994 130.825 169.511C131.774 165.331 135.176 167.3 136.758 168.808C140.439 172.157 136.713 174.794 134.336 175.719C136.064 175.088 137.475 177.589 138.149 179.393C137.432 176.116 142.486 173.153 145.281 172.024C142.951 168.727 145.605 167.032 147.223 166.597C152.833 164.748 153.085 169.444 152.51 172.024C175.489 187.299 148.949 195.339 147.223 196.612C162.759 200.847 162.759 205.299 160.817 206.996C155.724 213.348 147.763 207.901 144.418 204.383C140.88 217.086 133.881 209.676 130.825 204.383C118.224 210.6 114.714 203.423 114.534 199.057C112.635 200.087 111.369 198.28 110.974 197.248C106.4 202.394 101.3 198.968 99.3223 196.612C97.2341 200.551 91.0291 199.521 87.2891 198.224C88.1552 199.28 86.9867 201.922 86.0981 203.4C81.6491 205.742 78.4413 200.622 77.3935 197.769C77.587 201.992 73.9278 203.283 72.0741 203.4C72.8478 212.128 69.0114 215.445 66.9964 216.013C56.1641 216.914 62.483 206.028 66.9964 200.472C64.0949 200.832 62.3519 198.049 61.843 196.612C49.9361 205.006 41.0596 197.362 38.1097 192.49C29.099 179.6 47.2276 173.88 57.4182 172.631C42.615 172.331 42.4004 164.262 44.1436 160.265C26.7659 167.46 24.2987 154.52 25.2373 147.15Z" fill="url(#paint0_linear_1135_164)"/>
<path d="M83.6 213.237C83.2564 205.236 89.4694 207.236 92.6188 209.237C95.3501 210.951 96.5066 212.767 96.7985 214.409C102.112 213.409 112.287 213.709 110.474 222.905C112.551 222.572 116.026 223.205 113.306 228.403C110.878 231.458 105.098 235.735 101.409 228.403C95.8115 229.123 85.5022 228.299 89.0469 219.238C86.2719 217.962 84.3955 215.136 83.6 213.237Z" fill="url(#paint1_linear_1135_164)"/>
<path d="M213.636 11.8068C210.758 3.10033 217.989 0.307903 221.964 0C230.79 2.97147 221.964 11.8068 221.964 12.5303C217.499 16.779 214.552 13.8182 213.636 11.8068Z" fill="url(#paint2_linear_1135_164)"/>
<path d="M280.505 109.953C282.355 105.662 278.577 102.802 276.456 101.908C269.978 101.05 270.287 106.914 271.251 109.953C274.089 114.673 278.602 111.92 280.505 109.953Z" fill="url(#paint3_linear_1135_164)"/>
<path d="M270.094 121.217C274.258 116.316 266.431 113.096 261.997 112.099C259.684 111.425 260.262 115.036 260.84 116.926C261.536 122.504 267.3 122.111 270.094 121.217Z" fill="url(#paint4_linear_1135_164)"/>
<path d="M193.751 179.143C204.392 176.998 199.341 169.885 195.486 166.597C187.967 162.632 187.389 170.562 186.232 170.562C184.844 178.799 190.666 179.715 193.751 179.143Z" fill="url(#paint5_linear_1135_164)"/>
<path d="M270.094 165.734C271.02 161.873 264.311 160.479 260.84 160.265C253.437 163.613 257.756 167.355 260.84 168.808C263.079 172.554 267.942 168.32 270.094 165.734Z" fill="url(#paint6_linear_1135_164)"/>
<path d="M70.25 228.403C70.25 223.205 64.6454 222.905 61.843 223.405C60.103 223.541 57.6581 225.794 56.6532 226.904C53.9339 232.101 60.4301 234.067 64.0181 234.4C67.644 237.599 69.6835 235.733 70.25 234.4C78.8613 233.201 73.838 229.902 70.25 228.403Z" fill="url(#paint7_linear_1135_164)"/>
<path d="M60.6189 241.897C60.6189 237.499 56.4644 238.065 54.3871 238.898C53.0274 240.498 54.1983 242.23 54.9536 242.897C57.2198 245.296 59.6747 243.23 60.6189 241.897Z" fill="url(#paint8_linear_1135_164)"/>
</g>
<defs>
<filter id="filter0_n_1135_164" x="0" y="0" width="281" height="244" filterUnits="userSpaceOnUse" color-interpolation-filters="sRGB">
<feFlood flood-opacity="0" result="BackgroundImageFix"/>
<feBlend mode="normal" in="SourceGraphic" in2="BackgroundImageFix" result="shape"/>
<feTurbulence type="fractalNoise" baseFrequency="10 10" stitchTiles="stitch" numOctaves="3" result="noise" seed="4050" />
<feColorMatrix in="noise" type="luminanceToAlpha" result="alphaNoise" />
<feComponentTransfer in="alphaNoise" result="coloredNoise1">
<feFuncA type="discrete" tableValues="1 1 1 1 1 1 1 1 1 1 1 1 1 1 1 1 1 1 1 1 1 1 1 1 1 1 1 1 1 1 1 1 1 1 1 1 1 1 1 1 1 1 1 1 1 1 1 1 1 1 1 0 0 0 0 0 0 0 0 0 0 0 0 0 0 0 0 0 0 0 0 0 0 0 0 0 0 0 0 0 0 0 0 0 0 0 0 0 0 0 0 0 0 0 0 0 0 0 0 0 "/>
</feComponentTransfer>
<feComposite operator="in" in2="shape" in="coloredNoise1" result="noise1Clipped" />
<feFlood flood-color="rgba(255, 66, 66, 0.09)" result="color1Flood" />
<feComposite operator="in" in2="noise1Clipped" in="color1Flood" result="color1" />
<feMerge result="effect1_noise_1135_164">
<feMergeNode in="shape" />
<feMergeNode in="color1" />
</feMerge>
</filter>
<linearGradient id="paint0_linear_1135_164" x1="93.7647" y1="53.9299" x2="131.109" y2="221.109" gradientUnits="userSpaceOnUse">
<stop stop-color="#EDBCB8"/>
<stop offset="1" stop-color="#E1A39D"/>
</linearGradient>
<linearGradient id="paint1_linear_1135_164" x1="93.7647" y1="53.9299" x2="131.109" y2="221.109" gradientUnits="userSpaceOnUse">
<stop stop-color="#EDBCB8"/>
<stop offset="1" stop-color="#E1A39D"/>
</linearGradient>
<linearGradient id="paint2_linear_1135_164" x1="93.7647" y1="53.9299" x2="131.109" y2="221.109" gradientUnits="userSpaceOnUse">
<stop stop-color="#EDBCB8"/>
<stop offset="1" stop-color="#E1A39D"/>
</linearGradient>
<linearGradient id="paint3_linear_1135_164" x1="93.7647" y1="53.9299" x2="131.109" y2="221.109" gradientUnits="userSpaceOnUse">
<stop stop-color="#EDBCB8"/>
<stop offset="1" stop-color="#E1A39D"/>
</linearGradient>
<linearGradient id="paint4_linear_1135_164" x1="93.7647" y1="53.9299" x2="131.109" y2="221.109" gradientUnits="userSpaceOnUse">
<stop stop-color="#EDBCB8"/>
<stop offset="1" stop-color="#E1A39D"/>
</linearGradient>
<linearGradient id="paint5_linear_1135_164" x1="93.7647" y1="53.9299" x2="131.109" y2="221.109" gradientUnits="userSpaceOnUse">
<stop stop-color="#EDBCB8"/>
<stop offset="1" stop-color="#E1A39D"/>
</linearGradient>
<linearGradient id="paint6_linear_1135_164" x1="93.7647" y1="53.9299" x2="131.109" y2="221.109" gradientUnits="userSpaceOnUse">
<stop stop-color="#EDBCB8"/>
<stop offset="1" stop-color="#E1A39D"/>
</linearGradient>
<linearGradient id="paint7_linear_1135_164" x1="93.7647" y1="53.9299" x2="131.109" y2="221.109" gradientUnits="userSpaceOnUse">
<stop stop-color="#EDBCB8"/>
<stop offset="1" stop-color="#E1A39D"/>
</linearGradient>
<linearGradient id="paint8_linear_1135_164" x1="93.7647" y1="53.9299" x2="131.109" y2="221.109" gradientUnits="userSpaceOnUse">
<stop stop-color="#EDBCB8"/>
<stop offset="1" stop-color="#E1A39D"/>
</linearGradient>
</defs>
</svg>
