<svg width="443" height="155" viewBox="0 0 443 155" fill="none" xmlns="http://www.w3.org/2000/svg">
<g filter="url(#filter0_n_1135_166)">
<path d="M38.1361 132.823C20.5399 151.117 14.7602 118.032 15.8029 116.742C-22.1797 101.822 17.1407 58.2065 41.5488 38.2638C57.2908 -21.0976 122.702 1.6185 153.44 20.3967C190.711 -14.7086 213.641 13.2231 220.447 31.5772C234.631 -0.155572 271.687 19.9912 288.442 34.0311C304.446 19.1874 325.758 37.7145 334.414 48.8335C415.038 26.5083 438.708 70.1217 440.465 94.7191C452.081 122.476 402.801 137.62 376.709 141.722C357.13 150.579 348.6 140.486 346.782 134.332C336.249 138.987 332.297 130.56 331.637 125.765C326.588 127.279 322.808 124.74 321.55 123.281C320.166 139.176 308.528 136.215 302.882 132.748C303.399 147.158 289.9 139.372 289.161 139.345C282.363 147.042 278.436 139.531 277.322 134.814C271.388 138.319 266.984 135.269 265.523 133.306C268.153 145.847 254.746 147.29 247.713 146.443C251.564 151.427 246.159 153.938 242.975 154.57C232.579 153.602 230.796 147.166 231.204 144.069C221.182 152.444 217.245 144.934 216.529 140.132C201.044 135.661 199.671 125.546 200.92 121.047C187.996 127.693 183.742 116.674 183.23 110.333C181.436 112.94 178.5 112.617 176.115 111.606C181.782 116.891 178.455 130.743 175.719 137.789C182.03 153.441 163.583 153.841 153.571 152.084C139.51 147.546 144.903 137.815 149.357 133.516C146.941 134.226 145.556 131.497 145.166 130.044C140.985 135.472 136.791 132.067 135.216 129.685C124.62 136.21 120.963 128.949 120.46 124.504C118.222 127.611 113.116 125.567 110.842 124.156C107.313 133.593 101.814 128.923 99.5061 125.408C93.1835 131.29 84.7512 126.314 81.3253 123.091C79.2834 135.504 72.6244 131.079 69.5501 127.315C74.0769 134.386 67.257 135.645 63.2813 135.391C58.5411 141.596 57.7287 138.954 57.9151 136.858C49.9528 144.009 41.4114 137.148 38.1361 132.823Z" fill="url(#paint0_linear_1135_166)"/>
</g>
<defs>
<filter id="filter0_n_1135_166" x="0" y="0" width="442.208" height="154.57" filterUnits="userSpaceOnUse" color-interpolation-filters="sRGB">
<feFlood flood-opacity="0" result="BackgroundImageFix"/>
<feBlend mode="normal" in="SourceGraphic" in2="BackgroundImageFix" result="shape"/>
<feTurbulence type="fractalNoise" baseFrequency="10 10" stitchTiles="stitch" numOctaves="3" result="noise" seed="64" />
<feColorMatrix in="noise" type="luminanceToAlpha" result="alphaNoise" />
<feComponentTransfer in="alphaNoise" result="coloredNoise1">
<feFuncA type="discrete" tableValues="1 1 1 1 1 1 1 1 1 1 1 1 1 1 1 1 1 1 1 1 1 1 1 1 1 1 1 1 1 1 1 1 1 1 1 1 1 1 1 1 1 1 1 1 1 1 1 1 1 1 1 0 0 0 0 0 0 0 0 0 0 0 0 0 0 0 0 0 0 0 0 0 0 0 0 0 0 0 0 0 0 0 0 0 0 0 0 0 0 0 0 0 0 0 0 0 0 0 0 0 "/>
</feComponentTransfer>
<feComposite operator="in" in2="shape" in="coloredNoise1" result="noise1Clipped" />
<feFlood flood-color="rgba(198, 38, 38, 0.11)" result="color1Flood" />
<feComposite operator="in" in2="noise1Clipped" in="color1Flood" result="color1" />
<feMerge result="effect1_noise_1135_166">
<feMergeNode in="shape" />
<feMergeNode in="color1" />
</feMerge>
</filter>
<linearGradient id="paint0_linear_1135_166" x1="224.537" y1="4.81298" x2="219.12" y2="154.897" gradientUnits="userSpaceOnUse">
<stop stop-color="#D38381"/>
<stop offset="1" stop-color="#DC8C8F"/>
</linearGradient>
</defs>
</svg>
