<svg width="112" height="294" viewBox="0 0 112 294" fill="none" xmlns="http://www.w3.org/2000/svg">
<g filter="url(#filter0_n_1138_201)">
<path d="M80.8089 244.209C80.3336 241.832 82.9876 215.886 84.374 203.21C49.1983 245.516 65.5297 281.048 78.0924 293.526H111.112C82.5915 292.575 79.0264 260.252 80.8089 244.209Z" fill="#B0938F"/>
<path d="M66.5485 1.78255C65.5582 7.13019 63.4587 18.182 62.9834 19.608L55.8532 0L54.0706 1.18837L62.3892 23.7673L62.9834 50.5055C61.082 49.5548 53.8726 35.4529 50.5055 28.5208L48.723 29.7091L60.6066 54.0706C64.4094 65.9543 68.133 99.0305 69.5194 114.083C80.4523 194.892 49.5152 256.687 32.6801 277.483C28.8773 281.761 9.30886 289.961 0 293.526H89.7216C71.1831 291.625 66.9574 276.889 70.1136 265.6C82.4726 221.392 87.9391 194.892 83.7798 158.647C80.4523 153.893 80.0166 121.015 80.2147 105.17C79.7393 81.8784 93.4848 53.0803 100.417 41.5928L99.2285 40.9986L89.1274 55.8532V36.8393H87.9391L86.7507 61.795C83.8986 64.1717 76.4515 81.7992 73.0845 90.3158C66.4296 74.6293 65.9543 24.7576 66.5485 1.78255Z" fill="url(#paint0_linear_1138_201)"/>
</g>
<defs>
<filter id="filter0_n_1138_201" x="0" y="0" width="111.112" height="293.526" filterUnits="userSpaceOnUse" color-interpolation-filters="sRGB">
<feFlood flood-opacity="0" result="BackgroundImageFix"/>
<feBlend mode="normal" in="SourceGraphic" in2="BackgroundImageFix" result="shape"/>
<feTurbulence type="fractalNoise" baseFrequency="10 10" stitchTiles="stitch" numOctaves="3" result="noise" seed="4994" />
<feColorMatrix in="noise" type="luminanceToAlpha" result="alphaNoise" />
<feComponentTransfer in="alphaNoise" result="coloredNoise1">
<feFuncA type="discrete" tableValues="1 1 1 1 1 1 1 1 1 1 1 1 1 1 1 1 1 1 1 1 1 1 1 1 1 1 1 1 1 1 1 1 1 1 1 1 1 1 1 1 1 1 1 1 1 1 1 1 1 1 1 0 0 0 0 0 0 0 0 0 0 0 0 0 0 0 0 0 0 0 0 0 0 0 0 0 0 0 0 0 0 0 0 0 0 0 0 0 0 0 0 0 0 0 0 0 0 0 0 0 "/>
</feComponentTransfer>
<feComposite operator="in" in2="shape" in="coloredNoise1" result="noise1Clipped" />
<feFlood flood-color="rgba(108, 76, 76, 0.14)" result="color1Flood" />
<feComposite operator="in" in2="noise1Clipped" in="color1Flood" result="color1" />
<feMerge result="effect1_noise_1138_201">
<feMergeNode in="shape" />
<feMergeNode in="color1" />
</feMerge>
</filter>
<linearGradient id="paint0_linear_1138_201" x1="57.0722" y1="72.5892" x2="50.2084" y2="293.526" gradientUnits="userSpaceOnUse">
<stop stop-color="#82635E"/>
<stop offset="1" stop-color="#6F5352"/>
</linearGradient>
</defs>
</svg>
