<svg width="963" height="625" viewBox="0 0 963 625" fill="none" xmlns="http://www.w3.org/2000/svg">
<g filter="url(#filter0_n_1147_1011)">
<path d="M33.1659 476.417L6.34008 449.196C4.48295 447.311 3.44189 444.772 3.44189 442.126C3.44189 436.566 7.94702 432.057 13.507 432.054L942.643 431.392C948.449 431.388 953.158 436.094 953.158 441.9C953.158 444.846 951.921 447.656 949.749 449.647L934.094 463.992L910.363 484.969C903.396 491.128 894.956 495.383 885.861 497.322L792.778 517.173C783.705 519.108 775.35 523.53 768.648 529.945C744.564 552.998 713.355 567.173 680.149 570.142L616.653 575.82C611.556 576.276 606.716 578.05 602.415 580.823C582.421 593.714 519.893 630.656 470.441 623.208C416.079 615.021 378.212 592.861 362.667 582.284C357.423 578.717 351.347 576.372 345.01 576.107L287.568 573.706C255.953 572.384 225.609 560.896 201.045 540.95L184.072 527.167C176.961 521.393 168.497 517.523 159.478 515.92L100.44 505.43C97.2744 504.868 94.1657 504.024 91.1506 502.909L51.4312 488.215C44.551 485.67 38.3151 481.642 33.1659 476.417Z" fill="url(#paint0_linear_1147_1011)"/>
<path d="M31.9017 476.7L5.153 449.442C3.29988 447.554 2.26172 445.014 2.26172 442.368C2.26172 436.792 6.77933 432.272 12.3547 432.268L535.25 431.894C541.881 431.889 547.259 437.263 547.259 443.894V475.959C546.781 493.089 541.323 515.727 538.654 524.905C532.864 543.38 511.6 579.555 501.691 595.333C498.065 603.433 488.191 610.964 478.989 616.403C470.347 621.51 460.006 622.608 450.201 620.454C405.603 610.654 374.418 592.185 360.673 582.797C355.421 579.209 349.339 576.859 342.983 576.592L285.995 574.199C254.285 572.868 223.858 561.31 199.261 541.253L182.509 527.592C175.39 521.787 166.909 517.894 157.867 516.281L99.0617 505.788C95.8855 505.222 92.7663 504.371 89.7418 503.248L50.1765 488.549C43.2882 485.99 37.0485 481.945 31.9017 476.7Z" fill="url(#paint1_linear_1147_1011)"/>
<path d="M335.193 470.61L234.494 464.635C226.912 483.878 240.792 503.226 248.68 510.495L278.701 522.422L313.89 570.933L355.674 573.337C373.643 587.901 387.249 589.652 391.807 588.707C389.55 587.312 386.152 575.193 383.905 569.155C382.625 556.55 376.326 539.737 374.352 534.003C358.558 524.832 337.433 487.01 335.193 470.61Z" fill="url(#paint2_linear_1147_1011)" fill-opacity="0.88"/>
<path d="M234.524 464.573C232.965 478.71 239.135 507.91 276.289 511.621C284.346 513.895 299.809 523.245 297.201 542.455C301.146 548.69 308.093 559.447 311.853 564.61C312.801 565.702 313.661 566.691 314.395 567.535C314.172 567.631 313.225 566.492 311.853 564.61C306.018 557.885 296.846 547.245 292.936 542.455C286.355 535.473 267.341 522.165 243.933 524.791C232.334 526.408 206.833 523.421 197.629 498.534C198.005 507.148 207.792 525.458 243.933 529.791C250.871 532.318 265.651 539.712 269.273 549.07C274.038 552.688 284.183 560.814 286.646 564.371C276.448 556.477 251.897 539.899 235.273 536.728C241.217 544.104 253.538 559.073 255.279 559.947C251.394 565.619 230.204 568.074 176.378 519.493C169.688 516.58 151.017 511.307 140.346 508.773C130.363 495.616 109.966 472.026 104.696 452.611L102.513 447.86C142.219 451.092 224.21 458.961 234.524 464.573Z" fill="url(#paint3_linear_1147_1011)"/>
<path d="M381.423 473.46H372.811C377.389 487.1 386.544 514.752 386.544 516.236C394.224 542.41 405.164 551.094 406.095 553.666C416.894 562.635 422.387 578.136 423.784 584.766C423.784 572.42 413.388 557.173 408.189 551.094C399.438 536.128 386.699 493.102 381.423 473.46Z" fill="url(#paint4_linear_1147_1011)"/>
<path d="M372.811 531.727C355.209 522.122 339.475 486.864 333.808 470.436H331.039C335.793 486.632 348.154 505.995 353.741 513.651C357.747 520.789 367.215 529.154 371.449 532.444C376.558 536.232 380.605 552.42 381.989 560.041C383.477 575.041 389.306 583.715 392.034 586.177C388.699 582.714 385.549 572.306 384.391 567.535C380.723 542.457 375.143 533.214 372.811 531.727Z" fill="url(#paint5_linear_1147_1011)"/>
<path d="M430.587 556.808C426.611 551.834 427.118 544.813 427.868 541.924C431.579 528.725 428.374 515.299 426.248 510.059C432.228 523.228 432.07 532.959 431.243 536.178C426.818 546.05 428.962 554.045 430.587 556.808Z" fill="url(#paint6_linear_1147_1011)"/>
<path d="M440.433 541.265C450.747 549.712 465.825 571.467 443.621 590.911C451.028 582.903 460.762 561.764 440.433 541.265Z" fill="url(#paint7_linear_1147_1011)"/>
<path d="M104.129 449.357L95.5349 447.86C99.6208 457.674 109.35 470.807 113.704 476.147C125.961 494.736 139.812 508.77 141.286 508.178C139.223 507.586 118.713 480.291 118.713 478.959C112.349 471.381 106.339 456.067 104.129 449.357Z" fill="url(#paint8_linear_1147_1011)"/>
<path d="M238.865 483.588C236.363 467.666 232.904 463.417 231.487 463.283C229.241 466.828 233.706 477.598 236.218 482.54C242.827 500.782 251.376 503.946 254.825 503.247C246.741 500.798 240.816 489.12 238.865 483.588Z" fill="url(#paint9_linear_1147_1011)"/>
<path d="M88.4283 449.104L76.3298 447.86C79.3021 460.187 91.9849 472.967 97.9547 477.817C109.31 486.086 111.133 495.618 110.625 499.351L135.012 503.754C133.945 500.844 118.309 482.57 110.625 473.797C102.851 470.122 92.5881 455.804 88.4283 449.104Z" fill="url(#paint10_linear_1147_1011)"/>
<path d="M74.4361 449.104L62.3376 447.86C65.3099 460.187 77.9927 472.967 83.9625 477.817C95.318 486.086 97.1407 495.618 96.6326 499.351L121.02 503.754C120.216 501.562 111.145 490.652 103.434 481.651C98.974 476.447 93.2912 472.313 88.5021 467.409C82.7954 461.566 77.2346 453.611 74.4361 449.104Z" fill="url(#paint11_linear_1147_1011)"/>
<path d="M448.123 475.306H440.068C442.484 502.221 461.435 522.16 470.608 528.765C492.663 546.747 483.73 579.233 476.508 593.228C497.988 558.237 482.645 532.404 472.288 523.862C451.575 509.218 447.548 485.39 448.123 475.306Z" fill="url(#paint12_linear_1147_1011)"/>
<path d="M421.067 500.065C408.921 490.432 408.149 479.545 409.281 475.306C409.281 477.976 414.208 486.502 416.671 490.432C428.018 502.532 428.99 513.67 428.058 517.726C427.419 508.896 423.131 502.273 421.067 500.065Z" fill="url(#paint13_linear_1147_1011)"/>
<path d="M299.409 485.414C293.336 470.161 296.213 469.559 298.41 471.165C311.576 488.045 330.665 527.57 338.563 545.222L323.581 525.353C317.028 521.018 304.736 496.921 299.409 485.414Z" fill="url(#paint14_linear_1147_1011)"/>
<path d="M166.019 460.326C177.431 468.192 196.274 497.389 196.407 498.189C201.079 509.494 213.658 519.164 219.363 522.586C208.853 518.96 198.972 508.187 195.344 503.255L179.023 484.057C162.568 465.605 163.497 460.548 166.019 460.326Z" fill="url(#paint15_linear_1147_1011)"/>
<path d="M762.37 464.476L705.377 469.796C705.377 478.956 692.082 504.808 685.434 516.59L687.538 517.852C735.548 497.944 757.43 473.973 762.37 464.476Z" fill="url(#paint16_linear_1147_1011)"/>
<path d="M772.688 523.984C780.585 519.382 798.079 461.192 799.466 460.297C800.883 459.382 843.018 457.93 863.148 455.879C858.029 478.887 835.839 497.558 825.384 504.018C822.792 507.468 781.216 521.132 772.688 523.984C772.521 524.081 772.358 524.155 772.2 524.203C770.584 524.698 770.95 524.565 772.688 523.984Z" fill="url(#paint17_linear_1147_1011)"/>
<path d="M577.622 479.694L572.632 480.397C573.887 489.839 572.109 510.934 571.063 520.301C565.771 536.133 552.511 559.215 546.542 568.777C542.551 574.509 530.433 586.715 524.873 592.101C528.18 591.427 540.697 578.612 546.542 572.289C547.113 576.111 544.784 587.09 543.549 592.101C547.198 587.717 549.061 575.943 549.536 570.603C556.037 560.599 569.258 532.9 575.056 520.301C578.135 512.995 578.05 490.185 577.622 479.694Z" fill="url(#paint18_linear_1147_1011)"/>
<path d="M606.317 512.207C609.413 496.314 616.959 485.031 620.346 481.375C612.46 496.035 608.282 515.355 607.179 523.183C600.79 538.67 589.752 548.594 585.032 551.621L594.707 539.542C601.802 531.787 605.403 518.087 606.317 512.207Z" fill="url(#paint19_linear_1147_1011)"/>
<path d="M634.52 475.956H631.498L628.918 513.503C627.231 521.752 620.418 530.385 619.315 530.96C606.754 543.801 605.991 551.496 607.179 553.739C607.179 551.217 611.468 544.089 613.612 540.841C621.755 532.217 628.929 520.814 631.498 516.191C632.777 514.815 634.045 488.795 634.52 475.956Z" fill="url(#paint20_linear_1147_1011)"/>
<path d="M586.696 587.844C587.11 587.436 604.357 563.256 606.003 558.311C606.027 558.229 606.051 558.148 606.075 558.068C606.056 558.143 606.032 558.224 606.003 558.311C603.977 565.044 597.417 579.984 586.696 587.844Z" fill="url(#paint21_linear_1147_1011)"/>
<path d="M677.721 472.057L674.5 472.415C674.5 472.702 672.654 489.437 671.731 497.768C670.316 507.824 661.554 522.524 657.35 528.616C668.078 518.837 673.253 503.695 674.5 497.346L677.721 472.057Z" fill="url(#paint22_linear_1147_1011)"/>
<path d="M651.993 549.93C691.366 516.193 703.041 482.93 703.956 470.515L705.665 469.895V470.515C704.516 484.884 693.179 505.985 687.654 514.74C686.239 516.918 688.243 516.615 689.422 516.191C692.25 513.344 709.091 506.123 717.157 502.869C734.13 494.361 754.359 473.767 762.352 464.534H765.778C757.026 484.311 723.824 502.978 708.317 509.839C695.853 512.801 681.813 525.154 676.352 530.96C668.952 542.776 651.386 564.298 643.528 573.582C641.382 574.803 632.894 574.769 628.918 574.599C630.436 572.972 644.934 557.475 651.993 549.93Z" fill="url(#paint23_linear_1147_1011)"/>
<path d="M732.604 512.207C717.733 517.58 694.444 530.227 684.658 535.879C711.685 528.667 730.145 517.957 735.997 513.503C760.262 498.744 764.597 490.962 763.731 488.915C760.545 496.293 741.652 507.517 732.604 512.207Z" fill="url(#paint24_linear_1147_1011)"/>
<path d="M700.443 551.621C673.889 554.444 659.481 565.452 655.596 570.603C663.739 563.721 688.887 556.493 700.443 553.739C728.414 544.764 737.767 534.814 738.947 530.96C730.804 540.751 709.885 548.813 700.443 551.621Z" fill="url(#paint25_linear_1147_1011)"/>
<path d="M753.455 521.719C753.184 522.787 743.565 530.144 741.669 535.879C745.597 532.538 753.455 525.03 753.455 521.719Z" fill="url(#paint26_linear_1147_1011)"/>
<path d="M822.798 487.097C817.712 493.732 795.996 501.656 785.774 504.789C807.411 494.954 818.175 488.359 820.852 486.291C827.608 473.831 829.87 462.962 830.156 459.084H831.961C830.614 471.027 825.291 482.735 822.798 487.097Z" fill="url(#paint27_linear_1147_1011)"/>
<path d="M864.641 455.498L861.746 456.211C857.693 479.895 835.449 495.089 824.833 499.726C803.216 506.859 788.483 515.221 783.819 518.511C797.04 517.655 812.81 513.081 819.043 510.901C851.661 491.593 863.033 465.921 864.641 455.498Z" fill="url(#paint28_linear_1147_1011)"/>
<path d="M840.04 506.968C839.885 507.085 839.761 507.169 839.671 507.216C839.794 507.133 839.917 507.051 840.04 506.968C843.796 504.117 865.64 481.332 866.451 479.276C865.173 483.449 858.103 494.792 840.04 506.968Z" fill="url(#paint29_linear_1147_1011)"/>
<path d="M891.936 452.251L887.645 452.572C888.685 460.708 879.715 476.467 882.185 474.994C884.161 473.815 889.509 459.341 891.936 452.251Z" fill="url(#paint30_linear_1147_1011)"/>
<path d="M922.486 446.742C921.511 446.955 919.483 447.421 919.171 447.575C915.986 455.39 909.928 470.779 911.176 469.805C912.424 468.831 919.236 454.024 922.486 446.742Z" fill="url(#paint31_linear_1147_1011)"/>
<path d="M948.132 431.998C545.414 374.195 158.884 403.539 6.57041 432.754C3.55872 433.332 2.77958 436.65 5.47442 438.113C23.4801 447.892 70.7591 453.773 94.7611 455.629C125.152 460.519 184.117 463.948 209.802 465.05C219.259 468.91 271.429 472.095 296.331 473.205C299.828 473.02 351.403 476.993 376.753 479.003C387.243 479.568 408.441 480.698 409.315 480.698H448.138C466.69 483.659 522.758 482.647 548.474 481.771C562.678 482.426 659.635 474.399 706.338 470.303C718.072 470.631 776.843 463.341 804.762 459.655C872.155 458.305 922.834 447.133 948.876 438.846C952.72 437.623 952.125 432.571 948.132 431.998Z" fill="url(#paint32_linear_1147_1011)"/>
<path d="M133.713 444.313C124.092 441.713 69.7468 443.793 67.6665 444.313C74.4812 445.574 100.356 445.427 112.441 445.196C120.968 444.978 130.175 444.516 133.713 444.313Z" fill="url(#paint33_linear_1147_1011)"/>
<path d="M133.713 448.829C141.934 447.899 160.049 446.403 166.744 447.859C161.664 448.95 147.945 450.673 133.713 448.829Z" fill="url(#paint34_linear_1147_1011)"/>
<path d="M160.356 452.804C173.792 452.064 201.665 451.028 205.659 452.804C193.711 453.881 167.923 455.389 160.356 452.804Z" fill="url(#paint35_linear_1147_1011)"/>
<path d="M214.905 450.77C221.561 449.476 235.911 447.277 240.053 448.829C236.971 449.784 227.627 451.509 214.905 450.77Z" fill="url(#paint36_linear_1147_1011)"/>
<path d="M243.668 462.467C255.358 461.653 279.004 460.514 280.07 462.467C271.265 463.429 251.659 464.776 243.668 462.467Z" fill="url(#paint37_linear_1147_1011)"/>
<path d="M287.838 460.026C301.23 458.694 330.01 456.83 338.001 460.026C323.869 460.47 294.053 461.091 287.838 460.026Z" fill="url(#paint38_linear_1147_1011)"/>
<path d="M338.001 463.771C344.107 463.297 356.941 462.634 359.421 463.771C354.14 464.589 342.463 465.734 338.001 463.771Z" fill="url(#paint39_linear_1147_1011)"/>
<path d="M364.071 463.771C370.1 463.168 382.699 462.453 384.869 464.416C378.884 464.89 366.345 465.424 364.071 463.771Z" fill="url(#paint40_linear_1147_1011)"/>
<path d="M391.848 457.768C392.437 457.532 424.727 456.472 426.377 457.768C418.996 458.811 401.756 460.271 391.848 457.768Z" fill="url(#paint41_linear_1147_1011)"/>
<path d="M454.612 468.38C455.602 468.05 523.077 464.42 535.615 468.38C509.384 469.04 456.46 469.964 454.612 468.38Z" fill="url(#paint42_linear_1147_1011)"/>
<path d="M553.766 457.578C571.638 459.193 608.196 463.017 611.455 465.401C594.507 464.097 559.241 460.707 553.766 457.578Z" fill="url(#paint43_linear_1147_1011)"/>
<path d="M622.7 459.208C629.599 459.425 644.016 460.414 646.493 462.63C640.517 462.793 627.393 462.337 622.7 459.208Z" fill="url(#paint44_linear_1147_1011)"/>
<path d="M661.485 453.015C673.11 452.037 697.924 450.994 704.182 454.645C693.101 454.428 669.047 453.797 661.485 453.015Z" fill="url(#paint45_linear_1147_1011)"/>
<path d="M729.864 446.017C727.969 446.095 726.277 446.182 724.847 446.269C725.534 446.05 727.321 445.978 729.864 446.017C742.072 445.512 762.726 445.35 776.175 447.656C789.308 448.303 816.683 448.932 821.122 446.269C821.439 448.517 812.744 452.276 775.426 449.324C763.059 448.136 740.206 446.172 729.864 446.017Z" fill="url(#paint46_linear_1147_1011)"/>
<path d="M659.208 467.297C664.997 468.188 670.472 471.697 672.486 473.34H669.227C669.163 472.45 662.521 468.941 659.208 467.297Z" fill="url(#paint47_linear_1147_1011)"/>
<path d="M746.241 432.263C747.323 432.383 785.429 433.826 793.483 435.629C781.289 435.756 754.77 435.261 746.241 432.263Z" fill="url(#paint48_linear_1147_1011)"/>
<path d="M746.241 425.005C768.048 425.85 811.678 427.409 814.314 426.993C814.345 426.986 814.375 426.979 814.405 426.972C814.385 426.98 814.354 426.986 814.314 426.993C807.637 428.459 784.854 430.087 746.241 425.005Z" fill="url(#paint49_linear_1147_1011)"/>
<g filter="url(#filter1_n_1147_1011)">
<path d="M286.702 442.037V405.329C179.937 405.329 31.7653 426.93 6.88428 432.809C16.9101 435.817 222.67 441.742 286.702 442.037Z" fill="url(#paint50_linear_1147_1011)"/>
</g>
<path d="M535.647 348.35L380.876 362.377L386.635 352.313L364.353 356.77L335.445 360.973C329.104 361.895 323.078 364.328 317.872 368.065L285.412 391.371C280.347 395.008 274.601 397.571 268.762 399.757C253.358 405.524 230.53 417.014 219.227 423.035C209.239 427.549 204.438 430.809 202.399 432.896C201.073 434.255 202.221 435.644 204.1 435.917C224.381 438.871 293.811 442.55 330.17 444.21C332.085 444.298 333.969 444.554 335.838 444.981L346.08 447.318C364.81 449.709 475.001 450.066 527.755 449.946C570.37 449.52 682.574 438.449 738.942 432.379C740.861 432.172 741.368 429.66 739.681 428.723C713.862 414.382 683.948 402.352 667.293 396.354C663.233 394.891 659.355 392.99 655.778 390.576L630.597 373.578C619.695 366.218 607.183 361.59 594.116 360.082L569.233 357.212C565.106 356.736 561.076 355.635 557.28 353.948L550.043 350.732C545.525 348.724 540.57 347.904 535.647 348.35Z" fill="url(#paint51_linear_1147_1011)"/>
<path d="M465.081 386.954C467.135 387.589 469.436 387.731 470.33 387.724C478.012 389.266 483.966 400.463 485.983 405.868C491.129 415.537 501.741 422.038 506.403 424.08C529.361 431.056 541.818 443.828 545.177 449.343H542.041C534.305 436.627 516.122 428.967 507.998 426.727C496.447 424.17 487.555 413.188 484.552 408.016C479.996 394.028 470.555 389.559 466.405 389.073L465.081 386.954ZM454.338 399.71C452.029 411.848 443.997 438.591 430.335 448.462L427.482 448.064C432.578 445.527 444.834 432.396 453.089 400.168L454.338 399.71ZM562.134 411.377C566.975 412.587 577.08 415.829 578.766 419.108C578.688 421.256 578.297 426.675 577.36 431.173C579.859 435.624 585.279 444.831 586.966 446.049C586.202 446.681 582.856 444.736 575.581 431.9C575.18 431.587 574.253 429.569 573.752 424.009C573.874 422.789 573.313 419.995 570.093 418.573C566.599 416.389 560.114 411.892 562.134 411.377ZM397.955 350.834C447.492 348.528 527.097 345.907 545.885 349.278C548.619 349.769 549.235 352.318 547.492 354.48C544.066 358.728 537.438 364.278 526.941 366.999C511.654 368.45 472.395 370.756 433.397 368.892C430.031 368.731 426.684 369.351 423.438 370.256C414.273 372.812 397.003 375.373 373.978 373.106C368.261 372.543 362.485 373.904 357.861 377.314C342.651 388.531 320.062 405.581 313.498 412.025C317.124 409.861 324.727 405.463 326.131 405.182C327.359 405.708 331.185 405.813 336.659 402.023C341.309 398.123 352.817 390.264 361.653 390.031C371.003 391.194 390.46 393.171 393.483 391.775C388.801 396.11 380.266 404.741 376.666 410.706C375.205 413.126 374.608 415.968 373.306 418.478C370.845 423.224 366.228 429.888 359.204 435.12C357.31 436.531 355.177 437.566 353.009 438.5C348.205 440.569 341.551 443.613 338.689 445.552C297.711 444.163 214.025 440.533 207.103 437.122C202.458 436.691 196.064 434.306 207.644 428.217C225.825 419.105 264.773 400.113 275.115 397.038C283.73 391.628 302.222 379.73 307.272 375.417C312.096 370.522 326.141 360.564 343.733 359.883C351.603 358.461 365.582 355.867 375.812 353.791C383.121 352.308 390.505 351.181 397.955 350.834ZM355.618 408.669C351.8 410.707 348.42 413.476 345.671 416.818L336.161 428.38C333.905 431.122 331.221 433.483 328.213 435.37L315.005 443.656H317.85L330.324 436.148C333.485 434.246 336.304 431.826 338.665 428.991L347.993 417.788C350.485 414.795 353.487 412.267 356.86 410.32L381.651 396.016L380.898 395.178L355.618 408.669ZM305.208 424.817C302.796 427.162 288.128 437.627 281.094 442.567H283.103C290.404 439.888 301.719 430.008 306.464 425.403L305.208 424.817ZM462.884 403.468C462.32 409.904 461.622 423.566 463.342 426.727C465.123 429.632 470.859 436.186 479.551 439.16C478.021 440.768 472.113 441.171 460.726 429.923C459.925 427.508 458.702 418.836 460.221 403.468H462.884ZM289.597 414.376C279.669 421.622 258.865 436.759 255.077 439.341C261.074 436.446 276.65 427.798 290.974 416.361C291.72 415.7 292.489 414.376 289.597 414.376ZM439.14 403.468C438.126 407.703 431.529 417.459 413.257 422.606C407.105 425.901 391.959 433.799 380.584 439.023L379.304 436.287L409.412 422.606C414.473 416.098 427.504 403.162 439.14 403.468ZM589.41 416.584C616.101 427.884 617.841 433.114 615.374 434.315C604.663 431.855 593.601 421.469 589.41 416.584ZM264.789 421.637C261.75 423.424 258.308 424.418 254.784 424.526L248.593 424.716C246.387 424.783 244.206 425.198 242.129 425.945L228.821 430.731C231.318 430.446 235.891 429.719 239.791 428.598C243.218 427.612 246.703 426.537 250.267 426.417L254.868 426.262C258.339 426.145 261.727 425.168 264.728 423.42L274.791 417.561C274.992 417.161 275.066 416.361 273.758 416.361L264.789 421.637ZM633.589 419.941C642.17 420.864 658.572 423.956 655.527 428.939C653.798 430.863 646.989 431.758 633.589 419.941ZM330.661 416.361C327.847 418.438 313.357 425.711 306.464 429.088L307.887 429.758C323.494 424.199 330.465 418.511 332.001 416.361H330.661ZM537.971 412.529C551.593 413.282 559.26 424.17 561.391 429.52C555.33 421.009 543.252 414.647 537.971 412.529ZM427.234 381.814C427.007 382.9 422.642 387.083 406.994 395.127C404.413 396.757 399.387 401.81 399.93 408.982C407.305 405.485 425.222 398.019 437.888 396.139L438.058 396.851C425.626 399.992 399.863 408.826 396.27 419.033C395.403 421.077 393.291 424.998 391.78 424.332C392.052 415.578 395.746 396.81 408.352 391.775C409.168 391.775 426.186 383.309 427.234 381.814ZM624.523 400.218C626.738 404.204 638.918 409.318 644.731 411.377C632.385 410.339 626.115 403.505 624.523 400.218ZM351.76 379.075C343.799 379.429 335.08 382.786 329.112 385.724C325.544 387.48 322.438 390.035 319.205 392.351C310.047 398.911 291.829 409.84 290.974 409.938C292.076 410.635 293.591 410.59 294.211 410.481C301.615 407.745 317.655 396.135 324.749 390.672C330.644 386.05 345.213 381.908 351.76 380.414V379.075ZM537.971 369.401C534.049 362.827 556.213 376.809 567.785 384.622C602.147 401.235 610.258 407.389 610.018 408.39C602.041 403.404 578.539 391.844 567.785 386.687C557.813 384.777 543.754 374.368 537.971 369.401ZM510.583 389.073C519.101 390.153 525.038 392.2 526.941 393.089C535.689 396.701 533.807 400.514 531.772 401.968C528.037 403.407 524.195 400.169 522.741 398.37C520.475 395.921 513.692 391.152 510.583 389.073ZM586.074 376.215C585.885 375.058 586.522 375.733 586.864 376.215C591.325 381.951 596.476 385.313 598.494 386.277C600.334 386.151 605 387.194 607.103 387.731C626.045 394.999 620.003 396.482 614.614 396.315C600.194 393.397 589.579 381.699 586.074 376.215ZM523.93 376.88C539.561 379.952 546.614 388.491 548.186 392.376C544.144 387.581 530.331 380.047 523.93 376.88Z" fill="url(#paint52_linear_1147_1011)"/>
<path d="M482.357 381.254C472.784 383.049 456.306 377.639 449.263 374.71C447.67 374.71 448.06 375.836 448.453 376.399C463.122 384.82 477.74 384.004 483.216 382.543L482.357 381.254Z" fill="url(#paint53_linear_1147_1011)"/>
<path d="M482.357 433.018C482.357 439.62 480.682 447.006 479.844 449.874H483.216V448.996C485.914 442.675 483.767 435.71 482.357 433.018Z" fill="url(#paint54_linear_1147_1011)"/>
<path d="M509.16 414.635C518.894 419.747 540.385 430.884 548.477 434.538C544.02 430.242 529.916 420.247 509.16 414.635Z" fill="url(#paint55_linear_1147_1011)"/>
<path d="M606.445 417.375C599.165 414.212 556.634 404.357 555.819 404.357V406.123C571.852 409.83 594.191 417.62 603.357 421.051C607.475 421.228 607.131 418.674 606.445 417.375Z" fill="url(#paint56_linear_1147_1011)"/>
<path d="M639.216 402.43C636.517 400.888 625.553 391.02 620.409 386.279C622.421 384.554 633.909 396.246 639.621 402.061L647.003 413.018C657.397 422.264 665.824 429.995 668.289 432.867C662.489 431.144 652.281 420.185 647.902 414.921C645.777 412.107 641.226 405.421 639.216 402.43Z" fill="url(#paint57_linear_1147_1011)"/>
<path d="M681.198 415.941C687.276 420.893 700.35 430.878 704.024 431.203C699.522 426.746 688.654 417.453 681.198 415.941Z" fill="url(#paint58_linear_1147_1011)"/>
<path d="M681.192 416.06C686.434 418.102 698.275 423.922 703.711 430.875C697.351 427.293 683.942 419.316 681.192 416.06Z" fill="#B16C46"/>
</g>
<g filter="url(#filter2_n_1147_1011)">
<path d="M613.314 97.3313C609.081 88.261 601.976 92.0403 598.952 95.0637C596.534 93.2496 592.402 92.7961 590.638 92.7961C582.531 92.1915 580.709 99.0949 580.812 102.622C571.741 100.204 567.458 106.654 566.45 110.181C563.427 124.693 571.238 126.81 575.521 126.054C576.125 132.705 582.827 131.849 586.103 130.589C594.568 137.845 602.228 134.116 604.999 131.345C616.488 133.159 616.841 125.55 615.581 121.519C620.419 119.705 621.628 114.212 621.628 111.693C624.047 101.413 617.093 97.8352 613.314 97.3313Z" fill="url(#paint59_linear_1147_1011)"/>
</g>
<g filter="url(#filter3_n_1147_1011)">
<path d="M519.178 93.514C519.85 77.3884 508.26 80.6359 502.381 84.2754C492.303 82.5956 496.502 90.9944 495.662 91.8342C487.599 90.4904 488.943 98.5532 490.623 102.753C488.607 110.143 494.822 111.431 498.182 111.151C511.62 117.87 517.219 109.472 518.339 104.432C525.058 99.0571 521.698 94.9138 519.178 93.514Z" fill="url(#paint60_linear_1147_1011)"/>
</g>
<g filter="url(#filter4_n_1147_1011)">
<path d="M394.006 126.362C391.974 121.28 385.96 121.704 383.208 122.551C382.191 113.912 374.738 113.446 371.139 114.293C358.434 111.752 354.411 119.163 353.988 123.186C348.906 126.235 351.447 130.385 353.353 132.079C342.681 131.571 340.013 141.184 340.013 146.054C342.554 159.774 352.929 159.817 357.799 158.123C361.356 168.794 370.292 167.651 374.315 165.745C383.97 170.319 391.466 162.569 394.006 158.123C410.268 145.927 400.782 137.373 394.006 134.62C396.547 131.571 395.065 127.844 394.006 126.362Z" fill="url(#paint61_linear_1147_1011)"/>
</g>
<g filter="url(#filter5_n_1147_1011)">
<path d="M422.513 184.967C448.182 201.604 464.502 239.83 469.454 256.863L460.112 290.933C459.921 291.94 459.671 292.868 459.353 293.703L460.112 290.933C462.206 279.885 457.091 259.353 454.005 249.733C445.924 224.54 416.572 215.072 402.905 213.488V211.705C422.87 214.082 438.16 221.014 443.31 224.183C428.574 190.909 393.993 167.538 378.544 160.012V157.635C381.871 160.487 393.002 165.953 398.152 168.33L390.428 156.446L391.616 155.258C397.32 166.191 414.591 179.62 422.513 184.967Z" fill="url(#paint62_linear_1147_1011)"/>
</g>
<g filter="url(#filter6_n_1147_1011)">
<path d="M512.829 187.938C496.786 204.575 484.111 225.57 479.555 234.285L481.338 280.631C486.091 214.082 551.451 150.307 583.537 126.738C568.801 133.868 539.766 159.418 527.09 171.301V147.534C524.238 170.826 526.496 168.33 512.829 187.938Z" fill="#6E5753"/>
</g>
<g filter="url(#filter7_n_1147_1011)">
<path d="M479.555 313.905C479.08 311.528 481.734 285.582 483.12 272.906C447.944 315.212 464.276 350.744 476.838 363.222H509.858C481.338 362.271 477.772 329.948 479.555 313.905Z" fill="#B0938F"/>
<path d="M465.295 71.4786C464.304 76.8262 462.205 87.878 461.729 89.3041L454.599 69.696L452.817 70.8844L461.135 93.4634L461.729 120.202C459.828 119.251 452.619 105.149 449.252 98.2168L447.469 99.4052L459.353 123.767C463.156 135.65 466.879 168.727 468.265 183.779C479.198 264.588 448.261 326.383 431.426 347.179C427.623 351.457 408.055 359.657 398.746 363.222H488.468C469.929 361.321 465.703 346.585 468.86 335.296C481.219 291.089 486.685 264.588 482.526 228.343C479.198 223.589 478.763 190.711 478.961 174.866C478.485 151.574 492.231 122.776 499.163 111.289L497.975 110.695L487.874 125.549V106.535H486.685L485.497 131.491C482.645 133.868 475.198 151.495 471.831 160.012C465.176 144.325 464.7 94.4537 465.295 71.4786Z" fill="url(#paint63_linear_1147_1011)"/>
</g>
<g filter="url(#filter8_n_1147_1011)">
<path d="M430.237 25.1322C428.811 11.8225 437.962 7.7028 442.715 7.30668C443.19 2.07794 449.647 0.374578 452.816 0.176488C462.323 -1.24955 465.492 6.31638 465.888 10.2776C474.444 11.2283 474.603 17.4078 473.613 20.3787C478.366 19.428 479.951 24.3399 480.149 26.9147C489.18 24.0626 494.607 29.6876 496.192 32.8565C501.896 47.1169 491.042 55.0394 484.902 57.218C490.131 67.2003 480.347 71.2804 474.801 72.0726C475.276 78.7275 469.057 79.5989 465.888 79.2028C461.135 82.7679 452.222 80.3912 451.034 80.3912C448.657 85.62 443.309 87.3233 440.933 87.5214C432.376 87.5214 429.445 82.7679 429.049 80.3912C420.493 81.8172 415.185 76.628 413.6 73.8552C407.896 64.3482 415.977 56.4258 420.73 53.6529C415.026 52.2269 413.6 43.948 413.6 39.9867C413.125 27.6277 424.493 24.9341 430.237 25.1322Z" fill="url(#paint64_linear_1147_1011)"/>
</g>
<defs>
<filter id="filter0_n_1147_1011" x="2.26172" y="347.67" width="950.896" height="276.521" filterUnits="userSpaceOnUse" color-interpolation-filters="sRGB">
<feFlood flood-opacity="0" result="BackgroundImageFix"/>
<feBlend mode="normal" in="SourceGraphic" in2="BackgroundImageFix" result="shape"/>
<feTurbulence type="fractalNoise" baseFrequency="5 5" stitchTiles="stitch" numOctaves="3" result="noise" seed="1005" />
<feColorMatrix in="noise" type="luminanceToAlpha" result="alphaNoise" />
<feComponentTransfer in="alphaNoise" result="coloredNoise1">
<feFuncA type="discrete" tableValues="1 1 1 1 1 1 1 1 1 1 1 1 1 1 1 1 1 1 1 1 1 1 1 1 1 1 1 1 1 1 1 1 1 1 1 1 1 1 1 1 1 1 1 1 1 1 1 1 1 1 1 0 0 0 0 0 0 0 0 0 0 0 0 0 0 0 0 0 0 0 0 0 0 0 0 0 0 0 0 0 0 0 0 0 0 0 0 0 0 0 0 0 0 0 0 0 0 0 0 0 "/>
</feComponentTransfer>
<feComposite operator="in" in2="shape" in="coloredNoise1" result="noise1Clipped" />
<feFlood flood-color="rgba(201, 118, 118, 0.17)" result="color1Flood" />
<feComposite operator="in" in2="noise1Clipped" in="color1Flood" result="color1" />
<feMerge result="effect1_noise_1147_1011">
<feMergeNode in="shape" />
<feMergeNode in="color1" />
</feMerge>
</filter>
<filter id="filter1_n_1147_1011" x="6.88428" y="405.329" width="279.818" height="36.7084" filterUnits="userSpaceOnUse" color-interpolation-filters="sRGB">
<feFlood flood-opacity="0" result="BackgroundImageFix"/>
<feBlend mode="normal" in="SourceGraphic" in2="BackgroundImageFix" result="shape"/>
<feTurbulence type="fractalNoise" baseFrequency="5 5" stitchTiles="stitch" numOctaves="3" result="noise" seed="1360" />
<feColorMatrix in="noise" type="luminanceToAlpha" result="alphaNoise" />
<feComponentTransfer in="alphaNoise" result="coloredNoise1">
<feFuncA type="discrete" tableValues="1 1 1 1 1 1 1 1 1 1 1 1 1 1 1 1 1 1 1 1 1 1 1 1 1 1 1 1 1 1 1 1 1 1 1 1 1 1 1 1 1 1 1 1 1 1 1 1 1 1 1 0 0 0 0 0 0 0 0 0 0 0 0 0 0 0 0 0 0 0 0 0 0 0 0 0 0 0 0 0 0 0 0 0 0 0 0 0 0 0 0 0 0 0 0 0 0 0 0 0 "/>
</feComponentTransfer>
<feComposite operator="in" in2="shape" in="coloredNoise1" result="noise1Clipped" />
<feFlood flood-color="rgba(194, 48, 48, 0.25)" result="color1Flood" />
<feComposite operator="in" in2="noise1Clipped" in="color1Flood" result="color1" />
<feMerge result="effect1_noise_1147_1011">
<feMergeNode in="shape" />
<feMergeNode in="color1" />
</feMerge>
</filter>
<filter id="filter2_n_1147_1011" x="565.772" y="91.645" width="56.3552" height="43.1605" filterUnits="userSpaceOnUse" color-interpolation-filters="sRGB">
<feFlood flood-opacity="0" result="BackgroundImageFix"/>
<feBlend mode="normal" in="SourceGraphic" in2="BackgroundImageFix" result="shape"/>
<feTurbulence type="fractalNoise" baseFrequency="10 10" stitchTiles="stitch" numOctaves="3" result="noise" seed="1955" />
<feColorMatrix in="noise" type="luminanceToAlpha" result="alphaNoise" />
<feComponentTransfer in="alphaNoise" result="coloredNoise1">
<feFuncA type="discrete" tableValues="1 1 1 1 1 1 1 1 1 1 1 1 1 1 1 1 1 1 1 1 1 1 1 1 1 1 1 1 1 1 1 1 1 1 1 1 1 1 1 1 1 1 1 1 1 1 1 1 1 1 1 0 0 0 0 0 0 0 0 0 0 0 0 0 0 0 0 0 0 0 0 0 0 0 0 0 0 0 0 0 0 0 0 0 0 0 0 0 0 0 0 0 0 0 0 0 0 0 0 0 "/>
</feComponentTransfer>
<feComposite operator="in" in2="shape" in="coloredNoise1" result="noise1Clipped" />
<feFlood flood-color="rgba(206, 92, 92, 0.1)" result="color1Flood" />
<feComposite operator="in" in2="noise1Clipped" in="color1Flood" result="color1" />
<feMerge result="effect1_noise_1147_1011">
<feMergeNode in="shape" />
<feMergeNode in="color1" />
</feMerge>
</filter>
<filter id="filter3_n_1147_1011" x="489.349" y="81.3032" width="32.9358" height="32.3486" filterUnits="userSpaceOnUse" color-interpolation-filters="sRGB">
<feFlood flood-opacity="0" result="BackgroundImageFix"/>
<feBlend mode="normal" in="SourceGraphic" in2="BackgroundImageFix" result="shape"/>
<feTurbulence type="fractalNoise" baseFrequency="10 10" stitchTiles="stitch" numOctaves="3" result="noise" seed="1955" />
<feColorMatrix in="noise" type="luminanceToAlpha" result="alphaNoise" />
<feComponentTransfer in="alphaNoise" result="coloredNoise1">
<feFuncA type="discrete" tableValues="1 1 1 1 1 1 1 1 1 1 1 1 1 1 1 1 1 1 1 1 1 1 1 1 1 1 1 1 1 1 1 1 1 1 1 1 1 1 1 1 1 1 1 1 1 1 1 1 1 1 1 0 0 0 0 0 0 0 0 0 0 0 0 0 0 0 0 0 0 0 0 0 0 0 0 0 0 0 0 0 0 0 0 0 0 0 0 0 0 0 0 0 0 0 0 0 0 0 0 0 "/>
</feComponentTransfer>
<feComposite operator="in" in2="shape" in="coloredNoise1" result="noise1Clipped" />
<feFlood flood-color="rgba(206, 92, 92, 0.1)" result="color1Flood" />
<feComposite operator="in" in2="noise1Clipped" in="color1Flood" result="color1" />
<feMerge result="effect1_noise_1147_1011">
<feMergeNode in="shape" />
<feMergeNode in="color1" />
</feMerge>
</filter>
<filter id="filter4_n_1147_1011" x="340.013" y="113.774" width="62.9722" height="53.3673" filterUnits="userSpaceOnUse" color-interpolation-filters="sRGB">
<feFlood flood-opacity="0" result="BackgroundImageFix"/>
<feBlend mode="normal" in="SourceGraphic" in2="BackgroundImageFix" result="shape"/>
<feTurbulence type="fractalNoise" baseFrequency="10 10" stitchTiles="stitch" numOctaves="3" result="noise" seed="1955" />
<feColorMatrix in="noise" type="luminanceToAlpha" result="alphaNoise" />
<feComponentTransfer in="alphaNoise" result="coloredNoise1">
<feFuncA type="discrete" tableValues="1 1 1 1 1 1 1 1 1 1 1 1 1 1 1 1 1 1 1 1 1 1 1 1 1 1 1 1 1 1 1 1 1 1 1 1 1 1 1 1 1 1 1 1 1 1 1 1 1 1 1 0 0 0 0 0 0 0 0 0 0 0 0 0 0 0 0 0 0 0 0 0 0 0 0 0 0 0 0 0 0 0 0 0 0 0 0 0 0 0 0 0 0 0 0 0 0 0 0 0 "/>
</feComponentTransfer>
<feComposite operator="in" in2="shape" in="coloredNoise1" result="noise1Clipped" />
<feFlood flood-color="rgba(206, 92, 92, 0.1)" result="color1Flood" />
<feComposite operator="in" in2="noise1Clipped" in="color1Flood" result="color1" />
<feMerge result="effect1_noise_1147_1011">
<feMergeNode in="shape" />
<feMergeNode in="color1" />
</feMerge>
</filter>
<filter id="filter5_n_1147_1011" x="378.544" y="155.258" width="90.9099" height="138.445" filterUnits="userSpaceOnUse" color-interpolation-filters="sRGB">
<feFlood flood-opacity="0" result="BackgroundImageFix"/>
<feBlend mode="normal" in="SourceGraphic" in2="BackgroundImageFix" result="shape"/>
<feTurbulence type="fractalNoise" baseFrequency="10 10" stitchTiles="stitch" numOctaves="3" result="noise" seed="4994" />
<feColorMatrix in="noise" type="luminanceToAlpha" result="alphaNoise" />
<feComponentTransfer in="alphaNoise" result="coloredNoise1">
<feFuncA type="discrete" tableValues="1 1 1 1 1 1 1 1 1 1 1 1 1 1 1 1 1 1 1 1 1 1 1 1 1 1 1 1 1 1 1 1 1 1 1 1 1 1 1 1 1 1 1 1 1 1 1 1 1 1 1 0 0 0 0 0 0 0 0 0 0 0 0 0 0 0 0 0 0 0 0 0 0 0 0 0 0 0 0 0 0 0 0 0 0 0 0 0 0 0 0 0 0 0 0 0 0 0 0 0 "/>
</feComponentTransfer>
<feComposite operator="in" in2="shape" in="coloredNoise1" result="noise1Clipped" />
<feFlood flood-color="rgba(140, 71, 71, 0.14)" result="color1Flood" />
<feComposite operator="in" in2="noise1Clipped" in="color1Flood" result="color1" />
<feMerge result="effect1_noise_1147_1011">
<feMergeNode in="shape" />
<feMergeNode in="color1" />
</feMerge>
</filter>
<filter id="filter6_n_1147_1011" x="479.555" y="126.738" width="103.982" height="153.893" filterUnits="userSpaceOnUse" color-interpolation-filters="sRGB">
<feFlood flood-opacity="0" result="BackgroundImageFix"/>
<feBlend mode="normal" in="SourceGraphic" in2="BackgroundImageFix" result="shape"/>
<feTurbulence type="fractalNoise" baseFrequency="10 10" stitchTiles="stitch" numOctaves="3" result="noise" seed="4994" />
<feColorMatrix in="noise" type="luminanceToAlpha" result="alphaNoise" />
<feComponentTransfer in="alphaNoise" result="coloredNoise1">
<feFuncA type="discrete" tableValues="1 1 1 1 1 1 1 1 1 1 1 1 1 1 1 1 1 1 1 1 1 1 1 1 1 1 1 1 1 1 1 1 1 1 1 1 1 1 1 1 1 1 1 1 1 1 1 1 1 1 1 0 0 0 0 0 0 0 0 0 0 0 0 0 0 0 0 0 0 0 0 0 0 0 0 0 0 0 0 0 0 0 0 0 0 0 0 0 0 0 0 0 0 0 0 0 0 0 0 0 "/>
</feComponentTransfer>
<feComposite operator="in" in2="shape" in="coloredNoise1" result="noise1Clipped" />
<feFlood flood-color="rgba(108, 76, 76, 0.14)" result="color1Flood" />
<feComposite operator="in" in2="noise1Clipped" in="color1Flood" result="color1" />
<feMerge result="effect1_noise_1147_1011">
<feMergeNode in="shape" />
<feMergeNode in="color1" />
</feMerge>
</filter>
<filter id="filter7_n_1147_1011" x="398.746" y="69.696" width="111.112" height="293.526" filterUnits="userSpaceOnUse" color-interpolation-filters="sRGB">
<feFlood flood-opacity="0" result="BackgroundImageFix"/>
<feBlend mode="normal" in="SourceGraphic" in2="BackgroundImageFix" result="shape"/>
<feTurbulence type="fractalNoise" baseFrequency="10 10" stitchTiles="stitch" numOctaves="3" result="noise" seed="4994" />
<feColorMatrix in="noise" type="luminanceToAlpha" result="alphaNoise" />
<feComponentTransfer in="alphaNoise" result="coloredNoise1">
<feFuncA type="discrete" tableValues="1 1 1 1 1 1 1 1 1 1 1 1 1 1 1 1 1 1 1 1 1 1 1 1 1 1 1 1 1 1 1 1 1 1 1 1 1 1 1 1 1 1 1 1 1 1 1 1 1 1 1 0 0 0 0 0 0 0 0 0 0 0 0 0 0 0 0 0 0 0 0 0 0 0 0 0 0 0 0 0 0 0 0 0 0 0 0 0 0 0 0 0 0 0 0 0 0 0 0 0 "/>
</feComponentTransfer>
<feComposite operator="in" in2="shape" in="coloredNoise1" result="noise1Clipped" />
<feFlood flood-color="rgba(108, 76, 76, 0.14)" result="color1Flood" />
<feComposite operator="in" in2="noise1Clipped" in="color1Flood" result="color1" />
<feMerge result="effect1_noise_1147_1011">
<feMergeNode in="shape" />
<feMergeNode in="color1" />
</feMerge>
</filter>
<filter id="filter8_n_1147_1011" x="411.638" y="0" width="86.1594" height="87.5214" filterUnits="userSpaceOnUse" color-interpolation-filters="sRGB">
<feFlood flood-opacity="0" result="BackgroundImageFix"/>
<feBlend mode="normal" in="SourceGraphic" in2="BackgroundImageFix" result="shape"/>
<feTurbulence type="fractalNoise" baseFrequency="10 10" stitchTiles="stitch" numOctaves="3" result="noise" seed="1955" />
<feColorMatrix in="noise" type="luminanceToAlpha" result="alphaNoise" />
<feComponentTransfer in="alphaNoise" result="coloredNoise1">
<feFuncA type="discrete" tableValues="1 1 1 1 1 1 1 1 1 1 1 1 1 1 1 1 1 1 1 1 1 1 1 1 1 1 1 1 1 1 1 1 1 1 1 1 1 1 1 1 1 1 1 1 1 1 1 1 1 1 1 0 0 0 0 0 0 0 0 0 0 0 0 0 0 0 0 0 0 0 0 0 0 0 0 0 0 0 0 0 0 0 0 0 0 0 0 0 0 0 0 0 0 0 0 0 0 0 0 0 "/>
</feComponentTransfer>
<feComposite operator="in" in2="shape" in="coloredNoise1" result="noise1Clipped" />
<feFlood flood-color="rgba(206, 92, 92, 0.1)" result="color1Flood" />
<feComposite operator="in" in2="noise1Clipped" in="color1Flood" result="color1" />
<feMerge result="effect1_noise_1147_1011">
<feMergeNode in="shape" />
<feMergeNode in="color1" />
</feMerge>
</filter>
<linearGradient id="paint0_linear_1147_1011" x1="478.3" y1="431.385" x2="478.3" y2="624.19" gradientUnits="userSpaceOnUse">
<stop stop-color="#DC9F8B"/>
<stop offset="0.811997" stop-color="#D78A7F"/>
</linearGradient>
<linearGradient id="paint1_linear_1147_1011" x1="61.0385" y1="475.546" x2="539.731" y2="527.326" gradientUnits="userSpaceOnUse">
<stop stop-color="#7A3D4B"/>
<stop offset="1" stop-color="#9F5663"/>
</linearGradient>
<linearGradient id="paint2_linear_1147_1011" x1="351.829" y1="519.373" x2="311.774" y2="588.757" gradientUnits="userSpaceOnUse">
<stop stop-color="#823F4F"/>
<stop offset="1" stop-color="#914D5A"/>
</linearGradient>
<linearGradient id="paint3_linear_1147_1011" x1="157.223" y1="459.316" x2="387.433" y2="580.559" gradientUnits="userSpaceOnUse">
<stop stop-color="#7B3944"/>
<stop offset="0.5" stop-color="#7F3D4A"/>
<stop offset="1" stop-color="#7E3945"/>
</linearGradient>
<linearGradient id="paint4_linear_1147_1011" x1="157.223" y1="459.316" x2="387.433" y2="580.559" gradientUnits="userSpaceOnUse">
<stop stop-color="#7B3944"/>
<stop offset="0.5" stop-color="#7F3D4A"/>
<stop offset="1" stop-color="#7E3945"/>
</linearGradient>
<linearGradient id="paint5_linear_1147_1011" x1="157.223" y1="459.316" x2="387.433" y2="580.559" gradientUnits="userSpaceOnUse">
<stop stop-color="#7B3944"/>
<stop offset="0.5" stop-color="#7F3D4A"/>
<stop offset="1" stop-color="#7E3945"/>
</linearGradient>
<linearGradient id="paint6_linear_1147_1011" x1="157.223" y1="459.316" x2="387.433" y2="580.559" gradientUnits="userSpaceOnUse">
<stop stop-color="#7B3944"/>
<stop offset="0.5" stop-color="#7F3D4A"/>
<stop offset="1" stop-color="#7E3945"/>
</linearGradient>
<linearGradient id="paint7_linear_1147_1011" x1="157.223" y1="459.316" x2="387.433" y2="580.559" gradientUnits="userSpaceOnUse">
<stop stop-color="#7B3944"/>
<stop offset="0.5" stop-color="#7F3D4A"/>
<stop offset="1" stop-color="#7E3945"/>
</linearGradient>
<linearGradient id="paint8_linear_1147_1011" x1="175.18" y1="447.86" x2="175.18" y2="503.335" gradientUnits="userSpaceOnUse">
<stop stop-color="#96403D"/>
<stop offset="1" stop-color="#9E5D63" stop-opacity="0.41"/>
</linearGradient>
<linearGradient id="paint9_linear_1147_1011" x1="175.18" y1="447.86" x2="175.18" y2="503.335" gradientUnits="userSpaceOnUse">
<stop stop-color="#96403D"/>
<stop offset="1" stop-color="#9E5D63" stop-opacity="0.41"/>
</linearGradient>
<linearGradient id="paint10_linear_1147_1011" x1="105.671" y1="447.86" x2="105.671" y2="503.754" gradientUnits="userSpaceOnUse">
<stop stop-color="#8C4858"/>
<stop offset="1" stop-color="#7A3D4B"/>
</linearGradient>
<linearGradient id="paint11_linear_1147_1011" x1="91.6789" y1="460.677" x2="76.1793" y2="473.662" gradientUnits="userSpaceOnUse">
<stop stop-color="#7A3444"/>
<stop offset="1" stop-color="#7B3E4B"/>
</linearGradient>
<linearGradient id="paint12_linear_1147_1011" x1="238.961" y1="479.401" x2="318.384" y2="601.761" gradientUnits="userSpaceOnUse">
<stop stop-color="#C67465"/>
<stop offset="1" stop-color="#DC927D"/>
</linearGradient>
<linearGradient id="paint13_linear_1147_1011" x1="238.961" y1="479.401" x2="318.384" y2="601.761" gradientUnits="userSpaceOnUse">
<stop stop-color="#C67465"/>
<stop offset="1" stop-color="#DC927D"/>
</linearGradient>
<linearGradient id="paint14_linear_1147_1011" x1="238.961" y1="479.401" x2="318.384" y2="601.761" gradientUnits="userSpaceOnUse">
<stop stop-color="#C67465"/>
<stop offset="1" stop-color="#DC927D"/>
</linearGradient>
<linearGradient id="paint15_linear_1147_1011" x1="238.961" y1="479.401" x2="318.384" y2="601.761" gradientUnits="userSpaceOnUse">
<stop stop-color="#C67465"/>
<stop offset="1" stop-color="#DC927D"/>
</linearGradient>
<linearGradient id="paint16_linear_1147_1011" x1="863.148" y1="491.541" x2="707.299" y2="459.852" gradientUnits="userSpaceOnUse">
<stop stop-color="#D58C75"/>
<stop offset="0.454968" stop-color="#CE7662"/>
</linearGradient>
<linearGradient id="paint17_linear_1147_1011" x1="863.148" y1="491.541" x2="707.299" y2="459.852" gradientUnits="userSpaceOnUse">
<stop stop-color="#D58C75"/>
<stop offset="0.454968" stop-color="#CE7662"/>
</linearGradient>
<linearGradient id="paint18_linear_1147_1011" x1="723.679" y1="446.742" x2="723.679" y2="504.775" gradientUnits="userSpaceOnUse">
<stop stop-color="#A35B48"/>
<stop offset="0.5" stop-color="#C17468"/>
<stop offset="0.983041" stop-color="#B85555"/>
</linearGradient>
<linearGradient id="paint19_linear_1147_1011" x1="723.679" y1="446.742" x2="723.679" y2="504.775" gradientUnits="userSpaceOnUse">
<stop stop-color="#A35B48"/>
<stop offset="0.5" stop-color="#C17468"/>
<stop offset="0.983041" stop-color="#B85555"/>
</linearGradient>
<linearGradient id="paint20_linear_1147_1011" x1="723.679" y1="446.742" x2="723.679" y2="504.775" gradientUnits="userSpaceOnUse">
<stop stop-color="#A35B48"/>
<stop offset="0.5" stop-color="#C17468"/>
<stop offset="0.983041" stop-color="#B85555"/>
</linearGradient>
<linearGradient id="paint21_linear_1147_1011" x1="723.679" y1="446.742" x2="723.679" y2="504.775" gradientUnits="userSpaceOnUse">
<stop stop-color="#A35B48"/>
<stop offset="0.5" stop-color="#C17468"/>
<stop offset="0.983041" stop-color="#B85555"/>
</linearGradient>
<linearGradient id="paint22_linear_1147_1011" x1="723.679" y1="446.742" x2="723.679" y2="504.775" gradientUnits="userSpaceOnUse">
<stop stop-color="#A35B48"/>
<stop offset="0.5" stop-color="#C17468"/>
<stop offset="0.983041" stop-color="#B85555"/>
</linearGradient>
<linearGradient id="paint23_linear_1147_1011" x1="723.679" y1="446.742" x2="723.679" y2="504.775" gradientUnits="userSpaceOnUse">
<stop stop-color="#A35B48"/>
<stop offset="0.5" stop-color="#C17468"/>
<stop offset="0.983041" stop-color="#B85555"/>
</linearGradient>
<linearGradient id="paint24_linear_1147_1011" x1="723.679" y1="446.742" x2="723.679" y2="504.775" gradientUnits="userSpaceOnUse">
<stop stop-color="#A35B48"/>
<stop offset="0.5" stop-color="#C17468"/>
<stop offset="0.983041" stop-color="#B85555"/>
</linearGradient>
<linearGradient id="paint25_linear_1147_1011" x1="723.679" y1="446.742" x2="723.679" y2="504.775" gradientUnits="userSpaceOnUse">
<stop stop-color="#A35B48"/>
<stop offset="0.5" stop-color="#C17468"/>
<stop offset="0.983041" stop-color="#B85555"/>
</linearGradient>
<linearGradient id="paint26_linear_1147_1011" x1="723.679" y1="446.742" x2="723.679" y2="504.775" gradientUnits="userSpaceOnUse">
<stop stop-color="#A35B48"/>
<stop offset="0.5" stop-color="#C17468"/>
<stop offset="0.983041" stop-color="#B85555"/>
</linearGradient>
<linearGradient id="paint27_linear_1147_1011" x1="723.679" y1="446.742" x2="723.679" y2="504.775" gradientUnits="userSpaceOnUse">
<stop stop-color="#A35B48"/>
<stop offset="0.5" stop-color="#C17468"/>
<stop offset="0.983041" stop-color="#B85555"/>
</linearGradient>
<linearGradient id="paint28_linear_1147_1011" x1="723.679" y1="446.742" x2="723.679" y2="504.775" gradientUnits="userSpaceOnUse">
<stop stop-color="#A35B48"/>
<stop offset="0.5" stop-color="#C17468"/>
<stop offset="0.983041" stop-color="#B85555"/>
</linearGradient>
<linearGradient id="paint29_linear_1147_1011" x1="723.679" y1="446.742" x2="723.679" y2="504.775" gradientUnits="userSpaceOnUse">
<stop stop-color="#A35B48"/>
<stop offset="0.5" stop-color="#C17468"/>
<stop offset="0.983041" stop-color="#B85555"/>
</linearGradient>
<linearGradient id="paint30_linear_1147_1011" x1="723.679" y1="446.742" x2="723.679" y2="504.775" gradientUnits="userSpaceOnUse">
<stop stop-color="#A35B48"/>
<stop offset="0.5" stop-color="#C17468"/>
<stop offset="0.983041" stop-color="#B85555"/>
</linearGradient>
<linearGradient id="paint31_linear_1147_1011" x1="723.679" y1="446.742" x2="723.679" y2="504.775" gradientUnits="userSpaceOnUse">
<stop stop-color="#A35B48"/>
<stop offset="0.5" stop-color="#C17468"/>
<stop offset="0.983041" stop-color="#B85555"/>
</linearGradient>
<linearGradient id="paint32_linear_1147_1011" x1="0" y1="440.746" x2="666.466" y2="440.746" gradientUnits="userSpaceOnUse">
<stop stop-color="#F3B098"/>
<stop offset="1" stop-color="#FBCFB9"/>
</linearGradient>
<linearGradient id="paint33_linear_1147_1011" x1="444.398" y1="425.005" x2="444.398" y2="473.34" gradientUnits="userSpaceOnUse">
<stop stop-color="#E6A47D"/>
<stop offset="0.5" stop-color="#D69981"/>
<stop offset="1" stop-color="#E6B89E"/>
</linearGradient>
<linearGradient id="paint34_linear_1147_1011" x1="444.398" y1="425.005" x2="444.398" y2="473.34" gradientUnits="userSpaceOnUse">
<stop stop-color="#E6A47D"/>
<stop offset="0.5" stop-color="#D69981"/>
<stop offset="1" stop-color="#E6B89E"/>
</linearGradient>
<linearGradient id="paint35_linear_1147_1011" x1="444.398" y1="425.005" x2="444.398" y2="473.34" gradientUnits="userSpaceOnUse">
<stop stop-color="#E6A47D"/>
<stop offset="0.5" stop-color="#D69981"/>
<stop offset="1" stop-color="#E6B89E"/>
</linearGradient>
<linearGradient id="paint36_linear_1147_1011" x1="444.398" y1="425.005" x2="444.398" y2="473.34" gradientUnits="userSpaceOnUse">
<stop stop-color="#E6A47D"/>
<stop offset="0.5" stop-color="#D69981"/>
<stop offset="1" stop-color="#E6B89E"/>
</linearGradient>
<linearGradient id="paint37_linear_1147_1011" x1="444.398" y1="425.005" x2="444.398" y2="473.34" gradientUnits="userSpaceOnUse">
<stop stop-color="#E6A47D"/>
<stop offset="0.5" stop-color="#D69981"/>
<stop offset="1" stop-color="#E6B89E"/>
</linearGradient>
<linearGradient id="paint38_linear_1147_1011" x1="444.398" y1="425.005" x2="444.398" y2="473.34" gradientUnits="userSpaceOnUse">
<stop stop-color="#E6A47D"/>
<stop offset="0.5" stop-color="#D69981"/>
<stop offset="1" stop-color="#E6B89E"/>
</linearGradient>
<linearGradient id="paint39_linear_1147_1011" x1="444.398" y1="425.005" x2="444.398" y2="473.34" gradientUnits="userSpaceOnUse">
<stop stop-color="#E6A47D"/>
<stop offset="0.5" stop-color="#D69981"/>
<stop offset="1" stop-color="#E6B89E"/>
</linearGradient>
<linearGradient id="paint40_linear_1147_1011" x1="444.398" y1="425.005" x2="444.398" y2="473.34" gradientUnits="userSpaceOnUse">
<stop stop-color="#E6A47D"/>
<stop offset="0.5" stop-color="#D69981"/>
<stop offset="1" stop-color="#E6B89E"/>
</linearGradient>
<linearGradient id="paint41_linear_1147_1011" x1="444.398" y1="425.005" x2="444.398" y2="473.34" gradientUnits="userSpaceOnUse">
<stop stop-color="#E6A47D"/>
<stop offset="0.5" stop-color="#D69981"/>
<stop offset="1" stop-color="#E6B89E"/>
</linearGradient>
<linearGradient id="paint42_linear_1147_1011" x1="444.398" y1="425.005" x2="444.398" y2="473.34" gradientUnits="userSpaceOnUse">
<stop stop-color="#E6A47D"/>
<stop offset="0.5" stop-color="#D69981"/>
<stop offset="1" stop-color="#E6B89E"/>
</linearGradient>
<linearGradient id="paint43_linear_1147_1011" x1="444.398" y1="425.005" x2="444.398" y2="473.34" gradientUnits="userSpaceOnUse">
<stop stop-color="#E6A47D"/>
<stop offset="0.5" stop-color="#D69981"/>
<stop offset="1" stop-color="#E6B89E"/>
</linearGradient>
<linearGradient id="paint44_linear_1147_1011" x1="444.398" y1="425.005" x2="444.398" y2="473.34" gradientUnits="userSpaceOnUse">
<stop stop-color="#E6A47D"/>
<stop offset="0.5" stop-color="#D69981"/>
<stop offset="1" stop-color="#E6B89E"/>
</linearGradient>
<linearGradient id="paint45_linear_1147_1011" x1="444.398" y1="425.005" x2="444.398" y2="473.34" gradientUnits="userSpaceOnUse">
<stop stop-color="#E6A47D"/>
<stop offset="0.5" stop-color="#D69981"/>
<stop offset="1" stop-color="#E6B89E"/>
</linearGradient>
<linearGradient id="paint46_linear_1147_1011" x1="444.398" y1="425.005" x2="444.398" y2="473.34" gradientUnits="userSpaceOnUse">
<stop stop-color="#E6A47D"/>
<stop offset="0.5" stop-color="#D69981"/>
<stop offset="1" stop-color="#E6B89E"/>
</linearGradient>
<linearGradient id="paint47_linear_1147_1011" x1="444.398" y1="425.005" x2="444.398" y2="473.34" gradientUnits="userSpaceOnUse">
<stop stop-color="#E6A47D"/>
<stop offset="0.5" stop-color="#D69981"/>
<stop offset="1" stop-color="#E6B89E"/>
</linearGradient>
<linearGradient id="paint48_linear_1147_1011" x1="444.398" y1="425.005" x2="444.398" y2="473.34" gradientUnits="userSpaceOnUse">
<stop stop-color="#E6A47D"/>
<stop offset="0.5" stop-color="#D69981"/>
<stop offset="1" stop-color="#E6B89E"/>
</linearGradient>
<linearGradient id="paint49_linear_1147_1011" x1="444.398" y1="425.005" x2="444.398" y2="473.34" gradientUnits="userSpaceOnUse">
<stop stop-color="#E6A47D"/>
<stop offset="0.5" stop-color="#D69981"/>
<stop offset="1" stop-color="#E6B89E"/>
</linearGradient>
<linearGradient id="paint50_linear_1147_1011" x1="6.88428" y1="421.556" x2="286.702" y2="421.556" gradientUnits="userSpaceOnUse">
<stop stop-color="#E9AA9E"/>
<stop offset="1" stop-color="#E07F6F"/>
</linearGradient>
<linearGradient id="paint51_linear_1147_1011" x1="201.104" y1="398.818" x2="623.365" y2="398.818" gradientUnits="userSpaceOnUse">
<stop stop-color="#99523A"/>
<stop offset="0.471884" stop-color="#CE7E55"/>
<stop offset="0.978905" stop-color="#F2AA7A"/>
</linearGradient>
<linearGradient id="paint52_linear_1147_1011" x1="201.103" y1="396.61" x2="588.097" y2="391.614" gradientUnits="userSpaceOnUse">
<stop stop-color="#8C452D"/>
<stop offset="0.5" stop-color="#82402A"/>
<stop offset="1" stop-color="#A35931"/>
</linearGradient>
<linearGradient id="paint53_linear_1147_1011" x1="576.064" y1="374.71" x2="590.61" y2="439.27" gradientUnits="userSpaceOnUse">
<stop stop-color="#B87243"/>
<stop offset="1" stop-color="#DD9765"/>
</linearGradient>
<linearGradient id="paint54_linear_1147_1011" x1="576.064" y1="374.71" x2="590.61" y2="439.27" gradientUnits="userSpaceOnUse">
<stop stop-color="#B87243"/>
<stop offset="1" stop-color="#DD9765"/>
</linearGradient>
<linearGradient id="paint55_linear_1147_1011" x1="576.064" y1="374.71" x2="590.61" y2="439.27" gradientUnits="userSpaceOnUse">
<stop stop-color="#B87243"/>
<stop offset="1" stop-color="#DD9765"/>
</linearGradient>
<linearGradient id="paint56_linear_1147_1011" x1="576.064" y1="374.71" x2="590.61" y2="439.27" gradientUnits="userSpaceOnUse">
<stop stop-color="#B87243"/>
<stop offset="1" stop-color="#DD9765"/>
</linearGradient>
<linearGradient id="paint57_linear_1147_1011" x1="576.064" y1="374.71" x2="590.61" y2="439.27" gradientUnits="userSpaceOnUse">
<stop stop-color="#B87243"/>
<stop offset="1" stop-color="#DD9765"/>
</linearGradient>
<linearGradient id="paint58_linear_1147_1011" x1="576.064" y1="374.71" x2="590.61" y2="439.27" gradientUnits="userSpaceOnUse">
<stop stop-color="#B87243"/>
<stop offset="1" stop-color="#DD9765"/>
</linearGradient>
<linearGradient id="paint59_linear_1147_1011" x1="622.127" y1="107.3" x2="582.19" y2="144.085" gradientUnits="userSpaceOnUse">
<stop stop-color="#E1CCC9"/>
<stop offset="1" stop-color="#CA8285"/>
</linearGradient>
<linearGradient id="paint60_linear_1147_1011" x1="505.816" y1="81.3032" x2="505.816" y2="113.652" gradientUnits="userSpaceOnUse">
<stop stop-color="#D3A2A2"/>
<stop offset="1" stop-color="#B99E94"/>
</linearGradient>
<linearGradient id="paint61_linear_1147_1011" x1="371.499" y1="113.774" x2="371.499" y2="167.142" gradientUnits="userSpaceOnUse">
<stop stop-color="#E1CCC9"/>
<stop offset="1" stop-color="#C18184"/>
</linearGradient>
<linearGradient id="paint62_linear_1147_1011" x1="423.999" y1="155.258" x2="423.999" y2="293.703" gradientUnits="userSpaceOnUse">
<stop stop-color="#88706B"/>
<stop offset="1" stop-color="#563831"/>
</linearGradient>
<linearGradient id="paint63_linear_1147_1011" x1="455.818" y1="142.285" x2="448.955" y2="363.222" gradientUnits="userSpaceOnUse">
<stop stop-color="#82635E"/>
<stop offset="1" stop-color="#6F5352"/>
</linearGradient>
<linearGradient id="paint64_linear_1147_1011" x1="454.718" y1="0" x2="454.718" y2="87.5214" gradientUnits="userSpaceOnUse">
<stop stop-color="#F9D6D3"/>
<stop offset="1" stop-color="#CB8383"/>
</linearGradient>
</defs>
</svg>
