<svg width="163" height="164" viewBox="0 0 163 164" fill="none" xmlns="http://www.w3.org/2000/svg">
<g filter="url(#filter0_n_940_1755)">
<path d="M73.6656 164C101.367 161.57 92.7778 116.778 45 85.6667C73.6656 102.889 85.8151 109.935 96.1422 134.841C96.1422 134.841 101.667 109.573 115 97.5C129.216 84.6284 130.349 87.6656 120.5 98.5C103.833 116.833 100.382 134.841 105.254 146.991C111.95 155.543 129.478 163.583 136.843 164H73.6656Z" fill="url(#paint0_linear_940_1755)"/>
</g>
<g filter="url(#filter1_n_940_1755)">
<path d="M57.0969 93.9345L60.1961 96.6135C42.1392 53.5843 13.3215 66.9217 1.16969 78.969C4.65826 77.4188 8.67744 77.6281 11.9861 79.5324L26.1677 87.6944C29.2138 89.4476 32.7064 90.2706 36.2148 90.062L44.2575 89.5839C48.9407 89.3054 53.5476 90.8665 57.0969 93.9345Z" fill="url(#paint1_linear_940_1755)"/>
</g>
<g filter="url(#filter2_n_940_1755)">
<path d="M124.298 93.3429L123.97 93.7707C129.792 62.4008 151.516 67.2544 161.649 73.6024C159.025 73.0571 156.298 73.7808 154.289 75.5554L147.106 81.9009C144.49 84.2124 141.258 85.7131 137.803 86.2203L135.965 86.4902C131.332 87.1703 127.147 89.6283 124.298 93.3429Z" fill="url(#paint2_linear_940_1755)"/>
</g>
<path d="M103.333 138.444H91.1111C93.5555 134.703 95.6944 67.2559 96.4583 34H99.5139L103.333 138.444Z" fill="#6D4F49"/>
<g filter="url(#filter3_n_940_1755)">
<path d="M118.679 23.6021C119.434 14.3011 113.334 13.7645 110.189 14.6588C113.208 0.349687 102.014 -0.842858 96.04 0.349513C83.211 -1.79687 81.2615 8.99473 81.8904 14.6588C75.0986 13.228 74.0295 20.0248 74.344 23.6021C71.3254 40.7732 88.9092 44.1262 98.3422 42.3375C119.472 44.4839 120.88 29.8623 118.679 23.6021Z" fill="url(#paint3_linear_940_1755)"/>
</g>
<defs>
<filter id="filter0_n_940_1755" x="45" y="85.6667" width="91.8431" height="78.3333" filterUnits="userSpaceOnUse" color-interpolation-filters="sRGB">
<feFlood flood-opacity="0" result="BackgroundImageFix"/>
<feBlend mode="normal" in="SourceGraphic" in2="BackgroundImageFix" result="shape"/>
<feTurbulence type="fractalNoise" baseFrequency="10 10" stitchTiles="stitch" numOctaves="3" result="noise" seed="1277" />
<feColorMatrix in="noise" type="luminanceToAlpha" result="alphaNoise" />
<feComponentTransfer in="alphaNoise" result="coloredNoise1">
<feFuncA type="discrete" tableValues="1 1 1 1 1 1 1 1 1 1 1 1 1 1 1 1 1 1 1 1 1 1 1 1 1 1 1 1 1 1 1 1 1 1 1 1 1 1 1 1 1 1 1 1 1 1 1 1 1 1 1 0 0 0 0 0 0 0 0 0 0 0 0 0 0 0 0 0 0 0 0 0 0 0 0 0 0 0 0 0 0 0 0 0 0 0 0 0 0 0 0 0 0 0 0 0 0 0 0 0 "/>
</feComponentTransfer>
<feComposite operator="in" in2="shape" in="coloredNoise1" result="noise1Clipped" />
<feFlood flood-color="rgba(0, 0, 0, 0.25)" result="color1Flood" />
<feComposite operator="in" in2="noise1Clipped" in="color1Flood" result="color1" />
<feMerge result="effect1_noise_940_1755">
<feMergeNode in="shape" />
<feMergeNode in="color1" />
</feMerge>
</filter>
<filter id="filter1_n_940_1755" x="1.16968" y="67.1055" width="59.0265" height="29.5079" filterUnits="userSpaceOnUse" color-interpolation-filters="sRGB">
<feFlood flood-opacity="0" result="BackgroundImageFix"/>
<feBlend mode="normal" in="SourceGraphic" in2="BackgroundImageFix" result="shape"/>
<feTurbulence type="fractalNoise" baseFrequency="10 10" stitchTiles="stitch" numOctaves="3" result="noise" seed="5432" />
<feColorMatrix in="noise" type="luminanceToAlpha" result="alphaNoise" />
<feComponentTransfer in="alphaNoise" result="coloredNoise1">
<feFuncA type="discrete" tableValues="1 1 1 1 1 1 1 1 1 1 1 1 1 1 1 1 1 1 1 1 1 1 1 1 1 1 1 1 1 1 1 1 1 1 1 1 1 1 1 1 1 1 1 1 1 1 1 1 1 1 1 0 0 0 0 0 0 0 0 0 0 0 0 0 0 0 0 0 0 0 0 0 0 0 0 0 0 0 0 0 0 0 0 0 0 0 0 0 0 0 0 0 0 0 0 0 0 0 0 0 "/>
</feComponentTransfer>
<feComposite operator="in" in2="shape" in="coloredNoise1" result="noise1Clipped" />
<feFlood flood-color="rgba(0, 0, 0, 0.25)" result="color1Flood" />
<feComposite operator="in" in2="noise1Clipped" in="color1Flood" result="color1" />
<feMerge result="effect1_noise_940_1755">
<feMergeNode in="shape" />
<feMergeNode in="color1" />
</feMerge>
</filter>
<filter id="filter2_n_940_1755" x="123.97" y="68.9167" width="37.6799" height="24.8539" filterUnits="userSpaceOnUse" color-interpolation-filters="sRGB">
<feFlood flood-opacity="0" result="BackgroundImageFix"/>
<feBlend mode="normal" in="SourceGraphic" in2="BackgroundImageFix" result="shape"/>
<feTurbulence type="fractalNoise" baseFrequency="10 10" stitchTiles="stitch" numOctaves="3" result="noise" seed="5234" />
<feColorMatrix in="noise" type="luminanceToAlpha" result="alphaNoise" />
<feComponentTransfer in="alphaNoise" result="coloredNoise1">
<feFuncA type="discrete" tableValues="1 1 1 1 1 1 1 1 1 1 1 1 1 1 1 1 1 1 1 1 1 1 1 1 1 1 1 1 1 1 1 1 1 1 1 1 1 1 1 1 1 1 1 1 1 1 1 1 1 1 1 0 0 0 0 0 0 0 0 0 0 0 0 0 0 0 0 0 0 0 0 0 0 0 0 0 0 0 0 0 0 0 0 0 0 0 0 0 0 0 0 0 0 0 0 0 0 0 0 0 "/>
</feComponentTransfer>
<feComposite operator="in" in2="shape" in="coloredNoise1" result="noise1Clipped" />
<feFlood flood-color="rgba(0, 0, 0, 0.25)" result="color1Flood" />
<feComposite operator="in" in2="noise1Clipped" in="color1Flood" result="color1" />
<feMerge result="effect1_noise_940_1755">
<feMergeNode in="shape" />
<feMergeNode in="color1" />
</feMerge>
</filter>
<filter id="filter3_n_940_1755" x="74" y="0" width="45.4393" height="42.7664" filterUnits="userSpaceOnUse" color-interpolation-filters="sRGB">
<feFlood flood-opacity="0" result="BackgroundImageFix"/>
<feBlend mode="normal" in="SourceGraphic" in2="BackgroundImageFix" result="shape"/>
<feTurbulence type="fractalNoise" baseFrequency="10 10" stitchTiles="stitch" numOctaves="3" result="noise" seed="7630" />
<feColorMatrix in="noise" type="luminanceToAlpha" result="alphaNoise" />
<feComponentTransfer in="alphaNoise" result="coloredNoise1">
<feFuncA type="discrete" tableValues="1 1 1 1 1 1 1 1 1 1 1 1 1 1 1 1 1 1 1 1 1 1 1 1 1 1 1 1 1 1 1 1 1 1 1 1 1 1 1 1 1 1 1 1 1 1 1 1 1 1 1 0 0 0 0 0 0 0 0 0 0 0 0 0 0 0 0 0 0 0 0 0 0 0 0 0 0 0 0 0 0 0 0 0 0 0 0 0 0 0 0 0 0 0 0 0 0 0 0 0 "/>
</feComponentTransfer>
<feComposite operator="in" in2="shape" in="coloredNoise1" result="noise1Clipped" />
<feFlood flood-color="rgba(99, 0, 10, 0.09)" result="color1Flood" />
<feComposite operator="in" in2="noise1Clipped" in="color1Flood" result="color1" />
<feMerge result="effect1_noise_940_1755">
<feMergeNode in="shape" />
<feMergeNode in="color1" />
</feMerge>
</filter>
<linearGradient id="paint0_linear_940_1755" x1="99.7871" y1="145.168" x2="132.591" y2="182.832" gradientUnits="userSpaceOnUse">
<stop stop-color="#7B5953"/>
<stop offset="1" stop-color="#977775"/>
</linearGradient>
<linearGradient id="paint1_linear_940_1755" x1="21.3827" y1="66.835" x2="38.8334" y2="106.106" gradientUnits="userSpaceOnUse">
<stop stop-color="#AAAE8F"/>
<stop offset="1" stop-color="#746D56"/>
</linearGradient>
<linearGradient id="paint2_linear_940_1755" x1="145.991" y1="68.3371" x2="140.013" y2="97.1047" gradientUnits="userSpaceOnUse">
<stop stop-color="#A8AE87"/>
<stop offset="1" stop-color="#6C644A"/>
</linearGradient>
<linearGradient id="paint3_linear_940_1755" x1="96.7196" y1="0" x2="96.7196" y2="42.7664" gradientUnits="userSpaceOnUse">
<stop stop-color="#E1CCC9"/>
<stop offset="1" stop-color="#C18184"/>
</linearGradient>
</defs>
</svg>
