<svg width="240" height="175" viewBox="0 0 240 175" fill="none" xmlns="http://www.w3.org/2000/svg">
<g filter="url(#filter0_n_1135_148)">
<path d="M17.9505 172.846C13.1638 150.478 41.8839 116.926 56.8422 102.945C32.9089 106.504 16.1555 144.674 10.7705 163.314L17.9505 172.846Z" fill="#B3948D"/>
<path d="M0 156.324C4.78667 146.58 17.4713 124.678 29.9167 115.019C40.6867 105.275 58.9957 77.7807 46.0717 45.7534L42.4817 34.9505L29.9167 22.2412L31.1133 20.9703L41.8834 31.1377L40.6867 17.793L45.4734 33.6796L55.0467 55.2853C59.6339 42.3642 70.1247 13.726 75.39 2.54185L77.185 4.44824C71.9995 16.0984 61.8677 40.5426 62.825 45.1179C69.8056 41.0933 84.365 31.519 86.7584 25.4185C87.3567 28.384 83.7667 36.984 64.62 47.6598C61.4289 51.8962 55.645 62.7838 58.0384 72.4428C57.44 78.162 55.4057 90.6171 52.055 94.6841C66.6145 88.9649 102.315 66.2153 128.642 20.9703L129.24 21.6058C122.459 33.8914 107.341 59.7336 101.118 64.8173C109.495 61.64 127.206 54.1415 131.035 49.5662C137.417 40.8815 150.9 21.8599 153.772 15.2511L155.567 15.8866C149.583 25.8422 137.497 46.2617 137.018 48.2952L160.353 38.1278C165.738 31.3495 177.107 17.4117 179.5 15.8866L181.295 16.5221C175.91 22.453 165.14 34.6963 165.14 36.2214C176.11 34.5269 198.886 30.2481 202.237 26.6895C206.425 21.6058 215.759 9.15067 219.588 0H220.785C218.686 5.06611 214.141 15.3278 212.075 17.5428L227.965 2.54185L229.162 4.44824C221.982 10.8029 207.502 23.8934 207.023 25.4185C215.001 24.7831 232.512 21.8599 238.735 15.2511L239.932 15.8866C237.538 18.6403 227.606 25.1644 207.023 29.2313C181.096 37.2805 129.12 54.5228 128.642 59.0981L126.847 61.0045C134.027 61.4281 148.865 62.7838 150.78 64.8173C158.758 61.8518 175.192 56.175 177.107 57.1917C170.525 59.3099 157.362 63.9276 157.362 65.4527L184.287 64.8173V66.0882L174.115 66.7237L181.295 74.9847L171.722 67.9946H148.985C136.221 66.0882 109.136 64.0547 102.913 71.1719C81.7723 85.3639 52.055 106.939 38.2934 119.467C28.5206 128.364 22.1383 139.167 10.77 164.585C10.1717 168.61 8.97501 176.278 8.97501 174.752C8.97501 173.227 2.99167 161.831 0 156.324Z" fill="url(#paint0_linear_1135_148)"/>
</g>
<defs>
<filter id="filter0_n_1135_148" x="0" y="0" width="239.932" height="174.95" filterUnits="userSpaceOnUse" color-interpolation-filters="sRGB">
<feFlood flood-opacity="0" result="BackgroundImageFix"/>
<feBlend mode="normal" in="SourceGraphic" in2="BackgroundImageFix" result="shape"/>
<feTurbulence type="fractalNoise" baseFrequency="10 10" stitchTiles="stitch" numOctaves="3" result="noise" seed="6985" />
<feColorMatrix in="noise" type="luminanceToAlpha" result="alphaNoise" />
<feComponentTransfer in="alphaNoise" result="coloredNoise1">
<feFuncA type="discrete" tableValues="1 1 1 1 1 1 1 1 1 1 1 1 1 1 1 1 1 1 1 1 1 1 1 1 1 1 1 1 1 1 1 1 1 1 1 1 1 1 1 1 1 1 1 1 1 1 1 1 1 1 1 0 0 0 0 0 0 0 0 0 0 0 0 0 0 0 0 0 0 0 0 0 0 0 0 0 0 0 0 0 0 0 0 0 0 0 0 0 0 0 0 0 0 0 0 0 0 0 0 0 "/>
</feComponentTransfer>
<feComposite operator="in" in2="shape" in="coloredNoise1" result="noise1Clipped" />
<feFlood flood-color="rgba(113, 25, 25, 0.24)" result="color1Flood" />
<feComposite operator="in" in2="noise1Clipped" in="color1Flood" result="color1" />
<feMerge result="effect1_noise_1135_148">
<feMergeNode in="shape" />
<feMergeNode in="color1" />
</feMerge>
</filter>
<linearGradient id="paint0_linear_1135_148" x1="224.973" y1="-4.44823" x2="69.5012" y2="153.339" gradientUnits="userSpaceOnUse">
<stop stop-color="#975350"/>
<stop offset="1" stop-color="#80615D"/>
</linearGradient>
</defs>
</svg>
