<svg width="963" height="766" viewBox="0 0 963 766" fill="none" xmlns="http://www.w3.org/2000/svg">
<g filter="url(#filter0_n_1147_1019)">
<path d="M33.1659 617.764L6.34008 590.543C4.48295 588.658 3.44189 586.118 3.44189 583.473C3.44189 577.913 7.94702 573.404 13.507 573.4L942.643 572.739C948.449 572.735 953.158 577.44 953.158 583.246C953.158 586.193 951.921 589.003 949.749 590.994L934.094 605.339L910.363 626.316C903.396 632.474 894.956 636.729 885.861 638.669L792.778 658.52C783.705 660.454 775.35 664.877 768.648 671.292C744.564 694.345 713.355 708.52 680.149 711.489L616.653 717.167C611.556 717.623 606.716 719.397 602.415 722.17C582.421 735.061 519.893 772.003 470.441 764.555C416.079 756.368 378.212 734.207 362.667 723.631C357.423 720.063 351.347 717.719 345.01 717.454L287.568 715.053C255.953 713.731 225.609 702.243 201.045 682.297L184.072 668.514C176.961 662.74 168.497 658.869 159.478 657.267L100.44 646.777C97.2744 646.215 94.1657 645.371 91.1506 644.256L51.4312 629.562C44.551 627.017 38.3151 622.989 33.1659 617.764Z" fill="url(#paint0_linear_1147_1019)"/>
<path d="M31.9017 618.047L5.153 590.789C3.29988 588.9 2.26172 586.36 2.26172 583.715C2.26172 578.139 6.77933 573.618 12.3547 573.614L535.25 573.241C541.881 573.236 547.259 578.61 547.259 585.241V617.305C546.781 634.435 541.323 657.074 538.654 666.252C532.864 684.726 511.6 720.902 501.691 736.68C498.065 744.78 488.191 752.311 478.989 757.749C470.347 762.857 460.006 763.955 450.201 761.801C405.603 752.001 374.418 733.531 360.673 724.144C355.421 720.556 349.339 718.205 342.983 717.939L285.995 715.546C254.285 714.215 223.858 702.657 199.261 682.599L182.509 668.938C175.39 663.134 166.909 659.241 157.867 657.628L99.0617 647.135C95.8855 646.568 92.7663 645.718 89.7418 644.595L50.1765 629.896C43.2882 627.337 37.0485 623.291 31.9017 618.047Z" fill="url(#paint1_linear_1147_1019)"/>
<path d="M335.193 611.957L234.494 605.982C226.912 625.225 240.792 644.573 248.68 651.842L278.701 663.769L313.89 712.28L355.674 714.683C373.643 729.248 387.249 730.999 391.807 730.054C389.55 728.659 386.152 716.54 383.905 710.502C382.625 697.897 376.326 681.084 374.352 675.35C358.558 666.178 337.433 628.357 335.193 611.957Z" fill="url(#paint2_linear_1147_1019)" fill-opacity="0.88"/>
<path d="M234.524 605.92C232.965 620.056 239.135 649.257 276.289 652.968C284.346 655.242 299.809 664.592 297.201 683.801C301.146 690.037 308.093 700.794 311.853 705.956C312.801 707.049 313.661 708.038 314.395 708.881C314.172 708.978 313.225 707.839 311.853 705.956C306.018 699.232 296.846 688.592 292.936 683.801C286.355 676.819 267.341 663.512 243.933 666.138C232.334 667.755 206.833 664.768 197.629 639.881C198.005 648.495 207.792 666.805 243.933 671.138C250.871 673.665 265.651 681.059 269.273 690.416C274.038 694.035 284.183 702.161 286.646 705.717C276.448 697.824 251.897 681.245 235.273 678.075C241.217 685.45 253.538 700.42 255.279 701.294C251.394 706.966 230.204 709.421 176.378 660.839C169.688 657.927 151.017 652.654 140.346 650.12C130.363 636.963 109.966 613.372 104.696 593.958L102.513 589.207C142.219 592.439 224.21 600.307 234.524 605.92Z" fill="url(#paint3_linear_1147_1019)"/>
<path d="M381.423 614.806H372.811C377.389 628.447 386.544 656.099 386.544 657.583C394.224 683.757 405.164 692.44 406.095 695.013C416.894 703.982 422.387 719.483 423.784 726.113C423.784 713.766 413.388 698.52 408.189 692.44C399.438 677.475 386.699 634.449 381.423 614.806Z" fill="url(#paint4_linear_1147_1019)"/>
<path d="M372.811 673.074C355.209 663.468 339.475 628.211 333.808 611.783H331.039C335.793 627.979 348.154 647.341 353.741 654.998C357.747 662.136 367.215 670.501 371.449 673.791C376.558 677.579 380.605 693.767 381.989 701.387C383.477 716.388 389.306 725.062 392.034 727.523C388.699 724.061 385.549 713.653 384.391 708.881C380.723 683.804 375.143 674.561 372.811 673.074Z" fill="url(#paint5_linear_1147_1019)"/>
<path d="M430.587 698.155C426.611 693.181 427.118 686.16 427.868 683.271C431.579 670.072 428.374 656.645 426.248 651.406C432.228 664.575 432.07 674.305 431.243 677.524C426.818 687.397 428.962 695.392 430.587 698.155Z" fill="url(#paint6_linear_1147_1019)"/>
<path d="M440.433 682.611C450.747 691.058 465.825 712.813 443.621 732.257C451.028 724.25 460.762 703.11 440.433 682.611Z" fill="url(#paint7_linear_1147_1019)"/>
<path d="M104.129 590.704L95.5347 589.207C99.6205 599.021 109.35 612.154 113.704 617.494C125.961 636.083 139.812 650.117 141.285 649.525C139.223 648.933 118.713 621.638 118.713 620.306C112.349 612.728 106.338 597.414 104.129 590.704Z" fill="url(#paint8_linear_1147_1019)"/>
<path d="M238.865 624.934C236.363 609.013 232.903 604.764 231.486 604.63C229.241 608.175 233.705 618.945 236.218 623.887C242.827 642.129 251.376 645.293 254.824 644.594C246.74 642.145 240.816 630.467 238.865 624.934Z" fill="url(#paint9_linear_1147_1019)"/>
<path d="M88.4285 590.451L76.3301 589.207C79.3023 601.534 91.9851 614.314 97.9549 619.164C109.31 627.433 111.133 636.965 110.625 640.698L135.013 645.1C133.946 642.191 118.31 623.917 110.625 615.144C102.852 611.469 92.5884 597.151 88.4285 590.451Z" fill="url(#paint10_linear_1147_1019)"/>
<path d="M74.4363 590.451L62.3379 589.207C65.3102 601.534 77.9929 614.314 83.9628 619.164C95.3182 627.433 97.1409 636.965 96.6329 640.698L121.02 645.1C120.217 642.909 111.146 631.998 103.434 622.998C98.9742 617.793 93.2914 613.66 88.5023 608.756C82.7956 602.913 77.2349 594.958 74.4363 590.451Z" fill="url(#paint11_linear_1147_1019)"/>
<path d="M448.123 616.653H440.068C442.484 643.567 461.435 663.506 470.608 670.112C492.663 688.094 483.73 720.58 476.508 734.575C497.988 699.583 482.645 673.751 472.288 665.209C451.575 650.565 447.548 626.736 448.123 616.653Z" fill="url(#paint12_linear_1147_1019)"/>
<path d="M421.067 641.412C408.921 631.778 408.149 620.892 409.281 616.653C409.281 619.323 414.208 627.849 416.671 631.778C428.018 643.879 428.99 655.017 428.058 659.073C427.419 650.243 423.131 643.62 421.067 641.412Z" fill="url(#paint13_linear_1147_1019)"/>
<path d="M299.409 626.761C293.336 611.508 296.213 610.906 298.41 612.512C311.576 629.391 330.665 668.916 338.563 686.569L323.581 666.7C317.028 662.365 304.736 638.268 299.409 626.761Z" fill="url(#paint14_linear_1147_1019)"/>
<path d="M166.019 601.673C177.431 609.539 196.274 638.735 196.407 639.535C201.079 650.841 213.658 660.511 219.363 663.933C208.853 660.306 198.972 649.534 195.344 644.601L179.023 625.403C162.568 606.952 163.497 601.895 166.019 601.673Z" fill="url(#paint15_linear_1147_1019)"/>
<path d="M762.37 605.823L705.378 611.142C705.378 620.303 692.082 646.155 685.435 657.936L687.539 659.199C735.548 639.291 757.43 615.32 762.37 605.823Z" fill="url(#paint16_linear_1147_1019)"/>
<path d="M772.688 665.331C780.585 660.729 798.079 602.539 799.466 601.643C800.883 600.729 843.018 599.277 863.148 597.226C858.03 620.234 835.84 638.905 825.385 645.365C822.792 648.814 781.216 662.479 772.688 665.331C772.521 665.428 772.359 665.501 772.201 665.55C770.585 666.044 770.95 665.912 772.688 665.331Z" fill="url(#paint17_linear_1147_1019)"/>
<path d="M577.622 621.041L572.632 621.743C573.887 631.186 572.11 652.281 571.064 661.648C565.771 677.48 552.511 700.562 546.543 710.123C542.551 715.856 530.433 728.062 524.873 733.448C528.181 732.774 540.698 719.959 546.543 713.636C547.113 717.458 544.785 728.436 543.549 733.448C547.199 729.064 549.062 717.289 549.537 711.95C556.038 701.946 569.258 674.247 575.056 661.648C578.135 654.341 578.05 631.532 577.622 621.041Z" fill="url(#paint18_linear_1147_1019)"/>
<path d="M606.317 653.554C609.413 637.661 616.96 626.377 620.346 622.722C612.461 637.382 608.283 656.702 607.18 664.53C600.791 680.017 589.753 689.941 585.032 692.967L594.707 680.889C601.802 673.133 605.404 659.434 606.317 653.554Z" fill="url(#paint19_linear_1147_1019)"/>
<path d="M634.52 617.303H631.498L628.918 654.85C627.231 663.099 620.419 671.732 619.316 672.307C606.755 685.147 605.991 692.843 607.18 695.086C607.18 692.564 611.468 685.436 613.613 682.188C621.756 673.564 628.929 662.161 631.498 657.538C632.778 656.162 634.046 630.141 634.52 617.303Z" fill="url(#paint20_linear_1147_1019)"/>
<path d="M586.697 729.19C587.111 728.782 604.358 704.603 606.003 699.658C606.028 699.576 606.052 699.495 606.075 699.415C606.056 699.49 606.032 699.571 606.003 699.658C603.978 706.391 597.417 721.33 586.697 729.19Z" fill="url(#paint21_linear_1147_1019)"/>
<path d="M677.722 613.404L674.5 613.762C674.5 614.049 672.654 630.784 671.732 639.115C670.316 649.171 661.554 663.87 657.35 669.963C668.079 660.184 673.254 645.042 674.5 638.693L677.722 613.404Z" fill="url(#paint22_linear_1147_1019)"/>
<path d="M651.994 691.277C691.367 657.54 703.041 624.277 703.957 611.862L705.666 611.241V611.862C704.516 626.231 693.179 647.332 687.654 656.087C686.24 658.265 688.243 657.961 689.422 657.538C692.251 654.691 709.091 647.47 717.158 644.216C734.131 635.708 754.36 615.114 762.352 605.88H765.778C757.026 625.658 723.825 644.325 708.318 651.186C695.853 654.148 681.814 666.501 676.352 672.307C668.952 684.123 651.387 705.645 643.529 714.929C641.383 716.149 632.894 716.115 628.918 715.946C630.437 714.319 644.935 698.822 651.994 691.277Z" fill="url(#paint23_linear_1147_1019)"/>
<path d="M732.604 653.554C717.734 658.927 694.445 671.574 684.659 677.225C711.685 670.014 730.145 659.304 735.997 654.85C760.262 640.09 764.597 632.308 763.732 630.262C760.545 637.639 741.652 648.864 732.604 653.554Z" fill="url(#paint24_linear_1147_1019)"/>
<path d="M700.444 692.967C673.89 695.79 659.481 706.799 655.597 711.95C663.74 705.067 688.888 697.84 700.444 695.086C728.414 686.111 737.767 676.161 738.948 672.307C730.804 682.098 709.885 690.16 700.444 692.967Z" fill="url(#paint25_linear_1147_1019)"/>
<path d="M753.455 663.065C753.184 664.134 743.566 671.491 741.669 677.225C745.598 673.885 753.455 666.377 753.455 663.065Z" fill="url(#paint26_linear_1147_1019)"/>
<path d="M822.799 628.444C817.712 635.078 795.997 643.003 785.774 646.136C807.412 636.3 818.176 629.706 820.853 627.638C827.608 615.178 829.87 604.308 830.157 600.431H831.961C830.615 612.373 825.292 624.082 822.799 628.444Z" fill="url(#paint27_linear_1147_1019)"/>
<path d="M864.642 596.845L861.747 597.558C857.694 621.241 835.449 636.436 824.834 641.072C803.217 648.206 788.483 656.568 783.819 659.857C797.04 659.001 812.811 654.428 819.043 652.248C851.662 632.94 863.033 607.268 864.642 596.845Z" fill="url(#paint28_linear_1147_1019)"/>
<path d="M840.04 648.315C839.886 648.432 839.762 648.516 839.671 648.563C839.795 648.48 839.918 648.397 840.04 648.315C843.796 645.464 865.64 622.679 866.451 620.623C865.173 624.796 858.103 636.139 840.04 648.315Z" fill="url(#paint29_linear_1147_1019)"/>
<path d="M891.936 593.598L887.646 593.918C888.686 602.054 879.716 617.814 882.186 616.341C884.162 615.162 889.509 600.688 891.936 593.598Z" fill="url(#paint30_linear_1147_1019)"/>
<path d="M922.487 588.089C921.511 588.302 919.483 588.768 919.171 588.921C915.986 596.737 909.928 612.125 911.176 611.152C912.424 610.178 919.236 595.371 922.487 588.089Z" fill="url(#paint31_linear_1147_1019)"/>
<path d="M948.132 573.345C545.414 515.541 158.884 544.886 6.57041 574.101C3.55872 574.678 2.77958 577.997 5.47442 579.46C23.4801 589.239 70.7591 595.12 94.7611 596.976C125.152 601.866 184.117 605.294 209.802 606.397C219.259 610.257 271.429 613.442 296.331 614.552C299.828 614.367 351.403 618.34 376.753 620.349C387.243 620.915 408.441 622.045 409.315 622.045H448.138C466.69 625.005 522.758 623.994 548.474 623.118C562.678 623.773 659.635 615.746 706.338 611.65C718.072 611.978 776.843 604.687 804.762 601.001C872.155 599.652 922.834 588.48 948.876 580.193C952.72 578.97 952.125 573.918 948.132 573.345Z" fill="url(#paint32_linear_1147_1019)"/>
<path d="M133.713 585.66C124.092 583.059 69.7468 585.14 67.6665 585.66C74.4812 586.921 100.356 586.774 112.441 586.543C120.968 586.324 130.175 585.863 133.713 585.66Z" fill="url(#paint33_linear_1147_1019)"/>
<path d="M133.713 590.176C141.934 589.246 160.049 587.75 166.744 589.206C161.664 590.297 147.945 592.02 133.713 590.176Z" fill="url(#paint34_linear_1147_1019)"/>
<path d="M160.356 594.15C173.792 593.411 201.665 592.375 205.659 594.15C193.711 595.228 167.923 596.736 160.356 594.15Z" fill="url(#paint35_linear_1147_1019)"/>
<path d="M214.905 592.116C221.561 590.823 235.911 588.624 240.053 590.176C236.971 591.131 227.627 592.856 214.905 592.116Z" fill="url(#paint36_linear_1147_1019)"/>
<path d="M243.668 603.814C255.358 603 279.004 601.861 280.07 603.814C271.265 604.776 251.659 606.122 243.668 603.814Z" fill="url(#paint37_linear_1147_1019)"/>
<path d="M287.838 601.373C301.23 600.041 330.01 598.176 338.001 601.373C323.869 601.816 294.053 602.438 287.838 601.373Z" fill="url(#paint38_linear_1147_1019)"/>
<path d="M338.001 605.117C344.107 604.644 356.941 603.981 359.421 605.117C354.14 605.935 342.463 607.081 338.001 605.117Z" fill="url(#paint39_linear_1147_1019)"/>
<path d="M364.071 605.117C370.1 604.515 382.699 603.8 384.869 605.763C378.884 606.237 366.345 606.771 364.071 605.117Z" fill="url(#paint40_linear_1147_1019)"/>
<path d="M391.848 599.115C392.437 598.879 424.727 597.818 426.377 599.115C418.996 600.158 401.756 601.618 391.848 599.115Z" fill="url(#paint41_linear_1147_1019)"/>
<path d="M454.612 609.727C455.602 609.397 523.077 605.767 535.615 609.727C509.384 610.387 456.46 611.31 454.612 609.727Z" fill="url(#paint42_linear_1147_1019)"/>
<path d="M553.766 598.925C571.638 600.539 608.196 604.364 611.455 606.747C594.507 605.444 559.241 602.054 553.766 598.925Z" fill="url(#paint43_linear_1147_1019)"/>
<path d="M622.7 600.555C629.599 600.772 644.016 601.761 646.493 603.977C640.517 604.14 627.393 603.684 622.7 600.555Z" fill="url(#paint44_linear_1147_1019)"/>
<path d="M661.485 594.362C673.11 593.384 697.924 592.341 704.182 595.992C693.101 595.774 669.047 595.144 661.485 594.362Z" fill="url(#paint45_linear_1147_1019)"/>
<path d="M729.864 587.363C727.969 587.442 726.277 587.528 724.847 587.616C725.534 587.396 727.321 587.325 729.864 587.363C742.072 586.859 762.726 586.697 776.175 589.003C789.308 589.65 816.683 590.279 821.122 587.616C821.439 589.864 812.744 593.623 775.426 590.671C763.059 589.483 740.206 587.519 729.864 587.363Z" fill="url(#paint46_linear_1147_1019)"/>
<path d="M659.208 608.644C664.997 609.535 670.472 613.044 672.486 614.687H669.227C669.163 613.796 662.521 610.287 659.208 608.644Z" fill="url(#paint47_linear_1147_1019)"/>
<path d="M746.241 573.61C747.323 573.73 785.429 575.173 793.483 576.976C781.289 577.103 754.77 576.608 746.241 573.61Z" fill="url(#paint48_linear_1147_1019)"/>
<path d="M746.241 566.352C768.048 567.196 811.678 568.756 814.314 568.339C814.345 568.333 814.375 568.326 814.405 568.319C814.385 568.326 814.354 568.333 814.314 568.339C807.637 569.806 784.854 571.434 746.241 566.352Z" fill="url(#paint49_linear_1147_1019)"/>
<g filter="url(#filter1_n_1147_1019)">
<path d="M286.702 583.384V546.675C179.937 546.676 31.7653 568.277 6.88428 574.156C16.9101 577.164 222.67 583.089 286.702 583.384Z" fill="url(#paint50_linear_1147_1019)"/>
</g>
<path d="M535.647 489.697L380.876 503.724L386.635 493.66L364.353 498.117L335.446 502.32C329.105 503.242 323.078 505.674 317.873 509.412L285.412 532.718C280.348 536.354 274.601 538.918 268.762 541.104C253.358 546.871 230.531 558.361 219.227 564.382C209.239 568.896 204.438 572.155 202.399 574.243C201.073 575.602 202.221 576.991 204.1 577.264C224.381 580.218 293.812 583.897 330.171 585.557C332.085 585.644 333.97 585.901 335.838 586.328L346.08 588.665C364.81 591.056 475.001 591.413 527.755 591.293C570.371 590.867 682.574 579.796 738.942 573.726C740.861 573.519 741.369 571.007 739.681 570.07C713.862 555.729 683.948 543.699 667.293 537.701C663.233 536.238 659.355 534.337 655.778 531.922L630.597 514.924C619.695 507.565 607.183 502.937 594.117 501.429L569.233 498.559C565.106 498.083 561.076 496.982 557.28 495.295L550.043 492.078C545.526 490.071 540.57 489.251 535.647 489.697Z" fill="url(#paint51_linear_1147_1019)"/>
<path d="M465.081 528.301C467.135 528.936 469.436 529.079 470.33 529.071C478.012 530.614 483.967 541.81 485.983 547.215C491.129 556.884 501.741 563.386 506.403 565.428C529.361 572.404 541.819 585.176 545.178 590.691H542.041C534.305 577.974 516.122 570.315 507.998 568.074C496.447 565.518 487.555 554.535 484.553 549.362C479.996 535.375 470.556 530.906 466.405 530.42L465.081 528.301ZM454.338 541.057C452.029 553.195 443.997 579.938 430.335 589.809L427.482 589.41C432.578 586.874 444.834 573.743 453.089 541.515L454.338 541.057ZM562.134 552.725C566.975 553.935 577.08 557.176 578.766 560.455C578.688 562.603 578.298 568.022 577.361 572.52C579.86 576.971 585.279 586.177 586.966 587.396C586.202 588.028 582.856 586.083 575.581 573.247C575.18 572.933 574.253 570.916 573.752 565.356C573.874 564.136 573.313 561.342 570.094 559.92C566.599 557.736 560.114 553.24 562.134 552.725ZM397.956 492.181C447.493 489.875 527.097 487.253 545.886 490.625C548.619 491.116 549.235 493.665 547.492 495.826C544.066 500.075 537.438 505.625 526.941 508.347C511.654 509.798 472.396 512.103 433.398 510.238C430.032 510.078 426.684 510.697 423.438 511.603C414.273 514.159 397.003 516.72 373.978 514.452C368.261 513.889 362.485 515.251 357.861 518.66C342.651 529.877 320.062 546.927 313.498 553.372C317.124 551.208 324.726 546.81 326.131 546.528C327.359 547.055 331.185 547.16 336.659 543.37C341.309 539.47 352.817 531.611 361.653 531.378C371.003 532.541 390.46 534.517 393.483 533.122C388.801 537.457 380.266 546.088 376.666 552.053C375.205 554.473 374.608 557.316 373.306 559.825C370.845 564.572 366.229 571.235 359.205 576.467C357.311 577.877 355.177 578.913 353.009 579.847C348.206 581.916 341.551 584.96 338.689 586.899C297.711 585.51 214.026 581.88 207.103 578.469C202.458 578.038 196.064 575.653 207.644 569.564C225.825 560.452 264.773 541.46 275.115 538.385C283.729 532.975 302.221 521.078 307.272 516.765C312.096 511.87 326.141 501.911 343.733 501.23C351.603 499.807 365.582 497.213 375.812 495.138C383.122 493.655 390.506 492.528 397.956 492.181ZM355.619 550.017C351.801 552.055 348.42 554.824 345.671 558.166L336.161 569.727C333.905 572.469 331.221 574.83 328.213 576.717L315.005 585.003H317.85L330.324 577.495C333.485 575.593 336.304 573.173 338.665 570.338L347.993 559.135C350.485 556.142 353.487 553.614 356.86 551.667L381.651 537.362L380.898 536.525L355.619 550.017ZM305.208 566.164C302.796 568.509 288.128 578.975 281.095 583.915H283.104C290.405 581.236 301.719 571.355 306.464 566.75L305.208 566.164ZM462.885 544.815C462.32 551.251 461.622 564.914 463.342 568.074C465.124 570.979 470.86 577.532 479.551 580.507C478.021 582.114 472.114 582.517 460.727 571.27C459.926 568.855 458.702 560.183 460.222 544.815H462.885ZM289.597 555.723C279.669 562.969 258.865 578.106 255.077 580.688C261.074 577.793 276.651 569.145 290.975 557.708C291.721 557.046 292.489 555.723 289.597 555.723ZM439.14 544.815C438.126 549.05 431.529 558.807 413.257 563.953C407.105 567.249 391.959 575.147 380.584 580.37L379.305 577.634L409.412 563.953C414.473 557.446 427.504 544.508 439.14 544.815ZM589.41 557.931C616.102 569.231 617.841 574.46 615.374 575.662C604.663 573.202 593.602 562.816 589.41 557.931ZM264.789 562.984C261.75 564.771 258.309 565.765 254.785 565.873L248.594 566.063C246.387 566.13 244.206 566.545 242.129 567.292L228.821 572.079C231.318 571.793 235.892 571.066 239.792 569.944C243.219 568.959 246.703 567.884 250.267 567.764L254.868 567.609C258.339 567.492 261.728 566.516 264.729 564.768L274.791 558.907C274.992 558.507 275.066 557.708 273.758 557.708L264.789 562.984ZM633.589 561.289C642.17 562.212 658.572 565.302 655.527 570.285C653.798 572.21 646.989 573.106 633.589 561.289ZM330.661 557.708C327.847 559.785 313.357 567.058 306.464 570.435L307.888 571.105C323.494 565.545 330.466 559.857 332.001 557.708H330.661ZM537.972 553.876C551.593 554.629 559.26 565.516 561.391 570.866C555.33 562.356 543.252 555.994 537.972 553.876ZM427.234 523.161C427.008 524.247 422.643 528.429 406.994 536.474C404.413 538.104 399.387 543.157 399.93 550.329C407.306 546.832 425.223 539.366 437.889 537.486L438.058 538.197C425.626 541.339 399.863 550.173 396.27 560.38C395.403 562.424 393.292 566.345 391.78 565.679C392.052 556.925 395.747 538.157 408.352 533.122C409.167 533.122 426.186 524.656 427.234 523.161ZM624.523 541.565C626.738 545.551 638.918 550.666 644.731 552.725C632.385 551.687 626.115 544.852 624.523 541.565ZM351.761 520.422C343.799 520.776 335.08 524.133 329.112 527.071C325.544 528.828 322.438 531.381 319.205 533.697C310.049 540.257 291.835 551.184 290.975 551.284C292.077 551.982 293.591 551.937 294.211 551.827C301.615 549.092 317.655 537.482 324.749 532.019C330.644 527.397 345.213 523.255 351.761 521.762V520.422ZM537.972 510.748C534.049 504.174 556.213 518.156 567.785 525.969C602.146 542.582 610.257 548.736 610.018 549.736C602.041 544.751 578.539 533.19 567.785 528.033C557.813 526.124 543.754 515.714 537.972 510.748ZM510.583 530.42C519.102 531.499 525.038 533.548 526.941 534.437C535.689 538.049 533.807 541.86 531.772 543.315C528.037 544.754 524.195 541.516 522.741 539.717C520.475 537.268 513.692 532.499 510.583 530.42ZM586.074 517.562C585.885 516.405 586.523 517.08 586.865 517.562C591.326 523.298 596.477 526.66 598.494 527.624C600.333 527.497 605 528.541 607.103 529.078C626.045 536.346 620.003 537.829 614.614 537.662C600.194 534.744 589.579 523.046 586.074 517.562ZM523.931 518.227C539.562 521.299 546.614 529.838 548.186 533.724C544.144 528.929 530.332 521.394 523.931 518.227Z" fill="url(#paint52_linear_1147_1019)"/>
<path d="M482.357 522.601C472.784 524.396 456.306 518.986 449.263 516.057C447.67 516.057 448.06 517.183 448.453 517.746C463.122 526.167 477.74 525.351 483.216 523.89L482.357 522.601Z" fill="url(#paint53_linear_1147_1019)"/>
<path d="M482.357 574.365C482.357 580.967 480.682 588.353 479.844 591.221H483.216V590.343C485.914 584.022 483.767 577.057 482.357 574.365Z" fill="url(#paint54_linear_1147_1019)"/>
<path d="M509.16 555.982C518.894 561.094 540.385 572.231 548.477 575.885C544.02 571.589 529.916 561.594 509.16 555.982Z" fill="url(#paint55_linear_1147_1019)"/>
<path d="M606.445 558.721C599.165 555.559 556.634 545.704 555.819 545.704V547.47C571.852 551.177 594.191 558.967 603.357 562.398C607.475 562.575 607.131 560.021 606.445 558.721Z" fill="url(#paint56_linear_1147_1019)"/>
<path d="M639.216 543.777C636.517 542.235 625.553 532.367 620.409 527.626C622.421 525.901 633.909 537.593 639.621 543.407L647.003 554.365C657.397 563.611 665.824 571.342 668.289 574.214C662.489 572.491 652.281 561.532 647.902 556.267C645.777 553.454 641.226 546.768 639.216 543.777Z" fill="url(#paint57_linear_1147_1019)"/>
<path d="M681.198 557.288C687.276 562.24 700.35 572.225 704.024 572.55C699.522 568.092 688.654 558.8 681.198 557.288Z" fill="url(#paint58_linear_1147_1019)"/>
<path d="M681.192 557.407C686.434 559.449 698.275 565.269 703.711 572.222C697.351 568.64 683.942 560.663 681.192 557.407Z" fill="#B16C46"/>
</g>
<path d="M378.459 25.7375C371.948 30.813 372.294 41.5982 373.28 46.3565C356.115 44.4531 358.236 55.0799 361.442 60.6312C355.522 58.0935 354.536 63.8033 354.783 66.9755C348.272 62.5345 340.725 67.2398 337.766 70.1476C327.112 58.7279 316.063 66.9755 311.87 72.5267C304.767 93.4629 318.282 107.685 325.928 112.178C318.233 121.06 330.614 126.982 337.766 128.832C320.601 129.467 322.722 147.072 325.928 155.795C331.255 168.484 350.344 169.541 359.222 168.484C361.59 176.732 369.581 180.379 373.28 181.173C382.159 188.151 395.23 187.252 400.655 185.931C408.942 185.931 418.906 174.3 422.852 168.484C426.995 172.925 437.403 170.334 442.089 168.484C457.478 178.635 468.231 165.84 471.684 158.174C477.603 162.615 487.468 156.324 491.66 152.623C499.947 153.258 503.498 144.429 504.238 139.935C525.547 128.515 520.516 116.672 515.336 112.178C527.766 104.565 536.3 85.2153 539.012 76.4919C544.34 39.695 521.502 33.1393 509.417 34.461C511.193 20.5036 500.292 15.9569 494.62 15.4282C482.782 -6.77681 466.998 0.889109 460.585 7.49769C433.358 -12.1696 424.085 11.4629 422.852 25.7375C398.436 -6.7769 380.679 25.7375 378.459 25.7375Z" fill="url(#paint59_linear_1147_1019)"/>
<path d="M504.203 58.3342C511.765 57.433 519.563 63.2158 522.517 66.2198C530.197 66.2198 535.514 78.6115 539.649 97.7622C542.958 113.083 492.585 138.317 466.984 149.018C459.895 152.173 454.972 148.831 453.397 146.765C450.561 151.271 443.157 152.022 439.809 151.835C434.138 152.285 426.812 147.516 423.858 145.076C421.495 148.68 411.846 148.831 407.317 148.455C397.864 146.653 394.713 141.696 394.32 139.443C386.285 143.048 380.338 140.194 378.369 138.317C365.135 124.348 372.855 120.48 378.369 120.292C376.951 118.941 377.778 116.725 378.369 115.786C363.245 114.435 360.252 104.333 360.646 99.4519C356.392 80.5265 373.839 74.6687 383.095 74.1054C382.15 61.9391 397.667 58.522 405.544 58.3342C399.873 54.2788 403.181 50.6364 405.544 49.3222C410.27 46.1679 414.209 50.2609 415.587 52.7017C419.368 44.1402 427.797 44.2528 431.538 45.3793C446.307 32.4243 459.304 35.2408 460.486 35.2408C477.028 34.7902 481.951 48.1957 482.345 54.9548C496.05 45.9427 502.628 53.4527 504.203 58.3342Z" fill="url(#paint60_linear_1147_1019)"/>
<path d="M642.415 174.353C636.017 173.553 629.419 178.685 626.919 181.351C620.421 181.351 615.922 192.348 612.423 209.343C609.624 222.939 652.245 245.333 673.906 254.83C679.904 257.629 684.07 254.664 685.403 252.831C687.802 256.83 694.067 257.496 696.899 257.33C701.698 257.729 707.896 253.497 710.396 251.331C712.395 254.53 720.559 254.664 724.392 254.33C732.389 252.731 735.055 248.332 735.388 246.333C742.187 249.532 747.218 246.999 748.885 245.333C760.081 232.936 753.55 229.504 748.885 229.337C750.084 228.138 749.384 226.172 748.885 225.339C761.681 224.139 764.214 215.175 763.88 210.843C767.479 194.048 752.717 188.849 744.886 188.349C745.686 177.552 732.556 174.52 725.891 174.353C730.69 170.754 727.891 167.522 725.891 166.355C721.892 163.556 718.56 167.188 717.394 169.355C714.194 161.757 707.063 161.857 703.897 162.856C691.401 151.359 680.404 153.859 679.404 153.859C665.408 153.459 661.243 165.356 660.91 171.354C649.313 163.356 643.748 170.021 642.415 174.353Z" fill="url(#paint61_linear_1147_1019)"/>
<path d="M608.092 191.285C610.092 182.887 622.588 182.787 628.587 183.787C625.788 184.187 624.754 187.953 624.588 189.785C619.389 190.185 620.089 196.95 621.089 200.282C625.887 199.083 626.421 205.448 626.087 208.78C643.282 203.182 644.582 214.445 643.082 220.777C653.879 210.779 662.244 220.943 665.076 227.275C671.474 230.874 672.074 238.771 671.574 242.27C677.973 241.471 678.572 245.936 678.073 248.269C680.472 253.467 675.407 259.099 672.574 261.265C676.573 261.265 676.906 264.931 676.573 266.764C677.373 273.961 671.574 274.095 668.575 273.262C665.776 282.059 660.078 276.927 657.578 273.262C657.578 278.46 656.579 278.094 656.079 277.261C650.88 277.261 651.58 266.597 652.58 261.265C639.384 260.865 639.417 253.101 641.083 249.268C632.286 252.468 625.754 247.936 623.588 245.27C611.192 245.67 608.092 238.105 608.092 234.273C602.894 238.672 597.262 236.106 595.096 234.273C588.698 228.674 591.431 223.609 593.597 221.776C586.799 217.777 588.765 212.112 590.597 209.78C594.996 202.182 599.428 201.282 601.094 201.782C596.296 195.784 603.76 192.285 608.092 191.285Z" fill="url(#paint62_linear_1147_1019)"/>
<path d="M543.869 88.3594C547.701 82.5278 558.965 72.264 573.361 77.8624C575.693 72.0307 582.858 60.9672 592.855 63.3665C596.521 59.201 606.851 53.3693 618.848 63.3665C622.68 62.2002 630.944 62.2668 633.344 71.8641C637.676 68.6983 648.14 65.466 655.337 77.8624C659.003 80.3617 664.135 88.3594 655.337 100.356C658.503 99.5229 664.335 100.156 662.335 109.353C667.167 108.52 676.731 110.753 676.332 126.349C676.998 128.348 677.031 133.347 671.833 137.345C672.999 139.845 673.532 145.643 666.334 148.842C664.002 149.842 658.936 151.541 657.337 150.342C659.003 153.508 660.536 160.639 653.338 163.838C649.37 164.83 641.269 166.216 640.362 163.893C643.003 171.237 641.978 184.721 616.848 180.333C616.015 183.499 611.85 188.531 601.853 183.332C600.525 190.633 593.118 202.923 574.102 193.944C572.783 194.737 547.72 198.933 534.872 183.332C518.876 185.498 482.687 185.732 465.891 169.336C457.227 161.339 447.697 140.844 478.888 122.85C493.384 106.521 526.674 76.7628 543.869 88.3594Z" fill="url(#paint63_linear_1147_1019)"/>
<path d="M237.049 232.013C227.851 231.213 223.552 239.344 222.553 243.509C221.353 239.111 217.054 238.011 215.055 238.011C209.056 238.011 210.056 244.509 209.056 244.509C205.058 241.01 204.058 245.509 203.058 245.509C199.059 252.707 202.392 258.172 204.558 260.005C200.959 259.205 199.726 262.337 199.559 264.003C195.56 261.504 194.061 265.503 193.061 265.503C188.262 269.102 192.061 275.334 194.561 277.999C190.562 275.6 188.229 277.999 187.562 279.499C187.562 283.098 192.228 283.665 194.561 283.498C191.362 287.897 194.894 290.663 197.06 291.496C196.66 298.294 204.225 296.661 208.057 294.995C212.456 307.391 223.886 302.493 229.051 298.494C241.048 304.092 245.046 298.494 245.546 294.995C254.344 297.794 258.543 293.828 259.542 291.496C268.74 292.695 274.371 282.332 276.038 277C285.235 270.602 283.535 263.004 281.536 260.005C284.335 251.607 276.038 248.508 271.539 248.008C270.739 242.01 266.54 238.844 264.541 238.011C258.143 234.412 251.878 238.844 249.545 241.51C246.746 234.312 240.048 232.179 237.049 232.013Z" fill="url(#paint64_linear_1147_1019)"/>
<path d="M274.621 298.425C266.412 297.878 264.359 303.67 264.359 306.635C257.791 309.372 260.71 314.617 262.991 316.897C262.991 323.465 268.008 323.283 270.516 322.371C280.368 327.296 282.375 317.125 282.147 311.424C285.431 302.667 278.498 299.109 274.621 298.425Z" fill="url(#paint65_linear_1147_1019)"/>
<path d="M350.359 157.455C342.361 149.058 334.03 153.29 330.864 156.455C288.876 135.262 252.72 171.951 239.89 192.945C229.893 191.745 227.727 204.442 227.893 210.94C230.293 228.135 242.556 230.768 248.388 229.935C253.986 240.332 266.716 236.266 272.381 232.934C279.179 244.53 289.876 240.765 294.375 237.432C305.571 251.029 327.365 238.099 336.862 229.935C352.858 232.734 369.853 220.104 376.351 213.439C387.148 198.244 376.518 193.778 369.853 193.445C369.853 181.848 360.189 178.616 355.357 178.449C364.954 165.653 356.024 159.121 350.359 157.455Z" fill="url(#paint66_linear_1147_1019)"/>
<g filter="url(#filter2_n_1147_1019)">
<path d="M411.203 293.739C451.407 323.238 467.996 346.869 471.265 354.997L481.071 368.676L463.91 401.386L459.007 394.249C459.007 342.864 420.6 313.762 401.396 305.634C393.552 303.731 363.807 297.308 349.915 294.334C343.541 291.004 331.732 291.36 326.625 291.955C323.193 295.762 309.669 298.696 303.336 299.687C301.865 303.493 292.508 308.806 288.014 310.987C286.053 310.511 278.208 312.374 274.53 313.366L273.918 312.176C275.388 310.749 283.519 309.599 287.401 309.202C292.304 307.775 298.433 301.867 300.884 299.092C297.452 297.665 286.788 298.101 281.885 298.497L280.659 297.308C284.582 296.356 297.82 296.515 303.949 296.713C311.303 296.713 319.271 291.559 322.335 288.982C317.432 286.127 291.691 285.413 279.433 285.413C268.647 283.986 259.821 283.629 256.757 283.629C233.222 289.814 221.21 288.189 218.146 286.603C232.855 288.506 247.564 283.431 253.08 280.655C231.997 277.801 225.091 273.915 224.274 272.329C243.396 278.99 269.832 281.845 280.659 282.44C261.537 275.303 255.123 267.968 254.305 265.192C261.17 272.805 279.229 279.466 287.401 281.845C302.11 280.893 313.142 281.845 316.819 282.44C323.683 285.294 334.797 286.404 339.496 286.603C337.044 285.651 322.131 275.897 314.98 271.14C300.271 268.761 292.508 263.012 290.465 260.434C295.859 265.192 307.83 267.968 313.142 268.761C306.768 265.43 303.949 259.443 303.336 256.866C309.71 266.858 332.141 279.268 342.56 284.224C352.856 290.885 384.032 294.532 398.332 295.524C377.781 280.822 369.118 262.417 362.172 256.866C350.644 253.536 328.768 234.861 319.271 225.94C315.435 224.286 295.891 218.317 286.814 215.635C285.334 215.286 284.069 214.95 283.111 214.64C280.871 213.915 282.838 214.46 286.814 215.635C294.416 217.429 307.698 219.592 314.368 220.587L295.981 204.53L317.432 220.587C315.471 218.684 308.852 203.935 305.787 196.798C323.438 231.53 348.689 245.764 359.108 248.54C340.476 225.702 337.453 201.754 338.27 192.635C338.27 212.618 358.699 243.385 368.914 256.271C361.559 228.676 362.581 201.556 364.011 191.446C363.03 202.389 366.871 228.121 368.914 239.619C372.346 266.739 398.536 286.999 411.203 293.739Z" fill="url(#paint67_linear_1147_1019)"/>
</g>
<g filter="url(#filter3_n_1147_1019)">
<g filter="url(#filter4_n_1147_1019)">
<path d="M490.106 383.433C485.869 375.075 470.614 332.424 466.377 312.143L472.1 391.422C450.07 442.555 439.801 491.356 476.769 508.564H499.391L496.78 507.708C469.242 495.908 473.512 467.219 478.985 454.108C496.355 421.659 493.636 393.471 490.106 383.433Z" fill="#C39E97"/>
</g>
<g filter="url(#filter5_n_1147_1019)">
<path d="M573.739 135.696C586.193 126.384 595.533 105.268 598.647 95.8734H599.892C600.39 97.3438 595.533 111.19 593.042 117.929C597.028 117.373 605.911 108.712 609.855 104.451L611.723 105.676C611.225 108.127 594.495 120.992 586.193 127.119C595.672 128.099 606.747 123.035 611.101 120.38L612.346 121.605C611.848 124.546 595.533 128.549 587.438 130.182C582.457 131.163 572.493 140.393 568.134 144.886C556.677 154.199 543.019 176.541 537.622 186.547C542.604 183.607 563.776 183.28 573.739 183.484C587.189 184.954 597.609 176.745 601.137 172.456L603.006 173.681C599.892 176.37 593.541 181.726 593.042 181.646C604.5 183.607 615.252 178.787 619.196 176.132V177.97C615.709 184.342 578.305 188.794 560.039 190.223C522.677 196.105 497.147 231.067 489.052 247.814C466.136 282.613 468.295 317.453 472.239 330.523C487.682 377.575 475.768 418.338 467.88 432.837C441.104 478.174 474.368 500.804 483.294 508.564L376.966 508.807C377.962 505.377 392.741 499.209 400.006 496.554C413.954 495.574 418.272 483.484 418.687 477.562C425.661 453.055 434.047 442.027 437.368 439.577C452.313 428.794 456.879 403.225 457.294 391.789C459.287 381.986 452.728 346.044 449.199 329.298C445.712 320.965 447.331 300.094 448.576 290.7C459.038 270.114 425.537 212.688 407.478 186.547C402.995 185.077 383.193 171.639 373.853 165.104V162.654C376.841 167.555 395.439 176.541 404.365 180.421C401.874 177.48 389.628 148.562 383.816 134.471C391.288 151.135 423.046 201.864 437.99 225.145C439.485 213.872 433.632 182.871 430.518 168.78C428.525 158.978 420.97 141.823 417.441 134.471C412.46 127.119 388.797 117.521 377.589 113.641V111.19C378.585 112.66 393.779 117.929 401.251 120.38C393.281 114.498 386.307 85.6623 383.816 71.9796L385.684 72.5922C392.16 103.47 400.836 117.725 404.365 120.993C408.35 126.384 414.743 127.732 417.441 127.732C417.441 125.281 407.478 105.88 402.497 96.486C410.965 105.308 426.782 141.415 433.632 158.365C433.133 146.602 438.821 131.408 441.727 125.281C446.708 118.419 448.784 100.775 449.199 92.8101C450.195 97.2212 448.784 113.436 447.954 120.993C452.935 110.7 462.068 102.817 466.012 100.162V102C454.056 108.372 444.84 131.612 441.727 142.436C439.734 183.607 445.463 217.18 448.576 228.821C449.573 237.153 458.54 260.884 462.898 271.707C488.305 242.3 489.674 194.103 487.184 173.681C490.173 195.247 489.674 219.427 489.052 228.821C508.48 220.489 536.169 177.97 547.585 157.752C552.069 154.811 553.605 137.33 553.812 128.957C551.82 114.253 554.643 108.943 556.303 108.127C553.812 111.19 555.68 122.83 555.68 124.056C557.673 132.388 555.68 146.316 554.435 152.238L556.303 150.4C573.241 138.147 579.551 113.028 580.588 102L581.211 102.613C582.207 106.044 576.645 126.098 573.739 135.696Z" fill="url(#paint68_linear_1147_1019)"/>
</g>
</g>
<g filter="url(#filter6_n_1147_1019)">
<path d="M484.777 381.787C479.99 359.419 508.71 325.866 523.668 311.886C499.735 315.444 482.982 353.615 477.597 372.255L484.777 381.787Z" fill="#B3948D"/>
<path d="M466.826 365.265C471.613 355.521 484.298 333.618 496.743 323.959C507.513 314.216 525.822 286.721 512.898 254.694L509.308 243.891L496.743 231.182L497.94 229.911L508.71 240.078L507.513 226.734L512.3 242.62L521.873 264.226C526.46 251.305 536.951 222.667 542.216 211.482L544.011 213.389C538.826 225.039 528.694 249.483 529.651 254.058C536.632 250.034 551.191 240.46 553.585 234.359C554.183 237.325 550.593 245.925 531.446 256.6C528.255 260.837 522.471 271.724 524.865 281.383C524.266 287.103 522.232 299.558 518.881 303.625C533.441 297.905 569.141 275.156 595.468 229.911L596.066 230.546C589.285 242.832 574.167 268.674 567.945 273.758C576.321 270.581 594.032 263.082 597.861 258.507C604.243 249.822 617.726 230.8 620.598 224.192L622.393 224.827C616.41 234.783 604.323 255.202 603.845 257.236L627.18 247.068C632.565 240.29 643.933 226.352 646.326 224.827L648.121 225.463C642.736 231.394 631.966 243.637 631.966 245.162C642.936 243.467 665.712 239.189 669.063 235.63C673.251 230.546 682.585 218.091 686.415 208.941H687.611C685.512 214.007 680.968 224.268 678.901 226.483L694.791 211.482L695.988 213.389C688.808 219.743 674.328 232.834 673.85 234.359C681.827 233.724 699.339 230.8 705.561 224.192L706.758 224.827C704.365 227.581 694.432 234.105 673.85 238.172C647.922 246.221 595.947 263.463 595.468 268.039L593.673 269.945C600.853 270.369 615.692 271.724 617.606 273.758C625.584 270.792 642.018 265.116 643.933 266.132C637.351 268.25 624.188 272.868 624.188 274.393L651.113 273.758V275.029L640.941 275.664L648.121 283.925L638.548 276.935H615.811C603.047 275.029 575.962 272.995 569.74 280.112C548.598 294.304 518.881 315.88 505.12 328.408C495.347 337.304 488.965 348.107 477.596 373.526C476.998 377.55 475.801 385.218 475.801 383.693C475.801 382.168 469.818 370.772 466.826 365.265Z" fill="url(#paint69_linear_1147_1019)"/>
</g>
<path d="M311.37 134.351C293.775 128.753 283.699 141.439 281.2 148.271C278.8 143.472 273.535 144.605 271.202 145.771C269.703 140.773 265.204 140.773 263.705 140.273C256.507 140.273 253.707 144.272 253.208 146.271C249.209 143.472 245.21 145.105 243.71 146.271C238.912 151.07 240.045 156.268 241.211 158.268C236.812 159.068 236.712 161.933 237.212 163.266C234.013 160.067 231.547 161.933 230.714 163.266C227.515 167.665 231.047 170.431 233.213 171.264C232.813 172.064 233.047 173.597 233.213 174.263C228.814 172.664 226.049 174.263 225.215 175.263C223.216 180.062 231.047 180.928 235.213 180.761C227.215 187.559 231.88 192.258 235.213 193.758C228.415 210.953 241.044 217.918 248.209 219.25C248.609 215.652 252.708 215.751 254.707 216.251C254.707 201.056 268.703 200.922 275.701 202.755C291.697 205.155 294.696 195.091 294.196 189.759C294.996 183.361 302.86 183.427 306.692 184.26C301.894 177.062 311.024 173.264 316.19 172.264C316.589 157.868 326.02 156.602 330.685 157.768C329.186 151.27 332.364 141.031 311.37 134.351Z" fill="url(#paint70_linear_1147_1019)"/>
<path d="M513.277 150.696C509.657 138.477 499.701 141.079 495.175 143.908C493.365 139.382 488.01 139.76 485.559 140.514C478.77 142.324 480.845 148.434 482.73 151.262C476.847 149.452 476.508 153.148 477.073 155.222C475.263 150.696 469.908 150.319 467.456 150.696C461.573 153.864 462.742 159.559 464.062 162.01C455.916 153.864 449.731 159.37 447.657 163.142C436.796 162.236 435.966 169.176 436.909 172.758C429.668 172.306 427.858 177.472 427.858 180.112C426.5 185.996 433.326 187.466 436.909 187.466L431.818 191.426C426.387 197.762 432.195 200.1 435.777 200.477C428.989 201.383 429.178 205.38 430.12 207.266C433.288 214.959 440.114 211.226 443.131 208.397C446.299 215.638 452.748 212.168 455.577 209.529C462.818 218.127 473.679 210.848 478.204 206.134C479.11 212.018 487.633 210.848 491.781 209.529C496.307 214.507 503.472 210.471 506.489 207.831C517.35 217.788 522.706 210.848 524.026 206.134C527.646 210.66 533.831 209.529 536.471 208.397C544.164 219.258 551.745 215.94 554.573 212.923C566.34 219.258 565.887 212.168 564.19 207.831C576.861 205.116 573.995 194.632 570.978 189.729C574.599 181.583 567.961 179.924 564.19 180.112C562.832 177.85 560.607 177.661 559.664 177.85C566.905 171.061 559.287 164.839 554.573 162.576C542.128 158.05 539.865 165.404 538.734 165.97C534.774 163.142 529.683 164.273 528.551 164.273C534.434 160.653 532.134 158.239 530.248 157.485C527.08 144.813 517.614 147.679 513.277 150.696Z" fill="url(#paint71_linear_1147_1019)"/>
<defs>
<filter id="filter0_n_1147_1019" x="2.26172" y="489.016" width="950.896" height="276.521" filterUnits="userSpaceOnUse" color-interpolation-filters="sRGB">
<feFlood flood-opacity="0" result="BackgroundImageFix"/>
<feBlend mode="normal" in="SourceGraphic" in2="BackgroundImageFix" result="shape"/>
<feTurbulence type="fractalNoise" baseFrequency="5 5" stitchTiles="stitch" numOctaves="3" result="noise" seed="1005" />
<feColorMatrix in="noise" type="luminanceToAlpha" result="alphaNoise" />
<feComponentTransfer in="alphaNoise" result="coloredNoise1">
<feFuncA type="discrete" tableValues="1 1 1 1 1 1 1 1 1 1 1 1 1 1 1 1 1 1 1 1 1 1 1 1 1 1 1 1 1 1 1 1 1 1 1 1 1 1 1 1 1 1 1 1 1 1 1 1 1 1 1 0 0 0 0 0 0 0 0 0 0 0 0 0 0 0 0 0 0 0 0 0 0 0 0 0 0 0 0 0 0 0 0 0 0 0 0 0 0 0 0 0 0 0 0 0 0 0 0 0 "/>
</feComponentTransfer>
<feComposite operator="in" in2="shape" in="coloredNoise1" result="noise1Clipped" />
<feFlood flood-color="rgba(201, 118, 118, 0.17)" result="color1Flood" />
<feComposite operator="in" in2="noise1Clipped" in="color1Flood" result="color1" />
<feMerge result="effect1_noise_1147_1019">
<feMergeNode in="shape" />
<feMergeNode in="color1" />
</feMerge>
</filter>
<filter id="filter1_n_1147_1019" x="6.88428" y="546.675" width="279.818" height="36.7084" filterUnits="userSpaceOnUse" color-interpolation-filters="sRGB">
<feFlood flood-opacity="0" result="BackgroundImageFix"/>
<feBlend mode="normal" in="SourceGraphic" in2="BackgroundImageFix" result="shape"/>
<feTurbulence type="fractalNoise" baseFrequency="5 5" stitchTiles="stitch" numOctaves="3" result="noise" seed="1360" />
<feColorMatrix in="noise" type="luminanceToAlpha" result="alphaNoise" />
<feComponentTransfer in="alphaNoise" result="coloredNoise1">
<feFuncA type="discrete" tableValues="1 1 1 1 1 1 1 1 1 1 1 1 1 1 1 1 1 1 1 1 1 1 1 1 1 1 1 1 1 1 1 1 1 1 1 1 1 1 1 1 1 1 1 1 1 1 1 1 1 1 1 0 0 0 0 0 0 0 0 0 0 0 0 0 0 0 0 0 0 0 0 0 0 0 0 0 0 0 0 0 0 0 0 0 0 0 0 0 0 0 0 0 0 0 0 0 0 0 0 0 "/>
</feComponentTransfer>
<feComposite operator="in" in2="shape" in="coloredNoise1" result="noise1Clipped" />
<feFlood flood-color="rgba(194, 48, 48, 0.25)" result="color1Flood" />
<feComposite operator="in" in2="noise1Clipped" in="color1Flood" result="color1" />
<feMerge result="effect1_noise_1147_1019">
<feMergeNode in="shape" />
<feMergeNode in="color1" />
</feMerge>
</filter>
<filter id="filter2_n_1147_1019" x="218.146" y="191.446" width="262.925" height="209.94" filterUnits="userSpaceOnUse" color-interpolation-filters="sRGB">
<feFlood flood-opacity="0" result="BackgroundImageFix"/>
<feBlend mode="normal" in="SourceGraphic" in2="BackgroundImageFix" result="shape"/>
<feTurbulence type="fractalNoise" baseFrequency="10 10" stitchTiles="stitch" numOctaves="3" result="noise" seed="6985" />
<feColorMatrix in="noise" type="luminanceToAlpha" result="alphaNoise" />
<feComponentTransfer in="alphaNoise" result="coloredNoise1">
<feFuncA type="discrete" tableValues="1 1 1 1 1 1 1 1 1 1 1 1 1 1 1 1 1 1 1 1 1 1 1 1 1 1 1 1 1 1 1 1 1 1 1 1 1 1 1 1 1 1 1 1 1 1 1 1 1 1 1 0 0 0 0 0 0 0 0 0 0 0 0 0 0 0 0 0 0 0 0 0 0 0 0 0 0 0 0 0 0 0 0 0 0 0 0 0 0 0 0 0 0 0 0 0 0 0 0 0 "/>
</feComponentTransfer>
<feComposite operator="in" in2="shape" in="coloredNoise1" result="noise1Clipped" />
<feFlood flood-color="rgba(113, 25, 25, 0.24)" result="color1Flood" />
<feComposite operator="in" in2="noise1Clipped" in="color1Flood" result="color1" />
<feMerge result="effect1_noise_1147_1019">
<feMergeNode in="shape" />
<feMergeNode in="color1" />
</feMerge>
</filter>
<filter id="filter3_n_1147_1019" x="373.853" y="71.9796" width="245.343" height="436.828" filterUnits="userSpaceOnUse" color-interpolation-filters="sRGB">
<feFlood flood-opacity="0" result="BackgroundImageFix"/>
<feBlend mode="normal" in="SourceGraphic" in2="BackgroundImageFix" result="shape"/>
<feTurbulence type="fractalNoise" baseFrequency="10 10" stitchTiles="stitch" numOctaves="3" result="noise" seed="6985" />
<feColorMatrix in="noise" type="luminanceToAlpha" result="alphaNoise" />
<feComponentTransfer in="alphaNoise" result="coloredNoise1">
<feFuncA type="discrete" tableValues="1 1 1 1 1 1 1 1 1 1 1 1 1 1 1 1 1 1 1 1 1 1 1 1 1 1 1 1 1 1 1 1 1 1 1 1 1 1 1 1 1 1 1 1 1 1 1 1 1 1 1 0 0 0 0 0 0 0 0 0 0 0 0 0 0 0 0 0 0 0 0 0 0 0 0 0 0 0 0 0 0 0 0 0 0 0 0 0 0 0 0 0 0 0 0 0 0 0 0 0 "/>
</feComponentTransfer>
<feComposite operator="in" in2="shape" in="coloredNoise1" result="noise1Clipped" />
<feFlood flood-color="rgba(113, 25, 25, 0.13)" result="color1Flood" />
<feComposite operator="in" in2="noise1Clipped" in="color1Flood" result="color1" />
<feMerge result="effect1_noise_1147_1019">
<feMergeNode in="shape" />
<feMergeNode in="color1" />
</feMerge>
</filter>
<filter id="filter4_n_1147_1019" x="452.261" y="312.143" width="47.1299" height="196.421" filterUnits="userSpaceOnUse" color-interpolation-filters="sRGB">
<feFlood flood-opacity="0" result="BackgroundImageFix"/>
<feBlend mode="normal" in="SourceGraphic" in2="BackgroundImageFix" result="shape"/>
<feTurbulence type="fractalNoise" baseFrequency="10 10" stitchTiles="stitch" numOctaves="3" result="noise" seed="8974" />
<feColorMatrix in="noise" type="luminanceToAlpha" result="alphaNoise" />
<feComponentTransfer in="alphaNoise" result="coloredNoise1">
<feFuncA type="discrete" tableValues="1 1 1 1 1 1 1 1 1 1 1 1 1 1 1 1 1 1 1 1 1 1 1 1 1 1 1 1 1 1 1 1 1 1 1 1 1 1 1 1 1 1 1 1 1 1 1 1 1 1 1 0 0 0 0 0 0 0 0 0 0 0 0 0 0 0 0 0 0 0 0 0 0 0 0 0 0 0 0 0 0 0 0 0 0 0 0 0 0 0 0 0 0 0 0 0 0 0 0 0 "/>
</feComponentTransfer>
<feComposite operator="in" in2="shape" in="coloredNoise1" result="noise1Clipped" />
<feFlood flood-color="rgba(80, 58, 58, 0.25)" result="color1Flood" />
<feComposite operator="in" in2="noise1Clipped" in="color1Flood" result="color1" />
<feMerge result="effect1_noise_1147_1019">
<feMergeNode in="shape" />
<feMergeNode in="color1" />
</feMerge>
</filter>
<filter id="filter5_n_1147_1019" x="373.853" y="71.9796" width="245.343" height="436.828" filterUnits="userSpaceOnUse" color-interpolation-filters="sRGB">
<feFlood flood-opacity="0" result="BackgroundImageFix"/>
<feBlend mode="normal" in="SourceGraphic" in2="BackgroundImageFix" result="shape"/>
<feTurbulence type="fractalNoise" baseFrequency="10 10" stitchTiles="stitch" numOctaves="3" result="noise" seed="96" />
<feColorMatrix in="noise" type="luminanceToAlpha" result="alphaNoise" />
<feComponentTransfer in="alphaNoise" result="coloredNoise1">
<feFuncA type="discrete" tableValues="1 1 1 1 1 1 1 1 1 1 1 1 1 1 1 1 1 1 1 1 1 1 1 1 1 1 1 1 1 1 1 1 1 1 1 1 1 1 1 1 1 1 1 1 1 1 1 1 1 1 1 0 0 0 0 0 0 0 0 0 0 0 0 0 0 0 0 0 0 0 0 0 0 0 0 0 0 0 0 0 0 0 0 0 0 0 0 0 0 0 0 0 0 0 0 0 0 0 0 0 "/>
</feComponentTransfer>
<feComposite operator="in" in2="shape" in="coloredNoise1" result="noise1Clipped" />
<feFlood flood-color="rgba(63, 28, 28, 0.25)" result="color1Flood" />
<feComposite operator="in" in2="noise1Clipped" in="color1Flood" result="color1" />
<feMerge result="effect1_noise_1147_1019">
<feMergeNode in="shape" />
<feMergeNode in="color1" />
</feMerge>
</filter>
<filter id="filter6_n_1147_1019" x="466.826" y="208.941" width="239.932" height="174.95" filterUnits="userSpaceOnUse" color-interpolation-filters="sRGB">
<feFlood flood-opacity="0" result="BackgroundImageFix"/>
<feBlend mode="normal" in="SourceGraphic" in2="BackgroundImageFix" result="shape"/>
<feTurbulence type="fractalNoise" baseFrequency="10 10" stitchTiles="stitch" numOctaves="3" result="noise" seed="6985" />
<feColorMatrix in="noise" type="luminanceToAlpha" result="alphaNoise" />
<feComponentTransfer in="alphaNoise" result="coloredNoise1">
<feFuncA type="discrete" tableValues="1 1 1 1 1 1 1 1 1 1 1 1 1 1 1 1 1 1 1 1 1 1 1 1 1 1 1 1 1 1 1 1 1 1 1 1 1 1 1 1 1 1 1 1 1 1 1 1 1 1 1 0 0 0 0 0 0 0 0 0 0 0 0 0 0 0 0 0 0 0 0 0 0 0 0 0 0 0 0 0 0 0 0 0 0 0 0 0 0 0 0 0 0 0 0 0 0 0 0 0 "/>
</feComponentTransfer>
<feComposite operator="in" in2="shape" in="coloredNoise1" result="noise1Clipped" />
<feFlood flood-color="rgba(113, 25, 25, 0.24)" result="color1Flood" />
<feComposite operator="in" in2="noise1Clipped" in="color1Flood" result="color1" />
<feMerge result="effect1_noise_1147_1019">
<feMergeNode in="shape" />
<feMergeNode in="color1" />
</feMerge>
</filter>
<linearGradient id="paint0_linear_1147_1019" x1="478.3" y1="572.731" x2="478.3" y2="765.537" gradientUnits="userSpaceOnUse">
<stop stop-color="#DC9F8B"/>
<stop offset="0.811997" stop-color="#D78A7F"/>
</linearGradient>
<linearGradient id="paint1_linear_1147_1019" x1="61.0385" y1="616.893" x2="539.731" y2="668.673" gradientUnits="userSpaceOnUse">
<stop stop-color="#7A3D4B"/>
<stop offset="1" stop-color="#9F5663"/>
</linearGradient>
<linearGradient id="paint2_linear_1147_1019" x1="351.829" y1="660.72" x2="311.774" y2="730.104" gradientUnits="userSpaceOnUse">
<stop stop-color="#823F4F"/>
<stop offset="1" stop-color="#914D5A"/>
</linearGradient>
<linearGradient id="paint3_linear_1147_1019" x1="157.223" y1="600.663" x2="387.433" y2="721.905" gradientUnits="userSpaceOnUse">
<stop stop-color="#7B3944"/>
<stop offset="0.5" stop-color="#7F3D4A"/>
<stop offset="1" stop-color="#7E3945"/>
</linearGradient>
<linearGradient id="paint4_linear_1147_1019" x1="157.223" y1="600.663" x2="387.433" y2="721.905" gradientUnits="userSpaceOnUse">
<stop stop-color="#7B3944"/>
<stop offset="0.5" stop-color="#7F3D4A"/>
<stop offset="1" stop-color="#7E3945"/>
</linearGradient>
<linearGradient id="paint5_linear_1147_1019" x1="157.223" y1="600.663" x2="387.433" y2="721.905" gradientUnits="userSpaceOnUse">
<stop stop-color="#7B3944"/>
<stop offset="0.5" stop-color="#7F3D4A"/>
<stop offset="1" stop-color="#7E3945"/>
</linearGradient>
<linearGradient id="paint6_linear_1147_1019" x1="157.223" y1="600.663" x2="387.433" y2="721.905" gradientUnits="userSpaceOnUse">
<stop stop-color="#7B3944"/>
<stop offset="0.5" stop-color="#7F3D4A"/>
<stop offset="1" stop-color="#7E3945"/>
</linearGradient>
<linearGradient id="paint7_linear_1147_1019" x1="157.223" y1="600.663" x2="387.433" y2="721.905" gradientUnits="userSpaceOnUse">
<stop stop-color="#7B3944"/>
<stop offset="0.5" stop-color="#7F3D4A"/>
<stop offset="1" stop-color="#7E3945"/>
</linearGradient>
<linearGradient id="paint8_linear_1147_1019" x1="175.18" y1="589.207" x2="175.18" y2="644.682" gradientUnits="userSpaceOnUse">
<stop stop-color="#96403D"/>
<stop offset="1" stop-color="#9E5D63" stop-opacity="0.41"/>
</linearGradient>
<linearGradient id="paint9_linear_1147_1019" x1="175.18" y1="589.207" x2="175.18" y2="644.682" gradientUnits="userSpaceOnUse">
<stop stop-color="#96403D"/>
<stop offset="1" stop-color="#9E5D63" stop-opacity="0.41"/>
</linearGradient>
<linearGradient id="paint10_linear_1147_1019" x1="105.671" y1="589.207" x2="105.671" y2="645.1" gradientUnits="userSpaceOnUse">
<stop stop-color="#8C4858"/>
<stop offset="1" stop-color="#7A3D4B"/>
</linearGradient>
<linearGradient id="paint11_linear_1147_1019" x1="91.6792" y1="602.024" x2="76.1795" y2="615.009" gradientUnits="userSpaceOnUse">
<stop stop-color="#7A3444"/>
<stop offset="1" stop-color="#7B3E4B"/>
</linearGradient>
<linearGradient id="paint12_linear_1147_1019" x1="238.961" y1="620.748" x2="318.384" y2="743.108" gradientUnits="userSpaceOnUse">
<stop stop-color="#C67465"/>
<stop offset="1" stop-color="#DC927D"/>
</linearGradient>
<linearGradient id="paint13_linear_1147_1019" x1="238.961" y1="620.748" x2="318.384" y2="743.108" gradientUnits="userSpaceOnUse">
<stop stop-color="#C67465"/>
<stop offset="1" stop-color="#DC927D"/>
</linearGradient>
<linearGradient id="paint14_linear_1147_1019" x1="238.961" y1="620.748" x2="318.384" y2="743.108" gradientUnits="userSpaceOnUse">
<stop stop-color="#C67465"/>
<stop offset="1" stop-color="#DC927D"/>
</linearGradient>
<linearGradient id="paint15_linear_1147_1019" x1="238.961" y1="620.748" x2="318.384" y2="743.108" gradientUnits="userSpaceOnUse">
<stop stop-color="#C67465"/>
<stop offset="1" stop-color="#DC927D"/>
</linearGradient>
<linearGradient id="paint16_linear_1147_1019" x1="863.148" y1="632.888" x2="707.3" y2="601.199" gradientUnits="userSpaceOnUse">
<stop stop-color="#D58C75"/>
<stop offset="0.454968" stop-color="#CE7662"/>
</linearGradient>
<linearGradient id="paint17_linear_1147_1019" x1="863.148" y1="632.888" x2="707.3" y2="601.199" gradientUnits="userSpaceOnUse">
<stop stop-color="#D58C75"/>
<stop offset="0.454968" stop-color="#CE7662"/>
</linearGradient>
<linearGradient id="paint18_linear_1147_1019" x1="723.68" y1="588.089" x2="723.68" y2="646.121" gradientUnits="userSpaceOnUse">
<stop stop-color="#A35B48"/>
<stop offset="0.5" stop-color="#C17468"/>
<stop offset="0.983041" stop-color="#B85555"/>
</linearGradient>
<linearGradient id="paint19_linear_1147_1019" x1="723.68" y1="588.089" x2="723.68" y2="646.121" gradientUnits="userSpaceOnUse">
<stop stop-color="#A35B48"/>
<stop offset="0.5" stop-color="#C17468"/>
<stop offset="0.983041" stop-color="#B85555"/>
</linearGradient>
<linearGradient id="paint20_linear_1147_1019" x1="723.68" y1="588.089" x2="723.68" y2="646.121" gradientUnits="userSpaceOnUse">
<stop stop-color="#A35B48"/>
<stop offset="0.5" stop-color="#C17468"/>
<stop offset="0.983041" stop-color="#B85555"/>
</linearGradient>
<linearGradient id="paint21_linear_1147_1019" x1="723.68" y1="588.089" x2="723.68" y2="646.121" gradientUnits="userSpaceOnUse">
<stop stop-color="#A35B48"/>
<stop offset="0.5" stop-color="#C17468"/>
<stop offset="0.983041" stop-color="#B85555"/>
</linearGradient>
<linearGradient id="paint22_linear_1147_1019" x1="723.68" y1="588.089" x2="723.68" y2="646.121" gradientUnits="userSpaceOnUse">
<stop stop-color="#A35B48"/>
<stop offset="0.5" stop-color="#C17468"/>
<stop offset="0.983041" stop-color="#B85555"/>
</linearGradient>
<linearGradient id="paint23_linear_1147_1019" x1="723.68" y1="588.089" x2="723.68" y2="646.121" gradientUnits="userSpaceOnUse">
<stop stop-color="#A35B48"/>
<stop offset="0.5" stop-color="#C17468"/>
<stop offset="0.983041" stop-color="#B85555"/>
</linearGradient>
<linearGradient id="paint24_linear_1147_1019" x1="723.68" y1="588.089" x2="723.68" y2="646.121" gradientUnits="userSpaceOnUse">
<stop stop-color="#A35B48"/>
<stop offset="0.5" stop-color="#C17468"/>
<stop offset="0.983041" stop-color="#B85555"/>
</linearGradient>
<linearGradient id="paint25_linear_1147_1019" x1="723.68" y1="588.089" x2="723.68" y2="646.121" gradientUnits="userSpaceOnUse">
<stop stop-color="#A35B48"/>
<stop offset="0.5" stop-color="#C17468"/>
<stop offset="0.983041" stop-color="#B85555"/>
</linearGradient>
<linearGradient id="paint26_linear_1147_1019" x1="723.68" y1="588.089" x2="723.68" y2="646.121" gradientUnits="userSpaceOnUse">
<stop stop-color="#A35B48"/>
<stop offset="0.5" stop-color="#C17468"/>
<stop offset="0.983041" stop-color="#B85555"/>
</linearGradient>
<linearGradient id="paint27_linear_1147_1019" x1="723.68" y1="588.089" x2="723.68" y2="646.121" gradientUnits="userSpaceOnUse">
<stop stop-color="#A35B48"/>
<stop offset="0.5" stop-color="#C17468"/>
<stop offset="0.983041" stop-color="#B85555"/>
</linearGradient>
<linearGradient id="paint28_linear_1147_1019" x1="723.68" y1="588.089" x2="723.68" y2="646.121" gradientUnits="userSpaceOnUse">
<stop stop-color="#A35B48"/>
<stop offset="0.5" stop-color="#C17468"/>
<stop offset="0.983041" stop-color="#B85555"/>
</linearGradient>
<linearGradient id="paint29_linear_1147_1019" x1="723.68" y1="588.089" x2="723.68" y2="646.121" gradientUnits="userSpaceOnUse">
<stop stop-color="#A35B48"/>
<stop offset="0.5" stop-color="#C17468"/>
<stop offset="0.983041" stop-color="#B85555"/>
</linearGradient>
<linearGradient id="paint30_linear_1147_1019" x1="723.68" y1="588.089" x2="723.68" y2="646.121" gradientUnits="userSpaceOnUse">
<stop stop-color="#A35B48"/>
<stop offset="0.5" stop-color="#C17468"/>
<stop offset="0.983041" stop-color="#B85555"/>
</linearGradient>
<linearGradient id="paint31_linear_1147_1019" x1="723.68" y1="588.089" x2="723.68" y2="646.121" gradientUnits="userSpaceOnUse">
<stop stop-color="#A35B48"/>
<stop offset="0.5" stop-color="#C17468"/>
<stop offset="0.983041" stop-color="#B85555"/>
</linearGradient>
<linearGradient id="paint32_linear_1147_1019" x1="0" y1="582.093" x2="666.466" y2="582.093" gradientUnits="userSpaceOnUse">
<stop stop-color="#F3B098"/>
<stop offset="1" stop-color="#FBCFB9"/>
</linearGradient>
<linearGradient id="paint33_linear_1147_1019" x1="444.398" y1="566.352" x2="444.398" y2="614.687" gradientUnits="userSpaceOnUse">
<stop stop-color="#E6A47D"/>
<stop offset="0.5" stop-color="#D69981"/>
<stop offset="1" stop-color="#E6B89E"/>
</linearGradient>
<linearGradient id="paint34_linear_1147_1019" x1="444.398" y1="566.352" x2="444.398" y2="614.687" gradientUnits="userSpaceOnUse">
<stop stop-color="#E6A47D"/>
<stop offset="0.5" stop-color="#D69981"/>
<stop offset="1" stop-color="#E6B89E"/>
</linearGradient>
<linearGradient id="paint35_linear_1147_1019" x1="444.398" y1="566.352" x2="444.398" y2="614.687" gradientUnits="userSpaceOnUse">
<stop stop-color="#E6A47D"/>
<stop offset="0.5" stop-color="#D69981"/>
<stop offset="1" stop-color="#E6B89E"/>
</linearGradient>
<linearGradient id="paint36_linear_1147_1019" x1="444.398" y1="566.352" x2="444.398" y2="614.687" gradientUnits="userSpaceOnUse">
<stop stop-color="#E6A47D"/>
<stop offset="0.5" stop-color="#D69981"/>
<stop offset="1" stop-color="#E6B89E"/>
</linearGradient>
<linearGradient id="paint37_linear_1147_1019" x1="444.398" y1="566.352" x2="444.398" y2="614.687" gradientUnits="userSpaceOnUse">
<stop stop-color="#E6A47D"/>
<stop offset="0.5" stop-color="#D69981"/>
<stop offset="1" stop-color="#E6B89E"/>
</linearGradient>
<linearGradient id="paint38_linear_1147_1019" x1="444.398" y1="566.352" x2="444.398" y2="614.687" gradientUnits="userSpaceOnUse">
<stop stop-color="#E6A47D"/>
<stop offset="0.5" stop-color="#D69981"/>
<stop offset="1" stop-color="#E6B89E"/>
</linearGradient>
<linearGradient id="paint39_linear_1147_1019" x1="444.398" y1="566.352" x2="444.398" y2="614.687" gradientUnits="userSpaceOnUse">
<stop stop-color="#E6A47D"/>
<stop offset="0.5" stop-color="#D69981"/>
<stop offset="1" stop-color="#E6B89E"/>
</linearGradient>
<linearGradient id="paint40_linear_1147_1019" x1="444.398" y1="566.352" x2="444.398" y2="614.687" gradientUnits="userSpaceOnUse">
<stop stop-color="#E6A47D"/>
<stop offset="0.5" stop-color="#D69981"/>
<stop offset="1" stop-color="#E6B89E"/>
</linearGradient>
<linearGradient id="paint41_linear_1147_1019" x1="444.398" y1="566.352" x2="444.398" y2="614.687" gradientUnits="userSpaceOnUse">
<stop stop-color="#E6A47D"/>
<stop offset="0.5" stop-color="#D69981"/>
<stop offset="1" stop-color="#E6B89E"/>
</linearGradient>
<linearGradient id="paint42_linear_1147_1019" x1="444.398" y1="566.352" x2="444.398" y2="614.687" gradientUnits="userSpaceOnUse">
<stop stop-color="#E6A47D"/>
<stop offset="0.5" stop-color="#D69981"/>
<stop offset="1" stop-color="#E6B89E"/>
</linearGradient>
<linearGradient id="paint43_linear_1147_1019" x1="444.398" y1="566.352" x2="444.398" y2="614.687" gradientUnits="userSpaceOnUse">
<stop stop-color="#E6A47D"/>
<stop offset="0.5" stop-color="#D69981"/>
<stop offset="1" stop-color="#E6B89E"/>
</linearGradient>
<linearGradient id="paint44_linear_1147_1019" x1="444.398" y1="566.352" x2="444.398" y2="614.687" gradientUnits="userSpaceOnUse">
<stop stop-color="#E6A47D"/>
<stop offset="0.5" stop-color="#D69981"/>
<stop offset="1" stop-color="#E6B89E"/>
</linearGradient>
<linearGradient id="paint45_linear_1147_1019" x1="444.398" y1="566.352" x2="444.398" y2="614.687" gradientUnits="userSpaceOnUse">
<stop stop-color="#E6A47D"/>
<stop offset="0.5" stop-color="#D69981"/>
<stop offset="1" stop-color="#E6B89E"/>
</linearGradient>
<linearGradient id="paint46_linear_1147_1019" x1="444.398" y1="566.352" x2="444.398" y2="614.687" gradientUnits="userSpaceOnUse">
<stop stop-color="#E6A47D"/>
<stop offset="0.5" stop-color="#D69981"/>
<stop offset="1" stop-color="#E6B89E"/>
</linearGradient>
<linearGradient id="paint47_linear_1147_1019" x1="444.398" y1="566.352" x2="444.398" y2="614.687" gradientUnits="userSpaceOnUse">
<stop stop-color="#E6A47D"/>
<stop offset="0.5" stop-color="#D69981"/>
<stop offset="1" stop-color="#E6B89E"/>
</linearGradient>
<linearGradient id="paint48_linear_1147_1019" x1="444.398" y1="566.352" x2="444.398" y2="614.687" gradientUnits="userSpaceOnUse">
<stop stop-color="#E6A47D"/>
<stop offset="0.5" stop-color="#D69981"/>
<stop offset="1" stop-color="#E6B89E"/>
</linearGradient>
<linearGradient id="paint49_linear_1147_1019" x1="444.398" y1="566.352" x2="444.398" y2="614.687" gradientUnits="userSpaceOnUse">
<stop stop-color="#E6A47D"/>
<stop offset="0.5" stop-color="#D69981"/>
<stop offset="1" stop-color="#E6B89E"/>
</linearGradient>
<linearGradient id="paint50_linear_1147_1019" x1="6.88428" y1="562.903" x2="286.702" y2="562.903" gradientUnits="userSpaceOnUse">
<stop stop-color="#E9AA9E"/>
<stop offset="1" stop-color="#E07F6F"/>
</linearGradient>
<linearGradient id="paint51_linear_1147_1019" x1="201.104" y1="540.165" x2="623.365" y2="540.165" gradientUnits="userSpaceOnUse">
<stop stop-color="#99523A"/>
<stop offset="0.471884" stop-color="#CE7E55"/>
<stop offset="0.978905" stop-color="#F2AA7A"/>
</linearGradient>
<linearGradient id="paint52_linear_1147_1019" x1="201.103" y1="537.958" x2="588.097" y2="532.962" gradientUnits="userSpaceOnUse">
<stop stop-color="#8C452D"/>
<stop offset="0.5" stop-color="#82402A"/>
<stop offset="1" stop-color="#A35931"/>
</linearGradient>
<linearGradient id="paint53_linear_1147_1019" x1="576.064" y1="516.057" x2="590.61" y2="580.616" gradientUnits="userSpaceOnUse">
<stop stop-color="#B87243"/>
<stop offset="1" stop-color="#DD9765"/>
</linearGradient>
<linearGradient id="paint54_linear_1147_1019" x1="576.064" y1="516.057" x2="590.61" y2="580.616" gradientUnits="userSpaceOnUse">
<stop stop-color="#B87243"/>
<stop offset="1" stop-color="#DD9765"/>
</linearGradient>
<linearGradient id="paint55_linear_1147_1019" x1="576.064" y1="516.057" x2="590.61" y2="580.616" gradientUnits="userSpaceOnUse">
<stop stop-color="#B87243"/>
<stop offset="1" stop-color="#DD9765"/>
</linearGradient>
<linearGradient id="paint56_linear_1147_1019" x1="576.064" y1="516.057" x2="590.61" y2="580.616" gradientUnits="userSpaceOnUse">
<stop stop-color="#B87243"/>
<stop offset="1" stop-color="#DD9765"/>
</linearGradient>
<linearGradient id="paint57_linear_1147_1019" x1="576.064" y1="516.057" x2="590.61" y2="580.616" gradientUnits="userSpaceOnUse">
<stop stop-color="#B87243"/>
<stop offset="1" stop-color="#DD9765"/>
</linearGradient>
<linearGradient id="paint58_linear_1147_1019" x1="576.064" y1="516.057" x2="590.61" y2="580.616" gradientUnits="userSpaceOnUse">
<stop stop-color="#B87243"/>
<stop offset="1" stop-color="#DD9765"/>
</linearGradient>
<linearGradient id="paint59_linear_1147_1019" x1="424.837" y1="0" x2="424.837" y2="186.847" gradientUnits="userSpaceOnUse">
<stop stop-color="#EDD4C8"/>
<stop offset="1" stop-color="#CE7678"/>
</linearGradient>
<linearGradient id="paint60_linear_1147_1019" x1="449.897" y1="34.9821" x2="442.734" y2="118.334" gradientUnits="userSpaceOnUse">
<stop stop-color="#F3D0C5"/>
<stop offset="1" stop-color="#D99694"/>
</linearGradient>
<linearGradient id="paint61_linear_1147_1019" x1="688.364" y1="153.629" x2="688.364" y2="257.356" gradientUnits="userSpaceOnUse">
<stop stop-color="#E4B5B4"/>
<stop offset="1" stop-color="#E3B3B3"/>
</linearGradient>
<linearGradient id="paint62_linear_1147_1019" x1="633.774" y1="183.356" x2="633.774" y2="278.119" gradientUnits="userSpaceOnUse">
<stop stop-color="#CF7678"/>
<stop offset="1" stop-color="#E5BBBA"/>
</linearGradient>
<linearGradient id="paint63_linear_1147_1019" x1="567.029" y1="57.8466" x2="567.029" y2="197.101" gradientUnits="userSpaceOnUse">
<stop stop-color="#E2B9B4"/>
<stop offset="1" stop-color="#CF7678"/>
</linearGradient>
<linearGradient id="paint64_linear_1147_1019" x1="235.338" y1="231.958" x2="274.817" y2="295.794" gradientUnits="userSpaceOnUse">
<stop stop-color="#C47577"/>
<stop offset="1" stop-color="#DDB7B6"/>
</linearGradient>
<linearGradient id="paint65_linear_1147_1019" x1="283.005" y1="311.034" x2="260.332" y2="311.034" gradientUnits="userSpaceOnUse">
<stop stop-color="#ECBCBC"/>
<stop offset="1" stop-color="#D1ACAE"/>
</linearGradient>
<linearGradient id="paint66_linear_1147_1019" x1="368.144" y1="150.08" x2="268.186" y2="196.721" gradientUnits="userSpaceOnUse">
<stop stop-color="#C97777"/>
<stop offset="1" stop-color="#D4A69E"/>
</linearGradient>
<linearGradient id="paint67_linear_1147_1019" x1="349.608" y1="191.446" x2="465.27" y2="398.446" gradientUnits="userSpaceOnUse">
<stop stop-color="#AC5052"/>
<stop offset="0.5" stop-color="#8C726D"/>
<stop offset="1" stop-color="#42312E"/>
</linearGradient>
<linearGradient id="paint68_linear_1147_1019" x1="551.923" y1="97.6574" x2="484.998" y2="507.375" gradientUnits="userSpaceOnUse">
<stop stop-color="#AD524D"/>
<stop offset="0.505658" stop-color="#7C5A50"/>
<stop offset="0.865385" stop-color="#927269"/>
<stop offset="0.9999" stop-color="#6E4F4A"/>
</linearGradient>
<linearGradient id="paint69_linear_1147_1019" x1="691.8" y1="204.492" x2="536.327" y2="362.279" gradientUnits="userSpaceOnUse">
<stop stop-color="#975350"/>
<stop offset="1" stop-color="#80615D"/>
</linearGradient>
<linearGradient id="paint70_linear_1147_1019" x1="263.776" y1="141.916" x2="277.79" y2="219.25" gradientUnits="userSpaceOnUse">
<stop stop-color="#EEBEAF"/>
<stop offset="1" stop-color="#CE9994"/>
</linearGradient>
<linearGradient id="paint71_linear_1147_1019" x1="500.623" y1="140.053" x2="500.623" y2="215.874" gradientUnits="userSpaceOnUse">
<stop stop-color="#EACAC7"/>
<stop offset="1" stop-color="#CF9292"/>
</linearGradient>
</defs>
</svg>
