<svg width="489" height="437" viewBox="0 0 489 437" fill="none" xmlns="http://www.w3.org/2000/svg">
<g filter="url(#filter0_n_1147_1018)">
<path d="M193.057 221.76C233.262 251.259 249.85 274.889 253.119 283.017L262.925 296.696L245.765 329.406L240.862 322.27C240.862 270.885 202.454 241.783 183.251 233.655C175.406 231.751 145.661 225.328 131.769 222.355C125.395 219.024 113.587 219.381 108.48 219.976C105.048 223.782 91.5233 226.716 85.1902 227.707C83.7193 231.513 74.3627 236.826 69.8682 239.007C67.907 238.531 60.0622 240.395 56.3849 241.386L55.772 240.197C57.2429 238.769 65.3738 237.619 69.2554 237.223C74.1584 235.796 80.2872 229.888 82.7387 227.112C79.3066 225.685 68.6425 226.121 63.7395 226.518L62.5137 225.328C66.4361 224.377 79.6743 224.535 85.8031 224.734C93.1577 224.734 101.125 219.579 104.189 217.002C99.2865 214.147 73.5455 213.434 61.2879 213.434C50.5013 212.006 41.6758 211.649 38.6114 211.649C15.0768 217.835 3.0644 216.209 0 214.623C14.7091 216.526 29.4182 211.451 34.9341 208.676C13.8511 205.821 6.94597 201.935 6.12879 200.35C25.2506 207.011 51.6862 209.865 62.5137 210.46C43.3919 203.323 36.9771 195.988 36.1599 193.213C43.0241 200.825 61.0836 207.486 69.2554 209.865C83.9645 208.914 94.9963 209.865 98.6736 210.46C105.538 213.315 116.651 214.425 121.35 214.623C118.899 213.672 103.985 203.918 96.8349 199.16C82.1258 196.781 74.3627 191.032 72.3198 188.455C77.7131 193.213 89.6847 195.988 94.9963 196.781C88.6224 193.451 85.8031 187.464 85.1902 184.887C91.5642 194.878 113.996 207.288 124.415 212.244C134.711 218.905 165.886 222.553 180.187 223.544C159.636 208.842 150.973 190.437 144.027 184.887C132.498 181.556 110.622 162.881 101.125 153.96C97.2893 152.306 77.7453 146.338 68.6684 143.655C67.1886 143.306 65.9239 142.971 64.9652 142.661C62.7251 141.936 64.6927 142.48 68.6684 143.655C76.2706 145.45 89.5529 147.612 96.2221 148.608L77.8357 132.55L99.2865 148.608C97.3252 146.705 90.7062 131.955 87.6418 124.819C105.293 159.551 130.543 173.785 140.962 176.56C122.331 153.723 119.307 129.775 120.124 120.655C120.124 140.638 140.554 171.406 150.768 184.292C143.414 156.696 144.435 129.576 145.865 119.466C144.885 130.409 148.725 156.141 150.768 167.639C154.2 194.759 180.391 215.02 193.057 221.76Z" fill="url(#paint0_linear_1147_1018)"/>
</g>
<g filter="url(#filter1_n_1147_1018)">
<g filter="url(#filter2_n_1147_1018)">
<path d="M271.96 311.453C267.724 303.095 252.468 260.444 248.232 240.163L253.955 319.443C231.924 370.575 221.655 419.376 258.623 436.584H281.245L278.635 435.728C251.097 423.928 255.367 395.24 260.839 382.129C278.209 349.68 275.491 321.491 271.96 311.453Z" fill="#C39E97"/>
</g>
<g filter="url(#filter3_n_1147_1018)">
<path d="M355.593 63.7168C368.047 54.4044 377.388 33.288 380.501 23.8938H381.747C382.245 25.3642 377.388 39.2104 374.897 45.9496C378.882 45.3932 387.766 36.7321 391.71 32.4711L393.578 33.6964C393.08 36.147 376.35 49.0129 368.047 55.1396C377.526 56.1198 388.602 51.0552 392.955 48.4003L394.201 49.6256C393.702 52.5664 377.388 56.5691 369.293 58.2029C364.311 59.1831 354.348 68.4139 349.989 72.9068C338.531 82.2192 324.873 104.561 319.477 114.568C324.458 111.627 345.63 111.3 355.593 111.504C369.044 112.975 379.463 104.765 382.992 100.477L384.86 101.702C381.747 104.39 375.395 109.746 374.897 109.666C386.355 111.627 397.106 106.807 401.05 104.153V105.991C397.563 112.362 360.16 116.814 341.894 118.244C304.532 124.125 279.001 159.088 270.906 175.834C247.991 210.633 250.15 245.473 254.093 258.543C269.536 305.596 257.622 346.358 249.734 360.858C222.958 406.195 256.223 428.824 265.148 436.584L158.821 436.828C159.817 433.397 174.596 427.23 181.86 424.575C195.809 423.594 200.126 411.505 200.541 405.582C207.516 381.076 215.901 370.048 219.222 367.597C234.167 356.814 238.733 331.246 239.149 319.809C241.141 310.007 234.582 274.064 231.054 257.318C227.566 248.986 229.185 228.114 230.431 218.72C240.892 198.135 207.391 140.708 189.333 114.568C184.849 113.097 165.048 99.6597 155.707 93.1246V90.674C158.696 95.5752 177.294 104.561 186.219 108.441C183.728 105.5 171.482 76.5827 165.67 62.4915C173.143 79.1559 204.9 129.884 219.845 153.165C221.339 141.892 215.486 110.892 212.373 96.8006C210.38 86.998 202.825 69.8435 199.296 62.4915C194.314 55.1396 170.652 45.5412 159.443 41.661V39.2104C160.44 40.6807 175.633 45.9496 183.106 48.4003C175.135 42.5187 168.161 13.6828 165.67 0L167.538 0.612662C174.014 31.4908 182.691 45.7454 186.219 49.0129C190.205 54.4044 196.598 55.7522 199.296 55.7522C199.296 53.3016 189.333 33.9006 184.351 24.5065C192.82 33.3288 208.636 69.435 215.486 86.3853C214.988 74.6222 220.675 59.4282 223.581 53.3016C228.563 46.4398 230.638 28.7951 231.054 20.8305C232.05 25.2417 230.638 41.4568 229.808 49.0129C234.79 38.7202 243.923 30.8373 247.866 28.1824V30.0204C235.911 36.3921 226.695 59.6324 223.581 70.4561C221.589 111.627 227.317 145.201 230.431 156.841C231.427 165.174 240.394 188.904 244.753 199.728C270.159 170.32 271.529 122.124 269.038 101.702C272.027 123.268 271.529 147.447 270.906 156.841C290.334 148.509 318.024 105.99 329.44 85.7727C333.923 82.8319 335.459 65.3506 335.667 56.9776C333.674 42.2737 336.497 36.9639 338.158 36.147C335.667 39.2104 337.535 50.8509 337.535 52.0763C339.528 60.4085 337.535 74.3363 336.29 80.2587L338.158 78.4207C355.095 66.1675 361.405 41.0483 362.443 30.0204L363.066 30.6331C364.062 34.064 358.499 54.1185 355.593 63.7168Z" fill="url(#paint1_linear_1147_1018)"/>
</g>
</g>
<g filter="url(#filter4_n_1147_1018)">
<path d="M266.631 309.807C261.845 287.439 290.565 253.887 305.523 239.906C281.59 243.465 264.836 281.635 259.451 300.275L266.631 309.807Z" fill="#B3948D"/>
<path d="M248.681 293.285C253.467 283.541 266.152 261.639 278.597 251.98C289.367 242.236 307.676 214.742 294.752 182.714L291.162 171.911L278.597 159.202L279.794 157.931L290.564 168.099L289.367 154.754L294.154 170.641L303.727 192.246C308.315 179.325 318.805 150.687 324.071 139.503L325.866 141.409C320.68 153.059 310.548 177.504 311.506 182.079C318.486 178.054 333.046 168.48 335.439 162.38C336.037 165.345 332.447 173.945 313.301 184.621C310.11 188.857 304.326 199.745 306.719 209.404C306.121 215.123 304.086 227.578 300.736 231.645C315.295 225.926 350.996 203.176 377.322 157.931L377.921 158.567C371.14 170.852 356.022 196.695 349.799 201.778C358.176 198.601 375.886 191.102 379.716 186.527C386.098 177.842 399.58 158.821 402.452 152.212L404.247 152.848C398.264 162.803 386.178 183.223 385.699 185.256L409.034 175.089C414.419 168.311 425.787 154.373 428.181 152.848L429.976 153.483C424.591 159.414 413.821 171.657 413.821 173.182C424.79 171.488 447.567 167.209 450.917 163.65C455.106 158.567 464.44 146.112 468.269 136.961H469.466C467.367 142.027 462.822 152.289 460.756 154.504L476.646 139.503L477.842 141.409C470.662 147.764 456.183 160.854 455.704 162.38C463.682 161.744 481.193 158.821 487.416 152.212L488.612 152.848C486.219 155.601 476.287 162.125 455.704 166.192C429.776 174.242 377.801 191.484 377.322 196.059L375.527 197.965C382.707 198.389 397.546 199.745 399.461 201.778C407.439 198.813 423.873 193.136 425.787 194.153C419.206 196.271 406.042 200.889 406.042 202.414L432.967 201.778V203.049L422.796 203.685L429.976 211.946L420.402 204.956H397.666C384.901 203.049 357.817 201.016 351.594 208.133C330.453 222.325 300.736 243.9 286.974 256.428C277.201 265.325 270.819 276.128 259.451 301.546C258.852 305.571 257.656 313.239 257.656 311.713C257.656 310.188 251.672 298.792 248.681 293.285Z" fill="url(#paint2_linear_1147_1018)"/>
</g>
<defs>
<filter id="filter0_n_1147_1018" x="0" y="119.466" width="262.925" height="209.94" filterUnits="userSpaceOnUse" color-interpolation-filters="sRGB">
<feFlood flood-opacity="0" result="BackgroundImageFix"/>
<feBlend mode="normal" in="SourceGraphic" in2="BackgroundImageFix" result="shape"/>
<feTurbulence type="fractalNoise" baseFrequency="10 10" stitchTiles="stitch" numOctaves="3" result="noise" seed="6985" />
<feColorMatrix in="noise" type="luminanceToAlpha" result="alphaNoise" />
<feComponentTransfer in="alphaNoise" result="coloredNoise1">
<feFuncA type="discrete" tableValues="1 1 1 1 1 1 1 1 1 1 1 1 1 1 1 1 1 1 1 1 1 1 1 1 1 1 1 1 1 1 1 1 1 1 1 1 1 1 1 1 1 1 1 1 1 1 1 1 1 1 1 0 0 0 0 0 0 0 0 0 0 0 0 0 0 0 0 0 0 0 0 0 0 0 0 0 0 0 0 0 0 0 0 0 0 0 0 0 0 0 0 0 0 0 0 0 0 0 0 0 "/>
</feComponentTransfer>
<feComposite operator="in" in2="shape" in="coloredNoise1" result="noise1Clipped" />
<feFlood flood-color="rgba(113, 25, 25, 0.24)" result="color1Flood" />
<feComposite operator="in" in2="noise1Clipped" in="color1Flood" result="color1" />
<feMerge result="effect1_noise_1147_1018">
<feMergeNode in="shape" />
<feMergeNode in="color1" />
</feMerge>
</filter>
<filter id="filter1_n_1147_1018" x="155.707" y="0" width="245.343" height="436.828" filterUnits="userSpaceOnUse" color-interpolation-filters="sRGB">
<feFlood flood-opacity="0" result="BackgroundImageFix"/>
<feBlend mode="normal" in="SourceGraphic" in2="BackgroundImageFix" result="shape"/>
<feTurbulence type="fractalNoise" baseFrequency="10 10" stitchTiles="stitch" numOctaves="3" result="noise" seed="6985" />
<feColorMatrix in="noise" type="luminanceToAlpha" result="alphaNoise" />
<feComponentTransfer in="alphaNoise" result="coloredNoise1">
<feFuncA type="discrete" tableValues="1 1 1 1 1 1 1 1 1 1 1 1 1 1 1 1 1 1 1 1 1 1 1 1 1 1 1 1 1 1 1 1 1 1 1 1 1 1 1 1 1 1 1 1 1 1 1 1 1 1 1 0 0 0 0 0 0 0 0 0 0 0 0 0 0 0 0 0 0 0 0 0 0 0 0 0 0 0 0 0 0 0 0 0 0 0 0 0 0 0 0 0 0 0 0 0 0 0 0 0 "/>
</feComponentTransfer>
<feComposite operator="in" in2="shape" in="coloredNoise1" result="noise1Clipped" />
<feFlood flood-color="rgba(113, 25, 25, 0.13)" result="color1Flood" />
<feComposite operator="in" in2="noise1Clipped" in="color1Flood" result="color1" />
<feMerge result="effect1_noise_1147_1018">
<feMergeNode in="shape" />
<feMergeNode in="color1" />
</feMerge>
</filter>
<filter id="filter2_n_1147_1018" x="234.115" y="240.163" width="47.1299" height="196.421" filterUnits="userSpaceOnUse" color-interpolation-filters="sRGB">
<feFlood flood-opacity="0" result="BackgroundImageFix"/>
<feBlend mode="normal" in="SourceGraphic" in2="BackgroundImageFix" result="shape"/>
<feTurbulence type="fractalNoise" baseFrequency="10 10" stitchTiles="stitch" numOctaves="3" result="noise" seed="8974" />
<feColorMatrix in="noise" type="luminanceToAlpha" result="alphaNoise" />
<feComponentTransfer in="alphaNoise" result="coloredNoise1">
<feFuncA type="discrete" tableValues="1 1 1 1 1 1 1 1 1 1 1 1 1 1 1 1 1 1 1 1 1 1 1 1 1 1 1 1 1 1 1 1 1 1 1 1 1 1 1 1 1 1 1 1 1 1 1 1 1 1 1 0 0 0 0 0 0 0 0 0 0 0 0 0 0 0 0 0 0 0 0 0 0 0 0 0 0 0 0 0 0 0 0 0 0 0 0 0 0 0 0 0 0 0 0 0 0 0 0 0 "/>
</feComponentTransfer>
<feComposite operator="in" in2="shape" in="coloredNoise1" result="noise1Clipped" />
<feFlood flood-color="rgba(80, 58, 58, 0.25)" result="color1Flood" />
<feComposite operator="in" in2="noise1Clipped" in="color1Flood" result="color1" />
<feMerge result="effect1_noise_1147_1018">
<feMergeNode in="shape" />
<feMergeNode in="color1" />
</feMerge>
</filter>
<filter id="filter3_n_1147_1018" x="155.707" y="0" width="245.343" height="436.828" filterUnits="userSpaceOnUse" color-interpolation-filters="sRGB">
<feFlood flood-opacity="0" result="BackgroundImageFix"/>
<feBlend mode="normal" in="SourceGraphic" in2="BackgroundImageFix" result="shape"/>
<feTurbulence type="fractalNoise" baseFrequency="10 10" stitchTiles="stitch" numOctaves="3" result="noise" seed="96" />
<feColorMatrix in="noise" type="luminanceToAlpha" result="alphaNoise" />
<feComponentTransfer in="alphaNoise" result="coloredNoise1">
<feFuncA type="discrete" tableValues="1 1 1 1 1 1 1 1 1 1 1 1 1 1 1 1 1 1 1 1 1 1 1 1 1 1 1 1 1 1 1 1 1 1 1 1 1 1 1 1 1 1 1 1 1 1 1 1 1 1 1 0 0 0 0 0 0 0 0 0 0 0 0 0 0 0 0 0 0 0 0 0 0 0 0 0 0 0 0 0 0 0 0 0 0 0 0 0 0 0 0 0 0 0 0 0 0 0 0 0 "/>
</feComponentTransfer>
<feComposite operator="in" in2="shape" in="coloredNoise1" result="noise1Clipped" />
<feFlood flood-color="rgba(63, 28, 28, 0.25)" result="color1Flood" />
<feComposite operator="in" in2="noise1Clipped" in="color1Flood" result="color1" />
<feMerge result="effect1_noise_1147_1018">
<feMergeNode in="shape" />
<feMergeNode in="color1" />
</feMerge>
</filter>
<filter id="filter4_n_1147_1018" x="248.681" y="136.961" width="239.932" height="174.95" filterUnits="userSpaceOnUse" color-interpolation-filters="sRGB">
<feFlood flood-opacity="0" result="BackgroundImageFix"/>
<feBlend mode="normal" in="SourceGraphic" in2="BackgroundImageFix" result="shape"/>
<feTurbulence type="fractalNoise" baseFrequency="10 10" stitchTiles="stitch" numOctaves="3" result="noise" seed="6985" />
<feColorMatrix in="noise" type="luminanceToAlpha" result="alphaNoise" />
<feComponentTransfer in="alphaNoise" result="coloredNoise1">
<feFuncA type="discrete" tableValues="1 1 1 1 1 1 1 1 1 1 1 1 1 1 1 1 1 1 1 1 1 1 1 1 1 1 1 1 1 1 1 1 1 1 1 1 1 1 1 1 1 1 1 1 1 1 1 1 1 1 1 0 0 0 0 0 0 0 0 0 0 0 0 0 0 0 0 0 0 0 0 0 0 0 0 0 0 0 0 0 0 0 0 0 0 0 0 0 0 0 0 0 0 0 0 0 0 0 0 0 "/>
</feComponentTransfer>
<feComposite operator="in" in2="shape" in="coloredNoise1" result="noise1Clipped" />
<feFlood flood-color="rgba(113, 25, 25, 0.24)" result="color1Flood" />
<feComposite operator="in" in2="noise1Clipped" in="color1Flood" result="color1" />
<feMerge result="effect1_noise_1147_1018">
<feMergeNode in="shape" />
<feMergeNode in="color1" />
</feMerge>
</filter>
<linearGradient id="paint0_linear_1147_1018" x1="131.463" y1="119.466" x2="247.124" y2="326.466" gradientUnits="userSpaceOnUse">
<stop stop-color="#AC5052"/>
<stop offset="0.5" stop-color="#8C726D"/>
<stop offset="1" stop-color="#42312E"/>
</linearGradient>
<linearGradient id="paint1_linear_1147_1018" x1="333.777" y1="25.6778" x2="266.852" y2="435.395" gradientUnits="userSpaceOnUse">
<stop stop-color="#AD524D"/>
<stop offset="0.505658" stop-color="#7C5A50"/>
<stop offset="0.865385" stop-color="#927269"/>
<stop offset="0.9999" stop-color="#6E4F4A"/>
</linearGradient>
<linearGradient id="paint2_linear_1147_1018" x1="473.654" y1="132.513" x2="318.182" y2="290.3" gradientUnits="userSpaceOnUse">
<stop stop-color="#975350"/>
<stop offset="1" stop-color="#80615D"/>
</linearGradient>
</defs>
</svg>
