<svg width="96" height="71" viewBox="0 0 96 71" fill="none" xmlns="http://www.w3.org/2000/svg">
<path d="M49.4861 0.0549339C40.2888 -0.744839 35.99 7.38618 34.9903 11.5517C33.7908 7.15293 29.4918 6.05322 27.4922 6.05321C21.4939 6.05321 22.4936 12.5514 21.4939 12.5514C17.495 9.05236 16.4953 13.5511 15.4956 13.5511C11.4966 20.749 14.829 26.2141 16.9952 28.047C13.3962 27.2472 12.1632 30.3796 11.9966 32.0458C7.99773 29.5465 6.49815 33.5454 5.49844 33.5454C0.699801 37.1444 4.49879 43.3759 6.99811 46.0418C2.99933 43.6425 0.666543 46.0418 0 47.5414C0 51.1404 4.66541 51.7069 6.99811 51.5403C3.79902 55.939 7.33143 58.7049 9.49751 59.538C9.09763 66.3361 16.6621 64.7032 20.4944 63.037C24.8931 75.4335 36.3232 70.5349 41.4884 66.536C53.485 72.1344 57.4839 66.536 57.9837 63.037C66.7812 65.8362 70.98 61.8707 71.9797 59.538C81.1771 60.7377 86.8089 50.3739 88.4751 45.0421C97.6724 38.6439 95.9729 31.0461 93.9735 28.047C96.7727 19.6493 88.4751 16.5502 83.9763 16.0504C83.1766 10.0521 78.9778 6.88631 76.9783 6.05321C70.5801 2.45423 64.3153 6.88631 61.9826 9.55222C59.1834 2.35426 52.4853 0.221547 49.4861 0.0549339Z" fill="url(#paint0_linear_1135_154)"/>
<defs>
<linearGradient id="paint0_linear_1135_154" x1="47.7757" y1="0" x2="87.2549" y2="63.8366" gradientUnits="userSpaceOnUse">
<stop stop-color="#C47577"/>
<stop offset="1" stop-color="#DDB7B6"/>
</linearGradient>
</defs>
</svg>
