<svg width="154" height="94" viewBox="0 0 154 94" fill="none" xmlns="http://www.w3.org/2000/svg">
<path d="M122.474 7.37561C114.476 -1.022 106.145 3.21012 102.979 6.37589C60.9913 -14.818 24.8349 21.8715 12.0053 42.8654C2.00812 41.6658 -0.157929 54.3622 0.00869016 60.8603C2.40801 78.0554 14.6712 80.688 20.5029 79.8549C26.1013 90.252 38.831 86.1865 44.496 82.8541C51.2941 94.4508 61.9911 90.6852 66.4898 87.3528C77.6866 100.949 99.4804 88.0193 108.978 79.8549C124.973 82.6541 141.968 70.0244 148.466 63.3596C159.263 48.1639 148.633 43.6985 141.968 43.3653C141.968 31.7686 132.304 28.5362 127.472 28.3696C137.07 15.5732 128.139 9.04177 122.474 7.37561Z" fill="url(#paint0_linear_1135_152)"/>
<defs>
<linearGradient id="paint0_linear_1135_152" x1="140.259" y1="3.74416e-06" x2="40.3011" y2="46.6416" gradientUnits="userSpaceOnUse">
<stop stop-color="#C97777"/>
<stop offset="1" stop-color="#D4A69E"/>
</linearGradient>
</defs>
</svg>
