<svg width="230" height="187" viewBox="0 0 230 187" fill="none" xmlns="http://www.w3.org/2000/svg">
<path d="M68.5891 25.7375C62.0782 30.813 62.4234 41.5982 63.4099 46.3565C46.2452 44.4531 48.3656 55.0799 51.5714 60.6312C45.6524 58.0935 44.6659 63.8033 44.9125 66.9755C38.4016 62.5345 30.8551 67.2398 27.8957 70.1476C17.2418 58.7279 6.19261 66.9755 1.99978 72.5267C-5.10304 93.4629 8.41219 107.685 16.0577 112.178C8.36305 121.06 20.7436 126.982 27.8957 128.832C10.7305 129.467 12.8515 147.072 16.0577 155.795C21.3848 168.484 40.4736 169.541 49.3521 168.484C51.7197 176.732 59.7105 180.379 63.4099 181.173C72.2886 188.151 85.3596 187.252 90.7853 185.931C99.0719 185.931 109.036 174.3 112.982 168.484C117.125 172.925 127.533 170.334 132.218 168.484C147.608 178.635 158.361 165.84 161.813 158.174C167.733 162.615 177.598 156.324 181.79 152.623C190.077 153.258 193.628 144.429 194.368 139.935C215.677 128.515 210.645 116.672 205.466 112.178C217.896 104.565 226.429 85.2153 229.142 76.4919C234.469 39.695 211.632 33.1393 199.547 34.461C201.323 20.5036 190.422 15.9569 184.75 15.4282C172.912 -6.77681 157.128 0.889109 150.715 7.49769C123.488 -12.1696 114.215 11.4629 112.982 25.7375C88.5656 -6.7769 70.8086 25.7375 68.5891 25.7375Z" fill="url(#paint0_linear_1135_153)"/>
<defs>
<linearGradient id="paint0_linear_1135_153" x1="114.967" y1="0" x2="114.967" y2="186.847" gradientUnits="userSpaceOnUse">
<stop stop-color="#EDD4C8"/>
<stop offset="1" stop-color="#CE7678"/>
</linearGradient>
</defs>
</svg>
