<svg width="263" height="210" viewBox="0 0 263 210" fill="none" xmlns="http://www.w3.org/2000/svg">
<g filter="url(#filter0_n_1135_144)">
<path d="M193.057 102.294C233.262 131.793 249.85 155.423 253.119 163.551L262.925 177.23L245.765 209.94L240.862 202.804C240.862 151.419 202.454 122.317 183.251 114.189C175.406 112.285 145.661 105.862 131.769 102.889C125.395 99.5581 113.587 99.9149 108.48 100.51C105.048 104.316 91.5233 107.25 85.1902 108.241C83.7193 112.047 74.3627 117.36 69.8682 119.541C67.907 119.065 60.0622 120.929 56.3849 121.92L55.772 120.731C57.2429 119.303 65.3738 118.153 69.2554 117.757C74.1584 116.33 80.2872 110.422 82.7387 107.646C79.3066 106.219 68.6425 106.655 63.7395 107.052L62.5137 105.862C66.4361 104.911 79.6743 105.069 85.8031 105.268C93.1577 105.268 101.125 100.113 104.189 97.536C99.2865 94.6813 73.5455 93.9676 61.2879 93.9676C50.5013 92.5403 41.6758 92.1834 38.6114 92.1834C15.0768 98.3686 3.0644 96.743 0 95.1571C14.7091 97.0602 29.4182 91.9852 34.9341 89.2098C13.8511 86.3551 6.94597 82.4695 6.12879 80.8835C25.2506 87.5445 51.6862 90.3992 62.5137 90.994C43.3919 83.8572 36.9771 76.5222 36.1599 73.7467C43.0241 81.3593 61.0836 88.0203 69.2554 90.3992C83.9645 89.4477 94.9963 90.3992 98.6736 90.994C105.538 93.8487 116.651 94.9588 121.35 95.1571C118.899 94.2055 103.985 84.4519 96.8349 79.6941C82.1258 77.3151 74.3627 71.5661 72.3198 68.9889C77.7131 73.7467 89.6847 76.5222 94.9963 77.3151C88.6224 73.9846 85.8031 67.9977 85.1902 65.4205C91.5642 75.412 113.996 87.8221 124.415 92.7782C134.711 99.4392 165.886 103.087 180.187 104.078C159.636 89.3765 150.973 70.9713 144.027 65.4205C132.498 62.09 110.622 43.4154 101.125 34.4944C97.2893 32.8401 77.7453 26.8717 68.6684 24.1893C67.1886 23.84 65.9239 23.5046 64.9652 23.1945C62.7251 22.4699 64.6927 23.0144 68.6684 24.1893C76.2706 25.9838 89.5529 28.1462 96.2221 29.1419L77.8357 13.0841L99.2865 29.1419C97.3252 27.2387 90.7062 12.4894 87.6418 5.35259C105.293 40.0849 130.543 54.3188 140.962 57.0943C122.331 34.2566 119.307 10.3087 120.124 1.18946C120.124 21.1725 140.554 51.9399 150.768 64.8258C143.414 37.2302 144.435 10.1104 145.865 0C144.885 10.9431 148.725 36.6751 150.768 48.1733C154.2 75.293 180.391 95.5536 193.057 102.294Z" fill="url(#paint0_linear_1135_144)"/>
</g>
<defs>
<filter id="filter0_n_1135_144" x="0" y="0" width="262.925" height="209.94" filterUnits="userSpaceOnUse" color-interpolation-filters="sRGB">
<feFlood flood-opacity="0" result="BackgroundImageFix"/>
<feBlend mode="normal" in="SourceGraphic" in2="BackgroundImageFix" result="shape"/>
<feTurbulence type="fractalNoise" baseFrequency="10 10" stitchTiles="stitch" numOctaves="3" result="noise" seed="6985" />
<feColorMatrix in="noise" type="luminanceToAlpha" result="alphaNoise" />
<feComponentTransfer in="alphaNoise" result="coloredNoise1">
<feFuncA type="discrete" tableValues="1 1 1 1 1 1 1 1 1 1 1 1 1 1 1 1 1 1 1 1 1 1 1 1 1 1 1 1 1 1 1 1 1 1 1 1 1 1 1 1 1 1 1 1 1 1 1 1 1 1 1 0 0 0 0 0 0 0 0 0 0 0 0 0 0 0 0 0 0 0 0 0 0 0 0 0 0 0 0 0 0 0 0 0 0 0 0 0 0 0 0 0 0 0 0 0 0 0 0 0 "/>
</feComponentTransfer>
<feComposite operator="in" in2="shape" in="coloredNoise1" result="noise1Clipped" />
<feFlood flood-color="rgba(113, 25, 25, 0.24)" result="color1Flood" />
<feComposite operator="in" in2="noise1Clipped" in="color1Flood" result="color1" />
<feMerge result="effect1_noise_1135_144">
<feMergeNode in="shape" />
<feMergeNode in="color1" />
</feMerge>
</filter>
<linearGradient id="paint0_linear_1135_144" x1="131.463" y1="-4.25423e-06" x2="247.124" y2="207" gradientUnits="userSpaceOnUse">
<stop stop-color="#AC5052"/>
<stop offset="0.5" stop-color="#8C726D"/>
<stop offset="1" stop-color="#42312E"/>
</linearGradient>
</defs>
</svg>
