<svg width="220" height="140" viewBox="0 0 220 140" fill="none" xmlns="http://www.w3.org/2000/svg">
<path d="M86.4541 30.5129C90.2864 24.6812 101.55 14.4174 115.946 20.0159C118.278 14.1842 125.443 3.12064 135.44 5.51996C139.106 1.35447 149.436 -4.47722 161.433 5.51996C165.265 4.35361 173.529 4.42023 175.929 14.0175C180.261 10.8518 190.724 7.61943 197.922 20.0159C201.588 22.5151 206.72 30.5128 197.922 42.5094C201.088 41.6763 206.92 42.3095 204.92 51.5068C209.752 50.6737 219.316 52.9064 218.916 68.502C219.583 70.5014 219.616 75.5 214.418 79.4989C215.584 81.9982 216.117 87.7965 208.919 90.9956C206.587 91.9953 201.521 93.6949 199.922 92.4952C201.588 95.661 203.121 102.792 195.923 105.991C191.955 106.983 183.854 108.369 182.947 106.047C185.588 113.39 184.563 126.874 159.433 122.487C158.6 125.652 154.435 130.684 144.438 125.486C143.11 132.786 135.703 145.077 116.687 136.097C115.368 136.891 90.3046 141.087 77.4567 125.486C61.4612 127.652 25.2715 127.885 8.47629 111.49C-0.18791 103.492 -9.71853 82.9979 21.4726 65.003C35.9685 48.6744 69.259 18.9162 86.4541 30.5129Z" fill="url(#paint0_linear_1135_157)"/>
<defs>
<linearGradient id="paint0_linear_1135_157" x1="109.614" y1="0" x2="109.614" y2="139.254" gradientUnits="userSpaceOnUse">
<stop stop-color="#E2B9B4"/>
<stop offset="1" stop-color="#CF7678"/>
</linearGradient>
</defs>
</svg>
