<svg width="153" height="104" viewBox="0 0 153 104" fill="none" xmlns="http://www.w3.org/2000/svg">
<path d="M30.1229 20.7237C23.7247 19.9239 17.1266 25.0558 14.6273 27.7217C8.1292 27.7217 3.6304 38.7186 0.131395 55.7138C-2.66781 69.3099 39.9534 91.7035 61.6139 101.201C67.6122 104 71.7777 101.034 73.1106 99.2014C75.51 103.2 81.7749 103.867 84.6074 103.7C89.406 104.1 95.6043 99.8679 98.1035 97.7018C100.103 100.901 108.267 101.034 112.1 100.701C120.097 99.1014 122.763 94.7027 123.096 92.7033C129.895 95.9024 134.926 93.3697 136.593 91.7035C147.789 79.3071 141.258 75.8747 136.593 75.7081C137.792 74.5084 137.092 72.5423 136.593 71.7092C149.389 70.5096 151.922 61.5455 151.588 57.2133C155.187 40.4181 140.425 35.2196 132.594 34.7197C133.394 23.9228 120.264 20.8903 113.599 20.7237C118.398 17.1247 115.599 13.8923 113.599 12.726C109.6 9.92679 106.268 13.5591 105.102 15.7251C101.902 8.1273 94.7712 8.22722 91.6054 9.2269C79.1089 -2.2699 68.1121 0.229531 67.1124 0.229531C53.1163 -0.170355 48.9509 11.7263 48.6176 17.7246C37.0209 9.72694 31.4558 16.3916 30.1229 20.7237Z" fill="url(#paint0_linear_1135_161)"/>
<defs>
<linearGradient id="paint0_linear_1135_161" x1="76.072" y1="0" x2="76.072" y2="103.727" gradientUnits="userSpaceOnUse">
<stop stop-color="#E4B5B4"/>
<stop offset="1" stop-color="#E3B3B3"/>
</linearGradient>
</defs>
</svg>
