<svg width="106" height="87" viewBox="0 0 106 87" fill="none" xmlns="http://www.w3.org/2000/svg">
<path d="M86.4754 1.3888C68.8804 -4.20957 58.8043 8.47702 56.305 15.3084C53.9057 10.5098 48.6405 11.6428 46.3079 12.8091C44.8083 7.81052 40.3096 7.81051 38.81 7.31066C31.6121 7.31066 28.8129 11.3095 28.313 13.309C24.3141 10.5097 20.3153 12.1426 18.8157 13.309C14.0171 18.1076 15.1501 23.3061 16.3164 25.3055C11.9177 26.1053 11.8177 28.9712 12.3175 30.3041C9.11845 27.105 6.65249 28.9712 5.81939 30.3041C2.6203 34.7029 6.15263 37.4687 8.31868 38.3018C7.91879 39.1016 8.15206 40.6345 8.31868 41.301C3.91993 39.7014 1.15403 41.301 0.320927 42.3007C-1.6785 47.0993 6.1526 47.9658 10.3181 47.7991C2.32032 54.5972 6.98568 59.2959 10.3181 60.7954C3.52001 77.9906 16.1498 84.9553 23.3144 86.2882C23.7143 82.6892 27.8131 82.7892 29.8125 83.2891C29.8125 68.0934 43.8086 67.9601 50.8066 69.7929C66.802 72.1922 69.8012 62.1284 69.3013 56.7966C70.1011 50.3984 77.9655 50.465 81.7978 51.2981C76.9991 44.1002 86.1299 40.3013 91.2951 39.3016C91.6949 24.9056 101.126 23.6394 105.791 24.8057C104.291 18.3075 107.469 8.06866 86.4754 1.3888Z" fill="url(#paint0_linear_1135_151)"/>
<defs>
<linearGradient id="paint0_linear_1135_151" x1="38.8817" y1="8.95417" x2="52.8955" y2="86.2882" gradientUnits="userSpaceOnUse">
<stop stop-color="#EEBEAF"/>
<stop offset="1" stop-color="#CE9994"/>
</linearGradient>
</defs>
</svg>
