<svg width="180" height="117" viewBox="0 0 180 117" fill="none" xmlns="http://www.w3.org/2000/svg">
<path d="M144.215 23.3521C151.777 22.4509 159.575 28.2337 162.529 31.2377C170.209 31.2377 175.526 43.6293 179.661 62.78C182.969 78.1006 132.596 103.334 106.996 114.036C99.9069 117.191 94.9838 113.849 93.4084 111.783C90.5727 116.289 83.1684 117.04 79.8207 116.853C74.1493 117.303 66.8237 112.534 63.8698 110.094C61.5068 113.698 51.8575 113.849 47.3282 113.473C37.8759 111.671 34.7251 106.714 34.3313 104.461C26.2968 108.066 20.3496 105.212 18.3804 103.334C5.14711 89.3657 12.8665 85.498 18.3804 85.3103C16.9626 83.9584 17.7896 81.743 18.3804 80.8042C3.25665 79.4524 0.263397 69.3513 0.657257 64.4698C-3.5963 45.5444 13.8512 39.6866 23.1066 39.1233C22.1613 26.957 37.679 23.5399 45.5559 23.3521C39.8845 19.2967 43.1928 15.6543 45.5559 14.3401C50.2821 11.1858 54.2206 15.2788 55.599 17.7196C59.38 9.1581 67.8083 9.27069 71.5499 10.3972C86.3192 -2.55779 99.3161 0.258643 100.498 0.258643C117.039 -0.191961 121.962 13.2136 122.356 19.9727C136.062 10.9606 142.639 18.4706 144.215 23.3521Z" fill="url(#paint0_linear_1139_217)"/>
<defs>
<linearGradient id="paint0_linear_1139_217" x1="89.9085" y1="6.55134e-07" x2="82.7454" y2="83.352" gradientUnits="userSpaceOnUse">
<stop stop-color="#F3D0C5"/>
<stop offset="1" stop-color="#D99694"/>
</linearGradient>
</defs>
</svg>
