<svg width="146" height="76" viewBox="0 0 146 76" fill="none" xmlns="http://www.w3.org/2000/svg">
<path d="M85.5958 10.6434C81.9754 -1.57557 72.0192 1.02662 67.4936 3.8551C65.6832 -0.670475 60.3282 -0.293322 57.877 0.460951C51.0887 2.27117 53.1629 8.38067 55.0486 11.2091C49.1653 9.39892 48.8259 13.0948 49.3916 15.169C47.5814 10.6434 42.2262 10.2663 39.7748 10.6434C33.8916 13.8113 35.0607 19.506 36.3806 21.9573C28.2347 13.8113 22.0497 19.3174 19.9755 23.0887C9.11419 22.1836 8.28442 29.1228 9.2272 32.7055C1.9862 32.253 0.176045 37.4196 0.176091 40.0596C-1.18158 45.9428 5.64447 47.4136 9.2272 47.4136L4.136 51.3734C-1.29467 57.7092 4.51304 60.0474 8.09573 60.4245C1.3074 61.3297 1.49597 65.3272 2.43879 67.2129C5.60668 74.9063 12.4327 71.1727 15.4498 68.3443C18.6176 75.5852 25.0666 72.1156 27.895 69.4756C35.1359 78.0742 45.9972 70.7956 50.5228 66.0815C51.4279 71.9647 59.951 70.7956 64.0994 69.4756C68.625 74.4538 75.7905 70.4185 78.8075 67.7786C89.6688 77.7348 95.0241 70.7956 96.344 66.0815C99.9645 70.607 106.149 69.4757 108.789 68.3443C116.483 79.2056 124.063 75.8868 126.891 72.8698C138.658 79.2056 138.205 72.1156 136.508 67.7786C149.18 65.0632 146.314 54.579 143.297 49.6764C146.917 41.5304 140.28 39.871 136.508 40.0596C135.151 37.7968 132.926 37.6082 131.983 37.7968C139.224 31.0084 131.606 24.7858 126.891 22.523C114.446 17.9975 112.183 25.3515 111.052 25.9172C107.092 23.0887 102.001 24.2201 100.87 24.2201C106.753 20.5997 104.452 18.186 102.567 17.4318C99.3988 4.76023 89.9328 7.6264 85.5958 10.6434Z" fill="url(#paint0_linear_1135_159)"/>
<defs>
<linearGradient id="paint0_linear_1135_159" x1="72.9409" y1="0" x2="72.9409" y2="75.8214" gradientUnits="userSpaceOnUse">
<stop stop-color="#EACAC7"/>
<stop offset="1" stop-color="#CF9292"/>
</linearGradient>
</defs>
</svg>
