<svg width="90" height="95" viewBox="0 0 90 95" fill="none" xmlns="http://www.w3.org/2000/svg">
<path d="M19.2439 7.929C21.2433 -0.468616 33.7397 -0.568588 39.738 0.431127C36.9389 0.830994 35.9058 4.59662 35.7391 6.42945C30.5406 6.82933 31.2404 13.5941 32.2401 16.9265C37.0387 15.7268 37.5719 22.0917 37.2387 25.424C54.4338 19.8256 55.7334 31.0891 54.2338 37.4206C65.0308 27.4235 73.3951 37.5873 76.2276 43.9188C82.6258 47.5178 83.2256 55.4155 82.7258 58.9145C89.1239 58.1148 89.7238 62.5802 89.2239 64.9128C91.6232 70.1113 86.558 75.7431 83.7255 77.9091C87.7243 77.9091 88.0576 81.5748 87.7243 83.4076C88.5241 90.6055 82.7258 90.7388 79.7266 89.9057C76.9274 98.7032 71.229 93.5713 68.7297 89.9057C68.7297 95.1042 67.73 94.7377 67.2302 93.9046C62.0316 93.9046 62.7314 83.2409 63.7312 77.9091C50.5349 77.5092 50.5682 69.7448 52.2344 65.9125C43.4369 69.1116 36.9054 64.5796 34.7394 61.9137C22.3429 62.3136 19.2438 54.749 19.2439 50.9168C14.0454 55.3155 8.41358 52.7496 6.24749 50.9168C-0.15069 45.3184 2.58192 40.2532 4.748 38.4204C-2.05007 34.4215 -0.0839641 28.7564 1.74885 26.4238C6.1476 18.8259 10.5797 17.9262 12.2458 18.426C7.44721 12.4277 14.9118 8.92872 19.2439 7.929Z" fill="url(#paint0_linear_1135_160)"/>
<defs>
<linearGradient id="paint0_linear_1135_160" x1="44.9253" y1="0" x2="44.9253" y2="94.7633" gradientUnits="userSpaceOnUse">
<stop stop-color="#CF7678"/>
<stop offset="1" stop-color="#E5BBBA"/>
</linearGradient>
</defs>
</svg>
