<svg width="963" height="687" viewBox="0 0 963 687" fill="none" xmlns="http://www.w3.org/2000/svg">
<g filter="url(#filter0_n_1147_1015)">
<path d="M33.1659 539.041L6.34008 511.82C4.48295 509.935 3.44189 507.396 3.44189 504.75C3.44189 499.19 7.94702 494.682 13.507 494.678L942.643 494.016C948.449 494.012 953.158 498.718 953.158 504.524C953.158 507.47 951.921 510.281 949.749 512.271L934.094 526.616L910.363 547.593C903.396 553.752 894.956 558.007 885.861 559.946L792.778 579.797C783.705 581.732 775.35 586.154 768.648 592.569C744.564 615.622 713.355 629.797 680.149 632.767L616.653 638.444C611.556 638.9 606.716 640.674 602.415 643.447C582.421 656.338 519.893 693.28 470.441 685.832C416.079 677.645 378.212 655.485 362.667 644.908C357.423 641.341 351.347 638.997 345.01 638.732L287.568 636.33C255.953 635.008 225.609 623.521 201.045 603.574L184.072 589.792C176.961 584.017 168.497 580.147 159.478 578.544L100.44 568.055C97.2744 567.492 94.1657 566.648 91.1506 565.533L51.4312 550.84C44.551 548.294 38.3151 544.266 33.1659 539.041Z" fill="url(#paint0_linear_1147_1015)"/>
<path d="M31.9017 539.324L5.153 512.066C3.29988 510.178 2.26172 507.638 2.26172 504.992C2.26172 499.417 6.77933 494.896 12.3547 494.892L535.25 494.518C541.881 494.513 547.259 499.887 547.259 506.518V538.583C546.781 555.713 541.323 578.352 538.654 587.53C532.864 606.004 511.6 642.179 501.691 657.958C498.065 666.057 488.191 673.588 478.989 679.027C470.347 684.135 460.006 685.233 450.201 683.078C405.603 673.278 374.418 654.809 360.673 645.421C355.421 641.834 349.339 639.483 342.983 639.216L285.995 636.823C254.285 635.492 223.858 623.934 199.261 603.877L182.509 590.216C175.39 584.411 166.909 580.518 157.867 578.905L99.0617 568.413C95.8855 567.846 92.7663 566.996 89.7418 565.872L50.1765 551.174C43.2882 548.615 37.0485 544.569 31.9017 539.324Z" fill="url(#paint1_linear_1147_1015)"/>
<path d="M335.193 533.234L234.494 527.26C226.912 546.503 240.792 565.851 248.68 573.119L278.701 585.046L313.89 633.557L355.674 635.961C373.643 650.525 387.249 652.277 391.807 651.332C389.55 649.936 386.152 637.817 383.905 631.78C382.625 619.174 376.326 602.362 374.352 596.627C358.558 587.456 337.433 549.635 335.193 533.234Z" fill="url(#paint2_linear_1147_1015)" fill-opacity="0.88"/>
<path d="M234.524 527.197C232.965 541.334 239.135 570.535 276.289 574.246C284.346 576.519 299.809 585.869 297.201 605.079C301.146 611.315 308.093 622.072 311.853 627.234C312.801 628.326 313.661 629.315 314.395 630.159C314.172 630.255 313.225 629.116 311.853 627.234C306.018 620.509 296.846 609.87 292.936 605.079C286.355 598.097 267.341 584.79 243.933 587.415C232.334 589.033 206.833 586.045 197.629 561.159C198.005 569.772 207.792 588.083 243.933 592.415C250.871 594.942 265.651 602.336 269.273 611.694C274.038 615.312 284.183 623.438 286.646 626.995C276.448 619.102 251.897 602.523 235.273 599.353C241.217 606.728 253.538 621.697 255.279 622.571C251.394 628.243 230.204 630.698 176.378 582.117C169.688 579.204 151.017 573.932 140.346 571.398C130.363 558.24 109.966 534.65 104.696 515.235L102.513 510.484C142.219 513.717 224.21 521.585 234.524 527.197Z" fill="url(#paint3_linear_1147_1015)"/>
<path d="M381.423 536.084H372.811C377.389 549.724 386.544 577.376 386.544 578.86C394.224 605.034 405.164 613.718 406.095 616.29C416.894 625.259 422.387 640.761 423.784 647.39C423.784 635.044 413.388 619.798 408.189 613.718C399.438 598.752 386.699 555.726 381.423 536.084Z" fill="url(#paint4_linear_1147_1015)"/>
<path d="M372.811 594.351C355.209 584.746 339.475 549.489 333.808 533.061H331.039C335.793 549.257 348.154 568.619 353.741 576.275C357.747 583.413 367.215 591.778 371.449 595.069C376.558 598.856 380.605 615.044 381.989 622.665C383.477 637.665 389.306 646.339 392.034 648.801C388.699 645.338 385.549 634.93 384.391 630.159C380.723 605.081 375.143 595.838 372.811 594.351Z" fill="url(#paint5_linear_1147_1015)"/>
<path d="M430.587 619.433C426.611 614.459 427.118 607.437 427.868 604.548C431.579 591.349 428.374 577.923 426.248 572.683C432.228 585.853 432.07 595.583 431.243 598.802C426.818 608.674 428.962 616.669 430.587 619.433Z" fill="url(#paint6_linear_1147_1015)"/>
<path d="M440.433 603.889C450.747 612.336 465.825 634.091 443.621 653.535C451.028 645.527 460.762 624.388 440.433 603.889Z" fill="url(#paint7_linear_1147_1015)"/>
<path d="M104.129 511.982L95.5347 510.484C99.6205 520.298 109.35 533.431 113.704 538.771C125.961 557.361 139.812 571.394 141.285 570.802C139.223 570.21 118.713 542.915 118.713 541.583C112.349 534.005 106.338 518.691 104.129 511.982Z" fill="url(#paint8_linear_1147_1015)"/>
<path d="M238.865 546.212C236.363 530.291 232.903 526.042 231.486 525.907C229.241 529.453 233.705 540.223 236.218 545.164C242.827 563.406 251.376 566.57 254.824 565.872C246.74 563.422 240.816 551.745 238.865 546.212Z" fill="url(#paint9_linear_1147_1015)"/>
<path d="M88.4285 511.729L76.3301 510.484C79.3023 522.811 91.9851 535.592 97.9549 540.441C109.31 548.71 111.133 558.243 110.625 561.975L135.013 566.378C133.946 563.468 118.31 545.194 110.625 536.421C102.852 532.746 92.5884 518.428 88.4285 511.729Z" fill="url(#paint10_linear_1147_1015)"/>
<path d="M74.4363 511.729L62.3379 510.484C65.3102 522.811 77.9929 535.592 83.9628 540.441C95.3182 548.71 97.1409 558.243 96.6329 561.975L121.02 566.378C120.217 564.186 111.146 553.276 103.434 544.276C98.9742 539.071 93.2914 534.937 88.5023 530.034C82.7956 524.191 77.2349 516.236 74.4363 511.729Z" fill="url(#paint11_linear_1147_1015)"/>
<path d="M448.123 537.93H440.068C442.484 564.845 461.435 584.784 470.608 591.389C492.663 609.371 483.73 641.857 476.508 655.852C497.988 620.861 482.645 595.029 472.288 586.486C451.575 571.842 447.548 548.014 448.123 537.93Z" fill="url(#paint12_linear_1147_1015)"/>
<path d="M421.067 562.689C408.921 553.056 408.149 542.169 409.281 537.93C409.281 540.601 414.208 549.127 416.671 553.056C428.018 565.157 428.99 576.294 428.058 580.351C427.419 571.52 423.131 564.897 421.067 562.689Z" fill="url(#paint13_linear_1147_1015)"/>
<path d="M299.409 548.039C293.336 532.786 296.213 532.183 298.41 533.789C311.576 550.669 330.665 590.194 338.563 607.846L323.581 587.977C317.028 583.642 304.736 559.545 299.409 548.039Z" fill="url(#paint14_linear_1147_1015)"/>
<path d="M166.019 522.95C177.431 530.816 196.274 560.013 196.407 560.813C201.079 572.118 213.658 581.788 219.363 585.21C208.853 581.584 198.972 570.812 195.344 565.879L179.023 546.681C162.568 528.229 163.497 523.172 166.019 522.95Z" fill="url(#paint15_linear_1147_1015)"/>
<path d="M762.37 527.1L705.377 532.42C705.377 541.58 692.082 567.433 685.434 579.214L687.538 580.476C735.548 560.568 757.43 536.597 762.37 527.1Z" fill="url(#paint16_linear_1147_1015)"/>
<path d="M772.688 586.608C780.585 582.007 798.079 523.816 799.466 522.921C800.883 522.007 843.018 520.554 863.148 518.504C858.029 541.512 835.839 560.183 825.384 566.642C822.792 570.092 781.216 583.756 772.688 586.608C772.521 586.706 772.358 586.779 772.2 586.827C770.584 587.322 770.95 587.19 772.688 586.608Z" fill="url(#paint17_linear_1147_1015)"/>
<path d="M577.622 542.318L572.632 543.021C573.887 552.463 572.109 573.558 571.063 582.925C565.771 598.757 552.511 621.839 546.542 631.401C542.551 637.134 530.433 649.339 524.873 654.725C528.18 654.051 540.697 641.237 546.542 634.914C547.113 638.736 544.784 649.714 543.549 654.725C547.198 650.342 549.061 638.567 549.536 633.228C556.037 623.223 569.258 595.524 575.056 582.925C578.135 575.619 578.05 552.81 577.622 542.318Z" fill="url(#paint18_linear_1147_1015)"/>
<path d="M606.317 574.831C609.413 558.939 616.959 547.655 620.346 544C612.46 558.659 608.282 577.979 607.179 585.807C600.79 601.294 589.752 611.218 585.032 614.245L594.707 602.166C601.802 594.411 605.403 580.711 606.317 574.831Z" fill="url(#paint19_linear_1147_1015)"/>
<path d="M634.52 538.581H631.498L628.918 576.128C627.231 584.377 620.418 593.009 619.315 593.585C606.754 606.425 605.991 614.121 607.179 616.364C607.179 613.841 611.468 606.714 613.612 603.465C621.755 594.841 628.929 583.438 631.498 578.815C632.777 577.439 634.045 551.419 634.52 538.581Z" fill="url(#paint20_linear_1147_1015)"/>
<path d="M586.696 650.468C587.11 650.06 604.357 625.881 606.003 620.936C606.027 620.853 606.051 620.772 606.075 620.692C606.056 620.767 606.032 620.848 606.003 620.936C603.977 627.669 597.417 642.608 586.696 650.468Z" fill="url(#paint21_linear_1147_1015)"/>
<path d="M677.721 534.681L674.5 535.04C674.5 535.326 672.654 552.061 671.731 560.393C670.316 570.448 661.554 585.148 657.35 591.241C668.078 581.461 673.253 566.319 674.5 559.97L677.721 534.681Z" fill="url(#paint22_linear_1147_1015)"/>
<path d="M651.993 612.554C691.366 578.818 703.041 545.554 703.956 533.139L705.665 532.519V533.139C704.516 547.508 693.179 568.61 687.654 577.364C686.239 579.542 688.243 579.239 689.422 578.815C692.25 575.968 709.091 568.747 717.157 565.493C734.13 556.986 754.359 536.391 762.352 527.158H765.778C757.026 546.935 723.824 565.602 708.317 572.463C695.853 575.426 681.813 587.778 676.352 593.585C668.952 605.4 651.386 626.922 643.528 636.206C641.382 637.427 632.894 637.393 628.918 637.223C630.436 635.596 644.934 620.099 651.993 612.554Z" fill="url(#paint23_linear_1147_1015)"/>
<path d="M732.604 574.831C717.733 580.204 694.444 592.851 684.658 598.503C711.685 591.291 730.145 580.581 735.997 576.128C760.262 561.368 764.597 553.586 763.731 551.54C760.545 558.917 741.652 570.141 732.604 574.831Z" fill="url(#paint24_linear_1147_1015)"/>
<path d="M700.443 614.245C673.889 617.068 659.481 628.076 655.596 633.228C663.739 626.345 688.887 619.117 700.443 616.364C728.414 607.389 737.767 597.438 738.947 593.585C730.804 603.375 709.885 611.438 700.443 614.245Z" fill="url(#paint25_linear_1147_1015)"/>
<path d="M753.455 584.343C753.184 585.411 743.565 592.768 741.669 598.503C745.597 595.163 753.455 587.654 753.455 584.343Z" fill="url(#paint26_linear_1147_1015)"/>
<path d="M822.798 549.721C817.712 556.356 795.996 564.281 785.774 567.414C807.411 557.578 818.175 550.983 820.852 548.915C827.608 536.455 829.87 525.586 830.156 521.708H831.961C830.614 533.651 825.291 545.36 822.798 549.721Z" fill="url(#paint27_linear_1147_1015)"/>
<path d="M864.641 518.122L861.746 518.836C857.693 542.519 835.449 557.713 824.833 562.35C803.216 569.483 788.483 577.845 783.819 581.135C797.04 580.279 812.81 575.705 819.043 573.526C851.661 554.218 863.033 528.545 864.641 518.122Z" fill="url(#paint28_linear_1147_1015)"/>
<path d="M840.04 569.592C839.885 569.71 839.761 569.793 839.671 569.84C839.794 569.757 839.917 569.675 840.04 569.592C843.796 566.741 865.64 543.956 866.451 541.901C865.173 546.073 858.103 557.416 840.04 569.592Z" fill="url(#paint29_linear_1147_1015)"/>
<path d="M891.936 514.876L887.645 515.196C888.685 523.332 879.715 539.092 882.185 537.618C884.161 536.439 889.509 521.965 891.936 514.876Z" fill="url(#paint30_linear_1147_1015)"/>
<path d="M922.486 509.366C921.511 509.58 919.483 510.045 919.171 510.199C915.986 518.015 909.928 533.403 911.176 532.429C912.424 531.455 919.236 516.648 922.486 509.366Z" fill="url(#paint31_linear_1147_1015)"/>
<path d="M948.132 494.622C545.414 436.819 158.884 466.163 6.57041 495.378C3.55872 495.956 2.77958 499.274 5.47442 500.738C23.4801 510.516 70.7591 516.397 94.7611 518.253C125.152 523.144 184.117 526.572 209.802 527.675C219.259 531.535 271.429 534.72 296.331 535.83C299.828 535.644 351.403 539.617 376.753 541.627C387.243 542.192 408.441 543.323 409.315 543.323H448.138C466.69 546.283 522.758 545.271 548.474 544.395C562.678 545.05 659.635 537.023 706.338 532.927C718.072 533.255 776.843 525.965 804.762 522.279C872.155 520.93 922.834 509.758 948.876 501.47C952.72 500.247 952.125 495.196 948.132 494.622Z" fill="url(#paint32_linear_1147_1015)"/>
<path d="M133.713 506.937C124.092 504.337 69.7468 506.417 67.6665 506.937C74.4812 508.198 100.356 508.051 112.441 507.821C120.968 507.602 130.175 507.14 133.713 506.937Z" fill="url(#paint33_linear_1147_1015)"/>
<path d="M133.713 511.453C141.934 510.523 160.049 509.028 166.744 510.483C161.664 511.575 147.945 513.297 133.713 511.453Z" fill="url(#paint34_linear_1147_1015)"/>
<path d="M160.356 515.428C173.792 514.688 201.665 513.653 205.659 515.428C193.711 516.505 167.923 518.013 160.356 515.428Z" fill="url(#paint35_linear_1147_1015)"/>
<path d="M214.905 513.394C221.561 512.1 235.911 509.901 240.053 511.453C236.971 512.408 227.627 514.133 214.905 513.394Z" fill="url(#paint36_linear_1147_1015)"/>
<path d="M243.668 525.092C255.358 524.278 279.004 523.138 280.07 525.092C271.265 526.053 251.659 527.4 243.668 525.092Z" fill="url(#paint37_linear_1147_1015)"/>
<path d="M287.838 522.65C301.23 521.318 330.01 519.454 338.001 522.65C323.869 523.094 294.053 523.715 287.838 522.65Z" fill="url(#paint38_linear_1147_1015)"/>
<path d="M338.001 526.395C344.107 525.921 356.941 525.258 359.421 526.395C354.14 527.213 342.463 528.358 338.001 526.395Z" fill="url(#paint39_linear_1147_1015)"/>
<path d="M364.071 526.395C370.1 525.792 382.699 525.077 384.869 527.041C378.884 527.514 366.345 528.048 364.071 526.395Z" fill="url(#paint40_linear_1147_1015)"/>
<path d="M391.848 520.392C392.437 520.157 424.727 519.096 426.377 520.392C418.996 521.435 401.756 522.895 391.848 520.392Z" fill="url(#paint41_linear_1147_1015)"/>
<path d="M454.612 531.004C455.602 530.674 523.077 527.045 535.615 531.004C509.384 531.664 456.46 532.588 454.612 531.004Z" fill="url(#paint42_linear_1147_1015)"/>
<path d="M553.766 520.202C571.638 521.817 608.196 525.641 611.455 528.025C594.507 526.721 559.241 523.331 553.766 520.202Z" fill="url(#paint43_linear_1147_1015)"/>
<path d="M622.7 521.832C629.599 522.049 644.016 523.038 646.493 525.254C640.517 525.417 627.393 524.961 622.7 521.832Z" fill="url(#paint44_linear_1147_1015)"/>
<path d="M661.485 515.639C673.11 514.662 697.924 513.619 704.182 517.269C693.101 517.052 669.047 516.422 661.485 515.639Z" fill="url(#paint45_linear_1147_1015)"/>
<path d="M729.864 508.641C727.969 508.719 726.277 508.806 724.847 508.893C725.534 508.674 727.321 508.603 729.864 508.641C742.072 508.136 762.726 507.975 776.175 510.28C789.308 510.928 816.683 511.557 821.122 508.893C821.439 511.142 812.744 514.901 775.426 511.949C763.059 510.76 740.206 508.796 729.864 508.641Z" fill="url(#paint46_linear_1147_1015)"/>
<path d="M659.208 529.922C664.997 530.812 670.472 534.321 672.486 535.964H669.227C669.163 535.074 662.521 531.565 659.208 529.922Z" fill="url(#paint47_linear_1147_1015)"/>
<path d="M746.241 494.887C747.323 495.008 785.429 496.45 793.483 498.253C781.289 498.38 754.77 497.885 746.241 494.887Z" fill="url(#paint48_linear_1147_1015)"/>
<path d="M746.241 487.629C768.048 488.474 811.678 490.033 814.314 489.617C814.345 489.61 814.375 489.603 814.405 489.597C814.385 489.604 814.354 489.611 814.314 489.617C807.637 491.083 784.854 492.711 746.241 487.629Z" fill="url(#paint49_linear_1147_1015)"/>
<g filter="url(#filter1_n_1147_1015)">
<path d="M286.702 504.661V467.953C179.937 467.953 31.7653 489.554 6.88428 495.433C16.9101 498.441 222.67 504.366 286.702 504.661Z" fill="url(#paint50_linear_1147_1015)"/>
</g>
<path d="M535.647 410.975L380.876 425.001L386.635 414.938L364.353 419.394L335.446 423.598C329.105 424.52 323.078 426.952 317.873 430.689L285.412 453.996C280.348 457.632 274.601 460.195 268.762 462.381C253.358 468.148 230.531 479.638 219.227 485.66C209.239 490.174 204.438 493.433 202.399 495.521C201.073 496.879 202.221 498.268 204.1 498.542C224.381 501.495 293.812 505.175 330.171 506.834C332.085 506.922 333.97 507.178 335.838 507.605L346.08 509.943C364.81 512.334 475.001 512.691 527.755 512.57C570.371 512.144 682.574 501.074 738.942 495.003C740.861 494.797 741.369 492.284 739.681 491.347C713.862 477.006 683.948 464.976 667.293 458.978C663.233 457.516 659.355 455.614 655.778 453.2L630.597 436.202C619.695 428.843 607.183 424.214 594.117 422.707L569.233 419.836C565.106 419.36 561.076 418.259 557.28 416.572L550.043 413.356C545.526 411.348 540.57 410.529 535.647 410.975Z" fill="url(#paint51_linear_1147_1015)"/>
<path d="M465.081 449.579C467.135 450.213 469.436 450.356 470.33 450.348C478.012 451.891 483.966 463.087 485.983 468.493C491.129 478.162 501.74 484.662 506.403 486.704C529.361 493.68 541.818 506.453 545.177 511.967H542.041C534.305 499.251 516.122 491.591 507.998 489.351C496.447 486.795 487.555 475.812 484.552 470.64C479.996 456.652 470.555 452.183 466.405 451.698L465.081 449.579ZM454.337 462.334C452.029 474.472 443.997 501.215 430.335 511.086L427.482 510.688C432.578 508.151 444.834 495.021 453.088 462.792L454.337 462.334ZM562.133 474.001C566.975 475.212 577.079 478.453 578.766 481.733C578.688 483.88 578.298 489.3 577.361 493.797C579.86 498.248 585.279 507.455 586.965 508.673C586.202 509.305 582.856 507.361 575.581 494.525C575.18 494.211 574.253 492.193 573.752 486.632C573.873 485.413 573.312 482.619 570.093 481.198C566.598 479.014 560.114 474.517 562.133 474.001ZM397.956 413.458C447.492 411.153 527.097 408.531 545.885 411.903C548.619 412.393 549.235 414.942 547.492 417.104C544.066 421.352 537.438 426.902 526.941 429.623C511.653 431.074 472.396 433.38 433.398 431.516C430.032 431.355 426.684 431.975 423.438 432.88C414.273 435.436 397.002 437.996 373.978 435.729C368.261 435.166 362.484 436.528 357.861 439.938C342.651 451.155 320.062 468.204 313.498 474.649C317.124 472.485 324.726 468.087 326.13 467.806C327.359 468.332 331.184 468.438 336.659 464.648C341.308 460.747 352.816 452.888 361.653 452.656C371.003 453.818 390.46 455.795 393.483 454.4C388.8 458.734 380.266 467.366 376.666 473.33C375.205 475.751 374.608 478.592 373.306 481.102C370.844 485.849 366.229 492.512 359.205 497.745C357.311 499.155 355.177 500.19 353.008 501.124C348.205 503.194 341.551 506.238 338.689 508.176C297.712 506.788 214.029 503.158 207.104 499.746C202.459 499.315 196.064 496.931 207.644 490.841C225.825 481.729 264.774 462.737 275.116 459.663C283.731 454.252 302.221 442.354 307.272 438.041C312.096 433.147 326.141 423.188 343.733 422.507C351.603 421.085 365.582 418.491 375.812 416.415C383.121 414.932 390.506 413.805 397.956 413.458ZM355.619 471.293C351.8 473.331 348.42 476.1 345.67 479.443L336.161 491.004C333.905 493.747 331.221 496.107 328.212 497.995L315.004 506.281H317.851L330.324 498.773C333.485 496.87 336.304 494.451 338.665 491.616L347.993 480.412C350.485 477.419 353.487 474.891 356.86 472.945L381.651 458.639L380.898 457.802L355.619 471.293ZM305.208 487.442C302.796 489.786 288.127 500.252 281.094 505.192H283.104C290.405 502.512 301.719 492.633 306.463 488.028L305.208 487.442ZM462.884 466.092C462.32 472.529 461.622 486.19 463.341 489.351C465.123 492.256 470.859 498.81 479.55 501.785C478.02 503.392 472.114 503.794 460.727 492.546C459.925 490.131 458.702 481.46 460.221 466.092H462.884ZM289.597 477C279.669 484.246 258.865 499.382 255.077 501.964C261.074 499.07 276.651 490.422 290.975 478.986C291.721 478.324 292.489 477 289.597 477ZM439.14 466.092C438.126 470.327 431.529 480.083 413.256 485.23C407.105 488.526 391.959 496.424 380.584 501.647L379.304 498.912L409.412 485.23C414.473 478.723 427.504 465.786 439.14 466.092ZM589.41 479.208C616.101 490.508 617.84 495.737 615.374 496.939C604.663 494.478 593.601 484.093 589.41 479.208ZM264.789 484.261C261.749 486.049 258.309 487.043 254.785 487.151L248.593 487.34C246.387 487.408 244.205 487.823 242.128 488.57L228.821 493.356C231.318 493.07 235.892 492.344 239.792 491.222C243.219 490.236 246.703 489.161 250.267 489.04L254.868 488.886C258.339 488.769 261.728 487.792 264.729 486.044L274.791 480.185C274.992 479.785 275.066 478.986 273.757 478.986L264.789 484.261ZM633.588 482.566C642.17 483.489 658.572 486.58 655.528 491.563C653.799 493.488 646.989 494.383 633.588 482.566ZM330.661 478.986C327.846 481.063 313.357 488.335 306.463 491.712L307.887 492.382C323.493 486.823 330.465 481.135 332.001 478.986H330.661ZM537.971 475.154C551.593 475.906 559.26 486.794 561.391 492.144C555.33 483.633 543.252 477.271 537.971 475.154ZM427.234 444.439C427.007 445.525 422.641 449.707 406.994 457.75C404.413 459.38 399.387 464.435 399.93 471.607C407.305 468.109 425.222 460.643 437.889 458.763L438.058 459.475C425.626 462.616 399.862 471.45 396.27 481.658C395.403 483.701 393.291 487.623 391.78 486.956C392.052 478.202 395.746 459.435 408.352 454.4C409.167 454.4 426.185 445.933 427.234 444.439ZM624.523 462.842C626.738 466.828 638.918 471.942 644.731 474.001C632.385 472.963 626.115 466.129 624.523 462.842ZM351.76 441.7C343.799 442.053 335.08 445.41 329.112 448.348C325.544 450.105 322.437 452.659 319.205 454.975C310.048 461.535 291.834 472.462 290.975 472.562C292.077 473.259 293.591 473.215 294.211 473.105C301.615 470.369 317.655 458.759 324.749 453.296C330.644 448.674 345.213 444.532 351.76 443.038V441.7ZM537.971 432.026C534.049 425.451 556.212 439.433 567.785 447.246C602.148 463.86 610.258 470.014 610.018 471.014C602.041 466.028 578.539 454.468 567.785 449.311C557.813 447.402 543.754 436.992 537.971 432.026ZM510.583 451.698C519.101 452.777 525.037 454.824 526.941 455.713C535.689 459.326 533.807 463.137 531.772 464.591C528.037 466.031 524.195 462.793 522.741 460.995C520.475 458.545 513.691 453.776 510.583 451.698ZM586.074 438.839C585.885 437.682 586.523 438.357 586.865 438.839C591.326 444.575 596.476 447.938 598.494 448.902C600.333 448.775 604.999 449.818 607.103 450.356C626.044 457.623 620.002 459.106 614.614 458.939C600.194 456.02 589.579 444.323 586.074 438.839ZM523.931 439.504C539.562 442.577 546.614 451.115 548.186 455C544.143 450.205 530.332 442.672 523.931 439.504Z" fill="url(#paint52_linear_1147_1015)"/>
<path d="M482.357 443.879C472.784 445.674 456.306 440.264 449.264 437.335C447.67 437.335 448.06 438.461 448.454 439.024C463.122 447.445 477.741 446.628 483.217 445.168L482.357 443.879Z" fill="url(#paint53_linear_1147_1015)"/>
<path d="M482.357 495.642C482.357 502.244 480.682 509.631 479.845 512.499H483.217V511.621C485.914 505.299 483.768 498.335 482.357 495.642Z" fill="url(#paint54_linear_1147_1015)"/>
<path d="M509.161 477.259C518.895 482.371 540.386 493.508 548.478 497.163C544.02 492.867 529.916 482.871 509.161 477.259Z" fill="url(#paint55_linear_1147_1015)"/>
<path d="M606.446 479.999C599.166 476.837 556.635 466.982 555.819 466.982V468.748C571.852 472.454 594.192 480.244 603.357 483.676C607.475 483.852 607.132 481.298 606.446 479.999Z" fill="url(#paint56_linear_1147_1015)"/>
<path d="M639.217 465.055C636.518 463.513 625.554 453.645 620.409 448.903C622.421 447.178 633.91 458.87 639.621 464.685L647.003 475.642C657.398 484.888 665.825 492.62 668.289 495.491C662.489 493.768 652.281 482.809 647.902 477.545C645.778 474.731 641.227 468.046 639.217 465.055Z" fill="url(#paint57_linear_1147_1015)"/>
<path d="M681.199 478.565C687.277 483.517 700.351 493.503 704.024 493.827C699.522 489.37 688.654 480.078 681.199 478.565Z" fill="url(#paint58_linear_1147_1015)"/>
<path d="M681.193 478.685C686.434 480.726 698.275 486.546 703.711 493.5C697.351 489.918 683.943 481.94 681.193 478.685Z" fill="#B16C46"/>
</g>
<g filter="url(#filter2_n_1147_1015)">
<path d="M517.171 99.2016C518.492 94.7964 523.222 95.5306 525.423 96.4484C521.902 92.4836 526.89 85.9858 529.824 83.2325C533.345 72.6599 543.393 74.0549 547.977 76.074C547.977 70.7877 553.478 66.1621 556.229 64.5102C565.03 55.6996 574.565 61.9404 578.233 66.1621C582.633 61.7568 589.235 65.795 591.985 68.3647C599.467 73.2105 595.836 82.1312 593.085 85.9858C610.249 90.8316 604.638 103.423 599.687 109.113C599.687 120.127 590.885 122.146 586.484 121.779C595.726 134.113 582.633 136.83 574.932 136.646C574.932 147.219 560.263 146.191 552.928 144.356C541.926 154.928 527.44 145.457 521.572 139.4C509.25 144.245 506.169 133.709 506.169 127.836C499.128 124.752 501.769 118.107 503.969 115.171C502.649 104.157 512.22 99.9358 517.171 99.2016Z" fill="url(#paint59_linear_1147_1015)"/>
</g>
<g filter="url(#filter3_n_1147_1015)">
<path d="M602.686 145.095C589.503 142.899 585.841 153.332 585.658 158.823C576.43 158.823 575.222 167.242 575.771 171.452C577.089 182.434 589.137 185.18 594.996 185.18C600.269 194.405 612.939 192.684 618.615 190.671C627.842 201.213 642.966 198.358 649.374 195.613C656.844 198.248 662.007 193.416 663.655 190.671C672.004 193.306 678.486 188.108 680.683 185.18C686.395 179.469 683.063 173.648 680.683 171.452C688.592 169.695 691.302 163.765 691.668 161.019C692.986 143.887 678.302 138.14 670.796 137.407C669.477 127.304 659.261 126.608 654.317 127.524C651.242 121.813 643.515 120.385 640.036 120.385C628.611 118.189 622.093 128.988 620.262 134.662C608.837 131.587 603.784 140.336 602.686 145.095Z" fill="url(#paint60_linear_1147_1015)"/>
</g>
<g filter="url(#filter4_n_1147_1015)">
<path d="M320.972 213.958C318.347 203.011 309.668 204.653 305.657 206.842C299.969 202.902 296.723 205.2 295.812 206.842C292.311 209.032 291.436 214.322 291.436 216.694C283.997 213.191 279.95 220.708 278.856 224.904C277.981 235.851 287.972 237.858 293.077 237.493C300.953 247.564 308.027 243.148 310.58 239.682C321.957 242.309 322.249 233.844 320.972 229.283C327.974 219.212 323.89 214.87 320.972 213.958Z" fill="url(#paint61_linear_1147_1015)"/>
</g>
<g filter="url(#filter5_n_1147_1015)">
<path d="M357.683 121.444C344.843 116.572 335.361 126.059 332.225 131.411C327.798 126.095 320.419 126.243 317.283 126.981C309.314 127.867 306.952 133.626 306.768 136.394C298.356 138.166 300.311 144.885 302.341 148.022C299.241 147.579 296.991 151.898 296.253 154.113C295.367 160.757 298.836 164.264 300.68 165.187C290.054 167.402 288.874 177.184 289.612 181.798C292.711 194.644 300.865 195.272 304.554 193.98C311.195 202.396 319.128 198.594 322.264 195.641C323.149 201.842 334.439 201.547 339.973 200.624C339.973 205.054 348.828 205.423 353.256 205.054C364.767 204.168 365.8 196.194 364.877 192.318C371.519 195.419 381.296 192.503 385.354 190.657C409.262 182.241 404.54 171.278 399.19 166.848C397.862 157.546 390.888 156.328 387.568 156.881C393.323 138.277 380.373 137.686 373.179 139.717C372.293 127.757 362.479 122.552 357.683 121.444Z" fill="url(#paint62_linear_1147_1015)"/>
</g>
<g filter="url(#filter6_n_1147_1015)">
<path d="M412.839 17.9213C407.965 21.4553 408.223 28.9652 408.962 32.2784C396.112 30.953 397.699 38.3526 400.099 42.218C395.668 40.4509 394.929 44.4268 395.114 46.6355C390.24 43.5432 384.59 46.8196 382.375 48.8443C374.399 40.8927 366.127 46.6355 362.988 50.5009C357.671 65.079 367.789 74.9817 373.512 78.1107C367.752 84.2953 377.02 88.4184 382.375 89.7069C369.524 90.1486 371.112 102.407 373.512 108.482C377.5 117.317 391.791 118.053 398.438 117.317C400.21 123.06 406.192 125.6 408.962 126.152C415.609 131.011 425.394 130.385 429.456 129.465C435.659 129.465 443.118 121.366 446.073 117.317C449.174 120.409 456.966 118.605 460.474 117.317C471.995 124.385 480.045 115.476 482.63 110.138C487.061 113.23 494.446 108.85 497.585 106.273C503.788 106.715 506.447 100.567 507.001 97.4376C522.953 89.486 519.187 81.2399 515.309 78.1107C524.615 72.8097 531.003 59.3361 533.034 53.2619C537.022 27.64 519.925 23.0751 510.878 23.9955C512.208 14.2768 504.047 11.1109 499.8 10.7428C490.938 -4.71875 479.122 0.619094 474.321 5.2207C453.938 -8.47377 446.996 7.98171 446.073 17.9213C427.794 -4.71881 414.501 17.9213 412.839 17.9213Z" fill="url(#paint63_linear_1147_1015)"/>
</g>
<g filter="url(#filter7_n_1147_1015)">
<path d="M418.401 226.097C456.001 251.492 474.248 301.178 474.248 301.73C476.46 322.93 467.859 335.438 466.254 345.211C466.696 296.629 439.781 272.103 426.142 265.846C433.22 267.612 440.15 270.998 442.73 272.471C428.132 241.997 376.93 231.066 353.153 229.409C339.44 232.253 324.216 232.435 318.318 232.17C336.012 229.962 343.016 227.937 344.306 227.201C336.012 224.993 308.365 223.337 307.812 223.889C307.369 224.33 307.627 222.233 307.812 221.128L352.6 223.889L346.518 221.128L347.071 219.472L358.13 223.889C375.824 226.097 404.945 233.642 417.295 237.138C390.311 215.056 364.765 193.341 355.365 185.244L356.471 183.588L364.212 189.661C362 187.452 359.973 179.171 359.235 175.307C366.755 193.856 384.855 204.014 392.965 206.775C381.906 184.25 380.247 170.522 380.8 166.474C381.685 175.307 387.436 186.716 390.2 191.317C388.431 168.793 396.467 149.176 400.706 142.183C382.57 188.557 404.946 217.448 418.401 226.097Z" fill="url(#paint64_linear_1147_1015)"/>
</g>
<g filter="url(#filter8_n_1147_1015)">
<path d="M514.847 247.435C502.004 258.493 489.568 278.213 484.955 286.691L492.952 324.538C491.18 280.305 539.757 229.189 563.007 210.39C602.863 182.523 637.553 175.557 649.916 175.557V173.898H641.613L662.094 160.076L660.987 158.97L641.613 171.134L647.148 156.758H645.488L636.631 173.898C623.788 176.11 591.792 188.827 577.399 194.909L607.845 161.181L606.185 159.523C604.856 165.273 560.608 205.045 538.65 224.213C539.093 216.251 537.728 201.359 536.989 194.909L543.632 186.615V184.403L535.329 193.25C532.672 184.403 512.448 163.762 502.669 154.546L502.115 142.935L499.901 143.488L499.347 153.441L497.687 152.335C496.358 152.335 492.704 147.543 491.044 145.147L489.383 145.7L494.919 153.441C510.418 164.499 522.412 180.164 526.472 186.615C541.086 214.481 524.811 238.772 514.847 247.435Z" fill="url(#paint65_linear_1147_1015)"/>
</g>
<g filter="url(#filter9_n_1147_1015)">
<path d="M435.379 126.689C426.964 117.416 419.324 101.483 416.555 94.6762H418.77C420.542 103.066 439.439 127.609 448.666 138.832C449.995 126.91 443.314 104.427 439.808 94.6762L440.915 89.1568C444.791 99.6437 453.233 129.858 453.095 130.552C453.981 125.254 461.584 107.739 465.275 99.6437L469.15 77.566H470.811C470.257 83.8214 469.15 96.5528 469.15 97.4359C469.15 98.319 473.579 93.3884 475.794 90.8126C470.922 97.8775 464.168 114.362 461.399 121.721C451.656 142.033 466.936 187.218 475.794 207.272C488.638 171.065 511.78 148.766 521.745 142.143L532.264 120.617L534.478 121.721L525.62 141.039L551.641 123.377V126.689C492.292 165.104 482.253 218.495 484.652 240.389C485.538 269.09 491.851 298.273 495.173 309.128C489.636 329.734 479.116 371.088 479.116 372.855C479.116 374.621 482.437 408.915 484.098 425.841H395.518C395.96 423.192 405.667 419.218 410.466 417.562C412.986 417.248 415.815 416.319 418.588 415.129C427.1 411.475 432.832 403.617 436.954 395.322C441.505 386.166 447.856 373.932 454.009 362.248C463.212 344.773 469.688 325.846 470.846 306.129C476.17 215.461 450.392 149.805 435.379 126.689Z" fill="url(#paint66_linear_1147_1015)"/>
<path d="M495.557 310.333C496.664 319.508 496.473 344.349 485.397 372.978C478.913 390.525 479.704 424.982 532.825 425.831H536.899C535.508 425.852 534.15 425.852 532.825 425.831H480.967C471.553 422.894 456.822 407.773 473.214 370.776C479.306 357.012 492.874 323.885 494.203 303.625C494.942 304.543 495.273 307.986 495.557 310.333Z" fill="#AC8580"/>
</g>
<g filter="url(#filter10_n_1147_1015)">
<path d="M506.981 129.642C499.494 121.443 490.603 126.627 487.094 130.245C475.863 130.727 476.565 139.288 478.32 143.508C481.127 150.261 490.408 148.733 494.698 147.126C497.038 150.019 505.422 149.135 509.321 148.331C522.892 145.437 518.485 138.283 514.586 135.068C514.118 131.209 509.321 129.843 506.981 129.642Z" fill="url(#paint67_linear_1147_1015)"/>
</g>
<defs>
<filter id="filter0_n_1147_1015" x="2.26172" y="410.294" width="950.896" height="276.521" filterUnits="userSpaceOnUse" color-interpolation-filters="sRGB">
<feFlood flood-opacity="0" result="BackgroundImageFix"/>
<feBlend mode="normal" in="SourceGraphic" in2="BackgroundImageFix" result="shape"/>
<feTurbulence type="fractalNoise" baseFrequency="5 5" stitchTiles="stitch" numOctaves="3" result="noise" seed="1005" />
<feColorMatrix in="noise" type="luminanceToAlpha" result="alphaNoise" />
<feComponentTransfer in="alphaNoise" result="coloredNoise1">
<feFuncA type="discrete" tableValues="1 1 1 1 1 1 1 1 1 1 1 1 1 1 1 1 1 1 1 1 1 1 1 1 1 1 1 1 1 1 1 1 1 1 1 1 1 1 1 1 1 1 1 1 1 1 1 1 1 1 1 0 0 0 0 0 0 0 0 0 0 0 0 0 0 0 0 0 0 0 0 0 0 0 0 0 0 0 0 0 0 0 0 0 0 0 0 0 0 0 0 0 0 0 0 0 0 0 0 0 "/>
</feComponentTransfer>
<feComposite operator="in" in2="shape" in="coloredNoise1" result="noise1Clipped" />
<feFlood flood-color="rgba(201, 118, 118, 0.17)" result="color1Flood" />
<feComposite operator="in" in2="noise1Clipped" in="color1Flood" result="color1" />
<feMerge result="effect1_noise_1147_1015">
<feMergeNode in="shape" />
<feMergeNode in="color1" />
</feMerge>
</filter>
<filter id="filter1_n_1147_1015" x="6.88428" y="467.953" width="279.817" height="36.7084" filterUnits="userSpaceOnUse" color-interpolation-filters="sRGB">
<feFlood flood-opacity="0" result="BackgroundImageFix"/>
<feBlend mode="normal" in="SourceGraphic" in2="BackgroundImageFix" result="shape"/>
<feTurbulence type="fractalNoise" baseFrequency="5 5" stitchTiles="stitch" numOctaves="3" result="noise" seed="1360" />
<feColorMatrix in="noise" type="luminanceToAlpha" result="alphaNoise" />
<feComponentTransfer in="alphaNoise" result="coloredNoise1">
<feFuncA type="discrete" tableValues="1 1 1 1 1 1 1 1 1 1 1 1 1 1 1 1 1 1 1 1 1 1 1 1 1 1 1 1 1 1 1 1 1 1 1 1 1 1 1 1 1 1 1 1 1 1 1 1 1 1 1 0 0 0 0 0 0 0 0 0 0 0 0 0 0 0 0 0 0 0 0 0 0 0 0 0 0 0 0 0 0 0 0 0 0 0 0 0 0 0 0 0 0 0 0 0 0 0 0 0 "/>
</feComponentTransfer>
<feComposite operator="in" in2="shape" in="coloredNoise1" result="noise1Clipped" />
<feFlood flood-color="rgba(194, 48, 48, 0.25)" result="color1Flood" />
<feComposite operator="in" in2="noise1Clipped" in="color1Flood" result="color1" />
<feMerge result="effect1_noise_1147_1015">
<feMergeNode in="shape" />
<feMergeNode in="color1" />
</feMerge>
</filter>
<filter id="filter2_n_1147_1015" x="501.602" y="60.0474" width="103.082" height="89.0703" filterUnits="userSpaceOnUse" color-interpolation-filters="sRGB">
<feFlood flood-opacity="0" result="BackgroundImageFix"/>
<feBlend mode="normal" in="SourceGraphic" in2="BackgroundImageFix" result="shape"/>
<feTurbulence type="fractalNoise" baseFrequency="10 10" stitchTiles="stitch" numOctaves="3" result="noise" seed="3278" />
<feColorMatrix in="noise" type="luminanceToAlpha" result="alphaNoise" />
<feComponentTransfer in="alphaNoise" result="coloredNoise1">
<feFuncA type="discrete" tableValues="1 1 1 1 1 1 1 1 1 1 1 1 1 1 1 1 1 1 1 1 1 1 1 1 1 1 1 1 1 1 1 1 1 1 1 1 1 1 1 1 1 1 1 1 1 1 1 1 1 1 1 0 0 0 0 0 0 0 0 0 0 0 0 0 0 0 0 0 0 0 0 0 0 0 0 0 0 0 0 0 0 0 0 0 0 0 0 0 0 0 0 0 0 0 0 0 0 0 0 0 "/>
</feComponentTransfer>
<feComposite operator="in" in2="shape" in="coloredNoise1" result="noise1Clipped" />
<feFlood flood-color="rgba(177, 53, 53, 0.16)" result="color1Flood" />
<feComposite operator="in" in2="noise1Clipped" in="color1Flood" result="color1" />
<feMerge result="effect1_noise_1147_1015">
<feMergeNode in="shape" />
<feMergeNode in="color1" />
</feMerge>
</filter>
<filter id="filter3_n_1147_1015" x="575.66" y="120.095" width="116.092" height="78.0616" filterUnits="userSpaceOnUse" color-interpolation-filters="sRGB">
<feFlood flood-opacity="0" result="BackgroundImageFix"/>
<feBlend mode="normal" in="SourceGraphic" in2="BackgroundImageFix" result="shape"/>
<feTurbulence type="fractalNoise" baseFrequency="10 10" stitchTiles="stitch" numOctaves="3" result="noise" seed="3278" />
<feColorMatrix in="noise" type="luminanceToAlpha" result="alphaNoise" />
<feComponentTransfer in="alphaNoise" result="coloredNoise1">
<feFuncA type="discrete" tableValues="1 1 1 1 1 1 1 1 1 1 1 1 1 1 1 1 1 1 1 1 1 1 1 1 1 1 1 1 1 1 1 1 1 1 1 1 1 1 1 1 1 1 1 1 1 1 1 1 1 1 1 0 0 0 0 0 0 0 0 0 0 0 0 0 0 0 0 0 0 0 0 0 0 0 0 0 0 0 0 0 0 0 0 0 0 0 0 0 0 0 0 0 0 0 0 0 0 0 0 0 "/>
</feComponentTransfer>
<feComposite operator="in" in2="shape" in="coloredNoise1" result="noise1Clipped" />
<feFlood flood-color="rgba(177, 53, 53, 0.16)" result="color1Flood" />
<feComposite operator="in" in2="noise1Clipped" in="color1Flood" result="color1" />
<feMerge result="effect1_noise_1147_1015">
<feMergeNode in="shape" />
<feMergeNode in="color1" />
</feMerge>
</filter>
<filter id="filter4_n_1147_1015" x="278.802" y="204.666" width="46.0361" height="39.0308" filterUnits="userSpaceOnUse" color-interpolation-filters="sRGB">
<feFlood flood-opacity="0" result="BackgroundImageFix"/>
<feBlend mode="normal" in="SourceGraphic" in2="BackgroundImageFix" result="shape"/>
<feTurbulence type="fractalNoise" baseFrequency="10 10" stitchTiles="stitch" numOctaves="3" result="noise" seed="3278" />
<feColorMatrix in="noise" type="luminanceToAlpha" result="alphaNoise" />
<feComponentTransfer in="alphaNoise" result="coloredNoise1">
<feFuncA type="discrete" tableValues="1 1 1 1 1 1 1 1 1 1 1 1 1 1 1 1 1 1 1 1 1 1 1 1 1 1 1 1 1 1 1 1 1 1 1 1 1 1 1 1 1 1 1 1 1 1 1 1 1 1 1 0 0 0 0 0 0 0 0 0 0 0 0 0 0 0 0 0 0 0 0 0 0 0 0 0 0 0 0 0 0 0 0 0 0 0 0 0 0 0 0 0 0 0 0 0 0 0 0 0 "/>
</feComponentTransfer>
<feComposite operator="in" in2="shape" in="coloredNoise1" result="noise1Clipped" />
<feFlood flood-color="rgba(177, 53, 53, 0.16)" result="color1Flood" />
<feComposite operator="in" in2="noise1Clipped" in="color1Flood" result="color1" />
<feMerge result="effect1_noise_1147_1015">
<feMergeNode in="shape" />
<feMergeNode in="color1" />
</feMerge>
</filter>
<filter id="filter5_n_1147_1015" x="289.435" y="120.095" width="114.09" height="85.0671" filterUnits="userSpaceOnUse" color-interpolation-filters="sRGB">
<feFlood flood-opacity="0" result="BackgroundImageFix"/>
<feBlend mode="normal" in="SourceGraphic" in2="BackgroundImageFix" result="shape"/>
<feTurbulence type="fractalNoise" baseFrequency="10 10" stitchTiles="stitch" numOctaves="3" result="noise" seed="3278" />
<feColorMatrix in="noise" type="luminanceToAlpha" result="alphaNoise" />
<feComponentTransfer in="alphaNoise" result="coloredNoise1">
<feFuncA type="discrete" tableValues="1 1 1 1 1 1 1 1 1 1 1 1 1 1 1 1 1 1 1 1 1 1 1 1 1 1 1 1 1 1 1 1 1 1 1 1 1 1 1 1 1 1 1 1 1 1 1 1 1 1 1 0 0 0 0 0 0 0 0 0 0 0 0 0 0 0 0 0 0 0 0 0 0 0 0 0 0 0 0 0 0 0 0 0 0 0 0 0 0 0 0 0 0 0 0 0 0 0 0 0 "/>
</feComponentTransfer>
<feComposite operator="in" in2="shape" in="coloredNoise1" result="noise1Clipped" />
<feFlood flood-color="rgba(177, 53, 53, 0.16)" result="color1Flood" />
<feComposite operator="in" in2="noise1Clipped" in="color1Flood" result="color1" />
<feMerge result="effect1_noise_1147_1015">
<feMergeNode in="shape" />
<feMergeNode in="color1" />
</feMerge>
</filter>
<filter id="filter6_n_1147_1015" x="361.491" y="0" width="172.136" height="130.103" filterUnits="userSpaceOnUse" color-interpolation-filters="sRGB">
<feFlood flood-opacity="0" result="BackgroundImageFix"/>
<feBlend mode="normal" in="SourceGraphic" in2="BackgroundImageFix" result="shape"/>
<feTurbulence type="fractalNoise" baseFrequency="10 10" stitchTiles="stitch" numOctaves="3" result="noise" seed="3278" />
<feColorMatrix in="noise" type="luminanceToAlpha" result="alphaNoise" />
<feComponentTransfer in="alphaNoise" result="coloredNoise1">
<feFuncA type="discrete" tableValues="1 1 1 1 1 1 1 1 1 1 1 1 1 1 1 1 1 1 1 1 1 1 1 1 1 1 1 1 1 1 1 1 1 1 1 1 1 1 1 1 1 1 1 1 1 1 1 1 1 1 1 0 0 0 0 0 0 0 0 0 0 0 0 0 0 0 0 0 0 0 0 0 0 0 0 0 0 0 0 0 0 0 0 0 0 0 0 0 0 0 0 0 0 0 0 0 0 0 0 0 "/>
</feComponentTransfer>
<feComposite operator="in" in2="shape" in="coloredNoise1" result="noise1Clipped" />
<feFlood flood-color="rgba(177, 53, 53, 0.16)" result="color1Flood" />
<feComposite operator="in" in2="noise1Clipped" in="color1Flood" result="color1" />
<feMerge result="effect1_noise_1147_1015">
<feMergeNode in="shape" />
<feMergeNode in="color1" />
</feMerge>
</filter>
<filter id="filter7_n_1147_1015" x="307.567" y="142.183" width="167.042" height="203.028" filterUnits="userSpaceOnUse" color-interpolation-filters="sRGB">
<feFlood flood-opacity="0" result="BackgroundImageFix"/>
<feBlend mode="normal" in="SourceGraphic" in2="BackgroundImageFix" result="shape"/>
<feTurbulence type="fractalNoise" baseFrequency="10 10" stitchTiles="stitch" numOctaves="3" result="noise" seed="8273" />
<feColorMatrix in="noise" type="luminanceToAlpha" result="alphaNoise" />
<feComponentTransfer in="alphaNoise" result="coloredNoise1">
<feFuncA type="discrete" tableValues="1 1 1 1 1 1 1 1 1 1 1 1 1 1 1 1 1 1 1 1 1 1 1 1 1 1 1 1 1 1 1 1 1 1 1 1 1 1 1 1 1 1 1 1 1 1 1 1 1 1 1 0 0 0 0 0 0 0 0 0 0 0 0 0 0 0 0 0 0 0 0 0 0 0 0 0 0 0 0 0 0 0 0 0 0 0 0 0 0 0 0 0 0 0 0 0 0 0 0 0 "/>
</feComponentTransfer>
<feComposite operator="in" in2="shape" in="coloredNoise1" result="noise1Clipped" />
<feFlood flood-color="rgba(160, 48, 48, 0.13)" result="color1Flood" />
<feComposite operator="in" in2="noise1Clipped" in="color1Flood" result="color1" />
<feMerge result="effect1_noise_1147_1015">
<feMergeNode in="shape" />
<feMergeNode in="color1" />
</feMerge>
</filter>
<filter id="filter8_n_1147_1015" x="484.955" y="142.935" width="177.14" height="181.603" filterUnits="userSpaceOnUse" color-interpolation-filters="sRGB">
<feFlood flood-opacity="0" result="BackgroundImageFix"/>
<feBlend mode="normal" in="SourceGraphic" in2="BackgroundImageFix" result="shape"/>
<feTurbulence type="fractalNoise" baseFrequency="10 10" stitchTiles="stitch" numOctaves="3" result="noise" seed="8273" />
<feColorMatrix in="noise" type="luminanceToAlpha" result="alphaNoise" />
<feComponentTransfer in="alphaNoise" result="coloredNoise1">
<feFuncA type="discrete" tableValues="1 1 1 1 1 1 1 1 1 1 1 1 1 1 1 1 1 1 1 1 1 1 1 1 1 1 1 1 1 1 1 1 1 1 1 1 1 1 1 1 1 1 1 1 1 1 1 1 1 1 1 0 0 0 0 0 0 0 0 0 0 0 0 0 0 0 0 0 0 0 0 0 0 0 0 0 0 0 0 0 0 0 0 0 0 0 0 0 0 0 0 0 0 0 0 0 0 0 0 0 "/>
</feComponentTransfer>
<feComposite operator="in" in2="shape" in="coloredNoise1" result="noise1Clipped" />
<feFlood flood-color="rgba(164, 62, 62, 0.13)" result="color1Flood" />
<feComposite operator="in" in2="noise1Clipped" in="color1Flood" result="color1" />
<feMerge result="effect1_noise_1147_1015">
<feMergeNode in="shape" />
<feMergeNode in="color1" />
</feMerge>
</filter>
<filter id="filter9_n_1147_1015" x="395.518" y="77.566" width="156.123" height="348.281" filterUnits="userSpaceOnUse" color-interpolation-filters="sRGB">
<feFlood flood-opacity="0" result="BackgroundImageFix"/>
<feBlend mode="normal" in="SourceGraphic" in2="BackgroundImageFix" result="shape"/>
<feTurbulence type="fractalNoise" baseFrequency="10 10" stitchTiles="stitch" numOctaves="3" result="noise" seed="8273" />
<feColorMatrix in="noise" type="luminanceToAlpha" result="alphaNoise" />
<feComponentTransfer in="alphaNoise" result="coloredNoise1">
<feFuncA type="discrete" tableValues="1 1 1 1 1 1 1 1 1 1 1 1 1 1 1 1 1 1 1 1 1 1 1 1 1 1 1 1 1 1 1 1 1 1 1 1 1 1 1 1 1 1 1 1 1 1 1 1 1 1 1 0 0 0 0 0 0 0 0 0 0 0 0 0 0 0 0 0 0 0 0 0 0 0 0 0 0 0 0 0 0 0 0 0 0 0 0 0 0 0 0 0 0 0 0 0 0 0 0 0 "/>
</feComponentTransfer>
<feComposite operator="in" in2="shape" in="coloredNoise1" result="noise1Clipped" />
<feFlood flood-color="rgba(160, 48, 48, 0.13)" result="color1Flood" />
<feComposite operator="in" in2="noise1Clipped" in="color1Flood" result="color1" />
<feMerge result="effect1_noise_1147_1015">
<feMergeNode in="shape" />
<feMergeNode in="color1" />
</feMerge>
</filter>
<filter id="filter10_n_1147_1015" x="477.315" y="125.269" width="41.1938" height="23.849" filterUnits="userSpaceOnUse" color-interpolation-filters="sRGB">
<feFlood flood-opacity="0" result="BackgroundImageFix"/>
<feBlend mode="normal" in="SourceGraphic" in2="BackgroundImageFix" result="shape"/>
<feTurbulence type="fractalNoise" baseFrequency="10 10" stitchTiles="stitch" numOctaves="3" result="noise" seed="3278" />
<feColorMatrix in="noise" type="luminanceToAlpha" result="alphaNoise" />
<feComponentTransfer in="alphaNoise" result="coloredNoise1">
<feFuncA type="discrete" tableValues="1 1 1 1 1 1 1 1 1 1 1 1 1 1 1 1 1 1 1 1 1 1 1 1 1 1 1 1 1 1 1 1 1 1 1 1 1 1 1 1 1 1 1 1 1 1 1 1 1 1 1 0 0 0 0 0 0 0 0 0 0 0 0 0 0 0 0 0 0 0 0 0 0 0 0 0 0 0 0 0 0 0 0 0 0 0 0 0 0 0 0 0 0 0 0 0 0 0 0 0 "/>
</feComponentTransfer>
<feComposite operator="in" in2="shape" in="coloredNoise1" result="noise1Clipped" />
<feFlood flood-color="rgba(177, 53, 53, 0.16)" result="color1Flood" />
<feComposite operator="in" in2="noise1Clipped" in="color1Flood" result="color1" />
<feMerge result="effect1_noise_1147_1015">
<feMergeNode in="shape" />
<feMergeNode in="color1" />
</feMerge>
</filter>
<linearGradient id="paint0_linear_1147_1015" x1="478.3" y1="494.009" x2="478.3" y2="686.815" gradientUnits="userSpaceOnUse">
<stop stop-color="#DC9F8B"/>
<stop offset="0.811997" stop-color="#D78A7F"/>
</linearGradient>
<linearGradient id="paint1_linear_1147_1015" x1="61.0385" y1="538.17" x2="539.731" y2="589.95" gradientUnits="userSpaceOnUse">
<stop stop-color="#7A3D4B"/>
<stop offset="1" stop-color="#9F5663"/>
</linearGradient>
<linearGradient id="paint2_linear_1147_1015" x1="351.829" y1="581.998" x2="311.774" y2="651.381" gradientUnits="userSpaceOnUse">
<stop stop-color="#823F4F"/>
<stop offset="1" stop-color="#914D5A"/>
</linearGradient>
<linearGradient id="paint3_linear_1147_1015" x1="157.223" y1="521.94" x2="387.433" y2="643.183" gradientUnits="userSpaceOnUse">
<stop stop-color="#7B3944"/>
<stop offset="0.5" stop-color="#7F3D4A"/>
<stop offset="1" stop-color="#7E3945"/>
</linearGradient>
<linearGradient id="paint4_linear_1147_1015" x1="157.223" y1="521.94" x2="387.433" y2="643.183" gradientUnits="userSpaceOnUse">
<stop stop-color="#7B3944"/>
<stop offset="0.5" stop-color="#7F3D4A"/>
<stop offset="1" stop-color="#7E3945"/>
</linearGradient>
<linearGradient id="paint5_linear_1147_1015" x1="157.223" y1="521.94" x2="387.433" y2="643.183" gradientUnits="userSpaceOnUse">
<stop stop-color="#7B3944"/>
<stop offset="0.5" stop-color="#7F3D4A"/>
<stop offset="1" stop-color="#7E3945"/>
</linearGradient>
<linearGradient id="paint6_linear_1147_1015" x1="157.223" y1="521.94" x2="387.433" y2="643.183" gradientUnits="userSpaceOnUse">
<stop stop-color="#7B3944"/>
<stop offset="0.5" stop-color="#7F3D4A"/>
<stop offset="1" stop-color="#7E3945"/>
</linearGradient>
<linearGradient id="paint7_linear_1147_1015" x1="157.223" y1="521.94" x2="387.433" y2="643.183" gradientUnits="userSpaceOnUse">
<stop stop-color="#7B3944"/>
<stop offset="0.5" stop-color="#7F3D4A"/>
<stop offset="1" stop-color="#7E3945"/>
</linearGradient>
<linearGradient id="paint8_linear_1147_1015" x1="175.18" y1="510.484" x2="175.18" y2="565.959" gradientUnits="userSpaceOnUse">
<stop stop-color="#96403D"/>
<stop offset="1" stop-color="#9E5D63" stop-opacity="0.41"/>
</linearGradient>
<linearGradient id="paint9_linear_1147_1015" x1="175.18" y1="510.484" x2="175.18" y2="565.959" gradientUnits="userSpaceOnUse">
<stop stop-color="#96403D"/>
<stop offset="1" stop-color="#9E5D63" stop-opacity="0.41"/>
</linearGradient>
<linearGradient id="paint10_linear_1147_1015" x1="105.671" y1="510.484" x2="105.671" y2="566.378" gradientUnits="userSpaceOnUse">
<stop stop-color="#8C4858"/>
<stop offset="1" stop-color="#7A3D4B"/>
</linearGradient>
<linearGradient id="paint11_linear_1147_1015" x1="91.6792" y1="523.301" x2="76.1795" y2="536.287" gradientUnits="userSpaceOnUse">
<stop stop-color="#7A3444"/>
<stop offset="1" stop-color="#7B3E4B"/>
</linearGradient>
<linearGradient id="paint12_linear_1147_1015" x1="238.961" y1="542.025" x2="318.384" y2="664.385" gradientUnits="userSpaceOnUse">
<stop stop-color="#C67465"/>
<stop offset="1" stop-color="#DC927D"/>
</linearGradient>
<linearGradient id="paint13_linear_1147_1015" x1="238.961" y1="542.025" x2="318.384" y2="664.385" gradientUnits="userSpaceOnUse">
<stop stop-color="#C67465"/>
<stop offset="1" stop-color="#DC927D"/>
</linearGradient>
<linearGradient id="paint14_linear_1147_1015" x1="238.961" y1="542.025" x2="318.384" y2="664.385" gradientUnits="userSpaceOnUse">
<stop stop-color="#C67465"/>
<stop offset="1" stop-color="#DC927D"/>
</linearGradient>
<linearGradient id="paint15_linear_1147_1015" x1="238.961" y1="542.025" x2="318.384" y2="664.385" gradientUnits="userSpaceOnUse">
<stop stop-color="#C67465"/>
<stop offset="1" stop-color="#DC927D"/>
</linearGradient>
<linearGradient id="paint16_linear_1147_1015" x1="863.148" y1="554.166" x2="707.299" y2="522.476" gradientUnits="userSpaceOnUse">
<stop stop-color="#D58C75"/>
<stop offset="0.454968" stop-color="#CE7662"/>
</linearGradient>
<linearGradient id="paint17_linear_1147_1015" x1="863.148" y1="554.166" x2="707.299" y2="522.476" gradientUnits="userSpaceOnUse">
<stop stop-color="#D58C75"/>
<stop offset="0.454968" stop-color="#CE7662"/>
</linearGradient>
<linearGradient id="paint18_linear_1147_1015" x1="723.679" y1="509.366" x2="723.679" y2="567.399" gradientUnits="userSpaceOnUse">
<stop stop-color="#A35B48"/>
<stop offset="0.5" stop-color="#C17468"/>
<stop offset="0.983041" stop-color="#B85555"/>
</linearGradient>
<linearGradient id="paint19_linear_1147_1015" x1="723.679" y1="509.366" x2="723.679" y2="567.399" gradientUnits="userSpaceOnUse">
<stop stop-color="#A35B48"/>
<stop offset="0.5" stop-color="#C17468"/>
<stop offset="0.983041" stop-color="#B85555"/>
</linearGradient>
<linearGradient id="paint20_linear_1147_1015" x1="723.679" y1="509.366" x2="723.679" y2="567.399" gradientUnits="userSpaceOnUse">
<stop stop-color="#A35B48"/>
<stop offset="0.5" stop-color="#C17468"/>
<stop offset="0.983041" stop-color="#B85555"/>
</linearGradient>
<linearGradient id="paint21_linear_1147_1015" x1="723.679" y1="509.366" x2="723.679" y2="567.399" gradientUnits="userSpaceOnUse">
<stop stop-color="#A35B48"/>
<stop offset="0.5" stop-color="#C17468"/>
<stop offset="0.983041" stop-color="#B85555"/>
</linearGradient>
<linearGradient id="paint22_linear_1147_1015" x1="723.679" y1="509.366" x2="723.679" y2="567.399" gradientUnits="userSpaceOnUse">
<stop stop-color="#A35B48"/>
<stop offset="0.5" stop-color="#C17468"/>
<stop offset="0.983041" stop-color="#B85555"/>
</linearGradient>
<linearGradient id="paint23_linear_1147_1015" x1="723.679" y1="509.366" x2="723.679" y2="567.399" gradientUnits="userSpaceOnUse">
<stop stop-color="#A35B48"/>
<stop offset="0.5" stop-color="#C17468"/>
<stop offset="0.983041" stop-color="#B85555"/>
</linearGradient>
<linearGradient id="paint24_linear_1147_1015" x1="723.679" y1="509.366" x2="723.679" y2="567.399" gradientUnits="userSpaceOnUse">
<stop stop-color="#A35B48"/>
<stop offset="0.5" stop-color="#C17468"/>
<stop offset="0.983041" stop-color="#B85555"/>
</linearGradient>
<linearGradient id="paint25_linear_1147_1015" x1="723.679" y1="509.366" x2="723.679" y2="567.399" gradientUnits="userSpaceOnUse">
<stop stop-color="#A35B48"/>
<stop offset="0.5" stop-color="#C17468"/>
<stop offset="0.983041" stop-color="#B85555"/>
</linearGradient>
<linearGradient id="paint26_linear_1147_1015" x1="723.679" y1="509.366" x2="723.679" y2="567.399" gradientUnits="userSpaceOnUse">
<stop stop-color="#A35B48"/>
<stop offset="0.5" stop-color="#C17468"/>
<stop offset="0.983041" stop-color="#B85555"/>
</linearGradient>
<linearGradient id="paint27_linear_1147_1015" x1="723.679" y1="509.366" x2="723.679" y2="567.399" gradientUnits="userSpaceOnUse">
<stop stop-color="#A35B48"/>
<stop offset="0.5" stop-color="#C17468"/>
<stop offset="0.983041" stop-color="#B85555"/>
</linearGradient>
<linearGradient id="paint28_linear_1147_1015" x1="723.679" y1="509.366" x2="723.679" y2="567.399" gradientUnits="userSpaceOnUse">
<stop stop-color="#A35B48"/>
<stop offset="0.5" stop-color="#C17468"/>
<stop offset="0.983041" stop-color="#B85555"/>
</linearGradient>
<linearGradient id="paint29_linear_1147_1015" x1="723.679" y1="509.366" x2="723.679" y2="567.399" gradientUnits="userSpaceOnUse">
<stop stop-color="#A35B48"/>
<stop offset="0.5" stop-color="#C17468"/>
<stop offset="0.983041" stop-color="#B85555"/>
</linearGradient>
<linearGradient id="paint30_linear_1147_1015" x1="723.679" y1="509.366" x2="723.679" y2="567.399" gradientUnits="userSpaceOnUse">
<stop stop-color="#A35B48"/>
<stop offset="0.5" stop-color="#C17468"/>
<stop offset="0.983041" stop-color="#B85555"/>
</linearGradient>
<linearGradient id="paint31_linear_1147_1015" x1="723.679" y1="509.366" x2="723.679" y2="567.399" gradientUnits="userSpaceOnUse">
<stop stop-color="#A35B48"/>
<stop offset="0.5" stop-color="#C17468"/>
<stop offset="0.983041" stop-color="#B85555"/>
</linearGradient>
<linearGradient id="paint32_linear_1147_1015" x1="0" y1="503.37" x2="666.466" y2="503.37" gradientUnits="userSpaceOnUse">
<stop stop-color="#F3B098"/>
<stop offset="1" stop-color="#FBCFB9"/>
</linearGradient>
<linearGradient id="paint33_linear_1147_1015" x1="444.398" y1="487.629" x2="444.398" y2="535.964" gradientUnits="userSpaceOnUse">
<stop stop-color="#E6A47D"/>
<stop offset="0.5" stop-color="#D69981"/>
<stop offset="1" stop-color="#E6B89E"/>
</linearGradient>
<linearGradient id="paint34_linear_1147_1015" x1="444.398" y1="487.629" x2="444.398" y2="535.964" gradientUnits="userSpaceOnUse">
<stop stop-color="#E6A47D"/>
<stop offset="0.5" stop-color="#D69981"/>
<stop offset="1" stop-color="#E6B89E"/>
</linearGradient>
<linearGradient id="paint35_linear_1147_1015" x1="444.398" y1="487.629" x2="444.398" y2="535.964" gradientUnits="userSpaceOnUse">
<stop stop-color="#E6A47D"/>
<stop offset="0.5" stop-color="#D69981"/>
<stop offset="1" stop-color="#E6B89E"/>
</linearGradient>
<linearGradient id="paint36_linear_1147_1015" x1="444.398" y1="487.629" x2="444.398" y2="535.964" gradientUnits="userSpaceOnUse">
<stop stop-color="#E6A47D"/>
<stop offset="0.5" stop-color="#D69981"/>
<stop offset="1" stop-color="#E6B89E"/>
</linearGradient>
<linearGradient id="paint37_linear_1147_1015" x1="444.398" y1="487.629" x2="444.398" y2="535.964" gradientUnits="userSpaceOnUse">
<stop stop-color="#E6A47D"/>
<stop offset="0.5" stop-color="#D69981"/>
<stop offset="1" stop-color="#E6B89E"/>
</linearGradient>
<linearGradient id="paint38_linear_1147_1015" x1="444.398" y1="487.629" x2="444.398" y2="535.964" gradientUnits="userSpaceOnUse">
<stop stop-color="#E6A47D"/>
<stop offset="0.5" stop-color="#D69981"/>
<stop offset="1" stop-color="#E6B89E"/>
</linearGradient>
<linearGradient id="paint39_linear_1147_1015" x1="444.398" y1="487.629" x2="444.398" y2="535.964" gradientUnits="userSpaceOnUse">
<stop stop-color="#E6A47D"/>
<stop offset="0.5" stop-color="#D69981"/>
<stop offset="1" stop-color="#E6B89E"/>
</linearGradient>
<linearGradient id="paint40_linear_1147_1015" x1="444.398" y1="487.629" x2="444.398" y2="535.964" gradientUnits="userSpaceOnUse">
<stop stop-color="#E6A47D"/>
<stop offset="0.5" stop-color="#D69981"/>
<stop offset="1" stop-color="#E6B89E"/>
</linearGradient>
<linearGradient id="paint41_linear_1147_1015" x1="444.398" y1="487.629" x2="444.398" y2="535.964" gradientUnits="userSpaceOnUse">
<stop stop-color="#E6A47D"/>
<stop offset="0.5" stop-color="#D69981"/>
<stop offset="1" stop-color="#E6B89E"/>
</linearGradient>
<linearGradient id="paint42_linear_1147_1015" x1="444.398" y1="487.629" x2="444.398" y2="535.964" gradientUnits="userSpaceOnUse">
<stop stop-color="#E6A47D"/>
<stop offset="0.5" stop-color="#D69981"/>
<stop offset="1" stop-color="#E6B89E"/>
</linearGradient>
<linearGradient id="paint43_linear_1147_1015" x1="444.398" y1="487.629" x2="444.398" y2="535.964" gradientUnits="userSpaceOnUse">
<stop stop-color="#E6A47D"/>
<stop offset="0.5" stop-color="#D69981"/>
<stop offset="1" stop-color="#E6B89E"/>
</linearGradient>
<linearGradient id="paint44_linear_1147_1015" x1="444.398" y1="487.629" x2="444.398" y2="535.964" gradientUnits="userSpaceOnUse">
<stop stop-color="#E6A47D"/>
<stop offset="0.5" stop-color="#D69981"/>
<stop offset="1" stop-color="#E6B89E"/>
</linearGradient>
<linearGradient id="paint45_linear_1147_1015" x1="444.398" y1="487.629" x2="444.398" y2="535.964" gradientUnits="userSpaceOnUse">
<stop stop-color="#E6A47D"/>
<stop offset="0.5" stop-color="#D69981"/>
<stop offset="1" stop-color="#E6B89E"/>
</linearGradient>
<linearGradient id="paint46_linear_1147_1015" x1="444.398" y1="487.629" x2="444.398" y2="535.964" gradientUnits="userSpaceOnUse">
<stop stop-color="#E6A47D"/>
<stop offset="0.5" stop-color="#D69981"/>
<stop offset="1" stop-color="#E6B89E"/>
</linearGradient>
<linearGradient id="paint47_linear_1147_1015" x1="444.398" y1="487.629" x2="444.398" y2="535.964" gradientUnits="userSpaceOnUse">
<stop stop-color="#E6A47D"/>
<stop offset="0.5" stop-color="#D69981"/>
<stop offset="1" stop-color="#E6B89E"/>
</linearGradient>
<linearGradient id="paint48_linear_1147_1015" x1="444.398" y1="487.629" x2="444.398" y2="535.964" gradientUnits="userSpaceOnUse">
<stop stop-color="#E6A47D"/>
<stop offset="0.5" stop-color="#D69981"/>
<stop offset="1" stop-color="#E6B89E"/>
</linearGradient>
<linearGradient id="paint49_linear_1147_1015" x1="444.398" y1="487.629" x2="444.398" y2="535.964" gradientUnits="userSpaceOnUse">
<stop stop-color="#E6A47D"/>
<stop offset="0.5" stop-color="#D69981"/>
<stop offset="1" stop-color="#E6B89E"/>
</linearGradient>
<linearGradient id="paint50_linear_1147_1015" x1="6.88428" y1="484.18" x2="286.702" y2="484.18" gradientUnits="userSpaceOnUse">
<stop stop-color="#E9AA9E"/>
<stop offset="1" stop-color="#E07F6F"/>
</linearGradient>
<linearGradient id="paint51_linear_1147_1015" x1="201.104" y1="461.442" x2="623.365" y2="461.442" gradientUnits="userSpaceOnUse">
<stop stop-color="#99523A"/>
<stop offset="0.471884" stop-color="#CE7E55"/>
<stop offset="0.978905" stop-color="#F2AA7A"/>
</linearGradient>
<linearGradient id="paint52_linear_1147_1015" x1="201.103" y1="459.235" x2="588.097" y2="454.239" gradientUnits="userSpaceOnUse">
<stop stop-color="#8C452D"/>
<stop offset="0.5" stop-color="#82402A"/>
<stop offset="1" stop-color="#A35931"/>
</linearGradient>
<linearGradient id="paint53_linear_1147_1015" x1="576.065" y1="437.335" x2="590.61" y2="501.894" gradientUnits="userSpaceOnUse">
<stop stop-color="#B87243"/>
<stop offset="1" stop-color="#DD9765"/>
</linearGradient>
<linearGradient id="paint54_linear_1147_1015" x1="576.065" y1="437.335" x2="590.61" y2="501.894" gradientUnits="userSpaceOnUse">
<stop stop-color="#B87243"/>
<stop offset="1" stop-color="#DD9765"/>
</linearGradient>
<linearGradient id="paint55_linear_1147_1015" x1="576.065" y1="437.335" x2="590.61" y2="501.894" gradientUnits="userSpaceOnUse">
<stop stop-color="#B87243"/>
<stop offset="1" stop-color="#DD9765"/>
</linearGradient>
<linearGradient id="paint56_linear_1147_1015" x1="576.065" y1="437.335" x2="590.61" y2="501.894" gradientUnits="userSpaceOnUse">
<stop stop-color="#B87243"/>
<stop offset="1" stop-color="#DD9765"/>
</linearGradient>
<linearGradient id="paint57_linear_1147_1015" x1="576.065" y1="437.335" x2="590.61" y2="501.894" gradientUnits="userSpaceOnUse">
<stop stop-color="#B87243"/>
<stop offset="1" stop-color="#DD9765"/>
</linearGradient>
<linearGradient id="paint58_linear_1147_1015" x1="576.065" y1="437.335" x2="590.61" y2="501.894" gradientUnits="userSpaceOnUse">
<stop stop-color="#B87243"/>
<stop offset="1" stop-color="#DD9765"/>
</linearGradient>
<linearGradient id="paint59_linear_1147_1015" x1="553.142" y1="60.0474" x2="553.142" y2="149.118" gradientUnits="userSpaceOnUse">
<stop stop-color="#EAB4B4"/>
<stop offset="1" stop-color="#B57979"/>
</linearGradient>
<linearGradient id="paint60_linear_1147_1015" x1="633.705" y1="120.095" x2="575.66" y2="181.548" gradientUnits="userSpaceOnUse">
<stop stop-color="#D8B2B4"/>
<stop offset="1" stop-color="#BC7878"/>
</linearGradient>
<linearGradient id="paint61_linear_1147_1015" x1="278.802" y1="212.454" x2="312.936" y2="243.697" gradientUnits="userSpaceOnUse">
<stop stop-color="#D8A5A4"/>
<stop offset="1" stop-color="#C57F7A"/>
</linearGradient>
<linearGradient id="paint62_linear_1147_1015" x1="308.654" y1="138.72" x2="346.48" y2="205.162" gradientUnits="userSpaceOnUse">
<stop stop-color="#E1C8BE"/>
<stop offset="1" stop-color="#D18383"/>
</linearGradient>
<linearGradient id="paint63_linear_1147_1015" x1="447.559" y1="0" x2="447.559" y2="130.103" gradientUnits="userSpaceOnUse">
<stop stop-color="#EED8CF"/>
<stop offset="1" stop-color="#D38581"/>
</linearGradient>
<linearGradient id="paint64_linear_1147_1015" x1="377.873" y1="149.837" x2="460.718" y2="335.097" gradientUnits="userSpaceOnUse">
<stop stop-color="#735E59"/>
<stop offset="1" stop-color="#704D46"/>
</linearGradient>
<linearGradient id="paint65_linear_1147_1015" x1="573.525" y1="157.898" x2="573.525" y2="322.077" gradientUnits="userSpaceOnUse">
<stop stop-color="#7E5E5A"/>
<stop offset="1" stop-color="#7B5550"/>
</linearGradient>
<linearGradient id="paint66_linear_1147_1015" x1="473.579" y1="77.566" x2="473.579" y2="425.841" gradientUnits="userSpaceOnUse">
<stop stop-color="#876D6A"/>
<stop offset="1" stop-color="#76544E"/>
</linearGradient>
<linearGradient id="paint67_linear_1147_1015" x1="518.509" y1="137.193" x2="477.315" y2="137.193" gradientUnits="userSpaceOnUse">
<stop stop-color="#ECBCBC"/>
<stop offset="1" stop-color="#D1ACAE"/>
</linearGradient>
</defs>
</svg>
