<svg width="963" height="277" viewBox="0 0 963 277" fill="none" xmlns="http://www.w3.org/2000/svg">
<g filter="url(#filter0_n_1147_495)">
<path d="M33.1659 128.747L6.34008 101.526C4.48295 99.6416 3.44189 97.1021 3.44189 94.4563C3.44189 88.8963 7.94702 84.3879 13.507 84.384L942.643 83.7226C948.449 83.7184 953.158 88.424 953.158 94.2301C953.158 97.1762 951.921 99.9869 949.749 101.977L934.094 116.322L910.363 137.299C903.396 143.458 894.956 147.713 885.861 149.653L792.778 169.503C783.705 171.438 775.35 175.861 768.648 182.275C744.564 205.328 713.355 219.504 680.149 222.473L616.653 228.15C611.556 228.606 606.716 230.38 602.415 233.153C582.421 246.045 519.893 282.986 470.441 275.539C416.079 267.351 378.212 245.191 362.667 234.615C357.423 231.047 351.347 228.703 345.01 228.438L287.568 226.036C255.953 224.715 225.609 213.227 201.045 193.28L184.072 179.498C176.961 173.724 168.497 169.853 159.478 168.251L100.44 157.761C97.2744 157.199 94.1657 156.355 91.1506 155.239L51.4312 140.546C44.551 138.001 38.3151 133.972 33.1659 128.747Z" fill="url(#paint0_linear_1147_495)"/>
<path d="M31.9017 129.03L5.153 101.773C3.29988 99.8841 2.26172 97.344 2.26172 94.6982C2.26172 89.1229 6.77933 84.6021 12.3547 84.5981L535.25 84.2243C541.881 84.2195 547.259 89.5935 547.259 96.2243V128.289C546.781 145.419 541.323 168.058 538.654 177.236C532.864 195.71 511.6 231.885 501.691 247.664C498.065 255.763 488.191 263.295 478.989 268.733C470.347 273.841 460.006 274.939 450.201 272.784C405.603 262.984 374.418 244.515 360.673 235.128C355.421 231.54 349.339 229.189 342.983 228.922L285.995 226.53C254.285 225.198 223.858 213.64 199.261 193.583L182.509 179.922C175.39 174.117 166.909 170.224 157.867 168.611L99.0617 158.119C95.8855 157.552 92.7663 156.702 89.7418 155.578L50.1765 140.88C43.2882 138.321 37.0485 134.275 31.9017 129.03Z" fill="url(#paint1_linear_1147_495)"/>
<path d="M335.193 122.941L234.493 116.966C226.912 136.209 240.792 155.557 248.68 162.825L278.701 174.753L313.89 223.263L355.674 225.667C373.643 240.231 387.249 241.983 391.807 241.038C389.55 239.643 386.152 227.523 383.905 221.486C382.625 208.88 376.326 192.068 374.352 186.333C358.558 177.162 337.433 139.341 335.193 122.941Z" fill="url(#paint2_linear_1147_495)" fill-opacity="0.88"/>
<path d="M234.524 116.904C232.965 131.04 239.135 160.241 276.289 163.952C284.346 166.226 299.809 175.576 297.201 194.785C301.146 201.021 308.093 211.778 311.853 216.94C312.801 218.032 313.661 219.021 314.395 219.865C314.172 219.961 313.225 218.823 311.853 216.94C306.018 210.215 296.846 199.576 292.936 194.785C286.355 187.803 267.341 174.496 243.933 177.121C232.334 178.739 206.833 175.752 197.629 150.865C198.005 159.478 207.792 177.789 243.933 182.121C250.871 184.648 265.651 192.042 269.273 201.4C274.038 205.018 284.183 213.144 286.646 216.701C276.448 208.808 251.897 192.229 235.273 189.059C241.217 196.434 253.538 211.403 255.279 212.277C251.394 217.949 230.204 220.405 176.378 171.823C169.688 168.91 151.017 163.638 140.346 161.104C130.363 147.946 109.966 124.356 104.696 104.942L102.513 100.19C142.219 103.423 224.21 111.291 234.524 116.904Z" fill="url(#paint3_linear_1147_495)"/>
<path d="M381.423 125.79H372.811C377.389 139.431 386.544 167.083 386.544 168.567C394.224 194.741 405.164 203.424 406.095 205.996C416.894 214.965 422.387 230.467 423.784 237.097C423.784 224.75 413.388 209.504 408.189 203.424C399.438 188.458 386.699 145.432 381.423 125.79Z" fill="url(#paint4_linear_1147_495)"/>
<path d="M372.811 184.057C355.209 174.452 339.475 139.195 333.808 122.767H331.039C335.793 138.963 348.154 158.325 353.741 165.982C357.747 173.119 367.215 181.484 371.449 184.775C376.558 188.562 380.605 204.75 381.989 212.371C383.477 227.371 389.306 236.045 392.034 238.507C388.699 235.045 385.549 224.636 384.391 219.865C380.723 194.787 375.143 185.544 372.811 184.057Z" fill="url(#paint5_linear_1147_495)"/>
<path d="M430.587 209.139C426.611 204.165 427.118 197.143 427.868 194.254C431.579 181.055 428.374 167.629 426.248 162.389C432.228 175.559 432.07 185.289 431.243 188.508C426.818 198.381 428.962 206.376 430.587 209.139Z" fill="url(#paint6_linear_1147_495)"/>
<path d="M440.433 193.595C450.747 202.042 465.825 223.797 443.621 243.241C451.028 235.234 460.762 214.094 440.433 193.595Z" fill="url(#paint7_linear_1147_495)"/>
<path d="M104.129 101.688L95.5349 100.19C99.6208 110.004 109.35 123.137 113.704 128.477C125.961 147.067 139.812 161.101 141.286 160.509C139.223 159.917 118.713 132.621 118.713 131.289C112.349 123.711 106.339 108.397 104.129 101.688Z" fill="url(#paint8_linear_1147_495)"/>
<path d="M238.865 135.918C236.363 119.997 232.904 115.748 231.487 115.614C229.241 119.159 233.706 129.929 236.218 134.871C242.827 153.112 251.376 156.276 254.825 155.578C246.741 153.128 240.816 141.451 238.865 135.918Z" fill="url(#paint9_linear_1147_495)"/>
<path d="M88.4284 101.435L76.33 100.19C79.3022 112.518 91.985 125.298 97.9548 130.147C109.31 138.416 111.133 147.949 110.625 151.682L135.012 156.084C133.946 153.175 118.31 134.901 110.625 126.127C102.851 122.452 92.5883 108.134 88.4284 101.435Z" fill="url(#paint10_linear_1147_495)"/>
<path d="M74.4362 101.435L62.3378 100.19C65.31 112.518 77.9928 125.298 83.9626 130.147C95.3181 138.416 97.1408 147.949 96.6327 151.682L121.02 156.084C120.217 153.892 111.146 142.982 103.434 133.982C98.9741 128.777 93.2913 124.643 88.5022 119.74C82.7955 113.897 77.2347 105.942 74.4362 101.435Z" fill="url(#paint11_linear_1147_495)"/>
<path d="M448.123 127.636H440.068C442.484 154.551 461.435 174.49 470.609 181.095C492.663 199.078 483.731 231.563 476.508 245.558C497.988 210.567 482.645 184.735 472.288 176.192C451.575 161.549 447.548 137.72 448.123 127.636Z" fill="url(#paint12_linear_1147_495)"/>
<path d="M421.067 152.396C408.921 142.762 408.149 131.875 409.281 127.636C409.281 130.307 414.208 138.833 416.671 142.762C428.018 154.863 428.99 166.001 428.058 170.057C427.419 161.226 423.131 154.603 421.067 152.396Z" fill="url(#paint13_linear_1147_495)"/>
<path d="M299.409 137.745C293.336 122.492 296.213 121.89 298.41 123.495C311.576 140.375 330.665 179.9 338.563 197.552L323.581 177.683C317.029 173.348 304.736 149.251 299.409 137.745Z" fill="url(#paint14_linear_1147_495)"/>
<path d="M166.019 112.656C177.431 120.522 196.274 149.719 196.407 150.519C201.079 161.825 213.658 171.494 219.363 174.916C208.853 171.29 198.972 160.518 195.345 155.585L179.023 136.387C162.568 117.936 163.497 112.879 166.019 112.656Z" fill="url(#paint15_linear_1147_495)"/>
<path d="M762.37 116.807L705.378 122.126C705.378 131.286 692.082 157.139 685.434 168.92L687.539 170.182C735.548 150.275 757.43 126.304 762.37 116.807Z" fill="url(#paint16_linear_1147_495)"/>
<path d="M772.688 176.315C780.585 171.713 798.079 113.522 799.466 112.627C800.883 111.713 843.018 110.26 863.148 108.21C858.029 131.218 835.839 149.889 825.384 156.348C822.792 159.798 781.216 173.462 772.688 176.315C772.521 176.412 772.358 176.485 772.201 176.533C770.584 177.028 770.95 176.896 772.688 176.315Z" fill="url(#paint17_linear_1147_495)"/>
<path d="M577.622 132.025L572.632 132.727C573.887 142.169 572.109 163.264 571.063 172.632C565.771 188.463 552.511 211.545 546.542 221.107C542.551 226.84 530.433 239.045 524.873 244.432C528.18 243.757 540.697 230.943 546.542 224.62C547.113 228.442 544.784 239.42 543.549 244.432C547.198 240.048 549.061 228.273 549.536 222.934C556.037 212.93 569.258 185.231 575.056 172.632C578.135 165.325 578.05 142.516 577.622 132.025Z" fill="url(#paint18_linear_1147_495)"/>
<path d="M606.317 164.537C609.413 148.645 616.959 137.361 620.346 133.706C612.46 148.365 608.282 167.686 607.179 175.513C600.79 191 589.752 200.925 585.032 203.951L594.707 191.873C601.802 184.117 605.403 170.418 606.317 164.537Z" fill="url(#paint19_linear_1147_495)"/>
<path d="M634.52 128.287H631.498L628.918 165.834C627.231 174.083 620.418 182.715 619.315 183.291C606.754 196.131 605.991 203.827 607.179 206.07C607.179 203.547 611.468 196.42 613.612 193.171C621.755 184.548 628.929 173.145 631.498 168.521C632.777 167.145 634.045 141.125 634.52 128.287Z" fill="url(#paint20_linear_1147_495)"/>
<path d="M586.696 240.174C587.11 239.766 604.357 215.587 606.003 210.642C606.027 210.559 606.051 210.478 606.075 210.398C606.056 210.473 606.032 210.555 606.003 210.642C603.977 217.375 597.417 232.314 586.696 240.174Z" fill="url(#paint21_linear_1147_495)"/>
<path d="M677.721 124.387L674.5 124.746C674.5 125.033 672.654 141.767 671.731 150.099C670.316 160.154 661.554 174.854 657.35 180.947C668.078 171.167 673.253 156.025 674.5 149.677L677.721 124.387Z" fill="url(#paint22_linear_1147_495)"/>
<path d="M651.993 202.261C691.366 168.524 703.041 135.26 703.956 122.845L705.665 122.225V122.845C704.516 137.215 693.179 158.316 687.654 167.07C686.239 169.248 688.243 168.945 689.422 168.521C692.25 165.674 709.091 158.454 717.157 155.199C734.13 146.692 754.359 126.098 762.352 116.864H765.778C757.026 136.642 723.824 155.308 708.317 162.169C695.853 165.132 681.813 177.485 676.352 183.291C668.952 195.107 651.386 216.629 643.528 225.913C641.382 227.133 632.894 227.099 628.918 226.93C630.436 225.302 644.934 209.806 651.993 202.261Z" fill="url(#paint23_linear_1147_495)"/>
<path d="M732.604 164.537C717.733 169.91 694.444 182.557 684.658 188.209C711.685 180.997 730.145 170.287 735.997 165.834C760.262 151.074 764.597 143.292 763.731 141.246C760.545 148.623 741.652 159.847 732.604 164.537Z" fill="url(#paint24_linear_1147_495)"/>
<path d="M700.443 203.951C673.889 206.774 659.481 217.782 655.596 222.934C663.739 216.051 688.887 208.823 700.443 206.07C728.414 197.095 737.767 187.144 738.947 183.291C730.804 193.082 709.885 201.144 700.443 203.951Z" fill="url(#paint25_linear_1147_495)"/>
<path d="M753.455 174.049C753.184 175.117 743.565 182.474 741.669 188.209C745.597 184.869 753.455 177.36 753.455 174.049Z" fill="url(#paint26_linear_1147_495)"/>
<path d="M822.798 139.427C817.712 146.062 795.996 153.987 785.774 157.12C807.411 147.284 818.175 140.689 820.852 138.621C827.608 126.162 829.87 115.292 830.156 111.415H831.961C830.614 123.357 825.291 135.066 822.798 139.427Z" fill="url(#paint27_linear_1147_495)"/>
<path d="M864.641 107.828L861.746 108.542C857.693 132.225 835.449 147.419 824.833 152.056C803.216 159.19 788.483 167.552 783.819 170.841C797.04 169.985 812.81 165.412 819.043 163.232C851.661 143.924 863.033 118.251 864.641 107.828Z" fill="url(#paint28_linear_1147_495)"/>
<path d="M840.04 159.298C839.885 159.416 839.761 159.499 839.671 159.546C839.794 159.464 839.917 159.381 840.04 159.298C843.796 156.447 865.64 133.662 866.451 131.607C865.173 135.779 858.103 147.122 840.04 159.298Z" fill="url(#paint29_linear_1147_495)"/>
<path d="M891.936 104.582L887.645 104.902C888.685 113.038 879.715 128.798 882.185 127.324C884.161 126.146 889.509 111.671 891.936 104.582Z" fill="url(#paint30_linear_1147_495)"/>
<path d="M922.486 99.0723C921.511 99.2858 919.483 99.7513 919.171 99.9051C915.986 107.721 909.928 123.109 911.176 122.135C912.424 121.161 919.236 106.354 922.486 99.0723Z" fill="url(#paint31_linear_1147_495)"/>
<path d="M948.132 84.3286C545.414 26.5251 158.884 55.8692 6.57041 85.0844C3.55872 85.6621 2.77958 88.9803 5.47442 90.4438C23.4801 100.222 70.7591 106.104 94.7611 107.959C125.152 112.85 184.117 116.278 209.802 117.381C219.259 121.241 271.429 124.426 296.331 125.536C299.828 125.35 351.403 129.323 376.753 131.333C387.243 131.898 408.441 133.029 409.315 133.029H448.138C466.69 135.989 522.758 134.977 548.474 134.101C562.678 134.757 659.635 126.729 706.338 122.634C718.072 122.961 776.843 115.671 804.762 111.985C872.155 110.636 922.834 99.4639 948.876 91.1765C952.72 89.9534 952.125 84.9017 948.132 84.3286Z" fill="url(#paint32_linear_1147_495)"/>
<path d="M133.713 96.6433C124.092 94.043 69.7468 96.1232 67.6665 96.6433C74.4812 97.9042 100.356 97.7577 112.441 97.5268C120.968 97.3081 130.175 96.8467 133.713 96.6433Z" fill="url(#paint33_linear_1147_495)"/>
<path d="M133.713 101.16C141.934 100.23 160.049 98.7338 166.744 100.189C161.664 101.281 147.945 103.003 133.713 101.16Z" fill="url(#paint34_linear_1147_495)"/>
<path d="M160.356 105.134C173.792 104.394 201.665 103.359 205.659 105.134C193.711 106.211 167.923 107.719 160.356 105.134Z" fill="url(#paint35_linear_1147_495)"/>
<path d="M214.905 103.1C221.561 101.806 235.911 99.6072 240.053 101.16C236.971 102.115 227.627 103.84 214.905 103.1Z" fill="url(#paint36_linear_1147_495)"/>
<path d="M243.668 114.798C255.358 113.984 279.004 112.844 280.07 114.798C271.265 115.76 251.659 117.106 243.668 114.798Z" fill="url(#paint37_linear_1147_495)"/>
<path d="M287.838 112.356C301.23 111.024 330.01 109.16 338.001 112.356C323.869 112.8 294.053 113.422 287.838 112.356Z" fill="url(#paint38_linear_1147_495)"/>
<path d="M338.001 116.101C344.107 115.627 356.941 114.964 359.421 116.101C354.14 116.919 342.463 118.064 338.001 116.101Z" fill="url(#paint39_linear_1147_495)"/>
<path d="M364.071 116.101C370.1 115.498 382.699 114.783 384.869 116.747C378.884 117.221 366.345 117.754 364.071 116.101Z" fill="url(#paint40_linear_1147_495)"/>
<path d="M391.848 110.098C392.437 109.863 424.727 108.802 426.377 110.098C418.996 111.141 401.756 112.601 391.848 110.098Z" fill="url(#paint41_linear_1147_495)"/>
<path d="M454.612 120.71C455.602 120.38 523.077 116.751 535.615 120.71C509.384 121.37 456.46 122.294 454.612 120.71Z" fill="url(#paint42_linear_1147_495)"/>
<path d="M553.766 109.909C571.638 111.523 608.196 115.347 611.455 117.731C594.507 116.427 559.241 113.038 553.766 109.909Z" fill="url(#paint43_linear_1147_495)"/>
<path d="M622.7 111.538C629.599 111.756 644.016 112.744 646.493 114.961C640.517 115.124 627.393 114.667 622.7 111.538Z" fill="url(#paint44_linear_1147_495)"/>
<path d="M661.485 105.346C673.11 104.368 697.924 103.325 704.182 106.975C693.101 106.758 669.047 106.128 661.485 105.346Z" fill="url(#paint45_linear_1147_495)"/>
<path d="M729.864 98.3471C727.969 98.4255 726.277 98.5121 724.847 98.5992C725.534 98.3801 727.321 98.3089 729.864 98.3471C742.072 97.8422 762.726 97.6809 776.175 99.9864C789.308 100.634 816.683 101.263 821.122 98.5992C821.439 100.848 812.744 104.607 775.426 101.655C763.059 100.466 740.206 98.5023 729.864 98.3471Z" fill="url(#paint46_linear_1147_495)"/>
<path d="M659.208 119.628C664.997 120.518 670.472 124.027 672.486 125.671H669.227C669.163 124.78 662.521 121.271 659.208 119.628Z" fill="url(#paint47_linear_1147_495)"/>
<path d="M746.241 84.5936C747.323 84.7138 785.429 86.1563 793.483 87.9594C781.289 88.0866 754.77 87.5915 746.241 84.5936Z" fill="url(#paint48_linear_1147_495)"/>
<path d="M746.241 77.3352C768.048 78.18 811.678 79.7395 814.314 79.323C814.345 79.3163 814.375 79.3095 814.405 79.3028C814.385 79.31 814.354 79.3168 814.314 79.323C807.637 80.7895 784.854 82.4176 746.241 77.3352Z" fill="url(#paint49_linear_1147_495)"/>
<g filter="url(#filter1_n_1147_495)">
<path d="M286.702 94.3674V57.6591C179.937 57.6593 31.7653 79.2607 6.88428 85.1395C16.9101 88.1472 222.67 94.0727 286.702 94.3674Z" fill="url(#paint50_linear_1147_495)"/>
</g>
<path d="M535.647 0.680963L380.876 14.7074L386.635 4.64392L364.353 9.10038L335.446 13.3039C329.104 14.226 323.078 16.6581 317.873 20.3953L285.412 43.7018C280.347 47.3381 274.601 49.9012 268.762 52.0874C253.358 57.8548 230.53 69.3446 219.227 75.366C209.239 79.8798 204.438 83.1391 202.399 85.2268C201.073 86.5854 202.221 87.9743 204.1 88.2479C224.381 91.2015 293.811 94.881 330.171 96.5407C332.085 96.6281 333.97 96.8847 335.838 97.3112L346.08 99.6489C364.81 102.04 475.001 102.397 527.755 102.276C570.37 101.85 682.574 90.78 738.942 84.7095C740.861 84.5028 741.368 81.9905 739.681 81.0533C713.862 66.7124 683.948 54.6822 667.293 48.6842C663.233 47.2221 659.355 45.3204 655.778 42.9061L630.597 25.9081C619.695 18.549 607.183 13.9204 594.117 12.413L569.233 9.54223C565.106 9.06615 561.076 7.96573 557.28 6.27864L550.043 3.06208C545.526 1.05446 540.57 0.234807 535.647 0.680963Z" fill="url(#paint51_linear_1147_495)"/>
<path d="M465.081 39.2846C467.135 39.9192 469.436 40.0628 470.33 40.0551C478.012 41.5979 483.966 52.7933 485.983 58.1986C491.129 67.8676 501.741 74.3696 506.403 76.4115C529.361 83.3874 541.818 96.1599 545.177 101.674H542.041C534.305 88.9579 516.122 81.2973 507.998 79.057C496.447 76.5006 487.555 65.5183 484.552 60.3461C479.996 46.3582 470.555 41.8894 466.405 41.4037L465.081 39.2846ZM454.337 52.0404C452.029 64.1783 443.997 90.9214 430.335 100.792L427.482 100.394C432.578 97.8572 444.834 84.7267 453.088 52.4984L454.337 52.0404ZM562.133 63.7084C566.975 64.9189 577.08 68.1592 578.766 71.4389C578.688 73.5864 578.298 79.0055 577.361 83.5033C579.86 87.9543 585.278 97.1605 586.965 98.3793C586.202 99.0113 582.856 97.0668 575.581 84.2309C575.18 83.9172 574.253 81.8997 573.752 76.3393C573.874 75.1198 573.313 72.3253 570.093 70.9037C566.598 68.7198 560.114 64.2236 562.133 63.7084ZM397.956 3.16446C447.492 0.858769 527.097 -1.76302 545.885 1.6088C548.619 2.09934 549.235 4.64823 547.492 6.80997C544.066 11.0583 537.438 16.608 526.941 19.3295C511.653 20.7805 472.396 23.0863 433.398 21.2221C430.032 21.0612 426.684 21.681 423.438 22.5863C414.273 25.1425 397.002 27.7032 373.978 25.4359C368.261 24.873 362.484 26.2343 357.861 29.644C342.651 40.861 320.062 57.911 313.498 64.3559C317.124 62.192 324.726 57.7934 326.13 57.5121C327.359 58.0385 331.184 58.1439 336.659 54.3539C341.309 50.4534 352.816 42.5945 361.653 42.3617C371.003 43.5245 390.46 45.5011 393.483 44.1059C388.8 48.4402 380.266 57.0719 376.666 63.0365C375.205 65.457 374.608 68.2992 373.306 70.809C370.844 75.5558 366.228 82.2184 359.204 87.4506C357.31 88.8609 355.177 89.8963 353.008 90.8305C348.205 92.8998 341.551 95.9437 338.689 97.8822C297.711 96.4936 214.025 92.8636 207.103 89.4525C202.458 89.0212 196.064 86.6364 207.644 80.5473C225.825 71.4356 264.773 52.4434 275.115 49.3686C283.729 43.9586 302.221 32.0604 307.272 27.7475C312.096 22.8529 326.141 12.8944 343.733 12.2133C351.603 10.791 365.582 8.19713 375.812 6.12149C383.121 4.63856 390.506 3.51123 397.956 3.16446ZM355.619 60.9994C351.8 63.0373 348.42 65.8072 345.671 69.1498L336.161 80.7104C333.905 83.4529 331.221 85.8133 328.212 87.7006L315.004 95.9867H317.85L330.324 88.4789C333.485 86.5762 336.304 84.1568 338.665 81.3217L347.993 70.1186C350.485 67.1258 353.487 64.5971 356.86 62.6508L381.651 48.3461L380.898 47.5082L355.619 60.9994ZM305.208 77.1479C302.796 79.4922 288.127 89.9589 281.094 94.8988H283.104C290.405 92.2194 301.719 82.3388 306.463 77.7338L305.208 77.1479ZM462.884 55.7982C462.32 62.2345 461.622 75.8961 463.341 79.057C465.123 81.9619 470.859 88.516 479.55 91.4906C478.02 93.0979 472.114 93.5005 460.727 82.2533C459.926 79.8385 458.702 71.1664 460.221 55.7982H462.884ZM289.597 66.7065C279.669 73.9523 258.865 89.0894 255.077 91.6713C261.074 88.7768 276.651 80.1284 290.975 68.6918C291.721 68.03 292.489 66.7065 289.597 66.7065ZM439.14 55.7982C438.126 60.0334 431.529 69.7893 413.256 74.9359C407.105 78.2319 391.959 86.1306 380.584 91.3539L379.304 88.6176L409.412 74.9359C414.473 68.4288 427.504 55.492 439.14 55.7982ZM589.41 68.9145C616.102 80.215 617.841 85.4441 615.374 86.6459C604.663 84.1853 593.601 73.7995 589.41 68.9145ZM264.789 73.9672C261.749 75.7548 258.309 76.7489 254.785 76.8568L248.593 77.0463C246.387 77.1139 244.205 77.5287 242.129 78.2758L228.821 83.0619C231.318 82.776 235.892 82.0499 239.792 80.9281C243.219 79.9423 246.703 78.8676 250.267 78.7475L254.868 78.5922C258.339 78.4752 261.727 77.4991 264.728 75.7514L274.791 69.891C274.992 69.491 275.066 68.6918 273.757 68.6918L264.789 73.9672ZM633.588 72.2719C642.17 73.1946 658.572 76.2861 655.527 81.269C653.798 83.1936 646.989 84.0886 633.588 72.2719ZM330.661 68.6918C327.847 70.7686 313.357 78.0415 306.463 81.4184L307.887 82.0883C323.494 76.529 330.465 70.841 332.001 68.6918H330.661ZM537.971 64.8598C551.593 65.6124 559.26 76.4999 561.391 81.85C555.33 73.3395 543.252 66.9772 537.971 64.8598ZM427.234 34.1449C427.007 35.2306 422.642 39.4132 406.994 47.4574C404.413 49.0877 399.387 54.1408 399.93 61.3129C407.305 57.8152 425.223 50.3494 437.889 48.4691L438.058 49.1811C425.626 52.3223 399.863 61.1566 396.27 71.3637C395.403 73.4075 393.291 77.3288 391.78 76.6625C392.052 67.9084 395.746 49.1409 408.352 44.1059C409.167 44.1059 426.186 35.6392 427.234 34.1449ZM624.523 52.5482C626.738 56.5346 638.918 61.6495 644.731 63.7084C632.385 62.6702 626.115 55.8355 624.523 52.5482ZM351.76 31.4057C343.799 31.7593 335.08 35.116 329.112 38.0541C325.544 39.8107 322.438 42.365 319.205 44.6811C310.048 51.2408 291.835 62.1675 290.975 62.268C292.077 62.9653 293.591 62.9206 294.211 62.8109C301.615 60.0755 317.655 48.4653 324.749 43.0024C330.644 38.3806 345.213 34.238 351.76 32.7445V31.4057ZM537.971 21.7318C534.049 15.1573 556.213 29.1394 567.785 36.9525C602.146 53.5655 610.257 59.7193 610.018 60.7201C602.041 55.7342 578.539 44.1739 567.785 39.017C557.813 37.1077 543.754 26.6981 537.971 21.7318ZM510.583 41.4037C519.101 42.483 525.037 44.5303 526.941 45.4193C535.689 49.0318 533.807 52.8441 531.772 54.2982C528.037 55.7374 524.195 52.4994 522.741 50.7006C520.475 48.2514 513.691 43.4822 510.583 41.4037ZM586.074 28.5453C585.885 27.3888 586.522 28.0633 586.864 28.5453C591.325 34.2814 596.476 37.6438 598.494 38.6078C600.333 38.481 604.999 39.5243 607.103 40.0619C626.044 47.3294 620.003 48.8128 614.614 48.6459C600.193 45.7274 589.579 34.0293 586.074 28.5453ZM523.931 29.2104C539.562 32.2828 546.614 40.8221 548.186 44.7074C544.144 39.9125 530.332 32.378 523.931 29.2104Z" fill="url(#paint52_linear_1147_495)"/>
<path d="M482.357 33.5847C472.784 35.3797 456.306 29.97 449.263 27.0408C447.67 27.0408 448.06 28.1669 448.453 28.73C463.122 37.1507 477.74 36.3347 483.216 34.8741L482.357 33.5847Z" fill="url(#paint53_linear_1147_495)"/>
<path d="M482.357 85.3484C482.357 91.9505 480.682 99.3368 479.844 102.205H483.216V101.327C485.914 95.0057 483.767 88.0408 482.357 85.3484Z" fill="url(#paint54_linear_1147_495)"/>
<path d="M509.16 66.9656C518.894 72.0774 540.385 83.2144 548.477 86.8688C544.02 82.5727 529.916 72.5777 509.16 66.9656Z" fill="url(#paint55_linear_1147_495)"/>
<path d="M606.445 69.7051C599.165 66.543 556.634 56.6878 555.819 56.6878V58.454C571.852 62.1603 594.191 69.9502 603.357 73.3819C607.475 73.5584 607.131 71.0042 606.445 69.7051Z" fill="url(#paint56_linear_1147_495)"/>
<path d="M639.216 54.7607C636.517 53.219 625.553 43.3507 620.409 38.6093C622.421 36.8845 633.909 48.5765 639.621 54.3911L647.003 65.3485C657.397 74.5943 665.824 82.3258 668.289 85.1972C662.489 83.4744 652.281 72.5153 647.902 67.2511C645.777 64.4372 641.226 57.7517 639.216 54.7607Z" fill="url(#paint57_linear_1147_495)"/>
<path d="M681.198 68.2711C687.276 73.2234 700.35 83.209 704.024 83.5332C699.522 79.0761 688.654 69.7838 681.198 68.2711Z" fill="url(#paint58_linear_1147_495)"/>
<path d="M681.192 68.391C686.434 70.4322 698.275 76.2528 703.711 83.2059C697.351 79.624 683.942 71.6463 681.192 68.391Z" fill="#B16C46"/>
</g>
<defs>
<filter id="filter0_n_1147_495" x="2.26172" y="0" width="950.896" height="276.521" filterUnits="userSpaceOnUse" color-interpolation-filters="sRGB">
<feFlood flood-opacity="0" result="BackgroundImageFix"/>
<feBlend mode="normal" in="SourceGraphic" in2="BackgroundImageFix" result="shape"/>
<feTurbulence type="fractalNoise" baseFrequency="5 5" stitchTiles="stitch" numOctaves="3" result="noise" seed="1005" />
<feColorMatrix in="noise" type="luminanceToAlpha" result="alphaNoise" />
<feComponentTransfer in="alphaNoise" result="coloredNoise1">
<feFuncA type="discrete" tableValues="1 1 1 1 1 1 1 1 1 1 1 1 1 1 1 1 1 1 1 1 1 1 1 1 1 1 1 1 1 1 1 1 1 1 1 1 1 1 1 1 1 1 1 1 1 1 1 1 1 1 1 0 0 0 0 0 0 0 0 0 0 0 0 0 0 0 0 0 0 0 0 0 0 0 0 0 0 0 0 0 0 0 0 0 0 0 0 0 0 0 0 0 0 0 0 0 0 0 0 0 "/>
</feComponentTransfer>
<feComposite operator="in" in2="shape" in="coloredNoise1" result="noise1Clipped" />
<feFlood flood-color="rgba(201, 118, 118, 0.17)" result="color1Flood" />
<feComposite operator="in" in2="noise1Clipped" in="color1Flood" result="color1" />
<feMerge result="effect1_noise_1147_495">
<feMergeNode in="shape" />
<feMergeNode in="color1" />
</feMerge>
</filter>
<filter id="filter1_n_1147_495" x="6.88428" y="57.6591" width="279.818" height="36.7084" filterUnits="userSpaceOnUse" color-interpolation-filters="sRGB">
<feFlood flood-opacity="0" result="BackgroundImageFix"/>
<feBlend mode="normal" in="SourceGraphic" in2="BackgroundImageFix" result="shape"/>
<feTurbulence type="fractalNoise" baseFrequency="5 5" stitchTiles="stitch" numOctaves="3" result="noise" seed="1360" />
<feColorMatrix in="noise" type="luminanceToAlpha" result="alphaNoise" />
<feComponentTransfer in="alphaNoise" result="coloredNoise1">
<feFuncA type="discrete" tableValues="1 1 1 1 1 1 1 1 1 1 1 1 1 1 1 1 1 1 1 1 1 1 1 1 1 1 1 1 1 1 1 1 1 1 1 1 1 1 1 1 1 1 1 1 1 1 1 1 1 1 1 0 0 0 0 0 0 0 0 0 0 0 0 0 0 0 0 0 0 0 0 0 0 0 0 0 0 0 0 0 0 0 0 0 0 0 0 0 0 0 0 0 0 0 0 0 0 0 0 0 "/>
</feComponentTransfer>
<feComposite operator="in" in2="shape" in="coloredNoise1" result="noise1Clipped" />
<feFlood flood-color="rgba(194, 48, 48, 0.25)" result="color1Flood" />
<feComposite operator="in" in2="noise1Clipped" in="color1Flood" result="color1" />
<feMerge result="effect1_noise_1147_495">
<feMergeNode in="shape" />
<feMergeNode in="color1" />
</feMerge>
</filter>
<linearGradient id="paint0_linear_1147_495" x1="478.3" y1="83.7151" x2="478.3" y2="276.521" gradientUnits="userSpaceOnUse">
<stop stop-color="#DC9F8B"/>
<stop offset="0.811997" stop-color="#D78A7F"/>
</linearGradient>
<linearGradient id="paint1_linear_1147_495" x1="61.0385" y1="127.877" x2="539.731" y2="179.657" gradientUnits="userSpaceOnUse">
<stop stop-color="#7A3D4B"/>
<stop offset="1" stop-color="#9F5663"/>
</linearGradient>
<linearGradient id="paint2_linear_1147_495" x1="351.829" y1="171.704" x2="311.774" y2="241.087" gradientUnits="userSpaceOnUse">
<stop stop-color="#823F4F"/>
<stop offset="1" stop-color="#914D5A"/>
</linearGradient>
<linearGradient id="paint3_linear_1147_495" x1="157.223" y1="111.646" x2="387.433" y2="232.889" gradientUnits="userSpaceOnUse">
<stop stop-color="#7B3944"/>
<stop offset="0.5" stop-color="#7F3D4A"/>
<stop offset="1" stop-color="#7E3945"/>
</linearGradient>
<linearGradient id="paint4_linear_1147_495" x1="157.223" y1="111.646" x2="387.433" y2="232.889" gradientUnits="userSpaceOnUse">
<stop stop-color="#7B3944"/>
<stop offset="0.5" stop-color="#7F3D4A"/>
<stop offset="1" stop-color="#7E3945"/>
</linearGradient>
<linearGradient id="paint5_linear_1147_495" x1="157.223" y1="111.646" x2="387.433" y2="232.889" gradientUnits="userSpaceOnUse">
<stop stop-color="#7B3944"/>
<stop offset="0.5" stop-color="#7F3D4A"/>
<stop offset="1" stop-color="#7E3945"/>
</linearGradient>
<linearGradient id="paint6_linear_1147_495" x1="157.223" y1="111.646" x2="387.433" y2="232.889" gradientUnits="userSpaceOnUse">
<stop stop-color="#7B3944"/>
<stop offset="0.5" stop-color="#7F3D4A"/>
<stop offset="1" stop-color="#7E3945"/>
</linearGradient>
<linearGradient id="paint7_linear_1147_495" x1="157.223" y1="111.646" x2="387.433" y2="232.889" gradientUnits="userSpaceOnUse">
<stop stop-color="#7B3944"/>
<stop offset="0.5" stop-color="#7F3D4A"/>
<stop offset="1" stop-color="#7E3945"/>
</linearGradient>
<linearGradient id="paint8_linear_1147_495" x1="175.18" y1="100.19" x2="175.18" y2="155.666" gradientUnits="userSpaceOnUse">
<stop stop-color="#96403D"/>
<stop offset="1" stop-color="#9E5D63" stop-opacity="0.41"/>
</linearGradient>
<linearGradient id="paint9_linear_1147_495" x1="175.18" y1="100.19" x2="175.18" y2="155.666" gradientUnits="userSpaceOnUse">
<stop stop-color="#96403D"/>
<stop offset="1" stop-color="#9E5D63" stop-opacity="0.41"/>
</linearGradient>
<linearGradient id="paint10_linear_1147_495" x1="105.671" y1="100.19" x2="105.671" y2="156.084" gradientUnits="userSpaceOnUse">
<stop stop-color="#8C4858"/>
<stop offset="1" stop-color="#7A3D4B"/>
</linearGradient>
<linearGradient id="paint11_linear_1147_495" x1="91.679" y1="113.008" x2="76.1794" y2="125.993" gradientUnits="userSpaceOnUse">
<stop stop-color="#7A3444"/>
<stop offset="1" stop-color="#7B3E4B"/>
</linearGradient>
<linearGradient id="paint12_linear_1147_495" x1="238.962" y1="131.731" x2="318.384" y2="254.092" gradientUnits="userSpaceOnUse">
<stop stop-color="#C67465"/>
<stop offset="1" stop-color="#DC927D"/>
</linearGradient>
<linearGradient id="paint13_linear_1147_495" x1="238.962" y1="131.731" x2="318.384" y2="254.092" gradientUnits="userSpaceOnUse">
<stop stop-color="#C67465"/>
<stop offset="1" stop-color="#DC927D"/>
</linearGradient>
<linearGradient id="paint14_linear_1147_495" x1="238.962" y1="131.731" x2="318.384" y2="254.092" gradientUnits="userSpaceOnUse">
<stop stop-color="#C67465"/>
<stop offset="1" stop-color="#DC927D"/>
</linearGradient>
<linearGradient id="paint15_linear_1147_495" x1="238.962" y1="131.731" x2="318.384" y2="254.092" gradientUnits="userSpaceOnUse">
<stop stop-color="#C67465"/>
<stop offset="1" stop-color="#DC927D"/>
</linearGradient>
<linearGradient id="paint16_linear_1147_495" x1="863.148" y1="143.872" x2="707.3" y2="112.182" gradientUnits="userSpaceOnUse">
<stop stop-color="#D58C75"/>
<stop offset="0.454968" stop-color="#CE7662"/>
</linearGradient>
<linearGradient id="paint17_linear_1147_495" x1="863.148" y1="143.872" x2="707.3" y2="112.182" gradientUnits="userSpaceOnUse">
<stop stop-color="#D58C75"/>
<stop offset="0.454968" stop-color="#CE7662"/>
</linearGradient>
<linearGradient id="paint18_linear_1147_495" x1="723.679" y1="99.0723" x2="723.679" y2="157.105" gradientUnits="userSpaceOnUse">
<stop stop-color="#A35B48"/>
<stop offset="0.5" stop-color="#C17468"/>
<stop offset="0.983041" stop-color="#B85555"/>
</linearGradient>
<linearGradient id="paint19_linear_1147_495" x1="723.679" y1="99.0723" x2="723.679" y2="157.105" gradientUnits="userSpaceOnUse">
<stop stop-color="#A35B48"/>
<stop offset="0.5" stop-color="#C17468"/>
<stop offset="0.983041" stop-color="#B85555"/>
</linearGradient>
<linearGradient id="paint20_linear_1147_495" x1="723.679" y1="99.0723" x2="723.679" y2="157.105" gradientUnits="userSpaceOnUse">
<stop stop-color="#A35B48"/>
<stop offset="0.5" stop-color="#C17468"/>
<stop offset="0.983041" stop-color="#B85555"/>
</linearGradient>
<linearGradient id="paint21_linear_1147_495" x1="723.679" y1="99.0723" x2="723.679" y2="157.105" gradientUnits="userSpaceOnUse">
<stop stop-color="#A35B48"/>
<stop offset="0.5" stop-color="#C17468"/>
<stop offset="0.983041" stop-color="#B85555"/>
</linearGradient>
<linearGradient id="paint22_linear_1147_495" x1="723.679" y1="99.0723" x2="723.679" y2="157.105" gradientUnits="userSpaceOnUse">
<stop stop-color="#A35B48"/>
<stop offset="0.5" stop-color="#C17468"/>
<stop offset="0.983041" stop-color="#B85555"/>
</linearGradient>
<linearGradient id="paint23_linear_1147_495" x1="723.679" y1="99.0723" x2="723.679" y2="157.105" gradientUnits="userSpaceOnUse">
<stop stop-color="#A35B48"/>
<stop offset="0.5" stop-color="#C17468"/>
<stop offset="0.983041" stop-color="#B85555"/>
</linearGradient>
<linearGradient id="paint24_linear_1147_495" x1="723.679" y1="99.0723" x2="723.679" y2="157.105" gradientUnits="userSpaceOnUse">
<stop stop-color="#A35B48"/>
<stop offset="0.5" stop-color="#C17468"/>
<stop offset="0.983041" stop-color="#B85555"/>
</linearGradient>
<linearGradient id="paint25_linear_1147_495" x1="723.679" y1="99.0723" x2="723.679" y2="157.105" gradientUnits="userSpaceOnUse">
<stop stop-color="#A35B48"/>
<stop offset="0.5" stop-color="#C17468"/>
<stop offset="0.983041" stop-color="#B85555"/>
</linearGradient>
<linearGradient id="paint26_linear_1147_495" x1="723.679" y1="99.0723" x2="723.679" y2="157.105" gradientUnits="userSpaceOnUse">
<stop stop-color="#A35B48"/>
<stop offset="0.5" stop-color="#C17468"/>
<stop offset="0.983041" stop-color="#B85555"/>
</linearGradient>
<linearGradient id="paint27_linear_1147_495" x1="723.679" y1="99.0723" x2="723.679" y2="157.105" gradientUnits="userSpaceOnUse">
<stop stop-color="#A35B48"/>
<stop offset="0.5" stop-color="#C17468"/>
<stop offset="0.983041" stop-color="#B85555"/>
</linearGradient>
<linearGradient id="paint28_linear_1147_495" x1="723.679" y1="99.0723" x2="723.679" y2="157.105" gradientUnits="userSpaceOnUse">
<stop stop-color="#A35B48"/>
<stop offset="0.5" stop-color="#C17468"/>
<stop offset="0.983041" stop-color="#B85555"/>
</linearGradient>
<linearGradient id="paint29_linear_1147_495" x1="723.679" y1="99.0723" x2="723.679" y2="157.105" gradientUnits="userSpaceOnUse">
<stop stop-color="#A35B48"/>
<stop offset="0.5" stop-color="#C17468"/>
<stop offset="0.983041" stop-color="#B85555"/>
</linearGradient>
<linearGradient id="paint30_linear_1147_495" x1="723.679" y1="99.0723" x2="723.679" y2="157.105" gradientUnits="userSpaceOnUse">
<stop stop-color="#A35B48"/>
<stop offset="0.5" stop-color="#C17468"/>
<stop offset="0.983041" stop-color="#B85555"/>
</linearGradient>
<linearGradient id="paint31_linear_1147_495" x1="723.679" y1="99.0723" x2="723.679" y2="157.105" gradientUnits="userSpaceOnUse">
<stop stop-color="#A35B48"/>
<stop offset="0.5" stop-color="#C17468"/>
<stop offset="0.983041" stop-color="#B85555"/>
</linearGradient>
<linearGradient id="paint32_linear_1147_495" x1="0" y1="93.0761" x2="666.466" y2="93.0761" gradientUnits="userSpaceOnUse">
<stop stop-color="#F3B098"/>
<stop offset="1" stop-color="#FBCFB9"/>
</linearGradient>
<linearGradient id="paint33_linear_1147_495" x1="444.398" y1="77.3352" x2="444.398" y2="125.671" gradientUnits="userSpaceOnUse">
<stop stop-color="#E6A47D"/>
<stop offset="0.5" stop-color="#D69981"/>
<stop offset="1" stop-color="#E6B89E"/>
</linearGradient>
<linearGradient id="paint34_linear_1147_495" x1="444.398" y1="77.3352" x2="444.398" y2="125.671" gradientUnits="userSpaceOnUse">
<stop stop-color="#E6A47D"/>
<stop offset="0.5" stop-color="#D69981"/>
<stop offset="1" stop-color="#E6B89E"/>
</linearGradient>
<linearGradient id="paint35_linear_1147_495" x1="444.398" y1="77.3352" x2="444.398" y2="125.671" gradientUnits="userSpaceOnUse">
<stop stop-color="#E6A47D"/>
<stop offset="0.5" stop-color="#D69981"/>
<stop offset="1" stop-color="#E6B89E"/>
</linearGradient>
<linearGradient id="paint36_linear_1147_495" x1="444.398" y1="77.3352" x2="444.398" y2="125.671" gradientUnits="userSpaceOnUse">
<stop stop-color="#E6A47D"/>
<stop offset="0.5" stop-color="#D69981"/>
<stop offset="1" stop-color="#E6B89E"/>
</linearGradient>
<linearGradient id="paint37_linear_1147_495" x1="444.398" y1="77.3352" x2="444.398" y2="125.671" gradientUnits="userSpaceOnUse">
<stop stop-color="#E6A47D"/>
<stop offset="0.5" stop-color="#D69981"/>
<stop offset="1" stop-color="#E6B89E"/>
</linearGradient>
<linearGradient id="paint38_linear_1147_495" x1="444.398" y1="77.3352" x2="444.398" y2="125.671" gradientUnits="userSpaceOnUse">
<stop stop-color="#E6A47D"/>
<stop offset="0.5" stop-color="#D69981"/>
<stop offset="1" stop-color="#E6B89E"/>
</linearGradient>
<linearGradient id="paint39_linear_1147_495" x1="444.398" y1="77.3352" x2="444.398" y2="125.671" gradientUnits="userSpaceOnUse">
<stop stop-color="#E6A47D"/>
<stop offset="0.5" stop-color="#D69981"/>
<stop offset="1" stop-color="#E6B89E"/>
</linearGradient>
<linearGradient id="paint40_linear_1147_495" x1="444.398" y1="77.3352" x2="444.398" y2="125.671" gradientUnits="userSpaceOnUse">
<stop stop-color="#E6A47D"/>
<stop offset="0.5" stop-color="#D69981"/>
<stop offset="1" stop-color="#E6B89E"/>
</linearGradient>
<linearGradient id="paint41_linear_1147_495" x1="444.398" y1="77.3352" x2="444.398" y2="125.671" gradientUnits="userSpaceOnUse">
<stop stop-color="#E6A47D"/>
<stop offset="0.5" stop-color="#D69981"/>
<stop offset="1" stop-color="#E6B89E"/>
</linearGradient>
<linearGradient id="paint42_linear_1147_495" x1="444.398" y1="77.3352" x2="444.398" y2="125.671" gradientUnits="userSpaceOnUse">
<stop stop-color="#E6A47D"/>
<stop offset="0.5" stop-color="#D69981"/>
<stop offset="1" stop-color="#E6B89E"/>
</linearGradient>
<linearGradient id="paint43_linear_1147_495" x1="444.398" y1="77.3352" x2="444.398" y2="125.671" gradientUnits="userSpaceOnUse">
<stop stop-color="#E6A47D"/>
<stop offset="0.5" stop-color="#D69981"/>
<stop offset="1" stop-color="#E6B89E"/>
</linearGradient>
<linearGradient id="paint44_linear_1147_495" x1="444.398" y1="77.3352" x2="444.398" y2="125.671" gradientUnits="userSpaceOnUse">
<stop stop-color="#E6A47D"/>
<stop offset="0.5" stop-color="#D69981"/>
<stop offset="1" stop-color="#E6B89E"/>
</linearGradient>
<linearGradient id="paint45_linear_1147_495" x1="444.398" y1="77.3352" x2="444.398" y2="125.671" gradientUnits="userSpaceOnUse">
<stop stop-color="#E6A47D"/>
<stop offset="0.5" stop-color="#D69981"/>
<stop offset="1" stop-color="#E6B89E"/>
</linearGradient>
<linearGradient id="paint46_linear_1147_495" x1="444.398" y1="77.3352" x2="444.398" y2="125.671" gradientUnits="userSpaceOnUse">
<stop stop-color="#E6A47D"/>
<stop offset="0.5" stop-color="#D69981"/>
<stop offset="1" stop-color="#E6B89E"/>
</linearGradient>
<linearGradient id="paint47_linear_1147_495" x1="444.398" y1="77.3352" x2="444.398" y2="125.671" gradientUnits="userSpaceOnUse">
<stop stop-color="#E6A47D"/>
<stop offset="0.5" stop-color="#D69981"/>
<stop offset="1" stop-color="#E6B89E"/>
</linearGradient>
<linearGradient id="paint48_linear_1147_495" x1="444.398" y1="77.3352" x2="444.398" y2="125.671" gradientUnits="userSpaceOnUse">
<stop stop-color="#E6A47D"/>
<stop offset="0.5" stop-color="#D69981"/>
<stop offset="1" stop-color="#E6B89E"/>
</linearGradient>
<linearGradient id="paint49_linear_1147_495" x1="444.398" y1="77.3352" x2="444.398" y2="125.671" gradientUnits="userSpaceOnUse">
<stop stop-color="#E6A47D"/>
<stop offset="0.5" stop-color="#D69981"/>
<stop offset="1" stop-color="#E6B89E"/>
</linearGradient>
<linearGradient id="paint50_linear_1147_495" x1="6.88428" y1="73.8862" x2="286.702" y2="73.8862" gradientUnits="userSpaceOnUse">
<stop stop-color="#E9AA9E"/>
<stop offset="1" stop-color="#E07F6F"/>
</linearGradient>
<linearGradient id="paint51_linear_1147_495" x1="201.104" y1="51.1487" x2="623.365" y2="51.1487" gradientUnits="userSpaceOnUse">
<stop stop-color="#99523A"/>
<stop offset="0.471884" stop-color="#CE7E55"/>
<stop offset="0.978905" stop-color="#F2AA7A"/>
</linearGradient>
<linearGradient id="paint52_linear_1147_495" x1="201.103" y1="48.9413" x2="588.097" y2="43.9454" gradientUnits="userSpaceOnUse">
<stop stop-color="#8C452D"/>
<stop offset="0.5" stop-color="#82402A"/>
<stop offset="1" stop-color="#A35931"/>
</linearGradient>
<linearGradient id="paint53_linear_1147_495" x1="576.064" y1="27.0408" x2="590.61" y2="91.6001" gradientUnits="userSpaceOnUse">
<stop stop-color="#B87243"/>
<stop offset="1" stop-color="#DD9765"/>
</linearGradient>
<linearGradient id="paint54_linear_1147_495" x1="576.064" y1="27.0408" x2="590.61" y2="91.6001" gradientUnits="userSpaceOnUse">
<stop stop-color="#B87243"/>
<stop offset="1" stop-color="#DD9765"/>
</linearGradient>
<linearGradient id="paint55_linear_1147_495" x1="576.064" y1="27.0408" x2="590.61" y2="91.6001" gradientUnits="userSpaceOnUse">
<stop stop-color="#B87243"/>
<stop offset="1" stop-color="#DD9765"/>
</linearGradient>
<linearGradient id="paint56_linear_1147_495" x1="576.064" y1="27.0408" x2="590.61" y2="91.6001" gradientUnits="userSpaceOnUse">
<stop stop-color="#B87243"/>
<stop offset="1" stop-color="#DD9765"/>
</linearGradient>
<linearGradient id="paint57_linear_1147_495" x1="576.064" y1="27.0408" x2="590.61" y2="91.6001" gradientUnits="userSpaceOnUse">
<stop stop-color="#B87243"/>
<stop offset="1" stop-color="#DD9765"/>
</linearGradient>
<linearGradient id="paint58_linear_1147_495" x1="576.064" y1="27.0408" x2="590.61" y2="91.6001" gradientUnits="userSpaceOnUse">
<stop stop-color="#B87243"/>
<stop offset="1" stop-color="#DD9765"/>
</linearGradient>
</defs>
</svg>
