<svg width="312" height="384" viewBox="0 0 312 384" fill="none" xmlns="http://www.w3.org/2000/svg">
<g filter="url(#filter0_n_806_1857)">
<path d="M30.2956 185.687C36.4422 184.973 33.1358 181.109 30.7143 179.267C31.9222 175.546 27.1668 174.463 24.6381 174.387C22.6829 172.694 21.362 174.424 20.9459 175.501C16.013 176.251 16.698 179.831 17.6572 181.528C16.1025 182.869 16.5783 185.838 19.9739 186.703C23.962 189.192 25.836 188.207 26.2745 187.403C29.7603 189.305 30.4076 187.051 30.2956 185.687Z" fill="url(#paint0_linear_806_1857)"/>
</g>
<g filter="url(#filter1_n_806_1857)">
<path d="M249.47 129.563C235.063 146.878 253.48 148.758 264.489 147.533C270.65 160.372 285.901 151.283 292.756 145.134C302.159 144.684 301.296 136.808 299.689 132.926C310.806 118.562 300.008 110.846 293.22 108.784C293.948 101.344 285.239 94.7153 274.119 100.964C257.358 104.42 254.893 111.722 255.756 114.941C241.793 118.682 245.747 126.248 249.47 129.563Z" fill="url(#paint1_linear_806_1857)"/>
</g>
<g filter="url(#filter2_n_806_1857)">
<path d="M202.297 77.4321C194.697 71.4321 189.131 77.9321 187.297 81.9321C177.297 79.5321 176.131 87.5988 176.797 91.9321C167.597 91.1321 167.631 99.2655 168.797 103.432C165.597 110.632 172.797 113.432 176.797 113.932C179.597 120.332 184.964 118.599 187.297 116.932C200.297 123.932 203.797 111.932 203.797 110.932C213.297 111.932 208.297 105.432 208.297 104.432C213.097 105.632 213.964 101.599 213.797 99.4321C218.597 93.0321 213.797 89.4321 210.797 88.4321C212.797 78.0321 205.964 76.7654 202.297 77.4321Z" fill="url(#paint2_linear_806_1857)"/>
</g>
<g filter="url(#filter3_n_806_1857)">
<path d="M130.51 7.53652C111.51 -11.9635 104.01 12.5365 103.51 12.5365C98.3104 11.3365 94.0104 14.3698 92.5104 16.0365C87.7104 19.6365 88.5104 25.8698 89.5104 28.5365C83.9104 28.5365 83.5104 31.8698 84.0104 33.5365C75.2104 30.7365 70.3438 38.7032 69.0104 43.0365C66.2104 53.0365 71.1771 58.5365 74.0104 60.0365C73.2104 63.2365 75.6771 65.0365 77.0104 65.5365C68.6104 65.9365 66.8438 74.3698 67.0104 78.5365C68.6104 93.3365 79.0104 94.7032 84.0104 93.5365C92.0104 109.536 104.677 101.87 110.01 96.0365C111.61 98.4365 116.344 95.7032 118.51 94.0365C121.31 96.8365 127.677 95.2032 130.51 94.0365C141.71 98.4365 146.844 89.5365 148.01 84.5365C164.01 82.9365 162.01 72.2032 159.01 67.0365C173.01 67.0365 175.51 54.3698 175.01 48.0365C173.41 26.4365 159.677 26.0365 153.01 28.5365C152.61 17.3365 144.177 16.2032 140.01 17.0365C142.01 5.8365 134.51 6.03651 130.51 7.53652Z" fill="url(#paint3_linear_806_1857)"/>
</g>
<g filter="url(#filter4_n_806_1857)">
<path d="M52.9542 126.606C48.5541 111.006 36.1208 114.439 30.4542 118.106C14.4541 111.306 11.1208 122.273 11.4542 128.606C5.45416 132.206 6.95416 138.439 8.45415 141.106C-7.54585 152.706 2.78749 161.272 9.95415 164.106C12.3542 169.306 18.6208 167.606 21.4542 166.106C24.6542 174.906 33.4542 172.106 37.4542 169.606C44.6542 177.606 53.4542 171.606 56.9542 167.606C81.3541 152.006 71.4541 142.773 63.4542 140.106C69.0542 126.106 58.7875 125.273 52.9542 126.606Z" fill="url(#paint4_linear_806_1857)"/>
</g>
<g filter="url(#filter5_n_806_1857)">
<path d="M116.5 255C126.5 275 126.667 309.667 125.5 324.5L143.5 281L135.5 264C117.9 222.4 91.5 198.667 80.5 192C68.9 184 60 166.667 57 159C57.4 163 60.1667 170.667 61.5 174C59.1 172 50.1667 163.5 46 159.5C48 163.1 63.1667 181 70.5 189.5C62.9 184.3 37.3333 179.667 25.5 178V179C83.1 191.4 106.5 225.167 111 240.5C97.8 232.5 76.5 227.167 67.5 225.5L66 227C90.8 231 110 247.333 116.5 255Z" fill="url(#paint5_linear_806_1857)"/>
</g>
<g filter="url(#filter6_n_806_1857)">
<path d="M225.5 167.5C171.9 219.1 154.5 269.333 152.5 288H142.5L146.5 253.5C150.9 243.5 172 216.333 182 204C199.6 181.6 196 158.667 192 150L193 149.5C195 151.5 196.833 158.667 197.5 162L200 158.5L201 159.5L199 163.5C199.4 164.7 199.167 179.333 199 186.5C211 173.3 250.667 144.667 269 132L270 133.5L261.5 141.5L269.5 139.5V141C256.3 143.4 234.667 159.667 225.5 167.5Z" fill="url(#paint6_linear_806_1857)"/>
</g>
<g filter="url(#filter7_n_806_1857)">
<path d="M132.5 77C120.9 121 132.333 162.667 139.5 178C139.5 168 149.833 149.833 155 142C155 132.167 154.9 112.3 154.5 111.5C154.1 110.7 156 111.167 157 111.5L158.5 136C164.1 127.6 173.833 114.167 178 108.5L172 121L182 109.5V112.5C153.6 143.3 146.167 176 146 188.5C144.051 204.094 150.492 252.3 154.215 276.184C154.402 277.387 154.307 278.624 153.957 279.79C137.87 333.462 145.566 363.258 151.5 371.5C153.5 375.9 173 381.667 182.5 384H60C61.6 382 79 374.833 87.5 371.5C105.9 357.9 125.167 307.167 132.5 283.5C142.9 241.5 131.5 169.333 124.5 138.5C122.5 134.5 112 111.833 107 101C112.6 111.8 121 122.833 124.5 127C124.5 123.8 123.833 111.667 123.5 106C122.7 101.6 116.833 82.8333 114 74H116C121.6 96 125 100.833 126 100.5L130.5 77H132.5Z" fill="url(#paint7_linear_806_1857)"/>
</g>
<g filter="url(#filter8_n_806_1857)">
<path d="M182.5 384C146.9 373.6 148.594 309.333 153.927 277C133.527 351.8 139.073 383 155 384H182.5Z" fill="#AE8B85"/>
</g>
<defs>
<filter id="filter0_n_806_1857" x="16.8089" y="173.677" width="16.9949" height="14.6124" filterUnits="userSpaceOnUse" color-interpolation-filters="sRGB">
<feFlood flood-opacity="0" result="BackgroundImageFix"/>
<feBlend mode="normal" in="SourceGraphic" in2="BackgroundImageFix" result="shape"/>
<feTurbulence type="fractalNoise" baseFrequency="0.65 0.65" stitchTiles="stitch" numOctaves="3" result="noise" seed="3546" />
<feColorMatrix in="noise" type="luminanceToAlpha" result="alphaNoise" />
<feComponentTransfer in="alphaNoise" result="coloredNoise1">
<feFuncA type="discrete" tableValues="1 1 1 1 1 1 1 1 1 1 1 1 1 1 1 1 1 1 1 1 1 1 1 1 1 1 1 1 1 1 1 1 1 1 1 1 1 1 1 1 1 1 1 1 1 1 1 1 1 1 1 0 0 0 0 0 0 0 0 0 0 0 0 0 0 0 0 0 0 0 0 0 0 0 0 0 0 0 0 0 0 0 0 0 0 0 0 0 0 0 0 0 0 0 0 0 0 0 0 0 "/>
</feComponentTransfer>
<feComposite operator="in" in2="shape" in="coloredNoise1" result="noise1Clipped" />
<feFlood flood-color="rgba(154, 70, 70, 0.25)" result="color1Flood" />
<feComposite operator="in" in2="noise1Clipped" in="color1Flood" result="color1" />
<feMerge result="effect1_noise_806_1857">
<feMergeNode in="shape" />
<feMergeNode in="color1" />
</feMerge>
</filter>
<filter id="filter1_n_806_1857" x="244.182" y="98.4789" width="60.3" height="55.5592" filterUnits="userSpaceOnUse" color-interpolation-filters="sRGB">
<feFlood flood-opacity="0" result="BackgroundImageFix"/>
<feBlend mode="normal" in="SourceGraphic" in2="BackgroundImageFix" result="shape"/>
<feTurbulence type="fractalNoise" baseFrequency="0.65 0.65" stitchTiles="stitch" numOctaves="3" result="noise" seed="6445" />
<feColorMatrix in="noise" type="luminanceToAlpha" result="alphaNoise" />
<feComponentTransfer in="alphaNoise" result="coloredNoise1">
<feFuncA type="discrete" tableValues="1 1 1 1 1 1 1 1 1 1 1 1 1 1 1 1 1 1 1 1 1 1 1 1 1 1 1 1 1 1 1 1 1 1 1 1 1 1 1 1 1 1 1 1 1 1 1 1 1 1 1 0 0 0 0 0 0 0 0 0 0 0 0 0 0 0 0 0 0 0 0 0 0 0 0 0 0 0 0 0 0 0 0 0 0 0 0 0 0 0 0 0 0 0 0 0 0 0 0 0 "/>
</feComponentTransfer>
<feComposite operator="in" in2="shape" in="coloredNoise1" result="noise1Clipped" />
<feFlood flood-color="rgba(194, 93, 93, 0.10)" result="color1Flood" />
<feComposite operator="in" in2="noise1Clipped" in="color1Flood" result="color1" />
<feMerge result="effect1_noise_806_1857">
<feMergeNode in="shape" />
<feMergeNode in="color1" />
</feMerge>
</filter>
<filter id="filter2_n_806_1857" x="168" y="75" width="47.8338" height="44.1133" filterUnits="userSpaceOnUse" color-interpolation-filters="sRGB">
<feFlood flood-opacity="0" result="BackgroundImageFix"/>
<feBlend mode="normal" in="SourceGraphic" in2="BackgroundImageFix" result="shape"/>
<feTurbulence type="fractalNoise" baseFrequency="0.65 0.65" stitchTiles="stitch" numOctaves="3" result="noise" seed="3546" />
<feColorMatrix in="noise" type="luminanceToAlpha" result="alphaNoise" />
<feComponentTransfer in="alphaNoise" result="coloredNoise1">
<feFuncA type="discrete" tableValues="1 1 1 1 1 1 1 1 1 1 1 1 1 1 1 1 1 1 1 1 1 1 1 1 1 1 1 1 1 1 1 1 1 1 1 1 1 1 1 1 1 1 1 1 1 1 1 1 1 1 1 0 0 0 0 0 0 0 0 0 0 0 0 0 0 0 0 0 0 0 0 0 0 0 0 0 0 0 0 0 0 0 0 0 0 0 0 0 0 0 0 0 0 0 0 0 0 0 0 0 "/>
</feComponentTransfer>
<feComposite operator="in" in2="shape" in="coloredNoise1" result="noise1Clipped" />
<feFlood flood-color="rgba(215, 78, 78, 0.25)" result="color1Flood" />
<feComposite operator="in" in2="noise1Clipped" in="color1Flood" result="color1" />
<feMerge result="effect1_noise_806_1857">
<feMergeNode in="shape" />
<feMergeNode in="color1" />
</feMerge>
</filter>
<filter id="filter3_n_806_1857" x="67" y="0" width="108.069" height="103.084" filterUnits="userSpaceOnUse" color-interpolation-filters="sRGB">
<feFlood flood-opacity="0" result="BackgroundImageFix"/>
<feBlend mode="normal" in="SourceGraphic" in2="BackgroundImageFix" result="shape"/>
<feTurbulence type="fractalNoise" baseFrequency="0.65 0.65" stitchTiles="stitch" numOctaves="3" result="noise" seed="3546" />
<feColorMatrix in="noise" type="luminanceToAlpha" result="alphaNoise" />
<feComponentTransfer in="alphaNoise" result="coloredNoise1">
<feFuncA type="discrete" tableValues="1 1 1 1 1 1 1 1 1 1 1 1 1 1 1 1 1 1 1 1 1 1 1 1 1 1 1 1 1 1 1 1 1 1 1 1 1 1 1 1 1 1 1 1 1 1 1 1 1 1 1 0 0 0 0 0 0 0 0 0 0 0 0 0 0 0 0 0 0 0 0 0 0 0 0 0 0 0 0 0 0 0 0 0 0 0 0 0 0 0 0 0 0 0 0 0 0 0 0 0 "/>
</feComponentTransfer>
<feComposite operator="in" in2="shape" in="coloredNoise1" result="noise1Clipped" />
<feFlood flood-color="rgba(209, 86, 86, 0.25)" result="color1Flood" />
<feComposite operator="in" in2="noise1Clipped" in="color1Flood" result="color1" />
<feMerge result="effect1_noise_806_1857">
<feMergeNode in="shape" />
<feMergeNode in="color1" />
</feMerge>
</filter>
<filter id="filter4_n_806_1857" x="0" y="115" width="72.387" height="58.5492" filterUnits="userSpaceOnUse" color-interpolation-filters="sRGB">
<feFlood flood-opacity="0" result="BackgroundImageFix"/>
<feBlend mode="normal" in="SourceGraphic" in2="BackgroundImageFix" result="shape"/>
<feTurbulence type="fractalNoise" baseFrequency="0.65 0.65" stitchTiles="stitch" numOctaves="3" result="noise" seed="3546" />
<feColorMatrix in="noise" type="luminanceToAlpha" result="alphaNoise" />
<feComponentTransfer in="alphaNoise" result="coloredNoise1">
<feFuncA type="discrete" tableValues="1 1 1 1 1 1 1 1 1 1 1 1 1 1 1 1 1 1 1 1 1 1 1 1 1 1 1 1 1 1 1 1 1 1 1 1 1 1 1 1 1 1 1 1 1 1 1 1 1 1 1 0 0 0 0 0 0 0 0 0 0 0 0 0 0 0 0 0 0 0 0 0 0 0 0 0 0 0 0 0 0 0 0 0 0 0 0 0 0 0 0 0 0 0 0 0 0 0 0 0 "/>
</feComponentTransfer>
<feComposite operator="in" in2="shape" in="coloredNoise1" result="noise1Clipped" />
<feFlood flood-color="rgba(154, 70, 70, 0.25)" result="color1Flood" />
<feComposite operator="in" in2="noise1Clipped" in="color1Flood" result="color1" />
<feMerge result="effect1_noise_806_1857">
<feMergeNode in="shape" />
<feMergeNode in="color1" />
</feMerge>
</filter>
<filter id="filter5_n_806_1857" x="25.5" y="159" width="118" height="165.5" filterUnits="userSpaceOnUse" color-interpolation-filters="sRGB">
<feFlood flood-opacity="0" result="BackgroundImageFix"/>
<feBlend mode="normal" in="SourceGraphic" in2="BackgroundImageFix" result="shape"/>
<feTurbulence type="fractalNoise" baseFrequency="0.65 0.65" stitchTiles="stitch" numOctaves="3" result="noise" seed="9117" />
<feColorMatrix in="noise" type="luminanceToAlpha" result="alphaNoise" />
<feComponentTransfer in="alphaNoise" result="coloredNoise1">
<feFuncA type="discrete" tableValues="1 1 1 1 1 1 1 1 1 1 1 1 1 1 1 1 1 1 1 1 1 1 1 1 1 1 1 1 1 1 1 1 1 1 1 1 1 1 1 1 1 1 1 1 1 1 1 1 1 1 1 0 0 0 0 0 0 0 0 0 0 0 0 0 0 0 0 0 0 0 0 0 0 0 0 0 0 0 0 0 0 0 0 0 0 0 0 0 0 0 0 0 0 0 0 0 0 0 0 0 "/>
</feComponentTransfer>
<feComposite operator="in" in2="shape" in="coloredNoise1" result="noise1Clipped" />
<feFlood flood-color="rgba(0, 0, 0, 0.10)" result="color1Flood" />
<feComposite operator="in" in2="noise1Clipped" in="color1Flood" result="color1" />
<feMerge result="effect1_noise_806_1857">
<feMergeNode in="shape" />
<feMergeNode in="color1" />
</feMerge>
</filter>
<filter id="filter6_n_806_1857" x="142.5" y="132" width="127.5" height="156" filterUnits="userSpaceOnUse" color-interpolation-filters="sRGB">
<feFlood flood-opacity="0" result="BackgroundImageFix"/>
<feBlend mode="normal" in="SourceGraphic" in2="BackgroundImageFix" result="shape"/>
<feTurbulence type="fractalNoise" baseFrequency="0.65 0.65" stitchTiles="stitch" numOctaves="3" result="noise" seed="3328" />
<feColorMatrix in="noise" type="luminanceToAlpha" result="alphaNoise" />
<feComponentTransfer in="alphaNoise" result="coloredNoise1">
<feFuncA type="discrete" tableValues="1 1 1 1 1 1 1 1 1 1 1 1 1 1 1 1 1 1 1 1 1 1 1 1 1 1 1 1 1 1 1 1 1 1 1 1 1 1 1 1 1 1 1 1 1 1 1 1 1 1 1 0 0 0 0 0 0 0 0 0 0 0 0 0 0 0 0 0 0 0 0 0 0 0 0 0 0 0 0 0 0 0 0 0 0 0 0 0 0 0 0 0 0 0 0 0 0 0 0 0 "/>
</feComponentTransfer>
<feComposite operator="in" in2="shape" in="coloredNoise1" result="noise1Clipped" />
<feFlood flood-color="rgba(28, 13, 13, 0.10)" result="color1Flood" />
<feComposite operator="in" in2="noise1Clipped" in="color1Flood" result="color1" />
<feMerge result="effect1_noise_806_1857">
<feMergeNode in="shape" />
<feMergeNode in="color1" />
</feMerge>
</filter>
<filter id="filter7_n_806_1857" x="60" y="74" width="122.5" height="310" filterUnits="userSpaceOnUse" color-interpolation-filters="sRGB">
<feFlood flood-opacity="0" result="BackgroundImageFix"/>
<feBlend mode="normal" in="SourceGraphic" in2="BackgroundImageFix" result="shape"/>
<feTurbulence type="fractalNoise" baseFrequency="0.65 0.65" stitchTiles="stitch" numOctaves="3" result="noise" seed="4102" />
<feColorMatrix in="noise" type="luminanceToAlpha" result="alphaNoise" />
<feComponentTransfer in="alphaNoise" result="coloredNoise1">
<feFuncA type="discrete" tableValues="1 1 1 1 1 1 1 1 1 1 1 1 1 1 1 1 1 1 1 1 1 1 1 1 1 1 1 1 1 1 1 1 1 1 1 1 1 1 1 1 1 1 1 1 1 1 1 1 1 1 1 0 0 0 0 0 0 0 0 0 0 0 0 0 0 0 0 0 0 0 0 0 0 0 0 0 0 0 0 0 0 0 0 0 0 0 0 0 0 0 0 0 0 0 0 0 0 0 0 0 "/>
</feComponentTransfer>
<feComposite operator="in" in2="shape" in="coloredNoise1" result="noise1Clipped" />
<feFlood flood-color="rgba(72, 35, 35, 0.10)" result="color1Flood" />
<feComposite operator="in" in2="noise1Clipped" in="color1Flood" result="color1" />
<feMerge result="effect1_noise_806_1857">
<feMergeNode in="shape" />
<feMergeNode in="color1" />
</feMerge>
</filter>
<filter id="filter8_n_806_1857" x="140.729" y="277" width="41.7708" height="107" filterUnits="userSpaceOnUse" color-interpolation-filters="sRGB">
<feFlood flood-opacity="0" result="BackgroundImageFix"/>
<feBlend mode="normal" in="SourceGraphic" in2="BackgroundImageFix" result="shape"/>
<feTurbulence type="fractalNoise" baseFrequency="0.65 0.65" stitchTiles="stitch" numOctaves="3" result="noise" seed="7161" />
<feColorMatrix in="noise" type="luminanceToAlpha" result="alphaNoise" />
<feComponentTransfer in="alphaNoise" result="coloredNoise1">
<feFuncA type="discrete" tableValues="1 1 1 1 1 1 1 1 1 1 1 1 1 1 1 1 1 1 1 1 1 1 1 1 1 1 1 1 1 1 1 1 1 1 1 1 1 1 1 1 1 1 1 1 1 1 1 1 1 1 1 0 0 0 0 0 0 0 0 0 0 0 0 0 0 0 0 0 0 0 0 0 0 0 0 0 0 0 0 0 0 0 0 0 0 0 0 0 0 0 0 0 0 0 0 0 0 0 0 0 "/>
</feComponentTransfer>
<feComposite operator="in" in2="shape" in="coloredNoise1" result="noise1Clipped" />
<feFlood flood-color="rgba(139, 47, 47, 0.10)" result="color1Flood" />
<feComposite operator="in" in2="noise1Clipped" in="color1Flood" result="color1" />
<feMerge result="effect1_noise_806_1857">
<feMergeNode in="shape" />
<feMergeNode in="color1" />
</feMerge>
</filter>
<linearGradient id="paint0_linear_806_1857" x1="19.0841" y1="182.383" x2="32.7873" y2="183.258" gradientUnits="userSpaceOnUse">
<stop stop-color="#E1CCC9"/>
<stop offset="1" stop-color="#C18184"/>
</linearGradient>
<linearGradient id="paint1_linear_806_1857" x1="287.312" y1="110.114" x2="249.003" y2="142.221" gradientUnits="userSpaceOnUse">
<stop stop-color="#E1CCC9"/>
<stop offset="1" stop-color="#C18184"/>
</linearGradient>
<linearGradient id="paint2_linear_806_1857" x1="191.917" y1="75" x2="191.917" y2="119.113" gradientUnits="userSpaceOnUse">
<stop stop-color="#DEC1B8"/>
<stop offset="1" stop-color="#AA7B74"/>
</linearGradient>
<linearGradient id="paint3_linear_806_1857" x1="121.034" y1="0" x2="121.034" y2="103.084" gradientUnits="userSpaceOnUse">
<stop stop-color="#EED8D5"/>
<stop offset="0.5" stop-color="#DA9F99"/>
<stop offset="1" stop-color="#C18184"/>
</linearGradient>
<linearGradient id="paint4_linear_806_1857" x1="36.1935" y1="115" x2="36.1935" y2="173.549" gradientUnits="userSpaceOnUse">
<stop stop-color="#E4CBC3"/>
<stop offset="1" stop-color="#C38584"/>
</linearGradient>
<linearGradient id="paint5_linear_806_1857" x1="84.5" y1="159" x2="84.5" y2="324.5" gradientUnits="userSpaceOnUse">
<stop stop-color="#6C5D58"/>
<stop offset="0.389423" stop-color="#896F6A"/>
<stop offset="1" stop-color="#60433D"/>
</linearGradient>
<linearGradient id="paint6_linear_806_1857" x1="206.25" y1="132" x2="206.25" y2="288" gradientUnits="userSpaceOnUse">
<stop stop-color="#6C5D58"/>
<stop offset="1" stop-color="#80615D"/>
</linearGradient>
<linearGradient id="paint7_linear_806_1857" x1="121.25" y1="74" x2="121.25" y2="384" gradientUnits="userSpaceOnUse">
<stop stop-color="#6C5D58"/>
<stop offset="0.885658" stop-color="#856C67"/>
<stop offset="1" stop-color="#6B4B46"/>
</linearGradient>
</defs>
</svg>
