<svg width="72" height="80" viewBox="0 0 72 80" fill="none" xmlns="http://www.w3.org/2000/svg">
<path d="M47.4785 10.9372C37.4597 -7.51849 27.4848 1.48965 23.7497 8.30068C12.6763 8.30068 12.5445 18.8467 13.8627 24.1198C8.58964 24.1198 5.07432 28.0746 3.97579 30.052C-3.93376 40.0708 3.75609 46.9697 8.58972 49.1668C2.78935 49.6941 0.46042 55.9778 0.0209974 59.0538C-0.506308 71.1818 9.02911 70.6984 13.8627 68.9408C11.8853 73.5547 16.4993 76.1912 17.1584 76.8503C26.1226 83.178 35.3944 74.2138 38.9097 68.9408C46.8193 74.7411 50.9938 68.2816 52.0924 64.3268C62.6385 63.2722 61.3202 56.4172 59.3428 53.1216C66.7251 52.067 70.3284 43.8937 71.2072 39.9389C72.7891 23.0652 62.6385 23.2409 57.3654 25.438C57.8927 19.1104 54.0698 20.165 52.0924 21.4833C54.7289 11.9918 50.115 10.4978 47.4785 10.9372Z" fill="url(#paint0_linear_1123_84)"/>
<defs>
<linearGradient id="paint0_linear_1123_84" x1="35.6863" y1="0" x2="35.6863" y2="79.0267" gradientUnits="userSpaceOnUse">
<stop stop-color="#E1CCC9"/>
<stop offset="1" stop-color="#C67C7F"/>
</linearGradient>
</defs>
</svg>
