<svg width="44" height="38" viewBox="0 0 44 38" fill="none" xmlns="http://www.w3.org/2000/svg">
<path d="M12.6633 1.32379C5.42713 4.21824 4.82412 10.57 5.42713 13.384C1.08547 13.384 1.9936e-05 19.8161 0 23.0322C0.964819 32.6804 8.44216 32.6804 12.0602 31.4744C13.5075 39.1929 19.4974 37.5045 22.3114 35.6955C26.1707 39.0723 31.5576 36.2985 33.7687 34.4894C36.6631 35.9367 40.6028 31.4744 42.2108 29.0623C46.5525 17.0021 39.5978 14.389 35.5777 14.5901C38.4721 4.45946 30.3516 3.13282 25.9295 3.73583C23.5175 -1.57067 16.0803 -0.0832418 12.6633 1.32379Z" fill="url(#paint0_linear_1123_85)"/>
<defs>
<linearGradient id="paint0_linear_1123_85" x1="21.794" y1="0" x2="21.794" y2="37.2865" gradientUnits="userSpaceOnUse">
<stop stop-color="#E1CCC9"/>
<stop offset="1" stop-color="#C58B8D"/>
</linearGradient>
</defs>
</svg>
